<svg width="115" height="115" viewBox="0 0 115 115" fill="none" xmlns="http://www.w3.org/2000/svg">
<g clip-path="url(#clip0_1004_4105)">
<path d="M34.1395 115V111.206H22.7597V103.617H18.9656V99.823H11.3798V88.4396H7.58582V64.5062H27.7532V68.2999H39.133V75.8895H45.5193V69.4667H41.7253V61.8793H30.3455V58.0834H22.7597V46.7001H18.9656V15.177H22.7597V7.58961H30.3455V0H84.6523V7.58961H92.2403V15.177H96.0321V46.7001H92.2403V58.0834H84.6523V61.8793H73.2725V69.4667H69.4807V75.8895H75.8648V68.2999H87.2446V64.5062H107.412V88.4396H103.62V99.823H96.0321V103.617H92.2403V111.206H80.8605V115H34.1395Z" fill="#F7F4F6"/>
<path d="M95.4324 68.8846H91.6384V72.6783H87.8466H84.0526H80.2585V76.4721V80.268H76.4667H72.6727H68.8787V84.0617H65.0869V80.268V76.4721V72.6783V68.8846V65.0887H68.8787V61.295V57.5013H72.6727H76.4667H80.2585V53.7054H84.0526H87.8466V49.9117V46.118V42.3221H91.6384V38.5284V34.7347V30.9388V27.1451V23.3513V19.5555H87.8466V15.7617V11.968H84.0526H80.2585V8.17213V4.37842H76.4667H72.6727V8.17213H68.8787V11.968H65.0869V8.17213V4.37842H61.2929H57.4989H53.7071H49.9131V8.17213V11.968H46.119V8.17213H42.3272V4.37842H38.5332H34.7392V8.17213V11.968H30.9474H27.1534V15.7617V19.5555H23.3594V23.3513V27.1451V30.9388V34.7347V38.5284V42.3221H27.1534V46.118V49.9117V53.7054H30.9474H34.7392V57.5013H38.5332H42.3272H46.119V61.295V65.0887H49.9131V68.8846V72.6783V76.4721V80.268V84.0617H46.119H42.3272V80.268H38.5332H34.7392V76.4721V72.6783H30.9474H27.1534H23.3594V68.8846H19.5676H15.7736H11.9796V72.6783V76.4721V80.268V84.0617H15.7736V87.8554V91.6513V95.445H19.5676H23.3594V99.2387H27.1534V103.035V106.828H30.9474H34.7392H38.5332V110.622H42.3272H46.119H49.9131H53.7071H57.4989H61.2929H65.0869H68.8787H72.6727H76.4667V106.828H80.2585H84.0526H87.8466V103.035V99.2387H91.6384V95.445H95.4324H99.2264V91.6513V87.8554V84.0617H103.018V80.268V76.4721V72.6783V68.8846H99.2264H95.4324Z" fill="#F7F4F6"/>
<path d="M98.6244 61.8795V58.0836H94.8326V45.5335H98.6244V41.7397H111.206V45.5335H115V58.0836H111.206V61.8795H98.6244Z" fill="#F7F4F6"/>
<path d="M106.812 49.9114V46.1177H103.018V49.9114H99.2264V53.7051H103.018V57.501H106.812V53.7051H110.606V49.9114H106.812Z" fill="#F7F4F6"/>
<path d="M3.79401 23.9337V20.14H0V7.58984H3.79401V3.79395H16.3733V7.58984H20.1673V20.14H16.3733V23.9337H3.79401Z" fill="#F7F4F6"/>
<path d="M11.9796 19.5552V15.7615H15.7736V11.9678H11.9796V8.17188H8.18775V11.9678H4.39374V15.7615H8.18775V19.5552H11.9796Z" fill="#F7F4F6"/>
<path d="M76.4667 106.828H72.6727V110.622H76.4667V106.828Z" fill="#2F6431"/>
<path d="M72.6727 106.828H68.8787V110.622H72.6727V106.828Z" fill="#306532"/>
<path d="M68.8809 106.828H65.0869V110.622H68.8809V106.828Z" fill="#2F6431"/>
<path d="M65.0869 106.828H61.2929V110.622H65.0869V106.828Z" fill="#2D6432"/>
<path d="M61.2929 106.828H57.4989V110.622H61.2929V106.828Z" fill="#2D6432"/>
<path d="M57.5011 106.828H53.7071V110.622H57.5011V106.828Z" fill="#2E6432"/>
<path d="M53.7071 106.828H49.9131V110.622H53.7071V106.828Z" fill="#2D6432"/>
<path d="M49.9131 106.828H46.1191V110.622H49.9131V106.828Z" fill="#2F6431"/>
<path d="M46.1213 106.828H42.3273V110.622H46.1213V106.828Z" fill="#2F6431"/>
<path d="M42.3272 106.828H38.5332V110.622H42.3272V106.828Z" fill="#2F6431"/>
<path d="M87.8466 103.035H84.0526V106.828H87.8466V103.035Z" fill="#306431"/>
<path d="M84.0526 103.035H80.2585V106.828H84.0526V103.035Z" fill="#2D6432"/>
<path d="M80.2607 103.035H76.4667V106.828H80.2607V103.035Z" fill="#316331"/>
<path d="M76.4667 103.035H72.6727V106.828H76.4667V103.035Z" fill="#467437"/>
<path d="M72.6727 103.035H68.8787V106.828H72.6727V103.035Z" fill="#467437"/>
<path d="M68.8809 103.035H65.0869V106.828H68.8809V103.035Z" fill="#437538"/>
<path d="M65.0869 103.035H61.2929V106.828H65.0869V103.035Z" fill="#2D6432"/>
<path d="M61.2929 103.035H57.4989V106.828H61.2929V103.035Z" fill="#4F863D"/>
<path d="M57.5011 103.035H53.7071V106.828H57.5011V103.035Z" fill="#4E863E"/>
<path d="M53.7071 103.035H49.9131V106.828H53.7071V103.035Z" fill="#2D6432"/>
<path d="M49.9131 103.035H46.1191V106.828H49.9131V103.035Z" fill="#467336"/>
<path d="M46.1213 103.035H42.3273V106.828H46.1213V103.035Z" fill="#467437"/>
<path d="M42.3272 103.035H38.5332V106.828H42.3272V103.035Z" fill="#467437"/>
<path d="M38.5332 103.035H34.7392V106.828H38.5332V103.035Z" fill="#316331"/>
<path d="M34.7414 103.035H30.9474V106.828H34.7414V103.035Z" fill="#2D6432"/>
<path d="M30.9474 103.035H27.1534V106.828H30.9474V103.035Z" fill="#2F6432"/>
<path d="M87.8466 99.2388H84.0526V103.032H87.8466V99.2388Z" fill="#316331"/>
<path d="M84.0526 99.2388H80.2585V103.032H84.0526V99.2388Z" fill="#306431"/>
<path d="M80.2607 99.2388H76.4667V103.032H80.2607V99.2388Z" fill="#306431"/>
<path d="M76.4667 99.2388H72.6727V103.032H76.4667V99.2388Z" fill="#457437"/>
<path d="M72.6727 99.2388H68.8787V103.032H72.6727V99.2388Z" fill="#457437"/>
<path d="M68.8809 99.2388H65.0869V103.032H68.8809V99.2388Z" fill="#457437"/>
<path d="M65.0869 99.2388H61.2929V103.032H65.0869V99.2388Z" fill="#2D6432"/>
<path d="M61.2929 99.2388H57.4989V103.032H61.2929V99.2388Z" fill="#4E863E"/>
<path d="M57.5011 99.2388H53.7071V103.032H57.5011V99.2388Z" fill="#4E863E"/>
<path d="M53.7071 99.2388H49.9131V103.032H53.7071V99.2388Z" fill="#2D6432"/>
<path d="M49.9131 99.2388H46.1191V103.032H49.9131V99.2388Z" fill="#457437"/>
<path d="M46.1213 99.2388H42.3273V103.032H46.1213V99.2388Z" fill="#457437"/>
<path d="M42.3272 99.2388H38.5332V103.032H42.3272V99.2388Z" fill="#457437"/>
<path d="M38.5332 99.2388H34.7392V103.032H38.5332V99.2388Z" fill="#306431"/>
<path d="M34.7414 99.2388H30.9474V103.032H34.7414V99.2388Z" fill="#306431"/>
<path d="M30.9474 99.2388H27.1534V103.032H30.9474V99.2388Z" fill="#306532"/>
<path d="M91.6406 95.4448H87.8466V99.2385H91.6406V95.4448Z" fill="#2F6431"/>
<path d="M87.8466 95.4448H84.0526V99.2385H87.8466V95.4448Z" fill="#457437"/>
<path d="M84.0526 95.4448H80.2585V99.2385H84.0526V95.4448Z" fill="#457437"/>
<path d="M80.2607 95.4448H76.4667V99.2385H80.2607V95.4448Z" fill="#477336"/>
<path d="M76.4667 95.4448H72.6727V99.2385H76.4667V95.4448Z" fill="#477336"/>
<path d="M72.6727 95.4448H68.8787V99.2385H72.6727V95.4448Z" fill="#467537"/>
<path d="M68.8809 95.4448H65.0869V99.2385H68.8809V95.4448Z" fill="#477336"/>
<path d="M65.0869 95.4448H61.2929V99.2385H65.0869V95.4448Z" fill="#2D6432"/>
<path d="M61.2929 95.4448H57.4989V99.2385H61.2929V95.4448Z" fill="#589441"/>
<path d="M57.5011 95.4448H53.7071V99.2385H57.5011V95.4448Z" fill="#599342"/>
<path d="M53.7071 95.4448H49.9131V99.2385H53.7071V95.4448Z" fill="#2D6432"/>
<path d="M49.9131 95.4448H46.1191V99.2385H49.9131V95.4448Z" fill="#477336"/>
<path d="M46.1213 95.4448H42.3273V99.2385H46.1213V95.4448Z" fill="#477336"/>
<path d="M42.3272 95.4448H38.5332V99.2385H42.3272V95.4448Z" fill="#477336"/>
<path d="M38.5332 95.4448H34.7392V99.2385H38.5332V95.4448Z" fill="#477336"/>
<path d="M34.7414 95.4448H30.9474V99.2385H34.7414V95.4448Z" fill="#477336"/>
<path d="M30.9474 95.4448H27.1534V99.2385H30.9474V95.4448Z" fill="#447337"/>
<path d="M27.1534 95.4448H23.3594V99.2385H27.1534V95.4448Z" fill="#2C6532"/>
<path d="M99.2264 91.6514H95.4324V95.4451H99.2264V91.6514Z" fill="#346838"/>
<path d="M95.4324 91.6514H91.6384V95.4451H95.4324V91.6514Z" fill="#2D6432"/>
<path d="M91.6406 91.6514H87.8466V95.4451H91.6406V91.6514Z" fill="#457437"/>
<path d="M87.8466 91.6514H84.0526V95.4451H87.8466V91.6514Z" fill="#457437"/>
<path d="M84.0526 91.6514H80.2585V95.4451H84.0526V91.6514Z" fill="#457437"/>
<path d="M80.2607 91.6514H76.4667V95.4451H80.2607V91.6514Z" fill="#4E863E"/>
<path d="M76.4667 91.6514H72.6727V95.4451H76.4667V91.6514Z" fill="#4E863E"/>
<path d="M72.6727 91.6514H68.8787V95.4451H72.6727V91.6514Z" fill="#50873E"/>
<path d="M68.8809 91.6514H65.0869V95.4451H68.8809V91.6514Z" fill="#4D853D"/>
<path d="M65.0869 91.6514H61.2929V95.4451H65.0869V91.6514Z" fill="#2D6432"/>
<path d="M61.2929 91.6514H57.4989V95.4451H61.2929V91.6514Z" fill="#4E863E"/>
<path d="M57.5011 91.6514H53.7071V95.4451H57.5011V91.6514Z" fill="#4E863E"/>
<path d="M53.7071 91.6514H49.9131V95.4451H53.7071V91.6514Z" fill="#2D6432"/>
<path d="M49.9131 91.6514H46.1191V95.4451H49.9131V91.6514Z" fill="#4E863E"/>
<path d="M46.1213 91.6514H42.3273V95.4451H46.1213V91.6514Z" fill="#4E863E"/>
<path d="M42.3272 91.6514H38.5332V95.4451H42.3272V91.6514Z" fill="#4E863E"/>
<path d="M38.5332 91.6514H34.7392V95.4451H38.5332V91.6514Z" fill="#4E863E"/>
<path d="M34.7414 91.6514H30.9474V95.4451H34.7414V91.6514Z" fill="#4E863E"/>
<path d="M30.9474 91.6514H27.1534V95.4451H30.9474V91.6514Z" fill="#4F853D"/>
<path d="M27.1534 91.6514H23.3594V95.4451H27.1534V91.6514Z" fill="#4E863E"/>
<path d="M23.3616 91.6514H19.5676V95.4451H23.3616V91.6514Z" fill="#2C6532"/>
<path d="M19.5676 91.6514H15.7736V95.4451H19.5676V91.6514Z" fill="#306432"/>
<path d="M99.2264 87.8555H95.4324V91.6492H99.2264V87.8555Z" fill="#366738"/>
<path d="M95.4324 87.8555H91.6384V91.6492H95.4324V87.8555Z" fill="#2D6331"/>
<path d="M91.6406 87.8555H87.8466V91.6492H91.6406V87.8555Z" fill="#457337"/>
<path d="M87.8466 87.8555H84.0526V91.6492H87.8466V87.8555Z" fill="#4F863E"/>
<path d="M84.0526 87.8555H80.2585V91.6492H84.0526V87.8555Z" fill="#4F863D"/>
<path d="M80.2607 87.8555H76.4667V91.6492H80.2607V87.8555Z" fill="#4E863E"/>
<path d="M76.4667 87.8555H72.6727V91.6492H76.4667V87.8555Z" fill="#5B9342"/>
<path d="M72.6727 87.8555H68.8787V91.6492H72.6727V87.8555Z" fill="#538944"/>
<path d="M68.8809 87.8555H65.0869V91.6492H68.8809V87.8555Z" fill="#2D6532"/>
<path d="M65.0869 87.8555H61.2929V91.6492H65.0869V87.8555Z" fill="#2D6331"/>
<path d="M61.2929 87.8555H57.4989V91.6492H61.2929V87.8555Z" fill="#5D9541"/>
<path d="M57.5011 87.8555H53.7071V91.6492H57.5011V87.8555Z" fill="#5C9344"/>
<path d="M53.7071 87.8555H49.9131V91.6492H53.7071V87.8555Z" fill="#2D6331"/>
<path d="M49.9131 87.8555H46.1191V91.6492H49.9131V87.8555Z" fill="#2D6532"/>
<path d="M46.1213 87.8555H42.3273V91.6492H46.1213V87.8555Z" fill="#3D7538"/>
<path d="M42.3272 87.8555H38.5332V91.6492H42.3272V87.8555Z" fill="#4E863E"/>
<path d="M38.5332 87.8555H34.7392V91.6492H38.5332V87.8555Z" fill="#4E863E"/>
<path d="M34.7414 87.8555H30.9474V91.6492H34.7414V87.8555Z" fill="#4E863E"/>
<path d="M30.9474 87.8555H27.1534V91.6492H30.9474V87.8555Z" fill="#51863D"/>
<path d="M27.1534 87.8555H23.3594V91.6492H27.1534V87.8555Z" fill="#4E863E"/>
<path d="M23.3616 87.8555H19.5676V91.6492H23.3616V87.8555Z" fill="#2C6532"/>
<path d="M19.5676 87.8555H15.7736V91.6492H19.5676V87.8555Z" fill="#316432"/>
<path d="M99.2264 84.0615H95.4324V87.8552H99.2264V84.0615Z" fill="#366738"/>
<path d="M95.4324 84.0615H91.6384V87.8552H95.4324V84.0615Z" fill="#2D6432"/>
<path d="M91.6406 84.0615H87.8466V87.8552H91.6406V84.0615Z" fill="#457437"/>
<path d="M87.8466 84.0615H84.0526V87.8552H87.8466V84.0615Z" fill="#4E863E"/>
<path d="M84.0526 84.0615H80.2585V87.8552H84.0526V84.0615Z" fill="#4E863E"/>
<path d="M80.2607 84.0615H76.4667V87.8552H80.2607V84.0615Z" fill="#50873E"/>
<path d="M76.4667 84.0615H72.6727V87.8552H76.4667V84.0615Z" fill="#5A9441"/>
<path d="M72.6727 84.0615H68.8787V87.8552H72.6727V84.0615Z" fill="#528B44"/>
<path d="M68.8809 84.0615H65.0869V87.8552H68.8809V84.0615Z" fill="#2D6432"/>
<path d="M65.0869 84.0615H61.2929V87.8552H65.0869V84.0615Z" fill="#2D6432"/>
<path d="M61.2929 84.0615H57.4989V87.8552H61.2929V84.0615Z" fill="#589441"/>
<path d="M57.5011 84.0615H53.7071V87.8552H57.5011V84.0615Z" fill="#589441"/>
<path d="M53.7071 84.0615H49.9131V87.8552H53.7071V84.0615Z" fill="#2C6532"/>
<path d="M49.9131 84.0615H46.1191V87.8552H49.9131V84.0615Z" fill="#2C6532"/>
<path d="M46.1213 84.0615H42.3273V87.8552H46.1213V84.0615Z" fill="#3D7538"/>
<path d="M42.3272 84.0615H38.5332V87.8552H42.3272V84.0615Z" fill="#50873E"/>
<path d="M38.5332 84.0615H34.7392V87.8552H38.5332V84.0615Z" fill="#50873E"/>
<path d="M34.7414 84.0615H30.9474V87.8552H34.7414V84.0615Z" fill="#4E863E"/>
<path d="M30.9474 84.0615H27.1534V87.8552H30.9474V84.0615Z" fill="#4F853D"/>
<path d="M27.1534 84.0615H23.3594V87.8552H27.1534V84.0615Z" fill="#4E863E"/>
<path d="M23.3616 84.0615H19.5676V87.8552H23.3616V84.0615Z" fill="#2E6532"/>
<path d="M19.5676 84.0615H15.7736V87.8552H19.5676V84.0615Z" fill="#306331"/>
<path d="M103.02 80.2681H99.2264V84.0618H103.02V80.2681Z" fill="#2D6432"/>
<path d="M99.2264 80.2681H95.4324V84.0618H99.2264V80.2681Z" fill="#4A823D"/>
<path d="M95.4324 80.2681H91.6384V84.0618H95.4324V80.2681Z" fill="#4E863E"/>
<path d="M91.6406 80.2681H87.8466V84.0618H91.6406V80.2681Z" fill="#4E863E"/>
<path d="M87.8466 80.2681H84.0526V84.0618H87.8466V80.2681Z" fill="#4E863E"/>
<path d="M84.0526 80.2681H80.2585V84.0618H84.0526V80.2681Z" fill="#4E863E"/>
<path d="M80.2607 80.2681H76.4667V84.0618H80.2607V80.2681Z" fill="#2D6432"/>
<path d="M76.4667 80.2681H72.6727V84.0618H76.4667V80.2681Z" fill="#2D6432"/>
<path d="M72.6727 80.2681H68.8787V84.0618H72.6727V80.2681Z" fill="#50774A"/>
<path d="M65.0869 80.2681H61.2929V84.0618H65.0869V80.2681Z" fill="#2F6431"/>
<path d="M61.2929 80.2681H57.4989V84.0618H61.2929V80.2681Z" fill="#589441"/>
<path d="M57.5011 80.2681H53.7071V84.0618H57.5011V80.2681Z" fill="#589441"/>
<path d="M53.7071 80.2681H49.9131V84.0618H53.7071V80.2681Z" fill="#2C6532"/>
<path d="M42.3272 80.2681H38.5332V84.0618H42.3272V80.2681Z" fill="#2D6432"/>
<path d="M38.5332 80.2681H34.7392V84.0618H38.5332V80.2681Z" fill="#2D6432"/>
<path d="M34.7414 80.2681H30.9474V84.0618H34.7414V80.2681Z" fill="#5A9442"/>
<path d="M30.9474 80.2681H27.1534V84.0618H30.9474V80.2681Z" fill="#5B9242"/>
<path d="M27.1534 80.2681H23.3594V84.0618H27.1534V80.2681Z" fill="#5A9341"/>
<path d="M23.3616 80.2681H19.5676V84.0618H23.3616V80.2681Z" fill="#5A9341"/>
<path d="M19.5676 80.2681H15.7736V84.0618H19.5676V80.2681Z" fill="#5A9444"/>
<path d="M15.7736 80.2681H11.9796V84.0618H15.7736V80.2681Z" fill="#2D6532"/>
<path d="M103.02 76.4722H99.2264V80.2659H103.02V76.4722Z" fill="#2F6431"/>
<path d="M99.2264 76.4722H95.4324V80.2659H99.2264V76.4722Z" fill="#4A823D"/>
<path d="M95.4324 76.4722H91.6384V80.2659H95.4324V76.4722Z" fill="#4E863E"/>
<path d="M91.6406 76.4722H87.8466V80.2659H91.6406V76.4722Z" fill="#2D6432"/>
<path d="M87.8466 76.4722H84.0526V80.2659H87.8466V76.4722Z" fill="#2D6432"/>
<path d="M84.0526 76.4722H80.2585V80.2659H84.0526V76.4722Z" fill="#2D6331"/>
<path d="M65.0869 76.4722H61.2929V80.2659H65.0869V76.4722Z" fill="#2F6431"/>
<path d="M61.2929 76.4722H57.4989V80.2659H61.2929V76.4722Z" fill="#4F853D"/>
<path d="M57.5011 76.4722H53.7071V80.2659H57.5011V76.4722Z" fill="#50863D"/>
<path d="M53.7071 76.4722H49.9131V80.2659H53.7071V76.4722Z" fill="#2C6532"/>
<path d="M34.7414 76.4722H30.9474V80.2659H34.7414V76.4722Z" fill="#2D5F2F"/>
<path d="M30.9474 76.4722H27.1534V80.2659H30.9474V76.4722Z" fill="#2E6432"/>
<path d="M27.1534 76.4722H23.3594V80.2659H27.1534V76.4722Z" fill="#2D6432"/>
<path d="M23.3616 76.4722H19.5676V80.2659H23.3616V76.4722Z" fill="#5A9341"/>
<path d="M19.5676 76.4722H15.7736V80.2659H19.5676V76.4722Z" fill="#5A9444"/>
<path d="M15.7736 76.4722H11.9796V80.2659H15.7736V76.4722Z" fill="#2D6532"/>
<path d="M103.02 72.6782H99.2264V76.4719H103.02V72.6782Z" fill="#2D6432"/>
<path d="M99.2264 72.6782H95.4324V76.4719H99.2264V72.6782Z" fill="#467D3C"/>
<path d="M95.4324 72.6782H91.6384V76.4719H95.4324V72.6782Z" fill="#487F3C"/>
<path d="M91.6406 72.6782H87.8466V76.4719H91.6406V72.6782Z" fill="#537649"/>
<path d="M87.8466 72.6782H84.0526V76.4719H87.8466V72.6782Z" fill="#537649"/>
<path d="M84.0526 72.6782H80.2585V76.4719H84.0526V72.6782Z" fill="#54764A"/>
<path d="M65.0869 72.6782H61.2929V76.4719H65.0869V72.6782Z" fill="#2F6431"/>
<path d="M61.2929 72.6782H57.4989V76.4719H61.2929V72.6782Z" fill="#4F813B"/>
<path d="M57.5011 72.6782H53.7071V76.4719H57.5011V72.6782Z" fill="#4D833D"/>
<path d="M53.7071 72.6782H49.9131V76.4719H53.7071V72.6782Z" fill="#2C6532"/>
<path d="M34.7414 72.6782H30.9474V76.4719H34.7414V72.6782Z" fill="#53734A"/>
<path d="M30.9474 72.6782H27.1534V76.4719H30.9474V72.6782Z" fill="#54774A"/>
<path d="M27.1534 72.6782H23.3594V76.4719H27.1534V72.6782Z" fill="#537649"/>
<path d="M23.3616 72.6782H19.5676V76.4719H23.3616V72.6782Z" fill="#518841"/>
<path d="M19.5676 72.6782H15.7736V76.4719H19.5676V72.6782Z" fill="#518841"/>
<path d="M15.7736 72.6782H11.9796V76.4719H15.7736V72.6782Z" fill="#2D6532"/>
<path d="M103.02 68.8848H99.2264V72.6785H103.02V68.8848Z" fill="#2F6431"/>
<path d="M99.2264 68.8848H95.4324V72.6785H99.2264V68.8848Z" fill="#2F6431"/>
<path d="M95.4324 68.8848H91.6384V72.6785H95.4324V68.8848Z" fill="#306331"/>
<path d="M65.0869 68.8848H61.2929V72.6785H65.0869V68.8848Z" fill="#2F6431"/>
<path d="M61.2929 68.8848H57.4989V72.6785H61.2929V68.8848Z" fill="#467236"/>
<path d="M57.5011 68.8848H53.7071V72.6785H57.5011V68.8848Z" fill="#467336"/>
<path d="M53.7071 68.8848H49.9131V72.6785H53.7071V68.8848Z" fill="#2C6532"/>
<path d="M23.3616 68.8848H19.5676V72.6785H23.3616V68.8848Z" fill="#2D6432"/>
<path d="M19.5676 68.8848H15.7736V72.6785H19.5676V68.8848Z" fill="#2F6431"/>
<path d="M15.7736 68.8848H11.9796V72.6785H15.7736V68.8848Z" fill="#2D6532"/>
<path d="M65.0869 65.0889H61.2929V68.8826H65.0869V65.0889Z" fill="#2F6431"/>
<path d="M61.2929 65.0889H57.4989V68.8826H61.2929V65.0889Z" fill="#467236"/>
<path d="M57.5011 65.0889H53.7071V68.8826H57.5011V65.0889Z" fill="#467336"/>
<path d="M53.7071 65.0889H49.9131V68.8826H53.7071V65.0889Z" fill="#2C6532"/>
<path d="M68.8809 61.2949H65.0869V65.0886H68.8809V61.2949Z" fill="#872C25"/>
<path d="M65.0869 61.2949H61.2929V65.0886H65.0869V61.2949Z" fill="#712417"/>
<path d="M61.2929 61.2949H57.4989V65.0886H61.2929V61.2949Z" fill="#762518"/>
<path d="M57.5011 61.2949H53.7071V65.0886H57.5011V61.2949Z" fill="#712517"/>
<path d="M53.7071 61.2949H49.9131V65.0886H53.7071V61.2949Z" fill="#6E2617"/>
<path d="M49.9131 61.2949H46.1191V65.0886H49.9131V61.2949Z" fill="#8A2C24"/>
<path d="M68.8809 57.5015H65.0869V61.2952H68.8809V57.5015Z" fill="#821619"/>
<path d="M65.0869 57.5015H61.2929V61.2952H65.0869V57.5015Z" fill="#821619"/>
<path d="M61.2929 57.5015H57.4989V61.2952H61.2929V57.5015Z" fill="#821619"/>
<path d="M57.5011 57.5015H53.7071V61.2952H57.5011V57.5015Z" fill="#821619"/>
<path d="M53.7071 57.5015H49.9131V61.2952H53.7071V57.5015Z" fill="#821619"/>
<path d="M49.9131 57.5015H46.1191V61.2952H49.9131V57.5015Z" fill="#841719"/>
<path d="M106.812 53.7056H103.018V57.4993H106.812V53.7056Z" fill="#DCA127"/>
<path d="M80.2607 53.7056H76.4667V57.4993H80.2607V53.7056Z" fill="#841719"/>
<path d="M76.4667 53.7056H72.6727V57.4993H76.4667V53.7056Z" fill="#841719"/>
<path d="M72.6727 53.7056H68.8787V57.4993H72.6727V53.7056Z" fill="#911B1E"/>
<path d="M68.8809 53.7056H65.0869V57.4993H68.8809V53.7056Z" fill="#B72C28"/>
<path d="M65.0869 53.7056H61.2929V57.4993H65.0869V53.7056Z" fill="#9B1D21"/>
<path d="M61.2929 53.7056H57.4989V57.4993H61.2929V53.7056Z" fill="#DD4836"/>
<path d="M57.5011 53.7056H53.7071V57.4993H57.5011V53.7056Z" fill="#DD473A"/>
<path d="M53.7071 53.7056H49.9131V57.4993H53.7071V53.7056Z" fill="#9B1D21"/>
<path d="M49.9131 53.7056H46.1191V57.4993H49.9131V53.7056Z" fill="#E94841"/>
<path d="M46.1213 53.7056H42.3273V57.4993H46.1213V53.7056Z" fill="#B8332F"/>
<path d="M42.3272 53.7056H38.5332V57.4993H42.3272V53.7056Z" fill="#841719"/>
<path d="M38.5332 53.7056H34.7392V57.4993H38.5332V53.7056Z" fill="#841719"/>
<path d="M110.606 49.9116H106.812V53.7053H110.606V49.9116Z" fill="#F6D438"/>
<path d="M106.812 49.9116H103.018V53.7053H106.812V49.9116Z" fill="#FCDD4B"/>
<path d="M103.02 49.9116H99.2264V53.7053H103.02V49.9116Z" fill="#D4A132"/>
<path d="M87.8466 49.9116H84.0526V53.7053H87.8466V49.9116Z" fill="#851719"/>
<path d="M84.0526 49.9116H80.2585V53.7053H84.0526V49.9116Z" fill="#811719"/>
<path d="M80.2607 49.9116H76.4667V53.7053H80.2607V49.9116Z" fill="#B42C29"/>
<path d="M76.4667 49.9116H72.6727V53.7053H76.4667V49.9116Z" fill="#B42C29"/>
<path d="M72.6727 49.9116H68.8787V53.7053H72.6727V49.9116Z" fill="#BD2D29"/>
<path d="M68.8809 49.9116H65.0869V53.7053H68.8809V49.9116Z" fill="#C72E2E"/>
<path d="M65.0869 49.9116H61.2929V53.7053H65.0869V49.9116Z" fill="#9B1D21"/>
<path d="M61.2929 49.9116H57.4989V53.7053H61.2929V49.9116Z" fill="#DD4836"/>
<path d="M57.5011 49.9116H53.7071V53.7053H57.5011V49.9116Z" fill="#DD4738"/>
<path d="M53.7071 49.9116H49.9131V53.7053H53.7071V49.9116Z" fill="#9B1D21"/>
<path d="M49.9131 49.9116H46.1191V53.7053H49.9131V49.9116Z" fill="#E94743"/>
<path d="M46.1213 49.9116H42.3273V53.7053H46.1213V49.9116Z" fill="#E84B40"/>
<path d="M42.3272 49.9116H38.5332V53.7053H42.3272V49.9116Z" fill="#E94940"/>
<path d="M38.5332 49.9116H34.7392V53.7053H38.5332V49.9116Z" fill="#E94940"/>
<path d="M34.7414 49.9116H30.9474V53.7053H34.7414V49.9116Z" fill="#86171A"/>
<path d="M30.9474 49.9116H27.1534V53.7053H30.9474V49.9116Z" fill="#821719"/>
<path d="M106.812 46.1182H103.018V49.9119H106.812V46.1182Z" fill="#FAEA7D"/>
<path d="M87.8466 46.1182H84.0526V49.9119H87.8466V46.1182Z" fill="#831619"/>
<path d="M84.0526 46.1182H80.2585V49.9119H84.0526V46.1182Z" fill="#841719"/>
<path d="M80.2607 46.1182H76.4667V49.9119H80.2607V46.1182Z" fill="#B72C28"/>
<path d="M76.4667 46.1182H72.6727V49.9119H76.4667V46.1182Z" fill="#B62D28"/>
<path d="M72.6727 46.1182H68.8787V49.9119H72.6727V46.1182Z" fill="#BD2C2A"/>
<path d="M68.8809 46.1182H65.0869V49.9119H68.8809V46.1182Z" fill="#C62F30"/>
<path d="M65.0869 46.1182H61.2929V49.9119H65.0869V46.1182Z" fill="#9E1D22"/>
<path d="M61.2929 46.1182H57.4989V49.9119H61.2929V46.1182Z" fill="#DB473B"/>
<path d="M57.5011 46.1182H53.7071V49.9119H57.5011V46.1182Z" fill="#DD4836"/>
<path d="M53.7071 46.1182H49.9131V49.9119H53.7071V46.1182Z" fill="#9F1E22"/>
<path d="M49.9131 46.1182H46.1191V49.9119H49.9131V46.1182Z" fill="#E94743"/>
<path d="M46.1213 46.1182H42.3273V49.9119H46.1213V46.1182Z" fill="#EA4744"/>
<path d="M42.3272 46.1182H38.5332V49.9119H42.3272V46.1182Z" fill="#E94841"/>
<path d="M38.5332 46.1182H34.7392V49.9119H38.5332V46.1182Z" fill="#E94841"/>
<path d="M34.7414 46.1182H30.9474V49.9119H34.7414V46.1182Z" fill="#85171A"/>
<path d="M30.9474 46.1182H27.1534V49.9119H30.9474V46.1182Z" fill="#821619"/>
<path d="M87.8466 42.3223H84.0526V46.116H87.8466V42.3223Z" fill="#841719"/>
<path d="M84.0526 42.3223H80.2585V46.116H84.0526V42.3223Z" fill="#851719"/>
<path d="M80.2607 42.3223H76.4667V46.116H80.2607V42.3223Z" fill="#B92D29"/>
<path d="M76.4667 42.3223H72.6727V46.116H76.4667V42.3223Z" fill="#C72E2E"/>
<path d="M72.6727 42.3223H68.8787V46.116H72.6727V42.3223Z" fill="#BF2C2F"/>
<path d="M68.8809 42.3223H65.0869V46.116H68.8809V42.3223Z" fill="#9B1D21"/>
<path d="M65.0869 42.3223H61.2929V46.116H65.0869V42.3223Z" fill="#DA483A"/>
<path d="M61.2929 42.3223H57.4989V46.116H61.2929V42.3223Z" fill="#DB463A"/>
<path d="M57.5011 42.3223H53.7071V46.116H57.5011V42.3223Z" fill="#DA483A"/>
<path d="M53.7071 42.3223H49.9131V46.116H53.7071V42.3223Z" fill="#DB463A"/>
<path d="M49.9131 42.3223H46.1191V46.116H49.9131V42.3223Z" fill="#9B1D21"/>
<path d="M46.1213 42.3223H42.3273V46.116H46.1213V42.3223Z" fill="#C03330"/>
<path d="M42.3272 42.3223H38.5332V46.116H42.3272V42.3223Z" fill="#E94841"/>
<path d="M38.5332 42.3223H34.7392V46.116H38.5332V42.3223Z" fill="#E94841"/>
<path d="M34.7414 42.3223H30.9474V46.116H34.7414V42.3223Z" fill="#85171A"/>
<path d="M30.9474 42.3223H27.1534V46.116H30.9474V42.3223Z" fill="#821619"/>
<path d="M91.6406 38.5283H87.8466V42.322H91.6406V38.5283Z" fill="#831619"/>
<path d="M87.8466 38.5283H84.0526V42.322H87.8466V38.5283Z" fill="#B72C28"/>
<path d="M84.0526 38.5283H80.2585V42.322H84.0526V38.5283Z" fill="#B92D28"/>
<path d="M80.2607 38.5283H76.4667V42.322H80.2607V38.5283Z" fill="#C72E2E"/>
<path d="M76.4667 38.5283H72.6727V42.322H76.4667V38.5283Z" fill="#C72E2E"/>
<path d="M72.6727 38.5283H68.8787V42.322H72.6727V38.5283Z" fill="#BF2C2F"/>
<path d="M68.8809 38.5283H65.0869V42.322H68.8809V38.5283Z" fill="#9B1D21"/>
<path d="M65.0869 38.5283H61.2929V42.322H65.0869V38.5283Z" fill="#DA483A"/>
<path d="M61.2929 38.5283H57.4989V42.322H61.2929V38.5283Z" fill="#DB463A"/>
<path d="M57.5011 38.5283H53.7071V42.322H57.5011V38.5283Z" fill="#DA483A"/>
<path d="M53.7071 38.5283H49.9131V42.322H53.7071V38.5283Z" fill="#DB463A"/>
<path d="M49.9131 38.5283H46.1191V42.322H49.9131V38.5283Z" fill="#9B1D21"/>
<path d="M46.1213 38.5283H42.3273V42.322H46.1213V38.5283Z" fill="#C03330"/>
<path d="M42.3272 38.5283H38.5332V42.322H42.3272V38.5283Z" fill="#E94841"/>
<path d="M38.5332 38.5283H34.7392V42.322H38.5332V38.5283Z" fill="#E94841"/>
<path d="M34.7414 38.5283H30.9474V42.322H34.7414V38.5283Z" fill="#E94841"/>
<path d="M30.9474 38.5283H27.1534V42.322H30.9474V38.5283Z" fill="#E94843"/>
<path d="M27.1534 38.5283H23.3594V42.322H27.1534V38.5283Z" fill="#831619"/>
<path d="M91.6406 34.7349H87.8466V38.5286H91.6406V34.7349Z" fill="#821619"/>
<path d="M87.8466 34.7349H84.0526V38.5286H87.8466V34.7349Z" fill="#C62E2E"/>
<path d="M84.0526 34.7349H80.2585V38.5286H84.0526V34.7349Z" fill="#C62E2E"/>
<path d="M80.2607 34.7349H76.4667V38.5286H80.2607V34.7349Z" fill="#C72E2E"/>
<path d="M76.4667 34.7349H72.6727V38.5286H76.4667V34.7349Z" fill="#9E1D22"/>
<path d="M72.6727 34.7349H68.8787V38.5286H72.6727V34.7349Z" fill="#AA2425"/>
<path d="M68.8809 34.7349H65.0869V38.5286H68.8809V34.7349Z" fill="#DD4740"/>
<path d="M65.0869 34.7349H61.2929V38.5286H65.0869V34.7349Z" fill="#DD483A"/>
<path d="M61.2929 34.7349H57.4989V38.5286H61.2929V34.7349Z" fill="#DD483A"/>
<path d="M57.5011 34.7349H53.7071V38.5286H57.5011V34.7349Z" fill="#DA483A"/>
<path d="M53.7071 34.7349H49.9131V38.5286H53.7071V34.7349Z" fill="#DD483A"/>
<path d="M49.9131 34.7349H46.1191V38.5286H49.9131V34.7349Z" fill="#DD4740"/>
<path d="M46.1213 34.7349H42.3273V38.5286H46.1213V34.7349Z" fill="#BF312E"/>
<path d="M42.3272 34.7349H38.5332V38.5286H42.3272V34.7349Z" fill="#9D1D21"/>
<path d="M38.5332 34.7349H34.7392V38.5286H38.5332V34.7349Z" fill="#E94840"/>
<path d="M34.7414 34.7349H30.9474V38.5286H34.7414V34.7349Z" fill="#E94841"/>
<path d="M30.9474 34.7349H27.1534V38.5286H30.9474V34.7349Z" fill="#EA4743"/>
<path d="M27.1534 34.7349H23.3594V38.5286H27.1534V34.7349Z" fill="#821619"/>
<path d="M91.6406 30.939H87.8466V34.7327H91.6406V30.939Z" fill="#831619"/>
<path d="M87.8466 30.939H84.0526V34.7327H87.8466V30.939Z" fill="#C62E2E"/>
<path d="M84.0526 30.939H80.2585V34.7327H84.0526V30.939Z" fill="#C62E2E"/>
<path d="M80.2607 30.939H76.4667V34.7327H80.2607V30.939Z" fill="#C72E2E"/>
<path d="M76.4667 30.939H72.6727V34.7327H76.4667V30.939Z" fill="#9B1D21"/>
<path d="M72.6727 30.939H68.8787V34.7327H72.6727V30.939Z" fill="#AA2426"/>
<path d="M68.8809 30.939H65.0869V34.7327H68.8809V30.939Z" fill="#DB463A"/>
<path d="M65.0869 30.939H61.2929V34.7327H65.0869V30.939Z" fill="#DB463A"/>
<path d="M61.2929 30.939H57.4989V34.7327H61.2929V30.939Z" fill="#DB463A"/>
<path d="M57.5011 30.939H53.7071V34.7327H57.5011V30.939Z" fill="#DA483A"/>
<path d="M53.7071 30.939H49.9131V34.7327H53.7071V30.939Z" fill="#DB463A"/>
<path d="M49.9131 30.939H46.1191V34.7327H49.9131V30.939Z" fill="#DB463A"/>
<path d="M46.1213 30.939H42.3273V34.7327H46.1213V30.939Z" fill="#BC342D"/>
<path d="M42.3272 30.939H38.5332V34.7327H42.3272V30.939Z" fill="#9B1D21"/>
<path d="M38.5332 30.939H34.7392V34.7327H38.5332V30.939Z" fill="#E94841"/>
<path d="M34.7414 30.939H30.9474V34.7327H34.7414V30.939Z" fill="#E94841"/>
<path d="M30.9474 30.939H27.1534V34.7327H30.9474V30.939Z" fill="#E94843"/>
<path d="M27.1534 30.939H23.3594V34.7327H27.1534V30.939Z" fill="#831619"/>
<path d="M91.6406 27.145H87.8466V30.9387H91.6406V27.145Z" fill="#831619"/>
<path d="M87.8466 27.145H84.0526V30.9387H87.8466V27.145Z" fill="#C62E2E"/>
<path d="M84.0526 27.145H80.2585V30.9387H84.0526V27.145Z" fill="#C62E2E"/>
<path d="M80.2607 27.145H76.4667V30.9387H80.2607V27.145Z" fill="#C72E2E"/>
<path d="M76.4667 27.145H72.6727V30.9387H76.4667V27.145Z" fill="#9B1D21"/>
<path d="M72.6727 27.145H68.8787V30.9387H72.6727V27.145Z" fill="#AA2426"/>
<path d="M68.8809 27.145H65.0869V30.9387H68.8809V27.145Z" fill="#DB463A"/>
<path d="M65.0869 27.145H61.2929V30.9387H65.0869V27.145Z" fill="#DB463A"/>
<path d="M61.2929 27.145H57.4989V30.9387H61.2929V27.145Z" fill="#DB463A"/>
<path d="M57.5011 27.145H53.7071V30.9387H57.5011V27.145Z" fill="#DA483A"/>
<path d="M53.7071 27.145H49.9131V30.9387H53.7071V27.145Z" fill="#DB463A"/>
<path d="M49.9131 27.145H46.1191V30.9387H49.9131V27.145Z" fill="#DB463A"/>
<path d="M46.1213 27.145H42.3273V30.9387H46.1213V27.145Z" fill="#BC342D"/>
<path d="M42.3272 27.145H38.5332V30.9387H42.3272V27.145Z" fill="#9B1D21"/>
<path d="M38.5332 27.145H34.7392V30.9387H38.5332V27.145Z" fill="#E94841"/>
<path d="M34.7414 27.145H30.9474V30.9387H34.7414V27.145Z" fill="#F05450"/>
<path d="M30.9474 27.145H27.1534V30.9387H30.9474V27.145Z" fill="#ED5752"/>
<path d="M27.1534 27.145H23.3594V30.9387H27.1534V27.145Z" fill="#831619"/>
<path d="M91.6406 23.3516H87.8466V27.1453H91.6406V23.3516Z" fill="#831619"/>
<path d="M87.8466 23.3516H84.0526V27.1453H87.8466V23.3516Z" fill="#C62E2E"/>
<path d="M84.0526 23.3516H80.2585V27.1453H84.0526V23.3516Z" fill="#C62E2E"/>
<path d="M80.2607 23.3516H76.4667V27.1453H80.2607V23.3516Z" fill="#C72E2E"/>
<path d="M76.4667 23.3516H72.6727V27.1453H76.4667V23.3516Z" fill="#9C1D21"/>
<path d="M72.6727 23.3516H68.8787V27.1453H72.6727V23.3516Z" fill="#AA2526"/>
<path d="M68.8809 23.3516H65.0869V27.1453H68.8809V23.3516Z" fill="#DA473A"/>
<path d="M65.0869 23.3516H61.2929V27.1453H65.0869V23.3516Z" fill="#DA473A"/>
<path d="M61.2929 23.3516H57.4989V27.1453H61.2929V23.3516Z" fill="#DA473A"/>
<path d="M57.5011 23.3516H53.7071V27.1453H57.5011V23.3516Z" fill="#DA483A"/>
<path d="M53.7071 23.3516H49.9131V27.1453H53.7071V23.3516Z" fill="#DA473A"/>
<path d="M49.9131 23.3516H46.1191V27.1453H49.9131V23.3516Z" fill="#DA473A"/>
<path d="M46.1213 23.3516H42.3273V27.1453H46.1213V23.3516Z" fill="#BC342D"/>
<path d="M42.3272 23.3516H38.5332V27.1453H42.3272V23.3516Z" fill="#9C1D21"/>
<path d="M38.5332 23.3516H34.7392V27.1453H38.5332V23.3516Z" fill="#E94741"/>
<path d="M34.7414 23.3516H30.9474V27.1453H34.7414V23.3516Z" fill="#F05451"/>
<path d="M30.9474 23.3516H27.1534V27.1453H30.9474V23.3516Z" fill="#ED5651"/>
<path d="M27.1534 23.3516H23.3594V27.1453H27.1534V23.3516Z" fill="#831619"/>
<path d="M91.6406 19.5557H87.8466V23.3494H91.6406V19.5557Z" fill="#821719"/>
<path d="M87.8466 19.5557H84.0526V23.3494H87.8466V19.5557Z" fill="#C8302F"/>
<path d="M84.0526 19.5557H80.2585V23.3494H84.0526V19.5557Z" fill="#C8302F"/>
<path d="M80.2607 19.5557H76.4667V23.3494H80.2607V19.5557Z" fill="#C72E2E"/>
<path d="M76.4667 19.5557H72.6727V23.3494H76.4667V19.5557Z" fill="#9E1D22"/>
<path d="M72.6727 19.5557H68.8787V23.3494H72.6727V19.5557Z" fill="#AD2427"/>
<path d="M68.8809 19.5557H65.0869V23.3494H68.8809V19.5557Z" fill="#D9493D"/>
<path d="M65.0869 19.5557H61.2929V23.3494H65.0869V19.5557Z" fill="#DB463A"/>
<path d="M61.2929 19.5557H57.4989V23.3494H61.2929V19.5557Z" fill="#DB463A"/>
<path d="M57.5011 19.5557H53.7071V23.3494H57.5011V19.5557Z" fill="#DA483A"/>
<path d="M53.7071 19.5557H49.9131V23.3494H53.7071V19.5557Z" fill="#DB463A"/>
<path d="M49.9131 19.5557H46.1191V23.3494H49.9131V19.5557Z" fill="#D9493D"/>
<path d="M46.1213 19.5557H42.3273V23.3494H46.1213V19.5557Z" fill="#BC352F"/>
<path d="M42.3272 19.5557H38.5332V23.3494H42.3272V19.5557Z" fill="#9D1D22"/>
<path d="M38.5332 19.5557H34.7392V23.3494H38.5332V19.5557Z" fill="#EA4843"/>
<path d="M34.7414 19.5557H30.9474V23.3494H34.7414V19.5557Z" fill="#EC5653"/>
<path d="M30.9474 19.5557H27.1534V23.3494H30.9474V19.5557Z" fill="#EC5653"/>
<path d="M27.1534 19.5557H23.3594V23.3494H27.1534V19.5557Z" fill="#821719"/>
<path d="M87.8466 15.7617H84.0526V19.5554H87.8466V15.7617Z" fill="#831619"/>
<path d="M84.0526 15.7617H80.2585V19.5554H84.0526V15.7617Z" fill="#841719"/>
<path d="M80.2607 15.7617H76.4667V19.5554H80.2607V15.7617Z" fill="#C72E2E"/>
<path d="M76.4667 15.7617H72.6727V19.5554H76.4667V15.7617Z" fill="#C72E2E"/>
<path d="M72.6727 15.7617H68.8787V19.5554H72.6727V15.7617Z" fill="#BF2C2F"/>
<path d="M68.8809 15.7617H65.0869V19.5554H68.8809V15.7617Z" fill="#9B1D21"/>
<path d="M65.0869 15.7617H61.2929V19.5554H65.0869V15.7617Z" fill="#DA483A"/>
<path d="M61.2929 15.7617H57.4989V19.5554H61.2929V15.7617Z" fill="#DB463A"/>
<path d="M57.5011 15.7617H53.7071V19.5554H57.5011V15.7617Z" fill="#DA483A"/>
<path d="M53.7071 15.7617H49.9131V19.5554H53.7071V15.7617Z" fill="#DB463A"/>
<path d="M49.9131 15.7617H46.1191V19.5554H49.9131V15.7617Z" fill="#9B1D21"/>
<path d="M46.1213 15.7617H42.3273V19.5554H46.1213V15.7617Z" fill="#BF332F"/>
<path d="M42.3272 15.7617H38.5332V19.5554H42.3272V15.7617Z" fill="#E94743"/>
<path d="M38.5332 15.7617H34.7392V19.5554H38.5332V15.7617Z" fill="#EF5451"/>
<path d="M34.7414 15.7617H30.9474V19.5554H34.7414V15.7617Z" fill="#841719"/>
<path d="M30.9474 15.7617H27.1534V19.5554H30.9474V15.7617Z" fill="#821619"/>
<path d="M11.9818 15.7617H8.18774V19.5554H11.9818V15.7617Z" fill="#DFA127"/>
<path d="M87.8466 11.9683H84.0526V15.762H87.8466V11.9683Z" fill="#831619"/>
<path d="M84.0526 11.9683H80.2585V15.762H84.0526V11.9683Z" fill="#841719"/>
<path d="M80.2607 11.9683H76.4667V15.762H80.2607V11.9683Z" fill="#C72E2E"/>
<path d="M76.4667 11.9683H72.6727V15.762H76.4667V11.9683Z" fill="#C72E2E"/>
<path d="M72.6727 11.9683H68.8787V15.762H72.6727V11.9683Z" fill="#BF2C2F"/>
<path d="M68.8809 11.9683H65.0869V15.762H68.8809V11.9683Z" fill="#9C1D21"/>
<path d="M65.0869 11.9683H61.2929V15.762H65.0869V11.9683Z" fill="#DA483A"/>
<path d="M61.2929 11.9683H57.4989V15.762H61.2929V11.9683Z" fill="#DB463A"/>
<path d="M57.5011 11.9683H53.7071V15.762H57.5011V11.9683Z" fill="#DA483A"/>
<path d="M53.7071 11.9683H49.9131V15.762H53.7071V11.9683Z" fill="#DB463A"/>
<path d="M49.9131 11.9683H46.1191V15.762H49.9131V11.9683Z" fill="#9C1D21"/>
<path d="M46.1213 11.9683H42.3273V15.762H46.1213V11.9683Z" fill="#C13635"/>
<path d="M42.3272 11.9683H38.5332V15.762H42.3272V11.9683Z" fill="#ED5652"/>
<path d="M38.5332 11.9683H34.7392V15.762H38.5332V11.9683Z" fill="#EF5451"/>
<path d="M34.7414 11.9683H30.9474V15.762H34.7414V11.9683Z" fill="#841719"/>
<path d="M30.9474 11.9683H27.1534V15.762H30.9474V11.9683Z" fill="#821619"/>
<path d="M15.7736 11.9683H11.9796V15.762H15.7736V11.9683Z" fill="#E5B759"/>
<path d="M11.9818 11.9683H8.18774V15.762H11.9818V11.9683Z" fill="#F9DA38"/>
<path d="M8.18775 11.9683H4.39374V15.762H8.18775V11.9683Z" fill="#F2D33E"/>
<path d="M80.2607 8.17236H76.4667V11.9661H80.2607V8.17236Z" fill="#AD2528"/>
<path d="M76.4667 8.17236H72.6727V11.9661H76.4667V8.17236Z" fill="#AD2528"/>
<path d="M72.6727 8.17236H68.8787V11.9661H72.6727V8.17236Z" fill="#85171A"/>
<path d="M65.0869 8.17236H61.2929V11.9661H65.0869V8.17236Z" fill="#B6342E"/>
<path d="M61.2929 8.17236H57.4989V11.9661H61.2929V8.17236Z" fill="#B63330"/>
<path d="M57.5011 8.17236H53.7071V11.9661H57.5011V8.17236Z" fill="#B63330"/>
<path d="M53.7071 8.17236H49.9131V11.9661H53.7071V8.17236Z" fill="#B73330"/>
<path d="M46.1213 8.17236H42.3273V11.9661H46.1213V8.17236Z" fill="#85171A"/>
<path d="M42.3272 8.17236H38.5332V11.9661H42.3272V8.17236Z" fill="#C03C3B"/>
<path d="M38.5332 8.17236H34.7392V11.9661H38.5332V8.17236Z" fill="#C03C3B"/>
<path d="M11.9818 8.17236H8.18774V11.9661H11.9818V8.17236Z" fill="#FBDE47"/>
<path d="M80.2607 4.37842H76.4667V8.17213H80.2607V4.37842Z" fill="#87181A"/>
<path d="M76.4667 4.37842H72.6727V8.17213H76.4667V4.37842Z" fill="#87181A"/>
<path d="M65.0869 4.37842H61.2929V8.17213H65.0869V4.37842Z" fill="#85171A"/>
<path d="M61.2929 4.37842H57.4989V8.17213H61.2929V4.37842Z" fill="#87181A"/>
<path d="M57.5011 4.37842H53.7071V8.17213H57.5011V4.37842Z" fill="#86171A"/>
<path d="M53.7071 4.37842H49.9131V8.17213H53.7071V4.37842Z" fill="#87181A"/>
<path d="M42.3272 4.37842H38.5332V8.17213H42.3272V4.37842Z" fill="#87181A"/>
<path d="M38.5332 4.37842H34.7392V8.17213H38.5332V4.37842Z" fill="#87181A"/>
</g>
<defs>
<clipPath id="clip0_1004_4105">
<rect width="115" height="115" fill="white"/>
</clipPath>
</defs>
</svg>
