<svg width="95" height="95" viewBox="0 0 95 95" fill="none" xmlns="http://www.w3.org/2000/svg">
<g clip-path="url(#clip0_1004_4105)">
<path d="M28.2022 95V91.8661H18.8015V85.5964H15.6673V82.4624H9.40072V73.0588H6.26654V53.2877H22.9265V56.4217H32.3273V62.6914H37.6029V57.3855H34.4687V51.1177H25.068V47.9819H18.8015V38.5783H15.6673V12.5375H18.8015V6.26968H25.068V0H69.9302V6.26968H76.1985V12.5375H79.3309V38.5783H76.1985V47.9819H69.9302V51.1177H60.5294V57.3855H57.3971V62.6914H62.6709V56.4217H72.0716V53.2877H88.7316V73.0588H85.5993V82.4624H79.3309V85.5964H76.1985V91.8661H66.7978V95H28.2022Z" fill="#F7F4F6"/>
<path d="M78.8355 56.9044H75.7013V60.0384H72.5689H69.4347H66.3006V63.1723V66.3081H63.1682H60.034H56.8998V69.442H53.7675V66.3081V63.1723V60.0384V56.9044V53.7687H56.8998V50.6348V47.5008H60.034H63.1682H66.3006V44.3651H69.4347H72.5689V41.2311V38.0972V34.9615H75.7013V31.8275V28.6936V25.5579V22.4239V19.29V16.1542H72.5689V13.0203V9.88638H69.4347H66.3006V6.75063V3.6167H63.1682H60.034V6.75063H56.8998V9.88638H53.7675V6.75063V3.6167H50.6333H47.4991H44.3667H41.2325V6.75063V9.88638H38.0984V6.75063H34.966V3.6167H31.8318H28.6976V6.75063V9.88638H25.5653H22.4311V13.0203V16.1542H19.2969V19.29V22.4239V25.5579V28.6936V31.8275V34.9615H22.4311V38.0972V41.2311V44.3651H25.5653H28.6976V47.5008H31.8318H34.966H38.0984V50.6348V53.7687H41.2325V56.9044V60.0384V63.1723V66.3081V69.442H38.0984H34.966V66.3081H31.8318H28.6976V63.1723V60.0384H25.5653H22.4311H19.2969V56.9044H16.1645H13.0304H9.89618V60.0384V63.1723V66.3081V69.442H13.0304V72.5759V75.7117V78.8456H16.1645H19.2969V81.9795H22.4311V85.1153V88.2492H25.5653H28.6976H31.8318V91.3831H34.966H38.0984H41.2325H44.3667H47.4991H50.6333H53.7675H56.8998H60.034H63.1682V88.2492H66.3006H69.4347H72.5689V85.1153V81.9795H75.7013V78.8456H78.8355H81.9697V75.7117V72.5759V69.442H85.102V66.3081V63.1723V60.0384V56.9044H81.9697H78.8355Z" fill="#F7F4F6"/>
<path d="M81.4724 51.1176V47.9819H78.34V37.6144H81.4724V34.4805H91.8658V37.6144H95V47.9819H91.8658V51.1176H81.4724Z" fill="#F7F4F6"/>
<path d="M88.2362 41.2311V38.0972H85.102V41.2311H81.9697V44.365H85.102V47.5008H88.2362V44.365H91.3704V41.2311H88.2362Z" fill="#F7F4F6"/>
<path d="M3.13418 19.771V16.637H0V6.26953H3.13418V3.13379H13.5258V6.26953H16.66V16.637H13.5258V19.771H3.13418Z" fill="#F7F4F6"/>
<path d="M9.89619 16.1541V13.0202H13.0304V9.88623H9.89619V6.75049H6.76382V9.88623H3.62964V13.0202H6.76382V16.1541H9.89619Z" fill="#F7F4F6"/>
<path d="M63.1682 88.249H60.034V91.383H63.1682V88.249Z" fill="#2F6431"/>
<path d="M60.034 88.249H56.8998V91.383H60.034V88.249Z" fill="#306532"/>
<path d="M56.9016 88.249H53.7675V91.383H56.9016V88.249Z" fill="#2F6431"/>
<path d="M53.7675 88.249H50.6333V91.383H53.7675V88.249Z" fill="#2D6432"/>
<path d="M50.6333 88.249H47.4991V91.383H50.6333V88.249Z" fill="#2D6432"/>
<path d="M47.5009 88.249H44.3668V91.383H47.5009V88.249Z" fill="#2E6432"/>
<path d="M44.3667 88.249H41.2325V91.383H44.3667V88.249Z" fill="#2D6432"/>
<path d="M41.2326 88.249H38.0984V91.383H41.2326V88.249Z" fill="#2F6431"/>
<path d="M38.1002 88.249H34.966V91.383H38.1002V88.249Z" fill="#2F6431"/>
<path d="M34.966 88.249H31.8318V91.383H34.966V88.249Z" fill="#2F6431"/>
<path d="M72.5689 85.1152H69.4348V88.2492H72.5689V85.1152Z" fill="#306431"/>
<path d="M69.4347 85.1152H66.3005V88.2492H69.4347V85.1152Z" fill="#2D6432"/>
<path d="M66.3024 85.1152H63.1682V88.2492H66.3024V85.1152Z" fill="#316331"/>
<path d="M63.1682 85.1152H60.034V88.2492H63.1682V85.1152Z" fill="#467437"/>
<path d="M60.034 85.1152H56.8998V88.2492H60.034V85.1152Z" fill="#467437"/>
<path d="M56.9016 85.1152H53.7675V88.2492H56.9016V85.1152Z" fill="#437538"/>
<path d="M53.7675 85.1152H50.6333V88.2492H53.7675V85.1152Z" fill="#2D6432"/>
<path d="M50.6333 85.1152H47.4991V88.2492H50.6333V85.1152Z" fill="#4F863D"/>
<path d="M47.5009 85.1152H44.3668V88.2492H47.5009V85.1152Z" fill="#4E863E"/>
<path d="M44.3667 85.1152H41.2325V88.2492H44.3667V85.1152Z" fill="#2D6432"/>
<path d="M41.2326 85.1152H38.0984V88.2492H41.2326V85.1152Z" fill="#467336"/>
<path d="M38.1002 85.1152H34.966V88.2492H38.1002V85.1152Z" fill="#467437"/>
<path d="M34.966 85.1152H31.8318V88.2492H34.966V85.1152Z" fill="#467437"/>
<path d="M31.8318 85.1152H28.6976V88.2492H31.8318V85.1152Z" fill="#316331"/>
<path d="M28.6995 85.1152H25.5653V88.2492H28.6995V85.1152Z" fill="#2D6432"/>
<path d="M25.5653 85.1152H22.4311V88.2492H25.5653V85.1152Z" fill="#2F6432"/>
<path d="M72.5689 81.9795H69.4348V85.1134H72.5689V81.9795Z" fill="#316331"/>
<path d="M69.4347 81.9795H66.3005V85.1134H69.4347V81.9795Z" fill="#306431"/>
<path d="M66.3024 81.9795H63.1682V85.1134H66.3024V81.9795Z" fill="#306431"/>
<path d="M63.1682 81.9795H60.034V85.1134H63.1682V81.9795Z" fill="#457437"/>
<path d="M60.034 81.9795H56.8998V85.1134H60.034V81.9795Z" fill="#457437"/>
<path d="M56.9016 81.9795H53.7675V85.1134H56.9016V81.9795Z" fill="#457437"/>
<path d="M53.7675 81.9795H50.6333V85.1134H53.7675V81.9795Z" fill="#2D6432"/>
<path d="M50.6333 81.9795H47.4991V85.1134H50.6333V81.9795Z" fill="#4E863E"/>
<path d="M47.5009 81.9795H44.3668V85.1134H47.5009V81.9795Z" fill="#4E863E"/>
<path d="M44.3667 81.9795H41.2325V85.1134H44.3667V81.9795Z" fill="#2D6432"/>
<path d="M41.2326 81.9795H38.0984V85.1134H41.2326V81.9795Z" fill="#457437"/>
<path d="M38.1002 81.9795H34.966V85.1134H38.1002V81.9795Z" fill="#457437"/>
<path d="M34.966 81.9795H31.8318V85.1134H34.966V81.9795Z" fill="#457437"/>
<path d="M31.8318 81.9795H28.6976V85.1134H31.8318V81.9795Z" fill="#306431"/>
<path d="M28.6995 81.9795H25.5653V85.1134H28.6995V81.9795Z" fill="#306431"/>
<path d="M25.5653 81.9795H22.4311V85.1134H25.5653V81.9795Z" fill="#306532"/>
<path d="M75.7031 78.8457H72.5689V81.9796H75.7031V78.8457Z" fill="#2F6431"/>
<path d="M72.5689 78.8457H69.4348V81.9796H72.5689V78.8457Z" fill="#457437"/>
<path d="M69.4347 78.8457H66.3005V81.9796H69.4347V78.8457Z" fill="#457437"/>
<path d="M66.3024 78.8457H63.1682V81.9796H66.3024V78.8457Z" fill="#477336"/>
<path d="M63.1682 78.8457H60.034V81.9796H63.1682V78.8457Z" fill="#477336"/>
<path d="M60.034 78.8457H56.8998V81.9796H60.034V78.8457Z" fill="#467537"/>
<path d="M56.9016 78.8457H53.7675V81.9796H56.9016V78.8457Z" fill="#477336"/>
<path d="M53.7675 78.8457H50.6333V81.9796H53.7675V78.8457Z" fill="#2D6432"/>
<path d="M50.6333 78.8457H47.4991V81.9796H50.6333V78.8457Z" fill="#589441"/>
<path d="M47.5009 78.8457H44.3668V81.9796H47.5009V78.8457Z" fill="#599342"/>
<path d="M44.3667 78.8457H41.2325V81.9796H44.3667V78.8457Z" fill="#2D6432"/>
<path d="M41.2326 78.8457H38.0984V81.9796H41.2326V78.8457Z" fill="#477336"/>
<path d="M38.1002 78.8457H34.966V81.9796H38.1002V78.8457Z" fill="#477336"/>
<path d="M34.966 78.8457H31.8318V81.9796H34.966V78.8457Z" fill="#477336"/>
<path d="M31.8318 78.8457H28.6976V81.9796H31.8318V78.8457Z" fill="#477336"/>
<path d="M28.6995 78.8457H25.5653V81.9796H28.6995V78.8457Z" fill="#477336"/>
<path d="M25.5653 78.8457H22.4311V81.9796H25.5653V78.8457Z" fill="#447337"/>
<path d="M22.4311 78.8457H19.2969V81.9796H22.4311V78.8457Z" fill="#2C6532"/>
<path d="M81.9696 75.7119H78.8354V78.8458H81.9696V75.7119Z" fill="#346838"/>
<path d="M78.8355 75.7119H75.7013V78.8458H78.8355V75.7119Z" fill="#2D6432"/>
<path d="M75.7031 75.7119H72.5689V78.8458H75.7031V75.7119Z" fill="#457437"/>
<path d="M72.5689 75.7119H69.4348V78.8458H72.5689V75.7119Z" fill="#457437"/>
<path d="M69.4347 75.7119H66.3005V78.8458H69.4347V75.7119Z" fill="#457437"/>
<path d="M66.3024 75.7119H63.1682V78.8458H66.3024V75.7119Z" fill="#4E863E"/>
<path d="M63.1682 75.7119H60.034V78.8458H63.1682V75.7119Z" fill="#4E863E"/>
<path d="M60.034 75.7119H56.8998V78.8458H60.034V75.7119Z" fill="#50873E"/>
<path d="M56.9016 75.7119H53.7675V78.8458H56.9016V75.7119Z" fill="#4D853D"/>
<path d="M53.7675 75.7119H50.6333V78.8458H53.7675V75.7119Z" fill="#2D6432"/>
<path d="M50.6333 75.7119H47.4991V78.8458H50.6333V75.7119Z" fill="#4E863E"/>
<path d="M47.5009 75.7119H44.3668V78.8458H47.5009V75.7119Z" fill="#4E863E"/>
<path d="M44.3667 75.7119H41.2325V78.8458H44.3667V75.7119Z" fill="#2D6432"/>
<path d="M41.2326 75.7119H38.0984V78.8458H41.2326V75.7119Z" fill="#4E863E"/>
<path d="M38.1002 75.7119H34.966V78.8458H38.1002V75.7119Z" fill="#4E863E"/>
<path d="M34.966 75.7119H31.8318V78.8458H34.966V75.7119Z" fill="#4E863E"/>
<path d="M31.8318 75.7119H28.6976V78.8458H31.8318V75.7119Z" fill="#4E863E"/>
<path d="M28.6995 75.7119H25.5653V78.8458H28.6995V75.7119Z" fill="#4E863E"/>
<path d="M25.5653 75.7119H22.4311V78.8458H25.5653V75.7119Z" fill="#4F853D"/>
<path d="M22.4311 75.7119H19.2969V78.8458H22.4311V75.7119Z" fill="#4E863E"/>
<path d="M19.2987 75.7119H16.1646V78.8458H19.2987V75.7119Z" fill="#2C6532"/>
<path d="M16.1646 75.7119H13.0304V78.8458H16.1646V75.7119Z" fill="#306432"/>
<path d="M81.9696 72.5757H78.8354V75.7096H81.9696V72.5757Z" fill="#366738"/>
<path d="M78.8355 72.5757H75.7013V75.7096H78.8355V72.5757Z" fill="#2D6331"/>
<path d="M75.7031 72.5757H72.5689V75.7096H75.7031V72.5757Z" fill="#457337"/>
<path d="M72.5689 72.5757H69.4348V75.7096H72.5689V72.5757Z" fill="#4F863E"/>
<path d="M69.4347 72.5757H66.3005V75.7096H69.4347V72.5757Z" fill="#4F863D"/>
<path d="M66.3024 72.5757H63.1682V75.7096H66.3024V72.5757Z" fill="#4E863E"/>
<path d="M63.1682 72.5757H60.034V75.7096H63.1682V72.5757Z" fill="#5B9342"/>
<path d="M60.034 72.5757H56.8998V75.7096H60.034V72.5757Z" fill="#538944"/>
<path d="M56.9016 72.5757H53.7675V75.7096H56.9016V72.5757Z" fill="#2D6532"/>
<path d="M53.7675 72.5757H50.6333V75.7096H53.7675V72.5757Z" fill="#2D6331"/>
<path d="M50.6333 72.5757H47.4991V75.7096H50.6333V72.5757Z" fill="#5D9541"/>
<path d="M47.5009 72.5757H44.3668V75.7096H47.5009V72.5757Z" fill="#5C9344"/>
<path d="M44.3667 72.5757H41.2325V75.7096H44.3667V72.5757Z" fill="#2D6331"/>
<path d="M41.2326 72.5757H38.0984V75.7096H41.2326V72.5757Z" fill="#2D6532"/>
<path d="M38.1002 72.5757H34.966V75.7096H38.1002V72.5757Z" fill="#3D7538"/>
<path d="M34.966 72.5757H31.8318V75.7096H34.966V72.5757Z" fill="#4E863E"/>
<path d="M31.8318 72.5757H28.6976V75.7096H31.8318V72.5757Z" fill="#4E863E"/>
<path d="M28.6995 72.5757H25.5653V75.7096H28.6995V72.5757Z" fill="#4E863E"/>
<path d="M25.5653 72.5757H22.4311V75.7096H25.5653V72.5757Z" fill="#51863D"/>
<path d="M22.4311 72.5757H19.2969V75.7096H22.4311V72.5757Z" fill="#4E863E"/>
<path d="M19.2987 72.5757H16.1646V75.7096H19.2987V72.5757Z" fill="#2C6532"/>
<path d="M16.1646 72.5757H13.0304V75.7096H16.1646V72.5757Z" fill="#316432"/>
<path d="M81.9696 69.4419H78.8354V72.5758H81.9696V69.4419Z" fill="#366738"/>
<path d="M78.8355 69.4419H75.7013V72.5758H78.8355V69.4419Z" fill="#2D6432"/>
<path d="M75.7031 69.4419H72.5689V72.5758H75.7031V69.4419Z" fill="#457437"/>
<path d="M72.5689 69.4419H69.4348V72.5758H72.5689V69.4419Z" fill="#4E863E"/>
<path d="M69.4347 69.4419H66.3005V72.5758H69.4347V69.4419Z" fill="#4E863E"/>
<path d="M66.3024 69.4419H63.1682V72.5758H66.3024V69.4419Z" fill="#50873E"/>
<path d="M63.1682 69.4419H60.034V72.5758H63.1682V69.4419Z" fill="#5A9441"/>
<path d="M60.034 69.4419H56.8998V72.5758H60.034V69.4419Z" fill="#528B44"/>
<path d="M56.9016 69.4419H53.7675V72.5758H56.9016V69.4419Z" fill="#2D6432"/>
<path d="M53.7675 69.4419H50.6333V72.5758H53.7675V69.4419Z" fill="#2D6432"/>
<path d="M50.6333 69.4419H47.4991V72.5758H50.6333V69.4419Z" fill="#589441"/>
<path d="M47.5009 69.4419H44.3668V72.5758H47.5009V69.4419Z" fill="#589441"/>
<path d="M44.3667 69.4419H41.2325V72.5758H44.3667V69.4419Z" fill="#2C6532"/>
<path d="M41.2326 69.4419H38.0984V72.5758H41.2326V69.4419Z" fill="#2C6532"/>
<path d="M38.1002 69.4419H34.966V72.5758H38.1002V69.4419Z" fill="#3D7538"/>
<path d="M34.966 69.4419H31.8318V72.5758H34.966V69.4419Z" fill="#50873E"/>
<path d="M31.8318 69.4419H28.6976V72.5758H31.8318V69.4419Z" fill="#50873E"/>
<path d="M28.6995 69.4419H25.5653V72.5758H28.6995V69.4419Z" fill="#4E863E"/>
<path d="M25.5653 69.4419H22.4311V72.5758H25.5653V69.4419Z" fill="#4F853D"/>
<path d="M22.4311 69.4419H19.2969V72.5758H22.4311V69.4419Z" fill="#4E863E"/>
<path d="M19.2987 69.4419H16.1646V72.5758H19.2987V69.4419Z" fill="#2E6532"/>
<path d="M16.1646 69.4419H13.0304V72.5758H16.1646V69.4419Z" fill="#306331"/>
<path d="M85.1038 66.3081H81.9697V69.442H85.1038V66.3081Z" fill="#2D6432"/>
<path d="M81.9696 66.3081H78.8354V69.442H81.9696V66.3081Z" fill="#4A823D"/>
<path d="M78.8355 66.3081H75.7013V69.442H78.8355V66.3081Z" fill="#4E863E"/>
<path d="M75.7031 66.3081H72.5689V69.442H75.7031V66.3081Z" fill="#4E863E"/>
<path d="M72.5689 66.3081H69.4348V69.442H72.5689V66.3081Z" fill="#4E863E"/>
<path d="M69.4347 66.3081H66.3005V69.442H69.4347V66.3081Z" fill="#4E863E"/>
<path d="M66.3024 66.3081H63.1682V69.442H66.3024V66.3081Z" fill="#2D6432"/>
<path d="M63.1682 66.3081H60.034V69.442H63.1682V66.3081Z" fill="#2D6432"/>
<path d="M60.034 66.3081H56.8998V69.442H60.034V66.3081Z" fill="#50774A"/>
<path d="M53.7675 66.3081H50.6333V69.442H53.7675V66.3081Z" fill="#2F6431"/>
<path d="M50.6333 66.3081H47.4991V69.442H50.6333V66.3081Z" fill="#589441"/>
<path d="M47.5009 66.3081H44.3668V69.442H47.5009V66.3081Z" fill="#589441"/>
<path d="M44.3667 66.3081H41.2325V69.442H44.3667V66.3081Z" fill="#2C6532"/>
<path d="M34.966 66.3081H31.8318V69.442H34.966V66.3081Z" fill="#2D6432"/>
<path d="M31.8318 66.3081H28.6976V69.442H31.8318V66.3081Z" fill="#2D6432"/>
<path d="M28.6995 66.3081H25.5653V69.442H28.6995V66.3081Z" fill="#5A9442"/>
<path d="M25.5653 66.3081H22.4311V69.442H25.5653V66.3081Z" fill="#5B9242"/>
<path d="M22.4311 66.3081H19.2969V69.442H22.4311V66.3081Z" fill="#5A9341"/>
<path d="M19.2987 66.3081H16.1646V69.442H19.2987V66.3081Z" fill="#5A9341"/>
<path d="M16.1646 66.3081H13.0304V69.442H16.1646V66.3081Z" fill="#5A9444"/>
<path d="M13.0304 66.3081H9.89618V69.442H13.0304V66.3081Z" fill="#2D6532"/>
<path d="M85.1038 63.1724H81.9697V66.3063H85.1038V63.1724Z" fill="#2F6431"/>
<path d="M81.9696 63.1724H78.8354V66.3063H81.9696V63.1724Z" fill="#4A823D"/>
<path d="M78.8355 63.1724H75.7013V66.3063H78.8355V63.1724Z" fill="#4E863E"/>
<path d="M75.7031 63.1724H72.5689V66.3063H75.7031V63.1724Z" fill="#2D6432"/>
<path d="M72.5689 63.1724H69.4348V66.3063H72.5689V63.1724Z" fill="#2D6432"/>
<path d="M69.4347 63.1724H66.3005V66.3063H69.4347V63.1724Z" fill="#2D6331"/>
<path d="M53.7675 63.1724H50.6333V66.3063H53.7675V63.1724Z" fill="#2F6431"/>
<path d="M50.6333 63.1724H47.4991V66.3063H50.6333V63.1724Z" fill="#4F853D"/>
<path d="M47.5009 63.1724H44.3668V66.3063H47.5009V63.1724Z" fill="#50863D"/>
<path d="M44.3667 63.1724H41.2325V66.3063H44.3667V63.1724Z" fill="#2C6532"/>
<path d="M28.6995 63.1724H25.5653V66.3063H28.6995V63.1724Z" fill="#2D5F2F"/>
<path d="M25.5653 63.1724H22.4311V66.3063H25.5653V63.1724Z" fill="#2E6432"/>
<path d="M22.4311 63.1724H19.2969V66.3063H22.4311V63.1724Z" fill="#2D6432"/>
<path d="M19.2987 63.1724H16.1646V66.3063H19.2987V63.1724Z" fill="#5A9341"/>
<path d="M16.1646 63.1724H13.0304V66.3063H16.1646V63.1724Z" fill="#5A9444"/>
<path d="M13.0304 63.1724H9.89618V66.3063H13.0304V63.1724Z" fill="#2D6532"/>
<path d="M85.1038 60.0386H81.9697V63.1725H85.1038V60.0386Z" fill="#2D6432"/>
<path d="M81.9696 60.0386H78.8354V63.1725H81.9696V60.0386Z" fill="#467D3C"/>
<path d="M78.8355 60.0386H75.7013V63.1725H78.8355V60.0386Z" fill="#487F3C"/>
<path d="M75.7031 60.0386H72.5689V63.1725H75.7031V60.0386Z" fill="#537649"/>
<path d="M72.5689 60.0386H69.4348V63.1725H72.5689V60.0386Z" fill="#537649"/>
<path d="M69.4347 60.0386H66.3005V63.1725H69.4347V60.0386Z" fill="#54764A"/>
<path d="M53.7675 60.0386H50.6333V63.1725H53.7675V60.0386Z" fill="#2F6431"/>
<path d="M50.6333 60.0386H47.4991V63.1725H50.6333V60.0386Z" fill="#4F813B"/>
<path d="M47.5009 60.0386H44.3668V63.1725H47.5009V60.0386Z" fill="#4D833D"/>
<path d="M44.3667 60.0386H41.2325V63.1725H44.3667V60.0386Z" fill="#2C6532"/>
<path d="M28.6995 60.0386H25.5653V63.1725H28.6995V60.0386Z" fill="#53734A"/>
<path d="M25.5653 60.0386H22.4311V63.1725H25.5653V60.0386Z" fill="#54774A"/>
<path d="M22.4311 60.0386H19.2969V63.1725H22.4311V60.0386Z" fill="#537649"/>
<path d="M19.2987 60.0386H16.1646V63.1725H19.2987V60.0386Z" fill="#518841"/>
<path d="M16.1646 60.0386H13.0304V63.1725H16.1646V60.0386Z" fill="#518841"/>
<path d="M13.0304 60.0386H9.89618V63.1725H13.0304V60.0386Z" fill="#2D6532"/>
<path d="M85.1038 56.9043H81.9697V60.0382H85.1038V56.9043Z" fill="#2F6431"/>
<path d="M81.9696 56.9043H78.8354V60.0382H81.9696V56.9043Z" fill="#2F6431"/>
<path d="M78.8355 56.9043H75.7013V60.0382H78.8355V56.9043Z" fill="#306331"/>
<path d="M53.7675 56.9043H50.6333V60.0382H53.7675V56.9043Z" fill="#2F6431"/>
<path d="M50.6333 56.9043H47.4991V60.0382H50.6333V56.9043Z" fill="#467236"/>
<path d="M47.5009 56.9043H44.3668V60.0382H47.5009V56.9043Z" fill="#467336"/>
<path d="M44.3667 56.9043H41.2325V60.0382H44.3667V56.9043Z" fill="#2C6532"/>
<path d="M19.2987 56.9043H16.1646V60.0382H19.2987V56.9043Z" fill="#2D6432"/>
<path d="M16.1646 56.9043H13.0304V60.0382H16.1646V56.9043Z" fill="#2F6431"/>
<path d="M13.0304 56.9043H9.89618V60.0382H13.0304V56.9043Z" fill="#2D6532"/>
<path d="M53.7675 53.7686H50.6333V56.9025H53.7675V53.7686Z" fill="#2F6431"/>
<path d="M50.6333 53.7686H47.4991V56.9025H50.6333V53.7686Z" fill="#467236"/>
<path d="M47.5009 53.7686H44.3668V56.9025H47.5009V53.7686Z" fill="#467336"/>
<path d="M44.3667 53.7686H41.2325V56.9025H44.3667V53.7686Z" fill="#2C6532"/>
<path d="M56.9016 50.6348H53.7675V53.7687H56.9016V50.6348Z" fill="#872C25"/>
<path d="M53.7675 50.6348H50.6333V53.7687H53.7675V50.6348Z" fill="#712417"/>
<path d="M50.6333 50.6348H47.4991V53.7687H50.6333V50.6348Z" fill="#762518"/>
<path d="M47.5009 50.6348H44.3668V53.7687H47.5009V50.6348Z" fill="#712517"/>
<path d="M44.3667 50.6348H41.2325V53.7687H44.3667V50.6348Z" fill="#6E2617"/>
<path d="M41.2326 50.6348H38.0984V53.7687H41.2326V50.6348Z" fill="#8A2C24"/>
<path d="M56.9016 47.501H53.7675V50.6349H56.9016V47.501Z" fill="#821619"/>
<path d="M53.7675 47.501H50.6333V50.6349H53.7675V47.501Z" fill="#821619"/>
<path d="M50.6333 47.501H47.4991V50.6349H50.6333V47.501Z" fill="#821619"/>
<path d="M47.5009 47.501H44.3668V50.6349H47.5009V47.501Z" fill="#821619"/>
<path d="M44.3667 47.501H41.2325V50.6349H44.3667V47.501Z" fill="#821619"/>
<path d="M41.2326 47.501H38.0984V50.6349H41.2326V47.501Z" fill="#841719"/>
<path d="M88.2362 44.3652H85.1021V47.4992H88.2362V44.3652Z" fill="#DCA127"/>
<path d="M66.3024 44.3652H63.1682V47.4992H66.3024V44.3652Z" fill="#841719"/>
<path d="M63.1682 44.3652H60.034V47.4992H63.1682V44.3652Z" fill="#841719"/>
<path d="M60.034 44.3652H56.8998V47.4992H60.034V44.3652Z" fill="#911B1E"/>
<path d="M56.9016 44.3652H53.7675V47.4992H56.9016V44.3652Z" fill="#B72C28"/>
<path d="M53.7675 44.3652H50.6333V47.4992H53.7675V44.3652Z" fill="#9B1D21"/>
<path d="M50.6333 44.3652H47.4991V47.4992H50.6333V44.3652Z" fill="#DD4836"/>
<path d="M47.5009 44.3652H44.3668V47.4992H47.5009V44.3652Z" fill="#DD473A"/>
<path d="M44.3667 44.3652H41.2325V47.4992H44.3667V44.3652Z" fill="#9B1D21"/>
<path d="M41.2326 44.3652H38.0984V47.4992H41.2326V44.3652Z" fill="#E94841"/>
<path d="M38.1002 44.3652H34.966V47.4992H38.1002V44.3652Z" fill="#B8332F"/>
<path d="M34.966 44.3652H31.8318V47.4992H34.966V44.3652Z" fill="#841719"/>
<path d="M31.8318 44.3652H28.6976V47.4992H31.8318V44.3652Z" fill="#841719"/>
<path d="M91.3704 41.231H88.2362V44.3649H91.3704V41.231Z" fill="#F6D438"/>
<path d="M88.2362 41.231H85.1021V44.3649H88.2362V41.231Z" fill="#FCDD4B"/>
<path d="M85.1038 41.231H81.9697V44.3649H85.1038V41.231Z" fill="#D4A132"/>
<path d="M72.5689 41.231H69.4348V44.3649H72.5689V41.231Z" fill="#851719"/>
<path d="M69.4347 41.231H66.3005V44.3649H69.4347V41.231Z" fill="#811719"/>
<path d="M66.3024 41.231H63.1682V44.3649H66.3024V41.231Z" fill="#B42C29"/>
<path d="M63.1682 41.231H60.034V44.3649H63.1682V41.231Z" fill="#B42C29"/>
<path d="M60.034 41.231H56.8998V44.3649H60.034V41.231Z" fill="#BD2D29"/>
<path d="M56.9016 41.231H53.7675V44.3649H56.9016V41.231Z" fill="#C72E2E"/>
<path d="M53.7675 41.231H50.6333V44.3649H53.7675V41.231Z" fill="#9B1D21"/>
<path d="M50.6333 41.231H47.4991V44.3649H50.6333V41.231Z" fill="#DD4836"/>
<path d="M47.5009 41.231H44.3668V44.3649H47.5009V41.231Z" fill="#DD4738"/>
<path d="M44.3667 41.231H41.2325V44.3649H44.3667V41.231Z" fill="#9B1D21"/>
<path d="M41.2326 41.231H38.0984V44.3649H41.2326V41.231Z" fill="#E94743"/>
<path d="M38.1002 41.231H34.966V44.3649H38.1002V41.231Z" fill="#E84B40"/>
<path d="M34.966 41.231H31.8318V44.3649H34.966V41.231Z" fill="#E94940"/>
<path d="M31.8318 41.231H28.6976V44.3649H31.8318V41.231Z" fill="#E94940"/>
<path d="M28.6995 41.231H25.5653V44.3649H28.6995V41.231Z" fill="#86171A"/>
<path d="M25.5653 41.231H22.4311V44.3649H25.5653V41.231Z" fill="#821719"/>
<path d="M88.2362 38.0972H85.1021V41.2311H88.2362V38.0972Z" fill="#FAEA7D"/>
<path d="M72.5689 38.0972H69.4348V41.2311H72.5689V38.0972Z" fill="#831619"/>
<path d="M69.4347 38.0972H66.3005V41.2311H69.4347V38.0972Z" fill="#841719"/>
<path d="M66.3024 38.0972H63.1682V41.2311H66.3024V38.0972Z" fill="#B72C28"/>
<path d="M63.1682 38.0972H60.034V41.2311H63.1682V38.0972Z" fill="#B62D28"/>
<path d="M60.034 38.0972H56.8998V41.2311H60.034V38.0972Z" fill="#BD2C2A"/>
<path d="M56.9016 38.0972H53.7675V41.2311H56.9016V38.0972Z" fill="#C62F30"/>
<path d="M53.7675 38.0972H50.6333V41.2311H53.7675V38.0972Z" fill="#9E1D22"/>
<path d="M50.6333 38.0972H47.4991V41.2311H50.6333V38.0972Z" fill="#DB473B"/>
<path d="M47.5009 38.0972H44.3668V41.2311H47.5009V38.0972Z" fill="#DD4836"/>
<path d="M44.3667 38.0972H41.2325V41.2311H44.3667V38.0972Z" fill="#9F1E22"/>
<path d="M41.2326 38.0972H38.0984V41.2311H41.2326V38.0972Z" fill="#E94743"/>
<path d="M38.1002 38.0972H34.966V41.2311H38.1002V38.0972Z" fill="#EA4744"/>
<path d="M34.966 38.0972H31.8318V41.2311H34.966V38.0972Z" fill="#E94841"/>
<path d="M31.8318 38.0972H28.6976V41.2311H31.8318V38.0972Z" fill="#E94841"/>
<path d="M28.6995 38.0972H25.5653V41.2311H28.6995V38.0972Z" fill="#85171A"/>
<path d="M25.5653 38.0972H22.4311V41.2311H25.5653V38.0972Z" fill="#821619"/>
<path d="M72.5689 34.9614H69.4348V38.0954H72.5689V34.9614Z" fill="#841719"/>
<path d="M69.4347 34.9614H66.3005V38.0954H69.4347V34.9614Z" fill="#851719"/>
<path d="M66.3024 34.9614H63.1682V38.0954H66.3024V34.9614Z" fill="#B92D29"/>
<path d="M63.1682 34.9614H60.034V38.0954H63.1682V34.9614Z" fill="#C72E2E"/>
<path d="M60.034 34.9614H56.8998V38.0954H60.034V34.9614Z" fill="#BF2C2F"/>
<path d="M56.9016 34.9614H53.7675V38.0954H56.9016V34.9614Z" fill="#9B1D21"/>
<path d="M53.7675 34.9614H50.6333V38.0954H53.7675V34.9614Z" fill="#DA483A"/>
<path d="M50.6333 34.9614H47.4991V38.0954H50.6333V34.9614Z" fill="#DB463A"/>
<path d="M47.5009 34.9614H44.3668V38.0954H47.5009V34.9614Z" fill="#DA483A"/>
<path d="M44.3667 34.9614H41.2325V38.0954H44.3667V34.9614Z" fill="#DB463A"/>
<path d="M41.2326 34.9614H38.0984V38.0954H41.2326V34.9614Z" fill="#9B1D21"/>
<path d="M38.1002 34.9614H34.966V38.0954H38.1002V34.9614Z" fill="#C03330"/>
<path d="M34.966 34.9614H31.8318V38.0954H34.966V34.9614Z" fill="#E94841"/>
<path d="M31.8318 34.9614H28.6976V38.0954H31.8318V34.9614Z" fill="#E94841"/>
<path d="M28.6995 34.9614H25.5653V38.0954H28.6995V34.9614Z" fill="#85171A"/>
<path d="M25.5653 34.9614H22.4311V38.0954H25.5653V34.9614Z" fill="#821619"/>
<path d="M75.7031 31.8276H72.5689V34.9616H75.7031V31.8276Z" fill="#831619"/>
<path d="M72.5689 31.8276H69.4348V34.9616H72.5689V31.8276Z" fill="#B72C28"/>
<path d="M69.4347 31.8276H66.3005V34.9616H69.4347V31.8276Z" fill="#B92D28"/>
<path d="M66.3024 31.8276H63.1682V34.9616H66.3024V31.8276Z" fill="#C72E2E"/>
<path d="M63.1682 31.8276H60.034V34.9616H63.1682V31.8276Z" fill="#C72E2E"/>
<path d="M60.034 31.8276H56.8998V34.9616H60.034V31.8276Z" fill="#BF2C2F"/>
<path d="M56.9016 31.8276H53.7675V34.9616H56.9016V31.8276Z" fill="#9B1D21"/>
<path d="M53.7675 31.8276H50.6333V34.9616H53.7675V31.8276Z" fill="#DA483A"/>
<path d="M50.6333 31.8276H47.4991V34.9616H50.6333V31.8276Z" fill="#DB463A"/>
<path d="M47.5009 31.8276H44.3668V34.9616H47.5009V31.8276Z" fill="#DA483A"/>
<path d="M44.3667 31.8276H41.2325V34.9616H44.3667V31.8276Z" fill="#DB463A"/>
<path d="M41.2326 31.8276H38.0984V34.9616H41.2326V31.8276Z" fill="#9B1D21"/>
<path d="M38.1002 31.8276H34.966V34.9616H38.1002V31.8276Z" fill="#C03330"/>
<path d="M34.966 31.8276H31.8318V34.9616H34.966V31.8276Z" fill="#E94841"/>
<path d="M31.8318 31.8276H28.6976V34.9616H31.8318V31.8276Z" fill="#E94841"/>
<path d="M28.6995 31.8276H25.5653V34.9616H28.6995V31.8276Z" fill="#E94841"/>
<path d="M25.5653 31.8276H22.4311V34.9616H25.5653V31.8276Z" fill="#E94843"/>
<path d="M22.4311 31.8276H19.2969V34.9616H22.4311V31.8276Z" fill="#831619"/>
<path d="M75.7031 28.6934H72.5689V31.8273H75.7031V28.6934Z" fill="#821619"/>
<path d="M72.5689 28.6934H69.4348V31.8273H72.5689V28.6934Z" fill="#C62E2E"/>
<path d="M69.4347 28.6934H66.3005V31.8273H69.4347V28.6934Z" fill="#C62E2E"/>
<path d="M66.3024 28.6934H63.1682V31.8273H66.3024V28.6934Z" fill="#C72E2E"/>
<path d="M63.1682 28.6934H60.034V31.8273H63.1682V28.6934Z" fill="#9E1D22"/>
<path d="M60.034 28.6934H56.8998V31.8273H60.034V28.6934Z" fill="#AA2425"/>
<path d="M56.9016 28.6934H53.7675V31.8273H56.9016V28.6934Z" fill="#DD4740"/>
<path d="M53.7675 28.6934H50.6333V31.8273H53.7675V28.6934Z" fill="#DD483A"/>
<path d="M50.6333 28.6934H47.4991V31.8273H50.6333V28.6934Z" fill="#DD483A"/>
<path d="M47.5009 28.6934H44.3668V31.8273H47.5009V28.6934Z" fill="#DA483A"/>
<path d="M44.3667 28.6934H41.2325V31.8273H44.3667V28.6934Z" fill="#DD483A"/>
<path d="M41.2326 28.6934H38.0984V31.8273H41.2326V28.6934Z" fill="#DD4740"/>
<path d="M38.1002 28.6934H34.966V31.8273H38.1002V28.6934Z" fill="#BF312E"/>
<path d="M34.966 28.6934H31.8318V31.8273H34.966V28.6934Z" fill="#9D1D21"/>
<path d="M31.8318 28.6934H28.6976V31.8273H31.8318V28.6934Z" fill="#E94840"/>
<path d="M28.6995 28.6934H25.5653V31.8273H28.6995V28.6934Z" fill="#E94841"/>
<path d="M25.5653 28.6934H22.4311V31.8273H25.5653V28.6934Z" fill="#EA4743"/>
<path d="M22.4311 28.6934H19.2969V31.8273H22.4311V28.6934Z" fill="#821619"/>
<path d="M75.7031 25.5576H72.5689V28.6916H75.7031V25.5576Z" fill="#831619"/>
<path d="M72.5689 25.5576H69.4348V28.6916H72.5689V25.5576Z" fill="#C62E2E"/>
<path d="M69.4347 25.5576H66.3005V28.6916H69.4347V25.5576Z" fill="#C62E2E"/>
<path d="M66.3024 25.5576H63.1682V28.6916H66.3024V25.5576Z" fill="#C72E2E"/>
<path d="M63.1682 25.5576H60.034V28.6916H63.1682V25.5576Z" fill="#9B1D21"/>
<path d="M60.034 25.5576H56.8998V28.6916H60.034V25.5576Z" fill="#AA2426"/>
<path d="M56.9016 25.5576H53.7675V28.6916H56.9016V25.5576Z" fill="#DB463A"/>
<path d="M53.7675 25.5576H50.6333V28.6916H53.7675V25.5576Z" fill="#DB463A"/>
<path d="M50.6333 25.5576H47.4991V28.6916H50.6333V25.5576Z" fill="#DB463A"/>
<path d="M47.5009 25.5576H44.3668V28.6916H47.5009V25.5576Z" fill="#DA483A"/>
<path d="M44.3667 25.5576H41.2325V28.6916H44.3667V25.5576Z" fill="#DB463A"/>
<path d="M41.2326 25.5576H38.0984V28.6916H41.2326V25.5576Z" fill="#DB463A"/>
<path d="M38.1002 25.5576H34.966V28.6916H38.1002V25.5576Z" fill="#BC342D"/>
<path d="M34.966 25.5576H31.8318V28.6916H34.966V25.5576Z" fill="#9B1D21"/>
<path d="M31.8318 25.5576H28.6976V28.6916H31.8318V25.5576Z" fill="#E94841"/>
<path d="M28.6995 25.5576H25.5653V28.6916H28.6995V25.5576Z" fill="#E94841"/>
<path d="M25.5653 25.5576H22.4311V28.6916H25.5653V25.5576Z" fill="#E94843"/>
<path d="M22.4311 25.5576H19.2969V28.6916H22.4311V25.5576Z" fill="#831619"/>
<path d="M75.7031 22.4238H72.5689V25.5578H75.7031V22.4238Z" fill="#831619"/>
<path d="M72.5689 22.4238H69.4348V25.5578H72.5689V22.4238Z" fill="#C62E2E"/>
<path d="M69.4347 22.4238H66.3005V25.5578H69.4347V22.4238Z" fill="#C62E2E"/>
<path d="M66.3024 22.4238H63.1682V25.5578H66.3024V22.4238Z" fill="#C72E2E"/>
<path d="M63.1682 22.4238H60.034V25.5578H63.1682V22.4238Z" fill="#9B1D21"/>
<path d="M60.034 22.4238H56.8998V25.5578H60.034V22.4238Z" fill="#AA2426"/>
<path d="M56.9016 22.4238H53.7675V25.5578H56.9016V22.4238Z" fill="#DB463A"/>
<path d="M53.7675 22.4238H50.6333V25.5578H53.7675V22.4238Z" fill="#DB463A"/>
<path d="M50.6333 22.4238H47.4991V25.5578H50.6333V22.4238Z" fill="#DB463A"/>
<path d="M47.5009 22.4238H44.3668V25.5578H47.5009V22.4238Z" fill="#DA483A"/>
<path d="M44.3667 22.4238H41.2325V25.5578H44.3667V22.4238Z" fill="#DB463A"/>
<path d="M41.2326 22.4238H38.0984V25.5578H41.2326V22.4238Z" fill="#DB463A"/>
<path d="M38.1002 22.4238H34.966V25.5578H38.1002V22.4238Z" fill="#BC342D"/>
<path d="M34.966 22.4238H31.8318V25.5578H34.966V22.4238Z" fill="#9B1D21"/>
<path d="M31.8318 22.4238H28.6976V25.5578H31.8318V22.4238Z" fill="#E94841"/>
<path d="M28.6995 22.4238H25.5653V25.5578H28.6995V22.4238Z" fill="#F05450"/>
<path d="M25.5653 22.4238H22.4311V25.5578H25.5653V22.4238Z" fill="#ED5752"/>
<path d="M22.4311 22.4238H19.2969V25.5578H22.4311V22.4238Z" fill="#831619"/>
<path d="M75.7031 19.29H72.5689V22.424H75.7031V19.29Z" fill="#831619"/>
<path d="M72.5689 19.29H69.4348V22.424H72.5689V19.29Z" fill="#C62E2E"/>
<path d="M69.4347 19.29H66.3005V22.424H69.4347V19.29Z" fill="#C62E2E"/>
<path d="M66.3024 19.29H63.1682V22.424H66.3024V19.29Z" fill="#C72E2E"/>
<path d="M63.1682 19.29H60.034V22.424H63.1682V19.29Z" fill="#9C1D21"/>
<path d="M60.034 19.29H56.8998V22.424H60.034V19.29Z" fill="#AA2526"/>
<path d="M56.9016 19.29H53.7675V22.424H56.9016V19.29Z" fill="#DA473A"/>
<path d="M53.7675 19.29H50.6333V22.424H53.7675V19.29Z" fill="#DA473A"/>
<path d="M50.6333 19.29H47.4991V22.424H50.6333V19.29Z" fill="#DA473A"/>
<path d="M47.5009 19.29H44.3668V22.424H47.5009V19.29Z" fill="#DA483A"/>
<path d="M44.3667 19.29H41.2325V22.424H44.3667V19.29Z" fill="#DA473A"/>
<path d="M41.2326 19.29H38.0984V22.424H41.2326V19.29Z" fill="#DA473A"/>
<path d="M38.1002 19.29H34.966V22.424H38.1002V19.29Z" fill="#BC342D"/>
<path d="M34.966 19.29H31.8318V22.424H34.966V19.29Z" fill="#9C1D21"/>
<path d="M31.8318 19.29H28.6976V22.424H31.8318V19.29Z" fill="#E94741"/>
<path d="M28.6995 19.29H25.5653V22.424H28.6995V19.29Z" fill="#F05451"/>
<path d="M25.5653 19.29H22.4311V22.424H25.5653V19.29Z" fill="#ED5651"/>
<path d="M22.4311 19.29H19.2969V22.424H22.4311V19.29Z" fill="#831619"/>
<path d="M75.7031 16.1543H72.5689V19.2882H75.7031V16.1543Z" fill="#821719"/>
<path d="M72.5689 16.1543H69.4348V19.2882H72.5689V16.1543Z" fill="#C8302F"/>
<path d="M69.4347 16.1543H66.3005V19.2882H69.4347V16.1543Z" fill="#C8302F"/>
<path d="M66.3024 16.1543H63.1682V19.2882H66.3024V16.1543Z" fill="#C72E2E"/>
<path d="M63.1682 16.1543H60.034V19.2882H63.1682V16.1543Z" fill="#9E1D22"/>
<path d="M60.034 16.1543H56.8998V19.2882H60.034V16.1543Z" fill="#AD2427"/>
<path d="M56.9016 16.1543H53.7675V19.2882H56.9016V16.1543Z" fill="#D9493D"/>
<path d="M53.7675 16.1543H50.6333V19.2882H53.7675V16.1543Z" fill="#DB463A"/>
<path d="M50.6333 16.1543H47.4991V19.2882H50.6333V16.1543Z" fill="#DB463A"/>
<path d="M47.5009 16.1543H44.3668V19.2882H47.5009V16.1543Z" fill="#DA483A"/>
<path d="M44.3667 16.1543H41.2325V19.2882H44.3667V16.1543Z" fill="#DB463A"/>
<path d="M41.2326 16.1543H38.0984V19.2882H41.2326V16.1543Z" fill="#D9493D"/>
<path d="M38.1002 16.1543H34.966V19.2882H38.1002V16.1543Z" fill="#BC352F"/>
<path d="M34.966 16.1543H31.8318V19.2882H34.966V16.1543Z" fill="#9D1D22"/>
<path d="M31.8318 16.1543H28.6976V19.2882H31.8318V16.1543Z" fill="#EA4843"/>
<path d="M28.6995 16.1543H25.5653V19.2882H28.6995V16.1543Z" fill="#EC5653"/>
<path d="M25.5653 16.1543H22.4311V19.2882H25.5653V16.1543Z" fill="#EC5653"/>
<path d="M22.4311 16.1543H19.2969V19.2882H22.4311V16.1543Z" fill="#821719"/>
<path d="M72.5689 13.0205H69.4348V16.1544H72.5689V13.0205Z" fill="#831619"/>
<path d="M69.4347 13.0205H66.3005V16.1544H69.4347V13.0205Z" fill="#841719"/>
<path d="M66.3024 13.0205H63.1682V16.1544H66.3024V13.0205Z" fill="#C72E2E"/>
<path d="M63.1682 13.0205H60.034V16.1544H63.1682V13.0205Z" fill="#C72E2E"/>
<path d="M60.034 13.0205H56.8998V16.1544H60.034V13.0205Z" fill="#BF2C2F"/>
<path d="M56.9016 13.0205H53.7675V16.1544H56.9016V13.0205Z" fill="#9B1D21"/>
<path d="M53.7675 13.0205H50.6333V16.1544H53.7675V13.0205Z" fill="#DA483A"/>
<path d="M50.6333 13.0205H47.4991V16.1544H50.6333V13.0205Z" fill="#DB463A"/>
<path d="M47.5009 13.0205H44.3668V16.1544H47.5009V13.0205Z" fill="#DA483A"/>
<path d="M44.3667 13.0205H41.2325V16.1544H44.3667V13.0205Z" fill="#DB463A"/>
<path d="M41.2326 13.0205H38.0984V16.1544H41.2326V13.0205Z" fill="#9B1D21"/>
<path d="M38.1002 13.0205H34.966V16.1544H38.1002V13.0205Z" fill="#BF332F"/>
<path d="M34.966 13.0205H31.8318V16.1544H34.966V13.0205Z" fill="#E94743"/>
<path d="M31.8318 13.0205H28.6976V16.1544H31.8318V13.0205Z" fill="#EF5451"/>
<path d="M28.6995 13.0205H25.5653V16.1544H28.6995V13.0205Z" fill="#841719"/>
<path d="M25.5653 13.0205H22.4311V16.1544H25.5653V13.0205Z" fill="#821619"/>
<path d="M9.89798 13.0205H6.76379V16.1544H9.89798V13.0205Z" fill="#DFA127"/>
<path d="M72.5689 9.88623H69.4348V13.0202H72.5689V9.88623Z" fill="#831619"/>
<path d="M69.4347 9.88623H66.3005V13.0202H69.4347V9.88623Z" fill="#841719"/>
<path d="M66.3024 9.88623H63.1682V13.0202H66.3024V9.88623Z" fill="#C72E2E"/>
<path d="M63.1682 9.88623H60.034V13.0202H63.1682V9.88623Z" fill="#C72E2E"/>
<path d="M60.034 9.88623H56.8998V13.0202H60.034V9.88623Z" fill="#BF2C2F"/>
<path d="M56.9016 9.88623H53.7675V13.0202H56.9016V9.88623Z" fill="#9C1D21"/>
<path d="M53.7675 9.88623H50.6333V13.0202H53.7675V9.88623Z" fill="#DA483A"/>
<path d="M50.6333 9.88623H47.4991V13.0202H50.6333V9.88623Z" fill="#DB463A"/>
<path d="M47.5009 9.88623H44.3668V13.0202H47.5009V9.88623Z" fill="#DA483A"/>
<path d="M44.3667 9.88623H41.2325V13.0202H44.3667V9.88623Z" fill="#DB463A"/>
<path d="M41.2326 9.88623H38.0984V13.0202H41.2326V9.88623Z" fill="#9C1D21"/>
<path d="M38.1002 9.88623H34.966V13.0202H38.1002V9.88623Z" fill="#C13635"/>
<path d="M34.966 9.88623H31.8318V13.0202H34.966V9.88623Z" fill="#ED5652"/>
<path d="M31.8318 9.88623H28.6976V13.0202H31.8318V9.88623Z" fill="#EF5451"/>
<path d="M28.6995 9.88623H25.5653V13.0202H28.6995V9.88623Z" fill="#841719"/>
<path d="M25.5653 9.88623H22.4311V13.0202H25.5653V9.88623Z" fill="#821619"/>
<path d="M13.0304 9.88623H9.89618V13.0202H13.0304V9.88623Z" fill="#E5B759"/>
<path d="M9.89798 9.88623H6.76379V13.0202H9.89798V9.88623Z" fill="#F9DA38"/>
<path d="M6.76382 9.88623H3.62964V13.0202H6.76382V9.88623Z" fill="#F2D33E"/>
<path d="M66.3024 6.75049H63.1682V9.88442H66.3024V6.75049Z" fill="#AD2528"/>
<path d="M63.1682 6.75049H60.034V9.88442H63.1682V6.75049Z" fill="#AD2528"/>
<path d="M60.034 6.75049H56.8998V9.88442H60.034V6.75049Z" fill="#85171A"/>
<path d="M53.7675 6.75049H50.6333V9.88442H53.7675V6.75049Z" fill="#B6342E"/>
<path d="M50.6333 6.75049H47.4991V9.88442H50.6333V6.75049Z" fill="#B63330"/>
<path d="M47.5009 6.75049H44.3668V9.88442H47.5009V6.75049Z" fill="#B63330"/>
<path d="M44.3667 6.75049H41.2325V9.88442H44.3667V6.75049Z" fill="#B73330"/>
<path d="M38.1002 6.75049H34.966V9.88442H38.1002V6.75049Z" fill="#85171A"/>
<path d="M34.966 6.75049H31.8318V9.88442H34.966V6.75049Z" fill="#C03C3B"/>
<path d="M31.8318 6.75049H28.6976V9.88442H31.8318V6.75049Z" fill="#C03C3B"/>
<path d="M9.89798 6.75049H6.76379V9.88442H9.89798V6.75049Z" fill="#FBDE47"/>
<path d="M66.3024 3.6167H63.1682V6.75063H66.3024V3.6167Z" fill="#87181A"/>
<path d="M63.1682 3.6167H60.034V6.75063H63.1682V3.6167Z" fill="#87181A"/>
<path d="M53.7675 3.6167H50.6333V6.75063H53.7675V3.6167Z" fill="#85171A"/>
<path d="M50.6333 3.6167H47.4991V6.75063H50.6333V3.6167Z" fill="#87181A"/>
<path d="M47.5009 3.6167H44.3668V6.75063H47.5009V3.6167Z" fill="#86171A"/>
<path d="M44.3667 3.6167H41.2325V6.75063H44.3667V3.6167Z" fill="#87181A"/>
<path d="M34.966 3.6167H31.8318V6.75063H34.966V3.6167Z" fill="#87181A"/>
<path d="M31.8318 3.6167H28.6976V6.75063H31.8318V3.6167Z" fill="#87181A"/>
</g>
<defs>
<clipPath id="clip0_1004_4105">
<rect width="95" height="95" fill="white"/>
</clipPath>
</defs>
</svg>
