<svg width="88" height="100" viewBox="0 0 88 100" fill="none" xmlns="http://www.w3.org/2000/svg">
<g clip-path="url(#clip0_988_2752)">
<path d="M2.97261 100V97.0215H0V32.7692H2.97261V26.8121H5.94522V23.8336H8.91783V11.9168H23.7809V8.93825H26.7535V5.95706H29.7261V2.97853H35.6713V0H55.3013V2.97853H58.2739V5.95706H61.2465V8.93825H67.1917V11.9168H79.0822V23.8336H82.0548V26.8121H85.0274V32.7692H88V97.0215H85.0274V100H2.97261Z" fill="white"/>
<path d="M79.6714 38.0831V35.1046V32.1261H76.6987V29.1475H73.7261V26.1663V23.1878V20.2093V17.2307H70.7535H67.7809H64.8083H61.8357V14.2522H58.8631H55.8905V11.271H52.9179V8.2925H49.9452V5.31396H46.9726H44H41.0274V8.2925H38.0548H35.0822V11.271H32.1096V14.2522H29.137V17.2307H26.1644H23.1917H20.2191H17.2465H14.2739V20.2093V23.1878V26.1663V29.1475H11.3013V32.1261H8.32869V35.1046V38.0831H5.35608V41.0643V44.0428V47.0214V49.9999V52.9784V55.9596V58.9382V61.9167V64.8952V67.8737V70.8549V73.8335V76.812V79.7905V82.7691V85.7503V88.7288V91.7073H8.32869V94.6858H11.3013H14.2739H17.2465H20.2191H23.1917H26.1644H29.137H32.1096H35.0822H38.0548H41.0274H44H46.9726H49.9452H52.9179H55.8905H58.8631H61.8357H64.8083H67.7809H70.7535H73.7261H76.6987H79.6714V91.7073H82.644V88.7288V85.7503V82.7691V79.7905V76.812V73.8335V70.8549V67.8737V64.8952V61.9167V58.9382V55.9596V52.9784V49.9999V47.0214V44.0428V41.0643V38.0831H79.6714Z" fill="white"/>
<path d="M79.6713 91.7075H76.6987V94.686H79.6713V91.7075Z" fill="#0B080A"/>
<path d="M76.6987 91.7075H73.7261V94.686H76.6987V91.7075Z" fill="#0C0A0B"/>
<path d="M73.7261 91.7075H70.7535V94.686H73.7261V91.7075Z" fill="#0A0909"/>
<path d="M70.7535 91.7075H67.7809V94.686H70.7535V91.7075Z" fill="#0A0909"/>
<path d="M67.7809 91.7075H64.8083V94.686H67.7809V91.7075Z" fill="#0A0909"/>
<path d="M64.8083 91.7075H61.8357V94.686H64.8083V91.7075Z" fill="#0A0809"/>
<path d="M61.8357 91.7075H58.8631V94.686H61.8357V91.7075Z" fill="#0B080A"/>
<path d="M58.8631 91.7075H55.8904V94.686H58.8631V91.7075Z" fill="#0A0809"/>
<path d="M55.8905 91.7075H52.9178V94.686H55.8905V91.7075Z" fill="#0A0809"/>
<path d="M52.9179 91.7075H49.9453V94.686H52.9179V91.7075Z" fill="#0A0809"/>
<path d="M49.9453 91.7075H46.9727V94.686H49.9453V91.7075Z" fill="#0A0809"/>
<path d="M46.9726 91.7075H44V94.686H46.9726V91.7075Z" fill="#0A0809"/>
<path d="M44 91.7075H41.0274V94.686H44V91.7075Z" fill="#070808"/>
<path d="M41.0274 91.7075H38.0548V94.686H41.0274V91.7075Z" fill="#070808"/>
<path d="M38.0548 91.7075H35.0822V94.686H38.0548V91.7075Z" fill="#070808"/>
<path d="M35.0822 91.7075H32.1096V94.686H35.0822V91.7075Z" fill="#0A0809"/>
<path d="M32.1096 91.7075H29.137V94.686H32.1096V91.7075Z" fill="#090809"/>
<path d="M29.137 91.7075H26.1644V94.686H29.137V91.7075Z" fill="#070808"/>
<path d="M26.1644 91.7075H23.1918V94.686H26.1644V91.7075Z" fill="#090808"/>
<path d="M23.1917 91.7075H20.2191V94.686H23.1917V91.7075Z" fill="#0B0A0B"/>
<path d="M20.2191 91.7075H17.2465V94.686H20.2191V91.7075Z" fill="#0A0909"/>
<path d="M17.2465 91.7075H14.2739V94.686H17.2465V91.7075Z" fill="#0A0909"/>
<path d="M14.2739 91.7075H11.3013V94.686H14.2739V91.7075Z" fill="#0C090A"/>
<path d="M11.3013 91.7075H8.32867V94.686H11.3013V91.7075Z" fill="#0C090A"/>
<path d="M82.644 88.729H79.6714V91.7075H82.644V88.729Z" fill="#240F11"/>
<path d="M79.6713 88.729H76.6987V91.7075H79.6713V88.729Z" fill="#0A0909"/>
<path d="M76.6987 88.729H73.7261V91.7075H76.6987V88.729Z" fill="#EFAAA6"/>
<path d="M73.7261 88.729H70.7535V91.7075H73.7261V88.729Z" fill="#F8AEB0"/>
<path d="M70.7535 88.729H67.7809V91.7075H70.7535V88.729Z" fill="#F2ADAA"/>
<path d="M67.7809 88.729H64.8083V91.7075H67.7809V88.729Z" fill="#F8AEB0"/>
<path d="M64.8083 88.729H61.8357V91.7075H64.8083V88.729Z" fill="#F2A7A6"/>
<path d="M61.8357 88.729H58.8631V91.7075H61.8357V88.729Z" fill="#F8AEB0"/>
<path d="M58.8631 88.729H55.8904V91.7075H58.8631V88.729Z" fill="#F8AEB0"/>
<path d="M55.8905 88.729H52.9178V91.7075H55.8905V88.729Z" fill="#F8AFAD"/>
<path d="M52.9179 88.729H49.9453V91.7075H52.9179V88.729Z" fill="#F8AEB0"/>
<path d="M49.9453 88.729H46.9727V91.7075H49.9453V88.729Z" fill="#F5AEAC"/>
<path d="M46.9726 88.729H44V91.7075H46.9726V88.729Z" fill="#F8AEB0"/>
<path d="M44 88.729H41.0274V91.7075H44V88.729Z" fill="#F8ADAB"/>
<path d="M41.0274 88.729H38.0548V91.7075H41.0274V88.729Z" fill="#F8AEB0"/>
<path d="M38.0548 88.729H35.0822V91.7075H38.0548V88.729Z" fill="#F8AEB0"/>
<path d="M35.0822 88.729H32.1096V91.7075H35.0822V88.729Z" fill="#F5B2AF"/>
<path d="M32.1096 88.729H29.137V91.7075H32.1096V88.729Z" fill="#F8AEB0"/>
<path d="M29.137 88.729H26.1644V91.7075H29.137V88.729Z" fill="#F1ABA9"/>
<path d="M26.1644 88.729H23.1918V91.7075H26.1644V88.729Z" fill="#F8AEB0"/>
<path d="M23.1917 88.729H20.2191V91.7075H23.1917V88.729Z" fill="#F8AEAC"/>
<path d="M20.2191 88.729H17.2465V91.7075H20.2191V88.729Z" fill="#F8AEB0"/>
<path d="M17.2465 88.729H14.2739V91.7075H17.2465V88.729Z" fill="#F8AEB0"/>
<path d="M14.2739 88.729H11.3013V91.7075H14.2739V88.729Z" fill="#F3ADA7"/>
<path d="M11.3013 88.729H8.32867V91.7075H11.3013V88.729Z" fill="#0A0C0B"/>
<path d="M8.32869 88.729H5.35608V91.7075H8.32869V88.729Z" fill="#070808"/>
<path d="M82.644 85.7505H79.6714V88.729H82.644V85.7505Z" fill="#201011"/>
<path d="M79.6713 85.7505H76.6987V88.729H79.6713V85.7505Z" fill="#F8AEAD"/>
<path d="M76.6987 85.7505H73.7261V88.729H76.6987V85.7505Z" fill="#090808"/>
<path d="M73.7261 85.7505H70.7535V88.729H73.7261V85.7505Z" fill="#F9B4AF"/>
<path d="M70.7535 85.7505H67.7809V88.729H70.7535V85.7505Z" fill="#F8ADAB"/>
<path d="M67.7809 85.7505H64.8083V88.729H67.7809V85.7505Z" fill="#F3A7A6"/>
<path d="M64.8083 85.7505H61.8357V88.729H64.8083V85.7505Z" fill="#F7ABA9"/>
<path d="M61.8357 85.7505H58.8631V88.729H61.8357V85.7505Z" fill="#F8AFAE"/>
<path d="M58.8631 85.7505H55.8904V88.729H58.8631V85.7505Z" fill="#F8AEAD"/>
<path d="M55.8905 85.7505H52.9178V88.729H55.8905V85.7505Z" fill="#F7ABA9"/>
<path d="M52.9179 85.7505H49.9453V88.729H52.9179V85.7505Z" fill="#F8B1B0"/>
<path d="M49.9453 85.7505H46.9727V88.729H49.9453V85.7505Z" fill="#F7ACAE"/>
<path d="M46.9726 85.7505H44V88.729H46.9726V85.7505Z" fill="#F8AFAF"/>
<path d="M44 85.7505H41.0274V88.729H44V85.7505Z" fill="#F8AFAF"/>
<path d="M41.0274 85.7505H38.0548V88.729H41.0274V85.7505Z" fill="#F8AEAC"/>
<path d="M38.0548 85.7505H35.0822V88.729H38.0548V85.7505Z" fill="#F7ABAB"/>
<path d="M35.0822 85.7505H32.1096V88.729H35.0822V85.7505Z" fill="#F8AFAF"/>
<path d="M32.1096 85.7505H29.137V88.729H32.1096V85.7505Z" fill="#F8AFAE"/>
<path d="M29.137 85.7505H26.1644V88.729H29.137V85.7505Z" fill="#F8AFB1"/>
<path d="M26.1644 85.7505H23.1918V88.729H26.1644V85.7505Z" fill="#F7ACAE"/>
<path d="M23.1917 85.7505H20.2191V88.729H23.1917V85.7505Z" fill="#F8AFAF"/>
<path d="M20.2191 85.7505H17.2465V88.729H20.2191V85.7505Z" fill="#F7ACAE"/>
<path d="M17.2465 85.7505H14.2739V88.729H17.2465V85.7505Z" fill="#F7ACAF"/>
<path d="M14.2739 85.7505H11.3013V88.729H14.2739V85.7505Z" fill="#0A0C0B"/>
<path d="M11.3013 85.7505H8.32867V88.729H11.3013V85.7505Z" fill="#F3B0AE"/>
<path d="M8.32869 85.7505H5.35608V88.729H8.32869V85.7505Z" fill="#070909"/>
<path d="M82.644 82.769H79.6714V85.7476H82.644V82.769Z" fill="#221010"/>
<path d="M79.6713 82.769H76.6987V85.7476H79.6713V82.769Z" fill="#F8AEB0"/>
<path d="M76.6987 82.769H73.7261V85.7476H76.6987V82.769Z" fill="#F8AEAD"/>
<path d="M73.7261 82.769H70.7535V85.7476H73.7261V82.769Z" fill="#1F0F12"/>
<path d="M70.7535 82.769H67.7809V85.7476H70.7535V82.769Z" fill="#F2ABA8"/>
<path d="M67.7809 82.769H64.8083V85.7476H67.7809V82.769Z" fill="#F8AFAD"/>
<path d="M64.8083 82.769H61.8357V85.7476H64.8083V82.769Z" fill="#F8AEAD"/>
<path d="M61.8357 82.769H58.8631V85.7476H61.8357V82.769Z" fill="#F8AEAD"/>
<path d="M58.8631 82.769H55.8904V85.7476H58.8631V82.769Z" fill="#F8AFAF"/>
<path d="M55.8905 82.769H52.9178V85.7476H55.8905V82.769Z" fill="#F8AFAF"/>
<path d="M52.9179 82.769H49.9453V85.7476H52.9179V82.769Z" fill="#F8AFAF"/>
<path d="M49.9453 82.769H46.9727V85.7476H49.9453V82.769Z" fill="#F8AFAF"/>
<path d="M46.9726 82.769H44V85.7476H46.9726V82.769Z" fill="#F8AFAF"/>
<path d="M44 82.769H41.0274V85.7476H44V82.769Z" fill="#F8AFAF"/>
<path d="M41.0274 82.769H38.0548V85.7476H41.0274V82.769Z" fill="#F8AFAF"/>
<path d="M38.0548 82.769H35.0822V85.7476H38.0548V82.769Z" fill="#F8AFAF"/>
<path d="M35.0822 82.769H32.1096V85.7476H35.0822V82.769Z" fill="#F8AFAF"/>
<path d="M32.1096 82.769H29.137V85.7476H32.1096V82.769Z" fill="#F8AFAF"/>
<path d="M29.137 82.769H26.1644V85.7476H29.137V82.769Z" fill="#F8AFAF"/>
<path d="M26.1644 82.769H23.1918V85.7476H26.1644V82.769Z" fill="#F8ADAF"/>
<path d="M23.1917 82.769H20.2191V85.7476H23.1917V82.769Z" fill="#F8AFAD"/>
<path d="M20.2191 82.769H17.2465V85.7476H20.2191V82.769Z" fill="#F7ACAF"/>
<path d="M17.2465 82.769H14.2739V85.7476H17.2465V82.769Z" fill="#0A0C0B"/>
<path d="M14.2739 82.769H11.3013V85.7476H14.2739V82.769Z" fill="#E3ACB0"/>
<path d="M11.3013 82.769H8.32867V85.7476H11.3013V82.769Z" fill="#F6B1B1"/>
<path d="M8.32869 82.769H5.35608V85.7476H8.32869V82.769Z" fill="#090A09"/>
<path d="M82.644 79.7905H79.6714V82.7691H82.644V79.7905Z" fill="#221011"/>
<path d="M79.6713 79.7905H76.6987V82.7691H79.6713V79.7905Z" fill="#F8AEAD"/>
<path d="M76.6987 79.7905H73.7261V82.7691H76.6987V79.7905Z" fill="#F8AEB0"/>
<path d="M73.7261 79.7905H70.7535V82.7691H73.7261V79.7905Z" fill="#F8AEB0"/>
<path d="M70.7535 79.7905H67.7809V82.7691H70.7535V79.7905Z" fill="#40231B"/>
<path d="M67.7809 79.7905H64.8083V82.7691H67.7809V79.7905Z" fill="#F4B1AF"/>
<path d="M64.8083 79.7905H61.8357V82.7691H64.8083V79.7905Z" fill="#F8AFAD"/>
<path d="M61.8357 79.7905H58.8631V82.7691H61.8357V79.7905Z" fill="#F8AEAD"/>
<path d="M58.8631 79.7905H55.8904V82.7691H58.8631V79.7905Z" fill="#F8AFAF"/>
<path d="M55.8905 79.7905H52.9178V82.7691H55.8905V79.7905Z" fill="#F8AFAF"/>
<path d="M52.9179 79.7905H49.9453V82.7691H52.9179V79.7905Z" fill="#F8AFAF"/>
<path d="M49.9453 79.7905H46.9727V82.7691H49.9453V79.7905Z" fill="#F8AFAF"/>
<path d="M46.9726 79.7905H44V82.7691H46.9726V79.7905Z" fill="#F8AFAF"/>
<path d="M44 79.7905H41.0274V82.7691H44V79.7905Z" fill="#F8AFAF"/>
<path d="M41.0274 79.7905H38.0548V82.7691H41.0274V79.7905Z" fill="#F8AFAF"/>
<path d="M38.0548 79.7905H35.0822V82.7691H38.0548V79.7905Z" fill="#F8AFAF"/>
<path d="M35.0822 79.7905H32.1096V82.7691H35.0822V79.7905Z" fill="#F8AFAF"/>
<path d="M32.1096 79.7905H29.137V82.7691H32.1096V79.7905Z" fill="#F8AFAF"/>
<path d="M29.137 79.7905H26.1644V82.7691H29.137V79.7905Z" fill="#F8AFAF"/>
<path d="M26.1644 79.7905H23.1918V82.7691H26.1644V79.7905Z" fill="#F8AFAF"/>
<path d="M23.1917 79.7905H20.2191V82.7691H23.1917V79.7905Z" fill="#F7ACAF"/>
<path d="M20.2191 79.7905H17.2465V82.7691H20.2191V79.7905Z" fill="#0A0C0B"/>
<path d="M17.2465 79.7905H14.2739V82.7691H17.2465V79.7905Z" fill="#F7ACAF"/>
<path d="M14.2739 79.7905H11.3013V82.7691H14.2739V79.7905Z" fill="#F7ACAE"/>
<path d="M11.3013 79.7905H8.32867V82.7691H11.3013V79.7905Z" fill="#F6B1B1"/>
<path d="M8.32869 79.7905H5.35608V82.7691H8.32869V79.7905Z" fill="#090B0A"/>
<path d="M82.644 76.812H79.6714V79.7905H82.644V76.812Z" fill="#221011"/>
<path d="M79.6713 76.812H76.6987V79.7905H79.6713V76.812Z" fill="#F8B0B1"/>
<path d="M76.6987 76.812H73.7261V79.7905H76.6987V76.812Z" fill="#F8AEB0"/>
<path d="M73.7261 76.812H70.7535V79.7905H73.7261V76.812Z" fill="#F3AFAE"/>
<path d="M70.7535 76.812H67.7809V79.7905H70.7535V76.812Z" fill="#0D0B0B"/>
<path d="M67.7809 76.812H64.8083V79.7905H67.7809V76.812Z" fill="#F8AEAD"/>
<path d="M64.8083 76.812H61.8357V79.7905H64.8083V76.812Z" fill="#F8B2B2"/>
<path d="M61.8357 76.812H58.8631V79.7905H61.8357V76.812Z" fill="#F8AEAD"/>
<path d="M58.8631 76.812H55.8904V79.7905H58.8631V76.812Z" fill="#F8AFAF"/>
<path d="M55.8905 76.812H52.9178V79.7905H55.8905V76.812Z" fill="#F8AFAF"/>
<path d="M52.9179 76.812H49.9453V79.7905H52.9179V76.812Z" fill="#F8AFAF"/>
<path d="M49.9453 76.812H46.9727V79.7905H49.9453V76.812Z" fill="#F8AEAD"/>
<path d="M46.9726 76.812H44V79.7905H46.9726V76.812Z" fill="#F8AEAD"/>
<path d="M44 76.812H41.0274V79.7905H44V76.812Z" fill="#F8AEAD"/>
<path d="M41.0274 76.812H38.0548V79.7905H41.0274V76.812Z" fill="#F8AEAD"/>
<path d="M38.0548 76.812H35.0822V79.7905H38.0548V76.812Z" fill="#F8AFB1"/>
<path d="M35.0822 76.812H32.1096V79.7905H35.0822V76.812Z" fill="#F8AFAF"/>
<path d="M32.1096 76.812H29.137V79.7905H32.1096V76.812Z" fill="#F8AFAF"/>
<path d="M29.137 76.812H26.1644V79.7905H29.137V76.812Z" fill="#F8AFAF"/>
<path d="M26.1644 76.812H23.1918V79.7905H26.1644V76.812Z" fill="#F2BDBC"/>
<path d="M23.1917 76.812H20.2191V79.7905H23.1917V76.812Z" fill="#0A0C0B"/>
<path d="M20.2191 76.812H17.2465V79.7905H20.2191V76.812Z" fill="#F7ACAF"/>
<path d="M17.2465 76.812H14.2739V79.7905H17.2465V76.812Z" fill="#F8AEAD"/>
<path d="M14.2739 76.812H11.3013V79.7905H14.2739V76.812Z" fill="#F7ACAF"/>
<path d="M11.3013 76.812H8.32867V79.7905H11.3013V76.812Z" fill="#F4B0AF"/>
<path d="M8.32869 76.812H5.35608V79.7905H8.32869V76.812Z" fill="#0A0C0B"/>
<path d="M82.644 73.8335H79.6714V76.812H82.644V73.8335Z" fill="#221012"/>
<path d="M79.6713 73.8335H76.6987V76.812H79.6713V73.8335Z" fill="#F8AEB0"/>
<path d="M76.6987 73.8335H73.7261V76.812H76.6987V73.8335Z" fill="#F8B3B0"/>
<path d="M73.7261 73.8335H70.7535V76.812H73.7261V73.8335Z" fill="#F8AFAD"/>
<path d="M70.7535 73.8335H67.7809V76.812H70.7535V73.8335Z" fill="#F8ADAF"/>
<path d="M67.7809 73.8335H64.8083V76.812H67.7809V73.8335Z" fill="#150D0E"/>
<path d="M64.8083 73.8335H61.8357V76.812H64.8083V73.8335Z" fill="#F8AEAD"/>
<path d="M61.8357 73.8335H58.8631V76.812H61.8357V73.8335Z" fill="#F9B6B4"/>
<path d="M58.8631 73.8335H55.8904V76.812H58.8631V73.8335Z" fill="#F7ACAF"/>
<path d="M55.8905 73.8335H52.9178V76.812H55.8905V73.8335Z" fill="#F8AFB1"/>
<path d="M52.9179 73.8335H49.9453V76.812H52.9179V73.8335Z" fill="#F8AFAF"/>
<path d="M49.9453 73.8335H46.9727V76.812H49.9453V73.8335Z" fill="#F8AEAD"/>
<path d="M46.9726 73.8335H44V76.812H46.9726V73.8335Z" fill="#F8AEAD"/>
<path d="M44 73.8335H41.0274V76.812H44V73.8335Z" fill="#F8AEAD"/>
<path d="M41.0274 73.8335H38.0548V76.812H41.0274V73.8335Z" fill="#F8AEAD"/>
<path d="M38.0548 73.8335H35.0822V76.812H38.0548V73.8335Z" fill="#F8AFAF"/>
<path d="M35.0822 73.8335H32.1096V76.812H35.0822V73.8335Z" fill="#F8AFAF"/>
<path d="M32.1096 73.8335H29.137V76.812H32.1096V73.8335Z" fill="#F8B2B2"/>
<path d="M29.137 73.8335H26.1644V76.812H29.137V73.8335Z" fill="#F3BCBC"/>
<path d="M26.1644 73.8335H23.1918V76.812H26.1644V73.8335Z" fill="#110C0C"/>
<path d="M23.1917 73.8335H20.2191V76.812H23.1917V73.8335Z" fill="#F9BCBC"/>
<path d="M20.2191 73.8335H17.2465V76.812H20.2191V73.8335Z" fill="#F8AEAD"/>
<path d="M17.2465 73.8335H14.2739V76.812H17.2465V73.8335Z" fill="#F8AEAD"/>
<path d="M14.2739 73.8335H11.3013V76.812H14.2739V73.8335Z" fill="#F7ACAF"/>
<path d="M11.3013 73.8335H8.32867V76.812H11.3013V73.8335Z" fill="#F4B0AF"/>
<path d="M8.32869 73.8335H5.35608V76.812H8.32869V73.8335Z" fill="#0A0C0B"/>
<path d="M82.644 70.855H79.6714V73.8335H82.644V70.855Z" fill="#221011"/>
<path d="M79.6713 70.855H76.6987V73.8335H79.6713V70.855Z" fill="#F7ABAB"/>
<path d="M76.6987 70.855H73.7261V73.8335H76.6987V70.855Z" fill="#F8AEB0"/>
<path d="M73.7261 70.855H70.7535V73.8335H73.7261V70.855Z" fill="#F8AEAC"/>
<path d="M70.7535 70.855H67.7809V73.8335H70.7535V70.855Z" fill="#F8AFAD"/>
<path d="M67.7809 70.855H64.8083V73.8335H67.7809V70.855Z" fill="#F8ADB3"/>
<path d="M64.8083 70.855H61.8357V73.8335H64.8083V70.855Z" fill="#221211"/>
<path d="M61.8357 70.855H58.8631V73.8335H61.8357V70.855Z" fill="#F8AEAD"/>
<path d="M58.8631 70.855H55.8904V73.8335H58.8631V70.855Z" fill="#F8AFAF"/>
<path d="M55.8905 70.855H52.9178V73.8335H55.8905V70.855Z" fill="#F8AFAF"/>
<path d="M52.9179 70.855H49.9453V73.8335H52.9179V70.855Z" fill="#F8AFAF"/>
<path d="M49.9453 70.855H46.9727V73.8335H49.9453V70.855Z" fill="#F8AEAD"/>
<path d="M46.9726 70.855H44V73.8335H46.9726V70.855Z" fill="#F8AEAD"/>
<path d="M44 70.855H41.0274V73.8335H44V70.855Z" fill="#F8AEAD"/>
<path d="M41.0274 70.855H38.0548V73.8335H41.0274V70.855Z" fill="#F8AEAD"/>
<path d="M38.0548 70.855H35.0822V73.8335H38.0548V70.855Z" fill="#F8AFAD"/>
<path d="M35.0822 70.855H32.1096V73.8335H35.0822V70.855Z" fill="#F8AEAD"/>
<path d="M32.1096 70.855H29.137V73.8335H32.1096V70.855Z" fill="#F8B2B4"/>
<path d="M29.137 70.855H26.1644V73.8335H29.137V70.855Z" fill="#0D0C0B"/>
<path d="M26.1644 70.855H23.1918V73.8335H26.1644V70.855Z" fill="#F7B7B7"/>
<path d="M23.1917 70.855H20.2191V73.8335H23.1917V70.855Z" fill="#F8AEAD"/>
<path d="M20.2191 70.855H17.2465V73.8335H20.2191V70.855Z" fill="#F8AEAD"/>
<path d="M17.2465 70.855H14.2739V73.8335H17.2465V70.855Z" fill="#F8AEAD"/>
<path d="M14.2739 70.855H11.3013V73.8335H14.2739V70.855Z" fill="#F7ACAF"/>
<path d="M11.3013 70.855H8.32867V73.8335H11.3013V70.855Z" fill="#F4B0AF"/>
<path d="M8.32869 70.855H5.35608V73.8335H8.32869V70.855Z" fill="#0A0C0B"/>
<path d="M82.644 67.8735H79.6714V70.8521H82.644V67.8735Z" fill="#221012"/>
<path d="M79.6713 67.8735H76.6987V70.8521H79.6713V67.8735Z" fill="#F8AEB0"/>
<path d="M76.6987 67.8735H73.7261V70.8521H76.6987V67.8735Z" fill="#F8AEAC"/>
<path d="M73.7261 67.8735H70.7535V70.8521H73.7261V67.8735Z" fill="#F7ACAE"/>
<path d="M70.7535 67.8735H67.7809V70.8521H70.7535V67.8735Z" fill="#F8AEB0"/>
<path d="M67.7809 67.8735H64.8083V70.8521H67.7809V67.8735Z" fill="#F8AEAD"/>
<path d="M64.8083 67.8735H61.8357V70.8521H64.8083V67.8735Z" fill="#F6AFAD"/>
<path d="M61.8357 67.8735H58.8631V70.8521H61.8357V67.8735Z" fill="#090808"/>
<path d="M58.8631 67.8735H55.8904V70.8521H58.8631V67.8735Z" fill="#120C0D"/>
<path d="M55.8905 67.8735H52.9178V70.8521H55.8905V67.8735Z" fill="#F8AEAB"/>
<path d="M52.9179 67.8735H49.9453V70.8521H52.9179V67.8735Z" fill="#F8AEAC"/>
<path d="M49.9453 67.8735H46.9727V70.8521H49.9453V67.8735Z" fill="#F8AFAD"/>
<path d="M46.9726 67.8735H44V70.8521H46.9726V67.8735Z" fill="#F8AEAD"/>
<path d="M44 67.8735H41.0274V70.8521H44V67.8735Z" fill="#F7ACAE"/>
<path d="M41.0274 67.8735H38.0548V70.8521H41.0274V67.8735Z" fill="#F8AEAC"/>
<path d="M38.0548 67.8735H35.0822V70.8521H38.0548V67.8735Z" fill="#F8AEAC"/>
<path d="M35.0822 67.8735H32.1096V70.8521H35.0822V67.8735Z" fill="#F5B9B7"/>
<path d="M32.1096 67.8735H29.137V70.8521H32.1096V67.8735Z" fill="#070909"/>
<path d="M29.137 67.8735H26.1644V70.8521H29.137V67.8735Z" fill="#F8AEB0"/>
<path d="M26.1644 67.8735H23.1918V70.8521H26.1644V67.8735Z" fill="#F8AFAF"/>
<path d="M23.1917 67.8735H20.2191V70.8521H23.1917V67.8735Z" fill="#F8AEAD"/>
<path d="M20.2191 67.8735H17.2465V70.8521H20.2191V67.8735Z" fill="#F8AFAD"/>
<path d="M17.2465 67.8735H14.2739V70.8521H17.2465V67.8735Z" fill="#F8AEAD"/>
<path d="M14.2739 67.8735H11.3013V70.8521H14.2739V67.8735Z" fill="#F7ACAF"/>
<path d="M11.3013 67.8735H8.32867V70.8521H11.3013V67.8735Z" fill="#F4B0AF"/>
<path d="M8.32869 67.8735H5.35608V70.8521H8.32869V67.8735Z" fill="#0A0C0B"/>
<path d="M82.644 64.895H79.6714V67.8735H82.644V64.895Z" fill="#201012"/>
<path d="M79.6713 64.895H76.6987V67.8735H79.6713V64.895Z" fill="#F8AFAF"/>
<path d="M76.6987 64.895H73.7261V67.8735H76.6987V64.895Z" fill="#F8AEB0"/>
<path d="M73.7261 64.895H70.7535V67.8735H73.7261V64.895Z" fill="#F7ACAE"/>
<path d="M70.7535 64.895H67.7809V67.8735H70.7535V64.895Z" fill="#F8AEB0"/>
<path d="M67.7809 64.895H64.8083V67.8735H67.7809V64.895Z" fill="#F8AEB0"/>
<path d="M64.8083 64.895H61.8357V67.8735H64.8083V64.895Z" fill="#F8AFAD"/>
<path d="M61.8357 64.895H58.8631V67.8735H61.8357V64.895Z" fill="#F6AFAD"/>
<path d="M58.8631 64.895H55.8904V67.8735H58.8631V64.895Z" fill="#F9C2C3"/>
<path d="M55.8905 64.895H52.9178V67.8735H55.8905V64.895Z" fill="#070909"/>
<path d="M52.9179 64.895H49.9453V67.8735H52.9179V64.895Z" fill="#090808"/>
<path d="M49.9453 64.895H46.9727V67.8735H49.9453V64.895Z" fill="#F8AEAD"/>
<path d="M46.9726 64.895H44V67.8735H46.9726V64.895Z" fill="#F8AEAD"/>
<path d="M44 64.895H41.0274V67.8735H44V64.895Z" fill="#F8AEAC"/>
<path d="M41.0274 64.895H38.0548V67.8735H41.0274V64.895Z" fill="#F8AEAD"/>
<path d="M38.0548 64.895H35.0822V67.8735H38.0548V64.895Z" fill="#070808"/>
<path d="M35.0822 64.895H32.1096V67.8735H35.0822V64.895Z" fill="#0D090A"/>
<path d="M32.1096 64.895H29.137V67.8735H32.1096V64.895Z" fill="#F8B2B3"/>
<path d="M29.137 64.895H26.1644V67.8735H29.137V64.895Z" fill="#F8AEAD"/>
<path d="M26.1644 64.895H23.1918V67.8735H26.1644V64.895Z" fill="#F8AEAD"/>
<path d="M23.1917 64.895H20.2191V67.8735H23.1917V64.895Z" fill="#F8AEAD"/>
<path d="M20.2191 64.895H17.2465V67.8735H20.2191V64.895Z" fill="#F8AFAD"/>
<path d="M17.2465 64.895H14.2739V67.8735H17.2465V64.895Z" fill="#F8AEAD"/>
<path d="M14.2739 64.895H11.3013V67.8735H14.2739V64.895Z" fill="#F7ACAF"/>
<path d="M11.3013 64.895H8.32867V67.8735H11.3013V64.895Z" fill="#F4B0AF"/>
<path d="M8.32869 64.895H5.35608V67.8735H8.32869V64.895Z" fill="#0A0C0B"/>
<path d="M82.644 61.9165H79.6714V64.895H82.644V61.9165Z" fill="#221012"/>
<path d="M79.6713 61.9165H76.6987V64.895H79.6713V61.9165Z" fill="#F8AEB0"/>
<path d="M76.6987 61.9165H73.7261V64.895H76.6987V61.9165Z" fill="#F8B1B2"/>
<path d="M73.7261 61.9165H70.7535V64.895H73.7261V61.9165Z" fill="#F8AEAD"/>
<path d="M70.7535 61.9165H67.7809V64.895H70.7535V61.9165Z" fill="#F8AEAD"/>
<path d="M67.7809 61.9165H64.8083V64.895H67.7809V61.9165Z" fill="#F8AEAD"/>
<path d="M64.8083 61.9165H61.8357V64.895H64.8083V61.9165Z" fill="#F7ACAF"/>
<path d="M61.8357 61.9165H58.8631V64.895H61.8357V61.9165Z" fill="#F2BCB9"/>
<path d="M58.8631 61.9165H55.8904V64.895H58.8631V61.9165Z" fill="#0A0909"/>
<path d="M55.8905 61.9165H52.9178V64.895H55.8905V61.9165Z" fill="white"/>
<path d="M52.9179 61.9165H49.9453V64.895H52.9179V61.9165Z" fill="white"/>
<path d="M49.9453 61.9165H46.9727V64.895H49.9453V61.9165Z" fill="#0E0A0A"/>
<path d="M46.9726 61.9165H44V64.895H46.9726V61.9165Z" fill="#0E0A0A"/>
<path d="M44 61.9165H41.0274V64.895H44V61.9165Z" fill="#100B0C"/>
<path d="M41.0274 61.9165H38.0548V64.895H41.0274V61.9165Z" fill="#0A0809"/>
<path d="M38.0548 61.9165H35.0822V64.895H38.0548V61.9165Z" fill="white"/>
<path d="M35.0822 61.9165H32.1096V64.895H35.0822V61.9165Z" fill="white"/>
<path d="M32.1096 61.9165H29.137V64.895H32.1096V61.9165Z" fill="#080A09"/>
<path d="M29.137 61.9165H26.1644V64.895H29.137V61.9165Z" fill="#F8AEAC"/>
<path d="M26.1644 61.9165H23.1918V64.895H26.1644V61.9165Z" fill="#F4B1AB"/>
<path d="M23.1917 61.9165H20.2191V64.895H23.1917V61.9165Z" fill="#F7ACAE"/>
<path d="M20.2191 61.9165H17.2465V64.895H20.2191V61.9165Z" fill="#F7ACAE"/>
<path d="M17.2465 61.9165H14.2739V64.895H17.2465V61.9165Z" fill="#F8AEAD"/>
<path d="M14.2739 61.9165H11.3013V64.895H14.2739V61.9165Z" fill="#F7ACAF"/>
<path d="M11.3013 61.9165H8.32867V64.895H11.3013V61.9165Z" fill="#F4B0AF"/>
<path d="M8.32869 61.9165H5.35608V64.895H8.32869V61.9165Z" fill="#0A0C0B"/>
<path d="M82.644 58.938H79.6714V61.9165H82.644V58.938Z" fill="#201012"/>
<path d="M79.6713 58.938H76.6987V61.9165H79.6713V58.938Z" fill="#F8AEAD"/>
<path d="M76.6987 58.938H73.7261V61.9165H76.6987V58.938Z" fill="#F8AEB0"/>
<path d="M73.7261 58.938H70.7535V61.9165H73.7261V58.938Z" fill="#F8AEAD"/>
<path d="M70.7535 58.938H67.7809V61.9165H70.7535V58.938Z" fill="#F8AEAD"/>
<path d="M67.7809 58.938H64.8083V61.9165H67.7809V58.938Z" fill="#F8ACAC"/>
<path d="M64.8083 58.938H61.8357V61.9165H64.8083V58.938Z" fill="#F2BCB9"/>
<path d="M61.8357 58.938H58.8631V61.9165H61.8357V58.938Z" fill="#0E0A0A"/>
<path d="M58.8631 58.938H55.8904V61.9165H58.8631V58.938Z" fill="#FFFCF9"/>
<path d="M55.8905 58.938H52.9178V61.9165H55.8905V58.938Z" fill="#FDFEFF"/>
<path d="M52.9179 58.938H49.9453V61.9165H52.9179V58.938Z" fill="#FDFEFF"/>
<path d="M49.9453 58.938H46.9727V61.9165H49.9453V58.938Z" fill="white"/>
<path d="M46.9726 58.938H44V61.9165H46.9726V58.938Z" fill="white"/>
<path d="M44 58.938H41.0274V61.9165H44V58.938Z" fill="white"/>
<path d="M41.0274 58.938H38.0548V61.9165H41.0274V58.938Z" fill="white"/>
<path d="M38.0548 58.938H35.0822V61.9165H38.0548V58.938Z" fill="white"/>
<path d="M35.0822 58.938H32.1096V61.9165H35.0822V58.938Z" fill="white"/>
<path d="M32.1096 58.938H29.137V61.9165H32.1096V58.938Z" fill="white"/>
<path d="M29.137 58.938H26.1644V61.9165H29.137V58.938Z" fill="#080A09"/>
<path d="M26.1644 58.938H23.1918V61.9165H26.1644V58.938Z" fill="#F2B3B2"/>
<path d="M23.1917 58.938H20.2191V61.9165H23.1917V58.938Z" fill="#F7ACAE"/>
<path d="M20.2191 58.938H17.2465V61.9165H20.2191V58.938Z" fill="#F7ACAE"/>
<path d="M17.2465 58.938H14.2739V61.9165H17.2465V58.938Z" fill="#F8AEAD"/>
<path d="M14.2739 58.938H11.3013V61.9165H14.2739V58.938Z" fill="#F7ACAF"/>
<path d="M11.3013 58.938H8.32867V61.9165H11.3013V58.938Z" fill="#F4B0AF"/>
<path d="M8.32869 58.938H5.35608V61.9165H8.32869V58.938Z" fill="#0A0C0B"/>
<path d="M82.644 55.9595H79.6714V58.938H82.644V55.9595Z" fill="#221012"/>
<path d="M79.6713 55.9595H76.6987V58.938H79.6713V55.9595Z" fill="#F8AEAD"/>
<path d="M76.6987 55.9595H73.7261V58.938H76.6987V55.9595Z" fill="#F8AEB0"/>
<path d="M73.7261 55.9595H70.7535V58.938H73.7261V55.9595Z" fill="#F8ADAB"/>
<path d="M70.7535 55.9595H67.7809V58.938H70.7535V55.9595Z" fill="#F7ACAF"/>
<path d="M67.7809 55.9595H64.8083V58.938H67.7809V55.9595Z" fill="#F2BCB9"/>
<path d="M64.8083 55.9595H61.8357V58.938H64.8083V55.9595Z" fill="#0E0A0A"/>
<path d="M61.8357 55.9595H58.8631V58.938H61.8357V55.9595Z" fill="#FFFCF9"/>
<path d="M58.8631 55.9595H55.8904V58.938H58.8631V55.9595Z" fill="white"/>
<path d="M55.8905 55.9595H52.9178V58.938H55.8905V55.9595Z" fill="white"/>
<path d="M52.9179 55.9595H49.9453V58.938H52.9179V55.9595Z" fill="white"/>
<path d="M49.9453 55.9595H46.9727V58.938H49.9453V55.9595Z" fill="white"/>
<path d="M46.9726 55.9595H44V58.938H46.9726V55.9595Z" fill="white"/>
<path d="M44 55.9595H41.0274V58.938H44V55.9595Z" fill="white"/>
<path d="M41.0274 55.9595H38.0548V58.938H41.0274V55.9595Z" fill="white"/>
<path d="M38.0548 55.9595H35.0822V58.938H38.0548V55.9595Z" fill="white"/>
<path d="M35.0822 55.9595H32.1096V58.938H35.0822V55.9595Z" fill="white"/>
<path d="M32.1096 55.9595H29.137V58.938H32.1096V55.9595Z" fill="white"/>
<path d="M29.137 55.9595H26.1644V58.938H29.137V55.9595Z" fill="white"/>
<path d="M26.1644 55.9595H23.1918V58.938H26.1644V55.9595Z" fill="#080A09"/>
<path d="M23.1917 55.9595H20.2191V58.938H23.1917V55.9595Z" fill="#F6B4B3"/>
<path d="M20.2191 55.9595H17.2465V58.938H20.2191V55.9595Z" fill="#F8AFB1"/>
<path d="M17.2465 55.9595H14.2739V58.938H17.2465V55.9595Z" fill="#F8AFAF"/>
<path d="M14.2739 55.9595H11.3013V58.938H14.2739V55.9595Z" fill="#F7ACAF"/>
<path d="M11.3013 55.9595H8.32867V58.938H11.3013V55.9595Z" fill="#F4B0AF"/>
<path d="M8.32869 55.9595H5.35608V58.938H8.32869V55.9595Z" fill="#090A09"/>
<path d="M82.644 52.9785H79.6714V55.957H82.644V52.9785Z" fill="#221012"/>
<path d="M79.6713 52.9785H76.6987V55.957H79.6713V52.9785Z" fill="#F8AEB0"/>
<path d="M76.6987 52.9785H73.7261V55.957H76.6987V52.9785Z" fill="#F8B1AE"/>
<path d="M73.7261 52.9785H70.7535V55.957H73.7261V52.9785Z" fill="#F8AEAC"/>
<path d="M70.7535 52.9785H67.7809V55.957H70.7535V52.9785Z" fill="#F2BCB9"/>
<path d="M67.7809 52.9785H64.8083V55.957H67.7809V52.9785Z" fill="#0B080A"/>
<path d="M64.8083 52.9785H61.8357V55.957H64.8083V52.9785Z" fill="#FFFCF9"/>
<path d="M61.8357 52.9785H58.8631V55.957H61.8357V52.9785Z" fill="white"/>
<path d="M58.8631 52.9785H55.8904V55.957H58.8631V52.9785Z" fill="white"/>
<path d="M55.8905 52.9785H52.9178V55.957H55.8905V52.9785Z" fill="white"/>
<path d="M52.9179 52.9785H49.9453V55.957H52.9179V52.9785Z" fill="white"/>
<path d="M49.9453 52.9785H46.9727V55.957H49.9453V52.9785Z" fill="white"/>
<path d="M46.9726 52.9785H44V55.957H46.9726V52.9785Z" fill="#FEF6F7"/>
<path d="M44 52.9785H41.0274V55.957H44V52.9785Z" fill="#FFFDFE"/>
<path d="M41.0274 52.9785H38.0548V55.957H41.0274V52.9785Z" fill="white"/>
<path d="M38.0548 52.9785H35.0822V55.957H38.0548V52.9785Z" fill="white"/>
<path d="M35.0822 52.9785H32.1096V55.957H35.0822V52.9785Z" fill="white"/>
<path d="M32.1096 52.9785H29.137V55.957H32.1096V52.9785Z" fill="white"/>
<path d="M29.137 52.9785H26.1644V55.957H29.137V52.9785Z" fill="#F9FCFE"/>
<path d="M26.1644 52.9785H23.1918V55.957H26.1644V52.9785Z" fill="white"/>
<path d="M23.1917 52.9785H20.2191V55.957H23.1917V52.9785Z" fill="#080A09"/>
<path d="M20.2191 52.9785H17.2465V55.957H20.2191V52.9785Z" fill="#F3B3B3"/>
<path d="M17.2465 52.9785H14.2739V55.957H17.2465V52.9785Z" fill="#F8AFAF"/>
<path d="M14.2739 52.9785H11.3013V55.957H14.2739V52.9785Z" fill="#F8AEB0"/>
<path d="M11.3013 52.9785H8.32867V55.957H11.3013V52.9785Z" fill="#F4B0AF"/>
<path d="M8.32869 52.9785H5.35608V55.957H8.32869V52.9785Z" fill="#090B0A"/>
<path d="M82.644 50H79.6714V52.9785H82.644V50Z" fill="#221011"/>
<path d="M79.6713 50H76.6987V52.9785H79.6713V50Z" fill="#F8AEAF"/>
<path d="M76.6987 50H73.7261V52.9785H76.6987V50Z" fill="#F8AEB0"/>
<path d="M73.7261 50H70.7535V52.9785H73.7261V50Z" fill="#F1B2AD"/>
<path d="M70.7535 50H67.7809V52.9785H70.7535V50Z" fill="#080A0A"/>
<path d="M67.7809 50H64.8083V52.9785H67.7809V50Z" fill="#FBFDFE"/>
<path d="M64.8083 50H61.8357V52.9785H64.8083V50Z" fill="white"/>
<path d="M61.8357 50H58.8631V52.9785H61.8357V50Z" fill="white"/>
<path d="M58.8631 50H55.8904V52.9785H58.8631V50Z" fill="white"/>
<path d="M55.8905 50H52.9178V52.9785H55.8905V50Z" fill="#FFFCF9"/>
<path d="M52.9179 50H49.9453V52.9785H52.9179V50Z" fill="#FDFEFF"/>
<path d="M49.9453 50H46.9727V52.9785H49.9453V50Z" fill="white"/>
<path d="M46.9726 50H44V52.9785H46.9726V50Z" fill="#EE454A"/>
<path d="M44 50H41.0274V52.9785H44V50Z" fill="#FFFBF6"/>
<path d="M41.0274 50H38.0548V52.9785H41.0274V50Z" fill="#FFFBFD"/>
<path d="M38.0548 50H35.0822V52.9785H38.0548V50Z" fill="white"/>
<path d="M35.0822 50H32.1096V52.9785H35.0822V50Z" fill="white"/>
<path d="M32.1096 50H29.137V52.9785H32.1096V50Z" fill="white"/>
<path d="M29.137 50H26.1644V52.9785H29.137V50Z" fill="white"/>
<path d="M26.1644 50H23.1918V52.9785H26.1644V50Z" fill="white"/>
<path d="M23.1917 50H20.2191V52.9785H23.1917V50Z" fill="white"/>
<path d="M20.2191 50H17.2465V52.9785H20.2191V50Z" fill="#080A09"/>
<path d="M17.2465 50H14.2739V52.9785H17.2465V50Z" fill="#F8AFAD"/>
<path d="M14.2739 50H11.3013V52.9785H14.2739V50Z" fill="#F8ADAB"/>
<path d="M11.3013 50H8.32867V52.9785H11.3013V50Z" fill="#F4B1AF"/>
<path d="M8.32869 50H5.35608V52.9785H8.32869V50Z" fill="#090B0A"/>
<path d="M82.644 47.0215H79.6714V50H82.644V47.0215Z" fill="#221012"/>
<path d="M79.6713 47.0215H76.6987V50H79.6713V47.0215Z" fill="#F8AEB0"/>
<path d="M76.6987 47.0215H73.7261V50H76.6987V47.0215Z" fill="#F6B1B1"/>
<path d="M73.7261 47.0215H70.7535V50H73.7261V47.0215Z" fill="#09090A"/>
<path d="M70.7535 47.0215H67.7809V50H70.7535V47.0215Z" fill="#F8F9F9"/>
<path d="M67.7809 47.0215H64.8083V50H67.7809V47.0215Z" fill="#FEFDFE"/>
<path d="M64.8083 47.0215H61.8357V50H64.8083V47.0215Z" fill="white"/>
<path d="M61.8357 47.0215H58.8631V50H61.8357V47.0215Z" fill="white"/>
<path d="M58.8631 47.0215H55.8904V50H58.8631V47.0215Z" fill="white"/>
<path d="M55.8905 47.0215H52.9178V50H55.8905V47.0215Z" fill="#FDFEFC"/>
<path d="M52.9179 47.0215H49.9453V50H52.9179V47.0215Z" fill="#F7FBF9"/>
<path d="M49.9453 47.0215H46.9727V50H49.9453V47.0215Z" fill="#EF4946"/>
<path d="M46.9726 47.0215H44V50H46.9726V47.0215Z" fill="#F26E6A"/>
<path d="M44 47.0215H41.0274V50H44V47.0215Z" fill="#E94543"/>
<path d="M41.0274 47.0215H38.0548V50H41.0274V47.0215Z" fill="white"/>
<path d="M38.0548 47.0215H35.0822V50H38.0548V47.0215Z" fill="#FEFFFF"/>
<path d="M35.0822 47.0215H32.1096V50H35.0822V47.0215Z" fill="#FDFEFF"/>
<path d="M32.1096 47.0215H29.137V50H32.1096V47.0215Z" fill="white"/>
<path d="M29.137 47.0215H26.1644V50H29.137V47.0215Z" fill="white"/>
<path d="M26.1644 47.0215H23.1918V50H26.1644V47.0215Z" fill="white"/>
<path d="M23.1917 47.0215H20.2191V50H23.1917V47.0215Z" fill="white"/>
<path d="M20.2191 47.0215H17.2465V50H20.2191V47.0215Z" fill="white"/>
<path d="M17.2465 47.0215H14.2739V50H17.2465V47.0215Z" fill="#080A09"/>
<path d="M14.2739 47.0215H11.3013V50H14.2739V47.0215Z" fill="#F8AFB0"/>
<path d="M11.3013 47.0215H8.32867V50H11.3013V47.0215Z" fill="#F5B2B1"/>
<path d="M8.32869 47.0215H5.35608V50H8.32869V47.0215Z" fill="#090B0A"/>
<path d="M82.644 44.043H79.6714V47.0215H82.644V44.043Z" fill="#201012"/>
<path d="M79.6713 44.043H76.6987V47.0215H79.6713V44.043Z" fill="#EAB9B7"/>
<path d="M76.6987 44.043H73.7261V47.0215H76.6987V44.043Z" fill="#070808"/>
<path d="M73.7261 44.043H70.7535V47.0215H73.7261V44.043Z" fill="#090909"/>
<path d="M70.7535 44.043H67.7809V47.0215H70.7535V44.043Z" fill="#F8F9F8"/>
<path d="M67.7809 44.043H64.8083V47.0215H67.7809V44.043Z" fill="white"/>
<path d="M64.8083 44.043H61.8357V47.0215H64.8083V44.043Z" fill="white"/>
<path d="M61.8357 44.043H58.8631V47.0215H61.8357V44.043Z" fill="white"/>
<path d="M58.8631 44.043H55.8904V47.0215H58.8631V44.043Z" fill="white"/>
<path d="M55.8905 44.043H52.9178V47.0215H55.8905V44.043Z" fill="#FFF9F3"/>
<path d="M52.9179 44.043H49.9453V47.0215H52.9179V44.043Z" fill="#EF4848"/>
<path d="M49.9453 44.043H46.9727V47.0215H49.9453V44.043Z" fill="#F26C6A"/>
<path d="M46.9726 44.043H44V47.0215H46.9726V44.043Z" fill="#F26D6E"/>
<path d="M44 44.043H41.0274V47.0215H44V44.043Z" fill="#F26E6E"/>
<path d="M41.0274 44.043H38.0548V47.0215H41.0274V44.043Z" fill="#F05659"/>
<path d="M38.0548 44.043H35.0822V47.0215H38.0548V44.043Z" fill="white"/>
<path d="M35.0822 44.043H32.1096V47.0215H35.0822V44.043Z" fill="#FDFEFF"/>
<path d="M32.1096 44.043H29.137V47.0215H32.1096V44.043Z" fill="white"/>
<path d="M29.137 44.043H26.1644V47.0215H29.137V44.043Z" fill="white"/>
<path d="M26.1644 44.043H23.1918V47.0215H26.1644V44.043Z" fill="white"/>
<path d="M23.1917 44.043H20.2191V47.0215H23.1917V44.043Z" fill="white"/>
<path d="M20.2191 44.043H17.2465V47.0215H20.2191V44.043Z" fill="white"/>
<path d="M17.2465 44.043H14.2739V47.0215H17.2465V44.043Z" fill="#070909"/>
<path d="M14.2739 44.043H11.3013V47.0215H14.2739V44.043Z" fill="#080A09"/>
<path d="M11.3013 44.043H8.32867V47.0215H11.3013V44.043Z" fill="#F4B1AF"/>
<path d="M8.32869 44.043H5.35608V47.0215H8.32869V44.043Z" fill="#090A09"/>
<path d="M82.644 41.0645H79.6714V44.043H82.644V41.0645Z" fill="#0A0809"/>
<path d="M79.6713 41.0645H76.6987V44.043H79.6713V41.0645Z" fill="#1D0F10"/>
<path d="M76.6987 41.0645H73.7261V44.043H76.6987V41.0645Z" fill="#CB7F7B"/>
<path d="M73.7261 41.0645H70.7535V44.043H73.7261V41.0645Z" fill="#090A0A"/>
<path d="M70.7535 41.0645H67.7809V44.043H70.7535V41.0645Z" fill="#F8F9F9"/>
<path d="M67.7809 41.0645H64.8083V44.043H67.7809V41.0645Z" fill="white"/>
<path d="M64.8083 41.0645H61.8357V44.043H64.8083V41.0645Z" fill="white"/>
<path d="M61.8357 41.0645H58.8631V44.043H61.8357V41.0645Z" fill="white"/>
<path d="M58.8631 41.0645H55.8904V44.043H58.8631V41.0645Z" fill="#FEF5F5"/>
<path d="M55.8905 41.0645H52.9178V44.043H55.8905V41.0645Z" fill="#EF4848"/>
<path d="M52.9179 41.0645H49.9453V44.043H52.9179V41.0645Z" fill="#F1686C"/>
<path d="M49.9453 41.0645H46.9727V44.043H49.9453V41.0645Z" fill="#F16B6F"/>
<path d="M46.9726 41.0645H44V44.043H46.9726V41.0645Z" fill="#F26C6F"/>
<path d="M44 41.0645H41.0274V44.043H44V41.0645Z" fill="#F26C6F"/>
<path d="M41.0274 41.0645H38.0548V44.043H41.0274V41.0645Z" fill="#F26D6C"/>
<path d="M38.0548 41.0645H35.0822V44.043H38.0548V41.0645Z" fill="#EF4946"/>
<path d="M35.0822 41.0645H32.1096V44.043H35.0822V41.0645Z" fill="white"/>
<path d="M32.1096 41.0645H29.137V44.043H32.1096V41.0645Z" fill="white"/>
<path d="M29.137 41.0645H26.1644V44.043H29.137V41.0645Z" fill="white"/>
<path d="M26.1644 41.0645H23.1918V44.043H26.1644V41.0645Z" fill="white"/>
<path d="M23.1917 41.0645H20.2191V44.043H23.1917V41.0645Z" fill="white"/>
<path d="M20.2191 41.0645H17.2465V44.043H20.2191V41.0645Z" fill="white"/>
<path d="M17.2465 41.0645H14.2739V44.043H17.2465V41.0645Z" fill="#311816"/>
<path d="M14.2739 41.0645H11.3013V44.043H14.2739V41.0645Z" fill="#C37B76"/>
<path d="M11.3013 41.0645H8.32867V44.043H11.3013V41.0645Z" fill="#0D090A"/>
<path d="M8.32869 41.0645H5.35608V44.043H8.32869V41.0645Z" fill="#070909"/>
<path d="M82.644 38.083H79.6714V41.0615H82.644V38.083Z" fill="#1E1011"/>
<path d="M79.6713 38.083H76.6987V41.0615H79.6713V38.083Z" fill="#BE7577"/>
<path d="M76.6987 38.083H73.7261V41.0615H76.6987V38.083Z" fill="#C26D69"/>
<path d="M73.7261 38.083H70.7535V41.0615H73.7261V38.083Z" fill="#090A0A"/>
<path d="M70.7535 38.083H67.7809V41.0615H70.7535V38.083Z" fill="#F8F9F9"/>
<path d="M67.7809 38.083H64.8083V41.0615H67.7809V38.083Z" fill="white"/>
<path d="M64.8083 38.083H61.8357V41.0615H64.8083V38.083Z" fill="white"/>
<path d="M61.8357 38.083H58.8631V41.0615H61.8357V38.083Z" fill="white"/>
<path d="M58.8631 38.083H55.8904V41.0615H58.8631V38.083Z" fill="#EF4946"/>
<path d="M55.8905 38.083H52.9178V41.0615H55.8905V38.083Z" fill="#F26C6F"/>
<path d="M52.9179 38.083H49.9453V41.0615H52.9179V38.083Z" fill="#F26D6C"/>
<path d="M49.9453 38.083H46.9727V41.0615H49.9453V38.083Z" fill="#F16B71"/>
<path d="M46.9726 38.083H44V41.0615H46.9726V38.083Z" fill="#F26D6C"/>
<path d="M44 38.083H41.0274V41.0615H44V38.083Z" fill="#F26C6F"/>
<path d="M41.0274 38.083H38.0548V41.0615H41.0274V38.083Z" fill="#F26F6D"/>
<path d="M38.0548 38.083H35.0822V41.0615H38.0548V38.083Z" fill="#F16062"/>
<path d="M35.0822 38.083H32.1096V41.0615H35.0822V38.083Z" fill="#EF4946"/>
<path d="M32.1096 38.083H29.137V41.0615H32.1096V38.083Z" fill="white"/>
<path d="M29.137 38.083H26.1644V41.0615H29.137V38.083Z" fill="#FEFFFF"/>
<path d="M26.1644 38.083H23.1918V41.0615H26.1644V38.083Z" fill="white"/>
<path d="M23.1917 38.083H20.2191V41.0615H23.1917V38.083Z" fill="white"/>
<path d="M20.2191 38.083H17.2465V41.0615H20.2191V38.083Z" fill="white"/>
<path d="M17.2465 38.083H14.2739V41.0615H17.2465V38.083Z" fill="#311715"/>
<path d="M14.2739 38.083H11.3013V41.0615H14.2739V38.083Z" fill="#C96B6D"/>
<path d="M11.3013 38.083H8.32867V41.0615H11.3013V38.083Z" fill="#BA7B83"/>
<path d="M8.32869 38.083H5.35608V41.0615H8.32869V38.083Z" fill="#060809"/>
<path d="M79.6713 35.1045H76.6987V38.083H79.6713V35.1045Z" fill="#230E10"/>
<path d="M76.6987 35.1045H73.7261V38.083H76.6987V35.1045Z" fill="#C26E6B"/>
<path d="M73.7261 35.1045H70.7535V38.083H73.7261V35.1045Z" fill="#090A0B"/>
<path d="M70.7535 35.1045H67.7809V38.083H70.7535V35.1045Z" fill="#F8F9F9"/>
<path d="M67.7809 35.1045H64.8083V38.083H67.7809V35.1045Z" fill="white"/>
<path d="M64.8083 35.1045H61.8357V38.083H64.8083V35.1045Z" fill="white"/>
<path d="M61.8357 35.1045H58.8631V38.083H61.8357V35.1045Z" fill="white"/>
<path d="M58.8631 35.1045H55.8904V38.083H58.8631V35.1045Z" fill="#EF4946"/>
<path d="M55.8905 35.1045H52.9178V38.083H55.8905V35.1045Z" fill="#F26C6F"/>
<path d="M52.9179 35.1045H49.9453V38.083H52.9179V35.1045Z" fill="#F26D6C"/>
<path d="M49.9453 35.1045H46.9727V38.083H49.9453V35.1045Z" fill="#F26E71"/>
<path d="M46.9726 35.1045H44V38.083H46.9726V35.1045Z" fill="#F26C6F"/>
<path d="M44 35.1045H41.0274V38.083H44V35.1045Z" fill="#F26C6C"/>
<path d="M41.0274 35.1045H38.0548V38.083H41.0274V35.1045Z" fill="#F26E6D"/>
<path d="M38.0548 35.1045H35.0822V38.083H38.0548V35.1045Z" fill="#F16062"/>
<path d="M35.0822 35.1045H32.1096V38.083H35.0822V35.1045Z" fill="#EF4946"/>
<path d="M32.1096 35.1045H29.137V38.083H32.1096V35.1045Z" fill="white"/>
<path d="M29.137 35.1045H26.1644V38.083H29.137V35.1045Z" fill="white"/>
<path d="M26.1644 35.1045H23.1918V38.083H26.1644V35.1045Z" fill="white"/>
<path d="M23.1917 35.1045H20.2191V38.083H23.1917V35.1045Z" fill="white"/>
<path d="M20.2191 35.1045H17.2465V38.083H20.2191V35.1045Z" fill="white"/>
<path d="M17.2465 35.1045H14.2739V38.083H17.2465V35.1045Z" fill="#341617"/>
<path d="M14.2739 35.1045H11.3013V38.083H14.2739V35.1045Z" fill="#C46A6C"/>
<path d="M11.3013 35.1045H8.32867V38.083H11.3013V35.1045Z" fill="#170D0F"/>
<path d="M79.6713 32.126H76.6987V35.1045H79.6713V32.126Z" fill="#201011"/>
<path d="M76.6987 32.126H73.7261V35.1045H76.6987V32.126Z" fill="#AA6C69"/>
<path d="M73.7261 32.126H70.7535V35.1045H73.7261V32.126Z" fill="#090A0B"/>
<path d="M70.7535 32.126H67.7809V35.1045H70.7535V32.126Z" fill="#F8F9F9"/>
<path d="M67.7809 32.126H64.8083V35.1045H67.7809V32.126Z" fill="white"/>
<path d="M64.8083 32.126H61.8357V35.1045H64.8083V32.126Z" fill="white"/>
<path d="M61.8357 32.126H58.8631V35.1045H61.8357V32.126Z" fill="white"/>
<path d="M58.8631 32.126H55.8904V35.1045H58.8631V32.126Z" fill="#EF4946"/>
<path d="M55.8905 32.126H52.9178V35.1045H55.8905V32.126Z" fill="#F26C6F"/>
<path d="M52.9179 32.126H49.9453V35.1045H52.9179V32.126Z" fill="#F26B69"/>
<path d="M49.9453 32.126H46.9727V35.1045H49.9453V32.126Z" fill="#F16A70"/>
<path d="M46.9726 32.126H44V35.1045H46.9726V32.126Z" fill="#EF4946"/>
<path d="M44 32.126H41.0274V35.1045H44V32.126Z" fill="#F26D6D"/>
<path d="M41.0274 32.126H38.0548V35.1045H41.0274V32.126Z" fill="#F16A6C"/>
<path d="M38.0548 32.126H35.0822V35.1045H38.0548V32.126Z" fill="#EC6462"/>
<path d="M35.0822 32.126H32.1096V35.1045H35.0822V32.126Z" fill="#EF4946"/>
<path d="M32.1096 32.126H29.137V35.1045H32.1096V32.126Z" fill="white"/>
<path d="M29.137 32.126H26.1644V35.1045H29.137V32.126Z" fill="white"/>
<path d="M26.1644 32.126H23.1918V35.1045H26.1644V32.126Z" fill="white"/>
<path d="M23.1917 32.126H20.2191V35.1045H23.1917V32.126Z" fill="white"/>
<path d="M20.2191 32.126H17.2465V35.1045H20.2191V32.126Z" fill="white"/>
<path d="M17.2465 32.126H14.2739V35.1045H17.2465V32.126Z" fill="#2E1515"/>
<path d="M14.2739 32.126H11.3013V35.1045H14.2739V32.126Z" fill="#AF6C6C"/>
<path d="M11.3013 32.126H8.32867V35.1045H11.3013V32.126Z" fill="#181315"/>
<path d="M76.6987 29.1475H73.7261V32.126H76.6987V29.1475Z" fill="#070909"/>
<path d="M73.7261 29.1475H70.7535V32.126H73.7261V29.1475Z" fill="#070909"/>
<path d="M70.7535 29.1475H67.7809V32.126H70.7535V29.1475Z" fill="#F8F9F9"/>
<path d="M67.7809 29.1475H64.8083V32.126H67.7809V29.1475Z" fill="white"/>
<path d="M64.8083 29.1475H61.8357V32.126H64.8083V29.1475Z" fill="white"/>
<path d="M61.8357 29.1475H58.8631V32.126H61.8357V29.1475Z" fill="white"/>
<path d="M58.8631 29.1475H55.8904V32.126H58.8631V29.1475Z" fill="#FFFEFC"/>
<path d="M55.8905 29.1475H52.9178V32.126H55.8905V29.1475Z" fill="#EF4946"/>
<path d="M52.9179 29.1475H49.9453V32.126H52.9179V29.1475Z" fill="#EF4946"/>
<path d="M49.9453 29.1475H46.9727V32.126H49.9453V29.1475Z" fill="#EF4946"/>
<path d="M46.9726 29.1475H44V32.126H46.9726V29.1475Z" fill="#FFFBFD"/>
<path d="M44 29.1475H41.0274V32.126H44V29.1475Z" fill="#EF4946"/>
<path d="M41.0274 29.1475H38.0548V32.126H41.0274V29.1475Z" fill="#EF4946"/>
<path d="M38.0548 29.1475H35.0822V32.126H38.0548V29.1475Z" fill="#EF4946"/>
<path d="M35.0822 29.1475H32.1096V32.126H35.0822V29.1475Z" fill="#FDFEFF"/>
<path d="M32.1096 29.1475H29.137V32.126H32.1096V29.1475Z" fill="white"/>
<path d="M29.137 29.1475H26.1644V32.126H29.137V29.1475Z" fill="white"/>
<path d="M26.1644 29.1475H23.1918V32.126H26.1644V29.1475Z" fill="white"/>
<path d="M23.1917 29.1475H20.2191V32.126H23.1917V29.1475Z" fill="white"/>
<path d="M20.2191 29.1475H17.2465V32.126H20.2191V29.1475Z" fill="white"/>
<path d="M17.2465 29.1475H14.2739V32.126H17.2465V29.1475Z" fill="#070909"/>
<path d="M14.2739 29.1475H11.3013V32.126H14.2739V29.1475Z" fill="#090A0A"/>
<path d="M73.7261 26.1665H70.7535V29.145H73.7261V26.1665Z" fill="#070909"/>
<path d="M70.7535 26.1665H67.7809V29.145H70.7535V26.1665Z" fill="#F8F9F9"/>
<path d="M67.7809 26.1665H64.8083V29.145H67.7809V26.1665Z" fill="white"/>
<path d="M64.8083 26.1665H61.8357V29.145H64.8083V26.1665Z" fill="white"/>
<path d="M61.8357 26.1665H58.8631V29.145H61.8357V26.1665Z" fill="white"/>
<path d="M58.8631 26.1665H55.8904V29.145H58.8631V26.1665Z" fill="white"/>
<path d="M55.8905 26.1665H52.9178V29.145H55.8905V26.1665Z" fill="#FDFEFF"/>
<path d="M52.9179 26.1665H49.9453V29.145H52.9179V26.1665Z" fill="white"/>
<path d="M49.9453 26.1665H46.9727V29.145H49.9453V26.1665Z" fill="white"/>
<path d="M46.9726 26.1665H44V29.145H46.9726V26.1665Z" fill="#FEFFFF"/>
<path d="M44 26.1665H41.0274V29.145H44V26.1665Z" fill="white"/>
<path d="M41.0274 26.1665H38.0548V29.145H41.0274V26.1665Z" fill="white"/>
<path d="M38.0548 26.1665H35.0822V29.145H38.0548V26.1665Z" fill="white"/>
<path d="M35.0822 26.1665H32.1096V29.145H35.0822V26.1665Z" fill="white"/>
<path d="M32.1096 26.1665H29.137V29.145H32.1096V26.1665Z" fill="white"/>
<path d="M29.137 26.1665H26.1644V29.145H29.137V26.1665Z" fill="white"/>
<path d="M26.1644 26.1665H23.1918V29.145H26.1644V26.1665Z" fill="white"/>
<path d="M23.1917 26.1665H20.2191V29.145H23.1917V26.1665Z" fill="white"/>
<path d="M20.2191 26.1665H17.2465V29.145H20.2191V26.1665Z" fill="white"/>
<path d="M17.2465 26.1665H14.2739V29.145H17.2465V26.1665Z" fill="#323231"/>
<path d="M73.7261 23.188H70.7535V26.1665H73.7261V23.188Z" fill="#070909"/>
<path d="M70.7535 23.188H67.7809V26.1665H70.7535V23.188Z" fill="#F8F9F9"/>
<path d="M67.7809 23.188H64.8083V26.1665H67.7809V23.188Z" fill="white"/>
<path d="M64.8083 23.188H61.8357V26.1665H64.8083V23.188Z" fill="white"/>
<path d="M61.8357 23.188H58.8631V26.1665H61.8357V23.188Z" fill="white"/>
<path d="M58.8631 23.188H55.8904V26.1665H58.8631V23.188Z" fill="white"/>
<path d="M55.8905 23.188H52.9178V26.1665H55.8905V23.188Z" fill="white"/>
<path d="M52.9179 23.188H49.9453V26.1665H52.9179V23.188Z" fill="white"/>
<path d="M49.9453 23.188H46.9727V26.1665H49.9453V23.188Z" fill="white"/>
<path d="M46.9726 23.188H44V26.1665H46.9726V23.188Z" fill="white"/>
<path d="M44 23.188H41.0274V26.1665H44V23.188Z" fill="white"/>
<path d="M41.0274 23.188H38.0548V26.1665H41.0274V23.188Z" fill="white"/>
<path d="M38.0548 23.188H35.0822V26.1665H38.0548V23.188Z" fill="white"/>
<path d="M35.0822 23.188H32.1096V26.1665H35.0822V23.188Z" fill="white"/>
<path d="M32.1096 23.188H29.137V26.1665H32.1096V23.188Z" fill="white"/>
<path d="M29.137 23.188H26.1644V26.1665H29.137V23.188Z" fill="white"/>
<path d="M26.1644 23.188H23.1918V26.1665H26.1644V23.188Z" fill="white"/>
<path d="M23.1917 23.188H20.2191V26.1665H23.1917V23.188Z" fill="#FDFEFF"/>
<path d="M20.2191 23.188H17.2465V26.1665H20.2191V23.188Z" fill="white"/>
<path d="M17.2465 23.188H14.2739V26.1665H17.2465V23.188Z" fill="#323231"/>
<path d="M73.7261 20.2095H70.7535V23.188H73.7261V20.2095Z" fill="#070808"/>
<path d="M70.7535 20.2095H67.7809V23.188H70.7535V20.2095Z" fill="#F7F9F9"/>
<path d="M67.7809 20.2095H64.8083V23.188H67.7809V20.2095Z" fill="white"/>
<path d="M64.8083 20.2095H61.8357V23.188H64.8083V20.2095Z" fill="white"/>
<path d="M61.8357 20.2095H58.8631V23.188H61.8357V20.2095Z" fill="white"/>
<path d="M58.8631 20.2095H55.8904V23.188H58.8631V20.2095Z" fill="white"/>
<path d="M55.8905 20.2095H52.9178V23.188H55.8905V20.2095Z" fill="white"/>
<path d="M52.9179 20.2095H49.9453V23.188H52.9179V20.2095Z" fill="white"/>
<path d="M49.9453 20.2095H46.9727V23.188H49.9453V20.2095Z" fill="white"/>
<path d="M46.9726 20.2095H44V23.188H46.9726V20.2095Z" fill="white"/>
<path d="M44 20.2095H41.0274V23.188H44V20.2095Z" fill="white"/>
<path d="M41.0274 20.2095H38.0548V23.188H41.0274V20.2095Z" fill="white"/>
<path d="M38.0548 20.2095H35.0822V23.188H38.0548V20.2095Z" fill="white"/>
<path d="M35.0822 20.2095H32.1096V23.188H35.0822V20.2095Z" fill="white"/>
<path d="M32.1096 20.2095H29.137V23.188H32.1096V20.2095Z" fill="white"/>
<path d="M29.137 20.2095H26.1644V23.188H29.137V20.2095Z" fill="white"/>
<path d="M26.1644 20.2095H23.1918V23.188H26.1644V20.2095Z" fill="white"/>
<path d="M23.1917 20.2095H20.2191V23.188H23.1917V20.2095Z" fill="#F9FBFC"/>
<path d="M20.2191 20.2095H17.2465V23.188H20.2191V20.2095Z" fill="white"/>
<path d="M17.2465 20.2095H14.2739V23.188H17.2465V20.2095Z" fill="#323231"/>
<path d="M73.7261 17.231H70.7535V20.2095H73.7261V17.231Z" fill="#070909"/>
<path d="M70.7535 17.231H67.7809V20.2095H70.7535V17.231Z" fill="#070909"/>
<path d="M67.7809 17.231H64.8083V20.2095H67.7809V17.231Z" fill="#070909"/>
<path d="M64.8083 17.231H61.8357V20.2095H64.8083V17.231Z" fill="#070909"/>
<path d="M61.8357 17.231H58.8631V20.2095H61.8357V17.231Z" fill="#070909"/>
<path d="M58.8631 17.231H55.8904V20.2095H58.8631V17.231Z" fill="#060809"/>
<path d="M55.8905 17.231H52.9178V20.2095H55.8905V17.231Z" fill="#070909"/>
<path d="M52.9179 17.231H49.9453V20.2095H52.9179V17.231Z" fill="#070909"/>
<path d="M49.9453 17.231H46.9727V20.2095H49.9453V17.231Z" fill="#070909"/>
<path d="M46.9726 17.231H44V20.2095H46.9726V17.231Z" fill="#070909"/>
<path d="M44 17.231H41.0274V20.2095H44V17.231Z" fill="#070909"/>
<path d="M41.0274 17.231H38.0548V20.2095H41.0274V17.231Z" fill="#070909"/>
<path d="M38.0548 17.231H35.0822V20.2095H38.0548V17.231Z" fill="#070909"/>
<path d="M35.0822 17.231H32.1096V20.2095H35.0822V17.231Z" fill="#070909"/>
<path d="M32.1096 17.231H29.137V20.2095H32.1096V17.231Z" fill="#070909"/>
<path d="M29.137 17.231H26.1644V20.2095H29.137V17.231Z" fill="#070909"/>
<path d="M26.1644 17.231H23.1918V20.2095H26.1644V17.231Z" fill="#070909"/>
<path d="M23.1917 17.231H20.2191V20.2095H23.1917V17.231Z" fill="#070909"/>
<path d="M20.2191 17.231H17.2465V20.2095H20.2191V17.231Z" fill="#070909"/>
<path d="M17.2465 17.231H14.2739V20.2095H17.2465V17.231Z" fill="#323231"/>
<path d="M61.8357 14.2524H58.8631V17.231H61.8357V14.2524Z" fill="#333333"/>
<path d="M58.8631 14.2524H55.8904V17.231H58.8631V14.2524Z" fill="#090808"/>
<path d="M55.8905 14.2524H52.9178V17.231H55.8905V14.2524Z" fill="#A76B70"/>
<path d="M52.9179 14.2524H49.9453V17.231H52.9179V14.2524Z" fill="#A96C6D"/>
<path d="M49.9453 14.2524H46.9727V17.231H49.9453V14.2524Z" fill="#A86C6A"/>
<path d="M46.9726 14.2524H44V17.231H46.9726V14.2524Z" fill="#A86C6A"/>
<path d="M44 14.2524H41.0274V17.231H44V14.2524Z" fill="#A56C68"/>
<path d="M41.0274 14.2524H38.0548V17.231H41.0274V14.2524Z" fill="#AA6B6A"/>
<path d="M38.0548 14.2524H35.0822V17.231H38.0548V14.2524Z" fill="#A86A6A"/>
<path d="M35.0822 14.2524H32.1096V17.231H35.0822V14.2524Z" fill="#A26E70"/>
<path d="M32.1096 14.2524H29.137V17.231H32.1096V14.2524Z" fill="#070909"/>
<path d="M55.8905 11.271H52.9178V14.2495H55.8905V11.271Z" fill="#060809"/>
<path d="M52.9179 11.271H49.9453V14.2495H52.9179V11.271Z" fill="#A86C6A"/>
<path d="M49.9453 11.271H46.9727V14.2495H49.9453V11.271Z" fill="#A86C6A"/>
<path d="M46.9726 11.271H44V14.2495H46.9726V11.271Z" fill="#A86C6A"/>
<path d="M44 11.271H41.0274V14.2495H44V11.271Z" fill="#A86C6A"/>
<path d="M41.0274 11.271H38.0548V14.2495H41.0274V11.271Z" fill="#A86C6A"/>
<path d="M38.0548 11.271H35.0822V14.2495H38.0548V11.271Z" fill="#A86C6A"/>
<path d="M35.0822 11.271H32.1096V14.2495H35.0822V11.271Z" fill="#070909"/>
<path d="M52.9179 8.29248H49.9453V11.271H52.9179V8.29248Z" fill="#070909"/>
<path d="M49.9453 8.29248H46.9727V11.271H49.9453V8.29248Z" fill="#A86C6A"/>
<path d="M46.9726 8.29248H44V11.271H46.9726V8.29248Z" fill="#A86C6A"/>
<path d="M44 8.29248H41.0274V11.271H44V8.29248Z" fill="#A86C6A"/>
<path d="M41.0274 8.29248H38.0548V11.271H41.0274V8.29248Z" fill="#070909"/>
<path d="M38.0548 8.29248H35.0822V11.271H38.0548V8.29248Z" fill="#070909"/>
<path d="M49.9453 5.31396H46.9727V8.2925H49.9453V5.31396Z" fill="#070909"/>
<path d="M46.9726 5.31396H44V8.2925H46.9726V5.31396Z" fill="#070909"/>
<path d="M44 5.31396H41.0274V8.2925H44V5.31396Z" fill="#070909"/>
</g>
<defs>
<clipPath id="clip0_988_2752">
<rect width="88" height="100" fill="white"/>
</clipPath>
</defs>
</svg>
