<svg width="115" height="115" viewBox="0 0 115 115" fill="none" xmlns="http://www.w3.org/2000/svg">
<g clip-path="url(#clip0_988_2752)">
<path d="M3.88466 115V111.575H0V37.6845H3.88466V30.8339H7.76932V27.4086H11.654V13.7043H31.0773V10.279H34.962V6.85062H38.8466V3.42531H46.6159V0H72.2687V3.42531H76.1534V6.85062H80.038V10.279H87.8074V13.7043H103.346V27.4086H107.231V30.8339H111.115V37.6845H115V111.575H111.115V115H3.88466Z" fill="white"/>
<path d="M104.116 43.7959V40.3705V36.9452H100.231V33.5199H96.3466V30.0916V26.6662V23.2409V19.8156H92.462H88.5773H84.6926H80.808V16.3903H76.9233H73.0386V12.9619H69.154V9.53664H65.2693V6.11133H61.3847H57.5H53.6153V9.53664H49.7307H45.846V12.9619H41.9613V16.3903H38.0767V19.8156H34.192H30.3074H26.4227H22.538H18.6534V23.2409V26.6662V30.0916V33.5199H14.7687V36.9452H10.8841V40.3705V43.7959H6.99939V47.2242V50.6495V54.0749V57.5002V60.9255V64.3538V67.7792V71.2045V74.6298V78.0551V81.4835V84.9088V88.3341V91.7594V95.1847V98.6131V102.038V105.464H10.8841V108.889H14.7687H18.6534H22.538H26.4227H30.3074H34.192H38.0767H41.9613H45.846H49.7307H53.6153H57.5H61.3847H65.2693H69.154H73.0386H76.9233H80.808H84.6926H88.5773H92.462H96.3466H100.231H104.116V105.464H108.001V102.038V98.6131V95.1847V91.7594V88.3341V84.9088V81.4835V78.0551V74.6298V71.2045V67.7792V64.3538V60.9255V57.5002V54.0749V50.6495V47.2242V43.7959H104.116Z" fill="white"/>
<path d="M104.116 105.464H100.231V108.889H104.116V105.464Z" fill="#0B080A"/>
<path d="M100.231 105.464H96.3466V108.889H100.231V105.464Z" fill="#0C0A0B"/>
<path d="M96.3466 105.464H92.462V108.889H96.3466V105.464Z" fill="#0A0909"/>
<path d="M92.4619 105.464H88.5773V108.889H92.4619V105.464Z" fill="#0A0909"/>
<path d="M88.5773 105.464H84.6926V108.889H88.5773V105.464Z" fill="#0A0909"/>
<path d="M84.6926 105.464H80.808V108.889H84.6926V105.464Z" fill="#0A0809"/>
<path d="M80.808 105.464H76.9233V108.889H80.808V105.464Z" fill="#0B080A"/>
<path d="M76.9233 105.464H73.0386V108.889H76.9233V105.464Z" fill="#0A0809"/>
<path d="M73.0387 105.464H69.154V108.889H73.0387V105.464Z" fill="#0A0809"/>
<path d="M69.154 105.464H65.2693V108.889H69.154V105.464Z" fill="#0A0809"/>
<path d="M65.2693 105.464H61.3846V108.889H65.2693V105.464Z" fill="#0A0809"/>
<path d="M61.3847 105.464H57.5V108.889H61.3847V105.464Z" fill="#0A0809"/>
<path d="M57.5 105.464H53.6154V108.889H57.5V105.464Z" fill="#070808"/>
<path d="M53.6153 105.464H49.7307V108.889H53.6153V105.464Z" fill="#070808"/>
<path d="M49.7307 105.464H45.846V108.889H49.7307V105.464Z" fill="#070808"/>
<path d="M45.846 105.464H41.9614V108.889H45.846V105.464Z" fill="#0A0809"/>
<path d="M41.9613 105.464H38.0767V108.889H41.9613V105.464Z" fill="#090809"/>
<path d="M38.0767 105.464H34.192V108.889H38.0767V105.464Z" fill="#070808"/>
<path d="M34.192 105.464H30.3074V108.889H34.192V105.464Z" fill="#090808"/>
<path d="M30.3074 105.464H26.4227V108.889H30.3074V105.464Z" fill="#0B0A0B"/>
<path d="M26.4227 105.464H22.538V108.889H26.4227V105.464Z" fill="#0A0909"/>
<path d="M22.538 105.464H18.6534V108.889H22.538V105.464Z" fill="#0A0909"/>
<path d="M18.6534 105.464H14.7687V108.889H18.6534V105.464Z" fill="#0C090A"/>
<path d="M14.7687 105.464H10.884V108.889H14.7687V105.464Z" fill="#0C090A"/>
<path d="M108.001 102.039H104.116V105.464H108.001V102.039Z" fill="#240F11"/>
<path d="M104.116 102.039H100.231V105.464H104.116V102.039Z" fill="#0A0909"/>
<path d="M100.231 102.039H96.3466V105.464H100.231V102.039Z" fill="#EFAAA6"/>
<path d="M96.3466 102.039H92.462V105.464H96.3466V102.039Z" fill="#F8AEB0"/>
<path d="M92.4619 102.039H88.5773V105.464H92.4619V102.039Z" fill="#F2ADAA"/>
<path d="M88.5773 102.039H84.6926V105.464H88.5773V102.039Z" fill="#F8AEB0"/>
<path d="M84.6926 102.039H80.808V105.464H84.6926V102.039Z" fill="#F2A7A6"/>
<path d="M80.808 102.039H76.9233V105.464H80.808V102.039Z" fill="#F8AEB0"/>
<path d="M76.9233 102.039H73.0386V105.464H76.9233V102.039Z" fill="#F8AEB0"/>
<path d="M73.0387 102.039H69.154V105.464H73.0387V102.039Z" fill="#F8AFAD"/>
<path d="M69.154 102.039H65.2693V105.464H69.154V102.039Z" fill="#F8AEB0"/>
<path d="M65.2693 102.039H61.3846V105.464H65.2693V102.039Z" fill="#F5AEAC"/>
<path d="M61.3847 102.039H57.5V105.464H61.3847V102.039Z" fill="#F8AEB0"/>
<path d="M57.5 102.039H53.6154V105.464H57.5V102.039Z" fill="#F8ADAB"/>
<path d="M53.6153 102.039H49.7307V105.464H53.6153V102.039Z" fill="#F8AEB0"/>
<path d="M49.7307 102.039H45.846V105.464H49.7307V102.039Z" fill="#F8AEB0"/>
<path d="M45.846 102.039H41.9614V105.464H45.846V102.039Z" fill="#F5B2AF"/>
<path d="M41.9613 102.039H38.0767V105.464H41.9613V102.039Z" fill="#F8AEB0"/>
<path d="M38.0767 102.039H34.192V105.464H38.0767V102.039Z" fill="#F1ABA9"/>
<path d="M34.192 102.039H30.3074V105.464H34.192V102.039Z" fill="#F8AEB0"/>
<path d="M30.3074 102.039H26.4227V105.464H30.3074V102.039Z" fill="#F8AEAC"/>
<path d="M26.4227 102.039H22.538V105.464H26.4227V102.039Z" fill="#F8AEB0"/>
<path d="M22.538 102.039H18.6534V105.464H22.538V102.039Z" fill="#F8AEB0"/>
<path d="M18.6534 102.039H14.7687V105.464H18.6534V102.039Z" fill="#F3ADA7"/>
<path d="M14.7687 102.039H10.884V105.464H14.7687V102.039Z" fill="#0A0C0B"/>
<path d="M10.8841 102.039H6.99939V105.464H10.8841V102.039Z" fill="#070808"/>
<path d="M108.001 98.6133H104.116V102.039H108.001V98.6133Z" fill="#201011"/>
<path d="M104.116 98.6133H100.231V102.039H104.116V98.6133Z" fill="#F8AEAD"/>
<path d="M100.231 98.6133H96.3466V102.039H100.231V98.6133Z" fill="#090808"/>
<path d="M96.3466 98.6133H92.462V102.039H96.3466V98.6133Z" fill="#F9B4AF"/>
<path d="M92.4619 98.6133H88.5773V102.039H92.4619V98.6133Z" fill="#F8ADAB"/>
<path d="M88.5773 98.6133H84.6926V102.039H88.5773V98.6133Z" fill="#F3A7A6"/>
<path d="M84.6926 98.6133H80.808V102.039H84.6926V98.6133Z" fill="#F7ABA9"/>
<path d="M80.808 98.6133H76.9233V102.039H80.808V98.6133Z" fill="#F8AFAE"/>
<path d="M76.9233 98.6133H73.0386V102.039H76.9233V98.6133Z" fill="#F8AEAD"/>
<path d="M73.0387 98.6133H69.154V102.039H73.0387V98.6133Z" fill="#F7ABA9"/>
<path d="M69.154 98.6133H65.2693V102.039H69.154V98.6133Z" fill="#F8B1B0"/>
<path d="M65.2693 98.6133H61.3846V102.039H65.2693V98.6133Z" fill="#F7ACAE"/>
<path d="M61.3847 98.6133H57.5V102.039H61.3847V98.6133Z" fill="#F8AFAF"/>
<path d="M57.5 98.6133H53.6154V102.039H57.5V98.6133Z" fill="#F8AFAF"/>
<path d="M53.6153 98.6133H49.7307V102.039H53.6153V98.6133Z" fill="#F8AEAC"/>
<path d="M49.7307 98.6133H45.846V102.039H49.7307V98.6133Z" fill="#F7ABAB"/>
<path d="M45.846 98.6133H41.9614V102.039H45.846V98.6133Z" fill="#F8AFAF"/>
<path d="M41.9613 98.6133H38.0767V102.039H41.9613V98.6133Z" fill="#F8AFAE"/>
<path d="M38.0767 98.6133H34.192V102.039H38.0767V98.6133Z" fill="#F8AFB1"/>
<path d="M34.192 98.6133H30.3074V102.039H34.192V98.6133Z" fill="#F7ACAE"/>
<path d="M30.3074 98.6133H26.4227V102.039H30.3074V98.6133Z" fill="#F8AFAF"/>
<path d="M26.4227 98.6133H22.538V102.039H26.4227V98.6133Z" fill="#F7ACAE"/>
<path d="M22.538 98.6133H18.6534V102.039H22.538V98.6133Z" fill="#F7ACAF"/>
<path d="M18.6534 98.6133H14.7687V102.039H18.6534V98.6133Z" fill="#0A0C0B"/>
<path d="M14.7687 98.6133H10.884V102.039H14.7687V98.6133Z" fill="#F3B0AE"/>
<path d="M10.8841 98.6133H6.99939V102.039H10.8841V98.6133Z" fill="#070909"/>
<path d="M108.001 95.1846H104.116V98.6099H108.001V95.1846Z" fill="#221010"/>
<path d="M104.116 95.1846H100.231V98.6099H104.116V95.1846Z" fill="#F8AEB0"/>
<path d="M100.231 95.1846H96.3466V98.6099H100.231V95.1846Z" fill="#F8AEAD"/>
<path d="M96.3466 95.1846H92.462V98.6099H96.3466V95.1846Z" fill="#1F0F12"/>
<path d="M92.4619 95.1846H88.5773V98.6099H92.4619V95.1846Z" fill="#F2ABA8"/>
<path d="M88.5773 95.1846H84.6926V98.6099H88.5773V95.1846Z" fill="#F8AFAD"/>
<path d="M84.6926 95.1846H80.808V98.6099H84.6926V95.1846Z" fill="#F8AEAD"/>
<path d="M80.808 95.1846H76.9233V98.6099H80.808V95.1846Z" fill="#F8AEAD"/>
<path d="M76.9233 95.1846H73.0386V98.6099H76.9233V95.1846Z" fill="#F8AFAF"/>
<path d="M73.0387 95.1846H69.154V98.6099H73.0387V95.1846Z" fill="#F8AFAF"/>
<path d="M69.154 95.1846H65.2693V98.6099H69.154V95.1846Z" fill="#F8AFAF"/>
<path d="M65.2693 95.1846H61.3846V98.6099H65.2693V95.1846Z" fill="#F8AFAF"/>
<path d="M61.3847 95.1846H57.5V98.6099H61.3847V95.1846Z" fill="#F8AFAF"/>
<path d="M57.5 95.1846H53.6154V98.6099H57.5V95.1846Z" fill="#F8AFAF"/>
<path d="M53.6153 95.1846H49.7307V98.6099H53.6153V95.1846Z" fill="#F8AFAF"/>
<path d="M49.7307 95.1846H45.846V98.6099H49.7307V95.1846Z" fill="#F8AFAF"/>
<path d="M45.846 95.1846H41.9614V98.6099H45.846V95.1846Z" fill="#F8AFAF"/>
<path d="M41.9613 95.1846H38.0767V98.6099H41.9613V95.1846Z" fill="#F8AFAF"/>
<path d="M38.0767 95.1846H34.192V98.6099H38.0767V95.1846Z" fill="#F8AFAF"/>
<path d="M34.192 95.1846H30.3074V98.6099H34.192V95.1846Z" fill="#F8ADAF"/>
<path d="M30.3074 95.1846H26.4227V98.6099H30.3074V95.1846Z" fill="#F8AFAD"/>
<path d="M26.4227 95.1846H22.538V98.6099H26.4227V95.1846Z" fill="#F7ACAF"/>
<path d="M22.538 95.1846H18.6534V98.6099H22.538V95.1846Z" fill="#0A0C0B"/>
<path d="M18.6534 95.1846H14.7687V98.6099H18.6534V95.1846Z" fill="#E3ACB0"/>
<path d="M14.7687 95.1846H10.884V98.6099H14.7687V95.1846Z" fill="#F6B1B1"/>
<path d="M10.8841 95.1846H6.99939V98.6099H10.8841V95.1846Z" fill="#090A09"/>
<path d="M108.001 91.7593H104.116V95.1846H108.001V91.7593Z" fill="#221011"/>
<path d="M104.116 91.7593H100.231V95.1846H104.116V91.7593Z" fill="#F8AEAD"/>
<path d="M100.231 91.7593H96.3466V95.1846H100.231V91.7593Z" fill="#F8AEB0"/>
<path d="M96.3466 91.7593H92.462V95.1846H96.3466V91.7593Z" fill="#F8AEB0"/>
<path d="M92.4619 91.7593H88.5773V95.1846H92.4619V91.7593Z" fill="#40231B"/>
<path d="M88.5773 91.7593H84.6926V95.1846H88.5773V91.7593Z" fill="#F4B1AF"/>
<path d="M84.6926 91.7593H80.808V95.1846H84.6926V91.7593Z" fill="#F8AFAD"/>
<path d="M80.808 91.7593H76.9233V95.1846H80.808V91.7593Z" fill="#F8AEAD"/>
<path d="M76.9233 91.7593H73.0386V95.1846H76.9233V91.7593Z" fill="#F8AFAF"/>
<path d="M73.0387 91.7593H69.154V95.1846H73.0387V91.7593Z" fill="#F8AFAF"/>
<path d="M69.154 91.7593H65.2693V95.1846H69.154V91.7593Z" fill="#F8AFAF"/>
<path d="M65.2693 91.7593H61.3846V95.1846H65.2693V91.7593Z" fill="#F8AFAF"/>
<path d="M61.3847 91.7593H57.5V95.1846H61.3847V91.7593Z" fill="#F8AFAF"/>
<path d="M57.5 91.7593H53.6154V95.1846H57.5V91.7593Z" fill="#F8AFAF"/>
<path d="M53.6153 91.7593H49.7307V95.1846H53.6153V91.7593Z" fill="#F8AFAF"/>
<path d="M49.7307 91.7593H45.846V95.1846H49.7307V91.7593Z" fill="#F8AFAF"/>
<path d="M45.846 91.7593H41.9614V95.1846H45.846V91.7593Z" fill="#F8AFAF"/>
<path d="M41.9613 91.7593H38.0767V95.1846H41.9613V91.7593Z" fill="#F8AFAF"/>
<path d="M38.0767 91.7593H34.192V95.1846H38.0767V91.7593Z" fill="#F8AFAF"/>
<path d="M34.192 91.7593H30.3074V95.1846H34.192V91.7593Z" fill="#F8AFAF"/>
<path d="M30.3074 91.7593H26.4227V95.1846H30.3074V91.7593Z" fill="#F7ACAF"/>
<path d="M26.4227 91.7593H22.538V95.1846H26.4227V91.7593Z" fill="#0A0C0B"/>
<path d="M22.538 91.7593H18.6534V95.1846H22.538V91.7593Z" fill="#F7ACAF"/>
<path d="M18.6534 91.7593H14.7687V95.1846H18.6534V91.7593Z" fill="#F7ACAE"/>
<path d="M14.7687 91.7593H10.884V95.1846H14.7687V91.7593Z" fill="#F6B1B1"/>
<path d="M10.8841 91.7593H6.99939V95.1846H10.8841V91.7593Z" fill="#090B0A"/>
<path d="M108.001 88.334H104.116V91.7593H108.001V88.334Z" fill="#221011"/>
<path d="M104.116 88.334H100.231V91.7593H104.116V88.334Z" fill="#F8B0B1"/>
<path d="M100.231 88.334H96.3466V91.7593H100.231V88.334Z" fill="#F8AEB0"/>
<path d="M96.3466 88.334H92.462V91.7593H96.3466V88.334Z" fill="#F3AFAE"/>
<path d="M92.4619 88.334H88.5773V91.7593H92.4619V88.334Z" fill="#0D0B0B"/>
<path d="M88.5773 88.334H84.6926V91.7593H88.5773V88.334Z" fill="#F8AEAD"/>
<path d="M84.6926 88.334H80.808V91.7593H84.6926V88.334Z" fill="#F8B2B2"/>
<path d="M80.808 88.334H76.9233V91.7593H80.808V88.334Z" fill="#F8AEAD"/>
<path d="M76.9233 88.334H73.0386V91.7593H76.9233V88.334Z" fill="#F8AFAF"/>
<path d="M73.0387 88.334H69.154V91.7593H73.0387V88.334Z" fill="#F8AFAF"/>
<path d="M69.154 88.334H65.2693V91.7593H69.154V88.334Z" fill="#F8AFAF"/>
<path d="M65.2693 88.334H61.3846V91.7593H65.2693V88.334Z" fill="#F8AEAD"/>
<path d="M61.3847 88.334H57.5V91.7593H61.3847V88.334Z" fill="#F8AEAD"/>
<path d="M57.5 88.334H53.6154V91.7593H57.5V88.334Z" fill="#F8AEAD"/>
<path d="M53.6153 88.334H49.7307V91.7593H53.6153V88.334Z" fill="#F8AEAD"/>
<path d="M49.7307 88.334H45.846V91.7593H49.7307V88.334Z" fill="#F8AFB1"/>
<path d="M45.846 88.334H41.9614V91.7593H45.846V88.334Z" fill="#F8AFAF"/>
<path d="M41.9613 88.334H38.0767V91.7593H41.9613V88.334Z" fill="#F8AFAF"/>
<path d="M38.0767 88.334H34.192V91.7593H38.0767V88.334Z" fill="#F8AFAF"/>
<path d="M34.192 88.334H30.3074V91.7593H34.192V88.334Z" fill="#F2BDBC"/>
<path d="M30.3074 88.334H26.4227V91.7593H30.3074V88.334Z" fill="#0A0C0B"/>
<path d="M26.4227 88.334H22.538V91.7593H26.4227V88.334Z" fill="#F7ACAF"/>
<path d="M22.538 88.334H18.6534V91.7593H22.538V88.334Z" fill="#F8AEAD"/>
<path d="M18.6534 88.334H14.7687V91.7593H18.6534V88.334Z" fill="#F7ACAF"/>
<path d="M14.7687 88.334H10.884V91.7593H14.7687V88.334Z" fill="#F4B0AF"/>
<path d="M10.8841 88.334H6.99939V91.7593H10.8841V88.334Z" fill="#0A0C0B"/>
<path d="M108.001 84.9087H104.116V88.334H108.001V84.9087Z" fill="#221012"/>
<path d="M104.116 84.9087H100.231V88.334H104.116V84.9087Z" fill="#F8AEB0"/>
<path d="M100.231 84.9087H96.3466V88.334H100.231V84.9087Z" fill="#F8B3B0"/>
<path d="M96.3466 84.9087H92.462V88.334H96.3466V84.9087Z" fill="#F8AFAD"/>
<path d="M92.4619 84.9087H88.5773V88.334H92.4619V84.9087Z" fill="#F8ADAF"/>
<path d="M88.5773 84.9087H84.6926V88.334H88.5773V84.9087Z" fill="#150D0E"/>
<path d="M84.6926 84.9087H80.808V88.334H84.6926V84.9087Z" fill="#F8AEAD"/>
<path d="M80.808 84.9087H76.9233V88.334H80.808V84.9087Z" fill="#F9B6B4"/>
<path d="M76.9233 84.9087H73.0386V88.334H76.9233V84.9087Z" fill="#F7ACAF"/>
<path d="M73.0387 84.9087H69.154V88.334H73.0387V84.9087Z" fill="#F8AFB1"/>
<path d="M69.154 84.9087H65.2693V88.334H69.154V84.9087Z" fill="#F8AFAF"/>
<path d="M65.2693 84.9087H61.3846V88.334H65.2693V84.9087Z" fill="#F8AEAD"/>
<path d="M61.3847 84.9087H57.5V88.334H61.3847V84.9087Z" fill="#F8AEAD"/>
<path d="M57.5 84.9087H53.6154V88.334H57.5V84.9087Z" fill="#F8AEAD"/>
<path d="M53.6153 84.9087H49.7307V88.334H53.6153V84.9087Z" fill="#F8AEAD"/>
<path d="M49.7307 84.9087H45.846V88.334H49.7307V84.9087Z" fill="#F8AFAF"/>
<path d="M45.846 84.9087H41.9614V88.334H45.846V84.9087Z" fill="#F8AFAF"/>
<path d="M41.9613 84.9087H38.0767V88.334H41.9613V84.9087Z" fill="#F8B2B2"/>
<path d="M38.0767 84.9087H34.192V88.334H38.0767V84.9087Z" fill="#F3BCBC"/>
<path d="M34.192 84.9087H30.3074V88.334H34.192V84.9087Z" fill="#110C0C"/>
<path d="M30.3074 84.9087H26.4227V88.334H30.3074V84.9087Z" fill="#F9BCBC"/>
<path d="M26.4227 84.9087H22.538V88.334H26.4227V84.9087Z" fill="#F8AEAD"/>
<path d="M22.538 84.9087H18.6534V88.334H22.538V84.9087Z" fill="#F8AEAD"/>
<path d="M18.6534 84.9087H14.7687V88.334H18.6534V84.9087Z" fill="#F7ACAF"/>
<path d="M14.7687 84.9087H10.884V88.334H14.7687V84.9087Z" fill="#F4B0AF"/>
<path d="M10.8841 84.9087H6.99939V88.334H10.8841V84.9087Z" fill="#0A0C0B"/>
<path d="M108.001 81.4834H104.116V84.9087H108.001V81.4834Z" fill="#221011"/>
<path d="M104.116 81.4834H100.231V84.9087H104.116V81.4834Z" fill="#F7ABAB"/>
<path d="M100.231 81.4834H96.3466V84.9087H100.231V81.4834Z" fill="#F8AEB0"/>
<path d="M96.3466 81.4834H92.462V84.9087H96.3466V81.4834Z" fill="#F8AEAC"/>
<path d="M92.4619 81.4834H88.5773V84.9087H92.4619V81.4834Z" fill="#F8AFAD"/>
<path d="M88.5773 81.4834H84.6926V84.9087H88.5773V81.4834Z" fill="#F8ADB3"/>
<path d="M84.6926 81.4834H80.808V84.9087H84.6926V81.4834Z" fill="#221211"/>
<path d="M80.808 81.4834H76.9233V84.9087H80.808V81.4834Z" fill="#F8AEAD"/>
<path d="M76.9233 81.4834H73.0386V84.9087H76.9233V81.4834Z" fill="#F8AFAF"/>
<path d="M73.0387 81.4834H69.154V84.9087H73.0387V81.4834Z" fill="#F8AFAF"/>
<path d="M69.154 81.4834H65.2693V84.9087H69.154V81.4834Z" fill="#F8AFAF"/>
<path d="M65.2693 81.4834H61.3846V84.9087H65.2693V81.4834Z" fill="#F8AEAD"/>
<path d="M61.3847 81.4834H57.5V84.9087H61.3847V81.4834Z" fill="#F8AEAD"/>
<path d="M57.5 81.4834H53.6154V84.9087H57.5V81.4834Z" fill="#F8AEAD"/>
<path d="M53.6153 81.4834H49.7307V84.9087H53.6153V81.4834Z" fill="#F8AEAD"/>
<path d="M49.7307 81.4834H45.846V84.9087H49.7307V81.4834Z" fill="#F8AFAD"/>
<path d="M45.846 81.4834H41.9614V84.9087H45.846V81.4834Z" fill="#F8AEAD"/>
<path d="M41.9613 81.4834H38.0767V84.9087H41.9613V81.4834Z" fill="#F8B2B4"/>
<path d="M38.0767 81.4834H34.192V84.9087H38.0767V81.4834Z" fill="#0D0C0B"/>
<path d="M34.192 81.4834H30.3074V84.9087H34.192V81.4834Z" fill="#F7B7B7"/>
<path d="M30.3074 81.4834H26.4227V84.9087H30.3074V81.4834Z" fill="#F8AEAD"/>
<path d="M26.4227 81.4834H22.538V84.9087H26.4227V81.4834Z" fill="#F8AEAD"/>
<path d="M22.538 81.4834H18.6534V84.9087H22.538V81.4834Z" fill="#F8AEAD"/>
<path d="M18.6534 81.4834H14.7687V84.9087H18.6534V81.4834Z" fill="#F7ACAF"/>
<path d="M14.7687 81.4834H10.884V84.9087H14.7687V81.4834Z" fill="#F4B0AF"/>
<path d="M10.8841 81.4834H6.99939V84.9087H10.8841V81.4834Z" fill="#0A0C0B"/>
<path d="M108.001 78.0552H104.116V81.4805H108.001V78.0552Z" fill="#221012"/>
<path d="M104.116 78.0552H100.231V81.4805H104.116V78.0552Z" fill="#F8AEB0"/>
<path d="M100.231 78.0552H96.3466V81.4805H100.231V78.0552Z" fill="#F8AEAC"/>
<path d="M96.3466 78.0552H92.462V81.4805H96.3466V78.0552Z" fill="#F7ACAE"/>
<path d="M92.4619 78.0552H88.5773V81.4805H92.4619V78.0552Z" fill="#F8AEB0"/>
<path d="M88.5773 78.0552H84.6926V81.4805H88.5773V78.0552Z" fill="#F8AEAD"/>
<path d="M84.6926 78.0552H80.808V81.4805H84.6926V78.0552Z" fill="#F6AFAD"/>
<path d="M80.808 78.0552H76.9233V81.4805H80.808V78.0552Z" fill="#090808"/>
<path d="M76.9233 78.0552H73.0386V81.4805H76.9233V78.0552Z" fill="#120C0D"/>
<path d="M73.0387 78.0552H69.154V81.4805H73.0387V78.0552Z" fill="#F8AEAB"/>
<path d="M69.154 78.0552H65.2693V81.4805H69.154V78.0552Z" fill="#F8AEAC"/>
<path d="M65.2693 78.0552H61.3846V81.4805H65.2693V78.0552Z" fill="#F8AFAD"/>
<path d="M61.3847 78.0552H57.5V81.4805H61.3847V78.0552Z" fill="#F8AEAD"/>
<path d="M57.5 78.0552H53.6154V81.4805H57.5V78.0552Z" fill="#F7ACAE"/>
<path d="M53.6153 78.0552H49.7307V81.4805H53.6153V78.0552Z" fill="#F8AEAC"/>
<path d="M49.7307 78.0552H45.846V81.4805H49.7307V78.0552Z" fill="#F8AEAC"/>
<path d="M45.846 78.0552H41.9614V81.4805H45.846V78.0552Z" fill="#F5B9B7"/>
<path d="M41.9613 78.0552H38.0767V81.4805H41.9613V78.0552Z" fill="#070909"/>
<path d="M38.0767 78.0552H34.192V81.4805H38.0767V78.0552Z" fill="#F8AEB0"/>
<path d="M34.192 78.0552H30.3074V81.4805H34.192V78.0552Z" fill="#F8AFAF"/>
<path d="M30.3074 78.0552H26.4227V81.4805H30.3074V78.0552Z" fill="#F8AEAD"/>
<path d="M26.4227 78.0552H22.538V81.4805H26.4227V78.0552Z" fill="#F8AFAD"/>
<path d="M22.538 78.0552H18.6534V81.4805H22.538V78.0552Z" fill="#F8AEAD"/>
<path d="M18.6534 78.0552H14.7687V81.4805H18.6534V78.0552Z" fill="#F7ACAF"/>
<path d="M14.7687 78.0552H10.884V81.4805H14.7687V78.0552Z" fill="#F4B0AF"/>
<path d="M10.8841 78.0552H6.99939V81.4805H10.8841V78.0552Z" fill="#0A0C0B"/>
<path d="M108.001 74.6299H104.116V78.0552H108.001V74.6299Z" fill="#201012"/>
<path d="M104.116 74.6299H100.231V78.0552H104.116V74.6299Z" fill="#F8AFAF"/>
<path d="M100.231 74.6299H96.3466V78.0552H100.231V74.6299Z" fill="#F8AEB0"/>
<path d="M96.3466 74.6299H92.462V78.0552H96.3466V74.6299Z" fill="#F7ACAE"/>
<path d="M92.4619 74.6299H88.5773V78.0552H92.4619V74.6299Z" fill="#F8AEB0"/>
<path d="M88.5773 74.6299H84.6926V78.0552H88.5773V74.6299Z" fill="#F8AEB0"/>
<path d="M84.6926 74.6299H80.808V78.0552H84.6926V74.6299Z" fill="#F8AFAD"/>
<path d="M80.808 74.6299H76.9233V78.0552H80.808V74.6299Z" fill="#F6AFAD"/>
<path d="M76.9233 74.6299H73.0386V78.0552H76.9233V74.6299Z" fill="#F9C2C3"/>
<path d="M73.0387 74.6299H69.154V78.0552H73.0387V74.6299Z" fill="#070909"/>
<path d="M69.154 74.6299H65.2693V78.0552H69.154V74.6299Z" fill="#090808"/>
<path d="M65.2693 74.6299H61.3846V78.0552H65.2693V74.6299Z" fill="#F8AEAD"/>
<path d="M61.3847 74.6299H57.5V78.0552H61.3847V74.6299Z" fill="#F8AEAD"/>
<path d="M57.5 74.6299H53.6154V78.0552H57.5V74.6299Z" fill="#F8AEAC"/>
<path d="M53.6153 74.6299H49.7307V78.0552H53.6153V74.6299Z" fill="#F8AEAD"/>
<path d="M49.7307 74.6299H45.846V78.0552H49.7307V74.6299Z" fill="#070808"/>
<path d="M45.846 74.6299H41.9614V78.0552H45.846V74.6299Z" fill="#0D090A"/>
<path d="M41.9613 74.6299H38.0767V78.0552H41.9613V74.6299Z" fill="#F8B2B3"/>
<path d="M38.0767 74.6299H34.192V78.0552H38.0767V74.6299Z" fill="#F8AEAD"/>
<path d="M34.192 74.6299H30.3074V78.0552H34.192V74.6299Z" fill="#F8AEAD"/>
<path d="M30.3074 74.6299H26.4227V78.0552H30.3074V74.6299Z" fill="#F8AEAD"/>
<path d="M26.4227 74.6299H22.538V78.0552H26.4227V74.6299Z" fill="#F8AFAD"/>
<path d="M22.538 74.6299H18.6534V78.0552H22.538V74.6299Z" fill="#F8AEAD"/>
<path d="M18.6534 74.6299H14.7687V78.0552H18.6534V74.6299Z" fill="#F7ACAF"/>
<path d="M14.7687 74.6299H10.884V78.0552H14.7687V74.6299Z" fill="#F4B0AF"/>
<path d="M10.8841 74.6299H6.99939V78.0552H10.8841V74.6299Z" fill="#0A0C0B"/>
<path d="M108.001 71.2046H104.116V74.6299H108.001V71.2046Z" fill="#221012"/>
<path d="M104.116 71.2046H100.231V74.6299H104.116V71.2046Z" fill="#F8AEB0"/>
<path d="M100.231 71.2046H96.3466V74.6299H100.231V71.2046Z" fill="#F8B1B2"/>
<path d="M96.3466 71.2046H92.462V74.6299H96.3466V71.2046Z" fill="#F8AEAD"/>
<path d="M92.4619 71.2046H88.5773V74.6299H92.4619V71.2046Z" fill="#F8AEAD"/>
<path d="M88.5773 71.2046H84.6926V74.6299H88.5773V71.2046Z" fill="#F8AEAD"/>
<path d="M84.6926 71.2046H80.808V74.6299H84.6926V71.2046Z" fill="#F7ACAF"/>
<path d="M80.808 71.2046H76.9233V74.6299H80.808V71.2046Z" fill="#F2BCB9"/>
<path d="M76.9233 71.2046H73.0386V74.6299H76.9233V71.2046Z" fill="#0A0909"/>
<path d="M73.0387 71.2046H69.154V74.6299H73.0387V71.2046Z" fill="white"/>
<path d="M69.154 71.2046H65.2693V74.6299H69.154V71.2046Z" fill="white"/>
<path d="M65.2693 71.2046H61.3846V74.6299H65.2693V71.2046Z" fill="#0E0A0A"/>
<path d="M61.3847 71.2046H57.5V74.6299H61.3847V71.2046Z" fill="#0E0A0A"/>
<path d="M57.5 71.2046H53.6154V74.6299H57.5V71.2046Z" fill="#100B0C"/>
<path d="M53.6153 71.2046H49.7307V74.6299H53.6153V71.2046Z" fill="#0A0809"/>
<path d="M49.7307 71.2046H45.846V74.6299H49.7307V71.2046Z" fill="white"/>
<path d="M45.846 71.2046H41.9614V74.6299H45.846V71.2046Z" fill="white"/>
<path d="M41.9613 71.2046H38.0767V74.6299H41.9613V71.2046Z" fill="#080A09"/>
<path d="M38.0767 71.2046H34.192V74.6299H38.0767V71.2046Z" fill="#F8AEAC"/>
<path d="M34.192 71.2046H30.3074V74.6299H34.192V71.2046Z" fill="#F4B1AB"/>
<path d="M30.3074 71.2046H26.4227V74.6299H30.3074V71.2046Z" fill="#F7ACAE"/>
<path d="M26.4227 71.2046H22.538V74.6299H26.4227V71.2046Z" fill="#F7ACAE"/>
<path d="M22.538 71.2046H18.6534V74.6299H22.538V71.2046Z" fill="#F8AEAD"/>
<path d="M18.6534 71.2046H14.7687V74.6299H18.6534V71.2046Z" fill="#F7ACAF"/>
<path d="M14.7687 71.2046H10.884V74.6299H14.7687V71.2046Z" fill="#F4B0AF"/>
<path d="M10.8841 71.2046H6.99939V74.6299H10.8841V71.2046Z" fill="#0A0C0B"/>
<path d="M108.001 67.7793H104.116V71.2046H108.001V67.7793Z" fill="#201012"/>
<path d="M104.116 67.7793H100.231V71.2046H104.116V67.7793Z" fill="#F8AEAD"/>
<path d="M100.231 67.7793H96.3466V71.2046H100.231V67.7793Z" fill="#F8AEB0"/>
<path d="M96.3466 67.7793H92.462V71.2046H96.3466V67.7793Z" fill="#F8AEAD"/>
<path d="M92.4619 67.7793H88.5773V71.2046H92.4619V67.7793Z" fill="#F8AEAD"/>
<path d="M88.5773 67.7793H84.6926V71.2046H88.5773V67.7793Z" fill="#F8ACAC"/>
<path d="M84.6926 67.7793H80.808V71.2046H84.6926V67.7793Z" fill="#F2BCB9"/>
<path d="M80.808 67.7793H76.9233V71.2046H80.808V67.7793Z" fill="#0E0A0A"/>
<path d="M76.9233 67.7793H73.0386V71.2046H76.9233V67.7793Z" fill="#FFFCF9"/>
<path d="M73.0387 67.7793H69.154V71.2046H73.0387V67.7793Z" fill="#FDFEFF"/>
<path d="M69.154 67.7793H65.2693V71.2046H69.154V67.7793Z" fill="#FDFEFF"/>
<path d="M65.2693 67.7793H61.3846V71.2046H65.2693V67.7793Z" fill="white"/>
<path d="M61.3847 67.7793H57.5V71.2046H61.3847V67.7793Z" fill="white"/>
<path d="M57.5 67.7793H53.6154V71.2046H57.5V67.7793Z" fill="white"/>
<path d="M53.6153 67.7793H49.7307V71.2046H53.6153V67.7793Z" fill="white"/>
<path d="M49.7307 67.7793H45.846V71.2046H49.7307V67.7793Z" fill="white"/>
<path d="M45.846 67.7793H41.9614V71.2046H45.846V67.7793Z" fill="white"/>
<path d="M41.9613 67.7793H38.0767V71.2046H41.9613V67.7793Z" fill="white"/>
<path d="M38.0767 67.7793H34.192V71.2046H38.0767V67.7793Z" fill="#080A09"/>
<path d="M34.192 67.7793H30.3074V71.2046H34.192V67.7793Z" fill="#F2B3B2"/>
<path d="M30.3074 67.7793H26.4227V71.2046H30.3074V67.7793Z" fill="#F7ACAE"/>
<path d="M26.4227 67.7793H22.538V71.2046H26.4227V67.7793Z" fill="#F7ACAE"/>
<path d="M22.538 67.7793H18.6534V71.2046H22.538V67.7793Z" fill="#F8AEAD"/>
<path d="M18.6534 67.7793H14.7687V71.2046H18.6534V67.7793Z" fill="#F7ACAF"/>
<path d="M14.7687 67.7793H10.884V71.2046H14.7687V67.7793Z" fill="#F4B0AF"/>
<path d="M10.8841 67.7793H6.99939V71.2046H10.8841V67.7793Z" fill="#0A0C0B"/>
<path d="M108.001 64.354H104.116V67.7793H108.001V64.354Z" fill="#221012"/>
<path d="M104.116 64.354H100.231V67.7793H104.116V64.354Z" fill="#F8AEAD"/>
<path d="M100.231 64.354H96.3466V67.7793H100.231V64.354Z" fill="#F8AEB0"/>
<path d="M96.3466 64.354H92.462V67.7793H96.3466V64.354Z" fill="#F8ADAB"/>
<path d="M92.4619 64.354H88.5773V67.7793H92.4619V64.354Z" fill="#F7ACAF"/>
<path d="M88.5773 64.354H84.6926V67.7793H88.5773V64.354Z" fill="#F2BCB9"/>
<path d="M84.6926 64.354H80.808V67.7793H84.6926V64.354Z" fill="#0E0A0A"/>
<path d="M80.808 64.354H76.9233V67.7793H80.808V64.354Z" fill="#FFFCF9"/>
<path d="M76.9233 64.354H73.0386V67.7793H76.9233V64.354Z" fill="white"/>
<path d="M73.0387 64.354H69.154V67.7793H73.0387V64.354Z" fill="white"/>
<path d="M69.154 64.354H65.2693V67.7793H69.154V64.354Z" fill="white"/>
<path d="M65.2693 64.354H61.3846V67.7793H65.2693V64.354Z" fill="white"/>
<path d="M61.3847 64.354H57.5V67.7793H61.3847V64.354Z" fill="white"/>
<path d="M57.5 64.354H53.6154V67.7793H57.5V64.354Z" fill="white"/>
<path d="M53.6153 64.354H49.7307V67.7793H53.6153V64.354Z" fill="white"/>
<path d="M49.7307 64.354H45.846V67.7793H49.7307V64.354Z" fill="white"/>
<path d="M45.846 64.354H41.9614V67.7793H45.846V64.354Z" fill="white"/>
<path d="M41.9613 64.354H38.0767V67.7793H41.9613V64.354Z" fill="white"/>
<path d="M38.0767 64.354H34.192V67.7793H38.0767V64.354Z" fill="white"/>
<path d="M34.192 64.354H30.3074V67.7793H34.192V64.354Z" fill="#080A09"/>
<path d="M30.3074 64.354H26.4227V67.7793H30.3074V64.354Z" fill="#F6B4B3"/>
<path d="M26.4227 64.354H22.538V67.7793H26.4227V64.354Z" fill="#F8AFB1"/>
<path d="M22.538 64.354H18.6534V67.7793H22.538V64.354Z" fill="#F8AFAF"/>
<path d="M18.6534 64.354H14.7687V67.7793H18.6534V64.354Z" fill="#F7ACAF"/>
<path d="M14.7687 64.354H10.884V67.7793H14.7687V64.354Z" fill="#F4B0AF"/>
<path d="M10.8841 64.354H6.99939V67.7793H10.8841V64.354Z" fill="#090A09"/>
<path d="M108.001 60.9253H104.116V64.3506H108.001V60.9253Z" fill="#221012"/>
<path d="M104.116 60.9253H100.231V64.3506H104.116V60.9253Z" fill="#F8AEB0"/>
<path d="M100.231 60.9253H96.3466V64.3506H100.231V60.9253Z" fill="#F8B1AE"/>
<path d="M96.3466 60.9253H92.462V64.3506H96.3466V60.9253Z" fill="#F8AEAC"/>
<path d="M92.4619 60.9253H88.5773V64.3506H92.4619V60.9253Z" fill="#F2BCB9"/>
<path d="M88.5773 60.9253H84.6926V64.3506H88.5773V60.9253Z" fill="#0B080A"/>
<path d="M84.6926 60.9253H80.808V64.3506H84.6926V60.9253Z" fill="#FFFCF9"/>
<path d="M80.808 60.9253H76.9233V64.3506H80.808V60.9253Z" fill="white"/>
<path d="M76.9233 60.9253H73.0386V64.3506H76.9233V60.9253Z" fill="white"/>
<path d="M73.0387 60.9253H69.154V64.3506H73.0387V60.9253Z" fill="white"/>
<path d="M69.154 60.9253H65.2693V64.3506H69.154V60.9253Z" fill="white"/>
<path d="M65.2693 60.9253H61.3846V64.3506H65.2693V60.9253Z" fill="white"/>
<path d="M61.3847 60.9253H57.5V64.3506H61.3847V60.9253Z" fill="#FEF6F7"/>
<path d="M57.5 60.9253H53.6154V64.3506H57.5V60.9253Z" fill="#FFFDFE"/>
<path d="M53.6153 60.9253H49.7307V64.3506H53.6153V60.9253Z" fill="white"/>
<path d="M49.7307 60.9253H45.846V64.3506H49.7307V60.9253Z" fill="white"/>
<path d="M45.846 60.9253H41.9614V64.3506H45.846V60.9253Z" fill="white"/>
<path d="M41.9613 60.9253H38.0767V64.3506H41.9613V60.9253Z" fill="white"/>
<path d="M38.0767 60.9253H34.192V64.3506H38.0767V60.9253Z" fill="#F9FCFE"/>
<path d="M34.192 60.9253H30.3074V64.3506H34.192V60.9253Z" fill="white"/>
<path d="M30.3074 60.9253H26.4227V64.3506H30.3074V60.9253Z" fill="#080A09"/>
<path d="M26.4227 60.9253H22.538V64.3506H26.4227V60.9253Z" fill="#F3B3B3"/>
<path d="M22.538 60.9253H18.6534V64.3506H22.538V60.9253Z" fill="#F8AFAF"/>
<path d="M18.6534 60.9253H14.7687V64.3506H18.6534V60.9253Z" fill="#F8AEB0"/>
<path d="M14.7687 60.9253H10.884V64.3506H14.7687V60.9253Z" fill="#F4B0AF"/>
<path d="M10.8841 60.9253H6.99939V64.3506H10.8841V60.9253Z" fill="#090B0A"/>
<path d="M108.001 57.5H104.116V60.9253H108.001V57.5Z" fill="#221011"/>
<path d="M104.116 57.5H100.231V60.9253H104.116V57.5Z" fill="#F8AEAF"/>
<path d="M100.231 57.5H96.3466V60.9253H100.231V57.5Z" fill="#F8AEB0"/>
<path d="M96.3466 57.5H92.462V60.9253H96.3466V57.5Z" fill="#F1B2AD"/>
<path d="M92.4619 57.5H88.5773V60.9253H92.4619V57.5Z" fill="#080A0A"/>
<path d="M88.5773 57.5H84.6926V60.9253H88.5773V57.5Z" fill="#FBFDFE"/>
<path d="M84.6926 57.5H80.808V60.9253H84.6926V57.5Z" fill="white"/>
<path d="M80.808 57.5H76.9233V60.9253H80.808V57.5Z" fill="white"/>
<path d="M76.9233 57.5H73.0386V60.9253H76.9233V57.5Z" fill="white"/>
<path d="M73.0387 57.5H69.154V60.9253H73.0387V57.5Z" fill="#FFFCF9"/>
<path d="M69.154 57.5H65.2693V60.9253H69.154V57.5Z" fill="#FDFEFF"/>
<path d="M65.2693 57.5H61.3846V60.9253H65.2693V57.5Z" fill="white"/>
<path d="M61.3847 57.5H57.5V60.9253H61.3847V57.5Z" fill="#EE454A"/>
<path d="M57.5 57.5H53.6154V60.9253H57.5V57.5Z" fill="#FFFBF6"/>
<path d="M53.6153 57.5H49.7307V60.9253H53.6153V57.5Z" fill="#FFFBFD"/>
<path d="M49.7307 57.5H45.846V60.9253H49.7307V57.5Z" fill="white"/>
<path d="M45.846 57.5H41.9614V60.9253H45.846V57.5Z" fill="white"/>
<path d="M41.9613 57.5H38.0767V60.9253H41.9613V57.5Z" fill="white"/>
<path d="M38.0767 57.5H34.192V60.9253H38.0767V57.5Z" fill="white"/>
<path d="M34.192 57.5H30.3074V60.9253H34.192V57.5Z" fill="white"/>
<path d="M30.3074 57.5H26.4227V60.9253H30.3074V57.5Z" fill="white"/>
<path d="M26.4227 57.5H22.538V60.9253H26.4227V57.5Z" fill="#080A09"/>
<path d="M22.538 57.5H18.6534V60.9253H22.538V57.5Z" fill="#F8AFAD"/>
<path d="M18.6534 57.5H14.7687V60.9253H18.6534V57.5Z" fill="#F8ADAB"/>
<path d="M14.7687 57.5H10.884V60.9253H14.7687V57.5Z" fill="#F4B1AF"/>
<path d="M10.8841 57.5H6.99939V60.9253H10.8841V57.5Z" fill="#090B0A"/>
<path d="M108.001 54.0747H104.116V57.5H108.001V54.0747Z" fill="#221012"/>
<path d="M104.116 54.0747H100.231V57.5H104.116V54.0747Z" fill="#F8AEB0"/>
<path d="M100.231 54.0747H96.3466V57.5H100.231V54.0747Z" fill="#F6B1B1"/>
<path d="M96.3466 54.0747H92.462V57.5H96.3466V54.0747Z" fill="#09090A"/>
<path d="M92.4619 54.0747H88.5773V57.5H92.4619V54.0747Z" fill="#F8F9F9"/>
<path d="M88.5773 54.0747H84.6926V57.5H88.5773V54.0747Z" fill="#FEFDFE"/>
<path d="M84.6926 54.0747H80.808V57.5H84.6926V54.0747Z" fill="white"/>
<path d="M80.808 54.0747H76.9233V57.5H80.808V54.0747Z" fill="white"/>
<path d="M76.9233 54.0747H73.0386V57.5H76.9233V54.0747Z" fill="white"/>
<path d="M73.0387 54.0747H69.154V57.5H73.0387V54.0747Z" fill="#FDFEFC"/>
<path d="M69.154 54.0747H65.2693V57.5H69.154V54.0747Z" fill="#F7FBF9"/>
<path d="M65.2693 54.0747H61.3846V57.5H65.2693V54.0747Z" fill="#EF4946"/>
<path d="M61.3847 54.0747H57.5V57.5H61.3847V54.0747Z" fill="#F26E6A"/>
<path d="M57.5 54.0747H53.6154V57.5H57.5V54.0747Z" fill="#E94543"/>
<path d="M53.6153 54.0747H49.7307V57.5H53.6153V54.0747Z" fill="white"/>
<path d="M49.7307 54.0747H45.846V57.5H49.7307V54.0747Z" fill="#FEFFFF"/>
<path d="M45.846 54.0747H41.9614V57.5H45.846V54.0747Z" fill="#FDFEFF"/>
<path d="M41.9613 54.0747H38.0767V57.5H41.9613V54.0747Z" fill="white"/>
<path d="M38.0767 54.0747H34.192V57.5H38.0767V54.0747Z" fill="white"/>
<path d="M34.192 54.0747H30.3074V57.5H34.192V54.0747Z" fill="white"/>
<path d="M30.3074 54.0747H26.4227V57.5H30.3074V54.0747Z" fill="white"/>
<path d="M26.4227 54.0747H22.538V57.5H26.4227V54.0747Z" fill="white"/>
<path d="M22.538 54.0747H18.6534V57.5H22.538V54.0747Z" fill="#080A09"/>
<path d="M18.6534 54.0747H14.7687V57.5H18.6534V54.0747Z" fill="#F8AFB0"/>
<path d="M14.7687 54.0747H10.884V57.5H14.7687V54.0747Z" fill="#F5B2B1"/>
<path d="M10.8841 54.0747H6.99939V57.5H10.8841V54.0747Z" fill="#090B0A"/>
<path d="M108.001 50.6494H104.116V54.0747H108.001V50.6494Z" fill="#201012"/>
<path d="M104.116 50.6494H100.231V54.0747H104.116V50.6494Z" fill="#EAB9B7"/>
<path d="M100.231 50.6494H96.3466V54.0747H100.231V50.6494Z" fill="#070808"/>
<path d="M96.3466 50.6494H92.462V54.0747H96.3466V50.6494Z" fill="#090909"/>
<path d="M92.4619 50.6494H88.5773V54.0747H92.4619V50.6494Z" fill="#F8F9F8"/>
<path d="M88.5773 50.6494H84.6926V54.0747H88.5773V50.6494Z" fill="white"/>
<path d="M84.6926 50.6494H80.808V54.0747H84.6926V50.6494Z" fill="white"/>
<path d="M80.808 50.6494H76.9233V54.0747H80.808V50.6494Z" fill="white"/>
<path d="M76.9233 50.6494H73.0386V54.0747H76.9233V50.6494Z" fill="white"/>
<path d="M73.0387 50.6494H69.154V54.0747H73.0387V50.6494Z" fill="#FFF9F3"/>
<path d="M69.154 50.6494H65.2693V54.0747H69.154V50.6494Z" fill="#EF4848"/>
<path d="M65.2693 50.6494H61.3846V54.0747H65.2693V50.6494Z" fill="#F26C6A"/>
<path d="M61.3847 50.6494H57.5V54.0747H61.3847V50.6494Z" fill="#F26D6E"/>
<path d="M57.5 50.6494H53.6154V54.0747H57.5V50.6494Z" fill="#F26E6E"/>
<path d="M53.6153 50.6494H49.7307V54.0747H53.6153V50.6494Z" fill="#F05659"/>
<path d="M49.7307 50.6494H45.846V54.0747H49.7307V50.6494Z" fill="white"/>
<path d="M45.846 50.6494H41.9614V54.0747H45.846V50.6494Z" fill="#FDFEFF"/>
<path d="M41.9613 50.6494H38.0767V54.0747H41.9613V50.6494Z" fill="white"/>
<path d="M38.0767 50.6494H34.192V54.0747H38.0767V50.6494Z" fill="white"/>
<path d="M34.192 50.6494H30.3074V54.0747H34.192V50.6494Z" fill="white"/>
<path d="M30.3074 50.6494H26.4227V54.0747H30.3074V50.6494Z" fill="white"/>
<path d="M26.4227 50.6494H22.538V54.0747H26.4227V50.6494Z" fill="white"/>
<path d="M22.538 50.6494H18.6534V54.0747H22.538V50.6494Z" fill="#070909"/>
<path d="M18.6534 50.6494H14.7687V54.0747H18.6534V50.6494Z" fill="#080A09"/>
<path d="M14.7687 50.6494H10.884V54.0747H14.7687V50.6494Z" fill="#F4B1AF"/>
<path d="M10.8841 50.6494H6.99939V54.0747H10.8841V50.6494Z" fill="#090A09"/>
<path d="M108.001 47.2241H104.116V50.6494H108.001V47.2241Z" fill="#0A0809"/>
<path d="M104.116 47.2241H100.231V50.6494H104.116V47.2241Z" fill="#1D0F10"/>
<path d="M100.231 47.2241H96.3466V50.6494H100.231V47.2241Z" fill="#CB7F7B"/>
<path d="M96.3466 47.2241H92.462V50.6494H96.3466V47.2241Z" fill="#090A0A"/>
<path d="M92.4619 47.2241H88.5773V50.6494H92.4619V47.2241Z" fill="#F8F9F9"/>
<path d="M88.5773 47.2241H84.6926V50.6494H88.5773V47.2241Z" fill="white"/>
<path d="M84.6926 47.2241H80.808V50.6494H84.6926V47.2241Z" fill="white"/>
<path d="M80.808 47.2241H76.9233V50.6494H80.808V47.2241Z" fill="white"/>
<path d="M76.9233 47.2241H73.0386V50.6494H76.9233V47.2241Z" fill="#FEF5F5"/>
<path d="M73.0387 47.2241H69.154V50.6494H73.0387V47.2241Z" fill="#EF4848"/>
<path d="M69.154 47.2241H65.2693V50.6494H69.154V47.2241Z" fill="#F1686C"/>
<path d="M65.2693 47.2241H61.3846V50.6494H65.2693V47.2241Z" fill="#F16B6F"/>
<path d="M61.3847 47.2241H57.5V50.6494H61.3847V47.2241Z" fill="#F26C6F"/>
<path d="M57.5 47.2241H53.6154V50.6494H57.5V47.2241Z" fill="#F26C6F"/>
<path d="M53.6153 47.2241H49.7307V50.6494H53.6153V47.2241Z" fill="#F26D6C"/>
<path d="M49.7307 47.2241H45.846V50.6494H49.7307V47.2241Z" fill="#EF4946"/>
<path d="M45.846 47.2241H41.9614V50.6494H45.846V47.2241Z" fill="white"/>
<path d="M41.9613 47.2241H38.0767V50.6494H41.9613V47.2241Z" fill="white"/>
<path d="M38.0767 47.2241H34.192V50.6494H38.0767V47.2241Z" fill="white"/>
<path d="M34.192 47.2241H30.3074V50.6494H34.192V47.2241Z" fill="white"/>
<path d="M30.3074 47.2241H26.4227V50.6494H30.3074V47.2241Z" fill="white"/>
<path d="M26.4227 47.2241H22.538V50.6494H26.4227V47.2241Z" fill="white"/>
<path d="M22.538 47.2241H18.6534V50.6494H22.538V47.2241Z" fill="#311816"/>
<path d="M18.6534 47.2241H14.7687V50.6494H18.6534V47.2241Z" fill="#C37B76"/>
<path d="M14.7687 47.2241H10.884V50.6494H14.7687V47.2241Z" fill="#0D090A"/>
<path d="M10.8841 47.2241H6.99939V50.6494H10.8841V47.2241Z" fill="#070909"/>
<path d="M108.001 43.7959H104.116V47.2212H108.001V43.7959Z" fill="#1E1011"/>
<path d="M104.116 43.7959H100.231V47.2212H104.116V43.7959Z" fill="#BE7577"/>
<path d="M100.231 43.7959H96.3466V47.2212H100.231V43.7959Z" fill="#C26D69"/>
<path d="M96.3466 43.7959H92.462V47.2212H96.3466V43.7959Z" fill="#090A0A"/>
<path d="M92.4619 43.7959H88.5773V47.2212H92.4619V43.7959Z" fill="#F8F9F9"/>
<path d="M88.5773 43.7959H84.6926V47.2212H88.5773V43.7959Z" fill="white"/>
<path d="M84.6926 43.7959H80.808V47.2212H84.6926V43.7959Z" fill="white"/>
<path d="M80.808 43.7959H76.9233V47.2212H80.808V43.7959Z" fill="white"/>
<path d="M76.9233 43.7959H73.0386V47.2212H76.9233V43.7959Z" fill="#EF4946"/>
<path d="M73.0387 43.7959H69.154V47.2212H73.0387V43.7959Z" fill="#F26C6F"/>
<path d="M69.154 43.7959H65.2693V47.2212H69.154V43.7959Z" fill="#F26D6C"/>
<path d="M65.2693 43.7959H61.3846V47.2212H65.2693V43.7959Z" fill="#F16B71"/>
<path d="M61.3847 43.7959H57.5V47.2212H61.3847V43.7959Z" fill="#F26D6C"/>
<path d="M57.5 43.7959H53.6154V47.2212H57.5V43.7959Z" fill="#F26C6F"/>
<path d="M53.6153 43.7959H49.7307V47.2212H53.6153V43.7959Z" fill="#F26F6D"/>
<path d="M49.7307 43.7959H45.846V47.2212H49.7307V43.7959Z" fill="#F16062"/>
<path d="M45.846 43.7959H41.9614V47.2212H45.846V43.7959Z" fill="#EF4946"/>
<path d="M41.9613 43.7959H38.0767V47.2212H41.9613V43.7959Z" fill="white"/>
<path d="M38.0767 43.7959H34.192V47.2212H38.0767V43.7959Z" fill="#FEFFFF"/>
<path d="M34.192 43.7959H30.3074V47.2212H34.192V43.7959Z" fill="white"/>
<path d="M30.3074 43.7959H26.4227V47.2212H30.3074V43.7959Z" fill="white"/>
<path d="M26.4227 43.7959H22.538V47.2212H26.4227V43.7959Z" fill="white"/>
<path d="M22.538 43.7959H18.6534V47.2212H22.538V43.7959Z" fill="#311715"/>
<path d="M18.6534 43.7959H14.7687V47.2212H18.6534V43.7959Z" fill="#C96B6D"/>
<path d="M14.7687 43.7959H10.884V47.2212H14.7687V43.7959Z" fill="#BA7B83"/>
<path d="M10.8841 43.7959H6.99939V47.2212H10.8841V43.7959Z" fill="#060809"/>
<path d="M104.116 40.3706H100.231V43.7959H104.116V40.3706Z" fill="#230E10"/>
<path d="M100.231 40.3706H96.3466V43.7959H100.231V40.3706Z" fill="#C26E6B"/>
<path d="M96.3466 40.3706H92.462V43.7959H96.3466V40.3706Z" fill="#090A0B"/>
<path d="M92.4619 40.3706H88.5773V43.7959H92.4619V40.3706Z" fill="#F8F9F9"/>
<path d="M88.5773 40.3706H84.6926V43.7959H88.5773V40.3706Z" fill="white"/>
<path d="M84.6926 40.3706H80.808V43.7959H84.6926V40.3706Z" fill="white"/>
<path d="M80.808 40.3706H76.9233V43.7959H80.808V40.3706Z" fill="white"/>
<path d="M76.9233 40.3706H73.0386V43.7959H76.9233V40.3706Z" fill="#EF4946"/>
<path d="M73.0387 40.3706H69.154V43.7959H73.0387V40.3706Z" fill="#F26C6F"/>
<path d="M69.154 40.3706H65.2693V43.7959H69.154V40.3706Z" fill="#F26D6C"/>
<path d="M65.2693 40.3706H61.3846V43.7959H65.2693V40.3706Z" fill="#F26E71"/>
<path d="M61.3847 40.3706H57.5V43.7959H61.3847V40.3706Z" fill="#F26C6F"/>
<path d="M57.5 40.3706H53.6154V43.7959H57.5V40.3706Z" fill="#F26C6C"/>
<path d="M53.6153 40.3706H49.7307V43.7959H53.6153V40.3706Z" fill="#F26E6D"/>
<path d="M49.7307 40.3706H45.846V43.7959H49.7307V40.3706Z" fill="#F16062"/>
<path d="M45.846 40.3706H41.9614V43.7959H45.846V40.3706Z" fill="#EF4946"/>
<path d="M41.9613 40.3706H38.0767V43.7959H41.9613V40.3706Z" fill="white"/>
<path d="M38.0767 40.3706H34.192V43.7959H38.0767V40.3706Z" fill="white"/>
<path d="M34.192 40.3706H30.3074V43.7959H34.192V40.3706Z" fill="white"/>
<path d="M30.3074 40.3706H26.4227V43.7959H30.3074V40.3706Z" fill="white"/>
<path d="M26.4227 40.3706H22.538V43.7959H26.4227V40.3706Z" fill="white"/>
<path d="M22.538 40.3706H18.6534V43.7959H22.538V40.3706Z" fill="#341617"/>
<path d="M18.6534 40.3706H14.7687V43.7959H18.6534V40.3706Z" fill="#C46A6C"/>
<path d="M14.7687 40.3706H10.884V43.7959H14.7687V40.3706Z" fill="#170D0F"/>
<path d="M104.116 36.9453H100.231V40.3706H104.116V36.9453Z" fill="#201011"/>
<path d="M100.231 36.9453H96.3466V40.3706H100.231V36.9453Z" fill="#AA6C69"/>
<path d="M96.3466 36.9453H92.462V40.3706H96.3466V36.9453Z" fill="#090A0B"/>
<path d="M92.4619 36.9453H88.5773V40.3706H92.4619V36.9453Z" fill="#F8F9F9"/>
<path d="M88.5773 36.9453H84.6926V40.3706H88.5773V36.9453Z" fill="white"/>
<path d="M84.6926 36.9453H80.808V40.3706H84.6926V36.9453Z" fill="white"/>
<path d="M80.808 36.9453H76.9233V40.3706H80.808V36.9453Z" fill="white"/>
<path d="M76.9233 36.9453H73.0386V40.3706H76.9233V36.9453Z" fill="#EF4946"/>
<path d="M73.0387 36.9453H69.154V40.3706H73.0387V36.9453Z" fill="#F26C6F"/>
<path d="M69.154 36.9453H65.2693V40.3706H69.154V36.9453Z" fill="#F26B69"/>
<path d="M65.2693 36.9453H61.3846V40.3706H65.2693V36.9453Z" fill="#F16A70"/>
<path d="M61.3847 36.9453H57.5V40.3706H61.3847V36.9453Z" fill="#EF4946"/>
<path d="M57.5 36.9453H53.6154V40.3706H57.5V36.9453Z" fill="#F26D6D"/>
<path d="M53.6153 36.9453H49.7307V40.3706H53.6153V36.9453Z" fill="#F16A6C"/>
<path d="M49.7307 36.9453H45.846V40.3706H49.7307V36.9453Z" fill="#EC6462"/>
<path d="M45.846 36.9453H41.9614V40.3706H45.846V36.9453Z" fill="#EF4946"/>
<path d="M41.9613 36.9453H38.0767V40.3706H41.9613V36.9453Z" fill="white"/>
<path d="M38.0767 36.9453H34.192V40.3706H38.0767V36.9453Z" fill="white"/>
<path d="M34.192 36.9453H30.3074V40.3706H34.192V36.9453Z" fill="white"/>
<path d="M30.3074 36.9453H26.4227V40.3706H30.3074V36.9453Z" fill="white"/>
<path d="M26.4227 36.9453H22.538V40.3706H26.4227V36.9453Z" fill="white"/>
<path d="M22.538 36.9453H18.6534V40.3706H22.538V36.9453Z" fill="#2E1515"/>
<path d="M18.6534 36.9453H14.7687V40.3706H18.6534V36.9453Z" fill="#AF6C6C"/>
<path d="M14.7687 36.9453H10.884V40.3706H14.7687V36.9453Z" fill="#181315"/>
<path d="M100.231 33.52H96.3466V36.9453H100.231V33.52Z" fill="#070909"/>
<path d="M96.3466 33.52H92.462V36.9453H96.3466V33.52Z" fill="#070909"/>
<path d="M92.4619 33.52H88.5773V36.9453H92.4619V33.52Z" fill="#F8F9F9"/>
<path d="M88.5773 33.52H84.6926V36.9453H88.5773V33.52Z" fill="white"/>
<path d="M84.6926 33.52H80.808V36.9453H84.6926V33.52Z" fill="white"/>
<path d="M80.808 33.52H76.9233V36.9453H80.808V33.52Z" fill="white"/>
<path d="M76.9233 33.52H73.0386V36.9453H76.9233V33.52Z" fill="#FFFEFC"/>
<path d="M73.0387 33.52H69.154V36.9453H73.0387V33.52Z" fill="#EF4946"/>
<path d="M69.154 33.52H65.2693V36.9453H69.154V33.52Z" fill="#EF4946"/>
<path d="M65.2693 33.52H61.3846V36.9453H65.2693V33.52Z" fill="#EF4946"/>
<path d="M61.3847 33.52H57.5V36.9453H61.3847V33.52Z" fill="#FFFBFD"/>
<path d="M57.5 33.52H53.6154V36.9453H57.5V33.52Z" fill="#EF4946"/>
<path d="M53.6153 33.52H49.7307V36.9453H53.6153V33.52Z" fill="#EF4946"/>
<path d="M49.7307 33.52H45.846V36.9453H49.7307V33.52Z" fill="#EF4946"/>
<path d="M45.846 33.52H41.9614V36.9453H45.846V33.52Z" fill="#FDFEFF"/>
<path d="M41.9613 33.52H38.0767V36.9453H41.9613V33.52Z" fill="white"/>
<path d="M38.0767 33.52H34.192V36.9453H38.0767V33.52Z" fill="white"/>
<path d="M34.192 33.52H30.3074V36.9453H34.192V33.52Z" fill="white"/>
<path d="M30.3074 33.52H26.4227V36.9453H30.3074V33.52Z" fill="white"/>
<path d="M26.4227 33.52H22.538V36.9453H26.4227V33.52Z" fill="white"/>
<path d="M22.538 33.52H18.6534V36.9453H22.538V33.52Z" fill="#070909"/>
<path d="M18.6534 33.52H14.7687V36.9453H18.6534V33.52Z" fill="#090A0A"/>
<path d="M96.3466 30.0918H92.462V33.5171H96.3466V30.0918Z" fill="#070909"/>
<path d="M92.4619 30.0918H88.5773V33.5171H92.4619V30.0918Z" fill="#F8F9F9"/>
<path d="M88.5773 30.0918H84.6926V33.5171H88.5773V30.0918Z" fill="white"/>
<path d="M84.6926 30.0918H80.808V33.5171H84.6926V30.0918Z" fill="white"/>
<path d="M80.808 30.0918H76.9233V33.5171H80.808V30.0918Z" fill="white"/>
<path d="M76.9233 30.0918H73.0386V33.5171H76.9233V30.0918Z" fill="white"/>
<path d="M73.0387 30.0918H69.154V33.5171H73.0387V30.0918Z" fill="#FDFEFF"/>
<path d="M69.154 30.0918H65.2693V33.5171H69.154V30.0918Z" fill="white"/>
<path d="M65.2693 30.0918H61.3846V33.5171H65.2693V30.0918Z" fill="white"/>
<path d="M61.3847 30.0918H57.5V33.5171H61.3847V30.0918Z" fill="#FEFFFF"/>
<path d="M57.5 30.0918H53.6154V33.5171H57.5V30.0918Z" fill="white"/>
<path d="M53.6153 30.0918H49.7307V33.5171H53.6153V30.0918Z" fill="white"/>
<path d="M49.7307 30.0918H45.846V33.5171H49.7307V30.0918Z" fill="white"/>
<path d="M45.846 30.0918H41.9614V33.5171H45.846V30.0918Z" fill="white"/>
<path d="M41.9613 30.0918H38.0767V33.5171H41.9613V30.0918Z" fill="white"/>
<path d="M38.0767 30.0918H34.192V33.5171H38.0767V30.0918Z" fill="white"/>
<path d="M34.192 30.0918H30.3074V33.5171H34.192V30.0918Z" fill="white"/>
<path d="M30.3074 30.0918H26.4227V33.5171H30.3074V30.0918Z" fill="white"/>
<path d="M26.4227 30.0918H22.538V33.5171H26.4227V30.0918Z" fill="white"/>
<path d="M22.538 30.0918H18.6534V33.5171H22.538V30.0918Z" fill="#323231"/>
<path d="M96.3466 26.666H92.462V30.0913H96.3466V26.666Z" fill="#070909"/>
<path d="M92.4619 26.666H88.5773V30.0913H92.4619V26.666Z" fill="#F8F9F9"/>
<path d="M88.5773 26.666H84.6926V30.0913H88.5773V26.666Z" fill="white"/>
<path d="M84.6926 26.666H80.808V30.0913H84.6926V26.666Z" fill="white"/>
<path d="M80.808 26.666H76.9233V30.0913H80.808V26.666Z" fill="white"/>
<path d="M76.9233 26.666H73.0386V30.0913H76.9233V26.666Z" fill="white"/>
<path d="M73.0387 26.666H69.154V30.0913H73.0387V26.666Z" fill="white"/>
<path d="M69.154 26.666H65.2693V30.0913H69.154V26.666Z" fill="white"/>
<path d="M65.2693 26.666H61.3846V30.0913H65.2693V26.666Z" fill="white"/>
<path d="M61.3847 26.666H57.5V30.0913H61.3847V26.666Z" fill="white"/>
<path d="M57.5 26.666H53.6154V30.0913H57.5V26.666Z" fill="white"/>
<path d="M53.6153 26.666H49.7307V30.0913H53.6153V26.666Z" fill="white"/>
<path d="M49.7307 26.666H45.846V30.0913H49.7307V26.666Z" fill="white"/>
<path d="M45.846 26.666H41.9614V30.0913H45.846V26.666Z" fill="white"/>
<path d="M41.9613 26.666H38.0767V30.0913H41.9613V26.666Z" fill="white"/>
<path d="M38.0767 26.666H34.192V30.0913H38.0767V26.666Z" fill="white"/>
<path d="M34.192 26.666H30.3074V30.0913H34.192V26.666Z" fill="white"/>
<path d="M30.3074 26.666H26.4227V30.0913H30.3074V26.666Z" fill="#FDFEFF"/>
<path d="M26.4227 26.666H22.538V30.0913H26.4227V26.666Z" fill="white"/>
<path d="M22.538 26.666H18.6534V30.0913H22.538V26.666Z" fill="#323231"/>
<path d="M96.3466 23.2407H92.462V26.666H96.3466V23.2407Z" fill="#070808"/>
<path d="M92.4619 23.2407H88.5773V26.666H92.4619V23.2407Z" fill="#F7F9F9"/>
<path d="M88.5773 23.2407H84.6926V26.666H88.5773V23.2407Z" fill="white"/>
<path d="M84.6926 23.2407H80.808V26.666H84.6926V23.2407Z" fill="white"/>
<path d="M80.808 23.2407H76.9233V26.666H80.808V23.2407Z" fill="white"/>
<path d="M76.9233 23.2407H73.0386V26.666H76.9233V23.2407Z" fill="white"/>
<path d="M73.0387 23.2407H69.154V26.666H73.0387V23.2407Z" fill="white"/>
<path d="M69.154 23.2407H65.2693V26.666H69.154V23.2407Z" fill="white"/>
<path d="M65.2693 23.2407H61.3846V26.666H65.2693V23.2407Z" fill="white"/>
<path d="M61.3847 23.2407H57.5V26.666H61.3847V23.2407Z" fill="white"/>
<path d="M57.5 23.2407H53.6154V26.666H57.5V23.2407Z" fill="white"/>
<path d="M53.6153 23.2407H49.7307V26.666H53.6153V23.2407Z" fill="white"/>
<path d="M49.7307 23.2407H45.846V26.666H49.7307V23.2407Z" fill="white"/>
<path d="M45.846 23.2407H41.9614V26.666H45.846V23.2407Z" fill="white"/>
<path d="M41.9613 23.2407H38.0767V26.666H41.9613V23.2407Z" fill="white"/>
<path d="M38.0767 23.2407H34.192V26.666H38.0767V23.2407Z" fill="white"/>
<path d="M34.192 23.2407H30.3074V26.666H34.192V23.2407Z" fill="white"/>
<path d="M30.3074 23.2407H26.4227V26.666H30.3074V23.2407Z" fill="#F9FBFC"/>
<path d="M26.4227 23.2407H22.538V26.666H26.4227V23.2407Z" fill="white"/>
<path d="M22.538 23.2407H18.6534V26.666H22.538V23.2407Z" fill="#323231"/>
<path d="M96.3466 19.8154H92.462V23.2407H96.3466V19.8154Z" fill="#070909"/>
<path d="M92.4619 19.8154H88.5773V23.2407H92.4619V19.8154Z" fill="#070909"/>
<path d="M88.5773 19.8154H84.6926V23.2407H88.5773V19.8154Z" fill="#070909"/>
<path d="M84.6926 19.8154H80.808V23.2407H84.6926V19.8154Z" fill="#070909"/>
<path d="M80.808 19.8154H76.9233V23.2407H80.808V19.8154Z" fill="#070909"/>
<path d="M76.9233 19.8154H73.0386V23.2407H76.9233V19.8154Z" fill="#060809"/>
<path d="M73.0387 19.8154H69.154V23.2407H73.0387V19.8154Z" fill="#070909"/>
<path d="M69.154 19.8154H65.2693V23.2407H69.154V19.8154Z" fill="#070909"/>
<path d="M65.2693 19.8154H61.3846V23.2407H65.2693V19.8154Z" fill="#070909"/>
<path d="M61.3847 19.8154H57.5V23.2407H61.3847V19.8154Z" fill="#070909"/>
<path d="M57.5 19.8154H53.6154V23.2407H57.5V19.8154Z" fill="#070909"/>
<path d="M53.6153 19.8154H49.7307V23.2407H53.6153V19.8154Z" fill="#070909"/>
<path d="M49.7307 19.8154H45.846V23.2407H49.7307V19.8154Z" fill="#070909"/>
<path d="M45.846 19.8154H41.9614V23.2407H45.846V19.8154Z" fill="#070909"/>
<path d="M41.9613 19.8154H38.0767V23.2407H41.9613V19.8154Z" fill="#070909"/>
<path d="M38.0767 19.8154H34.192V23.2407H38.0767V19.8154Z" fill="#070909"/>
<path d="M34.192 19.8154H30.3074V23.2407H34.192V19.8154Z" fill="#070909"/>
<path d="M30.3074 19.8154H26.4227V23.2407H30.3074V19.8154Z" fill="#070909"/>
<path d="M26.4227 19.8154H22.538V23.2407H26.4227V19.8154Z" fill="#070909"/>
<path d="M22.538 19.8154H18.6534V23.2407H22.538V19.8154Z" fill="#323231"/>
<path d="M80.808 16.3901H76.9233V19.8154H80.808V16.3901Z" fill="#333333"/>
<path d="M76.9233 16.3901H73.0386V19.8154H76.9233V16.3901Z" fill="#090808"/>
<path d="M73.0387 16.3901H69.154V19.8154H73.0387V16.3901Z" fill="#A76B70"/>
<path d="M69.154 16.3901H65.2693V19.8154H69.154V16.3901Z" fill="#A96C6D"/>
<path d="M65.2693 16.3901H61.3846V19.8154H65.2693V16.3901Z" fill="#A86C6A"/>
<path d="M61.3847 16.3901H57.5V19.8154H61.3847V16.3901Z" fill="#A86C6A"/>
<path d="M57.5 16.3901H53.6154V19.8154H57.5V16.3901Z" fill="#A56C68"/>
<path d="M53.6153 16.3901H49.7307V19.8154H53.6153V16.3901Z" fill="#AA6B6A"/>
<path d="M49.7307 16.3901H45.846V19.8154H49.7307V16.3901Z" fill="#A86A6A"/>
<path d="M45.846 16.3901H41.9614V19.8154H45.846V16.3901Z" fill="#A26E70"/>
<path d="M41.9613 16.3901H38.0767V19.8154H41.9613V16.3901Z" fill="#070909"/>
<path d="M73.0387 12.9619H69.154V16.3872H73.0387V12.9619Z" fill="#060809"/>
<path d="M69.154 12.9619H65.2693V16.3872H69.154V12.9619Z" fill="#A86C6A"/>
<path d="M65.2693 12.9619H61.3846V16.3872H65.2693V12.9619Z" fill="#A86C6A"/>
<path d="M61.3847 12.9619H57.5V16.3872H61.3847V12.9619Z" fill="#A86C6A"/>
<path d="M57.5 12.9619H53.6154V16.3872H57.5V12.9619Z" fill="#A86C6A"/>
<path d="M53.6153 12.9619H49.7307V16.3872H53.6153V12.9619Z" fill="#A86C6A"/>
<path d="M49.7307 12.9619H45.846V16.3872H49.7307V12.9619Z" fill="#A86C6A"/>
<path d="M45.846 12.9619H41.9614V16.3872H45.846V12.9619Z" fill="#070909"/>
<path d="M69.154 9.53662H65.2693V12.9619H69.154V9.53662Z" fill="#070909"/>
<path d="M65.2693 9.53662H61.3846V12.9619H65.2693V9.53662Z" fill="#A86C6A"/>
<path d="M61.3847 9.53662H57.5V12.9619H61.3847V9.53662Z" fill="#A86C6A"/>
<path d="M57.5 9.53662H53.6154V12.9619H57.5V9.53662Z" fill="#A86C6A"/>
<path d="M53.6153 9.53662H49.7307V12.9619H53.6153V9.53662Z" fill="#070909"/>
<path d="M49.7307 9.53662H45.846V12.9619H49.7307V9.53662Z" fill="#070909"/>
<path d="M65.2693 6.11133H61.3846V9.53664H65.2693V6.11133Z" fill="#070909"/>
<path d="M61.3847 6.11133H57.5V9.53664H61.3847V6.11133Z" fill="#070909"/>
<path d="M57.5 6.11133H53.6154V9.53664H57.5V6.11133Z" fill="#070909"/>
</g>
<defs>
<clipPath id="clip0_988_2752">
<rect width="115" height="115" fill="white"/>
</clipPath>
</defs>
</svg>
