<svg width="101" height="112" viewBox="0 0 101 112" fill="none" xmlns="http://www.w3.org/2000/svg">
<g clip-path="url(#clip0_1013_5938)">
<path d="M17.4964 94.4385H14.0223V97.9329H10.5482V101.427H14.0223V104.922H17.4964V101.427H20.9704V97.9329H17.4964V94.4385Z" fill="#070909"/>
<path d="M97.3999 83.9551H93.9258V87.4495H97.3999V83.9551Z" fill="#070909"/>
<path d="M90.4518 83.9551H86.9777V87.4495H90.4518V83.9551Z" fill="#070909"/>
<path d="M17.4963 83.9551H14.0223V87.4495H17.4963V83.9551Z" fill="#070909"/>
<path d="M93.9258 80.4609H90.4518V83.9553H93.9258V80.4609Z" fill="#070909"/>
<path d="M97.3999 76.9663H93.9258V80.4607H97.3999V76.9663Z" fill="#070909"/>
<path d="M90.4518 76.9663H86.9777V80.4607H90.4518V76.9663Z" fill="#070909"/>
<path d="M7.07417 49.0112H3.6001V52.5056H7.07417V49.0112Z" fill="#070909"/>
<path d="M97.3999 42.0225H93.9258V45.5169H97.3999V42.0225Z" fill="#070909"/>
<path d="M93.9259 24.5506V21.0562H90.4518V24.5506H86.9777V28.045H90.4518V31.5394H93.9259V28.045H97.3999V24.5506H93.9259Z" fill="#070909"/>
<path d="M10.5482 24.5504H14.0223V28.0448H17.4964V24.5504H20.9704V21.056H24.4445V17.5616H20.9704V14.0672H17.4964V10.5728H14.0223V14.0672H10.5482V17.5616H7.07416V21.056H10.5482V24.5504Z" fill="#070909"/>
<path d="M21.0964 91.0335V90.8543V80.3711H10.4222V90.8543V91.0335V94.3487H6.94812V105.011H10.4222V108.505H21.0964V105.011H24.5705V94.3487H21.0964V91.0335Z" fill="white"/>
<path d="M10.6742 45.4272H0V56.0896H10.6742V45.4272Z" fill="white"/>
<path d="M101 38.4385H90.3258V49.1009H101V38.4385Z" fill="white"/>
<path d="M97.5259 20.9664V17.472H87.1037V3.4944H83.6297V0H69.4814V3.4944H66.0073V10.4832H62.5332V17.472H59.3112V10.4832H55.8371V3.4944H52.363V0H38.2147V3.4944H34.7407V21.1456H38.2147V24.4608H34.7407V27.9552H31.2666V31.4496H21.0964V28.1344H24.5705V24.64H28.0445V13.9776H24.5705V10.4832H21.0964V6.9888H10.4222V10.4832H6.94813V13.9776H3.47406V24.64H6.94813V28.1344H10.4222V31.6288H20.8444V34.944H17.3703V73.5616H20.8444V77.056H24.3185V84.0448H27.7925V112H73.2074V84.0448H76.6815V80.5504H80.1556V77.056H83.3776V80.3712V84.0448V91.0336H90.3258H94.0519H101V84.0448V80.3712V73.3824H94.0519H90.3258H83.6297V48.9216H80.1556V35.1232H83.6297V31.6288H86.8517V35.1232H97.5259V31.6288H101V20.9664H97.5259Z" fill="white"/>
<path d="M69.6074 104.921H66.1334V108.416H69.6074V104.921Z" fill="#070808"/>
<path d="M66.1334 104.921H62.6593V108.416H66.1334V104.921Z" fill="#FBE8BB"/>
<path d="M62.6593 104.921H59.1852V108.416H62.6593V104.921Z" fill="#FFE1B2"/>
<path d="M59.1852 104.921H55.7111V108.416H59.1852V104.921Z" fill="#FFDFB3"/>
<path d="M55.7111 104.921H52.2371V108.416H55.7111V104.921Z" fill="#FEE2B4"/>
<path d="M52.2371 104.921H48.763V108.416H52.2371V104.921Z" fill="#FFE1B2"/>
<path d="M48.763 104.921H45.2889V108.416H48.763V104.921Z" fill="#FFDFB3"/>
<path d="M45.2889 104.921H41.8149V108.416H45.2889V104.921Z" fill="#FFDFB3"/>
<path d="M41.8148 104.921H38.3408V108.416H41.8148V104.921Z" fill="#FDE2B1"/>
<path d="M38.3408 104.921H34.8667V108.416H38.3408V104.921Z" fill="#FDE7BC"/>
<path d="M34.8667 104.921H31.3926V108.416H34.8667V104.921Z" fill="#070909"/>
<path d="M69.6074 101.427H66.1334V104.922H69.6074V101.427Z" fill="#070909"/>
<path d="M66.1334 101.427H62.6593V104.922H66.1334V101.427Z" fill="#FBE8BD"/>
<path d="M62.6593 101.427H59.1852V104.922H62.6593V101.427Z" fill="#FFE0B1"/>
<path d="M59.1852 101.427H55.7111V104.922H59.1852V101.427Z" fill="#FFE0B1"/>
<path d="M55.7111 101.427H52.2371V104.922H55.7111V101.427Z" fill="#FFE0B1"/>
<path d="M52.2371 101.427H48.763V104.922H52.2371V101.427Z" fill="#FFE0B1"/>
<path d="M48.763 101.427H45.2889V104.922H48.763V101.427Z" fill="#FFE1B2"/>
<path d="M45.2889 101.427H41.8149V104.922H45.2889V101.427Z" fill="#FFE0B1"/>
<path d="M41.8148 101.427H38.3408V104.922H41.8148V101.427Z" fill="#FFE0B1"/>
<path d="M38.3408 101.427H34.8667V104.922H38.3408V101.427Z" fill="#FBE6BB"/>
<path d="M34.8667 101.427H31.3926V104.922H34.8667V101.427Z" fill="#070909"/>
<path d="M17.4963 101.427H14.0223V104.922H17.4963V101.427Z" fill="#FEDD37"/>
<path d="M69.6074 97.9326H66.1334V101.427H69.6074V97.9326Z" fill="#070909"/>
<path d="M66.1334 97.9326H62.6593V101.427H66.1334V97.9326Z" fill="#FBE8BD"/>
<path d="M62.6593 97.9326H59.1852V101.427H62.6593V97.9326Z" fill="#FFE0B1"/>
<path d="M59.1852 97.9326H55.7111V101.427H59.1852V97.9326Z" fill="#FFE0B1"/>
<path d="M55.7111 97.9326H52.2371V101.427H55.7111V97.9326Z" fill="#FFE0B1"/>
<path d="M52.2371 97.9326H48.763V101.427H52.2371V97.9326Z" fill="#FFE0B1"/>
<path d="M48.763 97.9326H45.2889V101.427H48.763V97.9326Z" fill="#FFE0B1"/>
<path d="M45.2889 97.9326H41.8149V101.427H45.2889V97.9326Z" fill="#FFE0B1"/>
<path d="M41.8148 97.9326H38.3408V101.427H41.8148V97.9326Z" fill="#FFE0B1"/>
<path d="M38.3408 97.9326H34.8667V101.427H38.3408V97.9326Z" fill="#FBE6BB"/>
<path d="M34.8667 97.9326H31.3926V101.427H34.8667V97.9326Z" fill="#070909"/>
<path d="M20.9705 97.9326H17.4964V101.427H20.9705V97.9326Z" fill="#FEDD37"/>
<path d="M17.4963 97.9326H14.0223V101.427H17.4963V97.9326Z" fill="#FEDD37"/>
<path d="M14.0223 97.9326H10.5482V101.427H14.0223V97.9326Z" fill="#FEDD37"/>
<path d="M69.6074 94.4385H66.1334V97.9329H69.6074V94.4385Z" fill="#070909"/>
<path d="M66.1334 94.4385H62.6593V97.9329H66.1334V94.4385Z" fill="#FBE8BD"/>
<path d="M62.6593 94.4385H59.1852V97.9329H62.6593V94.4385Z" fill="#FFE0B1"/>
<path d="M59.1852 94.4385H55.7111V97.9329H59.1852V94.4385Z" fill="#FFE0B1"/>
<path d="M55.7111 94.4385H52.2371V97.9329H55.7111V94.4385Z" fill="#FFE0B1"/>
<path d="M52.2371 94.4385H48.763V97.9329H52.2371V94.4385Z" fill="#FFE0B1"/>
<path d="M48.763 94.4385H45.2889V97.9329H48.763V94.4385Z" fill="#FFE0B1"/>
<path d="M45.2889 94.4385H41.8149V97.9329H45.2889V94.4385Z" fill="#FFE0B1"/>
<path d="M41.8148 94.4385H38.3408V97.9329H41.8148V94.4385Z" fill="#FFE2AF"/>
<path d="M38.3408 94.4385H34.8667V97.9329H38.3408V94.4385Z" fill="#FBE6BC"/>
<path d="M34.8667 94.4385H31.3926V97.9329H34.8667V94.4385Z" fill="#070909"/>
<path d="M17.4963 94.4385H14.0223V97.9329H17.4963V94.4385Z" fill="#FEDD37"/>
<path d="M69.6074 90.9438H66.1334V94.4382H69.6074V90.9438Z" fill="#07090A"/>
<path d="M66.1334 90.9438H62.6593V94.4382H66.1334V90.9438Z" fill="#FBE8BD"/>
<path d="M62.6593 90.9438H59.1852V94.4382H62.6593V90.9438Z" fill="#FFE0B1"/>
<path d="M59.1852 90.9438H55.7111V94.4382H59.1852V90.9438Z" fill="#FFE0B1"/>
<path d="M55.7111 90.9438H52.2371V94.4382H55.7111V90.9438Z" fill="#FFE0B1"/>
<path d="M52.2371 90.9438H48.763V94.4382H52.2371V90.9438Z" fill="#FFE0B1"/>
<path d="M48.763 90.9438H45.2889V94.4382H48.763V90.9438Z" fill="#FFE0B1"/>
<path d="M45.2889 90.9438H41.8149V94.4382H45.2889V90.9438Z" fill="#FFE0AF"/>
<path d="M41.8148 90.9438H38.3408V94.4382H41.8148V90.9438Z" fill="#FEE2B4"/>
<path d="M38.3408 90.9438H34.8667V94.4382H38.3408V90.9438Z" fill="#FBE6BB"/>
<path d="M34.8667 90.9438H31.3926V94.4382H34.8667V90.9438Z" fill="#070909"/>
<path d="M69.6074 87.4497H66.1334V90.9441H69.6074V87.4497Z" fill="#07090A"/>
<path d="M66.1334 87.4497H62.6593V90.9441H66.1334V87.4497Z" fill="#FCE8BB"/>
<path d="M62.6593 87.4497H59.1852V90.9441H62.6593V87.4497Z" fill="#FFE1B1"/>
<path d="M59.1852 87.4497H55.7111V90.9441H59.1852V87.4497Z" fill="#FFE0B2"/>
<path d="M55.7111 87.4497H52.2371V90.9441H55.7111V87.4497Z" fill="#FFE0B1"/>
<path d="M52.2371 87.4497H48.763V90.9441H52.2371V87.4497Z" fill="#FFE0B1"/>
<path d="M48.763 87.4497H45.2889V90.9441H48.763V87.4497Z" fill="#FFE1B2"/>
<path d="M45.2889 87.4497H41.8149V90.9441H45.2889V87.4497Z" fill="#FFDFB1"/>
<path d="M41.8148 87.4497H38.3408V90.9441H41.8148V87.4497Z" fill="#FFE0AF"/>
<path d="M38.3408 87.4497H34.8667V90.9441H38.3408V87.4497Z" fill="#FBE5BC"/>
<path d="M34.8667 87.4497H31.3926V90.9441H34.8667V87.4497Z" fill="#070909"/>
<path d="M97.4 83.9551H93.9259V87.4495H97.4V83.9551Z" fill="#FEDD37"/>
<path d="M90.4518 83.9551H86.9778V87.4495H90.4518V83.9551Z" fill="#FEDD37"/>
<path d="M69.6074 83.9551H66.1334V87.4495H69.6074V83.9551Z" fill="#070808"/>
<path d="M66.1334 83.9551H62.6593V87.4495H66.1334V83.9551Z" fill="#070808"/>
<path d="M62.6593 83.9551H59.1852V87.4495H62.6593V83.9551Z" fill="#080909"/>
<path d="M59.1852 83.9551H55.7111V87.4495H59.1852V83.9551Z" fill="#FFE1B2"/>
<path d="M55.7111 83.9551H52.2371V87.4495H55.7111V83.9551Z" fill="#FFE0B1"/>
<path d="M52.2371 83.9551H48.763V87.4495H52.2371V83.9551Z" fill="#FFE0B1"/>
<path d="M48.763 83.9551H45.2889V87.4495H48.763V83.9551Z" fill="#FFE0B1"/>
<path d="M45.2889 83.9551H41.8149V87.4495H45.2889V83.9551Z" fill="#FFDFAE"/>
<path d="M41.8148 83.9551H38.3408V87.4495H41.8148V83.9551Z" fill="#090909"/>
<path d="M38.3408 83.9551H34.8667V87.4495H38.3408V83.9551Z" fill="#080A09"/>
<path d="M34.8667 83.9551H31.3926V87.4495H34.8667V83.9551Z" fill="#070909"/>
<path d="M17.4963 83.9551H14.0223V87.4495H17.4963V83.9551Z" fill="#FEDD37"/>
<path d="M93.9259 80.4609H90.4518V83.9553H93.9259V80.4609Z" fill="#FEDD37"/>
<path d="M69.6074 80.4609H66.1334V83.9553H69.6074V80.4609Z" fill="#080909"/>
<path d="M66.1334 80.4609H62.6593V83.9553H66.1334V80.4609Z" fill="#FBEABF"/>
<path d="M62.6593 80.4609H59.1852V83.9553H62.6593V80.4609Z" fill="#FFE0B1"/>
<path d="M59.1852 80.4609H55.7111V83.9553H59.1852V80.4609Z" fill="#FFE0B1"/>
<path d="M55.7111 80.4609H52.2371V83.9553H55.7111V80.4609Z" fill="#FFE0B1"/>
<path d="M52.2371 80.4609H48.763V83.9553H52.2371V80.4609Z" fill="#FFE0B1"/>
<path d="M48.763 80.4609H45.2889V83.9553H48.763V80.4609Z" fill="#FFE0B1"/>
<path d="M45.2889 80.4609H41.8149V83.9553H45.2889V80.4609Z" fill="#FFE0B1"/>
<path d="M41.8148 80.4609H38.3408V83.9553H41.8148V80.4609Z" fill="#FFE0B1"/>
<path d="M38.3408 80.4609H34.8667V83.9553H38.3408V80.4609Z" fill="#FBE7B6"/>
<path d="M34.8667 80.4609H31.3926V83.9553H34.8667V80.4609Z" fill="#080A0A"/>
<path d="M97.4 76.9663H93.9259V80.4607H97.4V76.9663Z" fill="#FEDD37"/>
<path d="M90.4518 76.9663H86.9778V80.4607H90.4518V76.9663Z" fill="#FEDD37"/>
<path d="M73.0815 76.9663H69.6074V80.4607H73.0815V76.9663Z" fill="#070909"/>
<path d="M69.6074 76.9663H66.1334V80.4607H69.6074V76.9663Z" fill="#FDE5B9"/>
<path d="M66.1334 76.9663H62.6593V80.4607H66.1334V76.9663Z" fill="#FFE0B1"/>
<path d="M62.6593 76.9663H59.1852V80.4607H62.6593V76.9663Z" fill="#FFE1B2"/>
<path d="M59.1852 76.9663H55.7111V80.4607H59.1852V76.9663Z" fill="#FFE0B1"/>
<path d="M55.7111 76.9663H52.2371V80.4607H55.7111V76.9663Z" fill="#FFE0B1"/>
<path d="M52.2371 76.9663H48.763V80.4607H52.2371V76.9663Z" fill="#FFE0B1"/>
<path d="M48.763 76.9663H45.2889V80.4607H48.763V76.9663Z" fill="#FFE0B1"/>
<path d="M45.2889 76.9663H41.8149V80.4607H45.2889V76.9663Z" fill="#FFE0B1"/>
<path d="M41.8148 76.9663H38.3408V80.4607H41.8148V76.9663Z" fill="#FFE0B1"/>
<path d="M38.3408 76.9663H34.8667V80.4607H38.3408V76.9663Z" fill="#FFE0B1"/>
<path d="M34.8667 76.9663H31.3926V80.4607H34.8667V76.9663Z" fill="#FAE6B8"/>
<path d="M31.3926 76.9663H27.9186V80.4607H31.3926V76.9663Z" fill="#070909"/>
<path d="M76.5555 73.4722H73.0815V76.9666H76.5555V73.4722Z" fill="#070909"/>
<path d="M73.0815 73.4722H69.6074V76.9666H73.0815V73.4722Z" fill="#FBE6BB"/>
<path d="M69.6074 73.4722H66.1334V76.9666H69.6074V73.4722Z" fill="#FFE0B1"/>
<path d="M66.1334 73.4722H62.6593V76.9666H66.1334V73.4722Z" fill="#FFE0B1"/>
<path d="M62.6593 73.4722H59.1852V76.9666H62.6593V73.4722Z" fill="#FFE0B1"/>
<path d="M59.1852 73.4722H55.7111V76.9666H59.1852V73.4722Z" fill="#FFE0B1"/>
<path d="M55.7111 73.4722H52.2371V76.9666H55.7111V73.4722Z" fill="#FFE0B1"/>
<path d="M52.2371 73.4722H48.763V76.9666H52.2371V73.4722Z" fill="#FFE0B1"/>
<path d="M48.763 73.4722H45.2889V76.9666H48.763V73.4722Z" fill="#FFE0B1"/>
<path d="M45.2889 73.4722H41.8149V76.9666H45.2889V73.4722Z" fill="#FFE0B1"/>
<path d="M41.8148 73.4722H38.3408V76.9666H41.8148V73.4722Z" fill="#FFE0B1"/>
<path d="M38.3408 73.4722H34.8667V76.9666H38.3408V73.4722Z" fill="#FFE0B1"/>
<path d="M34.8667 73.4722H31.3926V76.9666H34.8667V73.4722Z" fill="#FCE4B5"/>
<path d="M31.3926 73.4722H27.9186V76.9666H31.3926V73.4722Z" fill="#070909"/>
<path d="M80.0296 69.9775H76.5555V73.4719H80.0296V69.9775Z" fill="#070909"/>
<path d="M76.5555 69.9775H73.0815V73.4719H76.5555V69.9775Z" fill="#FFE0B1"/>
<path d="M73.0815 69.9775H69.6074V73.4719H73.0815V69.9775Z" fill="#FEE2B4"/>
<path d="M69.6074 69.9775H66.1334V73.4719H69.6074V69.9775Z" fill="#FFE0B1"/>
<path d="M66.1334 69.9775H62.6593V73.4719H66.1334V69.9775Z" fill="#FFE0B1"/>
<path d="M62.6593 69.9775H59.1852V73.4719H62.6593V69.9775Z" fill="#FFE0B1"/>
<path d="M59.1852 69.9775H55.7111V73.4719H59.1852V69.9775Z" fill="#FFE0B1"/>
<path d="M55.7111 69.9775H52.2371V73.4719H55.7111V69.9775Z" fill="#FFE0B1"/>
<path d="M52.2371 69.9775H48.763V73.4719H52.2371V69.9775Z" fill="#FFE0B1"/>
<path d="M48.763 69.9775H45.2889V73.4719H48.763V69.9775Z" fill="#FFE0B1"/>
<path d="M45.2889 69.9775H41.8149V73.4719H45.2889V69.9775Z" fill="#FFE0B1"/>
<path d="M41.8148 69.9775H38.3408V73.4719H41.8148V69.9775Z" fill="#FFE0B1"/>
<path d="M38.3408 69.9775H34.8667V73.4719H38.3408V69.9775Z" fill="#FFE0B1"/>
<path d="M34.8667 69.9775H31.3926V73.4719H34.8667V69.9775Z" fill="#FFE0B1"/>
<path d="M31.3926 69.9775H27.9186V73.4719H31.3926V69.9775Z" fill="#FFE0B1"/>
<path d="M27.9186 69.9775H24.4445V73.4719H27.9186V69.9775Z" fill="#070909"/>
<path d="M80.0296 66.4834H76.5555V69.9778H80.0296V66.4834Z" fill="#070909"/>
<path d="M76.5555 66.4834H73.0815V69.9778H76.5555V66.4834Z" fill="#FFE0B1"/>
<path d="M73.0815 66.4834H69.6074V69.9778H73.0815V66.4834Z" fill="#FFE1B2"/>
<path d="M69.6074 66.4834H66.1334V69.9778H69.6074V66.4834Z" fill="#FFE0B1"/>
<path d="M66.1334 66.4834H62.6593V69.9778H66.1334V66.4834Z" fill="#FFE0B1"/>
<path d="M62.6593 66.4834H59.1852V69.9778H62.6593V66.4834Z" fill="#FFE0B1"/>
<path d="M59.1852 66.4834H55.7111V69.9778H59.1852V66.4834Z" fill="#FFE0B1"/>
<path d="M55.7111 66.4834H52.2371V69.9778H55.7111V66.4834Z" fill="#FFE0B1"/>
<path d="M52.2371 66.4834H48.763V69.9778H52.2371V66.4834Z" fill="#FFE0B1"/>
<path d="M48.763 66.4834H45.2889V69.9778H48.763V66.4834Z" fill="#FFE0B1"/>
<path d="M45.2889 66.4834H41.8149V69.9778H45.2889V66.4834Z" fill="#FFE0B1"/>
<path d="M41.8148 66.4834H38.3408V69.9778H41.8148V66.4834Z" fill="#FFE0B1"/>
<path d="M38.3408 66.4834H34.8667V69.9778H38.3408V66.4834Z" fill="#FFE0B1"/>
<path d="M34.8667 66.4834H31.3926V69.9778H34.8667V66.4834Z" fill="#FFE2AF"/>
<path d="M31.3926 66.4834H27.9186V69.9778H31.3926V66.4834Z" fill="#FFE0B4"/>
<path d="M27.9186 66.4834H24.4445V69.9778H27.9186V66.4834Z" fill="#FFE0B1"/>
<path d="M24.4445 66.4834H20.9705V69.9778H24.4445V66.4834Z" fill="#070909"/>
<path d="M80.0296 62.9888H76.5555V66.4832H80.0296V62.9888Z" fill="#070909"/>
<path d="M76.5555 62.9888H73.0815V66.4832H76.5555V62.9888Z" fill="#FFE0B1"/>
<path d="M73.0815 62.9888H69.6074V66.4832H73.0815V62.9888Z" fill="#FEE2B4"/>
<path d="M69.6074 62.9888H66.1334V66.4832H69.6074V62.9888Z" fill="#FFE0B1"/>
<path d="M66.1334 62.9888H62.6593V66.4832H66.1334V62.9888Z" fill="#FFE0B1"/>
<path d="M62.6593 62.9888H59.1852V66.4832H62.6593V62.9888Z" fill="#FDE2B3"/>
<path d="M59.1852 62.9888H55.7111V66.4832H59.1852V62.9888Z" fill="#0B0909"/>
<path d="M55.7111 62.9888H52.2371V66.4832H55.7111V62.9888Z" fill="#FFE1B2"/>
<path d="M52.2371 62.9888H48.763V66.4832H52.2371V62.9888Z" fill="#FFE0B1"/>
<path d="M48.763 62.9888H45.2889V66.4832H48.763V62.9888Z" fill="#FFE0B1"/>
<path d="M45.2889 62.9888H41.8149V66.4832H45.2889V62.9888Z" fill="#FFE1AF"/>
<path d="M41.8148 62.9888H38.3408V66.4832H41.8148V62.9888Z" fill="#FFE1B0"/>
<path d="M38.3408 62.9888H34.8667V66.4832H38.3408V62.9888Z" fill="#FFE1B0"/>
<path d="M34.8667 62.9888H31.3926V66.4832H34.8667V62.9888Z" fill="#FFE1B0"/>
<path d="M31.3926 62.9888H27.9186V66.4832H31.3926V62.9888Z" fill="#FFE0B4"/>
<path d="M27.9186 62.9888H24.4445V66.4832H27.9186V62.9888Z" fill="#FFE0B1"/>
<path d="M24.4445 62.9888H20.9705V66.4832H24.4445V62.9888Z" fill="#070909"/>
<path d="M80.0296 59.4941H76.5555V62.9885H80.0296V59.4941Z" fill="#070909"/>
<path d="M76.5555 59.4941H73.0815V62.9885H76.5555V59.4941Z" fill="#FFE0B1"/>
<path d="M73.0815 59.4941H69.6074V62.9885H73.0815V59.4941Z" fill="#FFE1B2"/>
<path d="M69.6074 59.4941H66.1334V62.9885H69.6074V59.4941Z" fill="#FFE0B1"/>
<path d="M66.1334 59.4941H62.6593V62.9885H66.1334V59.4941Z" fill="#FFE1B2"/>
<path d="M62.6593 59.4941H59.1852V62.9885H62.6593V59.4941Z" fill="#090909"/>
<path d="M59.1852 59.4941H55.7111V62.9885H59.1852V59.4941Z" fill="#070909"/>
<path d="M55.7111 59.4941H52.2371V62.9885H55.7111V59.4941Z" fill="#FFE0B3"/>
<path d="M52.2371 59.4941H48.763V62.9885H52.2371V59.4941Z" fill="#FFE0B1"/>
<path d="M48.763 59.4941H45.2889V62.9885H48.763V59.4941Z" fill="#FFE2B2"/>
<path d="M45.2889 59.4941H41.8149V62.9885H45.2889V59.4941Z" fill="#FFDFB3"/>
<path d="M41.8148 59.4941H38.3408V62.9885H41.8148V59.4941Z" fill="#070808"/>
<path d="M38.3408 59.4941H34.8667V62.9885H38.3408V59.4941Z" fill="#070808"/>
<path d="M34.8667 59.4941H31.3926V62.9885H34.8667V59.4941Z" fill="#0C0A0A"/>
<path d="M31.3926 59.4941H27.9186V62.9885H31.3926V59.4941Z" fill="#FFE0B4"/>
<path d="M27.9186 59.4941H24.4445V62.9885H27.9186V59.4941Z" fill="#FFE0B1"/>
<path d="M24.4445 59.4941H20.9705V62.9885H24.4445V59.4941Z" fill="#070909"/>
<path d="M80.0296 56H76.5555V59.4944H80.0296V56Z" fill="#070909"/>
<path d="M76.5555 56H73.0815V59.4944H76.5555V56Z" fill="#FFE0B1"/>
<path d="M73.0815 56H69.6074V59.4944H73.0815V56Z" fill="#FCE4AE"/>
<path d="M69.6074 56H66.1334V59.4944H69.6074V56Z" fill="#FFE1B1"/>
<path d="M66.1334 56H62.6593V59.4944H66.1334V56Z" fill="#0A090A"/>
<path d="M62.6593 56H59.1852V59.4944H62.6593V56Z" fill="#070808"/>
<path d="M59.1852 56H55.7111V59.4944H59.1852V56Z" fill="#FDE2B3"/>
<path d="M55.7111 56H52.2371V59.4944H55.7111V56Z" fill="#FBE1B6"/>
<path d="M52.2371 56H48.763V59.4944H52.2371V56Z" fill="#09080A"/>
<path d="M48.763 56H45.2889V59.4944H48.763V56Z" fill="#080A09"/>
<path d="M45.2889 56H41.8149V59.4944H45.2889V56Z" fill="#070909"/>
<path d="M41.8148 56H38.3408V59.4944H41.8148V56Z" fill="#FFE0B1"/>
<path d="M38.3408 56H34.8667V59.4944H38.3408V56Z" fill="#FFE1B2"/>
<path d="M34.8667 56H31.3926V59.4944H34.8667V56Z" fill="#F9E4B8"/>
<path d="M31.3926 56H27.9186V59.4944H31.3926V56Z" fill="#070909"/>
<path d="M27.9186 56H24.4445V59.4944H27.9186V56Z" fill="#FFE0B1"/>
<path d="M24.4445 56H20.9705V59.4944H24.4445V56Z" fill="#070909"/>
<path d="M80.0296 52.5054H76.5555V55.9998H80.0296V52.5054Z" fill="#070909"/>
<path d="M76.5555 52.5054H73.0815V55.9998H76.5555V52.5054Z" fill="#FFE0B1"/>
<path d="M73.0815 52.5054H69.6074V55.9998H73.0815V52.5054Z" fill="#080809"/>
<path d="M69.6074 52.5054H66.1334V55.9998H69.6074V52.5054Z" fill="#07090A"/>
<path d="M66.1334 52.5054H62.6593V55.9998H66.1334V52.5054Z" fill="#070909"/>
<path d="M62.6593 52.5054H59.1852V55.9998H62.6593V52.5054Z" fill="#070809"/>
<path d="M59.1852 52.5054H55.7111V55.9998H59.1852V52.5054Z" fill="#070909"/>
<path d="M55.7111 52.5054H52.2371V55.9998H55.7111V52.5054Z" fill="#07090A"/>
<path d="M52.2371 52.5054H48.763V55.9998H52.2371V52.5054Z" fill="#07090A"/>
<path d="M48.763 52.5054H45.2889V55.9998H48.763V52.5054Z" fill="#FDDFB4"/>
<path d="M45.2889 52.5054H41.8149V55.9998H45.2889V52.5054Z" fill="#080A09"/>
<path d="M41.8148 52.5054H38.3408V55.9998H41.8148V52.5054Z" fill="#090808"/>
<path d="M38.3408 52.5054H34.8667V55.9998H38.3408V52.5054Z" fill="#FFE0B1"/>
<path d="M34.8667 52.5054H31.3926V55.9998H34.8667V52.5054Z" fill="#F7E6BB"/>
<path d="M31.3926 52.5054H27.9186V55.9998H31.3926V52.5054Z" fill="#080A0A"/>
<path d="M27.9186 52.5054H24.4445V55.9998H27.9186V52.5054Z" fill="#070909"/>
<path d="M24.4445 52.5054H20.9705V55.9998H24.4445V52.5054Z" fill="#070909"/>
<path d="M76.5555 49.0112H73.0815V52.5056H76.5555V49.0112Z" fill="#070909"/>
<path d="M73.0815 49.0112H69.6074V52.5056H73.0815V49.0112Z" fill="#FFDFB1"/>
<path d="M69.6074 49.0112H66.1334V52.5056H69.6074V49.0112Z" fill="#FFDFB1"/>
<path d="M66.1334 49.0112H62.6593V52.5056H66.1334V49.0112Z" fill="#FFDFB1"/>
<path d="M62.6593 49.0112H59.1852V52.5056H62.6593V49.0112Z" fill="#FFDFB1"/>
<path d="M59.1852 49.0112H55.7111V52.5056H59.1852V49.0112Z" fill="#FEE2B3"/>
<path d="M55.7111 49.0112H52.2371V52.5056H55.7111V49.0112Z" fill="#070909"/>
<path d="M52.2371 49.0112H48.763V52.5056H52.2371V49.0112Z" fill="#FDE2B3"/>
<path d="M48.763 49.0112H45.2889V52.5056H48.763V49.0112Z" fill="#FFE0B2"/>
<path d="M45.2889 49.0112H41.8149V52.5056H45.2889V49.0112Z" fill="#FDE3AF"/>
<path d="M41.8148 49.0112H38.3408V52.5056H41.8148V49.0112Z" fill="#090909"/>
<path d="M38.3408 49.0112H34.8667V52.5056H38.3408V49.0112Z" fill="#FFDFAE"/>
<path d="M34.8667 49.0112H31.3926V52.5056H34.8667V49.0112Z" fill="#FFE0B1"/>
<path d="M31.3926 49.0112H27.9186V52.5056H31.3926V49.0112Z" fill="#FFE1B2"/>
<path d="M27.9186 49.0112H24.4445V52.5056H27.9186V49.0112Z" fill="#070909"/>
<path d="M24.4445 49.0112H20.9705V52.5056H24.4445V49.0112Z" fill="#070909"/>
<path d="M7.07417 49.0112H3.6001V52.5056H7.07417V49.0112Z" fill="#FEDD37"/>
<path d="M76.5555 45.5166H73.0815V49.011H76.5555V45.5166Z" fill="#070909"/>
<path d="M73.0815 45.5166H69.6074V49.011H73.0815V45.5166Z" fill="#FFE0B1"/>
<path d="M69.6074 45.5166H66.1334V49.011H69.6074V45.5166Z" fill="#FFE0B1"/>
<path d="M66.1334 45.5166H62.6593V49.011H66.1334V45.5166Z" fill="#FFE0B1"/>
<path d="M62.6593 45.5166H59.1852V49.011H62.6593V45.5166Z" fill="#FFE0B1"/>
<path d="M59.1852 45.5166H55.7111V49.011H59.1852V45.5166Z" fill="#FFE1B2"/>
<path d="M55.7111 45.5166H52.2371V49.011H55.7111V45.5166Z" fill="#090C0A"/>
<path d="M52.2371 45.5166H48.763V49.011H52.2371V45.5166Z" fill="#FFE2B2"/>
<path d="M48.763 45.5166H45.2889V49.011H48.763V45.5166Z" fill="#FFDFB0"/>
<path d="M45.2889 45.5166H41.8149V49.011H45.2889V45.5166Z" fill="#FFDFB1"/>
<path d="M41.8148 45.5166H38.3408V49.011H41.8148V45.5166Z" fill="#07090A"/>
<path d="M38.3408 45.5166H34.8667V49.011H38.3408V45.5166Z" fill="#070808"/>
<path d="M34.8667 45.5166H31.3926V49.011H34.8667V45.5166Z" fill="#FFE0AF"/>
<path d="M31.3926 45.5166H27.9186V49.011H31.3926V45.5166Z" fill="#FFDFB1"/>
<path d="M27.9186 45.5166H24.4445V49.011H27.9186V45.5166Z" fill="#FFE1B2"/>
<path d="M24.4445 45.5166H20.9705V49.011H24.4445V45.5166Z" fill="#070909"/>
<path d="M97.4 42.0225H93.9259V45.5169H97.4V42.0225Z" fill="#FEDD37"/>
<path d="M76.5555 42.0225H73.0815V45.5169H76.5555V42.0225Z" fill="#070909"/>
<path d="M73.0815 42.0225H69.6074V45.5169H73.0815V42.0225Z" fill="#FDE2B1"/>
<path d="M69.6074 42.0225H66.1334V45.5169H69.6074V42.0225Z" fill="#FDE2B1"/>
<path d="M66.1334 42.0225H62.6593V45.5169H66.1334V42.0225Z" fill="#FFE1B3"/>
<path d="M62.6593 42.0225H59.1852V45.5169H62.6593V42.0225Z" fill="#FDE2B3"/>
<path d="M59.1852 42.0225H55.7111V45.5169H59.1852V42.0225Z" fill="#FFE0AF"/>
<path d="M55.7111 42.0225H52.2371V45.5169H55.7111V42.0225Z" fill="#070909"/>
<path d="M52.2371 42.0225H48.763V45.5169H52.2371V42.0225Z" fill="#080909"/>
<path d="M48.763 42.0225H45.2889V45.5169H48.763V42.0225Z" fill="#FFDFB1"/>
<path d="M45.2889 42.0225H41.8149V45.5169H45.2889V42.0225Z" fill="#FEE2B4"/>
<path d="M41.8148 42.0225H38.3408V45.5169H41.8148V42.0225Z" fill="#FDE8C0"/>
<path d="M38.3408 42.0225H34.8667V45.5169H38.3408V42.0225Z" fill="#07090A"/>
<path d="M34.8667 42.0225H31.3926V45.5169H34.8667V42.0225Z" fill="#070909"/>
<path d="M31.3926 42.0225H27.9186V45.5169H31.3926V42.0225Z" fill="#FFDFB3"/>
<path d="M27.9186 42.0225H24.4445V45.5169H27.9186V42.0225Z" fill="#FFE1B2"/>
<path d="M24.4445 42.0225H20.9705V45.5169H24.4445V42.0225Z" fill="#070909"/>
<path d="M76.5555 38.5278H73.0815V42.0222H76.5555V38.5278Z" fill="#070909"/>
<path d="M73.0815 38.5278H69.6074V42.0222H73.0815V38.5278Z" fill="#080A09"/>
<path d="M69.6074 38.5278H66.1334V42.0222H69.6074V38.5278Z" fill="#070808"/>
<path d="M66.1334 38.5278H62.6593V42.0222H66.1334V38.5278Z" fill="#070909"/>
<path d="M62.6593 38.5278H59.1852V42.0222H62.6593V38.5278Z" fill="#07090A"/>
<path d="M59.1852 38.5278H55.7111V42.0222H59.1852V38.5278Z" fill="#070909"/>
<path d="M55.7111 38.5278H52.2371V42.0222H55.7111V38.5278Z" fill="#070909"/>
<path d="M52.2371 38.5278H48.763V42.0222H52.2371V38.5278Z" fill="#070808"/>
<path d="M48.763 38.5278H45.2889V42.0222H48.763V38.5278Z" fill="#07090A"/>
<path d="M45.2889 38.5278H41.8149V42.0222H45.2889V38.5278Z" fill="#FFDFAE"/>
<path d="M41.8148 38.5278H38.3408V42.0222H41.8148V38.5278Z" fill="#FFE1AF"/>
<path d="M38.3408 38.5278H34.8667V42.0222H38.3408V38.5278Z" fill="#FDE7BF"/>
<path d="M34.8667 38.5278H31.3926V42.0222H34.8667V38.5278Z" fill="#080809"/>
<path d="M31.3926 38.5278H27.9186V42.0222H31.3926V38.5278Z" fill="#FBE9C0"/>
<path d="M27.9186 38.5278H24.4445V42.0222H27.9186V38.5278Z" fill="#FFE1B2"/>
<path d="M24.4445 38.5278H20.9705V42.0222H24.4445V38.5278Z" fill="#070909"/>
<path d="M76.5555 35.0337H73.0815V38.5281H76.5555V35.0337Z" fill="#070909"/>
<path d="M73.0815 35.0337H69.6074V38.5281H73.0815V35.0337Z" fill="#FAE7B9"/>
<path d="M69.6074 35.0337H66.1334V38.5281H69.6074V35.0337Z" fill="#FEE2B3"/>
<path d="M66.1334 35.0337H62.6593V38.5281H66.1334V35.0337Z" fill="#FEE9B9"/>
<path d="M62.6593 35.0337H59.1852V38.5281H62.6593V35.0337Z" fill="#080A09"/>
<path d="M59.1852 35.0337H55.7111V38.5281H59.1852V35.0337Z" fill="#FAE9B9"/>
<path d="M55.7111 35.0337H52.2371V38.5281H55.7111V35.0337Z" fill="#FFE2B2"/>
<path d="M52.2371 35.0337H48.763V38.5281H52.2371V35.0337Z" fill="#FEDFB2"/>
<path d="M48.763 35.0337H45.2889V38.5281H48.763V35.0337Z" fill="#07090A"/>
<path d="M45.2889 35.0337H41.8149V38.5281H45.2889V35.0337Z" fill="#FCE8B9"/>
<path d="M41.8148 35.0337H38.3408V38.5281H41.8148V35.0337Z" fill="#FAE0B3"/>
<path d="M38.3408 35.0337H34.8667V38.5281H38.3408V35.0337Z" fill="#FAEEC9"/>
<path d="M34.8667 35.0337H31.3926V38.5281H34.8667V35.0337Z" fill="#070909"/>
<path d="M31.3926 35.0337H27.9186V38.5281H31.3926V35.0337Z" fill="#070909"/>
<path d="M27.9186 35.0337H24.4445V38.5281H27.9186V35.0337Z" fill="#070909"/>
<path d="M76.5555 31.5391H73.0815V35.0335H76.5555V31.5391Z" fill="#070909"/>
<path d="M73.0815 31.5391H69.6074V35.0335H73.0815V31.5391Z" fill="#FAE7B8"/>
<path d="M69.6074 31.5391H66.1334V35.0335H69.6074V31.5391Z" fill="#FFDFB1"/>
<path d="M66.1334 31.5391H62.6593V35.0335H66.1334V31.5391Z" fill="#080A09"/>
<path d="M62.6593 31.5391H59.1852V35.0335H62.6593V31.5391Z" fill="#070909"/>
<path d="M59.1852 31.5391H55.7111V35.0335H59.1852V31.5391Z" fill="#070809"/>
<path d="M55.7111 31.5391H52.2371V35.0335H55.7111V31.5391Z" fill="#FFE0B1"/>
<path d="M52.2371 31.5391H48.763V35.0335H52.2371V31.5391Z" fill="#FFE0B1"/>
<path d="M48.763 31.5391H45.2889V35.0335H48.763V31.5391Z" fill="#070909"/>
<path d="M45.2889 31.5391H41.8149V35.0335H45.2889V31.5391Z" fill="#080909"/>
<path d="M41.8148 31.5391H38.3408V35.0335H41.8148V31.5391Z" fill="#F8EDC3"/>
<path d="M38.3408 31.5391H34.8667V35.0335H38.3408V31.5391Z" fill="#080909"/>
<path d="M93.9259 28.0449H90.4518V31.5393H93.9259V28.0449Z" fill="#FEDD37"/>
<path d="M80.0296 28.0449H76.5555V31.5393H80.0296V28.0449Z" fill="#070909"/>
<path d="M76.5555 28.0449H73.0815V31.5393H76.5555V28.0449Z" fill="#FFE1B2"/>
<path d="M73.0815 28.0449H69.6074V31.5393H73.0815V28.0449Z" fill="#FEE2B3"/>
<path d="M69.6074 28.0449H66.1334V31.5393H69.6074V28.0449Z" fill="#FFE0B1"/>
<path d="M66.1334 28.0449H62.6593V31.5393H66.1334V28.0449Z" fill="#070808"/>
<path d="M59.1852 28.0449H55.7111V31.5393H59.1852V28.0449Z" fill="#070809"/>
<path d="M55.7111 28.0449H52.2371V31.5393H55.7111V28.0449Z" fill="#FFE0B1"/>
<path d="M52.2371 28.0449H48.763V31.5393H52.2371V28.0449Z" fill="#FFDFB1"/>
<path d="M48.763 28.0449H45.2889V31.5393H48.763V28.0449Z" fill="#07090A"/>
<path d="M45.2889 28.0449H41.8149V31.5393H45.2889V28.0449Z" fill="#070909"/>
<path d="M41.8148 28.0449H38.3408V31.5393H41.8148V28.0449Z" fill="#070909"/>
<path d="M97.4 24.5503H93.9259V28.0447H97.4V24.5503Z" fill="#FEDD37"/>
<path d="M93.9259 24.5503H90.4518V28.0447H93.9259V24.5503Z" fill="#FEDD37"/>
<path d="M90.4518 24.5503H86.9778V28.0447H90.4518V24.5503Z" fill="#FEDD37"/>
<path d="M80.0296 24.5503H76.5555V28.0447H80.0296V24.5503Z" fill="#070909"/>
<path d="M76.5555 24.5503H73.0815V28.0447H76.5555V24.5503Z" fill="#FFE1B2"/>
<path d="M73.0815 24.5503H69.6074V28.0447H73.0815V24.5503Z" fill="#FFE1AF"/>
<path d="M69.6074 24.5503H66.1334V28.0447H69.6074V24.5503Z" fill="#FFDEB1"/>
<path d="M66.1334 24.5503H62.6593V28.0447H66.1334V24.5503Z" fill="#070909"/>
<path d="M59.1852 24.5503H55.7111V28.0447H59.1852V24.5503Z" fill="#070809"/>
<path d="M55.7111 24.5503H52.2371V28.0447H55.7111V24.5503Z" fill="#FFDFB0"/>
<path d="M52.2371 24.5503H48.763V28.0447H52.2371V24.5503Z" fill="#FFDFB1"/>
<path d="M48.763 24.5503H45.2889V28.0447H48.763V24.5503Z" fill="#FFDFB0"/>
<path d="M45.2889 24.5503H41.8149V28.0447H45.2889V24.5503Z" fill="#070808"/>
<path d="M17.4963 24.5503H14.0223V28.0447H17.4963V24.5503Z" fill="#FEDD37"/>
<path d="M93.9259 21.0562H90.4518V24.5506H93.9259V21.0562Z" fill="#FEDD37"/>
<path d="M80.0296 21.0562H76.5555V24.5506H80.0296V21.0562Z" fill="#070909"/>
<path d="M76.5555 21.0562H73.0815V24.5506H76.5555V21.0562Z" fill="#FFE1B2"/>
<path d="M73.0815 21.0562H69.6074V24.5506H73.0815V21.0562Z" fill="#FFE1B0"/>
<path d="M69.6074 21.0562H66.1334V24.5506H69.6074V21.0562Z" fill="#070809"/>
<path d="M66.1334 21.0562H62.6593V24.5506H66.1334V21.0562Z" fill="#070809"/>
<path d="M59.1852 21.0562H55.7111V24.5506H59.1852V21.0562Z" fill="#070809"/>
<path d="M55.7111 21.0562H52.2371V24.5506H55.7111V21.0562Z" fill="#070809"/>
<path d="M52.2371 21.0562H48.763V24.5506H52.2371V21.0562Z" fill="#FFE0B1"/>
<path d="M48.763 21.0562H45.2889V24.5506H48.763V21.0562Z" fill="#FEDFB2"/>
<path d="M45.2889 21.0562H41.8149V24.5506H45.2889V21.0562Z" fill="#070909"/>
<path d="M20.9705 21.0562H17.4964V24.5506H20.9705V21.0562Z" fill="#FEDD37"/>
<path d="M17.4963 21.0562H14.0223V24.5506H17.4963V21.0562Z" fill="#FEDD37"/>
<path d="M14.0223 21.0562H10.5482V24.5506H14.0223V21.0562Z" fill="#FEDD37"/>
<path d="M80.0296 17.5615H76.5555V21.0559H80.0296V17.5615Z" fill="#070909"/>
<path d="M76.5555 17.5615H73.0815V21.0559H76.5555V17.5615Z" fill="#FFE1B2"/>
<path d="M73.0815 17.5615H69.6074V21.0559H73.0815V17.5615Z" fill="#FFE0B1"/>
<path d="M69.6074 17.5615H66.1334V21.0559H69.6074V17.5615Z" fill="#0A0909"/>
<path d="M55.7111 17.5615H52.2371V21.0559H55.7111V17.5615Z" fill="#080A09"/>
<path d="M52.2371 17.5615H48.763V21.0559H52.2371V17.5615Z" fill="#FFE0B1"/>
<path d="M48.763 17.5615H45.2889V21.0559H48.763V17.5615Z" fill="#FFE1B2"/>
<path d="M45.2889 17.5615H41.8149V21.0559H45.2889V17.5615Z" fill="#070909"/>
<path d="M24.4445 17.5615H20.9705V21.0559H24.4445V17.5615Z" fill="#FEDD37"/>
<path d="M20.9705 17.5615H17.4964V21.0559H20.9705V17.5615Z" fill="#FEDD37"/>
<path d="M17.4963 17.5615H14.0223V21.0559H17.4963V17.5615Z" fill="#FEDD37"/>
<path d="M14.0223 17.5615H10.5482V21.0559H14.0223V17.5615Z" fill="#FEDD37"/>
<path d="M10.5482 17.5615H7.07416V21.0559H10.5482V17.5615Z" fill="#FEDD37"/>
<path d="M83.5037 14.0674H80.0296V17.5618H83.5037V14.0674Z" fill="#070909"/>
<path d="M80.0296 14.0674H76.5555V17.5618H80.0296V14.0674Z" fill="#FFE1B2"/>
<path d="M76.5555 14.0674H73.0815V17.5618H76.5555V14.0674Z" fill="#FFE3B6"/>
<path d="M73.0815 14.0674H69.6074V17.5618H73.0815V14.0674Z" fill="#FFE0B1"/>
<path d="M69.6074 14.0674H66.1334V17.5618H69.6074V14.0674Z" fill="#090B0A"/>
<path d="M55.7111 14.0674H52.2371V17.5618H55.7111V14.0674Z" fill="#080809"/>
<path d="M52.2371 14.0674H48.763V17.5618H52.2371V14.0674Z" fill="#FCE1B2"/>
<path d="M48.763 14.0674H45.2889V17.5618H48.763V14.0674Z" fill="#FFE0B1"/>
<path d="M45.2889 14.0674H41.8149V17.5618H45.2889V14.0674Z" fill="#FFECC0"/>
<path d="M41.8148 14.0674H38.3408V17.5618H41.8148V14.0674Z" fill="#070909"/>
<path d="M20.9705 14.0674H17.4964V17.5618H20.9705V14.0674Z" fill="#FEDD37"/>
<path d="M17.4963 14.0674H14.0223V17.5618H17.4963V14.0674Z" fill="#FEDD37"/>
<path d="M14.0223 14.0674H10.5482V17.5618H14.0223V14.0674Z" fill="#FEDD37"/>
<path d="M83.5037 10.5728H80.0296V14.0672H83.5037V10.5728Z" fill="#070909"/>
<path d="M80.0296 10.5728H76.5555V14.0672H80.0296V10.5728Z" fill="#FFE1B2"/>
<path d="M76.5555 10.5728H73.0815V14.0672H76.5555V10.5728Z" fill="#FFDFB0"/>
<path d="M73.0815 10.5728H69.6074V14.0672H73.0815V10.5728Z" fill="#080909"/>
<path d="M52.2371 10.5728H48.763V14.0672H52.2371V10.5728Z" fill="#080909"/>
<path d="M48.763 10.5728H45.2889V14.0672H48.763V10.5728Z" fill="#FFE0B1"/>
<path d="M45.2889 10.5728H41.8149V14.0672H45.2889V10.5728Z" fill="#FFE1B2"/>
<path d="M41.8148 10.5728H38.3408V14.0672H41.8148V10.5728Z" fill="#070909"/>
<path d="M17.4963 10.5728H14.0223V14.0672H17.4963V10.5728Z" fill="#FEDD37"/>
<path d="M83.5037 7.07861H80.0296V10.573H83.5037V7.07861Z" fill="#070909"/>
<path d="M80.0296 7.07861H76.5555V10.573H80.0296V7.07861Z" fill="#FFE1B2"/>
<path d="M76.5555 7.07861H73.0815V10.573H76.5555V7.07861Z" fill="#FFE0B3"/>
<path d="M73.0815 7.07861H69.6074V10.573H73.0815V7.07861Z" fill="#0A0909"/>
<path d="M52.2371 7.07861H48.763V10.573H52.2371V7.07861Z" fill="#070808"/>
<path d="M48.763 7.07861H45.2889V10.573H48.763V7.07861Z" fill="#FFDFB2"/>
<path d="M45.2889 7.07861H41.8149V10.573H45.2889V7.07861Z" fill="#FFDFB1"/>
<path d="M41.8148 7.07861H38.3408V10.573H41.8148V7.07861Z" fill="#070909"/>
<path d="M80.0296 3.58398H76.5555V7.07838H80.0296V3.58398Z" fill="#070909"/>
<path d="M76.5555 3.58398H73.0815V7.07838H76.5555V3.58398Z" fill="#070909"/>
<path d="M48.763 3.58398H45.2889V7.07838H48.763V3.58398Z" fill="#070909"/>
<path d="M45.2889 3.58398H41.8149V7.07838H45.2889V3.58398Z" fill="#070909"/>
</g>
<defs>
<clipPath id="clip0_1013_5938">
<rect width="101" height="112" fill="white"/>
</clipPath>
</defs>
</svg>
