<svg width="115" height="115" viewBox="0 0 115 115" fill="none" xmlns="http://www.w3.org/2000/svg">
<g clip-path="url(#clip0_1013_5938)">
<path d="M19.9216 96.9678H15.9659V100.556H12.0103V104.144H15.9659V107.732H19.9216V104.144H23.8772V100.556H19.9216V96.9678Z" fill="#070909"/>
<path d="M110.901 86.2041H106.945V89.7921H110.901V86.2041Z" fill="#070909"/>
<path d="M102.99 86.2041H99.0341V89.7921H102.99V86.2041Z" fill="#070909"/>
<path d="M19.9216 86.2041H15.9659V89.7921H19.9216V86.2041Z" fill="#070909"/>
<path d="M106.945 82.6162H102.99V86.2042H106.945V82.6162Z" fill="#070909"/>
<path d="M110.901 79.0278H106.945V82.6158H110.901V79.0278Z" fill="#070909"/>
<path d="M102.99 79.0278H99.0341V82.6158H102.99V79.0278Z" fill="#070909"/>
<path d="M8.05474 50.3242H4.09912V53.9122H8.05474V50.3242Z" fill="#070909"/>
<path d="M110.901 43.1479H106.945V46.7359H110.901V43.1479Z" fill="#070909"/>
<path d="M106.945 25.2081V21.6201H102.99V25.2081H99.0341V28.7961H102.99V32.3841H106.945V28.7961H110.901V25.2081H106.945Z" fill="#070909"/>
<path d="M12.0103 25.208H15.9659V28.796H19.9216V25.208H23.8772V21.62H27.8328V18.032H23.8772V14.444H19.9216V10.856H15.9659V14.444H12.0103V18.032H8.05469V21.62H12.0103V25.208Z" fill="#070909"/>
<path d="M24.0207 93.4719V93.2879V82.5239H11.8669V93.2879V93.4719V96.8759H7.91125V107.824H11.8669V111.412H24.0207V107.824H27.9763V96.8759H24.0207V93.4719Z" fill="white"/>
<path d="M12.1538 46.644H0V57.592H12.1538V46.644Z" fill="white"/>
<path d="M115 39.4678H102.846V50.4158H115V39.4678Z" fill="white"/>
<path d="M111.044 21.528V17.94H99.1775V3.588H95.2219V0H79.1125V3.588H75.1568V10.764H71.2012V17.94H67.5325V10.764H63.5769V3.588H59.6213V0H43.5119V3.588H39.5562V21.712H43.5119V25.116H39.5562V28.704H35.6006V32.292H24.0207V28.888H27.9763V25.3H31.9319V14.352H27.9763V10.764H24.0207V7.176H11.8669V10.764H7.91125V14.352H3.95563V25.3H7.91125V28.888H11.8669V32.476H23.7337V35.88H19.7781V75.532H23.7337V79.12H27.6894V86.296H31.645V115H83.355V86.296H87.3107V82.708H91.2663V79.12H94.935V82.524V86.296V93.472H102.846H107.089H115V86.296V82.524V75.348H107.089H102.846H95.2219V50.232H91.2663V36.064H95.2219V32.476H98.8906V36.064H111.044V32.476H115V21.528H111.044Z" fill="white"/>
<path d="M79.256 107.732H75.3004V111.32H79.256V107.732Z" fill="#070808"/>
<path d="M75.3003 107.732H71.3447V111.32H75.3003V107.732Z" fill="#FBE8BB"/>
<path d="M71.3447 107.732H67.3891V111.32H71.3447V107.732Z" fill="#FFE1B2"/>
<path d="M67.3891 107.732H63.4335V111.32H67.3891V107.732Z" fill="#FFDFB3"/>
<path d="M63.4335 107.732H59.4778V111.32H63.4335V107.732Z" fill="#FEE2B4"/>
<path d="M59.4778 107.732H55.5222V111.32H59.4778V107.732Z" fill="#FFE1B2"/>
<path d="M55.5222 107.732H51.5666V111.32H55.5222V107.732Z" fill="#FFDFB3"/>
<path d="M51.5666 107.732H47.611V111.32H51.5666V107.732Z" fill="#FFDFB3"/>
<path d="M47.611 107.732H43.6553V111.32H47.611V107.732Z" fill="#FDE2B1"/>
<path d="M43.6553 107.732H39.6997V111.32H43.6553V107.732Z" fill="#FDE7BC"/>
<path d="M39.6997 107.732H35.7441V111.32H39.6997V107.732Z" fill="#070909"/>
<path d="M79.256 104.144H75.3004V107.732H79.256V104.144Z" fill="#070909"/>
<path d="M75.3003 104.144H71.3447V107.732H75.3003V104.144Z" fill="#FBE8BD"/>
<path d="M71.3447 104.144H67.3891V107.732H71.3447V104.144Z" fill="#FFE0B1"/>
<path d="M67.3891 104.144H63.4335V107.732H67.3891V104.144Z" fill="#FFE0B1"/>
<path d="M63.4335 104.144H59.4778V107.732H63.4335V104.144Z" fill="#FFE0B1"/>
<path d="M59.4778 104.144H55.5222V107.732H59.4778V104.144Z" fill="#FFE0B1"/>
<path d="M55.5222 104.144H51.5666V107.732H55.5222V104.144Z" fill="#FFE1B2"/>
<path d="M51.5666 104.144H47.611V107.732H51.5666V104.144Z" fill="#FFE0B1"/>
<path d="M47.611 104.144H43.6553V107.732H47.611V104.144Z" fill="#FFE0B1"/>
<path d="M43.6553 104.144H39.6997V107.732H43.6553V104.144Z" fill="#FBE6BB"/>
<path d="M39.6997 104.144H35.7441V107.732H39.6997V104.144Z" fill="#070909"/>
<path d="M19.9216 104.144H15.966V107.732H19.9216V104.144Z" fill="#FEDD37"/>
<path d="M79.256 100.556H75.3004V104.144H79.256V100.556Z" fill="#070909"/>
<path d="M75.3003 100.556H71.3447V104.144H75.3003V100.556Z" fill="#FBE8BD"/>
<path d="M71.3447 100.556H67.3891V104.144H71.3447V100.556Z" fill="#FFE0B1"/>
<path d="M67.3891 100.556H63.4335V104.144H67.3891V100.556Z" fill="#FFE0B1"/>
<path d="M63.4335 100.556H59.4778V104.144H63.4335V100.556Z" fill="#FFE0B1"/>
<path d="M59.4778 100.556H55.5222V104.144H59.4778V100.556Z" fill="#FFE0B1"/>
<path d="M55.5222 100.556H51.5666V104.144H55.5222V100.556Z" fill="#FFE0B1"/>
<path d="M51.5666 100.556H47.611V104.144H51.5666V100.556Z" fill="#FFE0B1"/>
<path d="M47.611 100.556H43.6553V104.144H47.611V100.556Z" fill="#FFE0B1"/>
<path d="M43.6553 100.556H39.6997V104.144H43.6553V100.556Z" fill="#FBE6BB"/>
<path d="M39.6997 100.556H35.7441V104.144H39.6997V100.556Z" fill="#070909"/>
<path d="M23.8773 100.556H19.9216V104.144H23.8773V100.556Z" fill="#FEDD37"/>
<path d="M19.9216 100.556H15.966V104.144H19.9216V100.556Z" fill="#FEDD37"/>
<path d="M15.966 100.556H12.0104V104.144H15.966V100.556Z" fill="#FEDD37"/>
<path d="M79.256 96.9683H75.3004V100.556H79.256V96.9683Z" fill="#070909"/>
<path d="M75.3003 96.9683H71.3447V100.556H75.3003V96.9683Z" fill="#FBE8BD"/>
<path d="M71.3447 96.9683H67.3891V100.556H71.3447V96.9683Z" fill="#FFE0B1"/>
<path d="M67.3891 96.9683H63.4335V100.556H67.3891V96.9683Z" fill="#FFE0B1"/>
<path d="M63.4335 96.9683H59.4778V100.556H63.4335V96.9683Z" fill="#FFE0B1"/>
<path d="M59.4778 96.9683H55.5222V100.556H59.4778V96.9683Z" fill="#FFE0B1"/>
<path d="M55.5222 96.9683H51.5666V100.556H55.5222V96.9683Z" fill="#FFE0B1"/>
<path d="M51.5666 96.9683H47.611V100.556H51.5666V96.9683Z" fill="#FFE0B1"/>
<path d="M47.611 96.9683H43.6553V100.556H47.611V96.9683Z" fill="#FFE2AF"/>
<path d="M43.6553 96.9683H39.6997V100.556H43.6553V96.9683Z" fill="#FBE6BC"/>
<path d="M39.6997 96.9683H35.7441V100.556H39.6997V96.9683Z" fill="#070909"/>
<path d="M19.9216 96.9683H15.966V100.556H19.9216V96.9683Z" fill="#FEDD37"/>
<path d="M79.256 93.3804H75.3004V96.9684H79.256V93.3804Z" fill="#07090A"/>
<path d="M75.3003 93.3804H71.3447V96.9684H75.3003V93.3804Z" fill="#FBE8BD"/>
<path d="M71.3447 93.3804H67.3891V96.9684H71.3447V93.3804Z" fill="#FFE0B1"/>
<path d="M67.3891 93.3804H63.4335V96.9684H67.3891V93.3804Z" fill="#FFE0B1"/>
<path d="M63.4335 93.3804H59.4778V96.9684H63.4335V93.3804Z" fill="#FFE0B1"/>
<path d="M59.4778 93.3804H55.5222V96.9684H59.4778V93.3804Z" fill="#FFE0B1"/>
<path d="M55.5222 93.3804H51.5666V96.9684H55.5222V93.3804Z" fill="#FFE0B1"/>
<path d="M51.5666 93.3804H47.611V96.9684H51.5666V93.3804Z" fill="#FFE0AF"/>
<path d="M47.611 93.3804H43.6553V96.9684H47.611V93.3804Z" fill="#FEE2B4"/>
<path d="M43.6553 93.3804H39.6997V96.9684H43.6553V93.3804Z" fill="#FBE6BB"/>
<path d="M39.6997 93.3804H35.7441V96.9684H39.6997V93.3804Z" fill="#070909"/>
<path d="M79.256 89.792H75.3004V93.38H79.256V89.792Z" fill="#07090A"/>
<path d="M75.3003 89.792H71.3447V93.38H75.3003V89.792Z" fill="#FCE8BB"/>
<path d="M71.3447 89.792H67.3891V93.38H71.3447V89.792Z" fill="#FFE1B1"/>
<path d="M67.3891 89.792H63.4335V93.38H67.3891V89.792Z" fill="#FFE0B2"/>
<path d="M63.4335 89.792H59.4778V93.38H63.4335V89.792Z" fill="#FFE0B1"/>
<path d="M59.4778 89.792H55.5222V93.38H59.4778V89.792Z" fill="#FFE0B1"/>
<path d="M55.5222 89.792H51.5666V93.38H55.5222V89.792Z" fill="#FFE1B2"/>
<path d="M51.5666 89.792H47.611V93.38H51.5666V89.792Z" fill="#FFDFB1"/>
<path d="M47.611 89.792H43.6553V93.38H47.611V89.792Z" fill="#FFE0AF"/>
<path d="M43.6553 89.792H39.6997V93.38H43.6553V89.792Z" fill="#FBE5BC"/>
<path d="M39.6997 89.792H35.7441V93.38H39.6997V89.792Z" fill="#070909"/>
<path d="M110.901 86.2041H106.945V89.7921H110.901V86.2041Z" fill="#FEDD37"/>
<path d="M102.99 86.2041H99.0341V89.7921H102.99V86.2041Z" fill="#FEDD37"/>
<path d="M79.256 86.2041H75.3004V89.7921H79.256V86.2041Z" fill="#070808"/>
<path d="M75.3003 86.2041H71.3447V89.7921H75.3003V86.2041Z" fill="#070808"/>
<path d="M71.3447 86.2041H67.3891V89.7921H71.3447V86.2041Z" fill="#080909"/>
<path d="M67.3891 86.2041H63.4335V89.7921H67.3891V86.2041Z" fill="#FFE1B2"/>
<path d="M63.4335 86.2041H59.4778V89.7921H63.4335V86.2041Z" fill="#FFE0B1"/>
<path d="M59.4778 86.2041H55.5222V89.7921H59.4778V86.2041Z" fill="#FFE0B1"/>
<path d="M55.5222 86.2041H51.5666V89.7921H55.5222V86.2041Z" fill="#FFE0B1"/>
<path d="M51.5666 86.2041H47.611V89.7921H51.5666V86.2041Z" fill="#FFDFAE"/>
<path d="M47.611 86.2041H43.6553V89.7921H47.611V86.2041Z" fill="#090909"/>
<path d="M43.6553 86.2041H39.6997V89.7921H43.6553V86.2041Z" fill="#080A09"/>
<path d="M39.6997 86.2041H35.7441V89.7921H39.6997V86.2041Z" fill="#070909"/>
<path d="M19.9216 86.2041H15.966V89.7921H19.9216V86.2041Z" fill="#FEDD37"/>
<path d="M106.945 82.6162H102.99V86.2042H106.945V82.6162Z" fill="#FEDD37"/>
<path d="M79.256 82.6162H75.3004V86.2042H79.256V82.6162Z" fill="#080909"/>
<path d="M75.3003 82.6162H71.3447V86.2042H75.3003V82.6162Z" fill="#FBEABF"/>
<path d="M71.3447 82.6162H67.3891V86.2042H71.3447V82.6162Z" fill="#FFE0B1"/>
<path d="M67.3891 82.6162H63.4335V86.2042H67.3891V82.6162Z" fill="#FFE0B1"/>
<path d="M63.4335 82.6162H59.4778V86.2042H63.4335V82.6162Z" fill="#FFE0B1"/>
<path d="M59.4778 82.6162H55.5222V86.2042H59.4778V82.6162Z" fill="#FFE0B1"/>
<path d="M55.5222 82.6162H51.5666V86.2042H55.5222V82.6162Z" fill="#FFE0B1"/>
<path d="M51.5666 82.6162H47.611V86.2042H51.5666V82.6162Z" fill="#FFE0B1"/>
<path d="M47.611 82.6162H43.6553V86.2042H47.611V82.6162Z" fill="#FFE0B1"/>
<path d="M43.6553 82.6162H39.6997V86.2042H43.6553V82.6162Z" fill="#FBE7B6"/>
<path d="M39.6997 82.6162H35.7441V86.2042H39.6997V82.6162Z" fill="#080A0A"/>
<path d="M110.901 79.0283H106.945V82.6163H110.901V79.0283Z" fill="#FEDD37"/>
<path d="M102.99 79.0283H99.0341V82.6163H102.99V79.0283Z" fill="#FEDD37"/>
<path d="M83.2116 79.0283H79.256V82.6163H83.2116V79.0283Z" fill="#070909"/>
<path d="M79.256 79.0283H75.3004V82.6163H79.256V79.0283Z" fill="#FDE5B9"/>
<path d="M75.3003 79.0283H71.3447V82.6163H75.3003V79.0283Z" fill="#FFE0B1"/>
<path d="M71.3447 79.0283H67.3891V82.6163H71.3447V79.0283Z" fill="#FFE1B2"/>
<path d="M67.3891 79.0283H63.4335V82.6163H67.3891V79.0283Z" fill="#FFE0B1"/>
<path d="M63.4335 79.0283H59.4778V82.6163H63.4335V79.0283Z" fill="#FFE0B1"/>
<path d="M59.4778 79.0283H55.5222V82.6163H59.4778V79.0283Z" fill="#FFE0B1"/>
<path d="M55.5222 79.0283H51.5666V82.6163H55.5222V79.0283Z" fill="#FFE0B1"/>
<path d="M51.5666 79.0283H47.611V82.6163H51.5666V79.0283Z" fill="#FFE0B1"/>
<path d="M47.611 79.0283H43.6553V82.6163H47.611V79.0283Z" fill="#FFE0B1"/>
<path d="M43.6553 79.0283H39.6997V82.6163H43.6553V79.0283Z" fill="#FFE0B1"/>
<path d="M39.6997 79.0283H35.7441V82.6163H39.6997V79.0283Z" fill="#FAE6B8"/>
<path d="M35.7441 79.0283H31.7885V82.6163H35.7441V79.0283Z" fill="#070909"/>
<path d="M87.1672 75.4399H83.2115V79.0279H87.1672V75.4399Z" fill="#070909"/>
<path d="M83.2116 75.4399H79.256V79.0279H83.2116V75.4399Z" fill="#FBE6BB"/>
<path d="M79.256 75.4399H75.3004V79.0279H79.256V75.4399Z" fill="#FFE0B1"/>
<path d="M75.3003 75.4399H71.3447V79.0279H75.3003V75.4399Z" fill="#FFE0B1"/>
<path d="M71.3447 75.4399H67.3891V79.0279H71.3447V75.4399Z" fill="#FFE0B1"/>
<path d="M67.3891 75.4399H63.4335V79.0279H67.3891V75.4399Z" fill="#FFE0B1"/>
<path d="M63.4335 75.4399H59.4778V79.0279H63.4335V75.4399Z" fill="#FFE0B1"/>
<path d="M59.4778 75.4399H55.5222V79.0279H59.4778V75.4399Z" fill="#FFE0B1"/>
<path d="M55.5222 75.4399H51.5666V79.0279H55.5222V75.4399Z" fill="#FFE0B1"/>
<path d="M51.5666 75.4399H47.611V79.0279H51.5666V75.4399Z" fill="#FFE0B1"/>
<path d="M47.611 75.4399H43.6553V79.0279H47.611V75.4399Z" fill="#FFE0B1"/>
<path d="M43.6553 75.4399H39.6997V79.0279H43.6553V75.4399Z" fill="#FFE0B1"/>
<path d="M39.6997 75.4399H35.7441V79.0279H39.6997V75.4399Z" fill="#FCE4B5"/>
<path d="M35.7441 75.4399H31.7885V79.0279H35.7441V75.4399Z" fill="#070909"/>
<path d="M91.1228 71.8521H87.1672V75.4401H91.1228V71.8521Z" fill="#070909"/>
<path d="M87.1672 71.8521H83.2115V75.4401H87.1672V71.8521Z" fill="#FFE0B1"/>
<path d="M83.2116 71.8521H79.256V75.4401H83.2116V71.8521Z" fill="#FEE2B4"/>
<path d="M79.256 71.8521H75.3004V75.4401H79.256V71.8521Z" fill="#FFE0B1"/>
<path d="M75.3003 71.8521H71.3447V75.4401H75.3003V71.8521Z" fill="#FFE0B1"/>
<path d="M71.3447 71.8521H67.3891V75.4401H71.3447V71.8521Z" fill="#FFE0B1"/>
<path d="M67.3891 71.8521H63.4335V75.4401H67.3891V71.8521Z" fill="#FFE0B1"/>
<path d="M63.4335 71.8521H59.4778V75.4401H63.4335V71.8521Z" fill="#FFE0B1"/>
<path d="M59.4778 71.8521H55.5222V75.4401H59.4778V71.8521Z" fill="#FFE0B1"/>
<path d="M55.5222 71.8521H51.5666V75.4401H55.5222V71.8521Z" fill="#FFE0B1"/>
<path d="M51.5666 71.8521H47.611V75.4401H51.5666V71.8521Z" fill="#FFE0B1"/>
<path d="M47.611 71.8521H43.6553V75.4401H47.611V71.8521Z" fill="#FFE0B1"/>
<path d="M43.6553 71.8521H39.6997V75.4401H43.6553V71.8521Z" fill="#FFE0B1"/>
<path d="M39.6997 71.8521H35.7441V75.4401H39.6997V71.8521Z" fill="#FFE0B1"/>
<path d="M35.7441 71.8521H31.7885V75.4401H35.7441V71.8521Z" fill="#FFE0B1"/>
<path d="M31.7885 71.8521H27.8329V75.4401H31.7885V71.8521Z" fill="#070909"/>
<path d="M91.1228 68.2642H87.1672V71.8522H91.1228V68.2642Z" fill="#070909"/>
<path d="M87.1672 68.2642H83.2115V71.8522H87.1672V68.2642Z" fill="#FFE0B1"/>
<path d="M83.2116 68.2642H79.256V71.8522H83.2116V68.2642Z" fill="#FFE1B2"/>
<path d="M79.256 68.2642H75.3004V71.8522H79.256V68.2642Z" fill="#FFE0B1"/>
<path d="M75.3003 68.2642H71.3447V71.8522H75.3003V68.2642Z" fill="#FFE0B1"/>
<path d="M71.3447 68.2642H67.3891V71.8522H71.3447V68.2642Z" fill="#FFE0B1"/>
<path d="M67.3891 68.2642H63.4335V71.8522H67.3891V68.2642Z" fill="#FFE0B1"/>
<path d="M63.4335 68.2642H59.4778V71.8522H63.4335V68.2642Z" fill="#FFE0B1"/>
<path d="M59.4778 68.2642H55.5222V71.8522H59.4778V68.2642Z" fill="#FFE0B1"/>
<path d="M55.5222 68.2642H51.5666V71.8522H55.5222V68.2642Z" fill="#FFE0B1"/>
<path d="M51.5666 68.2642H47.611V71.8522H51.5666V68.2642Z" fill="#FFE0B1"/>
<path d="M47.611 68.2642H43.6553V71.8522H47.611V68.2642Z" fill="#FFE0B1"/>
<path d="M43.6553 68.2642H39.6997V71.8522H43.6553V68.2642Z" fill="#FFE0B1"/>
<path d="M39.6997 68.2642H35.7441V71.8522H39.6997V68.2642Z" fill="#FFE2AF"/>
<path d="M35.7441 68.2642H31.7885V71.8522H35.7441V68.2642Z" fill="#FFE0B4"/>
<path d="M31.7885 68.2642H27.8329V71.8522H31.7885V68.2642Z" fill="#FFE0B1"/>
<path d="M27.8329 68.2642H23.8773V71.8522H27.8329V68.2642Z" fill="#070909"/>
<path d="M91.1228 64.6763H87.1672V68.2643H91.1228V64.6763Z" fill="#070909"/>
<path d="M87.1672 64.6763H83.2115V68.2643H87.1672V64.6763Z" fill="#FFE0B1"/>
<path d="M83.2116 64.6763H79.256V68.2643H83.2116V64.6763Z" fill="#FEE2B4"/>
<path d="M79.256 64.6763H75.3004V68.2643H79.256V64.6763Z" fill="#FFE0B1"/>
<path d="M75.3003 64.6763H71.3447V68.2643H75.3003V64.6763Z" fill="#FFE0B1"/>
<path d="M71.3447 64.6763H67.3891V68.2643H71.3447V64.6763Z" fill="#FDE2B3"/>
<path d="M67.3891 64.6763H63.4335V68.2643H67.3891V64.6763Z" fill="#0B0909"/>
<path d="M63.4335 64.6763H59.4778V68.2643H63.4335V64.6763Z" fill="#FFE1B2"/>
<path d="M59.4778 64.6763H55.5222V68.2643H59.4778V64.6763Z" fill="#FFE0B1"/>
<path d="M55.5222 64.6763H51.5666V68.2643H55.5222V64.6763Z" fill="#FFE0B1"/>
<path d="M51.5666 64.6763H47.611V68.2643H51.5666V64.6763Z" fill="#FFE1AF"/>
<path d="M47.611 64.6763H43.6553V68.2643H47.611V64.6763Z" fill="#FFE1B0"/>
<path d="M43.6553 64.6763H39.6997V68.2643H43.6553V64.6763Z" fill="#FFE1B0"/>
<path d="M39.6997 64.6763H35.7441V68.2643H39.6997V64.6763Z" fill="#FFE1B0"/>
<path d="M35.7441 64.6763H31.7885V68.2643H35.7441V64.6763Z" fill="#FFE0B4"/>
<path d="M31.7885 64.6763H27.8329V68.2643H31.7885V64.6763Z" fill="#FFE0B1"/>
<path d="M27.8329 64.6763H23.8773V68.2643H27.8329V64.6763Z" fill="#070909"/>
<path d="M91.1228 61.0884H87.1672V64.6764H91.1228V61.0884Z" fill="#070909"/>
<path d="M87.1672 61.0884H83.2115V64.6764H87.1672V61.0884Z" fill="#FFE0B1"/>
<path d="M83.2116 61.0884H79.256V64.6764H83.2116V61.0884Z" fill="#FFE1B2"/>
<path d="M79.256 61.0884H75.3004V64.6764H79.256V61.0884Z" fill="#FFE0B1"/>
<path d="M75.3003 61.0884H71.3447V64.6764H75.3003V61.0884Z" fill="#FFE1B2"/>
<path d="M71.3447 61.0884H67.3891V64.6764H71.3447V61.0884Z" fill="#090909"/>
<path d="M67.3891 61.0884H63.4335V64.6764H67.3891V61.0884Z" fill="#070909"/>
<path d="M63.4335 61.0884H59.4778V64.6764H63.4335V61.0884Z" fill="#FFE0B3"/>
<path d="M59.4778 61.0884H55.5222V64.6764H59.4778V61.0884Z" fill="#FFE0B1"/>
<path d="M55.5222 61.0884H51.5666V64.6764H55.5222V61.0884Z" fill="#FFE2B2"/>
<path d="M51.5666 61.0884H47.611V64.6764H51.5666V61.0884Z" fill="#FFDFB3"/>
<path d="M47.611 61.0884H43.6553V64.6764H47.611V61.0884Z" fill="#070808"/>
<path d="M43.6553 61.0884H39.6997V64.6764H43.6553V61.0884Z" fill="#070808"/>
<path d="M39.6997 61.0884H35.7441V64.6764H39.6997V61.0884Z" fill="#0C0A0A"/>
<path d="M35.7441 61.0884H31.7885V64.6764H35.7441V61.0884Z" fill="#FFE0B4"/>
<path d="M31.7885 61.0884H27.8329V64.6764H31.7885V61.0884Z" fill="#FFE0B1"/>
<path d="M27.8329 61.0884H23.8773V64.6764H27.8329V61.0884Z" fill="#070909"/>
<path d="M91.1228 57.5H87.1672V61.088H91.1228V57.5Z" fill="#070909"/>
<path d="M87.1672 57.5H83.2115V61.088H87.1672V57.5Z" fill="#FFE0B1"/>
<path d="M83.2116 57.5H79.256V61.088H83.2116V57.5Z" fill="#FCE4AE"/>
<path d="M79.256 57.5H75.3004V61.088H79.256V57.5Z" fill="#FFE1B1"/>
<path d="M75.3003 57.5H71.3447V61.088H75.3003V57.5Z" fill="#0A090A"/>
<path d="M71.3447 57.5H67.3891V61.088H71.3447V57.5Z" fill="#070808"/>
<path d="M67.3891 57.5H63.4335V61.088H67.3891V57.5Z" fill="#FDE2B3"/>
<path d="M63.4335 57.5H59.4778V61.088H63.4335V57.5Z" fill="#FBE1B6"/>
<path d="M59.4778 57.5H55.5222V61.088H59.4778V57.5Z" fill="#09080A"/>
<path d="M55.5222 57.5H51.5666V61.088H55.5222V57.5Z" fill="#080A09"/>
<path d="M51.5666 57.5H47.611V61.088H51.5666V57.5Z" fill="#070909"/>
<path d="M47.611 57.5H43.6553V61.088H47.611V57.5Z" fill="#FFE0B1"/>
<path d="M43.6553 57.5H39.6997V61.088H43.6553V57.5Z" fill="#FFE1B2"/>
<path d="M39.6997 57.5H35.7441V61.088H39.6997V57.5Z" fill="#F9E4B8"/>
<path d="M35.7441 57.5H31.7885V61.088H35.7441V57.5Z" fill="#070909"/>
<path d="M31.7885 57.5H27.8329V61.088H31.7885V57.5Z" fill="#FFE0B1"/>
<path d="M27.8329 57.5H23.8773V61.088H27.8329V57.5Z" fill="#070909"/>
<path d="M91.1228 53.9121H87.1672V57.5001H91.1228V53.9121Z" fill="#070909"/>
<path d="M87.1672 53.9121H83.2115V57.5001H87.1672V53.9121Z" fill="#FFE0B1"/>
<path d="M83.2116 53.9121H79.256V57.5001H83.2116V53.9121Z" fill="#080809"/>
<path d="M79.256 53.9121H75.3004V57.5001H79.256V53.9121Z" fill="#07090A"/>
<path d="M75.3003 53.9121H71.3447V57.5001H75.3003V53.9121Z" fill="#070909"/>
<path d="M71.3447 53.9121H67.3891V57.5001H71.3447V53.9121Z" fill="#070809"/>
<path d="M67.3891 53.9121H63.4335V57.5001H67.3891V53.9121Z" fill="#070909"/>
<path d="M63.4335 53.9121H59.4778V57.5001H63.4335V53.9121Z" fill="#07090A"/>
<path d="M59.4778 53.9121H55.5222V57.5001H59.4778V53.9121Z" fill="#07090A"/>
<path d="M55.5222 53.9121H51.5666V57.5001H55.5222V53.9121Z" fill="#FDDFB4"/>
<path d="M51.5666 53.9121H47.611V57.5001H51.5666V53.9121Z" fill="#080A09"/>
<path d="M47.611 53.9121H43.6553V57.5001H47.611V53.9121Z" fill="#090808"/>
<path d="M43.6553 53.9121H39.6997V57.5001H43.6553V53.9121Z" fill="#FFE0B1"/>
<path d="M39.6997 53.9121H35.7441V57.5001H39.6997V53.9121Z" fill="#F7E6BB"/>
<path d="M35.7441 53.9121H31.7885V57.5001H35.7441V53.9121Z" fill="#080A0A"/>
<path d="M31.7885 53.9121H27.8329V57.5001H31.7885V53.9121Z" fill="#070909"/>
<path d="M27.8329 53.9121H23.8773V57.5001H27.8329V53.9121Z" fill="#070909"/>
<path d="M87.1672 50.3242H83.2115V53.9122H87.1672V50.3242Z" fill="#070909"/>
<path d="M83.2116 50.3242H79.256V53.9122H83.2116V50.3242Z" fill="#FFDFB1"/>
<path d="M79.256 50.3242H75.3004V53.9122H79.256V50.3242Z" fill="#FFDFB1"/>
<path d="M75.3003 50.3242H71.3447V53.9122H75.3003V50.3242Z" fill="#FFDFB1"/>
<path d="M71.3447 50.3242H67.3891V53.9122H71.3447V50.3242Z" fill="#FFDFB1"/>
<path d="M67.3891 50.3242H63.4335V53.9122H67.3891V50.3242Z" fill="#FEE2B3"/>
<path d="M63.4335 50.3242H59.4778V53.9122H63.4335V50.3242Z" fill="#070909"/>
<path d="M59.4778 50.3242H55.5222V53.9122H59.4778V50.3242Z" fill="#FDE2B3"/>
<path d="M55.5222 50.3242H51.5666V53.9122H55.5222V50.3242Z" fill="#FFE0B2"/>
<path d="M51.5666 50.3242H47.611V53.9122H51.5666V50.3242Z" fill="#FDE3AF"/>
<path d="M47.611 50.3242H43.6553V53.9122H47.611V50.3242Z" fill="#090909"/>
<path d="M43.6553 50.3242H39.6997V53.9122H43.6553V50.3242Z" fill="#FFDFAE"/>
<path d="M39.6997 50.3242H35.7441V53.9122H39.6997V50.3242Z" fill="#FFE0B1"/>
<path d="M35.7441 50.3242H31.7885V53.9122H35.7441V50.3242Z" fill="#FFE1B2"/>
<path d="M31.7885 50.3242H27.8329V53.9122H31.7885V50.3242Z" fill="#070909"/>
<path d="M27.8329 50.3242H23.8773V53.9122H27.8329V50.3242Z" fill="#070909"/>
<path d="M8.05474 50.3242H4.09912V53.9122H8.05474V50.3242Z" fill="#FEDD37"/>
<path d="M87.1672 46.7363H83.2115V50.3243H87.1672V46.7363Z" fill="#070909"/>
<path d="M83.2116 46.7363H79.256V50.3243H83.2116V46.7363Z" fill="#FFE0B1"/>
<path d="M79.256 46.7363H75.3004V50.3243H79.256V46.7363Z" fill="#FFE0B1"/>
<path d="M75.3003 46.7363H71.3447V50.3243H75.3003V46.7363Z" fill="#FFE0B1"/>
<path d="M71.3447 46.7363H67.3891V50.3243H71.3447V46.7363Z" fill="#FFE0B1"/>
<path d="M67.3891 46.7363H63.4335V50.3243H67.3891V46.7363Z" fill="#FFE1B2"/>
<path d="M63.4335 46.7363H59.4778V50.3243H63.4335V46.7363Z" fill="#090C0A"/>
<path d="M59.4778 46.7363H55.5222V50.3243H59.4778V46.7363Z" fill="#FFE2B2"/>
<path d="M55.5222 46.7363H51.5666V50.3243H55.5222V46.7363Z" fill="#FFDFB0"/>
<path d="M51.5666 46.7363H47.611V50.3243H51.5666V46.7363Z" fill="#FFDFB1"/>
<path d="M47.611 46.7363H43.6553V50.3243H47.611V46.7363Z" fill="#07090A"/>
<path d="M43.6553 46.7363H39.6997V50.3243H43.6553V46.7363Z" fill="#070808"/>
<path d="M39.6997 46.7363H35.7441V50.3243H39.6997V46.7363Z" fill="#FFE0AF"/>
<path d="M35.7441 46.7363H31.7885V50.3243H35.7441V46.7363Z" fill="#FFDFB1"/>
<path d="M31.7885 46.7363H27.8329V50.3243H31.7885V46.7363Z" fill="#FFE1B2"/>
<path d="M27.8329 46.7363H23.8773V50.3243H27.8329V46.7363Z" fill="#070909"/>
<path d="M110.901 43.1479H106.945V46.7359H110.901V43.1479Z" fill="#FEDD37"/>
<path d="M87.1672 43.1479H83.2115V46.7359H87.1672V43.1479Z" fill="#070909"/>
<path d="M83.2116 43.1479H79.256V46.7359H83.2116V43.1479Z" fill="#FDE2B1"/>
<path d="M79.256 43.1479H75.3004V46.7359H79.256V43.1479Z" fill="#FDE2B1"/>
<path d="M75.3003 43.1479H71.3447V46.7359H75.3003V43.1479Z" fill="#FFE1B3"/>
<path d="M71.3447 43.1479H67.3891V46.7359H71.3447V43.1479Z" fill="#FDE2B3"/>
<path d="M67.3891 43.1479H63.4335V46.7359H67.3891V43.1479Z" fill="#FFE0AF"/>
<path d="M63.4335 43.1479H59.4778V46.7359H63.4335V43.1479Z" fill="#070909"/>
<path d="M59.4778 43.1479H55.5222V46.7359H59.4778V43.1479Z" fill="#080909"/>
<path d="M55.5222 43.1479H51.5666V46.7359H55.5222V43.1479Z" fill="#FFDFB1"/>
<path d="M51.5666 43.1479H47.611V46.7359H51.5666V43.1479Z" fill="#FEE2B4"/>
<path d="M47.611 43.1479H43.6553V46.7359H47.611V43.1479Z" fill="#FDE8C0"/>
<path d="M43.6553 43.1479H39.6997V46.7359H43.6553V43.1479Z" fill="#07090A"/>
<path d="M39.6997 43.1479H35.7441V46.7359H39.6997V43.1479Z" fill="#070909"/>
<path d="M35.7441 43.1479H31.7885V46.7359H35.7441V43.1479Z" fill="#FFDFB3"/>
<path d="M31.7885 43.1479H27.8329V46.7359H31.7885V43.1479Z" fill="#FFE1B2"/>
<path d="M27.8329 43.1479H23.8773V46.7359H27.8329V43.1479Z" fill="#070909"/>
<path d="M87.1672 39.5601H83.2115V43.1481H87.1672V39.5601Z" fill="#070909"/>
<path d="M83.2116 39.5601H79.256V43.1481H83.2116V39.5601Z" fill="#080A09"/>
<path d="M79.256 39.5601H75.3004V43.1481H79.256V39.5601Z" fill="#070808"/>
<path d="M75.3003 39.5601H71.3447V43.1481H75.3003V39.5601Z" fill="#070909"/>
<path d="M71.3447 39.5601H67.3891V43.1481H71.3447V39.5601Z" fill="#07090A"/>
<path d="M67.3891 39.5601H63.4335V43.1481H67.3891V39.5601Z" fill="#070909"/>
<path d="M63.4335 39.5601H59.4778V43.1481H63.4335V39.5601Z" fill="#070909"/>
<path d="M59.4778 39.5601H55.5222V43.1481H59.4778V39.5601Z" fill="#070808"/>
<path d="M55.5222 39.5601H51.5666V43.1481H55.5222V39.5601Z" fill="#07090A"/>
<path d="M51.5666 39.5601H47.611V43.1481H51.5666V39.5601Z" fill="#FFDFAE"/>
<path d="M47.611 39.5601H43.6553V43.1481H47.611V39.5601Z" fill="#FFE1AF"/>
<path d="M43.6553 39.5601H39.6997V43.1481H43.6553V39.5601Z" fill="#FDE7BF"/>
<path d="M39.6997 39.5601H35.7441V43.1481H39.6997V39.5601Z" fill="#080809"/>
<path d="M35.7441 39.5601H31.7885V43.1481H35.7441V39.5601Z" fill="#FBE9C0"/>
<path d="M31.7885 39.5601H27.8329V43.1481H31.7885V39.5601Z" fill="#FFE1B2"/>
<path d="M27.8329 39.5601H23.8773V43.1481H27.8329V39.5601Z" fill="#070909"/>
<path d="M87.1672 35.9722H83.2115V39.5602H87.1672V35.9722Z" fill="#070909"/>
<path d="M83.2116 35.9722H79.256V39.5602H83.2116V35.9722Z" fill="#FAE7B9"/>
<path d="M79.256 35.9722H75.3004V39.5602H79.256V35.9722Z" fill="#FEE2B3"/>
<path d="M75.3003 35.9722H71.3447V39.5602H75.3003V35.9722Z" fill="#FEE9B9"/>
<path d="M71.3447 35.9722H67.3891V39.5602H71.3447V35.9722Z" fill="#080A09"/>
<path d="M67.3891 35.9722H63.4335V39.5602H67.3891V35.9722Z" fill="#FAE9B9"/>
<path d="M63.4335 35.9722H59.4778V39.5602H63.4335V35.9722Z" fill="#FFE2B2"/>
<path d="M59.4778 35.9722H55.5222V39.5602H59.4778V35.9722Z" fill="#FEDFB2"/>
<path d="M55.5222 35.9722H51.5666V39.5602H55.5222V35.9722Z" fill="#07090A"/>
<path d="M51.5666 35.9722H47.611V39.5602H51.5666V35.9722Z" fill="#FCE8B9"/>
<path d="M47.611 35.9722H43.6553V39.5602H47.611V35.9722Z" fill="#FAE0B3"/>
<path d="M43.6553 35.9722H39.6997V39.5602H43.6553V35.9722Z" fill="#FAEEC9"/>
<path d="M39.6997 35.9722H35.7441V39.5602H39.6997V35.9722Z" fill="#070909"/>
<path d="M35.7441 35.9722H31.7885V39.5602H35.7441V35.9722Z" fill="#070909"/>
<path d="M31.7885 35.9722H27.8329V39.5602H31.7885V35.9722Z" fill="#070909"/>
<path d="M87.1672 32.3843H83.2115V35.9723H87.1672V32.3843Z" fill="#070909"/>
<path d="M83.2116 32.3843H79.256V35.9723H83.2116V32.3843Z" fill="#FAE7B8"/>
<path d="M79.256 32.3843H75.3004V35.9723H79.256V32.3843Z" fill="#FFDFB1"/>
<path d="M75.3003 32.3843H71.3447V35.9723H75.3003V32.3843Z" fill="#080A09"/>
<path d="M71.3447 32.3843H67.3891V35.9723H71.3447V32.3843Z" fill="#070909"/>
<path d="M67.3891 32.3843H63.4335V35.9723H67.3891V32.3843Z" fill="#070809"/>
<path d="M63.4335 32.3843H59.4778V35.9723H63.4335V32.3843Z" fill="#FFE0B1"/>
<path d="M59.4778 32.3843H55.5222V35.9723H59.4778V32.3843Z" fill="#FFE0B1"/>
<path d="M55.5222 32.3843H51.5666V35.9723H55.5222V32.3843Z" fill="#070909"/>
<path d="M51.5666 32.3843H47.611V35.9723H51.5666V32.3843Z" fill="#080909"/>
<path d="M47.611 32.3843H43.6553V35.9723H47.611V32.3843Z" fill="#F8EDC3"/>
<path d="M43.6553 32.3843H39.6997V35.9723H43.6553V32.3843Z" fill="#080909"/>
<path d="M106.945 28.7964H102.99V32.3844H106.945V28.7964Z" fill="#FEDD37"/>
<path d="M91.1228 28.7964H87.1672V32.3844H91.1228V28.7964Z" fill="#070909"/>
<path d="M87.1672 28.7964H83.2115V32.3844H87.1672V28.7964Z" fill="#FFE1B2"/>
<path d="M83.2116 28.7964H79.256V32.3844H83.2116V28.7964Z" fill="#FEE2B3"/>
<path d="M79.256 28.7964H75.3004V32.3844H79.256V28.7964Z" fill="#FFE0B1"/>
<path d="M75.3003 28.7964H71.3447V32.3844H75.3003V28.7964Z" fill="#070808"/>
<path d="M67.3891 28.7964H63.4335V32.3844H67.3891V28.7964Z" fill="#070809"/>
<path d="M63.4335 28.7964H59.4778V32.3844H63.4335V28.7964Z" fill="#FFE0B1"/>
<path d="M59.4778 28.7964H55.5222V32.3844H59.4778V28.7964Z" fill="#FFDFB1"/>
<path d="M55.5222 28.7964H51.5666V32.3844H55.5222V28.7964Z" fill="#07090A"/>
<path d="M51.5666 28.7964H47.611V32.3844H51.5666V28.7964Z" fill="#070909"/>
<path d="M47.611 28.7964H43.6553V32.3844H47.611V28.7964Z" fill="#070909"/>
<path d="M110.901 25.208H106.945V28.796H110.901V25.208Z" fill="#FEDD37"/>
<path d="M106.945 25.208H102.99V28.796H106.945V25.208Z" fill="#FEDD37"/>
<path d="M102.99 25.208H99.0341V28.796H102.99V25.208Z" fill="#FEDD37"/>
<path d="M91.1228 25.208H87.1672V28.796H91.1228V25.208Z" fill="#070909"/>
<path d="M87.1672 25.208H83.2115V28.796H87.1672V25.208Z" fill="#FFE1B2"/>
<path d="M83.2116 25.208H79.256V28.796H83.2116V25.208Z" fill="#FFE1AF"/>
<path d="M79.256 25.208H75.3004V28.796H79.256V25.208Z" fill="#FFDEB1"/>
<path d="M75.3003 25.208H71.3447V28.796H75.3003V25.208Z" fill="#070909"/>
<path d="M67.3891 25.208H63.4335V28.796H67.3891V25.208Z" fill="#070809"/>
<path d="M63.4335 25.208H59.4778V28.796H63.4335V25.208Z" fill="#FFDFB0"/>
<path d="M59.4778 25.208H55.5222V28.796H59.4778V25.208Z" fill="#FFDFB1"/>
<path d="M55.5222 25.208H51.5666V28.796H55.5222V25.208Z" fill="#FFDFB0"/>
<path d="M51.5666 25.208H47.611V28.796H51.5666V25.208Z" fill="#070808"/>
<path d="M19.9216 25.208H15.966V28.796H19.9216V25.208Z" fill="#FEDD37"/>
<path d="M106.945 21.6201H102.99V25.2081H106.945V21.6201Z" fill="#FEDD37"/>
<path d="M91.1228 21.6201H87.1672V25.2081H91.1228V21.6201Z" fill="#070909"/>
<path d="M87.1672 21.6201H83.2115V25.2081H87.1672V21.6201Z" fill="#FFE1B2"/>
<path d="M83.2116 21.6201H79.256V25.2081H83.2116V21.6201Z" fill="#FFE1B0"/>
<path d="M79.256 21.6201H75.3004V25.2081H79.256V21.6201Z" fill="#070809"/>
<path d="M75.3003 21.6201H71.3447V25.2081H75.3003V21.6201Z" fill="#070809"/>
<path d="M67.3891 21.6201H63.4335V25.2081H67.3891V21.6201Z" fill="#070809"/>
<path d="M63.4335 21.6201H59.4778V25.2081H63.4335V21.6201Z" fill="#070809"/>
<path d="M59.4778 21.6201H55.5222V25.2081H59.4778V21.6201Z" fill="#FFE0B1"/>
<path d="M55.5222 21.6201H51.5666V25.2081H55.5222V21.6201Z" fill="#FEDFB2"/>
<path d="M51.5666 21.6201H47.611V25.2081H51.5666V21.6201Z" fill="#070909"/>
<path d="M23.8773 21.6201H19.9216V25.2081H23.8773V21.6201Z" fill="#FEDD37"/>
<path d="M19.9216 21.6201H15.966V25.2081H19.9216V21.6201Z" fill="#FEDD37"/>
<path d="M15.966 21.6201H12.0104V25.2081H15.966V21.6201Z" fill="#FEDD37"/>
<path d="M91.1228 18.0322H87.1672V21.6202H91.1228V18.0322Z" fill="#070909"/>
<path d="M87.1672 18.0322H83.2115V21.6202H87.1672V18.0322Z" fill="#FFE1B2"/>
<path d="M83.2116 18.0322H79.256V21.6202H83.2116V18.0322Z" fill="#FFE0B1"/>
<path d="M79.256 18.0322H75.3004V21.6202H79.256V18.0322Z" fill="#0A0909"/>
<path d="M63.4335 18.0322H59.4778V21.6202H63.4335V18.0322Z" fill="#080A09"/>
<path d="M59.4778 18.0322H55.5222V21.6202H59.4778V18.0322Z" fill="#FFE0B1"/>
<path d="M55.5222 18.0322H51.5666V21.6202H55.5222V18.0322Z" fill="#FFE1B2"/>
<path d="M51.5666 18.0322H47.611V21.6202H51.5666V18.0322Z" fill="#070909"/>
<path d="M27.8329 18.0322H23.8773V21.6202H27.8329V18.0322Z" fill="#FEDD37"/>
<path d="M23.8773 18.0322H19.9216V21.6202H23.8773V18.0322Z" fill="#FEDD37"/>
<path d="M19.9216 18.0322H15.966V21.6202H19.9216V18.0322Z" fill="#FEDD37"/>
<path d="M15.966 18.0322H12.0104V21.6202H15.966V18.0322Z" fill="#FEDD37"/>
<path d="M12.0104 18.0322H8.05475V21.6202H12.0104V18.0322Z" fill="#FEDD37"/>
<path d="M95.0784 14.4443H91.1228V18.0323H95.0784V14.4443Z" fill="#070909"/>
<path d="M91.1228 14.4443H87.1672V18.0323H91.1228V14.4443Z" fill="#FFE1B2"/>
<path d="M87.1672 14.4443H83.2115V18.0323H87.1672V14.4443Z" fill="#FFE3B6"/>
<path d="M83.2116 14.4443H79.256V18.0323H83.2116V14.4443Z" fill="#FFE0B1"/>
<path d="M79.256 14.4443H75.3004V18.0323H79.256V14.4443Z" fill="#090B0A"/>
<path d="M63.4335 14.4443H59.4778V18.0323H63.4335V14.4443Z" fill="#080809"/>
<path d="M59.4778 14.4443H55.5222V18.0323H59.4778V14.4443Z" fill="#FCE1B2"/>
<path d="M55.5222 14.4443H51.5666V18.0323H55.5222V14.4443Z" fill="#FFE0B1"/>
<path d="M51.5666 14.4443H47.611V18.0323H51.5666V14.4443Z" fill="#FFECC0"/>
<path d="M47.611 14.4443H43.6553V18.0323H47.611V14.4443Z" fill="#070909"/>
<path d="M23.8773 14.4443H19.9216V18.0323H23.8773V14.4443Z" fill="#FEDD37"/>
<path d="M19.9216 14.4443H15.966V18.0323H19.9216V14.4443Z" fill="#FEDD37"/>
<path d="M15.966 14.4443H12.0104V18.0323H15.966V14.4443Z" fill="#FEDD37"/>
<path d="M95.0784 10.856H91.1228V14.444H95.0784V10.856Z" fill="#070909"/>
<path d="M91.1228 10.856H87.1672V14.444H91.1228V10.856Z" fill="#FFE1B2"/>
<path d="M87.1672 10.856H83.2115V14.444H87.1672V10.856Z" fill="#FFDFB0"/>
<path d="M83.2116 10.856H79.256V14.444H83.2116V10.856Z" fill="#080909"/>
<path d="M59.4778 10.856H55.5222V14.444H59.4778V10.856Z" fill="#080909"/>
<path d="M55.5222 10.856H51.5666V14.444H55.5222V10.856Z" fill="#FFE0B1"/>
<path d="M51.5666 10.856H47.611V14.444H51.5666V10.856Z" fill="#FFE1B2"/>
<path d="M47.611 10.856H43.6553V14.444H47.611V10.856Z" fill="#070909"/>
<path d="M19.9216 10.856H15.966V14.444H19.9216V10.856Z" fill="#FEDD37"/>
<path d="M95.0784 7.26807H91.1228V10.8561H95.0784V7.26807Z" fill="#070909"/>
<path d="M91.1228 7.26807H87.1672V10.8561H91.1228V7.26807Z" fill="#FFE1B2"/>
<path d="M87.1672 7.26807H83.2115V10.8561H87.1672V7.26807Z" fill="#FFE0B3"/>
<path d="M83.2116 7.26807H79.256V10.8561H83.2116V7.26807Z" fill="#0A0909"/>
<path d="M59.4778 7.26807H55.5222V10.8561H59.4778V7.26807Z" fill="#070808"/>
<path d="M55.5222 7.26807H51.5666V10.8561H55.5222V7.26807Z" fill="#FFDFB2"/>
<path d="M51.5666 7.26807H47.611V10.8561H51.5666V7.26807Z" fill="#FFDFB1"/>
<path d="M47.611 7.26807H43.6553V10.8561H47.611V7.26807Z" fill="#070909"/>
<path d="M91.1228 3.68018H87.1672V7.26818H91.1228V3.68018Z" fill="#070909"/>
<path d="M87.1672 3.68018H83.2115V7.26818H87.1672V3.68018Z" fill="#070909"/>
<path d="M55.5222 3.68018H51.5666V7.26818H55.5222V3.68018Z" fill="#070909"/>
<path d="M51.5666 3.68018H47.611V7.26818H51.5666V3.68018Z" fill="#070909"/>
</g>
<defs>
<clipPath id="clip0_1013_5938">
<rect width="115" height="115" fill="white"/>
</clipPath>
</defs>
</svg>
