<svg width="115" height="115" viewBox="0 0 115 115" fill="none" xmlns="http://www.w3.org/2000/svg">
<g clip-path="url(#clip0_1013_5939)">
<path d="M29.3455 115V111.443H25.6754V107.882H18.3414V104.325H14.6712V97.2074H7.33716V90.0898H3.66704V79.4119H0V32.0279H3.66704V24.9102H7.33716V17.7926H14.6712V10.675H18.3414V7.11763H25.6754V3.55734H33.0126V0H81.9874V3.55734H89.3246V7.11763H96.6617V10.675H100.329V17.7926H107.666V24.9102H111.333V32.0279H115V79.4119H111.333V90.0898H107.666V97.2074H103.996V104.325H96.6617V107.882H89.3246V111.443H85.6575V115H29.3455Z" fill="white"/>
<path d="M79.5068 105.543H75.8398V109.101H79.5068V105.543Z" fill="#452618"/>
<path d="M75.8398 105.543H72.1727V109.101H75.8398V105.543Z" fill="#432314"/>
<path d="M72.1728 105.543H68.5057V109.101H72.1728V105.543Z" fill="#432314"/>
<path d="M68.5026 105.543H64.8356V109.101H68.5026V105.543Z" fill="#432314"/>
<path d="M64.8356 105.543H61.1686V109.101H64.8356V105.543Z" fill="#432314"/>
<path d="M61.1686 105.543H57.5015V109.101H61.1686V105.543Z" fill="#432314"/>
<path d="M57.4985 105.543H53.8314V109.101H57.4985V105.543Z" fill="#472718"/>
<path d="M53.8314 105.543H50.1644V109.101H53.8314V105.543Z" fill="#432314"/>
<path d="M50.1644 105.543H46.4973V109.101H50.1644V105.543Z" fill="#432314"/>
<path d="M46.4942 105.543H42.8272V109.101H46.4942V105.543Z" fill="#48281A"/>
<path d="M42.8272 105.543H39.1602V109.101H42.8272V105.543Z" fill="#432314"/>
<path d="M39.1601 105.543H35.4931V109.101H39.1601V105.543Z" fill="#472819"/>
<path d="M83.1769 101.983H79.5099V105.54H83.1769V101.983Z" fill="#432314"/>
<path d="M79.5068 101.983H75.8398V105.54H79.5068V101.983Z" fill="#D1972A"/>
<path d="M75.8398 101.983H72.1727V105.54H75.8398V101.983Z" fill="#D49A29"/>
<path d="M72.1728 101.983H68.5057V105.54H72.1728V101.983Z" fill="#D49A29"/>
<path d="M68.5026 101.983H64.8356V105.54H68.5026V101.983Z" fill="#D49A29"/>
<path d="M64.8356 101.983H61.1686V105.54H64.8356V101.983Z" fill="#D49A29"/>
<path d="M61.1686 101.983H57.5015V105.54H61.1686V101.983Z" fill="#D49A29"/>
<path d="M57.4985 101.983H53.8314V105.54H57.4985V101.983Z" fill="#D49A29"/>
<path d="M53.8314 101.983H50.1644V105.54H53.8314V101.983Z" fill="#D49A29"/>
<path d="M50.1644 101.983H46.4973V105.54H50.1644V101.983Z" fill="#D49A29"/>
<path d="M46.4942 101.983H42.8272V105.54H46.4942V101.983Z" fill="#D49A29"/>
<path d="M42.8272 101.983H39.1602V105.54H42.8272V101.983Z" fill="#D29B2A"/>
<path d="M39.1601 101.983H35.4931V105.54H39.1601V101.983Z" fill="#D1972A"/>
<path d="M35.49 101.983H31.823V105.54H35.49V101.983Z" fill="#432314"/>
<path d="M90.511 98.4258H86.844V101.983H90.511V98.4258Z" fill="#432314"/>
<path d="M86.844 98.4258H83.1769V101.983H86.844V98.4258Z" fill="#432314"/>
<path d="M83.1769 98.4258H79.5099V101.983H83.1769V98.4258Z" fill="#D49A29"/>
<path d="M79.5068 98.4258H75.8398V101.983H79.5068V98.4258Z" fill="#F9D30C"/>
<path d="M75.8398 98.4258H72.1727V101.983H75.8398V98.4258Z" fill="#FBD30B"/>
<path d="M72.1728 98.4258H68.5057V101.983H72.1728V98.4258Z" fill="#FBD30B"/>
<path d="M68.5026 98.4258H64.8356V101.983H68.5026V98.4258Z" fill="#FBD30B"/>
<path d="M64.8356 98.4258H61.1686V101.983H64.8356V98.4258Z" fill="#F7D531"/>
<path d="M61.1686 98.4258H57.5015V101.983H61.1686V98.4258Z" fill="#FBD30B"/>
<path d="M57.4985 98.4258H53.8314V101.983H57.4985V98.4258Z" fill="#FBD30B"/>
<path d="M53.8314 98.4258H50.1644V101.983H53.8314V98.4258Z" fill="#FBD30B"/>
<path d="M50.1644 98.4258H46.4973V101.983H50.1644V98.4258Z" fill="#FBD30B"/>
<path d="M46.4942 98.4258H42.8272V101.983H46.4942V98.4258Z" fill="#FBD30B"/>
<path d="M42.8272 98.4258H39.1602V101.983H42.8272V98.4258Z" fill="#FBD30B"/>
<path d="M39.1601 98.4258H35.4931V101.983H39.1601V98.4258Z" fill="#F9D20C"/>
<path d="M35.49 98.4258H31.823V101.983H35.49V98.4258Z" fill="#D49A29"/>
<path d="M31.823 98.4258H28.1559V101.983H31.823V98.4258Z" fill="#432314"/>
<path d="M28.156 98.4258H24.489V101.983H28.156V98.4258Z" fill="#432314"/>
<path d="M97.8482 94.8652H94.1812V98.4226H97.8482V94.8652Z" fill="#422415"/>
<path d="M94.1811 94.8652H90.5141V98.4226H94.1811V94.8652Z" fill="#442315"/>
<path d="M90.511 94.8652H86.844V98.4226H90.511V94.8652Z" fill="#D59A29"/>
<path d="M86.844 94.8652H83.1769V98.4226H86.844V94.8652Z" fill="#D59A29"/>
<path d="M83.1769 94.8652H79.5099V98.4226H83.1769V94.8652Z" fill="#FBD40A"/>
<path d="M79.5068 94.8652H75.8398V98.4226H79.5068V94.8652Z" fill="#FBD30B"/>
<path d="M75.8398 94.8652H72.1727V98.4226H75.8398V94.8652Z" fill="#FBD30B"/>
<path d="M72.1728 94.8652H68.5057V98.4226H72.1728V94.8652Z" fill="#FBD30B"/>
<path d="M68.5026 94.8652H64.8356V98.4226H68.5026V94.8652Z" fill="#F7DB4A"/>
<path d="M64.8356 94.8652H61.1686V98.4226H64.8356V94.8652Z" fill="#FBD30B"/>
<path d="M61.1686 94.8652H57.5015V98.4226H61.1686V94.8652Z" fill="#FBD40A"/>
<path d="M57.4985 94.8652H53.8314V98.4226H57.4985V94.8652Z" fill="#FBD30B"/>
<path d="M53.8314 94.8652H50.1644V98.4226H53.8314V94.8652Z" fill="#FBD30B"/>
<path d="M50.1644 94.8652H46.4973V98.4226H50.1644V94.8652Z" fill="#FBD30B"/>
<path d="M46.4942 94.8652H42.8272V98.4226H46.4942V94.8652Z" fill="#FBD30B"/>
<path d="M42.8272 94.8652H39.1602V98.4226H42.8272V94.8652Z" fill="#FBD40B"/>
<path d="M39.1601 94.8652H35.4931V98.4226H39.1601V94.8652Z" fill="#FBD40B"/>
<path d="M35.49 94.8652H31.823V98.4226H35.49V94.8652Z" fill="#FAD40C"/>
<path d="M31.823 94.8652H28.1559V98.4226H31.823V94.8652Z" fill="#D49B29"/>
<path d="M28.156 94.8652H24.489V98.4226H28.156V94.8652Z" fill="#D49B29"/>
<path d="M24.4859 94.8652H20.8188V98.4226H24.4859V94.8652Z" fill="#432415"/>
<path d="M97.8482 91.3081H94.1812V94.8654H97.8482V91.3081Z" fill="#412315"/>
<path d="M94.1811 91.3081H90.5141V94.8654H94.1811V91.3081Z" fill="#432314"/>
<path d="M90.511 91.3081H86.844V94.8654H90.511V91.3081Z" fill="#D49A29"/>
<path d="M86.844 91.3081H83.1769V94.8654H86.844V91.3081Z" fill="#D49A29"/>
<path d="M83.1769 91.3081H79.5099V94.8654H83.1769V91.3081Z" fill="#FBD30B"/>
<path d="M79.5068 91.3081H75.8398V94.8654H79.5068V91.3081Z" fill="#FBD30B"/>
<path d="M75.8398 91.3081H72.1727V94.8654H75.8398V91.3081Z" fill="#FBD30B"/>
<path d="M72.1728 91.3081H68.5057V94.8654H72.1728V91.3081Z" fill="#FBD30C"/>
<path d="M68.5026 91.3081H64.8356V94.8654H68.5026V91.3081Z" fill="#FBD30B"/>
<path d="M64.8356 91.3081H61.1686V94.8654H64.8356V91.3081Z" fill="#FBD30B"/>
<path d="M61.1686 91.3081H57.5015V94.8654H61.1686V91.3081Z" fill="#FBD30B"/>
<path d="M57.4985 91.3081H53.8314V94.8654H57.4985V91.3081Z" fill="#FBD30C"/>
<path d="M53.8314 91.3081H50.1644V94.8654H53.8314V91.3081Z" fill="#FBD30B"/>
<path d="M50.1644 91.3081H46.4973V94.8654H50.1644V91.3081Z" fill="#FBD30B"/>
<path d="M46.4942 91.3081H42.8272V94.8654H46.4942V91.3081Z" fill="#FBD30C"/>
<path d="M42.8272 91.3081H39.1602V94.8654H42.8272V91.3081Z" fill="#FBD30B"/>
<path d="M39.1601 91.3081H35.4931V94.8654H39.1601V91.3081Z" fill="#FBD30B"/>
<path d="M35.49 91.3081H31.823V94.8654H35.49V91.3081Z" fill="#FBD30B"/>
<path d="M31.823 91.3081H28.1559V94.8654H31.823V91.3081Z" fill="#D59C29"/>
<path d="M28.156 91.3081H24.489V94.8654H28.156V91.3081Z" fill="#D49A29"/>
<path d="M24.4859 91.3081H20.8188V94.8654H24.4859V91.3081Z" fill="#432314"/>
<path d="M101.515 87.7476H97.8482V91.3049H101.515V87.7476Z" fill="#432314"/>
<path d="M97.8482 87.7476H94.1812V91.3049H97.8482V87.7476Z" fill="#D69C29"/>
<path d="M94.1811 87.7476H90.5141V91.3049H94.1811V87.7476Z" fill="#D49A29"/>
<path d="M90.511 87.7476H86.844V91.3049H90.511V87.7476Z" fill="#FBD30B"/>
<path d="M86.844 87.7476H83.1769V91.3049H86.844V87.7476Z" fill="#FBD30B"/>
<path d="M83.1769 87.7476H79.5099V91.3049H83.1769V87.7476Z" fill="#FBD30B"/>
<path d="M79.5068 87.7476H75.8398V91.3049H79.5068V87.7476Z" fill="#FBD30B"/>
<path d="M75.8398 87.7476H72.1727V91.3049H75.8398V87.7476Z" fill="#FBD30B"/>
<path d="M72.1728 87.7476H68.5057V91.3049H72.1728V87.7476Z" fill="#FBD30B"/>
<path d="M68.5026 87.7476H64.8356V91.3049H68.5026V87.7476Z" fill="#D33192"/>
<path d="M64.8356 87.7476H61.1686V91.3049H64.8356V87.7476Z" fill="#D33192"/>
<path d="M61.1686 87.7476H57.5015V91.3049H61.1686V87.7476Z" fill="#D33192"/>
<path d="M57.4985 87.7476H53.8314V91.3049H57.4985V87.7476Z" fill="#D33192"/>
<path d="M53.8314 87.7476H50.1644V91.3049H53.8314V87.7476Z" fill="#D43393"/>
<path d="M50.1644 87.7476H46.4973V91.3049H50.1644V87.7476Z" fill="#FBD30B"/>
<path d="M46.4942 87.7476H42.8272V91.3049H46.4942V87.7476Z" fill="#FBD30B"/>
<path d="M42.8272 87.7476H39.1602V91.3049H42.8272V87.7476Z" fill="#FBD30B"/>
<path d="M39.1601 87.7476H35.4931V91.3049H39.1601V87.7476Z" fill="#FBD30B"/>
<path d="M35.49 87.7476H31.823V91.3049H35.49V87.7476Z" fill="#FBD30B"/>
<path d="M31.823 87.7476H28.1559V91.3049H31.823V87.7476Z" fill="#FBD30B"/>
<path d="M28.156 87.7476H24.489V91.3049H28.156V87.7476Z" fill="#FBD30B"/>
<path d="M24.4859 87.7476H20.8188V91.3049H24.4859V87.7476Z" fill="#D49A29"/>
<path d="M20.8188 87.7476H17.1518V91.3049H20.8188V87.7476Z" fill="#432314"/>
<path d="M17.1518 87.7476H13.4847V91.3049H17.1518V87.7476Z" fill="#432314"/>
<path d="M101.515 84.1904H97.8482V87.7478H101.515V84.1904Z" fill="#452516"/>
<path d="M97.8482 84.1904H94.1812V87.7478H97.8482V84.1904Z" fill="#F8CF15"/>
<path d="M94.1811 84.1904H90.5141V87.7478H94.1811V84.1904Z" fill="#F8CD17"/>
<path d="M90.511 84.1904H86.844V87.7478H90.511V84.1904Z" fill="#FBD30B"/>
<path d="M86.844 84.1904H83.1769V87.7478H86.844V84.1904Z" fill="#FBD30B"/>
<path d="M83.1769 84.1904H79.5099V87.7478H83.1769V84.1904Z" fill="#FBD30B"/>
<path d="M79.5068 84.1904H75.8398V87.7478H79.5068V84.1904Z" fill="#FBD30B"/>
<path d="M75.8398 84.1904H72.1727V87.7478H75.8398V84.1904Z" fill="#FBD30B"/>
<path d="M72.1728 84.1904H68.5057V87.7478H72.1728V84.1904Z" fill="#441032"/>
<path d="M68.5026 84.1904H64.8356V87.7478H68.5026V84.1904Z" fill="#DE69A8"/>
<path d="M64.8356 84.1904H61.1686V87.7478H64.8356V84.1904Z" fill="#DE69A8"/>
<path d="M61.1686 84.1904H57.5015V87.7478H61.1686V84.1904Z" fill="#DE69A8"/>
<path d="M57.4985 84.1904H53.8314V87.7478H57.4985V84.1904Z" fill="#DE69A8"/>
<path d="M53.8314 84.1904H50.1644V87.7478H53.8314V84.1904Z" fill="#D33293"/>
<path d="M50.1644 84.1904H46.4973V87.7478H50.1644V84.1904Z" fill="#D43393"/>
<path d="M46.4942 84.1904H42.8272V87.7478H46.4942V84.1904Z" fill="#441032"/>
<path d="M42.8272 84.1904H39.1602V87.7478H42.8272V84.1904Z" fill="#FBD30B"/>
<path d="M39.1601 84.1904H35.4931V87.7478H39.1601V84.1904Z" fill="#FBD30B"/>
<path d="M35.49 84.1904H31.823V87.7478H35.49V84.1904Z" fill="#FBD30B"/>
<path d="M31.823 84.1904H28.1559V87.7478H31.823V84.1904Z" fill="#FBD30B"/>
<path d="M28.156 84.1904H24.489V87.7478H28.156V84.1904Z" fill="#FBD30B"/>
<path d="M24.4859 84.1904H20.8188V87.7478H24.4859V84.1904Z" fill="#D49A29"/>
<path d="M20.8188 84.1904H17.1518V87.7478H20.8188V84.1904Z" fill="#432314"/>
<path d="M17.1518 84.1904H13.4847V87.7478H17.1518V84.1904Z" fill="#432314"/>
<path d="M105.185 80.6299H101.518V84.1872H105.185V80.6299Z" fill="#432314"/>
<path d="M101.515 80.6299H97.8482V84.1872H101.515V80.6299Z" fill="#D49A29"/>
<path d="M97.8482 80.6299H94.1812V84.1872H97.8482V80.6299Z" fill="#FBD30B"/>
<path d="M94.1811 80.6299H90.5141V84.1872H94.1811V80.6299Z" fill="#FBD30B"/>
<path d="M90.511 80.6299H86.844V84.1872H90.511V80.6299Z" fill="#FBD30B"/>
<path d="M86.844 80.6299H83.1769V84.1872H86.844V80.6299Z" fill="#F8D618"/>
<path d="M83.1769 80.6299H79.5099V84.1872H83.1769V80.6299Z" fill="#FBD30B"/>
<path d="M79.5068 80.6299H75.8398V84.1872H79.5068V80.6299Z" fill="#F8D618"/>
<path d="M75.8398 80.6299H72.1727V84.1872H75.8398V80.6299Z" fill="#441032"/>
<path d="M72.1728 80.6299H68.5057V84.1872H72.1728V80.6299Z" fill="#491738"/>
<path d="M68.5026 80.6299H64.8356V84.1872H68.5026V80.6299Z" fill="#7A325B"/>
<path d="M64.8356 80.6299H61.1686V84.1872H64.8356V80.6299Z" fill="#DE69A8"/>
<path d="M61.1686 80.6299H57.5015V84.1872H61.1686V80.6299Z" fill="#DE69A8"/>
<path d="M57.4985 80.6299H53.8314V84.1872H57.4985V80.6299Z" fill="#D33192"/>
<path d="M53.8314 80.6299H50.1644V84.1872H53.8314V80.6299Z" fill="#D33192"/>
<path d="M50.1644 80.6299H46.4973V84.1872H50.1644V80.6299Z" fill="#441032"/>
<path d="M46.4942 80.6299H42.8272V84.1872H46.4942V80.6299Z" fill="#441032"/>
<path d="M42.8272 80.6299H39.1602V84.1872H42.8272V80.6299Z" fill="#441032"/>
<path d="M39.1601 80.6299H35.4931V84.1872H39.1601V80.6299Z" fill="#FBD30B"/>
<path d="M35.49 80.6299H31.823V84.1872H35.49V80.6299Z" fill="#FBD30B"/>
<path d="M31.823 80.6299H28.1559V84.1872H31.823V80.6299Z" fill="#F8D520"/>
<path d="M28.156 80.6299H24.489V84.1872H28.156V80.6299Z" fill="#FBD30B"/>
<path d="M24.4859 80.6299H20.8188V84.1872H24.4859V80.6299Z" fill="#FBD30B"/>
<path d="M20.8188 80.6299H17.1518V84.1872H20.8188V80.6299Z" fill="#D49A29"/>
<path d="M17.1518 80.6299H13.4847V84.1872H17.1518V80.6299Z" fill="#D49A29"/>
<path d="M13.4817 80.6299H9.81464V84.1872H13.4817V80.6299Z" fill="#432314"/>
<path d="M105.185 77.0728H101.518V80.6301H105.185V77.0728Z" fill="#432314"/>
<path d="M101.515 77.0728H97.8482V80.6301H101.515V77.0728Z" fill="#D49A29"/>
<path d="M97.8482 77.0728H94.1812V80.6301H97.8482V77.0728Z" fill="#FBD30B"/>
<path d="M94.1811 77.0728H90.5141V80.6301H94.1811V77.0728Z" fill="#FBD30B"/>
<path d="M90.511 77.0728H86.844V80.6301H90.511V77.0728Z" fill="#FAD50D"/>
<path d="M86.844 77.0728H83.1769V80.6301H86.844V77.0728Z" fill="#FBD30B"/>
<path d="M83.1769 77.0728H79.5099V80.6301H83.1769V77.0728Z" fill="#FBD30B"/>
<path d="M79.5068 77.0728H75.8398V80.6301H79.5068V77.0728Z" fill="#441032"/>
<path d="M75.8398 77.0728H72.1727V80.6301H75.8398V77.0728Z" fill="#441032"/>
<path d="M72.1728 77.0728H68.5057V80.6301H72.1728V77.0728Z" fill="#441032"/>
<path d="M68.5026 77.0728H64.8356V80.6301H68.5026V77.0728Z" fill="#441032"/>
<path d="M64.8356 77.0728H61.1686V80.6301H64.8356V77.0728Z" fill="#441032"/>
<path d="M61.1686 77.0728H57.5015V80.6301H61.1686V77.0728Z" fill="#441032"/>
<path d="M57.4985 77.0728H53.8314V80.6301H57.4985V77.0728Z" fill="#441032"/>
<path d="M53.8314 77.0728H50.1644V80.6301H53.8314V77.0728Z" fill="#441032"/>
<path d="M50.1644 77.0728H46.4973V80.6301H50.1644V77.0728Z" fill="#441032"/>
<path d="M46.4942 77.0728H42.8272V80.6301H46.4942V77.0728Z" fill="#441032"/>
<path d="M42.8272 77.0728H39.1602V80.6301H42.8272V77.0728Z" fill="#441032"/>
<path d="M39.1601 77.0728H35.4931V80.6301H39.1601V77.0728Z" fill="#441032"/>
<path d="M35.49 77.0728H31.823V80.6301H35.49V77.0728Z" fill="#F7D83B"/>
<path d="M31.823 77.0728H28.1559V80.6301H31.823V77.0728Z" fill="#FBD40B"/>
<path d="M28.156 77.0728H24.489V80.6301H28.156V77.0728Z" fill="#FBD30B"/>
<path d="M24.4859 77.0728H20.8188V80.6301H24.4859V77.0728Z" fill="#FBD30B"/>
<path d="M20.8188 77.0728H17.1518V80.6301H20.8188V77.0728Z" fill="#D49A29"/>
<path d="M17.1518 77.0728H13.4847V80.6301H17.1518V77.0728Z" fill="#D49A29"/>
<path d="M13.4817 77.0728H9.81464V80.6301H13.4817V77.0728Z" fill="#442515"/>
<path d="M105.185 73.5156H101.518V77.073H105.185V73.5156Z" fill="#432314"/>
<path d="M101.515 73.5156H97.8482V77.073H101.515V73.5156Z" fill="#D49A29"/>
<path d="M97.8482 73.5156H94.1812V77.073H97.8482V73.5156Z" fill="#FBD30B"/>
<path d="M94.1811 73.5156H90.5141V77.073H94.1811V73.5156Z" fill="#F8D41F"/>
<path d="M90.511 73.5156H86.844V77.073H90.511V73.5156Z" fill="#FAD60B"/>
<path d="M86.844 73.5156H83.1769V77.073H86.844V73.5156Z" fill="#FBD30B"/>
<path d="M83.1769 73.5156H79.5099V77.073H83.1769V73.5156Z" fill="#FBD30B"/>
<path d="M79.5068 73.5156H75.8398V77.073H79.5068V73.5156Z" fill="#441032"/>
<path d="M75.8398 73.5156H72.1727V77.073H75.8398V73.5156Z" fill="#441032"/>
<path d="M72.1728 73.5156H68.5057V77.073H72.1728V73.5156Z" fill="#441032"/>
<path d="M68.5026 73.5156H64.8356V77.073H68.5026V73.5156Z" fill="#441032"/>
<path d="M64.8356 73.5156H61.1686V77.073H64.8356V73.5156Z" fill="#441032"/>
<path d="M61.1686 73.5156H57.5015V77.073H61.1686V73.5156Z" fill="#441032"/>
<path d="M57.4985 73.5156H53.8314V77.073H57.4985V73.5156Z" fill="#441032"/>
<path d="M53.8314 73.5156H50.1644V77.073H53.8314V73.5156Z" fill="#441032"/>
<path d="M50.1644 73.5156H46.4973V77.073H50.1644V73.5156Z" fill="#441032"/>
<path d="M46.4942 73.5156H42.8272V77.073H46.4942V73.5156Z" fill="#441032"/>
<path d="M42.8272 73.5156H39.1602V77.073H42.8272V73.5156Z" fill="#441032"/>
<path d="M39.1601 73.5156H35.4931V77.073H39.1601V73.5156Z" fill="#441032"/>
<path d="M35.49 73.5156H31.823V77.073H35.49V73.5156Z" fill="#FBD30B"/>
<path d="M31.823 73.5156H28.1559V77.073H31.823V73.5156Z" fill="#FBD30B"/>
<path d="M28.156 73.5156H24.489V77.073H28.156V73.5156Z" fill="#FBD30B"/>
<path d="M24.4859 73.5156H20.8188V77.073H24.4859V73.5156Z" fill="#FBD30B"/>
<path d="M20.8188 73.5156H17.1518V77.073H20.8188V73.5156Z" fill="#D49A29"/>
<path d="M17.1518 73.5156H13.4847V77.073H17.1518V73.5156Z" fill="#D49A29"/>
<path d="M13.4817 73.5156H9.81464V77.073H13.4817V73.5156Z" fill="#442415"/>
<path d="M108.852 69.9551H105.185V73.5124H108.852V69.9551Z" fill="#432314"/>
<path d="M105.185 69.9551H101.518V73.5124H105.185V69.9551Z" fill="#D49A29"/>
<path d="M101.515 69.9551H97.8482V73.5124H101.515V69.9551Z" fill="#FBD30B"/>
<path d="M97.8482 69.9551H94.1812V73.5124H97.8482V69.9551Z" fill="#F7D316"/>
<path d="M94.1811 69.9551H90.5141V73.5124H94.1811V69.9551Z" fill="#FBD30B"/>
<path d="M90.511 69.9551H86.844V73.5124H90.511V69.9551Z" fill="#FBD30B"/>
<path d="M86.844 69.9551H83.1769V73.5124H86.844V69.9551Z" fill="#FBD30C"/>
<path d="M83.1769 69.9551H79.5099V73.5124H83.1769V69.9551Z" fill="#FBD30B"/>
<path d="M79.5068 69.9551H75.8398V73.5124H79.5068V69.9551Z" fill="#441032"/>
<path d="M75.8398 69.9551H72.1727V73.5124H75.8398V69.9551Z" fill="#FFFFFB"/>
<path d="M72.1728 69.9551H68.5057V73.5124H72.1728V69.9551Z" fill="#FFFFFB"/>
<path d="M68.5026 69.9551H64.8356V73.5124H68.5026V69.9551Z" fill="#FFFFFB"/>
<path d="M64.8356 69.9551H61.1686V73.5124H64.8356V69.9551Z" fill="#FFFFFB"/>
<path d="M61.1686 69.9551H57.5015V73.5124H61.1686V69.9551Z" fill="#FFFFFB"/>
<path d="M57.4985 69.9551H53.8314V73.5124H57.4985V69.9551Z" fill="#FFFFFB"/>
<path d="M53.8314 69.9551H50.1644V73.5124H53.8314V69.9551Z" fill="#FFFFFB"/>
<path d="M50.1644 69.9551H46.4973V73.5124H50.1644V69.9551Z" fill="#FFFFFB"/>
<path d="M46.4942 69.9551H42.8272V73.5124H46.4942V69.9551Z" fill="#DCDACF"/>
<path d="M42.8272 69.9551H39.1602V73.5124H42.8272V69.9551Z" fill="#AB999A"/>
<path d="M39.1601 69.9551H35.4931V73.5124H39.1601V69.9551Z" fill="#441032"/>
<path d="M35.49 69.9551H31.823V73.5124H35.49V69.9551Z" fill="#FBD30B"/>
<path d="M31.823 69.9551H28.1559V73.5124H31.823V69.9551Z" fill="#FBD30B"/>
<path d="M28.156 69.9551H24.489V73.5124H28.156V69.9551Z" fill="#FBD30B"/>
<path d="M24.4859 69.9551H20.8188V73.5124H24.4859V69.9551Z" fill="#FBD30B"/>
<path d="M20.8188 69.9551H17.1518V73.5124H20.8188V69.9551Z" fill="#FBD30B"/>
<path d="M17.1518 69.9551H13.4847V73.5124H17.1518V69.9551Z" fill="#FBD30B"/>
<path d="M13.4817 69.9551H9.81464V73.5124H13.4817V69.9551Z" fill="#D49A29"/>
<path d="M9.81462 69.9551H6.14758V73.5124H9.81462V69.9551Z" fill="#432314"/>
<path d="M108.852 66.3979H105.185V69.9553H108.852V66.3979Z" fill="#432314"/>
<path d="M105.185 66.3979H101.518V69.9553H105.185V66.3979Z" fill="#D49A29"/>
<path d="M101.515 66.3979H97.8482V69.9553H101.515V66.3979Z" fill="#FAD40B"/>
<path d="M97.8482 66.3979H94.1812V69.9553H97.8482V66.3979Z" fill="#FBD30B"/>
<path d="M94.1811 66.3979H90.5141V69.9553H94.1811V66.3979Z" fill="#FAD40B"/>
<path d="M90.511 66.3979H86.844V69.9553H90.511V66.3979Z" fill="#FAD40B"/>
<path d="M86.844 66.3979H83.1769V69.9553H86.844V66.3979Z" fill="#FAD40B"/>
<path d="M83.1769 66.3979H79.5099V69.9553H83.1769V66.3979Z" fill="#FBD30D"/>
<path d="M79.5068 66.3979H75.8398V69.9553H79.5068V66.3979Z" fill="#441032"/>
<path d="M75.8398 66.3979H72.1727V69.9553H75.8398V66.3979Z" fill="#DCDACF"/>
<path d="M72.1728 66.3979H68.5057V69.9553H72.1728V66.3979Z" fill="#DCDACF"/>
<path d="M68.5026 66.3979H64.8356V69.9553H68.5026V66.3979Z" fill="#DCDACF"/>
<path d="M64.8356 66.3979H61.1686V69.9553H64.8356V66.3979Z" fill="#DCDACF"/>
<path d="M61.1686 66.3979H57.5015V69.9553H61.1686V66.3979Z" fill="#DCDACF"/>
<path d="M57.4985 66.3979H53.8314V69.9553H57.4985V66.3979Z" fill="#DDDBD0"/>
<path d="M53.8314 66.3979H50.1644V69.9553H53.8314V66.3979Z" fill="#DCDACF"/>
<path d="M50.1644 66.3979H46.4973V69.9553H50.1644V66.3979Z" fill="#DCDACF"/>
<path d="M46.4942 66.3979H42.8272V69.9553H46.4942V66.3979Z" fill="#DCDACE"/>
<path d="M42.8272 66.3979H39.1602V69.9553H42.8272V66.3979Z" fill="#A79594"/>
<path d="M39.1601 66.3979H35.4931V69.9553H39.1601V66.3979Z" fill="#441032"/>
<path d="M35.49 66.3979H31.823V69.9553H35.49V66.3979Z" fill="#FBD30B"/>
<path d="M31.823 66.3979H28.1559V69.9553H31.823V66.3979Z" fill="#FBD30B"/>
<path d="M28.156 66.3979H24.489V69.9553H28.156V66.3979Z" fill="#FAD40B"/>
<path d="M24.4859 66.3979H20.8188V69.9553H24.4859V66.3979Z" fill="#FBD30B"/>
<path d="M20.8188 66.3979H17.1518V69.9553H20.8188V66.3979Z" fill="#FBD30B"/>
<path d="M17.1518 66.3979H13.4847V69.9553H17.1518V66.3979Z" fill="#FBD30B"/>
<path d="M13.4817 66.3979H9.81464V69.9553H13.4817V66.3979Z" fill="#D69C29"/>
<path d="M9.81462 66.3979H6.14758V69.9553H9.81462V66.3979Z" fill="#432314"/>
<path d="M108.852 62.8374H105.185V66.3947H108.852V62.8374Z" fill="#432314"/>
<path d="M105.185 62.8374H101.518V66.3947H105.185V62.8374Z" fill="#D7A029"/>
<path d="M101.515 62.8374H97.8482V66.3947H101.515V62.8374Z" fill="#FBD30B"/>
<path d="M97.8482 62.8374H94.1812V66.3947H97.8482V62.8374Z" fill="#FBD30B"/>
<path d="M94.1811 62.8374H90.5141V66.3947H94.1811V62.8374Z" fill="#F28882"/>
<path d="M90.511 62.8374H86.844V66.3947H90.511V62.8374Z" fill="#F28882"/>
<path d="M86.844 62.8374H83.1769V66.3947H86.844V62.8374Z" fill="#F28882"/>
<path d="M83.1769 62.8374H79.5099V66.3947H83.1769V62.8374Z" fill="#FBD30B"/>
<path d="M79.5068 62.8374H75.8398V66.3947H79.5068V62.8374Z" fill="#F7D015"/>
<path d="M75.8398 62.8374H72.1727V66.3947H75.8398V62.8374Z" fill="#FBD30B"/>
<path d="M72.1728 62.8374H68.5057V66.3947H72.1728V62.8374Z" fill="#FBD30B"/>
<path d="M68.5026 62.8374H64.8356V66.3947H68.5026V62.8374Z" fill="#FBD30B"/>
<path d="M64.8356 62.8374H61.1686V66.3947H64.8356V62.8374Z" fill="#FBD30B"/>
<path d="M61.1686 62.8374H57.5015V66.3947H61.1686V62.8374Z" fill="#FBD30B"/>
<path d="M57.4985 62.8374H53.8314V66.3947H57.4985V62.8374Z" fill="#FBD30B"/>
<path d="M53.8314 62.8374H50.1644V66.3947H53.8314V62.8374Z" fill="#FBD30B"/>
<path d="M50.1644 62.8374H46.4973V66.3947H50.1644V62.8374Z" fill="#FBD40B"/>
<path d="M46.4942 62.8374H42.8272V66.3947H46.4942V62.8374Z" fill="#FBD30B"/>
<path d="M42.8272 62.8374H39.1602V66.3947H42.8272V62.8374Z" fill="#FBD30B"/>
<path d="M39.1601 62.8374H35.4931V66.3947H39.1601V62.8374Z" fill="#FBD30B"/>
<path d="M35.49 62.8374H31.823V66.3947H35.49V62.8374Z" fill="#FBD30B"/>
<path d="M31.823 62.8374H28.1559V66.3947H31.823V62.8374Z" fill="#F28882"/>
<path d="M28.156 62.8374H24.489V66.3947H28.156V62.8374Z" fill="#F28882"/>
<path d="M24.4859 62.8374H20.8188V66.3947H24.4859V62.8374Z" fill="#EC8984"/>
<path d="M20.8188 62.8374H17.1518V66.3947H20.8188V62.8374Z" fill="#F8B35D"/>
<path d="M17.1518 62.8374H13.4847V66.3947H17.1518V62.8374Z" fill="#FBD30B"/>
<path d="M13.4817 62.8374H9.81464V66.3947H13.4817V62.8374Z" fill="#FBD30B"/>
<path d="M9.81462 62.8374H6.14758V66.3947H9.81462V62.8374Z" fill="#432314"/>
<path d="M108.852 59.2803H105.185V62.8376H108.852V59.2803Z" fill="#432314"/>
<path d="M105.185 59.2803H101.518V62.8376H105.185V59.2803Z" fill="#D49A29"/>
<path d="M101.515 59.2803H97.8482V62.8376H101.515V59.2803Z" fill="#FBD30B"/>
<path d="M97.8482 59.2803H94.1812V62.8376H97.8482V59.2803Z" fill="#FBD30B"/>
<path d="M94.1811 59.2803H90.5141V62.8376H94.1811V59.2803Z" fill="#FBD30B"/>
<path d="M90.511 59.2803H86.844V62.8376H90.511V59.2803Z" fill="#FBD30B"/>
<path d="M86.844 59.2803H83.1769V62.8376H86.844V59.2803Z" fill="#FBD30B"/>
<path d="M83.1769 59.2803H79.5099V62.8376H83.1769V59.2803Z" fill="#FBD40A"/>
<path d="M79.5068 59.2803H75.8398V62.8376H79.5068V59.2803Z" fill="#FBD30B"/>
<path d="M75.8398 59.2803H72.1727V62.8376H75.8398V59.2803Z" fill="#FBD30D"/>
<path d="M72.1728 59.2803H68.5057V62.8376H72.1728V59.2803Z" fill="#FBD30B"/>
<path d="M68.5026 59.2803H64.8356V62.8376H68.5026V59.2803Z" fill="#FBD30B"/>
<path d="M64.8356 59.2803H61.1686V62.8376H64.8356V59.2803Z" fill="#FBD30B"/>
<path d="M61.1686 59.2803H57.5015V62.8376H61.1686V59.2803Z" fill="#FBD30B"/>
<path d="M57.4985 59.2803H53.8314V62.8376H57.4985V59.2803Z" fill="#FBD30B"/>
<path d="M53.8314 59.2803H50.1644V62.8376H53.8314V59.2803Z" fill="#FBD30B"/>
<path d="M50.1644 59.2803H46.4973V62.8376H50.1644V59.2803Z" fill="#FBD30B"/>
<path d="M46.4942 59.2803H42.8272V62.8376H46.4942V59.2803Z" fill="#FBD30B"/>
<path d="M42.8272 59.2803H39.1602V62.8376H42.8272V59.2803Z" fill="#FBD30B"/>
<path d="M39.1601 59.2803H35.4931V62.8376H39.1601V59.2803Z" fill="#FBD30B"/>
<path d="M35.49 59.2803H31.823V62.8376H35.49V59.2803Z" fill="#FBD30B"/>
<path d="M31.823 59.2803H28.1559V62.8376H31.823V59.2803Z" fill="#FBD30B"/>
<path d="M28.156 59.2803H24.489V62.8376H28.156V59.2803Z" fill="#FBD30D"/>
<path d="M24.4859 59.2803H20.8188V62.8376H24.4859V59.2803Z" fill="#FBD30B"/>
<path d="M20.8188 59.2803H17.1518V62.8376H20.8188V59.2803Z" fill="#FBD40B"/>
<path d="M17.1518 59.2803H13.4847V62.8376H17.1518V59.2803Z" fill="#FBD30B"/>
<path d="M13.4817 59.2803H9.81464V62.8376H13.4817V59.2803Z" fill="#FBD30B"/>
<path d="M9.81462 59.2803H6.14758V62.8376H9.81462V59.2803Z" fill="#432314"/>
<path d="M108.852 55.7197H105.185V59.2771H108.852V55.7197Z" fill="#432314"/>
<path d="M105.185 55.7197H101.518V59.2771H105.185V55.7197Z" fill="#D49A29"/>
<path d="M101.515 55.7197H97.8482V59.2771H101.515V55.7197Z" fill="#FBD30B"/>
<path d="M97.8482 55.7197H94.1812V59.2771H97.8482V55.7197Z" fill="#FBD50B"/>
<path d="M94.1811 55.7197H90.5141V59.2771H94.1811V55.7197Z" fill="#FBD30B"/>
<path d="M90.511 55.7197H86.844V59.2771H90.511V55.7197Z" fill="#FBD30B"/>
<path d="M86.844 55.7197H83.1769V59.2771H86.844V55.7197Z" fill="#FBD30C"/>
<path d="M83.1769 55.7197H79.5099V59.2771H83.1769V55.7197Z" fill="#312426"/>
<path d="M79.5068 55.7197H75.8398V59.2771H79.5068V55.7197Z" fill="#312426"/>
<path d="M75.8398 55.7197H72.1727V59.2771H75.8398V55.7197Z" fill="#312426"/>
<path d="M72.1728 55.7197H68.5057V59.2771H72.1728V55.7197Z" fill="#FBD30B"/>
<path d="M68.5026 55.7197H64.8356V59.2771H68.5026V55.7197Z" fill="#FBD30B"/>
<path d="M64.8356 55.7197H61.1686V59.2771H64.8356V55.7197Z" fill="#FBD30B"/>
<path d="M61.1686 55.7197H57.5015V59.2771H61.1686V55.7197Z" fill="#FBD40B"/>
<path d="M57.4985 55.7197H53.8314V59.2771H57.4985V55.7197Z" fill="#FBD30B"/>
<path d="M53.8314 55.7197H50.1644V59.2771H53.8314V55.7197Z" fill="#FBD30B"/>
<path d="M50.1644 55.7197H46.4973V59.2771H50.1644V55.7197Z" fill="#FBD30B"/>
<path d="M46.4942 55.7197H42.8272V59.2771H46.4942V55.7197Z" fill="#FBD30B"/>
<path d="M42.8272 55.7197H39.1602V59.2771H42.8272V55.7197Z" fill="#312426"/>
<path d="M39.1601 55.7197H35.4931V59.2771H39.1601V55.7197Z" fill="#312426"/>
<path d="M35.49 55.7197H31.823V59.2771H35.49V55.7197Z" fill="#312426"/>
<path d="M31.823 55.7197H28.1559V59.2771H31.823V55.7197Z" fill="#FBD40B"/>
<path d="M28.156 55.7197H24.489V59.2771H28.156V55.7197Z" fill="#FBD30B"/>
<path d="M24.4859 55.7197H20.8188V59.2771H24.4859V55.7197Z" fill="#FBD30B"/>
<path d="M20.8188 55.7197H17.1518V59.2771H20.8188V55.7197Z" fill="#FBD30B"/>
<path d="M17.1518 55.7197H13.4847V59.2771H17.1518V55.7197Z" fill="#FBD40B"/>
<path d="M13.4817 55.7197H9.81464V59.2771H13.4817V55.7197Z" fill="#FBD30B"/>
<path d="M9.81462 55.7197H6.14758V59.2771H9.81462V55.7197Z" fill="#432314"/>
<path d="M108.852 52.1626H105.185V55.7199H108.852V52.1626Z" fill="#432314"/>
<path d="M105.185 52.1626H101.518V55.7199H105.185V52.1626Z" fill="#D49A29"/>
<path d="M101.515 52.1626H97.8482V55.7199H101.515V52.1626Z" fill="#FBD30B"/>
<path d="M97.8482 52.1626H94.1812V55.7199H97.8482V52.1626Z" fill="#FBD30B"/>
<path d="M94.1811 52.1626H90.5141V55.7199H94.1811V52.1626Z" fill="#FBD20D"/>
<path d="M90.511 52.1626H86.844V55.7199H90.511V52.1626Z" fill="#FBD50B"/>
<path d="M86.844 52.1626H83.1769V55.7199H86.844V52.1626Z" fill="#FBD30B"/>
<path d="M83.1769 52.1626H79.5099V55.7199H83.1769V52.1626Z" fill="#312426"/>
<path d="M79.5068 52.1626H75.8398V55.7199H79.5068V52.1626Z" fill="#312426"/>
<path d="M75.8398 52.1626H72.1727V55.7199H75.8398V52.1626Z" fill="#312426"/>
<path d="M72.1728 52.1626H68.5057V55.7199H72.1728V52.1626Z" fill="#FBD30B"/>
<path d="M68.5026 52.1626H64.8356V55.7199H68.5026V52.1626Z" fill="#FBD30B"/>
<path d="M64.8356 52.1626H61.1686V55.7199H64.8356V52.1626Z" fill="#F9D40F"/>
<path d="M61.1686 52.1626H57.5015V55.7199H61.1686V52.1626Z" fill="#FBD40A"/>
<path d="M57.4985 52.1626H53.8314V55.7199H57.4985V52.1626Z" fill="#FBD30B"/>
<path d="M53.8314 52.1626H50.1644V55.7199H53.8314V52.1626Z" fill="#FBD30B"/>
<path d="M50.1644 52.1626H46.4973V55.7199H50.1644V52.1626Z" fill="#FBD30B"/>
<path d="M46.4942 52.1626H42.8272V55.7199H46.4942V52.1626Z" fill="#FBD30B"/>
<path d="M42.8272 52.1626H39.1602V55.7199H42.8272V52.1626Z" fill="#312426"/>
<path d="M39.1601 52.1626H35.4931V55.7199H39.1601V52.1626Z" fill="#312427"/>
<path d="M35.49 52.1626H31.823V55.7199H35.49V52.1626Z" fill="#36292B"/>
<path d="M31.823 52.1626H28.1559V55.7199H31.823V52.1626Z" fill="#FBD30B"/>
<path d="M28.156 52.1626H24.489V55.7199H28.156V52.1626Z" fill="#FBD30B"/>
<path d="M24.4859 52.1626H20.8188V55.7199H24.4859V52.1626Z" fill="#FBD30B"/>
<path d="M20.8188 52.1626H17.1518V55.7199H20.8188V52.1626Z" fill="#FBD30B"/>
<path d="M17.1518 52.1626H13.4847V55.7199H17.1518V52.1626Z" fill="#FBD30B"/>
<path d="M13.4817 52.1626H9.81464V55.7199H13.4817V52.1626Z" fill="#FBD40B"/>
<path d="M9.81462 52.1626H6.14758V55.7199H9.81462V52.1626Z" fill="#594134"/>
<path d="M108.852 48.6021H105.185V52.1594H108.852V48.6021Z" fill="#432314"/>
<path d="M105.185 48.6021H101.518V52.1594H105.185V48.6021Z" fill="#D49A29"/>
<path d="M101.515 48.6021H97.8482V52.1594H101.515V48.6021Z" fill="#FBD30B"/>
<path d="M97.8482 48.6021H94.1812V52.1594H97.8482V48.6021Z" fill="#FBD30B"/>
<path d="M94.1811 48.6021H90.5141V52.1594H94.1811V48.6021Z" fill="#FBD30C"/>
<path d="M90.511 48.6021H86.844V52.1594H90.511V48.6021Z" fill="#FBD40C"/>
<path d="M86.844 48.6021H83.1769V52.1594H86.844V48.6021Z" fill="#FBD30B"/>
<path d="M83.1769 48.6021H79.5099V52.1594H83.1769V48.6021Z" fill="#312426"/>
<path d="M79.5068 48.6021H75.8398V52.1594H79.5068V48.6021Z" fill="#312426"/>
<path d="M75.8398 48.6021H72.1727V52.1594H75.8398V48.6021Z" fill="#312426"/>
<path d="M72.1728 48.6021H68.5057V52.1594H72.1728V48.6021Z" fill="#FBD30B"/>
<path d="M68.5026 48.6021H64.8356V52.1594H68.5026V48.6021Z" fill="#F5D32A"/>
<path d="M64.8356 48.6021H61.1686V52.1594H64.8356V48.6021Z" fill="#FBD30B"/>
<path d="M61.1686 48.6021H57.5015V52.1594H61.1686V48.6021Z" fill="#FBD30B"/>
<path d="M57.4985 48.6021H53.8314V52.1594H57.4985V48.6021Z" fill="#FBD30B"/>
<path d="M53.8314 48.6021H50.1644V52.1594H53.8314V48.6021Z" fill="#FBD30B"/>
<path d="M50.1644 48.6021H46.4973V52.1594H50.1644V48.6021Z" fill="#FBD30B"/>
<path d="M46.4942 48.6021H42.8272V52.1594H46.4942V48.6021Z" fill="#FBD30B"/>
<path d="M42.8272 48.6021H39.1602V52.1594H42.8272V48.6021Z" fill="#312426"/>
<path d="M39.1601 48.6021H35.4931V52.1594H39.1601V48.6021Z" fill="#312426"/>
<path d="M35.49 48.6021H31.823V52.1594H35.49V48.6021Z" fill="#312426"/>
<path d="M31.823 48.6021H28.1559V52.1594H31.823V48.6021Z" fill="#FBD30B"/>
<path d="M28.156 48.6021H24.489V52.1594H28.156V48.6021Z" fill="#FBD30B"/>
<path d="M24.4859 48.6021H20.8188V52.1594H24.4859V48.6021Z" fill="#FBD30B"/>
<path d="M20.8188 48.6021H17.1518V52.1594H20.8188V48.6021Z" fill="#FBD30B"/>
<path d="M17.1518 48.6021H13.4847V52.1594H17.1518V48.6021Z" fill="#FBD30B"/>
<path d="M13.4817 48.6021H9.81464V52.1594H13.4817V48.6021Z" fill="#F7D633"/>
<path d="M9.81462 48.6021H6.14758V52.1594H9.81462V48.6021Z" fill="#452616"/>
<path d="M108.852 45.0449H105.185V48.6023H108.852V45.0449Z" fill="#432314"/>
<path d="M105.185 45.0449H101.518V48.6023H105.185V45.0449Z" fill="#D49A29"/>
<path d="M101.515 45.0449H97.8482V48.6023H101.515V45.0449Z" fill="#FBD30B"/>
<path d="M97.8482 45.0449H94.1812V48.6023H97.8482V45.0449Z" fill="#FBD30B"/>
<path d="M94.1811 45.0449H90.5141V48.6023H94.1811V45.0449Z" fill="#FBD30B"/>
<path d="M90.511 45.0449H86.844V48.6023H90.511V45.0449Z" fill="#FBD30B"/>
<path d="M86.844 45.0449H83.1769V48.6023H86.844V45.0449Z" fill="#F9D40D"/>
<path d="M83.1769 45.0449H79.5099V48.6023H83.1769V45.0449Z" fill="#312426"/>
<path d="M79.5068 45.0449H75.8398V48.6023H79.5068V45.0449Z" fill="#312426"/>
<path d="M75.8398 45.0449H72.1727V48.6023H75.8398V45.0449Z" fill="#312426"/>
<path d="M72.1728 45.0449H68.5057V48.6023H72.1728V45.0449Z" fill="#F9D40D"/>
<path d="M68.5026 45.0449H64.8356V48.6023H68.5026V45.0449Z" fill="#FBD30B"/>
<path d="M64.8356 45.0449H61.1686V48.6023H64.8356V45.0449Z" fill="#FBD30B"/>
<path d="M61.1686 45.0449H57.5015V48.6023H61.1686V45.0449Z" fill="#FBD30B"/>
<path d="M57.4985 45.0449H53.8314V48.6023H57.4985V45.0449Z" fill="#FBD30B"/>
<path d="M53.8314 45.0449H50.1644V48.6023H53.8314V45.0449Z" fill="#FBD30B"/>
<path d="M50.1644 45.0449H46.4973V48.6023H50.1644V45.0449Z" fill="#FBD30B"/>
<path d="M46.4942 45.0449H42.8272V48.6023H46.4942V45.0449Z" fill="#FBD30B"/>
<path d="M42.8272 45.0449H39.1602V48.6023H42.8272V45.0449Z" fill="#312426"/>
<path d="M39.1601 45.0449H35.4931V48.6023H39.1601V45.0449Z" fill="#312426"/>
<path d="M35.49 45.0449H31.823V48.6023H35.49V45.0449Z" fill="#312426"/>
<path d="M31.823 45.0449H28.1559V48.6023H31.823V45.0449Z" fill="#FAD50C"/>
<path d="M28.156 45.0449H24.489V48.6023H28.156V45.0449Z" fill="#FBD30B"/>
<path d="M24.4859 45.0449H20.8188V48.6023H24.4859V45.0449Z" fill="#FBD30B"/>
<path d="M20.8188 45.0449H17.1518V48.6023H20.8188V45.0449Z" fill="#FBD30B"/>
<path d="M17.1518 45.0449H13.4847V48.6023H17.1518V45.0449Z" fill="#F7DA48"/>
<path d="M13.4817 45.0449H9.81464V48.6023H13.4817V45.0449Z" fill="#FBD30B"/>
<path d="M9.81462 45.0449H6.14758V48.6023H9.81462V45.0449Z" fill="#432314"/>
<path d="M108.852 41.4844H105.185V45.0417H108.852V41.4844Z" fill="#432416"/>
<path d="M105.185 41.4844H101.518V45.0417H105.185V41.4844Z" fill="#D49A29"/>
<path d="M101.515 41.4844H97.8482V45.0417H101.515V41.4844Z" fill="#FBD50B"/>
<path d="M97.8482 41.4844H94.1812V45.0417H97.8482V41.4844Z" fill="#FBD30B"/>
<path d="M94.1811 41.4844H90.5141V45.0417H94.1811V41.4844Z" fill="#FBD30B"/>
<path d="M90.511 41.4844H86.844V45.0417H90.511V41.4844Z" fill="#FBD30B"/>
<path d="M86.844 41.4844H83.1769V45.0417H86.844V41.4844Z" fill="#FBD30B"/>
<path d="M83.1769 41.4844H79.5099V45.0417H83.1769V41.4844Z" fill="#FFFFFB"/>
<path d="M79.5068 41.4844H75.8398V45.0417H79.5068V41.4844Z" fill="#FFFFFB"/>
<path d="M75.8398 41.4844H72.1727V45.0417H75.8398V41.4844Z" fill="#312426"/>
<path d="M72.1728 41.4844H68.5057V45.0417H72.1728V41.4844Z" fill="#FBD30B"/>
<path d="M68.5026 41.4844H64.8356V45.0417H68.5026V41.4844Z" fill="#FBD30B"/>
<path d="M64.8356 41.4844H61.1686V45.0417H64.8356V41.4844Z" fill="#FBD30B"/>
<path d="M61.1686 41.4844H57.5015V45.0417H61.1686V41.4844Z" fill="#FBD30B"/>
<path d="M57.4985 41.4844H53.8314V45.0417H57.4985V41.4844Z" fill="#FBD30B"/>
<path d="M53.8314 41.4844H50.1644V45.0417H53.8314V41.4844Z" fill="#FBD30B"/>
<path d="M50.1644 41.4844H46.4973V45.0417H50.1644V41.4844Z" fill="#FBD30B"/>
<path d="M46.4942 41.4844H42.8272V45.0417H46.4942V41.4844Z" fill="#FBD30B"/>
<path d="M42.8272 41.4844H39.1602V45.0417H42.8272V41.4844Z" fill="#FFFFFB"/>
<path d="M39.1601 41.4844H35.4931V45.0417H39.1601V41.4844Z" fill="#FFFFFB"/>
<path d="M35.49 41.4844H31.823V45.0417H35.49V41.4844Z" fill="#312426"/>
<path d="M31.823 41.4844H28.1559V45.0417H31.823V41.4844Z" fill="#FBD30B"/>
<path d="M28.156 41.4844H24.489V45.0417H28.156V41.4844Z" fill="#F9D40D"/>
<path d="M24.4859 41.4844H20.8188V45.0417H24.4859V41.4844Z" fill="#FBD30B"/>
<path d="M20.8188 41.4844H17.1518V45.0417H20.8188V41.4844Z" fill="#FBD30C"/>
<path d="M17.1518 41.4844H13.4847V45.0417H17.1518V41.4844Z" fill="#FBD30B"/>
<path d="M13.4817 41.4844H9.81464V45.0417H13.4817V41.4844Z" fill="#FBD30B"/>
<path d="M9.81462 41.4844H6.14758V45.0417H9.81462V41.4844Z" fill="#432314"/>
<path d="M108.852 37.9272H105.185V41.4846H108.852V37.9272Z" fill="#755A4D"/>
<path d="M105.185 37.9272H101.518V41.4846H105.185V37.9272Z" fill="#986C2F"/>
<path d="M101.515 37.9272H97.8482V41.4846H101.515V37.9272Z" fill="#FBD30B"/>
<path d="M97.8482 37.9272H94.1812V41.4846H97.8482V37.9272Z" fill="#FBD30B"/>
<path d="M94.1811 37.9272H90.5141V41.4846H94.1811V37.9272Z" fill="#FBD30B"/>
<path d="M90.511 37.9272H86.844V41.4846H90.511V37.9272Z" fill="#FBD30B"/>
<path d="M86.844 37.9272H83.1769V41.4846H86.844V37.9272Z" fill="#FBD30B"/>
<path d="M83.1769 37.9272H79.5099V41.4846H83.1769V37.9272Z" fill="#FFFFFB"/>
<path d="M79.5068 37.9272H75.8398V41.4846H79.5068V37.9272Z" fill="#FFFFFB"/>
<path d="M75.8398 37.9272H72.1727V41.4846H75.8398V37.9272Z" fill="#312426"/>
<path d="M72.1728 37.9272H68.5057V41.4846H72.1728V37.9272Z" fill="#FBD30B"/>
<path d="M68.5026 37.9272H64.8356V41.4846H68.5026V37.9272Z" fill="#FBD30B"/>
<path d="M64.8356 37.9272H61.1686V41.4846H64.8356V37.9272Z" fill="#FBD30B"/>
<path d="M61.1686 37.9272H57.5015V41.4846H61.1686V37.9272Z" fill="#FBD30B"/>
<path d="M57.4985 37.9272H53.8314V41.4846H57.4985V37.9272Z" fill="#FBD30B"/>
<path d="M53.8314 37.9272H50.1644V41.4846H53.8314V37.9272Z" fill="#FBD30C"/>
<path d="M50.1644 37.9272H46.4973V41.4846H50.1644V37.9272Z" fill="#FBD30B"/>
<path d="M46.4942 37.9272H42.8272V41.4846H46.4942V37.9272Z" fill="#FBD30B"/>
<path d="M42.8272 37.9272H39.1602V41.4846H42.8272V37.9272Z" fill="#FFFFFB"/>
<path d="M39.1601 37.9272H35.4931V41.4846H39.1601V37.9272Z" fill="#FFFFFB"/>
<path d="M35.49 37.9272H31.823V41.4846H35.49V37.9272Z" fill="#312426"/>
<path d="M31.823 37.9272H28.1559V41.4846H31.823V37.9272Z" fill="#FBD30B"/>
<path d="M28.156 37.9272H24.489V41.4846H28.156V37.9272Z" fill="#FBD30B"/>
<path d="M24.4859 37.9272H20.8188V41.4846H24.4859V37.9272Z" fill="#F7F5DE"/>
<path d="M20.8188 37.9272H17.1518V41.4846H20.8188V37.9272Z" fill="#FFFFFB"/>
<path d="M17.1518 37.9272H13.4847V41.4846H17.1518V37.9272Z" fill="#FBD30B"/>
<path d="M13.4817 37.9272H9.81464V41.4846H13.4817V37.9272Z" fill="#FAD40D"/>
<path d="M9.81462 37.9272H6.14758V41.4846H9.81462V37.9272Z" fill="#422416"/>
<path d="M105.185 34.3701H101.518V37.9275H105.185V34.3701Z" fill="#432314"/>
<path d="M101.515 34.3701H97.8482V37.9275H101.515V34.3701Z" fill="#D69A29"/>
<path d="M97.8482 34.3701H94.1812V37.9275H97.8482V34.3701Z" fill="#D49A29"/>
<path d="M94.1811 34.3701H90.5141V37.9275H94.1811V34.3701Z" fill="#FBD30B"/>
<path d="M90.511 34.3701H86.844V37.9275H90.511V34.3701Z" fill="#FBD30B"/>
<path d="M86.844 34.3701H83.1769V37.9275H86.844V34.3701Z" fill="#FBD30B"/>
<path d="M83.1769 34.3701H79.5099V37.9275H83.1769V34.3701Z" fill="#322527"/>
<path d="M79.5068 34.3701H75.8398V37.9275H79.5068V34.3701Z" fill="#312426"/>
<path d="M75.8398 34.3701H72.1727V37.9275H75.8398V34.3701Z" fill="#312426"/>
<path d="M72.1728 34.3701H68.5057V37.9275H72.1728V34.3701Z" fill="#FBD30B"/>
<path d="M68.5026 34.3701H64.8356V37.9275H68.5026V34.3701Z" fill="#FBD30B"/>
<path d="M64.8356 34.3701H61.1686V37.9275H64.8356V34.3701Z" fill="#FBD30B"/>
<path d="M61.1686 34.3701H57.5015V37.9275H61.1686V34.3701Z" fill="#FBD30B"/>
<path d="M57.4985 34.3701H53.8314V37.9275H57.4985V34.3701Z" fill="#FBD40B"/>
<path d="M53.8314 34.3701H50.1644V37.9275H53.8314V34.3701Z" fill="#FBD30B"/>
<path d="M50.1644 34.3701H46.4973V37.9275H50.1644V34.3701Z" fill="#FBD30B"/>
<path d="M46.4942 34.3701H42.8272V37.9275H46.4942V34.3701Z" fill="#FBD40B"/>
<path d="M42.8272 34.3701H39.1602V37.9275H42.8272V34.3701Z" fill="#312426"/>
<path d="M39.1601 34.3701H35.4931V37.9275H39.1601V34.3701Z" fill="#312426"/>
<path d="M35.49 34.3701H31.823V37.9275H35.49V34.3701Z" fill="#312426"/>
<path d="M31.823 34.3701H28.1559V37.9275H31.823V34.3701Z" fill="#FBD30B"/>
<path d="M28.156 34.3701H24.489V37.9275H28.156V34.3701Z" fill="#FBE693"/>
<path d="M24.4859 34.3701H20.8188V37.9275H24.4859V34.3701Z" fill="#FAFBEA"/>
<path d="M20.8188 34.3701H17.1518V37.9275H20.8188V34.3701Z" fill="#FBE592"/>
<path d="M17.1518 34.3701H13.4847V37.9275H17.1518V34.3701Z" fill="#FBD30B"/>
<path d="M13.4817 34.3701H9.81464V37.9275H13.4817V34.3701Z" fill="#432314"/>
<path d="M105.185 30.8096H101.518V34.3669H105.185V30.8096Z" fill="#543A2B"/>
<path d="M101.515 30.8096H97.8482V34.3669H101.515V30.8096Z" fill="#D49A29"/>
<path d="M97.8482 30.8096H94.1812V34.3669H97.8482V30.8096Z" fill="#D59B29"/>
<path d="M94.1811 30.8096H90.5141V34.3669H94.1811V30.8096Z" fill="#FBD30B"/>
<path d="M90.511 30.8096H86.844V34.3669H90.511V30.8096Z" fill="#FBD30B"/>
<path d="M86.844 30.8096H83.1769V34.3669H86.844V30.8096Z" fill="#F9E35A"/>
<path d="M83.1769 30.8096H79.5099V34.3669H83.1769V30.8096Z" fill="#FBD30B"/>
<path d="M79.5068 30.8096H75.8398V34.3669H79.5068V30.8096Z" fill="#FBD30B"/>
<path d="M75.8398 30.8096H72.1727V34.3669H75.8398V30.8096Z" fill="#FBD30B"/>
<path d="M72.1728 30.8096H68.5057V34.3669H72.1728V30.8096Z" fill="#FBD30B"/>
<path d="M68.5026 30.8096H64.8356V34.3669H68.5026V30.8096Z" fill="#FBD30B"/>
<path d="M64.8356 30.8096H61.1686V34.3669H64.8356V30.8096Z" fill="#FBD30B"/>
<path d="M61.1686 30.8096H57.5015V34.3669H61.1686V30.8096Z" fill="#FBD30B"/>
<path d="M57.4985 30.8096H53.8314V34.3669H57.4985V30.8096Z" fill="#FBD30B"/>
<path d="M53.8314 30.8096H50.1644V34.3669H53.8314V30.8096Z" fill="#FBD30B"/>
<path d="M50.1644 30.8096H46.4973V34.3669H50.1644V30.8096Z" fill="#FBD30B"/>
<path d="M46.4942 30.8096H42.8272V34.3669H46.4942V30.8096Z" fill="#FBD30B"/>
<path d="M42.8272 30.8096H39.1602V34.3669H42.8272V30.8096Z" fill="#FBD40B"/>
<path d="M39.1601 30.8096H35.4931V34.3669H39.1601V30.8096Z" fill="#FBD30B"/>
<path d="M35.49 30.8096H31.823V34.3669H35.49V30.8096Z" fill="#FBD30B"/>
<path d="M31.823 30.8096H28.1559V34.3669H31.823V30.8096Z" fill="#F7D83D"/>
<path d="M28.156 30.8096H24.489V34.3669H28.156V30.8096Z" fill="#FFFFFB"/>
<path d="M24.4859 30.8096H20.8188V34.3669H24.4859V30.8096Z" fill="#FFFFFB"/>
<path d="M20.8188 30.8096H17.1518V34.3669H20.8188V30.8096Z" fill="#FBD30B"/>
<path d="M17.1518 30.8096H13.4847V34.3669H17.1518V30.8096Z" fill="#FAD40B"/>
<path d="M13.4817 30.8096H9.81464V34.3669H13.4817V30.8096Z" fill="#432314"/>
<path d="M101.515 27.2524H97.8482V30.8098H101.515V27.2524Z" fill="#432314"/>
<path d="M97.8482 27.2524H94.1812V30.8098H97.8482V27.2524Z" fill="#432314"/>
<path d="M94.1811 27.2524H90.5141V30.8098H94.1811V27.2524Z" fill="#D49A29"/>
<path d="M90.511 27.2524H86.844V30.8098H90.511V27.2524Z" fill="#F7DF56"/>
<path d="M86.844 27.2524H83.1769V30.8098H86.844V27.2524Z" fill="#FBD30B"/>
<path d="M83.1769 27.2524H79.5099V30.8098H83.1769V27.2524Z" fill="#FBD30B"/>
<path d="M79.5068 27.2524H75.8398V30.8098H79.5068V27.2524Z" fill="#FBD30B"/>
<path d="M75.8398 27.2524H72.1727V30.8098H75.8398V27.2524Z" fill="#FBD30B"/>
<path d="M72.1728 27.2524H68.5057V30.8098H72.1728V27.2524Z" fill="#FBD30B"/>
<path d="M68.5026 27.2524H64.8356V30.8098H68.5026V27.2524Z" fill="#FBD30B"/>
<path d="M64.8356 27.2524H61.1686V30.8098H64.8356V27.2524Z" fill="#FBD30B"/>
<path d="M61.1686 27.2524H57.5015V30.8098H61.1686V27.2524Z" fill="#FBD30B"/>
<path d="M57.4985 27.2524H53.8314V30.8098H57.4985V27.2524Z" fill="#FBD30B"/>
<path d="M53.8314 27.2524H50.1644V30.8098H53.8314V27.2524Z" fill="#FBD30B"/>
<path d="M50.1644 27.2524H46.4973V30.8098H50.1644V27.2524Z" fill="#FBD30B"/>
<path d="M46.4942 27.2524H42.8272V30.8098H46.4942V27.2524Z" fill="#FBD30B"/>
<path d="M42.8272 27.2524H39.1602V30.8098H42.8272V27.2524Z" fill="#FBD30B"/>
<path d="M39.1601 27.2524H35.4931V30.8098H39.1601V27.2524Z" fill="#F7EDB3"/>
<path d="M35.49 27.2524H31.823V30.8098H35.49V27.2524Z" fill="#FEFEF7"/>
<path d="M31.823 27.2524H28.1559V30.8098H31.823V27.2524Z" fill="#FEFDF7"/>
<path d="M28.156 27.2524H24.489V30.8098H28.156V27.2524Z" fill="#FFFFFB"/>
<path d="M24.4859 27.2524H20.8188V30.8098H24.4859V27.2524Z" fill="#FAD60C"/>
<path d="M20.8188 27.2524H17.1518V30.8098H20.8188V27.2524Z" fill="#432416"/>
<path d="M17.1518 27.2524H13.4847V30.8098H17.1518V27.2524Z" fill="#432416"/>
<path d="M101.515 23.6919H97.8482V27.2492H101.515V23.6919Z" fill="#432314"/>
<path d="M97.8482 23.6919H94.1812V27.2492H97.8482V23.6919Z" fill="#432314"/>
<path d="M94.1811 23.6919H90.5141V27.2492H94.1811V23.6919Z" fill="#D59B29"/>
<path d="M90.511 23.6919H86.844V27.2492H90.511V23.6919Z" fill="#FBD30B"/>
<path d="M86.844 23.6919H83.1769V27.2492H86.844V23.6919Z" fill="#FBD30B"/>
<path d="M83.1769 23.6919H79.5099V27.2492H83.1769V23.6919Z" fill="#FBD30B"/>
<path d="M79.5068 23.6919H75.8398V27.2492H79.5068V23.6919Z" fill="#FBD30B"/>
<path d="M75.8398 23.6919H72.1727V27.2492H75.8398V23.6919Z" fill="#FBD30B"/>
<path d="M72.1728 23.6919H68.5057V27.2492H72.1728V23.6919Z" fill="#FBD30B"/>
<path d="M68.5026 23.6919H64.8356V27.2492H68.5026V23.6919Z" fill="#FBD40B"/>
<path d="M64.8356 23.6919H61.1686V27.2492H64.8356V23.6919Z" fill="#FBD30B"/>
<path d="M61.1686 23.6919H57.5015V27.2492H61.1686V23.6919Z" fill="#FBD30B"/>
<path d="M57.4985 23.6919H53.8314V27.2492H57.4985V23.6919Z" fill="#FBD30B"/>
<path d="M53.8314 23.6919H50.1644V27.2492H53.8314V23.6919Z" fill="#FBD30B"/>
<path d="M50.1644 23.6919H46.4973V27.2492H50.1644V23.6919Z" fill="#FBD30B"/>
<path d="M46.4942 23.6919H42.8272V27.2492H46.4942V23.6919Z" fill="#FBD30B"/>
<path d="M42.8272 23.6919H39.1602V27.2492H42.8272V23.6919Z" fill="#F9D30C"/>
<path d="M39.1601 23.6919H35.4931V27.2492H39.1601V23.6919Z" fill="#FBF1B7"/>
<path d="M35.49 23.6919H31.823V27.2492H35.49V23.6919Z" fill="#FFFFFA"/>
<path d="M31.823 23.6919H28.1559V27.2492H31.823V23.6919Z" fill="#FFFFFB"/>
<path d="M28.156 23.6919H24.489V27.2492H28.156V23.6919Z" fill="#FFFFFB"/>
<path d="M24.4859 23.6919H20.8188V27.2492H24.4859V23.6919Z" fill="#FBD30B"/>
<path d="M20.8188 23.6919H17.1518V27.2492H20.8188V23.6919Z" fill="#432314"/>
<path d="M17.1518 23.6919H13.4847V27.2492H17.1518V23.6919Z" fill="#432314"/>
<path d="M94.1811 20.1348H90.5141V23.6921H94.1811V20.1348Z" fill="#432314"/>
<path d="M90.511 20.1348H86.844V23.6921H90.511V20.1348Z" fill="#D49A29"/>
<path d="M86.844 20.1348H83.1769V23.6921H86.844V20.1348Z" fill="#D49A29"/>
<path d="M83.1769 20.1348H79.5099V23.6921H83.1769V20.1348Z" fill="#FBD30B"/>
<path d="M79.5068 20.1348H75.8398V23.6921H79.5068V20.1348Z" fill="#FBD30B"/>
<path d="M75.8398 20.1348H72.1727V23.6921H75.8398V20.1348Z" fill="#FBD30B"/>
<path d="M72.1728 20.1348H68.5057V23.6921H72.1728V20.1348Z" fill="#FBD30C"/>
<path d="M68.5026 20.1348H64.8356V23.6921H68.5026V20.1348Z" fill="#FBD30B"/>
<path d="M64.8356 20.1348H61.1686V23.6921H64.8356V20.1348Z" fill="#FBD30B"/>
<path d="M61.1686 20.1348H57.5015V23.6921H61.1686V20.1348Z" fill="#FBD30B"/>
<path d="M57.4985 20.1348H53.8314V23.6921H57.4985V20.1348Z" fill="#FBD30C"/>
<path d="M53.8314 20.1348H50.1644V23.6921H53.8314V20.1348Z" fill="#FBD30B"/>
<path d="M50.1644 20.1348H46.4973V23.6921H50.1644V20.1348Z" fill="#FBD30B"/>
<path d="M46.4942 20.1348H42.8272V23.6921H46.4942V20.1348Z" fill="#FBD30B"/>
<path d="M42.8272 20.1348H39.1602V23.6921H42.8272V20.1348Z" fill="#FFFFFB"/>
<path d="M39.1601 20.1348H35.4931V23.6921H39.1601V20.1348Z" fill="#FFFFFB"/>
<path d="M35.49 20.1348H31.823V23.6921H35.49V20.1348Z" fill="#FFFFFB"/>
<path d="M31.823 20.1348H28.1559V23.6921H31.823V20.1348Z" fill="#FAD40B"/>
<path d="M28.156 20.1348H24.489V23.6921H28.156V20.1348Z" fill="#FBD30B"/>
<path d="M24.4859 20.1348H20.8188V23.6921H24.4859V20.1348Z" fill="#432314"/>
<path d="M94.1811 16.5742H90.5141V20.1316H94.1811V16.5742Z" fill="#B3A199"/>
<path d="M90.511 16.5742H86.844V20.1316H90.511V16.5742Z" fill="#D69A29"/>
<path d="M86.844 16.5742H83.1769V20.1316H86.844V16.5742Z" fill="#D69A29"/>
<path d="M83.1769 16.5742H79.5099V20.1316H83.1769V16.5742Z" fill="#E0AB26"/>
<path d="M79.5068 16.5742H75.8398V20.1316H79.5068V16.5742Z" fill="#E9B621"/>
<path d="M75.8398 16.5742H72.1727V20.1316H75.8398V16.5742Z" fill="#FBD40B"/>
<path d="M72.1728 16.5742H68.5057V20.1316H72.1728V16.5742Z" fill="#FBD30B"/>
<path d="M68.5026 16.5742H64.8356V20.1316H68.5026V16.5742Z" fill="#FBD30B"/>
<path d="M64.8356 16.5742H61.1686V20.1316H64.8356V16.5742Z" fill="#FBD30B"/>
<path d="M61.1686 16.5742H57.5015V20.1316H61.1686V16.5742Z" fill="#FBD30B"/>
<path d="M57.4985 16.5742H53.8314V20.1316H57.4985V16.5742Z" fill="#FBD30B"/>
<path d="M53.8314 16.5742H50.1644V20.1316H53.8314V16.5742Z" fill="#FFFFFA"/>
<path d="M50.1644 16.5742H46.4973V20.1316H50.1644V16.5742Z" fill="#FFFFFB"/>
<path d="M46.4942 16.5742H42.8272V20.1316H46.4942V16.5742Z" fill="#FFFFFB"/>
<path d="M42.8272 16.5742H39.1602V20.1316H42.8272V16.5742Z" fill="#FFFFFB"/>
<path d="M39.1601 16.5742H35.4931V20.1316H39.1601V16.5742Z" fill="#F9E26A"/>
<path d="M35.49 16.5742H31.823V20.1316H35.49V16.5742Z" fill="#FBD30B"/>
<path d="M31.823 16.5742H28.1559V20.1316H31.823V16.5742Z" fill="#B1902F"/>
<path d="M28.156 16.5742H24.489V20.1316H28.156V16.5742Z" fill="#B1902F"/>
<path d="M24.4859 16.5742H20.8188V20.1316H24.4859V16.5742Z" fill="#6D5649"/>
<path d="M90.511 13.0171H86.844V16.5744H90.511V13.0171Z" fill="#432314"/>
<path d="M86.844 13.0171H83.1769V16.5744H86.844V13.0171Z" fill="#432314"/>
<path d="M83.1769 13.0171H79.5099V16.5744H83.1769V13.0171Z" fill="#D49A29"/>
<path d="M79.5068 13.0171H75.8398V16.5744H79.5068V13.0171Z" fill="#E0A827"/>
<path d="M75.8398 13.0171H72.1727V16.5744H75.8398V13.0171Z" fill="#FBD30B"/>
<path d="M72.1728 13.0171H68.5057V16.5744H72.1728V13.0171Z" fill="#FBD30B"/>
<path d="M68.5026 13.0171H64.8356V16.5744H68.5026V13.0171Z" fill="#FBD30B"/>
<path d="M64.8356 13.0171H61.1686V16.5744H64.8356V13.0171Z" fill="#FBD30B"/>
<path d="M61.1686 13.0171H57.5015V16.5744H61.1686V13.0171Z" fill="#FBD30B"/>
<path d="M57.4985 13.0171H53.8314V16.5744H57.4985V13.0171Z" fill="#FBD30B"/>
<path d="M53.8314 13.0171H50.1644V16.5744H53.8314V13.0171Z" fill="#FAF5CE"/>
<path d="M50.1644 13.0171H46.4973V16.5744H50.1644V13.0171Z" fill="#FAF6D0"/>
<path d="M46.4942 13.0171H42.8272V16.5744H46.4942V13.0171Z" fill="#FBF8D0"/>
<path d="M42.8272 13.0171H39.1602V16.5744H42.8272V13.0171Z" fill="#FBF8D0"/>
<path d="M39.1601 13.0171H35.4931V16.5744H39.1601V13.0171Z" fill="#F9DE5D"/>
<path d="M35.49 13.0171H31.823V16.5744H35.49V13.0171Z" fill="#FBD30B"/>
<path d="M31.823 13.0171H28.1559V16.5744H31.823V13.0171Z" fill="#432314"/>
<path d="M28.156 13.0171H24.489V16.5744H28.156V13.0171Z" fill="#432314"/>
<path d="M83.1769 9.45654H79.5099V13.0139H83.1769V9.45654Z" fill="#432314"/>
<path d="M79.5068 9.45654H75.8398V13.0139H79.5068V9.45654Z" fill="#5F3E23"/>
<path d="M75.8398 9.45654H72.1727V13.0139H75.8398V9.45654Z" fill="#D49A29"/>
<path d="M72.1728 9.45654H68.5057V13.0139H72.1728V9.45654Z" fill="#FAD40B"/>
<path d="M68.5026 9.45654H64.8356V13.0139H68.5026V9.45654Z" fill="#FBD30B"/>
<path d="M64.8356 9.45654H61.1686V13.0139H64.8356V9.45654Z" fill="#FBD30B"/>
<path d="M61.1686 9.45654H57.5015V13.0139H61.1686V9.45654Z" fill="#FBD30B"/>
<path d="M57.4985 9.45654H53.8314V13.0139H57.4985V9.45654Z" fill="#F8D40D"/>
<path d="M53.8314 9.45654H50.1644V13.0139H53.8314V9.45654Z" fill="#FBD30B"/>
<path d="M50.1644 9.45654H46.4973V13.0139H50.1644V9.45654Z" fill="#FBD30B"/>
<path d="M46.4942 9.45654H42.8272V13.0139H46.4942V9.45654Z" fill="#FBD30B"/>
<path d="M42.8272 9.45654H39.1602V13.0139H42.8272V9.45654Z" fill="#FBD30B"/>
<path d="M39.1601 9.45654H35.4931V13.0139H39.1601V9.45654Z" fill="#654625"/>
<path d="M35.49 9.45654H31.823V13.0139H35.49V9.45654Z" fill="#432314"/>
<path d="M75.8398 5.89941H72.1727V9.45675H75.8398V5.89941Z" fill="#432314"/>
<path d="M72.1728 5.89941H68.5057V9.45675H72.1728V5.89941Z" fill="#432314"/>
<path d="M68.5026 5.89941H64.8356V9.45675H68.5026V5.89941Z" fill="#48281A"/>
<path d="M64.8356 5.89941H61.1686V9.45675H64.8356V5.89941Z" fill="#432314"/>
<path d="M61.1686 5.89941H57.5015V9.45675H61.1686V5.89941Z" fill="#5E4335"/>
<path d="M57.4985 5.89941H53.8314V9.45675H57.4985V5.89941Z" fill="#432314"/>
<path d="M53.8314 5.89941H50.1644V9.45675H53.8314V5.89941Z" fill="#432314"/>
<path d="M50.1644 5.89941H46.4973V9.45675H50.1644V5.89941Z" fill="#432314"/>
<path d="M46.4942 5.89941H42.8272V9.45675H46.4942V5.89941Z" fill="#432314"/>
<path d="M42.8272 5.89941H39.1602V9.45675H42.8272V5.89941Z" fill="#432315"/>
</g>
<defs>
<clipPath id="clip0_1013_5939">
<rect width="115" height="115" fill="white"/>
</clipPath>
</defs>
</svg>
