<svg width="94" height="97" viewBox="0 0 94 97" fill="none" xmlns="http://www.w3.org/2000/svg">
<g clip-path="url(#clip0_1013_5939)">
<path d="M23.9868 97V93.9995H20.9869V90.9964H14.9921V87.9959H11.9921V81.9923H5.99733V75.9888H2.99741V66.9822H0V27.0148H2.99741V21.0112H5.99733V15.0077H11.9921V9.0041H14.9921V6.00357H20.9869V3.00054H26.9842V0H67.0158V3.00054H73.0131V6.00357H79.0104V9.0041H82.0079V15.0077H88.0052V21.0112H91.0026V27.0148H94V66.9822H91.0026V75.9888H88.0052V81.9923H85.0053V87.9959H79.0104V90.9964H73.0131V93.9995H70.0157V97H23.9868Z" fill="white"/>
<path d="M64.9882 89.0234H61.9908V92.024H64.9882V89.0234Z" fill="#452618"/>
<path d="M61.9908 89.0234H58.9933V92.024H61.9908V89.0234Z" fill="#432314"/>
<path d="M58.9934 89.0234H55.996V92.024H58.9934V89.0234Z" fill="#432314"/>
<path d="M55.9934 89.0234H52.996V92.024H55.9934V89.0234Z" fill="#432314"/>
<path d="M52.9961 89.0234H49.9987V92.024H52.9961V89.0234Z" fill="#432314"/>
<path d="M49.9986 89.0234H47.0012V92.024H49.9986V89.0234Z" fill="#432314"/>
<path d="M46.9987 89.0234H44.0013V92.024H46.9987V89.0234Z" fill="#472718"/>
<path d="M44.0013 89.0234H41.0039V92.024H44.0013V89.0234Z" fill="#432314"/>
<path d="M41.0039 89.0234H38.0065V92.024H41.0039V89.0234Z" fill="#432314"/>
<path d="M38.004 89.0234H35.0066V92.024H38.004V89.0234Z" fill="#48281A"/>
<path d="M35.0066 89.0234H32.0092V92.024H35.0066V89.0234Z" fill="#432314"/>
<path d="M32.0092 89.0234H29.0118V92.024H32.0092V89.0234Z" fill="#472819"/>
<path d="M67.9881 86.0205H64.9907V89.021H67.9881V86.0205Z" fill="#432314"/>
<path d="M64.9882 86.0205H61.9908V89.021H64.9882V86.0205Z" fill="#D1972A"/>
<path d="M61.9908 86.0205H58.9933V89.021H61.9908V86.0205Z" fill="#D49A29"/>
<path d="M58.9934 86.0205H55.996V89.021H58.9934V86.0205Z" fill="#D49A29"/>
<path d="M55.9934 86.0205H52.996V89.021H55.9934V86.0205Z" fill="#D49A29"/>
<path d="M52.9961 86.0205H49.9987V89.021H52.9961V86.0205Z" fill="#D49A29"/>
<path d="M49.9986 86.0205H47.0012V89.021H49.9986V86.0205Z" fill="#D49A29"/>
<path d="M46.9987 86.0205H44.0013V89.021H46.9987V86.0205Z" fill="#D49A29"/>
<path d="M44.0013 86.0205H41.0039V89.021H44.0013V86.0205Z" fill="#D49A29"/>
<path d="M41.0039 86.0205H38.0065V89.021H41.0039V86.0205Z" fill="#D49A29"/>
<path d="M38.004 86.0205H35.0066V89.021H38.004V86.0205Z" fill="#D49A29"/>
<path d="M35.0066 86.0205H32.0092V89.021H35.0066V86.0205Z" fill="#D29B2A"/>
<path d="M32.0092 86.0205H29.0118V89.021H32.0092V86.0205Z" fill="#D1972A"/>
<path d="M29.0092 86.0205H26.0118V89.021H29.0092V86.0205Z" fill="#432314"/>
<path d="M73.9829 83.02H70.9855V86.0206H73.9829V83.02Z" fill="#432314"/>
<path d="M70.9855 83.02H67.9881V86.0206H70.9855V83.02Z" fill="#432314"/>
<path d="M67.9881 83.02H64.9907V86.0206H67.9881V83.02Z" fill="#D49A29"/>
<path d="M64.9882 83.02H61.9908V86.0206H64.9882V83.02Z" fill="#F9D30C"/>
<path d="M61.9908 83.02H58.9933V86.0206H61.9908V83.02Z" fill="#FBD30B"/>
<path d="M58.9934 83.02H55.996V86.0206H58.9934V83.02Z" fill="#FBD30B"/>
<path d="M55.9934 83.02H52.996V86.0206H55.9934V83.02Z" fill="#FBD30B"/>
<path d="M52.9961 83.02H49.9987V86.0206H52.9961V83.02Z" fill="#F7D531"/>
<path d="M49.9986 83.02H47.0012V86.0206H49.9986V83.02Z" fill="#FBD30B"/>
<path d="M46.9987 83.02H44.0013V86.0206H46.9987V83.02Z" fill="#FBD30B"/>
<path d="M44.0013 83.02H41.0039V86.0206H44.0013V83.02Z" fill="#FBD30B"/>
<path d="M41.0039 83.02H38.0065V86.0206H41.0039V83.02Z" fill="#FBD30B"/>
<path d="M38.004 83.02H35.0066V86.0206H38.004V83.02Z" fill="#FBD30B"/>
<path d="M35.0066 83.02H32.0092V86.0206H35.0066V83.02Z" fill="#FBD30B"/>
<path d="M32.0092 83.02H29.0118V86.0206H32.0092V83.02Z" fill="#F9D20C"/>
<path d="M29.0092 83.02H26.0118V86.0206H29.0092V83.02Z" fill="#D49A29"/>
<path d="M26.0118 83.02H23.0144V86.0206H26.0118V83.02Z" fill="#432314"/>
<path d="M23.0144 83.02H20.017V86.0206H23.0144V83.02Z" fill="#432314"/>
<path d="M79.9803 80.0171H76.9828V83.0176H79.9803V80.0171Z" fill="#422415"/>
<path d="M76.9828 80.0171H73.9854V83.0176H76.9828V80.0171Z" fill="#442315"/>
<path d="M73.9829 80.0171H70.9855V83.0176H73.9829V80.0171Z" fill="#D59A29"/>
<path d="M70.9855 80.0171H67.9881V83.0176H70.9855V80.0171Z" fill="#D59A29"/>
<path d="M67.9881 80.0171H64.9907V83.0176H67.9881V80.0171Z" fill="#FBD40A"/>
<path d="M64.9882 80.0171H61.9908V83.0176H64.9882V80.0171Z" fill="#FBD30B"/>
<path d="M61.9908 80.0171H58.9933V83.0176H61.9908V80.0171Z" fill="#FBD30B"/>
<path d="M58.9934 80.0171H55.996V83.0176H58.9934V80.0171Z" fill="#FBD30B"/>
<path d="M55.9934 80.0171H52.996V83.0176H55.9934V80.0171Z" fill="#F7DB4A"/>
<path d="M52.9961 80.0171H49.9987V83.0176H52.9961V80.0171Z" fill="#FBD30B"/>
<path d="M49.9986 80.0171H47.0012V83.0176H49.9986V80.0171Z" fill="#FBD40A"/>
<path d="M46.9987 80.0171H44.0013V83.0176H46.9987V80.0171Z" fill="#FBD30B"/>
<path d="M44.0013 80.0171H41.0039V83.0176H44.0013V80.0171Z" fill="#FBD30B"/>
<path d="M41.0039 80.0171H38.0065V83.0176H41.0039V80.0171Z" fill="#FBD30B"/>
<path d="M38.004 80.0171H35.0066V83.0176H38.004V80.0171Z" fill="#FBD30B"/>
<path d="M35.0066 80.0171H32.0092V83.0176H35.0066V80.0171Z" fill="#FBD40B"/>
<path d="M32.0092 80.0171H29.0118V83.0176H32.0092V80.0171Z" fill="#FBD40B"/>
<path d="M29.0092 80.0171H26.0118V83.0176H29.0092V80.0171Z" fill="#FAD40C"/>
<path d="M26.0118 80.0171H23.0144V83.0176H26.0118V80.0171Z" fill="#D49B29"/>
<path d="M23.0144 80.0171H20.017V83.0176H23.0144V80.0171Z" fill="#D49B29"/>
<path d="M20.0145 80.0171H17.0171V83.0176H20.0145V80.0171Z" fill="#432415"/>
<path d="M79.9803 77.0166H76.9828V80.0171H79.9803V77.0166Z" fill="#412315"/>
<path d="M76.9828 77.0166H73.9854V80.0171H76.9828V77.0166Z" fill="#432314"/>
<path d="M73.9829 77.0166H70.9855V80.0171H73.9829V77.0166Z" fill="#D49A29"/>
<path d="M70.9855 77.0166H67.9881V80.0171H70.9855V77.0166Z" fill="#D49A29"/>
<path d="M67.9881 77.0166H64.9907V80.0171H67.9881V77.0166Z" fill="#FBD30B"/>
<path d="M64.9882 77.0166H61.9908V80.0171H64.9882V77.0166Z" fill="#FBD30B"/>
<path d="M61.9908 77.0166H58.9933V80.0171H61.9908V77.0166Z" fill="#FBD30B"/>
<path d="M58.9934 77.0166H55.996V80.0171H58.9934V77.0166Z" fill="#FBD30C"/>
<path d="M55.9934 77.0166H52.996V80.0171H55.9934V77.0166Z" fill="#FBD30B"/>
<path d="M52.9961 77.0166H49.9987V80.0171H52.9961V77.0166Z" fill="#FBD30B"/>
<path d="M49.9986 77.0166H47.0012V80.0171H49.9986V77.0166Z" fill="#FBD30B"/>
<path d="M46.9987 77.0166H44.0013V80.0171H46.9987V77.0166Z" fill="#FBD30C"/>
<path d="M44.0013 77.0166H41.0039V80.0171H44.0013V77.0166Z" fill="#FBD30B"/>
<path d="M41.0039 77.0166H38.0065V80.0171H41.0039V77.0166Z" fill="#FBD30B"/>
<path d="M38.004 77.0166H35.0066V80.0171H38.004V77.0166Z" fill="#FBD30C"/>
<path d="M35.0066 77.0166H32.0092V80.0171H35.0066V77.0166Z" fill="#FBD30B"/>
<path d="M32.0092 77.0166H29.0118V80.0171H32.0092V77.0166Z" fill="#FBD30B"/>
<path d="M29.0092 77.0166H26.0118V80.0171H29.0092V77.0166Z" fill="#FBD30B"/>
<path d="M26.0118 77.0166H23.0144V80.0171H26.0118V77.0166Z" fill="#D59C29"/>
<path d="M23.0144 77.0166H20.017V80.0171H23.0144V77.0166Z" fill="#D49A29"/>
<path d="M20.0145 77.0166H17.0171V80.0171H20.0145V77.0166Z" fill="#432314"/>
<path d="M82.9776 74.0132H79.9802V77.0137H82.9776V74.0132Z" fill="#432314"/>
<path d="M79.9803 74.0132H76.9828V77.0137H79.9803V74.0132Z" fill="#D69C29"/>
<path d="M76.9828 74.0132H73.9854V77.0137H76.9828V74.0132Z" fill="#D49A29"/>
<path d="M73.9829 74.0132H70.9855V77.0137H73.9829V74.0132Z" fill="#FBD30B"/>
<path d="M70.9855 74.0132H67.9881V77.0137H70.9855V74.0132Z" fill="#FBD30B"/>
<path d="M67.9881 74.0132H64.9907V77.0137H67.9881V74.0132Z" fill="#FBD30B"/>
<path d="M64.9882 74.0132H61.9908V77.0137H64.9882V74.0132Z" fill="#FBD30B"/>
<path d="M61.9908 74.0132H58.9933V77.0137H61.9908V74.0132Z" fill="#FBD30B"/>
<path d="M58.9934 74.0132H55.996V77.0137H58.9934V74.0132Z" fill="#FBD30B"/>
<path d="M55.9934 74.0132H52.996V77.0137H55.9934V74.0132Z" fill="#D33192"/>
<path d="M52.9961 74.0132H49.9987V77.0137H52.9961V74.0132Z" fill="#D33192"/>
<path d="M49.9986 74.0132H47.0012V77.0137H49.9986V74.0132Z" fill="#D33192"/>
<path d="M46.9987 74.0132H44.0013V77.0137H46.9987V74.0132Z" fill="#D33192"/>
<path d="M44.0013 74.0132H41.0039V77.0137H44.0013V74.0132Z" fill="#D43393"/>
<path d="M41.0039 74.0132H38.0065V77.0137H41.0039V74.0132Z" fill="#FBD30B"/>
<path d="M38.004 74.0132H35.0066V77.0137H38.004V74.0132Z" fill="#FBD30B"/>
<path d="M35.0066 74.0132H32.0092V77.0137H35.0066V74.0132Z" fill="#FBD30B"/>
<path d="M32.0092 74.0132H29.0118V77.0137H32.0092V74.0132Z" fill="#FBD30B"/>
<path d="M29.0092 74.0132H26.0118V77.0137H29.0092V74.0132Z" fill="#FBD30B"/>
<path d="M26.0118 74.0132H23.0144V77.0137H26.0118V74.0132Z" fill="#FBD30B"/>
<path d="M23.0144 74.0132H20.017V77.0137H23.0144V74.0132Z" fill="#FBD30B"/>
<path d="M20.0145 74.0132H17.0171V77.0137H20.0145V74.0132Z" fill="#D49A29"/>
<path d="M17.0171 74.0132H14.0197V77.0137H17.0171V74.0132Z" fill="#432314"/>
<path d="M14.0197 74.0132H11.0223V77.0137H14.0197V74.0132Z" fill="#432314"/>
<path d="M82.9776 71.0127H79.9802V74.0132H82.9776V71.0127Z" fill="#452516"/>
<path d="M79.9803 71.0127H76.9828V74.0132H79.9803V71.0127Z" fill="#F8CF15"/>
<path d="M76.9828 71.0127H73.9854V74.0132H76.9828V71.0127Z" fill="#F8CD17"/>
<path d="M73.9829 71.0127H70.9855V74.0132H73.9829V71.0127Z" fill="#FBD30B"/>
<path d="M70.9855 71.0127H67.9881V74.0132H70.9855V71.0127Z" fill="#FBD30B"/>
<path d="M67.9881 71.0127H64.9907V74.0132H67.9881V71.0127Z" fill="#FBD30B"/>
<path d="M64.9882 71.0127H61.9908V74.0132H64.9882V71.0127Z" fill="#FBD30B"/>
<path d="M61.9908 71.0127H58.9933V74.0132H61.9908V71.0127Z" fill="#FBD30B"/>
<path d="M58.9934 71.0127H55.996V74.0132H58.9934V71.0127Z" fill="#441032"/>
<path d="M55.9934 71.0127H52.996V74.0132H55.9934V71.0127Z" fill="#DE69A8"/>
<path d="M52.9961 71.0127H49.9987V74.0132H52.9961V71.0127Z" fill="#DE69A8"/>
<path d="M49.9986 71.0127H47.0012V74.0132H49.9986V71.0127Z" fill="#DE69A8"/>
<path d="M46.9987 71.0127H44.0013V74.0132H46.9987V71.0127Z" fill="#DE69A8"/>
<path d="M44.0013 71.0127H41.0039V74.0132H44.0013V71.0127Z" fill="#D33293"/>
<path d="M41.0039 71.0127H38.0065V74.0132H41.0039V71.0127Z" fill="#D43393"/>
<path d="M38.004 71.0127H35.0066V74.0132H38.004V71.0127Z" fill="#441032"/>
<path d="M35.0066 71.0127H32.0092V74.0132H35.0066V71.0127Z" fill="#FBD30B"/>
<path d="M32.0092 71.0127H29.0118V74.0132H32.0092V71.0127Z" fill="#FBD30B"/>
<path d="M29.0092 71.0127H26.0118V74.0132H29.0092V71.0127Z" fill="#FBD30B"/>
<path d="M26.0118 71.0127H23.0144V74.0132H26.0118V71.0127Z" fill="#FBD30B"/>
<path d="M23.0144 71.0127H20.017V74.0132H23.0144V71.0127Z" fill="#FBD30B"/>
<path d="M20.0145 71.0127H17.0171V74.0132H20.0145V71.0127Z" fill="#D49A29"/>
<path d="M17.0171 71.0127H14.0197V74.0132H17.0171V71.0127Z" fill="#432314"/>
<path d="M14.0197 71.0127H11.0223V74.0132H14.0197V71.0127Z" fill="#432314"/>
<path d="M85.9776 68.0098H82.9802V71.0103H85.9776V68.0098Z" fill="#432314"/>
<path d="M82.9776 68.0098H79.9802V71.0103H82.9776V68.0098Z" fill="#D49A29"/>
<path d="M79.9803 68.0098H76.9828V71.0103H79.9803V68.0098Z" fill="#FBD30B"/>
<path d="M76.9828 68.0098H73.9854V71.0103H76.9828V68.0098Z" fill="#FBD30B"/>
<path d="M73.9829 68.0098H70.9855V71.0103H73.9829V68.0098Z" fill="#FBD30B"/>
<path d="M70.9855 68.0098H67.9881V71.0103H70.9855V68.0098Z" fill="#F8D618"/>
<path d="M67.9881 68.0098H64.9907V71.0103H67.9881V68.0098Z" fill="#FBD30B"/>
<path d="M64.9882 68.0098H61.9908V71.0103H64.9882V68.0098Z" fill="#F8D618"/>
<path d="M61.9908 68.0098H58.9933V71.0103H61.9908V68.0098Z" fill="#441032"/>
<path d="M58.9934 68.0098H55.996V71.0103H58.9934V68.0098Z" fill="#491738"/>
<path d="M55.9934 68.0098H52.996V71.0103H55.9934V68.0098Z" fill="#7A325B"/>
<path d="M52.9961 68.0098H49.9987V71.0103H52.9961V68.0098Z" fill="#DE69A8"/>
<path d="M49.9986 68.0098H47.0012V71.0103H49.9986V68.0098Z" fill="#DE69A8"/>
<path d="M46.9987 68.0098H44.0013V71.0103H46.9987V68.0098Z" fill="#D33192"/>
<path d="M44.0013 68.0098H41.0039V71.0103H44.0013V68.0098Z" fill="#D33192"/>
<path d="M41.0039 68.0098H38.0065V71.0103H41.0039V68.0098Z" fill="#441032"/>
<path d="M38.004 68.0098H35.0066V71.0103H38.004V68.0098Z" fill="#441032"/>
<path d="M35.0066 68.0098H32.0092V71.0103H35.0066V68.0098Z" fill="#441032"/>
<path d="M32.0092 68.0098H29.0118V71.0103H32.0092V68.0098Z" fill="#FBD30B"/>
<path d="M29.0092 68.0098H26.0118V71.0103H29.0092V68.0098Z" fill="#FBD30B"/>
<path d="M26.0118 68.0098H23.0144V71.0103H26.0118V68.0098Z" fill="#F8D520"/>
<path d="M23.0144 68.0098H20.017V71.0103H23.0144V68.0098Z" fill="#FBD30B"/>
<path d="M20.0145 68.0098H17.0171V71.0103H20.0145V68.0098Z" fill="#FBD30B"/>
<path d="M17.0171 68.0098H14.0197V71.0103H17.0171V68.0098Z" fill="#D49A29"/>
<path d="M14.0197 68.0098H11.0223V71.0103H14.0197V68.0098Z" fill="#D49A29"/>
<path d="M11.0198 68.0098H8.0224V71.0103H11.0198V68.0098Z" fill="#432314"/>
<path d="M85.9776 65.0093H82.9802V68.0098H85.9776V65.0093Z" fill="#432314"/>
<path d="M82.9776 65.0093H79.9802V68.0098H82.9776V65.0093Z" fill="#D49A29"/>
<path d="M79.9803 65.0093H76.9828V68.0098H79.9803V65.0093Z" fill="#FBD30B"/>
<path d="M76.9828 65.0093H73.9854V68.0098H76.9828V65.0093Z" fill="#FBD30B"/>
<path d="M73.9829 65.0093H70.9855V68.0098H73.9829V65.0093Z" fill="#FAD50D"/>
<path d="M70.9855 65.0093H67.9881V68.0098H70.9855V65.0093Z" fill="#FBD30B"/>
<path d="M67.9881 65.0093H64.9907V68.0098H67.9881V65.0093Z" fill="#FBD30B"/>
<path d="M64.9882 65.0093H61.9908V68.0098H64.9882V65.0093Z" fill="#441032"/>
<path d="M61.9908 65.0093H58.9933V68.0098H61.9908V65.0093Z" fill="#441032"/>
<path d="M58.9934 65.0093H55.996V68.0098H58.9934V65.0093Z" fill="#441032"/>
<path d="M55.9934 65.0093H52.996V68.0098H55.9934V65.0093Z" fill="#441032"/>
<path d="M52.9961 65.0093H49.9987V68.0098H52.9961V65.0093Z" fill="#441032"/>
<path d="M49.9986 65.0093H47.0012V68.0098H49.9986V65.0093Z" fill="#441032"/>
<path d="M46.9987 65.0093H44.0013V68.0098H46.9987V65.0093Z" fill="#441032"/>
<path d="M44.0013 65.0093H41.0039V68.0098H44.0013V65.0093Z" fill="#441032"/>
<path d="M41.0039 65.0093H38.0065V68.0098H41.0039V65.0093Z" fill="#441032"/>
<path d="M38.004 65.0093H35.0066V68.0098H38.004V65.0093Z" fill="#441032"/>
<path d="M35.0066 65.0093H32.0092V68.0098H35.0066V65.0093Z" fill="#441032"/>
<path d="M32.0092 65.0093H29.0118V68.0098H32.0092V65.0093Z" fill="#441032"/>
<path d="M29.0092 65.0093H26.0118V68.0098H29.0092V65.0093Z" fill="#F7D83B"/>
<path d="M26.0118 65.0093H23.0144V68.0098H26.0118V65.0093Z" fill="#FBD40B"/>
<path d="M23.0144 65.0093H20.017V68.0098H23.0144V65.0093Z" fill="#FBD30B"/>
<path d="M20.0145 65.0093H17.0171V68.0098H20.0145V65.0093Z" fill="#FBD30B"/>
<path d="M17.0171 65.0093H14.0197V68.0098H17.0171V65.0093Z" fill="#D49A29"/>
<path d="M14.0197 65.0093H11.0223V68.0098H14.0197V65.0093Z" fill="#D49A29"/>
<path d="M11.0198 65.0093H8.0224V68.0098H11.0198V65.0093Z" fill="#442515"/>
<path d="M85.9776 62.0088H82.9802V65.0093H85.9776V62.0088Z" fill="#432314"/>
<path d="M82.9776 62.0088H79.9802V65.0093H82.9776V62.0088Z" fill="#D49A29"/>
<path d="M79.9803 62.0088H76.9828V65.0093H79.9803V62.0088Z" fill="#FBD30B"/>
<path d="M76.9828 62.0088H73.9854V65.0093H76.9828V62.0088Z" fill="#F8D41F"/>
<path d="M73.9829 62.0088H70.9855V65.0093H73.9829V62.0088Z" fill="#FAD60B"/>
<path d="M70.9855 62.0088H67.9881V65.0093H70.9855V62.0088Z" fill="#FBD30B"/>
<path d="M67.9881 62.0088H64.9907V65.0093H67.9881V62.0088Z" fill="#FBD30B"/>
<path d="M64.9882 62.0088H61.9908V65.0093H64.9882V62.0088Z" fill="#441032"/>
<path d="M61.9908 62.0088H58.9933V65.0093H61.9908V62.0088Z" fill="#441032"/>
<path d="M58.9934 62.0088H55.996V65.0093H58.9934V62.0088Z" fill="#441032"/>
<path d="M55.9934 62.0088H52.996V65.0093H55.9934V62.0088Z" fill="#441032"/>
<path d="M52.9961 62.0088H49.9987V65.0093H52.9961V62.0088Z" fill="#441032"/>
<path d="M49.9986 62.0088H47.0012V65.0093H49.9986V62.0088Z" fill="#441032"/>
<path d="M46.9987 62.0088H44.0013V65.0093H46.9987V62.0088Z" fill="#441032"/>
<path d="M44.0013 62.0088H41.0039V65.0093H44.0013V62.0088Z" fill="#441032"/>
<path d="M41.0039 62.0088H38.0065V65.0093H41.0039V62.0088Z" fill="#441032"/>
<path d="M38.004 62.0088H35.0066V65.0093H38.004V62.0088Z" fill="#441032"/>
<path d="M35.0066 62.0088H32.0092V65.0093H35.0066V62.0088Z" fill="#441032"/>
<path d="M32.0092 62.0088H29.0118V65.0093H32.0092V62.0088Z" fill="#441032"/>
<path d="M29.0092 62.0088H26.0118V65.0093H29.0092V62.0088Z" fill="#FBD30B"/>
<path d="M26.0118 62.0088H23.0144V65.0093H26.0118V62.0088Z" fill="#FBD30B"/>
<path d="M23.0144 62.0088H20.017V65.0093H23.0144V62.0088Z" fill="#FBD30B"/>
<path d="M20.0145 62.0088H17.0171V65.0093H20.0145V62.0088Z" fill="#FBD30B"/>
<path d="M17.0171 62.0088H14.0197V65.0093H17.0171V62.0088Z" fill="#D49A29"/>
<path d="M14.0197 62.0088H11.0223V65.0093H14.0197V62.0088Z" fill="#D49A29"/>
<path d="M11.0198 62.0088H8.0224V65.0093H11.0198V62.0088Z" fill="#442415"/>
<path d="M88.975 59.0059H85.9776V62.0064H88.975V59.0059Z" fill="#432314"/>
<path d="M85.9776 59.0059H82.9802V62.0064H85.9776V59.0059Z" fill="#D49A29"/>
<path d="M82.9776 59.0059H79.9802V62.0064H82.9776V59.0059Z" fill="#FBD30B"/>
<path d="M79.9803 59.0059H76.9828V62.0064H79.9803V59.0059Z" fill="#F7D316"/>
<path d="M76.9828 59.0059H73.9854V62.0064H76.9828V59.0059Z" fill="#FBD30B"/>
<path d="M73.9829 59.0059H70.9855V62.0064H73.9829V59.0059Z" fill="#FBD30B"/>
<path d="M70.9855 59.0059H67.9881V62.0064H70.9855V59.0059Z" fill="#FBD30C"/>
<path d="M67.9881 59.0059H64.9907V62.0064H67.9881V59.0059Z" fill="#FBD30B"/>
<path d="M64.9882 59.0059H61.9908V62.0064H64.9882V59.0059Z" fill="#441032"/>
<path d="M61.9908 59.0059H58.9933V62.0064H61.9908V59.0059Z" fill="#FFFFFB"/>
<path d="M58.9934 59.0059H55.996V62.0064H58.9934V59.0059Z" fill="#FFFFFB"/>
<path d="M55.9934 59.0059H52.996V62.0064H55.9934V59.0059Z" fill="#FFFFFB"/>
<path d="M52.9961 59.0059H49.9987V62.0064H52.9961V59.0059Z" fill="#FFFFFB"/>
<path d="M49.9986 59.0059H47.0012V62.0064H49.9986V59.0059Z" fill="#FFFFFB"/>
<path d="M46.9987 59.0059H44.0013V62.0064H46.9987V59.0059Z" fill="#FFFFFB"/>
<path d="M44.0013 59.0059H41.0039V62.0064H44.0013V59.0059Z" fill="#FFFFFB"/>
<path d="M41.0039 59.0059H38.0065V62.0064H41.0039V59.0059Z" fill="#FFFFFB"/>
<path d="M38.004 59.0059H35.0066V62.0064H38.004V59.0059Z" fill="#DCDACF"/>
<path d="M35.0066 59.0059H32.0092V62.0064H35.0066V59.0059Z" fill="#AB999A"/>
<path d="M32.0092 59.0059H29.0118V62.0064H32.0092V59.0059Z" fill="#441032"/>
<path d="M29.0092 59.0059H26.0118V62.0064H29.0092V59.0059Z" fill="#FBD30B"/>
<path d="M26.0118 59.0059H23.0144V62.0064H26.0118V59.0059Z" fill="#FBD30B"/>
<path d="M23.0144 59.0059H20.017V62.0064H23.0144V59.0059Z" fill="#FBD30B"/>
<path d="M20.0145 59.0059H17.0171V62.0064H20.0145V59.0059Z" fill="#FBD30B"/>
<path d="M17.0171 59.0059H14.0197V62.0064H17.0171V59.0059Z" fill="#FBD30B"/>
<path d="M14.0197 59.0059H11.0223V62.0064H14.0197V59.0059Z" fill="#FBD30B"/>
<path d="M11.0198 59.0059H8.0224V62.0064H11.0198V59.0059Z" fill="#D49A29"/>
<path d="M8.02237 59.0059H5.02496V62.0064H8.02237V59.0059Z" fill="#432314"/>
<path d="M88.975 56.0054H85.9776V59.0059H88.975V56.0054Z" fill="#432314"/>
<path d="M85.9776 56.0054H82.9802V59.0059H85.9776V56.0054Z" fill="#D49A29"/>
<path d="M82.9776 56.0054H79.9802V59.0059H82.9776V56.0054Z" fill="#FAD40B"/>
<path d="M79.9803 56.0054H76.9828V59.0059H79.9803V56.0054Z" fill="#FBD30B"/>
<path d="M76.9828 56.0054H73.9854V59.0059H76.9828V56.0054Z" fill="#FAD40B"/>
<path d="M73.9829 56.0054H70.9855V59.0059H73.9829V56.0054Z" fill="#FAD40B"/>
<path d="M70.9855 56.0054H67.9881V59.0059H70.9855V56.0054Z" fill="#FAD40B"/>
<path d="M67.9881 56.0054H64.9907V59.0059H67.9881V56.0054Z" fill="#FBD30D"/>
<path d="M64.9882 56.0054H61.9908V59.0059H64.9882V56.0054Z" fill="#441032"/>
<path d="M61.9908 56.0054H58.9933V59.0059H61.9908V56.0054Z" fill="#DCDACF"/>
<path d="M58.9934 56.0054H55.996V59.0059H58.9934V56.0054Z" fill="#DCDACF"/>
<path d="M55.9934 56.0054H52.996V59.0059H55.9934V56.0054Z" fill="#DCDACF"/>
<path d="M52.9961 56.0054H49.9987V59.0059H52.9961V56.0054Z" fill="#DCDACF"/>
<path d="M49.9986 56.0054H47.0012V59.0059H49.9986V56.0054Z" fill="#DCDACF"/>
<path d="M46.9987 56.0054H44.0013V59.0059H46.9987V56.0054Z" fill="#DDDBD0"/>
<path d="M44.0013 56.0054H41.0039V59.0059H44.0013V56.0054Z" fill="#DCDACF"/>
<path d="M41.0039 56.0054H38.0065V59.0059H41.0039V56.0054Z" fill="#DCDACF"/>
<path d="M38.004 56.0054H35.0066V59.0059H38.004V56.0054Z" fill="#DCDACE"/>
<path d="M35.0066 56.0054H32.0092V59.0059H35.0066V56.0054Z" fill="#A79594"/>
<path d="M32.0092 56.0054H29.0118V59.0059H32.0092V56.0054Z" fill="#441032"/>
<path d="M29.0092 56.0054H26.0118V59.0059H29.0092V56.0054Z" fill="#FBD30B"/>
<path d="M26.0118 56.0054H23.0144V59.0059H26.0118V56.0054Z" fill="#FBD30B"/>
<path d="M23.0144 56.0054H20.017V59.0059H23.0144V56.0054Z" fill="#FAD40B"/>
<path d="M20.0145 56.0054H17.0171V59.0059H20.0145V56.0054Z" fill="#FBD30B"/>
<path d="M17.0171 56.0054H14.0197V59.0059H17.0171V56.0054Z" fill="#FBD30B"/>
<path d="M14.0197 56.0054H11.0223V59.0059H14.0197V56.0054Z" fill="#FBD30B"/>
<path d="M11.0198 56.0054H8.0224V59.0059H11.0198V56.0054Z" fill="#D69C29"/>
<path d="M8.02237 56.0054H5.02496V59.0059H8.02237V56.0054Z" fill="#432314"/>
<path d="M88.975 53.002H85.9776V56.0025H88.975V53.002Z" fill="#432314"/>
<path d="M85.9776 53.002H82.9802V56.0025H85.9776V53.002Z" fill="#D7A029"/>
<path d="M82.9776 53.002H79.9802V56.0025H82.9776V53.002Z" fill="#FBD30B"/>
<path d="M79.9803 53.002H76.9828V56.0025H79.9803V53.002Z" fill="#FBD30B"/>
<path d="M76.9828 53.002H73.9854V56.0025H76.9828V53.002Z" fill="#F28882"/>
<path d="M73.9829 53.002H70.9855V56.0025H73.9829V53.002Z" fill="#F28882"/>
<path d="M70.9855 53.002H67.9881V56.0025H70.9855V53.002Z" fill="#F28882"/>
<path d="M67.9881 53.002H64.9907V56.0025H67.9881V53.002Z" fill="#FBD30B"/>
<path d="M64.9882 53.002H61.9908V56.0025H64.9882V53.002Z" fill="#F7D015"/>
<path d="M61.9908 53.002H58.9933V56.0025H61.9908V53.002Z" fill="#FBD30B"/>
<path d="M58.9934 53.002H55.996V56.0025H58.9934V53.002Z" fill="#FBD30B"/>
<path d="M55.9934 53.002H52.996V56.0025H55.9934V53.002Z" fill="#FBD30B"/>
<path d="M52.9961 53.002H49.9987V56.0025H52.9961V53.002Z" fill="#FBD30B"/>
<path d="M49.9986 53.002H47.0012V56.0025H49.9986V53.002Z" fill="#FBD30B"/>
<path d="M46.9987 53.002H44.0013V56.0025H46.9987V53.002Z" fill="#FBD30B"/>
<path d="M44.0013 53.002H41.0039V56.0025H44.0013V53.002Z" fill="#FBD30B"/>
<path d="M41.0039 53.002H38.0065V56.0025H41.0039V53.002Z" fill="#FBD40B"/>
<path d="M38.004 53.002H35.0066V56.0025H38.004V53.002Z" fill="#FBD30B"/>
<path d="M35.0066 53.002H32.0092V56.0025H35.0066V53.002Z" fill="#FBD30B"/>
<path d="M32.0092 53.002H29.0118V56.0025H32.0092V53.002Z" fill="#FBD30B"/>
<path d="M29.0092 53.002H26.0118V56.0025H29.0092V53.002Z" fill="#FBD30B"/>
<path d="M26.0118 53.002H23.0144V56.0025H26.0118V53.002Z" fill="#F28882"/>
<path d="M23.0144 53.002H20.017V56.0025H23.0144V53.002Z" fill="#F28882"/>
<path d="M20.0145 53.002H17.0171V56.0025H20.0145V53.002Z" fill="#EC8984"/>
<path d="M17.0171 53.002H14.0197V56.0025H17.0171V53.002Z" fill="#F8B35D"/>
<path d="M14.0197 53.002H11.0223V56.0025H14.0197V53.002Z" fill="#FBD30B"/>
<path d="M11.0198 53.002H8.0224V56.0025H11.0198V53.002Z" fill="#FBD30B"/>
<path d="M8.02237 53.002H5.02496V56.0025H8.02237V53.002Z" fill="#432314"/>
<path d="M88.975 50.0015H85.9776V53.002H88.975V50.0015Z" fill="#432314"/>
<path d="M85.9776 50.0015H82.9802V53.002H85.9776V50.0015Z" fill="#D49A29"/>
<path d="M82.9776 50.0015H79.9802V53.002H82.9776V50.0015Z" fill="#FBD30B"/>
<path d="M79.9803 50.0015H76.9828V53.002H79.9803V50.0015Z" fill="#FBD30B"/>
<path d="M76.9828 50.0015H73.9854V53.002H76.9828V50.0015Z" fill="#FBD30B"/>
<path d="M73.9829 50.0015H70.9855V53.002H73.9829V50.0015Z" fill="#FBD30B"/>
<path d="M70.9855 50.0015H67.9881V53.002H70.9855V50.0015Z" fill="#FBD30B"/>
<path d="M67.9881 50.0015H64.9907V53.002H67.9881V50.0015Z" fill="#FBD40A"/>
<path d="M64.9882 50.0015H61.9908V53.002H64.9882V50.0015Z" fill="#FBD30B"/>
<path d="M61.9908 50.0015H58.9933V53.002H61.9908V50.0015Z" fill="#FBD30D"/>
<path d="M58.9934 50.0015H55.996V53.002H58.9934V50.0015Z" fill="#FBD30B"/>
<path d="M55.9934 50.0015H52.996V53.002H55.9934V50.0015Z" fill="#FBD30B"/>
<path d="M52.9961 50.0015H49.9987V53.002H52.9961V50.0015Z" fill="#FBD30B"/>
<path d="M49.9986 50.0015H47.0012V53.002H49.9986V50.0015Z" fill="#FBD30B"/>
<path d="M46.9987 50.0015H44.0013V53.002H46.9987V50.0015Z" fill="#FBD30B"/>
<path d="M44.0013 50.0015H41.0039V53.002H44.0013V50.0015Z" fill="#FBD30B"/>
<path d="M41.0039 50.0015H38.0065V53.002H41.0039V50.0015Z" fill="#FBD30B"/>
<path d="M38.004 50.0015H35.0066V53.002H38.004V50.0015Z" fill="#FBD30B"/>
<path d="M35.0066 50.0015H32.0092V53.002H35.0066V50.0015Z" fill="#FBD30B"/>
<path d="M32.0092 50.0015H29.0118V53.002H32.0092V50.0015Z" fill="#FBD30B"/>
<path d="M29.0092 50.0015H26.0118V53.002H29.0092V50.0015Z" fill="#FBD30B"/>
<path d="M26.0118 50.0015H23.0144V53.002H26.0118V50.0015Z" fill="#FBD30B"/>
<path d="M23.0144 50.0015H20.017V53.002H23.0144V50.0015Z" fill="#FBD30D"/>
<path d="M20.0145 50.0015H17.0171V53.002H20.0145V50.0015Z" fill="#FBD30B"/>
<path d="M17.0171 50.0015H14.0197V53.002H17.0171V50.0015Z" fill="#FBD40B"/>
<path d="M14.0197 50.0015H11.0223V53.002H14.0197V50.0015Z" fill="#FBD30B"/>
<path d="M11.0198 50.0015H8.0224V53.002H11.0198V50.0015Z" fill="#FBD30B"/>
<path d="M8.02237 50.0015H5.02496V53.002H8.02237V50.0015Z" fill="#432314"/>
<path d="M88.975 46.9985H85.9776V49.9991H88.975V46.9985Z" fill="#432314"/>
<path d="M85.9776 46.9985H82.9802V49.9991H85.9776V46.9985Z" fill="#D49A29"/>
<path d="M82.9776 46.9985H79.9802V49.9991H82.9776V46.9985Z" fill="#FBD30B"/>
<path d="M79.9803 46.9985H76.9828V49.9991H79.9803V46.9985Z" fill="#FBD50B"/>
<path d="M76.9828 46.9985H73.9854V49.9991H76.9828V46.9985Z" fill="#FBD30B"/>
<path d="M73.9829 46.9985H70.9855V49.9991H73.9829V46.9985Z" fill="#FBD30B"/>
<path d="M70.9855 46.9985H67.9881V49.9991H70.9855V46.9985Z" fill="#FBD30C"/>
<path d="M67.9881 46.9985H64.9907V49.9991H67.9881V46.9985Z" fill="#312426"/>
<path d="M64.9882 46.9985H61.9908V49.9991H64.9882V46.9985Z" fill="#312426"/>
<path d="M61.9908 46.9985H58.9933V49.9991H61.9908V46.9985Z" fill="#312426"/>
<path d="M58.9934 46.9985H55.996V49.9991H58.9934V46.9985Z" fill="#FBD30B"/>
<path d="M55.9934 46.9985H52.996V49.9991H55.9934V46.9985Z" fill="#FBD30B"/>
<path d="M52.9961 46.9985H49.9987V49.9991H52.9961V46.9985Z" fill="#FBD30B"/>
<path d="M49.9986 46.9985H47.0012V49.9991H49.9986V46.9985Z" fill="#FBD40B"/>
<path d="M46.9987 46.9985H44.0013V49.9991H46.9987V46.9985Z" fill="#FBD30B"/>
<path d="M44.0013 46.9985H41.0039V49.9991H44.0013V46.9985Z" fill="#FBD30B"/>
<path d="M41.0039 46.9985H38.0065V49.9991H41.0039V46.9985Z" fill="#FBD30B"/>
<path d="M38.004 46.9985H35.0066V49.9991H38.004V46.9985Z" fill="#FBD30B"/>
<path d="M35.0066 46.9985H32.0092V49.9991H35.0066V46.9985Z" fill="#312426"/>
<path d="M32.0092 46.9985H29.0118V49.9991H32.0092V46.9985Z" fill="#312426"/>
<path d="M29.0092 46.9985H26.0118V49.9991H29.0092V46.9985Z" fill="#312426"/>
<path d="M26.0118 46.9985H23.0144V49.9991H26.0118V46.9985Z" fill="#FBD40B"/>
<path d="M23.0144 46.9985H20.017V49.9991H23.0144V46.9985Z" fill="#FBD30B"/>
<path d="M20.0145 46.9985H17.0171V49.9991H20.0145V46.9985Z" fill="#FBD30B"/>
<path d="M17.0171 46.9985H14.0197V49.9991H17.0171V46.9985Z" fill="#FBD30B"/>
<path d="M14.0197 46.9985H11.0223V49.9991H14.0197V46.9985Z" fill="#FBD40B"/>
<path d="M11.0198 46.9985H8.0224V49.9991H11.0198V46.9985Z" fill="#FBD30B"/>
<path d="M8.02237 46.9985H5.02496V49.9991H8.02237V46.9985Z" fill="#432314"/>
<path d="M88.975 43.998H85.9776V46.9986H88.975V43.998Z" fill="#432314"/>
<path d="M85.9776 43.998H82.9802V46.9986H85.9776V43.998Z" fill="#D49A29"/>
<path d="M82.9776 43.998H79.9802V46.9986H82.9776V43.998Z" fill="#FBD30B"/>
<path d="M79.9803 43.998H76.9828V46.9986H79.9803V43.998Z" fill="#FBD30B"/>
<path d="M76.9828 43.998H73.9854V46.9986H76.9828V43.998Z" fill="#FBD20D"/>
<path d="M73.9829 43.998H70.9855V46.9986H73.9829V43.998Z" fill="#FBD50B"/>
<path d="M70.9855 43.998H67.9881V46.9986H70.9855V43.998Z" fill="#FBD30B"/>
<path d="M67.9881 43.998H64.9907V46.9986H67.9881V43.998Z" fill="#312426"/>
<path d="M64.9882 43.998H61.9908V46.9986H64.9882V43.998Z" fill="#312426"/>
<path d="M61.9908 43.998H58.9933V46.9986H61.9908V43.998Z" fill="#312426"/>
<path d="M58.9934 43.998H55.996V46.9986H58.9934V43.998Z" fill="#FBD30B"/>
<path d="M55.9934 43.998H52.996V46.9986H55.9934V43.998Z" fill="#FBD30B"/>
<path d="M52.9961 43.998H49.9987V46.9986H52.9961V43.998Z" fill="#F9D40F"/>
<path d="M49.9986 43.998H47.0012V46.9986H49.9986V43.998Z" fill="#FBD40A"/>
<path d="M46.9987 43.998H44.0013V46.9986H46.9987V43.998Z" fill="#FBD30B"/>
<path d="M44.0013 43.998H41.0039V46.9986H44.0013V43.998Z" fill="#FBD30B"/>
<path d="M41.0039 43.998H38.0065V46.9986H41.0039V43.998Z" fill="#FBD30B"/>
<path d="M38.004 43.998H35.0066V46.9986H38.004V43.998Z" fill="#FBD30B"/>
<path d="M35.0066 43.998H32.0092V46.9986H35.0066V43.998Z" fill="#312426"/>
<path d="M32.0092 43.998H29.0118V46.9986H32.0092V43.998Z" fill="#312427"/>
<path d="M29.0092 43.998H26.0118V46.9986H29.0092V43.998Z" fill="#36292B"/>
<path d="M26.0118 43.998H23.0144V46.9986H26.0118V43.998Z" fill="#FBD30B"/>
<path d="M23.0144 43.998H20.017V46.9986H23.0144V43.998Z" fill="#FBD30B"/>
<path d="M20.0145 43.998H17.0171V46.9986H20.0145V43.998Z" fill="#FBD30B"/>
<path d="M17.0171 43.998H14.0197V46.9986H17.0171V43.998Z" fill="#FBD30B"/>
<path d="M14.0197 43.998H11.0223V46.9986H14.0197V43.998Z" fill="#FBD30B"/>
<path d="M11.0198 43.998H8.0224V46.9986H11.0198V43.998Z" fill="#FBD40B"/>
<path d="M8.02237 43.998H5.02496V46.9986H8.02237V43.998Z" fill="#594134"/>
<path d="M88.975 40.9951H85.9776V43.9957H88.975V40.9951Z" fill="#432314"/>
<path d="M85.9776 40.9951H82.9802V43.9957H85.9776V40.9951Z" fill="#D49A29"/>
<path d="M82.9776 40.9951H79.9802V43.9957H82.9776V40.9951Z" fill="#FBD30B"/>
<path d="M79.9803 40.9951H76.9828V43.9957H79.9803V40.9951Z" fill="#FBD30B"/>
<path d="M76.9828 40.9951H73.9854V43.9957H76.9828V40.9951Z" fill="#FBD30C"/>
<path d="M73.9829 40.9951H70.9855V43.9957H73.9829V40.9951Z" fill="#FBD40C"/>
<path d="M70.9855 40.9951H67.9881V43.9957H70.9855V40.9951Z" fill="#FBD30B"/>
<path d="M67.9881 40.9951H64.9907V43.9957H67.9881V40.9951Z" fill="#312426"/>
<path d="M64.9882 40.9951H61.9908V43.9957H64.9882V40.9951Z" fill="#312426"/>
<path d="M61.9908 40.9951H58.9933V43.9957H61.9908V40.9951Z" fill="#312426"/>
<path d="M58.9934 40.9951H55.996V43.9957H58.9934V40.9951Z" fill="#FBD30B"/>
<path d="M55.9934 40.9951H52.996V43.9957H55.9934V40.9951Z" fill="#F5D32A"/>
<path d="M52.9961 40.9951H49.9987V43.9957H52.9961V40.9951Z" fill="#FBD30B"/>
<path d="M49.9986 40.9951H47.0012V43.9957H49.9986V40.9951Z" fill="#FBD30B"/>
<path d="M46.9987 40.9951H44.0013V43.9957H46.9987V40.9951Z" fill="#FBD30B"/>
<path d="M44.0013 40.9951H41.0039V43.9957H44.0013V40.9951Z" fill="#FBD30B"/>
<path d="M41.0039 40.9951H38.0065V43.9957H41.0039V40.9951Z" fill="#FBD30B"/>
<path d="M38.004 40.9951H35.0066V43.9957H38.004V40.9951Z" fill="#FBD30B"/>
<path d="M35.0066 40.9951H32.0092V43.9957H35.0066V40.9951Z" fill="#312426"/>
<path d="M32.0092 40.9951H29.0118V43.9957H32.0092V40.9951Z" fill="#312426"/>
<path d="M29.0092 40.9951H26.0118V43.9957H29.0092V40.9951Z" fill="#312426"/>
<path d="M26.0118 40.9951H23.0144V43.9957H26.0118V40.9951Z" fill="#FBD30B"/>
<path d="M23.0144 40.9951H20.017V43.9957H23.0144V40.9951Z" fill="#FBD30B"/>
<path d="M20.0145 40.9951H17.0171V43.9957H20.0145V40.9951Z" fill="#FBD30B"/>
<path d="M17.0171 40.9951H14.0197V43.9957H17.0171V40.9951Z" fill="#FBD30B"/>
<path d="M14.0197 40.9951H11.0223V43.9957H14.0197V40.9951Z" fill="#FBD30B"/>
<path d="M11.0198 40.9951H8.0224V43.9957H11.0198V40.9951Z" fill="#F7D633"/>
<path d="M8.02237 40.9951H5.02496V43.9957H8.02237V40.9951Z" fill="#452616"/>
<path d="M88.975 37.9946H85.9776V40.9952H88.975V37.9946Z" fill="#432314"/>
<path d="M85.9776 37.9946H82.9802V40.9952H85.9776V37.9946Z" fill="#D49A29"/>
<path d="M82.9776 37.9946H79.9802V40.9952H82.9776V37.9946Z" fill="#FBD30B"/>
<path d="M79.9803 37.9946H76.9828V40.9952H79.9803V37.9946Z" fill="#FBD30B"/>
<path d="M76.9828 37.9946H73.9854V40.9952H76.9828V37.9946Z" fill="#FBD30B"/>
<path d="M73.9829 37.9946H70.9855V40.9952H73.9829V37.9946Z" fill="#FBD30B"/>
<path d="M70.9855 37.9946H67.9881V40.9952H70.9855V37.9946Z" fill="#F9D40D"/>
<path d="M67.9881 37.9946H64.9907V40.9952H67.9881V37.9946Z" fill="#312426"/>
<path d="M64.9882 37.9946H61.9908V40.9952H64.9882V37.9946Z" fill="#312426"/>
<path d="M61.9908 37.9946H58.9933V40.9952H61.9908V37.9946Z" fill="#312426"/>
<path d="M58.9934 37.9946H55.996V40.9952H58.9934V37.9946Z" fill="#F9D40D"/>
<path d="M55.9934 37.9946H52.996V40.9952H55.9934V37.9946Z" fill="#FBD30B"/>
<path d="M52.9961 37.9946H49.9987V40.9952H52.9961V37.9946Z" fill="#FBD30B"/>
<path d="M49.9986 37.9946H47.0012V40.9952H49.9986V37.9946Z" fill="#FBD30B"/>
<path d="M46.9987 37.9946H44.0013V40.9952H46.9987V37.9946Z" fill="#FBD30B"/>
<path d="M44.0013 37.9946H41.0039V40.9952H44.0013V37.9946Z" fill="#FBD30B"/>
<path d="M41.0039 37.9946H38.0065V40.9952H41.0039V37.9946Z" fill="#FBD30B"/>
<path d="M38.004 37.9946H35.0066V40.9952H38.004V37.9946Z" fill="#FBD30B"/>
<path d="M35.0066 37.9946H32.0092V40.9952H35.0066V37.9946Z" fill="#312426"/>
<path d="M32.0092 37.9946H29.0118V40.9952H32.0092V37.9946Z" fill="#312426"/>
<path d="M29.0092 37.9946H26.0118V40.9952H29.0092V37.9946Z" fill="#312426"/>
<path d="M26.0118 37.9946H23.0144V40.9952H26.0118V37.9946Z" fill="#FAD50C"/>
<path d="M23.0144 37.9946H20.017V40.9952H23.0144V37.9946Z" fill="#FBD30B"/>
<path d="M20.0145 37.9946H17.0171V40.9952H20.0145V37.9946Z" fill="#FBD30B"/>
<path d="M17.0171 37.9946H14.0197V40.9952H17.0171V37.9946Z" fill="#FBD30B"/>
<path d="M14.0197 37.9946H11.0223V40.9952H14.0197V37.9946Z" fill="#F7DA48"/>
<path d="M11.0198 37.9946H8.0224V40.9952H11.0198V37.9946Z" fill="#FBD30B"/>
<path d="M8.02237 37.9946H5.02496V40.9952H8.02237V37.9946Z" fill="#432314"/>
<path d="M88.975 34.9912H85.9776V37.9917H88.975V34.9912Z" fill="#432416"/>
<path d="M85.9776 34.9912H82.9802V37.9917H85.9776V34.9912Z" fill="#D49A29"/>
<path d="M82.9776 34.9912H79.9802V37.9917H82.9776V34.9912Z" fill="#FBD50B"/>
<path d="M79.9803 34.9912H76.9828V37.9917H79.9803V34.9912Z" fill="#FBD30B"/>
<path d="M76.9828 34.9912H73.9854V37.9917H76.9828V34.9912Z" fill="#FBD30B"/>
<path d="M73.9829 34.9912H70.9855V37.9917H73.9829V34.9912Z" fill="#FBD30B"/>
<path d="M70.9855 34.9912H67.9881V37.9917H70.9855V34.9912Z" fill="#FBD30B"/>
<path d="M67.9881 34.9912H64.9907V37.9917H67.9881V34.9912Z" fill="#FFFFFB"/>
<path d="M64.9882 34.9912H61.9908V37.9917H64.9882V34.9912Z" fill="#FFFFFB"/>
<path d="M61.9908 34.9912H58.9933V37.9917H61.9908V34.9912Z" fill="#312426"/>
<path d="M58.9934 34.9912H55.996V37.9917H58.9934V34.9912Z" fill="#FBD30B"/>
<path d="M55.9934 34.9912H52.996V37.9917H55.9934V34.9912Z" fill="#FBD30B"/>
<path d="M52.9961 34.9912H49.9987V37.9917H52.9961V34.9912Z" fill="#FBD30B"/>
<path d="M49.9986 34.9912H47.0012V37.9917H49.9986V34.9912Z" fill="#FBD30B"/>
<path d="M46.9987 34.9912H44.0013V37.9917H46.9987V34.9912Z" fill="#FBD30B"/>
<path d="M44.0013 34.9912H41.0039V37.9917H44.0013V34.9912Z" fill="#FBD30B"/>
<path d="M41.0039 34.9912H38.0065V37.9917H41.0039V34.9912Z" fill="#FBD30B"/>
<path d="M38.004 34.9912H35.0066V37.9917H38.004V34.9912Z" fill="#FBD30B"/>
<path d="M35.0066 34.9912H32.0092V37.9917H35.0066V34.9912Z" fill="#FFFFFB"/>
<path d="M32.0092 34.9912H29.0118V37.9917H32.0092V34.9912Z" fill="#FFFFFB"/>
<path d="M29.0092 34.9912H26.0118V37.9917H29.0092V34.9912Z" fill="#312426"/>
<path d="M26.0118 34.9912H23.0144V37.9917H26.0118V34.9912Z" fill="#FBD30B"/>
<path d="M23.0144 34.9912H20.017V37.9917H23.0144V34.9912Z" fill="#F9D40D"/>
<path d="M20.0145 34.9912H17.0171V37.9917H20.0145V34.9912Z" fill="#FBD30B"/>
<path d="M17.0171 34.9912H14.0197V37.9917H17.0171V34.9912Z" fill="#FBD30C"/>
<path d="M14.0197 34.9912H11.0223V37.9917H14.0197V34.9912Z" fill="#FBD30B"/>
<path d="M11.0198 34.9912H8.0224V37.9917H11.0198V34.9912Z" fill="#FBD30B"/>
<path d="M8.02237 34.9912H5.02496V37.9917H8.02237V34.9912Z" fill="#432314"/>
<path d="M88.975 31.9907H85.9776V34.9913H88.975V31.9907Z" fill="#755A4D"/>
<path d="M85.9776 31.9907H82.9802V34.9913H85.9776V31.9907Z" fill="#986C2F"/>
<path d="M82.9776 31.9907H79.9802V34.9913H82.9776V31.9907Z" fill="#FBD30B"/>
<path d="M79.9803 31.9907H76.9828V34.9913H79.9803V31.9907Z" fill="#FBD30B"/>
<path d="M76.9828 31.9907H73.9854V34.9913H76.9828V31.9907Z" fill="#FBD30B"/>
<path d="M73.9829 31.9907H70.9855V34.9913H73.9829V31.9907Z" fill="#FBD30B"/>
<path d="M70.9855 31.9907H67.9881V34.9913H70.9855V31.9907Z" fill="#FBD30B"/>
<path d="M67.9881 31.9907H64.9907V34.9913H67.9881V31.9907Z" fill="#FFFFFB"/>
<path d="M64.9882 31.9907H61.9908V34.9913H64.9882V31.9907Z" fill="#FFFFFB"/>
<path d="M61.9908 31.9907H58.9933V34.9913H61.9908V31.9907Z" fill="#312426"/>
<path d="M58.9934 31.9907H55.996V34.9913H58.9934V31.9907Z" fill="#FBD30B"/>
<path d="M55.9934 31.9907H52.996V34.9913H55.9934V31.9907Z" fill="#FBD30B"/>
<path d="M52.9961 31.9907H49.9987V34.9913H52.9961V31.9907Z" fill="#FBD30B"/>
<path d="M49.9986 31.9907H47.0012V34.9913H49.9986V31.9907Z" fill="#FBD30B"/>
<path d="M46.9987 31.9907H44.0013V34.9913H46.9987V31.9907Z" fill="#FBD30B"/>
<path d="M44.0013 31.9907H41.0039V34.9913H44.0013V31.9907Z" fill="#FBD30C"/>
<path d="M41.0039 31.9907H38.0065V34.9913H41.0039V31.9907Z" fill="#FBD30B"/>
<path d="M38.004 31.9907H35.0066V34.9913H38.004V31.9907Z" fill="#FBD30B"/>
<path d="M35.0066 31.9907H32.0092V34.9913H35.0066V31.9907Z" fill="#FFFFFB"/>
<path d="M32.0092 31.9907H29.0118V34.9913H32.0092V31.9907Z" fill="#FFFFFB"/>
<path d="M29.0092 31.9907H26.0118V34.9913H29.0092V31.9907Z" fill="#312426"/>
<path d="M26.0118 31.9907H23.0144V34.9913H26.0118V31.9907Z" fill="#FBD30B"/>
<path d="M23.0144 31.9907H20.017V34.9913H23.0144V31.9907Z" fill="#FBD30B"/>
<path d="M20.0145 31.9907H17.0171V34.9913H20.0145V31.9907Z" fill="#F7F5DE"/>
<path d="M17.0171 31.9907H14.0197V34.9913H17.0171V31.9907Z" fill="#FFFFFB"/>
<path d="M14.0197 31.9907H11.0223V34.9913H14.0197V31.9907Z" fill="#FBD30B"/>
<path d="M11.0198 31.9907H8.0224V34.9913H11.0198V31.9907Z" fill="#FAD40D"/>
<path d="M8.02237 31.9907H5.02496V34.9913H8.02237V31.9907Z" fill="#422416"/>
<path d="M85.9776 28.9902H82.9802V31.9908H85.9776V28.9902Z" fill="#432314"/>
<path d="M82.9776 28.9902H79.9802V31.9908H82.9776V28.9902Z" fill="#D69A29"/>
<path d="M79.9803 28.9902H76.9828V31.9908H79.9803V28.9902Z" fill="#D49A29"/>
<path d="M76.9828 28.9902H73.9854V31.9908H76.9828V28.9902Z" fill="#FBD30B"/>
<path d="M73.9829 28.9902H70.9855V31.9908H73.9829V28.9902Z" fill="#FBD30B"/>
<path d="M70.9855 28.9902H67.9881V31.9908H70.9855V28.9902Z" fill="#FBD30B"/>
<path d="M67.9881 28.9902H64.9907V31.9908H67.9881V28.9902Z" fill="#322527"/>
<path d="M64.9882 28.9902H61.9908V31.9908H64.9882V28.9902Z" fill="#312426"/>
<path d="M61.9908 28.9902H58.9933V31.9908H61.9908V28.9902Z" fill="#312426"/>
<path d="M58.9934 28.9902H55.996V31.9908H58.9934V28.9902Z" fill="#FBD30B"/>
<path d="M55.9934 28.9902H52.996V31.9908H55.9934V28.9902Z" fill="#FBD30B"/>
<path d="M52.9961 28.9902H49.9987V31.9908H52.9961V28.9902Z" fill="#FBD30B"/>
<path d="M49.9986 28.9902H47.0012V31.9908H49.9986V28.9902Z" fill="#FBD30B"/>
<path d="M46.9987 28.9902H44.0013V31.9908H46.9987V28.9902Z" fill="#FBD40B"/>
<path d="M44.0013 28.9902H41.0039V31.9908H44.0013V28.9902Z" fill="#FBD30B"/>
<path d="M41.0039 28.9902H38.0065V31.9908H41.0039V28.9902Z" fill="#FBD30B"/>
<path d="M38.004 28.9902H35.0066V31.9908H38.004V28.9902Z" fill="#FBD40B"/>
<path d="M35.0066 28.9902H32.0092V31.9908H35.0066V28.9902Z" fill="#312426"/>
<path d="M32.0092 28.9902H29.0118V31.9908H32.0092V28.9902Z" fill="#312426"/>
<path d="M29.0092 28.9902H26.0118V31.9908H29.0092V28.9902Z" fill="#312426"/>
<path d="M26.0118 28.9902H23.0144V31.9908H26.0118V28.9902Z" fill="#FBD30B"/>
<path d="M23.0144 28.9902H20.017V31.9908H23.0144V28.9902Z" fill="#FBE693"/>
<path d="M20.0145 28.9902H17.0171V31.9908H20.0145V28.9902Z" fill="#FAFBEA"/>
<path d="M17.0171 28.9902H14.0197V31.9908H17.0171V28.9902Z" fill="#FBE592"/>
<path d="M14.0197 28.9902H11.0223V31.9908H14.0197V28.9902Z" fill="#FBD30B"/>
<path d="M11.0198 28.9902H8.0224V31.9908H11.0198V28.9902Z" fill="#432314"/>
<path d="M85.9776 25.9873H82.9802V28.9878H85.9776V25.9873Z" fill="#543A2B"/>
<path d="M82.9776 25.9873H79.9802V28.9878H82.9776V25.9873Z" fill="#D49A29"/>
<path d="M79.9803 25.9873H76.9828V28.9878H79.9803V25.9873Z" fill="#D59B29"/>
<path d="M76.9828 25.9873H73.9854V28.9878H76.9828V25.9873Z" fill="#FBD30B"/>
<path d="M73.9829 25.9873H70.9855V28.9878H73.9829V25.9873Z" fill="#FBD30B"/>
<path d="M70.9855 25.9873H67.9881V28.9878H70.9855V25.9873Z" fill="#F9E35A"/>
<path d="M67.9881 25.9873H64.9907V28.9878H67.9881V25.9873Z" fill="#FBD30B"/>
<path d="M64.9882 25.9873H61.9908V28.9878H64.9882V25.9873Z" fill="#FBD30B"/>
<path d="M61.9908 25.9873H58.9933V28.9878H61.9908V25.9873Z" fill="#FBD30B"/>
<path d="M58.9934 25.9873H55.996V28.9878H58.9934V25.9873Z" fill="#FBD30B"/>
<path d="M55.9934 25.9873H52.996V28.9878H55.9934V25.9873Z" fill="#FBD30B"/>
<path d="M52.9961 25.9873H49.9987V28.9878H52.9961V25.9873Z" fill="#FBD30B"/>
<path d="M49.9986 25.9873H47.0012V28.9878H49.9986V25.9873Z" fill="#FBD30B"/>
<path d="M46.9987 25.9873H44.0013V28.9878H46.9987V25.9873Z" fill="#FBD30B"/>
<path d="M44.0013 25.9873H41.0039V28.9878H44.0013V25.9873Z" fill="#FBD30B"/>
<path d="M41.0039 25.9873H38.0065V28.9878H41.0039V25.9873Z" fill="#FBD30B"/>
<path d="M38.004 25.9873H35.0066V28.9878H38.004V25.9873Z" fill="#FBD30B"/>
<path d="M35.0066 25.9873H32.0092V28.9878H35.0066V25.9873Z" fill="#FBD40B"/>
<path d="M32.0092 25.9873H29.0118V28.9878H32.0092V25.9873Z" fill="#FBD30B"/>
<path d="M29.0092 25.9873H26.0118V28.9878H29.0092V25.9873Z" fill="#FBD30B"/>
<path d="M26.0118 25.9873H23.0144V28.9878H26.0118V25.9873Z" fill="#F7D83D"/>
<path d="M23.0144 25.9873H20.017V28.9878H23.0144V25.9873Z" fill="#FFFFFB"/>
<path d="M20.0145 25.9873H17.0171V28.9878H20.0145V25.9873Z" fill="#FFFFFB"/>
<path d="M17.0171 25.9873H14.0197V28.9878H17.0171V25.9873Z" fill="#FBD30B"/>
<path d="M14.0197 25.9873H11.0223V28.9878H14.0197V25.9873Z" fill="#FAD40B"/>
<path d="M11.0198 25.9873H8.0224V28.9878H11.0198V25.9873Z" fill="#432314"/>
<path d="M82.9776 22.9868H79.9802V25.9874H82.9776V22.9868Z" fill="#432314"/>
<path d="M79.9803 22.9868H76.9828V25.9874H79.9803V22.9868Z" fill="#432314"/>
<path d="M76.9828 22.9868H73.9854V25.9874H76.9828V22.9868Z" fill="#D49A29"/>
<path d="M73.9829 22.9868H70.9855V25.9874H73.9829V22.9868Z" fill="#F7DF56"/>
<path d="M70.9855 22.9868H67.9881V25.9874H70.9855V22.9868Z" fill="#FBD30B"/>
<path d="M67.9881 22.9868H64.9907V25.9874H67.9881V22.9868Z" fill="#FBD30B"/>
<path d="M64.9882 22.9868H61.9908V25.9874H64.9882V22.9868Z" fill="#FBD30B"/>
<path d="M61.9908 22.9868H58.9933V25.9874H61.9908V22.9868Z" fill="#FBD30B"/>
<path d="M58.9934 22.9868H55.996V25.9874H58.9934V22.9868Z" fill="#FBD30B"/>
<path d="M55.9934 22.9868H52.996V25.9874H55.9934V22.9868Z" fill="#FBD30B"/>
<path d="M52.9961 22.9868H49.9987V25.9874H52.9961V22.9868Z" fill="#FBD30B"/>
<path d="M49.9986 22.9868H47.0012V25.9874H49.9986V22.9868Z" fill="#FBD30B"/>
<path d="M46.9987 22.9868H44.0013V25.9874H46.9987V22.9868Z" fill="#FBD30B"/>
<path d="M44.0013 22.9868H41.0039V25.9874H44.0013V22.9868Z" fill="#FBD30B"/>
<path d="M41.0039 22.9868H38.0065V25.9874H41.0039V22.9868Z" fill="#FBD30B"/>
<path d="M38.004 22.9868H35.0066V25.9874H38.004V22.9868Z" fill="#FBD30B"/>
<path d="M35.0066 22.9868H32.0092V25.9874H35.0066V22.9868Z" fill="#FBD30B"/>
<path d="M32.0092 22.9868H29.0118V25.9874H32.0092V22.9868Z" fill="#F7EDB3"/>
<path d="M29.0092 22.9868H26.0118V25.9874H29.0092V22.9868Z" fill="#FEFEF7"/>
<path d="M26.0118 22.9868H23.0144V25.9874H26.0118V22.9868Z" fill="#FEFDF7"/>
<path d="M23.0144 22.9868H20.017V25.9874H23.0144V22.9868Z" fill="#FFFFFB"/>
<path d="M20.0145 22.9868H17.0171V25.9874H20.0145V22.9868Z" fill="#FAD60C"/>
<path d="M17.0171 22.9868H14.0197V25.9874H17.0171V22.9868Z" fill="#432416"/>
<path d="M14.0197 22.9868H11.0223V25.9874H14.0197V22.9868Z" fill="#432416"/>
<path d="M82.9776 19.9839H79.9802V22.9844H82.9776V19.9839Z" fill="#432314"/>
<path d="M79.9803 19.9839H76.9828V22.9844H79.9803V19.9839Z" fill="#432314"/>
<path d="M76.9828 19.9839H73.9854V22.9844H76.9828V19.9839Z" fill="#D59B29"/>
<path d="M73.9829 19.9839H70.9855V22.9844H73.9829V19.9839Z" fill="#FBD30B"/>
<path d="M70.9855 19.9839H67.9881V22.9844H70.9855V19.9839Z" fill="#FBD30B"/>
<path d="M67.9881 19.9839H64.9907V22.9844H67.9881V19.9839Z" fill="#FBD30B"/>
<path d="M64.9882 19.9839H61.9908V22.9844H64.9882V19.9839Z" fill="#FBD30B"/>
<path d="M61.9908 19.9839H58.9933V22.9844H61.9908V19.9839Z" fill="#FBD30B"/>
<path d="M58.9934 19.9839H55.996V22.9844H58.9934V19.9839Z" fill="#FBD30B"/>
<path d="M55.9934 19.9839H52.996V22.9844H55.9934V19.9839Z" fill="#FBD40B"/>
<path d="M52.9961 19.9839H49.9987V22.9844H52.9961V19.9839Z" fill="#FBD30B"/>
<path d="M49.9986 19.9839H47.0012V22.9844H49.9986V19.9839Z" fill="#FBD30B"/>
<path d="M46.9987 19.9839H44.0013V22.9844H46.9987V19.9839Z" fill="#FBD30B"/>
<path d="M44.0013 19.9839H41.0039V22.9844H44.0013V19.9839Z" fill="#FBD30B"/>
<path d="M41.0039 19.9839H38.0065V22.9844H41.0039V19.9839Z" fill="#FBD30B"/>
<path d="M38.004 19.9839H35.0066V22.9844H38.004V19.9839Z" fill="#FBD30B"/>
<path d="M35.0066 19.9839H32.0092V22.9844H35.0066V19.9839Z" fill="#F9D30C"/>
<path d="M32.0092 19.9839H29.0118V22.9844H32.0092V19.9839Z" fill="#FBF1B7"/>
<path d="M29.0092 19.9839H26.0118V22.9844H29.0092V19.9839Z" fill="#FFFFFA"/>
<path d="M26.0118 19.9839H23.0144V22.9844H26.0118V19.9839Z" fill="#FFFFFB"/>
<path d="M23.0144 19.9839H20.017V22.9844H23.0144V19.9839Z" fill="#FFFFFB"/>
<path d="M20.0145 19.9839H17.0171V22.9844H20.0145V19.9839Z" fill="#FBD30B"/>
<path d="M17.0171 19.9839H14.0197V22.9844H17.0171V19.9839Z" fill="#432314"/>
<path d="M14.0197 19.9839H11.0223V22.9844H14.0197V19.9839Z" fill="#432314"/>
<path d="M76.9828 16.9834H73.9854V19.9839H76.9828V16.9834Z" fill="#432314"/>
<path d="M73.9829 16.9834H70.9855V19.9839H73.9829V16.9834Z" fill="#D49A29"/>
<path d="M70.9855 16.9834H67.9881V19.9839H70.9855V16.9834Z" fill="#D49A29"/>
<path d="M67.9881 16.9834H64.9907V19.9839H67.9881V16.9834Z" fill="#FBD30B"/>
<path d="M64.9882 16.9834H61.9908V19.9839H64.9882V16.9834Z" fill="#FBD30B"/>
<path d="M61.9908 16.9834H58.9933V19.9839H61.9908V16.9834Z" fill="#FBD30B"/>
<path d="M58.9934 16.9834H55.996V19.9839H58.9934V16.9834Z" fill="#FBD30C"/>
<path d="M55.9934 16.9834H52.996V19.9839H55.9934V16.9834Z" fill="#FBD30B"/>
<path d="M52.9961 16.9834H49.9987V19.9839H52.9961V16.9834Z" fill="#FBD30B"/>
<path d="M49.9986 16.9834H47.0012V19.9839H49.9986V16.9834Z" fill="#FBD30B"/>
<path d="M46.9987 16.9834H44.0013V19.9839H46.9987V16.9834Z" fill="#FBD30C"/>
<path d="M44.0013 16.9834H41.0039V19.9839H44.0013V16.9834Z" fill="#FBD30B"/>
<path d="M41.0039 16.9834H38.0065V19.9839H41.0039V16.9834Z" fill="#FBD30B"/>
<path d="M38.004 16.9834H35.0066V19.9839H38.004V16.9834Z" fill="#FBD30B"/>
<path d="M35.0066 16.9834H32.0092V19.9839H35.0066V16.9834Z" fill="#FFFFFB"/>
<path d="M32.0092 16.9834H29.0118V19.9839H32.0092V16.9834Z" fill="#FFFFFB"/>
<path d="M29.0092 16.9834H26.0118V19.9839H29.0092V16.9834Z" fill="#FFFFFB"/>
<path d="M26.0118 16.9834H23.0144V19.9839H26.0118V16.9834Z" fill="#FAD40B"/>
<path d="M23.0144 16.9834H20.017V19.9839H23.0144V16.9834Z" fill="#FBD30B"/>
<path d="M20.0145 16.9834H17.0171V19.9839H20.0145V16.9834Z" fill="#432314"/>
<path d="M76.9828 13.98H73.9854V16.9805H76.9828V13.98Z" fill="#B3A199"/>
<path d="M73.9829 13.98H70.9855V16.9805H73.9829V13.98Z" fill="#D69A29"/>
<path d="M70.9855 13.98H67.9881V16.9805H70.9855V13.98Z" fill="#D69A29"/>
<path d="M67.9881 13.98H64.9907V16.9805H67.9881V13.98Z" fill="#E0AB26"/>
<path d="M64.9882 13.98H61.9908V16.9805H64.9882V13.98Z" fill="#E9B621"/>
<path d="M61.9908 13.98H58.9933V16.9805H61.9908V13.98Z" fill="#FBD40B"/>
<path d="M58.9934 13.98H55.996V16.9805H58.9934V13.98Z" fill="#FBD30B"/>
<path d="M55.9934 13.98H52.996V16.9805H55.9934V13.98Z" fill="#FBD30B"/>
<path d="M52.9961 13.98H49.9987V16.9805H52.9961V13.98Z" fill="#FBD30B"/>
<path d="M49.9986 13.98H47.0012V16.9805H49.9986V13.98Z" fill="#FBD30B"/>
<path d="M46.9987 13.98H44.0013V16.9805H46.9987V13.98Z" fill="#FBD30B"/>
<path d="M44.0013 13.98H41.0039V16.9805H44.0013V13.98Z" fill="#FFFFFA"/>
<path d="M41.0039 13.98H38.0065V16.9805H41.0039V13.98Z" fill="#FFFFFB"/>
<path d="M38.004 13.98H35.0066V16.9805H38.004V13.98Z" fill="#FFFFFB"/>
<path d="M35.0066 13.98H32.0092V16.9805H35.0066V13.98Z" fill="#FFFFFB"/>
<path d="M32.0092 13.98H29.0118V16.9805H32.0092V13.98Z" fill="#F9E26A"/>
<path d="M29.0092 13.98H26.0118V16.9805H29.0092V13.98Z" fill="#FBD30B"/>
<path d="M26.0118 13.98H23.0144V16.9805H26.0118V13.98Z" fill="#B1902F"/>
<path d="M23.0144 13.98H20.017V16.9805H23.0144V13.98Z" fill="#B1902F"/>
<path d="M20.0145 13.98H17.0171V16.9805H20.0145V13.98Z" fill="#6D5649"/>
<path d="M73.9829 10.9795H70.9855V13.98H73.9829V10.9795Z" fill="#432314"/>
<path d="M70.9855 10.9795H67.9881V13.98H70.9855V10.9795Z" fill="#432314"/>
<path d="M67.9881 10.9795H64.9907V13.98H67.9881V10.9795Z" fill="#D49A29"/>
<path d="M64.9882 10.9795H61.9908V13.98H64.9882V10.9795Z" fill="#E0A827"/>
<path d="M61.9908 10.9795H58.9933V13.98H61.9908V10.9795Z" fill="#FBD30B"/>
<path d="M58.9934 10.9795H55.996V13.98H58.9934V10.9795Z" fill="#FBD30B"/>
<path d="M55.9934 10.9795H52.996V13.98H55.9934V10.9795Z" fill="#FBD30B"/>
<path d="M52.9961 10.9795H49.9987V13.98H52.9961V10.9795Z" fill="#FBD30B"/>
<path d="M49.9986 10.9795H47.0012V13.98H49.9986V10.9795Z" fill="#FBD30B"/>
<path d="M46.9987 10.9795H44.0013V13.98H46.9987V10.9795Z" fill="#FBD30B"/>
<path d="M44.0013 10.9795H41.0039V13.98H44.0013V10.9795Z" fill="#FAF5CE"/>
<path d="M41.0039 10.9795H38.0065V13.98H41.0039V10.9795Z" fill="#FAF6D0"/>
<path d="M38.004 10.9795H35.0066V13.98H38.004V10.9795Z" fill="#FBF8D0"/>
<path d="M35.0066 10.9795H32.0092V13.98H35.0066V10.9795Z" fill="#FBF8D0"/>
<path d="M32.0092 10.9795H29.0118V13.98H32.0092V10.9795Z" fill="#F9DE5D"/>
<path d="M29.0092 10.9795H26.0118V13.98H29.0092V10.9795Z" fill="#FBD30B"/>
<path d="M26.0118 10.9795H23.0144V13.98H26.0118V10.9795Z" fill="#432314"/>
<path d="M23.0144 10.9795H20.017V13.98H23.0144V10.9795Z" fill="#432314"/>
<path d="M67.9881 7.97656H64.9907V10.9771H67.9881V7.97656Z" fill="#432314"/>
<path d="M64.9882 7.97656H61.9908V10.9771H64.9882V7.97656Z" fill="#5F3E23"/>
<path d="M61.9908 7.97656H58.9933V10.9771H61.9908V7.97656Z" fill="#D49A29"/>
<path d="M58.9934 7.97656H55.996V10.9771H58.9934V7.97656Z" fill="#FAD40B"/>
<path d="M55.9934 7.97656H52.996V10.9771H55.9934V7.97656Z" fill="#FBD30B"/>
<path d="M52.9961 7.97656H49.9987V10.9771H52.9961V7.97656Z" fill="#FBD30B"/>
<path d="M49.9986 7.97656H47.0012V10.9771H49.9986V7.97656Z" fill="#FBD30B"/>
<path d="M46.9987 7.97656H44.0013V10.9771H46.9987V7.97656Z" fill="#F8D40D"/>
<path d="M44.0013 7.97656H41.0039V10.9771H44.0013V7.97656Z" fill="#FBD30B"/>
<path d="M41.0039 7.97656H38.0065V10.9771H41.0039V7.97656Z" fill="#FBD30B"/>
<path d="M38.004 7.97656H35.0066V10.9771H38.004V7.97656Z" fill="#FBD30B"/>
<path d="M35.0066 7.97656H32.0092V10.9771H35.0066V7.97656Z" fill="#FBD30B"/>
<path d="M32.0092 7.97656H29.0118V10.9771H32.0092V7.97656Z" fill="#654625"/>
<path d="M29.0092 7.97656H26.0118V10.9771H29.0092V7.97656Z" fill="#432314"/>
<path d="M61.9908 4.97607H58.9933V7.97661H61.9908V4.97607Z" fill="#432314"/>
<path d="M58.9934 4.97607H55.996V7.97661H58.9934V4.97607Z" fill="#432314"/>
<path d="M55.9934 4.97607H52.996V7.97661H55.9934V4.97607Z" fill="#48281A"/>
<path d="M52.9961 4.97607H49.9987V7.97661H52.9961V4.97607Z" fill="#432314"/>
<path d="M49.9986 4.97607H47.0012V7.97661H49.9986V4.97607Z" fill="#5E4335"/>
<path d="M46.9987 4.97607H44.0013V7.97661H46.9987V4.97607Z" fill="#432314"/>
<path d="M44.0013 4.97607H41.0039V7.97661H44.0013V4.97607Z" fill="#432314"/>
<path d="M41.0039 4.97607H38.0065V7.97661H41.0039V4.97607Z" fill="#432314"/>
<path d="M38.004 4.97607H35.0066V7.97661H38.004V4.97607Z" fill="#432314"/>
<path d="M35.0066 4.97607H32.0092V7.97661H35.0066V4.97607Z" fill="#432315"/>
</g>
<defs>
<clipPath id="clip0_1013_5939">
<rect width="94" height="97" fill="white"/>
</clipPath>
</defs>
</svg>
