<svg width="115" height="115" viewBox="0 0 115 115" fill="none" xmlns="http://www.w3.org/2000/svg">
<g clip-path="url(#clip0_1013_5937)">
<path d="M36.8797 115V111.311H29.502V107.622H22.1272V103.933H14.7525V100.244H11.0636V92.8666H7.37477V85.4888H3.68885V74.4221H0V36.889H3.68885V29.5112H7.37477V22.1334H11.0636V14.7556H14.7525V11.0667H22.1272V7.3778H29.502V3.6889H36.8797V0H78.1203V3.6889H85.4951V7.3778H92.8728V11.0667H100.248V14.7556H103.936V22.1334H107.622V29.5112H111.311V36.889H115V74.4221H111.311V85.4888H107.622V92.8666H103.936V100.244H100.248V103.933H92.8728V107.622H89.1839V111.311H81.8091V115H36.8797Z" fill="white"/>
<path d="M75.9399 105.456H72.251V109.144H75.9399V105.456Z" fill="#C94627"/>
<path d="M72.251 105.456H68.5622V109.144H72.251V105.456Z" fill="#C94627"/>
<path d="M68.5651 105.456H64.8763V109.144H68.5651V105.456Z" fill="#C94627"/>
<path d="M64.8763 105.456H61.1874V109.144H64.8763V105.456Z" fill="#C94627"/>
<path d="M61.1874 105.456H57.4985V109.144H61.1874V105.456Z" fill="#C94627"/>
<path d="M57.5015 105.456H53.8126V109.144H57.5015V105.456Z" fill="#C94627"/>
<path d="M53.8126 105.456H50.1238V109.144H53.8126V105.456Z" fill="#C94627"/>
<path d="M50.1238 105.456H46.4349V109.144H50.1238V105.456Z" fill="#C84527"/>
<path d="M46.4379 105.456H42.749V109.144H46.4379V105.456Z" fill="#C94627"/>
<path d="M83.3146 101.767H79.6258V105.456H83.3146V101.767Z" fill="#1B3C6C"/>
<path d="M79.6287 101.767H75.9399V105.456H79.6287V101.767Z" fill="#1A3C6B"/>
<path d="M75.9399 101.767H72.251V105.456H75.9399V101.767Z" fill="#C94627"/>
<path d="M72.251 101.767H68.5622V105.456H72.251V101.767Z" fill="#CF562B"/>
<path d="M68.5651 101.767H64.8763V105.456H68.5651V101.767Z" fill="#E17534"/>
<path d="M64.8763 101.767H61.1874V105.456H64.8763V101.767Z" fill="#E17534"/>
<path d="M61.1874 101.767H57.4985V105.456H61.1874V101.767Z" fill="#E17534"/>
<path d="M57.5015 101.767H53.8126V105.456H57.5015V101.767Z" fill="#E17534"/>
<path d="M53.8126 101.767H50.1238V105.456H53.8126V101.767Z" fill="#E17534"/>
<path d="M50.1238 101.767H46.4349V105.456H50.1238V101.767Z" fill="#E17534"/>
<path d="M46.4379 101.767H42.749V105.456H46.4379V101.767Z" fill="#E17534"/>
<path d="M42.749 101.767H39.0602V105.456H42.749V101.767Z" fill="#C94627"/>
<path d="M39.0602 101.767H35.3713V105.456H39.0602V101.767Z" fill="#1B3C6C"/>
<path d="M87.0035 98.0781H83.3146V101.767H87.0035V98.0781Z" fill="#1A3C6B"/>
<path d="M83.3146 98.0781H79.6258V101.767H83.3146V98.0781Z" fill="#1A3C6B"/>
<path d="M79.6287 98.0781H75.9399V101.767H79.6287V98.0781Z" fill="#0D6BAC"/>
<path d="M75.9399 98.0781H72.251V101.767H75.9399V98.0781Z" fill="#E17534"/>
<path d="M72.251 98.0781H68.5622V101.767H72.251V98.0781Z" fill="#E17534"/>
<path d="M68.5651 98.0781H64.8763V101.767H68.5651V98.0781Z" fill="#E17534"/>
<path d="M64.8763 98.0781H61.1874V101.767H64.8763V98.0781Z" fill="#E17534"/>
<path d="M61.1874 98.0781H57.4985V101.767H61.1874V98.0781Z" fill="#E17534"/>
<path d="M57.5015 98.0781H53.8126V101.767H57.5015V98.0781Z" fill="#E17534"/>
<path d="M53.8126 98.0781H50.1238V101.767H53.8126V98.0781Z" fill="#E17534"/>
<path d="M50.1238 98.0781H46.4349V101.767H50.1238V98.0781Z" fill="#E17534"/>
<path d="M46.4379 98.0781H42.749V101.767H46.4379V98.0781Z" fill="#E17534"/>
<path d="M42.749 98.0781H39.0602V101.767H42.749V98.0781Z" fill="#E17534"/>
<path d="M39.0602 98.0781H35.3713V101.767H39.0602V98.0781Z" fill="#0D6BAC"/>
<path d="M35.3743 98.0781H31.6854V101.767H35.3743V98.0781Z" fill="#1A3C6B"/>
<path d="M31.6854 98.0781H27.9966V101.767H31.6854V98.0781Z" fill="#1B3C6C"/>
<path d="M94.3782 94.3892H90.6894V98.0781H94.3782V94.3892Z" fill="#1B3A68"/>
<path d="M90.6923 94.3892H87.0035V98.0781H90.6923V94.3892Z" fill="#1B3C6C"/>
<path d="M87.0035 94.3892H83.3146V98.0781H87.0035V94.3892Z" fill="#0C6BAC"/>
<path d="M83.3146 94.3892H79.6258V98.0781H83.3146V94.3892Z" fill="#0C6BAC"/>
<path d="M79.6287 94.3892H75.9399V98.0781H79.6287V94.3892Z" fill="#0D6BAC"/>
<path d="M75.9399 94.3892H72.251V98.0781H75.9399V94.3892Z" fill="#E17534"/>
<path d="M72.251 94.3892H68.5622V98.0781H72.251V94.3892Z" fill="#E17534"/>
<path d="M68.5651 94.3892H64.8763V98.0781H68.5651V94.3892Z" fill="#E17534"/>
<path d="M64.8763 94.3892H61.1874V98.0781H64.8763V94.3892Z" fill="#E17534"/>
<path d="M61.1874 94.3892H57.4985V98.0781H61.1874V94.3892Z" fill="#E17534"/>
<path d="M57.5015 94.3892H53.8126V98.0781H57.5015V94.3892Z" fill="#E17534"/>
<path d="M53.8126 94.3892H50.1238V98.0781H53.8126V94.3892Z" fill="#E17534"/>
<path d="M50.1238 94.3892H46.4349V98.0781H50.1238V94.3892Z" fill="#E17534"/>
<path d="M46.4379 94.3892H42.749V98.0781H46.4379V94.3892Z" fill="#E17534"/>
<path d="M42.749 94.3892H39.0602V98.0781H42.749V94.3892Z" fill="#E17534"/>
<path d="M39.0602 94.3892H35.3713V98.0781H39.0602V94.3892Z" fill="#0D6BAC"/>
<path d="M35.3743 94.3892H31.6854V98.0781H35.3743V94.3892Z" fill="#0C6BAC"/>
<path d="M31.6854 94.3892H27.9966V98.0781H31.6854V94.3892Z" fill="#0D6BAC"/>
<path d="M27.9966 94.3892H24.3077V98.0781H27.9966V94.3892Z" fill="#1B3C6C"/>
<path d="M24.3106 94.3892H20.6218V98.0781H24.3106V94.3892Z" fill="#1B3A68"/>
<path d="M98.0671 90.7002H94.3783V94.3891H98.0671V90.7002Z" fill="#C04327"/>
<path d="M94.3782 90.7002H90.6894V94.3891H94.3782V90.7002Z" fill="#216199"/>
<path d="M90.6923 90.7002H87.0035V94.3891H90.6923V90.7002Z" fill="#1365A4"/>
<path d="M87.0035 90.7002H83.3146V94.3891H87.0035V90.7002Z" fill="#0D6BAC"/>
<path d="M83.3146 90.7002H79.6258V94.3891H83.3146V90.7002Z" fill="#0D6BAC"/>
<path d="M79.6287 90.7002H75.9399V94.3891H79.6287V90.7002Z" fill="#0D6BAC"/>
<path d="M75.9399 90.7002H72.251V94.3891H75.9399V90.7002Z" fill="#E6A54E"/>
<path d="M72.251 90.7002H68.5622V94.3891H72.251V90.7002Z" fill="#E7A54E"/>
<path d="M68.5651 90.7002H64.8763V94.3891H68.5651V90.7002Z" fill="#E7A54E"/>
<path d="M64.8763 90.7002H61.1874V94.3891H64.8763V90.7002Z" fill="#E5A44E"/>
<path d="M61.1874 90.7002H57.4985V94.3891H61.1874V90.7002Z" fill="#E7A54E"/>
<path d="M57.5015 90.7002H53.8126V94.3891H57.5015V90.7002Z" fill="#E7A54E"/>
<path d="M53.8126 90.7002H50.1238V94.3891H53.8126V90.7002Z" fill="#E6A54E"/>
<path d="M50.1238 90.7002H46.4349V94.3891H50.1238V90.7002Z" fill="#E6A54E"/>
<path d="M46.4379 90.7002H42.749V94.3891H46.4379V90.7002Z" fill="#E7A54E"/>
<path d="M42.749 90.7002H39.0602V94.3891H42.749V90.7002Z" fill="#E7A54E"/>
<path d="M39.0602 90.7002H35.3713V94.3891H39.0602V90.7002Z" fill="#0C6BAC"/>
<path d="M35.3743 90.7002H31.6854V94.3891H35.3743V90.7002Z" fill="#0D6BAC"/>
<path d="M31.6854 90.7002H27.9966V94.3891H31.6854V90.7002Z" fill="#0D6BAC"/>
<path d="M27.9966 90.7002H24.3077V94.3891H27.9966V90.7002Z" fill="#1365A4"/>
<path d="M24.3106 90.7002H20.6218V94.3891H24.3106V90.7002Z" fill="#216198"/>
<path d="M20.6218 90.7002H16.9329V94.3891H20.6218V90.7002Z" fill="#BF4427"/>
<path d="M98.0671 87.0112H94.3783V90.7001H98.0671V87.0112Z" fill="#C94627"/>
<path d="M94.3782 87.0112H90.6894V90.7001H94.3782V87.0112Z" fill="#1C66A0"/>
<path d="M90.6923 87.0112H87.0035V90.7001H90.6923V87.0112Z" fill="#0D6BAC"/>
<path d="M87.0035 87.0112H83.3146V90.7001H87.0035V87.0112Z" fill="#0D6BAC"/>
<path d="M83.3146 87.0112H79.6258V90.7001H83.3146V87.0112Z" fill="#0D6BAC"/>
<path d="M79.6287 87.0112H75.9399V90.7001H79.6287V87.0112Z" fill="#0D6BAC"/>
<path d="M75.9399 87.0112H72.251V90.7001H75.9399V87.0112Z" fill="#EDAC52"/>
<path d="M72.251 87.0112H68.5622V90.7001H72.251V87.0112Z" fill="#ECAB52"/>
<path d="M68.5651 87.0112H64.8763V90.7001H68.5651V87.0112Z" fill="#ECAB52"/>
<path d="M64.8763 87.0112H61.1874V90.7001H64.8763V87.0112Z" fill="#EDAC52"/>
<path d="M61.1874 87.0112H57.4985V90.7001H61.1874V87.0112Z" fill="#EDAB52"/>
<path d="M57.5015 87.0112H53.8126V90.7001H57.5015V87.0112Z" fill="#EDAB52"/>
<path d="M53.8126 87.0112H50.1238V90.7001H53.8126V87.0112Z" fill="#EDAB52"/>
<path d="M50.1238 87.0112H46.4349V90.7001H50.1238V87.0112Z" fill="#EDAC52"/>
<path d="M46.4379 87.0112H42.749V90.7001H46.4379V87.0112Z" fill="#ECAB52"/>
<path d="M42.749 87.0112H39.0602V90.7001H42.749V87.0112Z" fill="#ECAB52"/>
<path d="M39.0602 87.0112H35.3713V90.7001H39.0602V87.0112Z" fill="#0D6BAC"/>
<path d="M35.3743 87.0112H31.6854V90.7001H35.3743V87.0112Z" fill="#0D6BAC"/>
<path d="M31.6854 87.0112H27.9966V90.7001H31.6854V87.0112Z" fill="#0D6BAC"/>
<path d="M27.9966 87.0112H24.3077V90.7001H27.9966V87.0112Z" fill="#0D6BAC"/>
<path d="M24.3106 87.0112H20.6218V90.7001H24.3106V87.0112Z" fill="#1C67A1"/>
<path d="M20.6218 87.0112H16.9329V90.7001H20.6218V87.0112Z" fill="#C84527"/>
<path d="M101.756 83.3223H98.0671V87.0112H101.756V83.3223Z" fill="#C84527"/>
<path d="M98.0671 83.3223H94.3783V87.0112H98.0671V83.3223Z" fill="#E17534"/>
<path d="M94.3782 83.3223H90.6894V87.0112H94.3782V83.3223Z" fill="#1B69A2"/>
<path d="M90.6923 83.3223H87.0035V87.0112H90.6923V83.3223Z" fill="#0D6BAC"/>
<path d="M87.0035 83.3223H83.3146V87.0112H87.0035V83.3223Z" fill="#0D6BAC"/>
<path d="M83.3146 83.3223H79.6258V87.0112H83.3146V83.3223Z" fill="#1C97D4"/>
<path d="M79.6287 83.3223H75.9399V87.0112H79.6287V83.3223Z" fill="#1C97D4"/>
<path d="M75.9399 83.3223H72.251V87.0112H75.9399V83.3223Z" fill="#ECAB52"/>
<path d="M72.251 83.3223H68.5622V87.0112H72.251V83.3223Z" fill="#C94627"/>
<path d="M68.5651 83.3223H64.8763V87.0112H68.5651V83.3223Z" fill="#C94627"/>
<path d="M64.8763 83.3223H61.1874V87.0112H64.8763V83.3223Z" fill="#C94627"/>
<path d="M61.1874 83.3223H57.4985V87.0112H61.1874V83.3223Z" fill="#C94627"/>
<path d="M57.5015 83.3223H53.8126V87.0112H57.5015V83.3223Z" fill="#C94627"/>
<path d="M53.8126 83.3223H50.1238V87.0112H53.8126V83.3223Z" fill="#C94627"/>
<path d="M50.1238 83.3223H46.4349V87.0112H50.1238V83.3223Z" fill="#C94627"/>
<path d="M46.4379 83.3223H42.749V87.0112H46.4379V83.3223Z" fill="#C94627"/>
<path d="M42.749 83.3223H39.0602V87.0112H42.749V83.3223Z" fill="#EDAC52"/>
<path d="M39.0602 83.3223H35.3713V87.0112H39.0602V83.3223Z" fill="#1C97D4"/>
<path d="M35.3743 83.3223H31.6854V87.0112H35.3743V83.3223Z" fill="#1C97D4"/>
<path d="M31.6854 83.3223H27.9966V87.0112H31.6854V83.3223Z" fill="#0D6BAC"/>
<path d="M27.9966 83.3223H24.3077V87.0112H27.9966V83.3223Z" fill="#0D6BAC"/>
<path d="M24.3106 83.3223H20.6218V87.0112H24.3106V83.3223Z" fill="#1B67A1"/>
<path d="M20.6218 83.3223H16.9329V87.0112H20.6218V83.3223Z" fill="#E17534"/>
<path d="M16.9329 83.3223H13.2441V87.0112H16.9329V83.3223Z" fill="#C94627"/>
<path d="M101.756 79.6333H98.0671V83.3222H101.756V79.6333Z" fill="#C84527"/>
<path d="M98.0671 79.6333H94.3783V83.3222H98.0671V79.6333Z" fill="#E17534"/>
<path d="M94.3782 79.6333H90.6894V83.3222H94.3782V79.6333Z" fill="#1B69A2"/>
<path d="M90.6923 79.6333H87.0035V83.3222H90.6923V79.6333Z" fill="#0D6BAC"/>
<path d="M87.0035 79.6333H83.3146V83.3222H87.0035V79.6333Z" fill="#48B2E5"/>
<path d="M83.3146 79.6333H79.6258V83.3222H83.3146V79.6333Z" fill="#1C97D4"/>
<path d="M79.6287 79.6333H75.9399V83.3222H79.6287V79.6333Z" fill="#1C97D4"/>
<path d="M75.9399 79.6333H72.251V83.3222H75.9399V79.6333Z" fill="#ECAB52"/>
<path d="M72.251 79.6333H68.5622V83.3222H72.251V79.6333Z" fill="#C94627"/>
<path d="M68.5651 79.6333H64.8763V83.3222H68.5651V79.6333Z" fill="#C94627"/>
<path d="M64.8763 79.6333H61.1874V83.3222H64.8763V79.6333Z" fill="#C94627"/>
<path d="M61.1874 79.6333H57.4985V83.3222H61.1874V79.6333Z" fill="#C94627"/>
<path d="M57.5015 79.6333H53.8126V83.3222H57.5015V79.6333Z" fill="#C94627"/>
<path d="M53.8126 79.6333H50.1238V83.3222H53.8126V79.6333Z" fill="#C94627"/>
<path d="M50.1238 79.6333H46.4349V83.3222H50.1238V79.6333Z" fill="#C84527"/>
<path d="M46.4379 79.6333H42.749V83.3222H46.4379V79.6333Z" fill="#C94627"/>
<path d="M42.749 79.6333H39.0602V83.3222H42.749V79.6333Z" fill="#EDAC52"/>
<path d="M39.0602 79.6333H35.3713V83.3222H39.0602V79.6333Z" fill="#1C97D4"/>
<path d="M35.3743 79.6333H31.6854V83.3222H35.3743V79.6333Z" fill="#1C97D4"/>
<path d="M31.6854 79.6333H27.9966V83.3222H31.6854V79.6333Z" fill="#48B2E5"/>
<path d="M27.9966 79.6333H24.3077V83.3222H27.9966V79.6333Z" fill="#0D6BAC"/>
<path d="M24.3106 79.6333H20.6218V83.3222H24.3106V79.6333Z" fill="#1B67A1"/>
<path d="M20.6218 79.6333H16.9329V83.3222H20.6218V79.6333Z" fill="#E17534"/>
<path d="M16.9329 79.6333H13.2441V83.3222H16.9329V79.6333Z" fill="#C94627"/>
<path d="M105.442 75.9443H101.753V79.6332H105.442V75.9443Z" fill="#C84527"/>
<path d="M101.756 75.9443H98.0671V79.6332H101.756V75.9443Z" fill="#E17534"/>
<path d="M98.0671 75.9443H94.3783V79.6332H98.0671V75.9443Z" fill="#E17534"/>
<path d="M94.3782 75.9443H90.6894V79.6332H94.3782V75.9443Z" fill="#2392C8"/>
<path d="M90.6923 75.9443H87.0035V79.6332H90.6923V75.9443Z" fill="#1C97D4"/>
<path d="M87.0035 75.9443H83.3146V79.6332H87.0035V75.9443Z" fill="#1C97D4"/>
<path d="M83.3146 75.9443H79.6258V79.6332H83.3146V75.9443Z" fill="#1C97D4"/>
<path d="M79.6287 75.9443H75.9399V79.6332H79.6287V75.9443Z" fill="#1D97D4"/>
<path d="M75.9399 75.9443H72.251V79.6332H75.9399V75.9443Z" fill="#EDAC52"/>
<path d="M72.251 75.9443H68.5622V79.6332H72.251V75.9443Z" fill="#C94627"/>
<path d="M68.5651 75.9443H64.8763V79.6332H68.5651V75.9443Z" fill="#C94627"/>
<path d="M64.8763 75.9443H61.1874V79.6332H64.8763V75.9443Z" fill="#C94627"/>
<path d="M61.1874 75.9443H57.4985V79.6332H61.1874V75.9443Z" fill="#C94627"/>
<path d="M57.5015 75.9443H53.8126V79.6332H57.5015V75.9443Z" fill="#C94627"/>
<path d="M53.8126 75.9443H50.1238V79.6332H53.8126V75.9443Z" fill="#C84527"/>
<path d="M50.1238 75.9443H46.4349V79.6332H50.1238V75.9443Z" fill="#C94627"/>
<path d="M46.4379 75.9443H42.749V79.6332H46.4379V75.9443Z" fill="#C94627"/>
<path d="M42.749 75.9443H39.0602V79.6332H42.749V75.9443Z" fill="#EDAB52"/>
<path d="M39.0602 75.9443H35.3713V79.6332H39.0602V75.9443Z" fill="#1C97D4"/>
<path d="M35.3743 75.9443H31.6854V79.6332H35.3743V75.9443Z" fill="#1C97D4"/>
<path d="M31.6854 75.9443H27.9966V79.6332H31.6854V75.9443Z" fill="#1D97D4"/>
<path d="M27.9966 75.9443H24.3077V79.6332H27.9966V75.9443Z" fill="#1D97D4"/>
<path d="M24.3106 75.9443H20.6218V79.6332H24.3106V75.9443Z" fill="#2692C9"/>
<path d="M20.6218 75.9443H16.9329V79.6332H20.6218V75.9443Z" fill="#E17534"/>
<path d="M16.9329 75.9443H13.2441V79.6332H16.9329V75.9443Z" fill="#E17534"/>
<path d="M13.247 75.9443H9.55817V79.6332H13.247V75.9443Z" fill="#C94627"/>
<path d="M105.442 72.2559H101.753V75.9448H105.442V72.2559Z" fill="#C94627"/>
<path d="M101.756 72.2559H98.0671V75.9448H101.756V72.2559Z" fill="#E17534"/>
<path d="M98.0671 72.2559H94.3783V75.9448H98.0671V72.2559Z" fill="#EDAB52"/>
<path d="M94.3782 72.2559H90.6894V75.9448H94.3782V72.2559Z" fill="#2494C8"/>
<path d="M90.6923 72.2559H87.0035V75.9448H90.6923V72.2559Z" fill="#1C97D4"/>
<path d="M87.0035 72.2559H83.3146V75.9448H87.0035V72.2559Z" fill="#45B2E5"/>
<path d="M83.3146 72.2559H79.6258V75.9448H83.3146V72.2559Z" fill="#1D97D4"/>
<path d="M79.6287 72.2559H75.9399V75.9448H79.6287V72.2559Z" fill="#1C97D4"/>
<path d="M75.9399 72.2559H72.251V75.9448H75.9399V72.2559Z" fill="#EDAB52"/>
<path d="M72.251 72.2559H68.5622V75.9448H72.251V72.2559Z" fill="#C94627"/>
<path d="M68.5651 72.2559H64.8763V75.9448H68.5651V72.2559Z" fill="#C94627"/>
<path d="M64.8763 72.2559H61.1874V75.9448H64.8763V72.2559Z" fill="#C94627"/>
<path d="M61.1874 72.2559H57.4985V75.9448H61.1874V72.2559Z" fill="#C84527"/>
<path d="M57.5015 72.2559H53.8126V75.9448H57.5015V72.2559Z" fill="#C84527"/>
<path d="M53.8126 72.2559H50.1238V75.9448H53.8126V72.2559Z" fill="#C94627"/>
<path d="M50.1238 72.2559H46.4349V75.9448H50.1238V72.2559Z" fill="#C94627"/>
<path d="M46.4379 72.2559H42.749V75.9448H46.4379V72.2559Z" fill="#C94627"/>
<path d="M42.749 72.2559H39.0602V75.9448H42.749V72.2559Z" fill="#EDAB52"/>
<path d="M39.0602 72.2559H35.3713V75.9448H39.0602V72.2559Z" fill="#1C97D4"/>
<path d="M35.3743 72.2559H31.6854V75.9448H35.3743V72.2559Z" fill="#1D97D4"/>
<path d="M31.6854 72.2559H27.9966V75.9448H31.6854V72.2559Z" fill="#48B2E5"/>
<path d="M27.9966 72.2559H24.3077V75.9448H27.9966V72.2559Z" fill="#1C97D4"/>
<path d="M24.3106 72.2559H20.6218V75.9448H24.3106V72.2559Z" fill="#2494C8"/>
<path d="M20.6218 72.2559H16.9329V75.9448H20.6218V72.2559Z" fill="#EDAB52"/>
<path d="M16.9329 72.2559H13.2441V75.9448H16.9329V72.2559Z" fill="#E17534"/>
<path d="M13.247 72.2559H9.55817V75.9448H13.247V72.2559Z" fill="#C94627"/>
<path d="M105.442 68.5669H101.753V72.2558H105.442V68.5669Z" fill="#CF562B"/>
<path d="M101.756 68.5669H98.0671V72.2558H101.756V68.5669Z" fill="#E3853C"/>
<path d="M98.0671 68.5669H94.3783V72.2558H98.0671V68.5669Z" fill="#EDAB52"/>
<path d="M94.3782 68.5669H90.6894V72.2558H94.3782V68.5669Z" fill="#2494CA"/>
<path d="M90.6923 68.5669H87.0035V72.2558H90.6923V68.5669Z" fill="#1D97D4"/>
<path d="M87.0035 68.5669H83.3146V72.2558H87.0035V68.5669Z" fill="#48B2E5"/>
<path d="M83.3146 68.5669H79.6258V72.2558H83.3146V68.5669Z" fill="#1C97D4"/>
<path d="M79.6287 68.5669H75.9399V72.2558H79.6287V68.5669Z" fill="#1C97D4"/>
<path d="M75.9399 68.5669H72.251V72.2558H75.9399V68.5669Z" fill="#EDAB52"/>
<path d="M72.251 68.5669H68.5622V72.2558H72.251V68.5669Z" fill="#C94627"/>
<path d="M68.5651 68.5669H64.8763V72.2558H68.5651V68.5669Z" fill="#C94627"/>
<path d="M64.8763 68.5669H61.1874V72.2558H64.8763V68.5669Z" fill="#C94627"/>
<path d="M61.1874 68.5669H57.4985V72.2558H61.1874V68.5669Z" fill="#C94627"/>
<path d="M57.5015 68.5669H53.8126V72.2558H57.5015V68.5669Z" fill="#C94627"/>
<path d="M53.8126 68.5669H50.1238V72.2558H53.8126V68.5669Z" fill="#C94627"/>
<path d="M50.1238 68.5669H46.4349V72.2558H50.1238V68.5669Z" fill="#C94627"/>
<path d="M46.4379 68.5669H42.749V72.2558H46.4379V68.5669Z" fill="#C94627"/>
<path d="M42.749 68.5669H39.0602V72.2558H42.749V68.5669Z" fill="#EDAC52"/>
<path d="M39.0602 68.5669H35.3713V72.2558H39.0602V68.5669Z" fill="#1D97D4"/>
<path d="M35.3743 68.5669H31.6854V72.2558H35.3743V68.5669Z" fill="#1C97D4"/>
<path d="M31.6854 68.5669H27.9966V72.2558H31.6854V68.5669Z" fill="#48B2E5"/>
<path d="M27.9966 68.5669H24.3077V72.2558H27.9966V68.5669Z" fill="#1C97D4"/>
<path d="M24.3106 68.5669H20.6218V72.2558H24.3106V68.5669Z" fill="#2494C8"/>
<path d="M20.6218 68.5669H16.9329V72.2558H20.6218V68.5669Z" fill="#EDAC52"/>
<path d="M16.9329 68.5669H13.2441V72.2558H16.9329V68.5669Z" fill="#E3853C"/>
<path d="M13.247 68.5669H9.55817V72.2558H13.247V68.5669Z" fill="#CE572A"/>
<path d="M109.131 64.8779H105.442V68.5668H109.131V64.8779Z" fill="#C94627"/>
<path d="M105.442 64.8779H101.753V68.5668H105.442V64.8779Z" fill="#E17534"/>
<path d="M101.756 64.8779H98.0671V68.5668H101.756V64.8779Z" fill="#EDAB52"/>
<path d="M98.0671 64.8779H94.3783V68.5668H98.0671V64.8779Z" fill="#EDAB52"/>
<path d="M94.3782 64.8779H90.6894V68.5668H94.3782V64.8779Z" fill="#2494CA"/>
<path d="M90.6923 64.8779H87.0035V68.5668H90.6923V64.8779Z" fill="#1D97D4"/>
<path d="M87.0035 64.8779H83.3146V68.5668H87.0035V64.8779Z" fill="#48B2E5"/>
<path d="M83.3146 64.8779H79.6258V68.5668H83.3146V64.8779Z" fill="#1C97D4"/>
<path d="M79.6287 64.8779H75.9399V68.5668H79.6287V64.8779Z" fill="#1C97D4"/>
<path d="M75.9399 64.8779H72.251V68.5668H75.9399V64.8779Z" fill="#EDAB52"/>
<path d="M72.251 64.8779H68.5622V68.5668H72.251V64.8779Z" fill="#C94627"/>
<path d="M68.5651 64.8779H64.8763V68.5668H68.5651V64.8779Z" fill="#C94627"/>
<path d="M64.8763 64.8779H61.1874V68.5668H64.8763V64.8779Z" fill="#F5D6BF"/>
<path d="M61.1874 64.8779H57.4985V68.5668H61.1874V64.8779Z" fill="#F6D6BF"/>
<path d="M57.5015 64.8779H53.8126V68.5668H57.5015V64.8779Z" fill="#F6D6BF"/>
<path d="M53.8126 64.8779H50.1238V68.5668H53.8126V64.8779Z" fill="#F6D6BF"/>
<path d="M50.1238 64.8779H46.4349V68.5668H50.1238V64.8779Z" fill="#C94627"/>
<path d="M46.4379 64.8779H42.749V68.5668H46.4379V64.8779Z" fill="#C94627"/>
<path d="M42.749 64.8779H39.0602V68.5668H42.749V64.8779Z" fill="#EDAC52"/>
<path d="M39.0602 64.8779H35.3713V68.5668H39.0602V64.8779Z" fill="#1D97D4"/>
<path d="M35.3743 64.8779H31.6854V68.5668H35.3743V64.8779Z" fill="#1C97D4"/>
<path d="M31.6854 64.8779H27.9966V68.5668H31.6854V64.8779Z" fill="#48B2E5"/>
<path d="M27.9966 64.8779H24.3077V68.5668H27.9966V64.8779Z" fill="#1C97D4"/>
<path d="M24.3106 64.8779H20.6218V68.5668H24.3106V64.8779Z" fill="#2494C8"/>
<path d="M20.6218 64.8779H16.9329V68.5668H20.6218V64.8779Z" fill="#EDAC52"/>
<path d="M16.9329 64.8779H13.2441V68.5668H16.9329V64.8779Z" fill="#EDAC52"/>
<path d="M13.247 64.8779H9.55817V68.5668H13.247V64.8779Z" fill="#E17534"/>
<path d="M9.55817 64.8779H5.86932V68.5668H9.55817V64.8779Z" fill="#C94627"/>
<path d="M109.131 61.189H105.442V64.8779H109.131V61.189Z" fill="#C94627"/>
<path d="M105.442 61.189H101.753V64.8779H105.442V61.189Z" fill="#E17534"/>
<path d="M101.756 61.189H98.0671V64.8779H101.756V61.189Z" fill="#EDAC52"/>
<path d="M98.0671 61.189H94.3783V64.8779H98.0671V61.189Z" fill="#EDAC52"/>
<path d="M94.3782 61.189H90.6894V64.8779H94.3782V61.189Z" fill="#2494C8"/>
<path d="M90.6923 61.189H87.0035V64.8779H90.6923V61.189Z" fill="#1C97D4"/>
<path d="M87.0035 61.189H83.3146V64.8779H87.0035V61.189Z" fill="#48B2E5"/>
<path d="M83.3146 61.189H79.6258V64.8779H83.3146V61.189Z" fill="#1C97D4"/>
<path d="M79.6287 61.189H75.9399V64.8779H79.6287V61.189Z" fill="#1C97D4"/>
<path d="M75.9399 61.189H72.251V64.8779H75.9399V61.189Z" fill="#EDAC52"/>
<path d="M72.251 61.189H68.5622V64.8779H72.251V61.189Z" fill="#ECAB52"/>
<path d="M68.5651 61.189H64.8763V64.8779H68.5651V61.189Z" fill="#E17534"/>
<path d="M64.8763 61.189H61.1874V64.8779H64.8763V61.189Z" fill="#E17534"/>
<path d="M61.1874 61.189H57.4985V64.8779H61.1874V61.189Z" fill="#E17534"/>
<path d="M57.5015 61.189H53.8126V64.8779H57.5015V61.189Z" fill="#E17534"/>
<path d="M53.8126 61.189H50.1238V64.8779H53.8126V61.189Z" fill="#E17534"/>
<path d="M50.1238 61.189H46.4349V64.8779H50.1238V61.189Z" fill="#E17534"/>
<path d="M46.4379 61.189H42.749V64.8779H46.4379V61.189Z" fill="#ECAB52"/>
<path d="M42.749 61.189H39.0602V64.8779H42.749V61.189Z" fill="#ECAB52"/>
<path d="M39.0602 61.189H35.3713V64.8779H39.0602V61.189Z" fill="#1C97D4"/>
<path d="M35.3743 61.189H31.6854V64.8779H35.3743V61.189Z" fill="#1C97D4"/>
<path d="M31.6854 61.189H27.9966V64.8779H31.6854V61.189Z" fill="#48B2E5"/>
<path d="M27.9966 61.189H24.3077V64.8779H27.9966V61.189Z" fill="#1C97D4"/>
<path d="M24.3106 61.189H20.6218V64.8779H24.3106V61.189Z" fill="#2494CA"/>
<path d="M20.6218 61.189H16.9329V64.8779H20.6218V61.189Z" fill="#ECAB52"/>
<path d="M16.9329 61.189H13.2441V64.8779H16.9329V61.189Z" fill="#ECAB52"/>
<path d="M13.247 61.189H9.55817V64.8779H13.247V61.189Z" fill="#E17534"/>
<path d="M9.55817 61.189H5.86932V64.8779H9.55817V61.189Z" fill="#C94627"/>
<path d="M109.131 57.5H105.442V61.1889H109.131V57.5Z" fill="#C94627"/>
<path d="M105.442 57.5H101.753V61.1889H105.442V57.5Z" fill="#EDAC52"/>
<path d="M101.756 57.5H98.0671V61.1889H101.756V57.5Z" fill="#ECAB52"/>
<path d="M98.0671 57.5H94.3783V61.1889H98.0671V57.5Z" fill="#ECAB52"/>
<path d="M94.3782 57.5H90.6894V61.1889H94.3782V57.5Z" fill="#2494CA"/>
<path d="M90.6923 57.5H87.0035V61.1889H90.6923V57.5Z" fill="#1C97D4"/>
<path d="M87.0035 57.5H83.3146V61.1889H87.0035V57.5Z" fill="#48B2E5"/>
<path d="M83.3146 57.5H79.6258V61.1889H83.3146V57.5Z" fill="#1C97D4"/>
<path d="M79.6287 57.5H75.9399V61.1889H79.6287V57.5Z" fill="#1C97D4"/>
<path d="M75.9399 57.5H72.251V61.1889H75.9399V57.5Z" fill="#ECAB52"/>
<path d="M72.251 57.5H68.5622V61.1889H72.251V57.5Z" fill="#EDAC52"/>
<path d="M68.5651 57.5H64.8763V61.1889H68.5651V57.5Z" fill="#EDAC52"/>
<path d="M64.8763 57.5H61.1874V61.1889H64.8763V57.5Z" fill="#EDAB52"/>
<path d="M61.1874 57.5H57.4985V61.1889H61.1874V57.5Z" fill="#EDAB52"/>
<path d="M57.5015 57.5H53.8126V61.1889H57.5015V57.5Z" fill="#EDAB52"/>
<path d="M53.8126 57.5H50.1238V61.1889H53.8126V57.5Z" fill="#EDAC52"/>
<path d="M50.1238 57.5H46.4349V61.1889H50.1238V57.5Z" fill="#ECAB52"/>
<path d="M46.4379 57.5H42.749V61.1889H46.4379V57.5Z" fill="#EDAC52"/>
<path d="M42.749 57.5H39.0602V61.1889H42.749V57.5Z" fill="#EDAC52"/>
<path d="M39.0602 57.5H35.3713V61.1889H39.0602V57.5Z" fill="#1C97D4"/>
<path d="M35.3743 57.5H31.6854V61.1889H35.3743V57.5Z" fill="#1C97D4"/>
<path d="M31.6854 57.5H27.9966V61.1889H31.6854V57.5Z" fill="#48B2E5"/>
<path d="M27.9966 57.5H24.3077V61.1889H27.9966V57.5Z" fill="#1C97D4"/>
<path d="M24.3106 57.5H20.6218V61.1889H24.3106V57.5Z" fill="#2494C8"/>
<path d="M20.6218 57.5H16.9329V61.1889H20.6218V57.5Z" fill="#EDAC52"/>
<path d="M16.9329 57.5H13.2441V61.1889H16.9329V57.5Z" fill="#EDAC52"/>
<path d="M13.247 57.5H9.55817V61.1889H13.247V57.5Z" fill="#EDAB52"/>
<path d="M9.55817 57.5H5.86932V61.1889H9.55817V57.5Z" fill="#C94627"/>
<path d="M109.131 53.811H105.442V57.4999H109.131V53.811Z" fill="#C94627"/>
<path d="M105.442 53.811H101.753V57.4999H105.442V53.811Z" fill="#EDAC52"/>
<path d="M101.756 53.811H98.0671V57.4999H101.756V53.811Z" fill="#ECAB52"/>
<path d="M98.0671 53.811H94.3783V57.4999H98.0671V53.811Z" fill="#ECAB52"/>
<path d="M94.3782 53.811H90.6894V57.4999H94.3782V53.811Z" fill="#2494CA"/>
<path d="M90.6923 53.811H87.0035V57.4999H90.6923V53.811Z" fill="#1C97D4"/>
<path d="M87.0035 53.811H83.3146V57.4999H87.0035V53.811Z" fill="#48B2E5"/>
<path d="M83.3146 53.811H79.6258V57.4999H83.3146V53.811Z" fill="#1C97D4"/>
<path d="M79.6287 53.811H75.9399V57.4999H79.6287V53.811Z" fill="#1C97D4"/>
<path d="M75.9399 53.811H72.251V57.4999H75.9399V53.811Z" fill="#ECAB52"/>
<path d="M72.251 53.811H68.5622V57.4999H72.251V53.811Z" fill="#EDAC52"/>
<path d="M68.5651 53.811H64.8763V57.4999H68.5651V53.811Z" fill="#EDAC52"/>
<path d="M64.8763 53.811H61.1874V57.4999H64.8763V53.811Z" fill="#EDAB52"/>
<path d="M61.1874 53.811H57.4985V57.4999H61.1874V53.811Z" fill="#EDAB52"/>
<path d="M57.5015 53.811H53.8126V57.4999H57.5015V53.811Z" fill="#EDAB52"/>
<path d="M53.8126 53.811H50.1238V57.4999H53.8126V53.811Z" fill="#EDAC52"/>
<path d="M50.1238 53.811H46.4349V57.4999H50.1238V53.811Z" fill="#ECAB52"/>
<path d="M46.4379 53.811H42.749V57.4999H46.4379V53.811Z" fill="#EDAC52"/>
<path d="M42.749 53.811H39.0602V57.4999H42.749V53.811Z" fill="#EDAC52"/>
<path d="M39.0602 53.811H35.3713V57.4999H39.0602V53.811Z" fill="#1C97D4"/>
<path d="M35.3743 53.811H31.6854V57.4999H35.3743V53.811Z" fill="#1C97D4"/>
<path d="M31.6854 53.811H27.9966V57.4999H31.6854V53.811Z" fill="#48B2E5"/>
<path d="M27.9966 53.811H24.3077V57.4999H27.9966V53.811Z" fill="#1C97D4"/>
<path d="M24.3106 53.811H20.6218V57.4999H24.3106V53.811Z" fill="#2494C8"/>
<path d="M20.6218 53.811H16.9329V57.4999H20.6218V53.811Z" fill="#EDAC52"/>
<path d="M16.9329 53.811H13.2441V57.4999H16.9329V53.811Z" fill="#EDAC52"/>
<path d="M13.247 53.811H9.55817V57.4999H13.247V53.811Z" fill="#EDAB52"/>
<path d="M9.55817 53.811H5.86932V57.4999H9.55817V53.811Z" fill="#C94627"/>
<path d="M109.131 50.1221H105.442V53.811H109.131V50.1221Z" fill="#E17534"/>
<path d="M105.442 50.1221H101.753V53.811H105.442V50.1221Z" fill="#ECAB52"/>
<path d="M101.756 50.1221H98.0671V53.811H101.756V50.1221Z" fill="#EDAC52"/>
<path d="M98.0671 50.1221H94.3783V53.811H98.0671V50.1221Z" fill="#EDAC52"/>
<path d="M94.3782 50.1221H90.6894V53.811H94.3782V50.1221Z" fill="#C34527"/>
<path d="M90.6923 50.1221H87.0035V53.811H90.6923V50.1221Z" fill="#C94627"/>
<path d="M87.0035 50.1221H83.3146V53.811H87.0035V50.1221Z" fill="#C94627"/>
<path d="M83.3146 50.1221H79.6258V53.811H83.3146V50.1221Z" fill="#48B2E5"/>
<path d="M79.6287 50.1221H75.9399V53.811H79.6287V50.1221Z" fill="#1D97D4"/>
<path d="M75.9399 50.1221H72.251V53.811H75.9399V50.1221Z" fill="#EDAC52"/>
<path d="M72.251 50.1221H68.5622V53.811H72.251V50.1221Z" fill="#EDAB52"/>
<path d="M68.5651 50.1221H64.8763V53.811H68.5651V50.1221Z" fill="#EDAB52"/>
<path d="M64.8763 50.1221H61.1874V53.811H64.8763V50.1221Z" fill="#EDAB52"/>
<path d="M61.1874 50.1221H57.4985V53.811H61.1874V50.1221Z" fill="#EDAC52"/>
<path d="M57.5015 50.1221H53.8126V53.811H57.5015V50.1221Z" fill="#EDAC52"/>
<path d="M53.8126 50.1221H50.1238V53.811H53.8126V50.1221Z" fill="#ECAB52"/>
<path d="M50.1238 50.1221H46.4349V53.811H50.1238V50.1221Z" fill="#EDAC52"/>
<path d="M46.4379 50.1221H42.749V53.811H46.4379V50.1221Z" fill="#EDAB52"/>
<path d="M42.749 50.1221H39.0602V53.811H42.749V50.1221Z" fill="#EDAB52"/>
<path d="M39.0602 50.1221H35.3713V53.811H39.0602V50.1221Z" fill="#1C97D4"/>
<path d="M35.3743 50.1221H31.6854V53.811H35.3743V50.1221Z" fill="#48B2E5"/>
<path d="M31.6854 50.1221H27.9966V53.811H31.6854V50.1221Z" fill="#C84527"/>
<path d="M27.9966 50.1221H24.3077V53.811H27.9966V50.1221Z" fill="#C84527"/>
<path d="M24.3106 50.1221H20.6218V53.811H24.3106V50.1221Z" fill="#C44527"/>
<path d="M20.6218 50.1221H16.9329V53.811H20.6218V50.1221Z" fill="#EDAB52"/>
<path d="M16.9329 50.1221H13.2441V53.811H16.9329V50.1221Z" fill="#EDAB52"/>
<path d="M13.247 50.1221H9.55817V53.811H13.247V50.1221Z" fill="#EDAB52"/>
<path d="M9.55817 50.1221H5.86932V53.811H9.55817V50.1221Z" fill="#E17534"/>
<path d="M109.131 46.4336H105.442V50.1225H109.131V46.4336Z" fill="#E17534"/>
<path d="M105.442 46.4336H101.753V50.1225H105.442V46.4336Z" fill="#EDAC52"/>
<path d="M101.756 46.4336H98.0671V50.1225H101.756V46.4336Z" fill="#EDAB52"/>
<path d="M98.0671 46.4336H94.3783V50.1225H98.0671V46.4336Z" fill="#EDAB52"/>
<path d="M94.3782 46.4336H90.6894V50.1225H94.3782V46.4336Z" fill="#C94627"/>
<path d="M90.6923 46.4336H87.0035V50.1225H90.6923V46.4336Z" fill="#C94627"/>
<path d="M87.0035 46.4336H83.3146V50.1225H87.0035V46.4336Z" fill="#C84527"/>
<path d="M83.3146 46.4336H79.6258V50.1225H83.3146V46.4336Z" fill="#C94627"/>
<path d="M79.6287 46.4336H75.9399V50.1225H79.6287V46.4336Z" fill="#C94627"/>
<path d="M75.9399 46.4336H72.251V50.1225H75.9399V46.4336Z" fill="#C94627"/>
<path d="M72.251 46.4336H68.5622V50.1225H72.251V46.4336Z" fill="#C94627"/>
<path d="M68.5651 46.4336H64.8763V50.1225H68.5651V46.4336Z" fill="#C94627"/>
<path d="M64.8763 46.4336H61.1874V50.1225H64.8763V46.4336Z" fill="#EDAC52"/>
<path d="M61.1874 46.4336H57.4985V50.1225H61.1874V46.4336Z" fill="#ECAB52"/>
<path d="M57.5015 46.4336H53.8126V50.1225H57.5015V46.4336Z" fill="#ECAB52"/>
<path d="M53.8126 46.4336H50.1238V50.1225H53.8126V46.4336Z" fill="#EDAC52"/>
<path d="M50.1238 46.4336H46.4349V50.1225H50.1238V46.4336Z" fill="#C94627"/>
<path d="M46.4379 46.4336H42.749V50.1225H46.4379V46.4336Z" fill="#C94627"/>
<path d="M42.749 46.4336H39.0602V50.1225H42.749V46.4336Z" fill="#C94627"/>
<path d="M39.0602 46.4336H35.3713V50.1225H39.0602V46.4336Z" fill="#C94627"/>
<path d="M35.3743 46.4336H31.6854V50.1225H35.3743V46.4336Z" fill="#C94627"/>
<path d="M31.6854 46.4336H27.9966V50.1225H31.6854V46.4336Z" fill="#C94627"/>
<path d="M27.9966 46.4336H24.3077V50.1225H27.9966V46.4336Z" fill="#C94627"/>
<path d="M24.3106 46.4336H20.6218V50.1225H24.3106V46.4336Z" fill="#C94627"/>
<path d="M20.6218 46.4336H16.9329V50.1225H20.6218V46.4336Z" fill="#EDAB52"/>
<path d="M16.9329 46.4336H13.2441V50.1225H16.9329V46.4336Z" fill="#EDAB52"/>
<path d="M13.247 46.4336H9.55817V50.1225H13.247V46.4336Z" fill="#EDAC52"/>
<path d="M9.55817 46.4336H5.86932V50.1225H9.55817V46.4336Z" fill="#E17534"/>
<path d="M109.131 42.7446H105.442V46.4335H109.131V42.7446Z" fill="#E17534"/>
<path d="M105.442 42.7446H101.753V46.4335H105.442V42.7446Z" fill="#EDAB52"/>
<path d="M101.756 42.7446H98.0671V46.4335H101.756V42.7446Z" fill="#EDAB52"/>
<path d="M98.0671 42.7446H94.3783V46.4335H98.0671V42.7446Z" fill="#EDAB52"/>
<path d="M94.3782 42.7446H90.6894V46.4335H94.3782V42.7446Z" fill="#EDAC52"/>
<path d="M90.6923 42.7446H87.0035V46.4335H90.6923V42.7446Z" fill="#EDAC52"/>
<path d="M87.0035 42.7446H83.3146V46.4335H87.0035V42.7446Z" fill="#C94627"/>
<path d="M83.3146 42.7446H79.6258V46.4335H83.3146V42.7446Z" fill="#C94627"/>
<path d="M79.6287 42.7446H75.9399V46.4335H79.6287V42.7446Z" fill="#C94627"/>
<path d="M75.9399 42.7446H72.251V46.4335H75.9399V42.7446Z" fill="#C94627"/>
<path d="M72.251 42.7446H68.5622V46.4335H72.251V42.7446Z" fill="#C94627"/>
<path d="M68.5651 42.7446H64.8763V46.4335H68.5651V42.7446Z" fill="#C94627"/>
<path d="M64.8763 42.7446H61.1874V46.4335H64.8763V42.7446Z" fill="#ECAB52"/>
<path d="M61.1874 42.7446H57.4985V46.4335H61.1874V42.7446Z" fill="#EDAC52"/>
<path d="M57.5015 42.7446H53.8126V46.4335H57.5015V42.7446Z" fill="#EDAC52"/>
<path d="M53.8126 42.7446H50.1238V46.4335H53.8126V42.7446Z" fill="#EDAB52"/>
<path d="M50.1238 42.7446H46.4349V46.4335H50.1238V42.7446Z" fill="#C94627"/>
<path d="M46.4379 42.7446H42.749V46.4335H46.4379V42.7446Z" fill="#C94627"/>
<path d="M42.749 42.7446H39.0602V46.4335H42.749V42.7446Z" fill="#C94627"/>
<path d="M39.0602 42.7446H35.3713V46.4335H39.0602V42.7446Z" fill="#C84527"/>
<path d="M35.3743 42.7446H31.6854V46.4335H35.3743V42.7446Z" fill="#C94627"/>
<path d="M31.6854 42.7446H27.9966V46.4335H31.6854V42.7446Z" fill="#C94627"/>
<path d="M27.9966 42.7446H24.3077V46.4335H27.9966V42.7446Z" fill="#EDAC52"/>
<path d="M24.3106 42.7446H20.6218V46.4335H24.3106V42.7446Z" fill="#EDAC52"/>
<path d="M20.6218 42.7446H16.9329V46.4335H20.6218V42.7446Z" fill="#EDAC52"/>
<path d="M16.9329 42.7446H13.2441V46.4335H16.9329V42.7446Z" fill="#EDAC52"/>
<path d="M13.247 42.7446H9.55817V46.4335H13.247V42.7446Z" fill="#ECAB52"/>
<path d="M9.55817 42.7446H5.86932V46.4335H9.55817V42.7446Z" fill="#E17534"/>
<path d="M105.442 39.0557H101.753V42.7446H105.442V39.0557Z" fill="#E17534"/>
<path d="M101.756 39.0557H98.0671V42.7446H101.756V39.0557Z" fill="#EDAB52"/>
<path d="M98.0671 39.0557H94.3783V42.7446H98.0671V39.0557Z" fill="#C94627"/>
<path d="M94.3782 39.0557H90.6894V42.7446H94.3782V39.0557Z" fill="#E5A24E"/>
<path d="M90.6923 39.0557H87.0035V42.7446H90.6923V39.0557Z" fill="#ECAB52"/>
<path d="M87.0035 39.0557H83.3146V42.7446H87.0035V39.0557Z" fill="#EDAC52"/>
<path d="M83.3146 39.0557H79.6258V42.7446H83.3146V39.0557Z" fill="#C94627"/>
<path d="M79.6287 39.0557H75.9399V42.7446H79.6287V39.0557Z" fill="#C94627"/>
<path d="M75.9399 39.0557H72.251V42.7446H75.9399V39.0557Z" fill="#C94627"/>
<path d="M72.251 39.0557H68.5622V42.7446H72.251V39.0557Z" fill="#EDAC52"/>
<path d="M68.5651 39.0557H64.8763V42.7446H68.5651V39.0557Z" fill="#EDAC52"/>
<path d="M64.8763 39.0557H61.1874V42.7446H64.8763V39.0557Z" fill="#ECAB52"/>
<path d="M61.1874 39.0557H57.4985V42.7446H61.1874V39.0557Z" fill="#EDAC52"/>
<path d="M57.5015 39.0557H53.8126V42.7446H57.5015V39.0557Z" fill="#EDAC52"/>
<path d="M53.8126 39.0557H50.1238V42.7446H53.8126V39.0557Z" fill="#EDAB52"/>
<path d="M50.1238 39.0557H46.4349V42.7446H50.1238V39.0557Z" fill="#EDAC52"/>
<path d="M46.4379 39.0557H42.749V42.7446H46.4379V39.0557Z" fill="#EDAC52"/>
<path d="M42.749 39.0557H39.0602V42.7446H42.749V39.0557Z" fill="#C94627"/>
<path d="M39.0602 39.0557H35.3713V42.7446H39.0602V39.0557Z" fill="#C84527"/>
<path d="M35.3743 39.0557H31.6854V42.7446H35.3743V39.0557Z" fill="#C94627"/>
<path d="M31.6854 39.0557H27.9966V42.7446H31.6854V39.0557Z" fill="#EDAC52"/>
<path d="M27.9966 39.0557H24.3077V42.7446H27.9966V39.0557Z" fill="#EDAB52"/>
<path d="M24.3106 39.0557H20.6218V42.7446H24.3106V39.0557Z" fill="#E5A24E"/>
<path d="M20.6218 39.0557H16.9329V42.7446H20.6218V39.0557Z" fill="#C94627"/>
<path d="M16.9329 39.0557H13.2441V42.7446H16.9329V39.0557Z" fill="#EDAC52"/>
<path d="M13.247 39.0557H9.55817V42.7446H13.247V39.0557Z" fill="#E17534"/>
<path d="M105.442 35.3667H101.753V39.0556H105.442V35.3667Z" fill="#E17534"/>
<path d="M101.756 35.3667H98.0671V39.0556H101.756V35.3667Z" fill="#E17534"/>
<path d="M98.0671 35.3667H94.3783V39.0556H98.0671V35.3667Z" fill="#C94627"/>
<path d="M94.3782 35.3667H90.6894V39.0556H94.3782V35.3667Z" fill="#E5A14D"/>
<path d="M90.6923 35.3667H87.0035V39.0556H90.6923V35.3667Z" fill="#EDAC52"/>
<path d="M87.0035 35.3667H83.3146V39.0556H87.0035V35.3667Z" fill="#EDAB52"/>
<path d="M83.3146 35.3667H79.6258V39.0556H83.3146V35.3667Z" fill="#EDAB52"/>
<path d="M79.6287 35.3667H75.9399V39.0556H79.6287V35.3667Z" fill="#EDAB52"/>
<path d="M75.9399 35.3667H72.251V39.0556H75.9399V35.3667Z" fill="#EDAC52"/>
<path d="M72.251 35.3667H68.5622V39.0556H72.251V35.3667Z" fill="#ECAB52"/>
<path d="M68.5651 35.3667H64.8763V39.0556H68.5651V35.3667Z" fill="#ECAB52"/>
<path d="M64.8763 35.3667H61.1874V39.0556H64.8763V35.3667Z" fill="#EDAC52"/>
<path d="M61.1874 35.3667H57.4985V39.0556H61.1874V35.3667Z" fill="#EDAB52"/>
<path d="M57.5015 35.3667H53.8126V39.0556H57.5015V35.3667Z" fill="#EDAB52"/>
<path d="M53.8126 35.3667H50.1238V39.0556H53.8126V35.3667Z" fill="#EDAB52"/>
<path d="M50.1238 35.3667H46.4349V39.0556H50.1238V35.3667Z" fill="#EDAC52"/>
<path d="M46.4379 35.3667H42.749V39.0556H46.4379V35.3667Z" fill="#ECAB52"/>
<path d="M42.749 35.3667H39.0602V39.0556H42.749V35.3667Z" fill="#ECAB52"/>
<path d="M39.0602 35.3667H35.3713V39.0556H39.0602V35.3667Z" fill="#EDAC52"/>
<path d="M35.3743 35.3667H31.6854V39.0556H35.3743V35.3667Z" fill="#EDAB52"/>
<path d="M31.6854 35.3667H27.9966V39.0556H31.6854V35.3667Z" fill="#EDAB52"/>
<path d="M27.9966 35.3667H24.3077V39.0556H27.9966V35.3667Z" fill="#EDAB52"/>
<path d="M24.3106 35.3667H20.6218V39.0556H24.3106V35.3667Z" fill="#E5A24E"/>
<path d="M20.6218 35.3667H16.9329V39.0556H20.6218V35.3667Z" fill="#C84527"/>
<path d="M16.9329 35.3667H13.2441V39.0556H16.9329V35.3667Z" fill="#E17534"/>
<path d="M13.247 35.3667H9.55817V39.0556H13.247V35.3667Z" fill="#E17534"/>
<path d="M101.756 31.6777H98.0671V35.3666H101.756V31.6777Z" fill="#E17534"/>
<path d="M98.0671 31.6777H94.3783V35.3666H98.0671V31.6777Z" fill="#EDAB52"/>
<path d="M94.3782 31.6777H90.6894V35.3666H94.3782V31.6777Z" fill="#C34427"/>
<path d="M90.6923 31.6777H87.0035V35.3666H90.6923V31.6777Z" fill="#C94627"/>
<path d="M87.0035 31.6777H83.3146V35.3666H87.0035V31.6777Z" fill="#EDAB52"/>
<path d="M83.3146 31.6777H79.6258V35.3666H83.3146V31.6777Z" fill="#EDAB52"/>
<path d="M79.6287 31.6777H75.9399V35.3666H79.6287V31.6777Z" fill="#EDAC52"/>
<path d="M75.9399 31.6777H72.251V35.3666H75.9399V31.6777Z" fill="#ECAB52"/>
<path d="M72.251 31.6777H68.5622V35.3666H72.251V31.6777Z" fill="#EDAC52"/>
<path d="M68.5651 31.6777H64.8763V35.3666H68.5651V31.6777Z" fill="#EDAC52"/>
<path d="M64.8763 31.6777H61.1874V35.3666H64.8763V31.6777Z" fill="#EDAB52"/>
<path d="M61.1874 31.6777H57.4985V35.3666H61.1874V31.6777Z" fill="#EDAB52"/>
<path d="M57.5015 31.6777H53.8126V35.3666H57.5015V31.6777Z" fill="#EDAB52"/>
<path d="M53.8126 31.6777H50.1238V35.3666H53.8126V31.6777Z" fill="#EDAC52"/>
<path d="M50.1238 31.6777H46.4349V35.3666H50.1238V31.6777Z" fill="#ECAB52"/>
<path d="M46.4379 31.6777H42.749V35.3666H46.4379V31.6777Z" fill="#EDAC52"/>
<path d="M42.749 31.6777H39.0602V35.3666H42.749V31.6777Z" fill="#EDAC52"/>
<path d="M39.0602 31.6777H35.3713V35.3666H39.0602V31.6777Z" fill="#EDAB52"/>
<path d="M35.3743 31.6777H31.6854V35.3666H35.3743V31.6777Z" fill="#EDAB52"/>
<path d="M31.6854 31.6777H27.9966V35.3666H31.6854V31.6777Z" fill="#EDAC52"/>
<path d="M27.9966 31.6777H24.3077V35.3666H27.9966V31.6777Z" fill="#C94627"/>
<path d="M24.3106 31.6777H20.6218V35.3666H24.3106V31.6777Z" fill="#C34527"/>
<path d="M20.6218 31.6777H16.9329V35.3666H20.6218V31.6777Z" fill="#EDAB52"/>
<path d="M16.9329 31.6777H13.2441V35.3666H16.9329V31.6777Z" fill="#E17534"/>
<path d="M101.756 27.9888H98.0671V31.6777H101.756V27.9888Z" fill="#E17534"/>
<path d="M98.0671 27.9888H94.3783V31.6777H98.0671V27.9888Z" fill="#EDAC52"/>
<path d="M94.3782 27.9888H90.6894V31.6777H94.3782V27.9888Z" fill="#EDAB52"/>
<path d="M90.6923 27.9888H87.0035V31.6777H90.6923V27.9888Z" fill="#EDAB52"/>
<path d="M87.0035 27.9888H83.3146V31.6777H87.0035V27.9888Z" fill="#C94627"/>
<path d="M83.3146 27.9888H79.6258V31.6777H83.3146V27.9888Z" fill="#C94627"/>
<path d="M79.6287 27.9888H75.9399V31.6777H79.6287V27.9888Z" fill="#ECAB52"/>
<path d="M75.9399 27.9888H72.251V31.6777H75.9399V27.9888Z" fill="#EDAC52"/>
<path d="M72.251 27.9888H68.5622V31.6777H72.251V27.9888Z" fill="#EDAB52"/>
<path d="M68.5651 27.9888H64.8763V31.6777H68.5651V27.9888Z" fill="#EDAB52"/>
<path d="M64.8763 27.9888H61.1874V31.6777H64.8763V27.9888Z" fill="#EDAB52"/>
<path d="M61.1874 27.9888H57.4985V31.6777H61.1874V27.9888Z" fill="#EDAC52"/>
<path d="M57.5015 27.9888H53.8126V31.6777H57.5015V27.9888Z" fill="#EDAC52"/>
<path d="M53.8126 27.9888H50.1238V31.6777H53.8126V27.9888Z" fill="#ECAB52"/>
<path d="M50.1238 27.9888H46.4349V31.6777H50.1238V27.9888Z" fill="#EDAC52"/>
<path d="M46.4379 27.9888H42.749V31.6777H46.4379V27.9888Z" fill="#EDAB52"/>
<path d="M42.749 27.9888H39.0602V31.6777H42.749V27.9888Z" fill="#EDAB52"/>
<path d="M39.0602 27.9888H35.3713V31.6777H39.0602V27.9888Z" fill="#EDAB52"/>
<path d="M35.3743 27.9888H31.6854V31.6777H35.3743V27.9888Z" fill="#C94627"/>
<path d="M31.6854 27.9888H27.9966V31.6777H31.6854V27.9888Z" fill="#C84527"/>
<path d="M27.9966 27.9888H24.3077V31.6777H27.9966V27.9888Z" fill="#EDAB52"/>
<path d="M24.3106 27.9888H20.6218V31.6777H24.3106V27.9888Z" fill="#EDAB52"/>
<path d="M20.6218 27.9888H16.9329V31.6777H20.6218V27.9888Z" fill="#EDAB52"/>
<path d="M16.9329 27.9888H13.2441V31.6777H16.9329V27.9888Z" fill="#E17534"/>
<path d="M98.0671 24.2998H94.3783V27.9887H98.0671V24.2998Z" fill="#E17534"/>
<path d="M94.3782 24.2998H90.6894V27.9887H94.3782V24.2998Z" fill="#E6A54E"/>
<path d="M90.6923 24.2998H87.0035V27.9887H90.6923V24.2998Z" fill="#EDAB52"/>
<path d="M87.0035 24.2998H83.3146V27.9887H87.0035V24.2998Z" fill="#EDAC52"/>
<path d="M83.3146 24.2998H79.6258V27.9887H83.3146V24.2998Z" fill="#EDAC52"/>
<path d="M79.6287 24.2998H75.9399V27.9887H79.6287V24.2998Z" fill="#ECAB52"/>
<path d="M75.9399 24.2998H72.251V27.9887H75.9399V24.2998Z" fill="#EDAC52"/>
<path d="M72.251 24.2998H68.5622V27.9887H72.251V24.2998Z" fill="#EDAB52"/>
<path d="M68.5651 24.2998H64.8763V27.9887H68.5651V24.2998Z" fill="#EDAB52"/>
<path d="M64.8763 24.2998H61.1874V27.9887H64.8763V24.2998Z" fill="#EDAB52"/>
<path d="M61.1874 24.2998H57.4985V27.9887H61.1874V24.2998Z" fill="#EDAC52"/>
<path d="M57.5015 24.2998H53.8126V27.9887H57.5015V24.2998Z" fill="#EDAC52"/>
<path d="M53.8126 24.2998H50.1238V27.9887H53.8126V24.2998Z" fill="#ECAB52"/>
<path d="M50.1238 24.2998H46.4349V27.9887H50.1238V24.2998Z" fill="#EDAC52"/>
<path d="M46.4379 24.2998H42.749V27.9887H46.4379V24.2998Z" fill="#EDAB52"/>
<path d="M42.749 24.2998H39.0602V27.9887H42.749V24.2998Z" fill="#EDAB52"/>
<path d="M39.0602 24.2998H35.3713V27.9887H39.0602V24.2998Z" fill="#EDAB52"/>
<path d="M35.3743 24.2998H31.6854V27.9887H35.3743V24.2998Z" fill="#EDAC52"/>
<path d="M31.6854 24.2998H27.9966V27.9887H31.6854V24.2998Z" fill="#ECAB52"/>
<path d="M27.9966 24.2998H24.3077V27.9887H27.9966V24.2998Z" fill="#ECAB52"/>
<path d="M24.3106 24.2998H20.6218V27.9887H24.3106V24.2998Z" fill="#E7A54E"/>
<path d="M20.6218 24.2998H16.9329V27.9887H20.6218V24.2998Z" fill="#E17534"/>
<path d="M98.0671 20.6108H94.3783V24.2997H98.0671V20.6108Z" fill="#D77035"/>
<path d="M94.3782 20.6108H90.6894V24.2997H94.3782V20.6108Z" fill="#E09D49"/>
<path d="M90.6923 20.6108H87.0035V24.2997H90.6923V20.6108Z" fill="#E7A54E"/>
<path d="M87.0035 20.6108H83.3146V24.2997H87.0035V20.6108Z" fill="#ECAB52"/>
<path d="M83.3146 20.6108H79.6258V24.2997H83.3146V20.6108Z" fill="#ECAB52"/>
<path d="M79.6287 20.6108H75.9399V24.2997H79.6287V20.6108Z" fill="#EDAC52"/>
<path d="M75.9399 20.6108H72.251V24.2997H75.9399V20.6108Z" fill="#EDAB52"/>
<path d="M72.251 20.6108H68.5622V24.2997H72.251V20.6108Z" fill="#EDAB52"/>
<path d="M68.5651 20.6108H64.8763V24.2997H68.5651V20.6108Z" fill="#EDAB52"/>
<path d="M64.8763 20.6108H61.1874V24.2997H64.8763V20.6108Z" fill="#EDAC52"/>
<path d="M61.1874 20.6108H57.4985V24.2997H61.1874V20.6108Z" fill="#ECAB52"/>
<path d="M57.5015 20.6108H53.8126V24.2997H57.5015V20.6108Z" fill="#ECAB52"/>
<path d="M53.8126 20.6108H50.1238V24.2997H53.8126V20.6108Z" fill="#EDAC52"/>
<path d="M50.1238 20.6108H46.4349V24.2997H50.1238V20.6108Z" fill="#EDAB52"/>
<path d="M46.4379 20.6108H42.749V24.2997H46.4379V20.6108Z" fill="#EDAB52"/>
<path d="M42.749 20.6108H39.0602V24.2997H42.749V20.6108Z" fill="#EDAB52"/>
<path d="M39.0602 20.6108H35.3713V24.2997H39.0602V20.6108Z" fill="#EDAC52"/>
<path d="M35.3743 20.6108H31.6854V24.2997H35.3743V20.6108Z" fill="#ECAB52"/>
<path d="M31.6854 20.6108H27.9966V24.2997H31.6854V20.6108Z" fill="#EDAC52"/>
<path d="M27.9966 20.6108H24.3077V24.2997H27.9966V20.6108Z" fill="#E7A54E"/>
<path d="M24.3106 20.6108H20.6218V24.2997H24.3106V20.6108Z" fill="#DE9D49"/>
<path d="M20.6218 20.6108H16.9329V24.2997H20.6218V20.6108Z" fill="#D77035"/>
<path d="M94.3782 16.9224H90.6894V20.6113H94.3782V16.9224Z" fill="#D87033"/>
<path d="M90.6923 16.9224H87.0035V20.6113H90.6923V16.9224Z" fill="#E17534"/>
<path d="M87.0035 16.9224H83.3146V20.6113H87.0035V16.9224Z" fill="#EDAC52"/>
<path d="M83.3146 16.9224H79.6258V20.6113H83.3146V16.9224Z" fill="#EDAC52"/>
<path d="M79.6287 16.9224H75.9399V20.6113H79.6287V16.9224Z" fill="#EDAB52"/>
<path d="M75.9399 16.9224H72.251V20.6113H75.9399V16.9224Z" fill="#EDAB52"/>
<path d="M72.251 16.9224H68.5622V20.6113H72.251V16.9224Z" fill="#EDAC52"/>
<path d="M68.5651 16.9224H64.8763V20.6113H68.5651V16.9224Z" fill="#EDAC52"/>
<path d="M64.8763 16.9224H61.1874V20.6113H64.8763V16.9224Z" fill="#ECAB52"/>
<path d="M61.1874 16.9224H57.4985V20.6113H61.1874V16.9224Z" fill="#EDAC52"/>
<path d="M57.5015 16.9224H53.8126V20.6113H57.5015V16.9224Z" fill="#EDAC52"/>
<path d="M53.8126 16.9224H50.1238V20.6113H53.8126V16.9224Z" fill="#EDAB52"/>
<path d="M50.1238 16.9224H46.4349V20.6113H50.1238V16.9224Z" fill="#EDAB52"/>
<path d="M46.4379 16.9224H42.749V20.6113H46.4379V16.9224Z" fill="#EDAC52"/>
<path d="M42.749 16.9224H39.0602V20.6113H42.749V16.9224Z" fill="#EDAC52"/>
<path d="M39.0602 16.9224H35.3713V20.6113H39.0602V16.9224Z" fill="#ECAB52"/>
<path d="M35.3743 16.9224H31.6854V20.6113H35.3743V16.9224Z" fill="#EDAC52"/>
<path d="M31.6854 16.9224H27.9966V20.6113H31.6854V16.9224Z" fill="#EDAB52"/>
<path d="M27.9966 16.9224H24.3077V20.6113H27.9966V16.9224Z" fill="#E17534"/>
<path d="M24.3106 16.9224H20.6218V20.6113H24.3106V16.9224Z" fill="#D77035"/>
<path d="M87.0035 13.2334H83.3146V16.9223H87.0035V13.2334Z" fill="#E17534"/>
<path d="M83.3146 13.2334H79.6258V16.9223H83.3146V13.2334Z" fill="#E17534"/>
<path d="M79.6287 13.2334H75.9399V16.9223H79.6287V13.2334Z" fill="#EDAB52"/>
<path d="M75.9399 13.2334H72.251V16.9223H75.9399V13.2334Z" fill="#EDAB52"/>
<path d="M72.251 13.2334H68.5622V16.9223H72.251V13.2334Z" fill="#EDAC52"/>
<path d="M68.5651 13.2334H64.8763V16.9223H68.5651V13.2334Z" fill="#EDAC52"/>
<path d="M64.8763 13.2334H61.1874V16.9223H64.8763V13.2334Z" fill="#ECAB52"/>
<path d="M61.1874 13.2334H57.4985V16.9223H61.1874V13.2334Z" fill="#EDAC52"/>
<path d="M57.5015 13.2334H53.8126V16.9223H57.5015V13.2334Z" fill="#EDAC52"/>
<path d="M53.8126 13.2334H50.1238V16.9223H53.8126V13.2334Z" fill="#EDAB52"/>
<path d="M50.1238 13.2334H46.4349V16.9223H50.1238V13.2334Z" fill="#EDAB52"/>
<path d="M46.4379 13.2334H42.749V16.9223H46.4379V13.2334Z" fill="#EDAC52"/>
<path d="M42.749 13.2334H39.0602V16.9223H42.749V13.2334Z" fill="#EDAC52"/>
<path d="M39.0602 13.2334H35.3713V16.9223H39.0602V13.2334Z" fill="#ECAB52"/>
<path d="M35.3743 13.2334H31.6854V16.9223H35.3743V13.2334Z" fill="#E17534"/>
<path d="M31.6854 13.2334H27.9966V16.9223H31.6854V13.2334Z" fill="#E17534"/>
<path d="M79.6287 9.54443H75.9399V13.2333H79.6287V9.54443Z" fill="#E17534"/>
<path d="M75.9399 9.54443H72.251V13.2333H75.9399V9.54443Z" fill="#E17534"/>
<path d="M72.251 9.54443H68.5622V13.2333H72.251V9.54443Z" fill="#E2853C"/>
<path d="M68.5651 9.54443H64.8763V13.2333H68.5651V9.54443Z" fill="#ECAB52"/>
<path d="M64.8763 9.54443H61.1874V13.2333H64.8763V9.54443Z" fill="#EDAC52"/>
<path d="M61.1874 9.54443H57.4985V13.2333H61.1874V9.54443Z" fill="#EDAB52"/>
<path d="M57.5015 9.54443H53.8126V13.2333H57.5015V9.54443Z" fill="#EDAB52"/>
<path d="M53.8126 9.54443H50.1238V13.2333H53.8126V9.54443Z" fill="#EDAB52"/>
<path d="M50.1238 9.54443H46.4349V13.2333H50.1238V9.54443Z" fill="#EDAC52"/>
<path d="M46.4379 9.54443H42.749V13.2333H46.4379V9.54443Z" fill="#ECAB52"/>
<path d="M42.749 9.54443H39.0602V13.2333H42.749V9.54443Z" fill="#E17534"/>
<path d="M39.0602 9.54443H35.3713V13.2333H39.0602V9.54443Z" fill="#E17534"/>
<path d="M72.251 5.85547H68.5622V9.54437H72.251V5.85547Z" fill="#E17534"/>
<path d="M68.5651 5.85547H64.8763V9.54437H68.5651V5.85547Z" fill="#E17534"/>
<path d="M64.8763 5.85547H61.1874V9.54437H64.8763V5.85547Z" fill="#E17534"/>
<path d="M61.1874 5.85547H57.4985V9.54437H61.1874V5.85547Z" fill="#E17534"/>
<path d="M57.5015 5.85547H53.8126V9.54437H57.5015V5.85547Z" fill="#E17534"/>
<path d="M53.8126 5.85547H50.1238V9.54437H53.8126V5.85547Z" fill="#E17534"/>
<path d="M50.1238 5.85547H46.4349V9.54437H50.1238V5.85547Z" fill="#E17534"/>
<path d="M46.4379 5.85547H42.749V9.54437H46.4379V5.85547Z" fill="#E17534"/>
</g>
<defs>
<clipPath id="clip0_1013_5937">
<rect width="115" height="115" fill="white"/>
</clipPath>
</defs>
</svg>
