<svg width="95" height="96" viewBox="0 0 95 96" fill="none" xmlns="http://www.w3.org/2000/svg">
<g clip-path="url(#clip0_1013_5937)">
<path d="M30.4658 96V92.9206H24.3712V89.8411H18.279V86.7617H12.1868V83.6823H9.13951V77.5234H6.0922V71.3646H3.04731V62.1263H0V30.7943H3.04731V24.6354H6.0922V18.4766H9.13951V12.3177H12.1868V9.23829H18.279V6.15886H24.3712V3.07943H30.4658V0H64.5342V3.07943H70.6264V6.15886H76.721V9.23829H82.8132V12.3177H85.8605V18.4766H88.9054V24.6354H91.9527V30.7943H95V62.1263H91.9527V71.3646H88.9054V77.5234H85.8605V83.6823H82.8132V86.7617H76.721V89.8411H73.6737V92.9206H67.5815V96H30.4658Z" fill="white"/>
<path d="M62.7329 88.0327H59.6856V91.1121H62.7329V88.0327Z" fill="#C94627"/>
<path d="M59.6856 88.0327H56.6383V91.1121H59.6856V88.0327Z" fill="#C94627"/>
<path d="M56.6408 88.0327H53.5934V91.1121H56.6408V88.0327Z" fill="#C94627"/>
<path d="M53.5935 88.0327H50.5461V91.1121H53.5935V88.0327Z" fill="#C94627"/>
<path d="M50.5462 88.0327H47.4988V91.1121H50.5462V88.0327Z" fill="#C94627"/>
<path d="M47.5012 88.0327H44.4539V91.1121H47.5012V88.0327Z" fill="#C94627"/>
<path d="M44.4539 88.0327H41.4066V91.1121H44.4539V88.0327Z" fill="#C94627"/>
<path d="M41.4066 88.0327H38.3593V91.1121H41.4066V88.0327Z" fill="#C84527"/>
<path d="M38.3617 88.0327H35.3144V91.1121H38.3617V88.0327Z" fill="#C94627"/>
<path d="M68.8251 84.9531H65.7778V88.0326H68.8251V84.9531Z" fill="#1B3C6C"/>
<path d="M65.7803 84.9531H62.733V88.0326H65.7803V84.9531Z" fill="#1A3C6B"/>
<path d="M62.7329 84.9531H59.6856V88.0326H62.7329V84.9531Z" fill="#C94627"/>
<path d="M59.6856 84.9531H56.6383V88.0326H59.6856V84.9531Z" fill="#CF562B"/>
<path d="M56.6408 84.9531H53.5934V88.0326H56.6408V84.9531Z" fill="#E17534"/>
<path d="M53.5935 84.9531H50.5461V88.0326H53.5935V84.9531Z" fill="#E17534"/>
<path d="M50.5462 84.9531H47.4988V88.0326H50.5462V84.9531Z" fill="#E17534"/>
<path d="M47.5012 84.9531H44.4539V88.0326H47.5012V84.9531Z" fill="#E17534"/>
<path d="M44.4539 84.9531H41.4066V88.0326H44.4539V84.9531Z" fill="#E17534"/>
<path d="M41.4066 84.9531H38.3593V88.0326H41.4066V84.9531Z" fill="#E17534"/>
<path d="M38.3617 84.9531H35.3144V88.0326H38.3617V84.9531Z" fill="#E17534"/>
<path d="M35.3144 84.9531H32.2671V88.0326H35.3144V84.9531Z" fill="#C94627"/>
<path d="M32.2671 84.9531H29.2198V88.0326H32.2671V84.9531Z" fill="#1B3C6C"/>
<path d="M71.8724 81.874H68.8251V84.9535H71.8724V81.874Z" fill="#1A3C6B"/>
<path d="M68.8251 81.874H65.7778V84.9535H68.8251V81.874Z" fill="#1A3C6B"/>
<path d="M65.7803 81.874H62.733V84.9535H65.7803V81.874Z" fill="#0D6BAC"/>
<path d="M62.7329 81.874H59.6856V84.9535H62.7329V81.874Z" fill="#E17534"/>
<path d="M59.6856 81.874H56.6383V84.9535H59.6856V81.874Z" fill="#E17534"/>
<path d="M56.6408 81.874H53.5934V84.9535H56.6408V81.874Z" fill="#E17534"/>
<path d="M53.5935 81.874H50.5461V84.9535H53.5935V81.874Z" fill="#E17534"/>
<path d="M50.5462 81.874H47.4988V84.9535H50.5462V81.874Z" fill="#E17534"/>
<path d="M47.5012 81.874H44.4539V84.9535H47.5012V81.874Z" fill="#E17534"/>
<path d="M44.4539 81.874H41.4066V84.9535H44.4539V81.874Z" fill="#E17534"/>
<path d="M41.4066 81.874H38.3593V84.9535H41.4066V81.874Z" fill="#E17534"/>
<path d="M38.3617 81.874H35.3144V84.9535H38.3617V81.874Z" fill="#E17534"/>
<path d="M35.3144 81.874H32.2671V84.9535H35.3144V81.874Z" fill="#E17534"/>
<path d="M32.2671 81.874H29.2198V84.9535H32.2671V81.874Z" fill="#0D6BAC"/>
<path d="M29.2222 81.874H26.1749V84.9535H29.2222V81.874Z" fill="#1A3C6B"/>
<path d="M26.1749 81.874H23.1276V84.9535H26.1749V81.874Z" fill="#1B3C6C"/>
<path d="M77.9647 78.7944H74.9174V81.8739H77.9647V78.7944Z" fill="#1B3A68"/>
<path d="M74.9197 78.7944H71.8724V81.8739H74.9197V78.7944Z" fill="#1B3C6C"/>
<path d="M71.8724 78.7944H68.8251V81.8739H71.8724V78.7944Z" fill="#0C6BAC"/>
<path d="M68.8251 78.7944H65.7778V81.8739H68.8251V78.7944Z" fill="#0C6BAC"/>
<path d="M65.7803 78.7944H62.733V81.8739H65.7803V78.7944Z" fill="#0D6BAC"/>
<path d="M62.7329 78.7944H59.6856V81.8739H62.7329V78.7944Z" fill="#E17534"/>
<path d="M59.6856 78.7944H56.6383V81.8739H59.6856V78.7944Z" fill="#E17534"/>
<path d="M56.6408 78.7944H53.5934V81.8739H56.6408V78.7944Z" fill="#E17534"/>
<path d="M53.5935 78.7944H50.5461V81.8739H53.5935V78.7944Z" fill="#E17534"/>
<path d="M50.5462 78.7944H47.4988V81.8739H50.5462V78.7944Z" fill="#E17534"/>
<path d="M47.5012 78.7944H44.4539V81.8739H47.5012V78.7944Z" fill="#E17534"/>
<path d="M44.4539 78.7944H41.4066V81.8739H44.4539V78.7944Z" fill="#E17534"/>
<path d="M41.4066 78.7944H38.3593V81.8739H41.4066V78.7944Z" fill="#E17534"/>
<path d="M38.3617 78.7944H35.3144V81.8739H38.3617V78.7944Z" fill="#E17534"/>
<path d="M35.3144 78.7944H32.2671V81.8739H35.3144V78.7944Z" fill="#E17534"/>
<path d="M32.2671 78.7944H29.2198V81.8739H32.2671V78.7944Z" fill="#0D6BAC"/>
<path d="M29.2222 78.7944H26.1749V81.8739H29.2222V78.7944Z" fill="#0C6BAC"/>
<path d="M26.1749 78.7944H23.1276V81.8739H26.1749V78.7944Z" fill="#0D6BAC"/>
<path d="M23.1276 78.7944H20.0803V81.8739H23.1276V78.7944Z" fill="#1B3C6C"/>
<path d="M20.0827 78.7944H17.0354V81.8739H20.0827V78.7944Z" fill="#1B3A68"/>
<path d="M81.012 75.7148H77.9647V78.7943H81.012V75.7148Z" fill="#C04327"/>
<path d="M77.9647 75.7148H74.9174V78.7943H77.9647V75.7148Z" fill="#216199"/>
<path d="M74.9197 75.7148H71.8724V78.7943H74.9197V75.7148Z" fill="#1365A4"/>
<path d="M71.8724 75.7148H68.8251V78.7943H71.8724V75.7148Z" fill="#0D6BAC"/>
<path d="M68.8251 75.7148H65.7778V78.7943H68.8251V75.7148Z" fill="#0D6BAC"/>
<path d="M65.7803 75.7148H62.733V78.7943H65.7803V75.7148Z" fill="#0D6BAC"/>
<path d="M62.7329 75.7148H59.6856V78.7943H62.7329V75.7148Z" fill="#E6A54E"/>
<path d="M59.6856 75.7148H56.6383V78.7943H59.6856V75.7148Z" fill="#E7A54E"/>
<path d="M56.6408 75.7148H53.5934V78.7943H56.6408V75.7148Z" fill="#E7A54E"/>
<path d="M53.5935 75.7148H50.5461V78.7943H53.5935V75.7148Z" fill="#E5A44E"/>
<path d="M50.5462 75.7148H47.4988V78.7943H50.5462V75.7148Z" fill="#E7A54E"/>
<path d="M47.5012 75.7148H44.4539V78.7943H47.5012V75.7148Z" fill="#E7A54E"/>
<path d="M44.4539 75.7148H41.4066V78.7943H44.4539V75.7148Z" fill="#E6A54E"/>
<path d="M41.4066 75.7148H38.3593V78.7943H41.4066V75.7148Z" fill="#E6A54E"/>
<path d="M38.3617 75.7148H35.3144V78.7943H38.3617V75.7148Z" fill="#E7A54E"/>
<path d="M35.3144 75.7148H32.2671V78.7943H35.3144V75.7148Z" fill="#E7A54E"/>
<path d="M32.2671 75.7148H29.2198V78.7943H32.2671V75.7148Z" fill="#0C6BAC"/>
<path d="M29.2222 75.7148H26.1749V78.7943H29.2222V75.7148Z" fill="#0D6BAC"/>
<path d="M26.1749 75.7148H23.1276V78.7943H26.1749V75.7148Z" fill="#0D6BAC"/>
<path d="M23.1276 75.7148H20.0803V78.7943H23.1276V75.7148Z" fill="#1365A4"/>
<path d="M20.0827 75.7148H17.0354V78.7943H20.0827V75.7148Z" fill="#216198"/>
<path d="M17.0354 75.7148H13.9881V78.7943H17.0354V75.7148Z" fill="#BF4427"/>
<path d="M81.012 72.6357H77.9647V75.7152H81.012V72.6357Z" fill="#C94627"/>
<path d="M77.9647 72.6357H74.9174V75.7152H77.9647V72.6357Z" fill="#1C66A0"/>
<path d="M74.9197 72.6357H71.8724V75.7152H74.9197V72.6357Z" fill="#0D6BAC"/>
<path d="M71.8724 72.6357H68.8251V75.7152H71.8724V72.6357Z" fill="#0D6BAC"/>
<path d="M68.8251 72.6357H65.7778V75.7152H68.8251V72.6357Z" fill="#0D6BAC"/>
<path d="M65.7803 72.6357H62.733V75.7152H65.7803V72.6357Z" fill="#0D6BAC"/>
<path d="M62.7329 72.6357H59.6856V75.7152H62.7329V72.6357Z" fill="#EDAC52"/>
<path d="M59.6856 72.6357H56.6383V75.7152H59.6856V72.6357Z" fill="#ECAB52"/>
<path d="M56.6408 72.6357H53.5934V75.7152H56.6408V72.6357Z" fill="#ECAB52"/>
<path d="M53.5935 72.6357H50.5461V75.7152H53.5935V72.6357Z" fill="#EDAC52"/>
<path d="M50.5462 72.6357H47.4988V75.7152H50.5462V72.6357Z" fill="#EDAB52"/>
<path d="M47.5012 72.6357H44.4539V75.7152H47.5012V72.6357Z" fill="#EDAB52"/>
<path d="M44.4539 72.6357H41.4066V75.7152H44.4539V72.6357Z" fill="#EDAB52"/>
<path d="M41.4066 72.6357H38.3593V75.7152H41.4066V72.6357Z" fill="#EDAC52"/>
<path d="M38.3617 72.6357H35.3144V75.7152H38.3617V72.6357Z" fill="#ECAB52"/>
<path d="M35.3144 72.6357H32.2671V75.7152H35.3144V72.6357Z" fill="#ECAB52"/>
<path d="M32.2671 72.6357H29.2198V75.7152H32.2671V72.6357Z" fill="#0D6BAC"/>
<path d="M29.2222 72.6357H26.1749V75.7152H29.2222V72.6357Z" fill="#0D6BAC"/>
<path d="M26.1749 72.6357H23.1276V75.7152H26.1749V72.6357Z" fill="#0D6BAC"/>
<path d="M23.1276 72.6357H20.0803V75.7152H23.1276V72.6357Z" fill="#0D6BAC"/>
<path d="M20.0827 72.6357H17.0354V75.7152H20.0827V72.6357Z" fill="#1C67A1"/>
<path d="M17.0354 72.6357H13.9881V75.7152H17.0354V72.6357Z" fill="#C84527"/>
<path d="M84.0593 69.5562H81.012V72.6356H84.0593V69.5562Z" fill="#C84527"/>
<path d="M81.012 69.5562H77.9647V72.6356H81.012V69.5562Z" fill="#E17534"/>
<path d="M77.9647 69.5562H74.9174V72.6356H77.9647V69.5562Z" fill="#1B69A2"/>
<path d="M74.9197 69.5562H71.8724V72.6356H74.9197V69.5562Z" fill="#0D6BAC"/>
<path d="M71.8724 69.5562H68.8251V72.6356H71.8724V69.5562Z" fill="#0D6BAC"/>
<path d="M68.8251 69.5562H65.7778V72.6356H68.8251V69.5562Z" fill="#1C97D4"/>
<path d="M65.7803 69.5562H62.733V72.6356H65.7803V69.5562Z" fill="#1C97D4"/>
<path d="M62.7329 69.5562H59.6856V72.6356H62.7329V69.5562Z" fill="#ECAB52"/>
<path d="M59.6856 69.5562H56.6383V72.6356H59.6856V69.5562Z" fill="#C94627"/>
<path d="M56.6408 69.5562H53.5934V72.6356H56.6408V69.5562Z" fill="#C94627"/>
<path d="M53.5935 69.5562H50.5461V72.6356H53.5935V69.5562Z" fill="#C94627"/>
<path d="M50.5462 69.5562H47.4988V72.6356H50.5462V69.5562Z" fill="#C94627"/>
<path d="M47.5012 69.5562H44.4539V72.6356H47.5012V69.5562Z" fill="#C94627"/>
<path d="M44.4539 69.5562H41.4066V72.6356H44.4539V69.5562Z" fill="#C94627"/>
<path d="M41.4066 69.5562H38.3593V72.6356H41.4066V69.5562Z" fill="#C94627"/>
<path d="M38.3617 69.5562H35.3144V72.6356H38.3617V69.5562Z" fill="#C94627"/>
<path d="M35.3144 69.5562H32.2671V72.6356H35.3144V69.5562Z" fill="#EDAC52"/>
<path d="M32.2671 69.5562H29.2198V72.6356H32.2671V69.5562Z" fill="#1C97D4"/>
<path d="M29.2222 69.5562H26.1749V72.6356H29.2222V69.5562Z" fill="#1C97D4"/>
<path d="M26.1749 69.5562H23.1276V72.6356H26.1749V69.5562Z" fill="#0D6BAC"/>
<path d="M23.1276 69.5562H20.0803V72.6356H23.1276V69.5562Z" fill="#0D6BAC"/>
<path d="M20.0827 69.5562H17.0354V72.6356H20.0827V69.5562Z" fill="#1B67A1"/>
<path d="M17.0354 69.5562H13.9881V72.6356H17.0354V69.5562Z" fill="#E17534"/>
<path d="M13.9881 69.5562H10.9408V72.6356H13.9881V69.5562Z" fill="#C94627"/>
<path d="M84.0593 66.4766H81.012V69.556H84.0593V66.4766Z" fill="#C84527"/>
<path d="M81.012 66.4766H77.9647V69.556H81.012V66.4766Z" fill="#E17534"/>
<path d="M77.9647 66.4766H74.9174V69.556H77.9647V66.4766Z" fill="#1B69A2"/>
<path d="M74.9197 66.4766H71.8724V69.556H74.9197V66.4766Z" fill="#0D6BAC"/>
<path d="M71.8724 66.4766H68.8251V69.556H71.8724V66.4766Z" fill="#48B2E5"/>
<path d="M68.8251 66.4766H65.7778V69.556H68.8251V66.4766Z" fill="#1C97D4"/>
<path d="M65.7803 66.4766H62.733V69.556H65.7803V66.4766Z" fill="#1C97D4"/>
<path d="M62.7329 66.4766H59.6856V69.556H62.7329V66.4766Z" fill="#ECAB52"/>
<path d="M59.6856 66.4766H56.6383V69.556H59.6856V66.4766Z" fill="#C94627"/>
<path d="M56.6408 66.4766H53.5934V69.556H56.6408V66.4766Z" fill="#C94627"/>
<path d="M53.5935 66.4766H50.5461V69.556H53.5935V66.4766Z" fill="#C94627"/>
<path d="M50.5462 66.4766H47.4988V69.556H50.5462V66.4766Z" fill="#C94627"/>
<path d="M47.5012 66.4766H44.4539V69.556H47.5012V66.4766Z" fill="#C94627"/>
<path d="M44.4539 66.4766H41.4066V69.556H44.4539V66.4766Z" fill="#C94627"/>
<path d="M41.4066 66.4766H38.3593V69.556H41.4066V66.4766Z" fill="#C84527"/>
<path d="M38.3617 66.4766H35.3144V69.556H38.3617V66.4766Z" fill="#C94627"/>
<path d="M35.3144 66.4766H32.2671V69.556H35.3144V66.4766Z" fill="#EDAC52"/>
<path d="M32.2671 66.4766H29.2198V69.556H32.2671V66.4766Z" fill="#1C97D4"/>
<path d="M29.2222 66.4766H26.1749V69.556H29.2222V66.4766Z" fill="#1C97D4"/>
<path d="M26.1749 66.4766H23.1276V69.556H26.1749V66.4766Z" fill="#48B2E5"/>
<path d="M23.1276 66.4766H20.0803V69.556H23.1276V66.4766Z" fill="#0D6BAC"/>
<path d="M20.0827 66.4766H17.0354V69.556H20.0827V66.4766Z" fill="#1B67A1"/>
<path d="M17.0354 66.4766H13.9881V69.556H17.0354V66.4766Z" fill="#E17534"/>
<path d="M13.9881 66.4766H10.9408V69.556H13.9881V66.4766Z" fill="#C94627"/>
<path d="M87.1042 63.3975H84.0569V66.4769H87.1042V63.3975Z" fill="#C84527"/>
<path d="M84.0593 63.3975H81.012V66.4769H84.0593V63.3975Z" fill="#E17534"/>
<path d="M81.012 63.3975H77.9647V66.4769H81.012V63.3975Z" fill="#E17534"/>
<path d="M77.9647 63.3975H74.9174V66.4769H77.9647V63.3975Z" fill="#2392C8"/>
<path d="M74.9197 63.3975H71.8724V66.4769H74.9197V63.3975Z" fill="#1C97D4"/>
<path d="M71.8724 63.3975H68.8251V66.4769H71.8724V63.3975Z" fill="#1C97D4"/>
<path d="M68.8251 63.3975H65.7778V66.4769H68.8251V63.3975Z" fill="#1C97D4"/>
<path d="M65.7803 63.3975H62.733V66.4769H65.7803V63.3975Z" fill="#1D97D4"/>
<path d="M62.7329 63.3975H59.6856V66.4769H62.7329V63.3975Z" fill="#EDAC52"/>
<path d="M59.6856 63.3975H56.6383V66.4769H59.6856V63.3975Z" fill="#C94627"/>
<path d="M56.6408 63.3975H53.5934V66.4769H56.6408V63.3975Z" fill="#C94627"/>
<path d="M53.5935 63.3975H50.5461V66.4769H53.5935V63.3975Z" fill="#C94627"/>
<path d="M50.5462 63.3975H47.4988V66.4769H50.5462V63.3975Z" fill="#C94627"/>
<path d="M47.5012 63.3975H44.4539V66.4769H47.5012V63.3975Z" fill="#C94627"/>
<path d="M44.4539 63.3975H41.4066V66.4769H44.4539V63.3975Z" fill="#C84527"/>
<path d="M41.4066 63.3975H38.3593V66.4769H41.4066V63.3975Z" fill="#C94627"/>
<path d="M38.3617 63.3975H35.3144V66.4769H38.3617V63.3975Z" fill="#C94627"/>
<path d="M35.3144 63.3975H32.2671V66.4769H35.3144V63.3975Z" fill="#EDAB52"/>
<path d="M32.2671 63.3975H29.2198V66.4769H32.2671V63.3975Z" fill="#1C97D4"/>
<path d="M29.2222 63.3975H26.1749V66.4769H29.2222V63.3975Z" fill="#1C97D4"/>
<path d="M26.1749 63.3975H23.1276V66.4769H26.1749V63.3975Z" fill="#1D97D4"/>
<path d="M23.1276 63.3975H20.0803V66.4769H23.1276V63.3975Z" fill="#1D97D4"/>
<path d="M20.0827 63.3975H17.0354V66.4769H20.0827V63.3975Z" fill="#2692C9"/>
<path d="M17.0354 63.3975H13.9881V66.4769H17.0354V63.3975Z" fill="#E17534"/>
<path d="M13.9881 63.3975H10.9408V66.4769H13.9881V63.3975Z" fill="#E17534"/>
<path d="M10.9432 63.3975H7.89587V66.4769H10.9432V63.3975Z" fill="#C94627"/>
<path d="M87.1042 60.3179H84.0569V63.3973H87.1042V60.3179Z" fill="#C94627"/>
<path d="M84.0593 60.3179H81.012V63.3973H84.0593V60.3179Z" fill="#E17534"/>
<path d="M81.012 60.3179H77.9647V63.3973H81.012V60.3179Z" fill="#EDAB52"/>
<path d="M77.9647 60.3179H74.9174V63.3973H77.9647V60.3179Z" fill="#2494C8"/>
<path d="M74.9197 60.3179H71.8724V63.3973H74.9197V60.3179Z" fill="#1C97D4"/>
<path d="M71.8724 60.3179H68.8251V63.3973H71.8724V60.3179Z" fill="#45B2E5"/>
<path d="M68.8251 60.3179H65.7778V63.3973H68.8251V60.3179Z" fill="#1D97D4"/>
<path d="M65.7803 60.3179H62.733V63.3973H65.7803V60.3179Z" fill="#1C97D4"/>
<path d="M62.7329 60.3179H59.6856V63.3973H62.7329V60.3179Z" fill="#EDAB52"/>
<path d="M59.6856 60.3179H56.6383V63.3973H59.6856V60.3179Z" fill="#C94627"/>
<path d="M56.6408 60.3179H53.5934V63.3973H56.6408V60.3179Z" fill="#C94627"/>
<path d="M53.5935 60.3179H50.5461V63.3973H53.5935V60.3179Z" fill="#C94627"/>
<path d="M50.5462 60.3179H47.4988V63.3973H50.5462V60.3179Z" fill="#C84527"/>
<path d="M47.5012 60.3179H44.4539V63.3973H47.5012V60.3179Z" fill="#C84527"/>
<path d="M44.4539 60.3179H41.4066V63.3973H44.4539V60.3179Z" fill="#C94627"/>
<path d="M41.4066 60.3179H38.3593V63.3973H41.4066V60.3179Z" fill="#C94627"/>
<path d="M38.3617 60.3179H35.3144V63.3973H38.3617V60.3179Z" fill="#C94627"/>
<path d="M35.3144 60.3179H32.2671V63.3973H35.3144V60.3179Z" fill="#EDAB52"/>
<path d="M32.2671 60.3179H29.2198V63.3973H32.2671V60.3179Z" fill="#1C97D4"/>
<path d="M29.2222 60.3179H26.1749V63.3973H29.2222V60.3179Z" fill="#1D97D4"/>
<path d="M26.1749 60.3179H23.1276V63.3973H26.1749V60.3179Z" fill="#48B2E5"/>
<path d="M23.1276 60.3179H20.0803V63.3973H23.1276V60.3179Z" fill="#1C97D4"/>
<path d="M20.0827 60.3179H17.0354V63.3973H20.0827V60.3179Z" fill="#2494C8"/>
<path d="M17.0354 60.3179H13.9881V63.3973H17.0354V60.3179Z" fill="#EDAB52"/>
<path d="M13.9881 60.3179H10.9408V63.3973H13.9881V60.3179Z" fill="#E17534"/>
<path d="M10.9432 60.3179H7.89587V63.3973H10.9432V60.3179Z" fill="#C94627"/>
<path d="M87.1042 57.2383H84.0569V60.3177H87.1042V57.2383Z" fill="#CF562B"/>
<path d="M84.0593 57.2383H81.012V60.3177H84.0593V57.2383Z" fill="#E3853C"/>
<path d="M81.012 57.2383H77.9647V60.3177H81.012V57.2383Z" fill="#EDAB52"/>
<path d="M77.9647 57.2383H74.9174V60.3177H77.9647V57.2383Z" fill="#2494CA"/>
<path d="M74.9197 57.2383H71.8724V60.3177H74.9197V57.2383Z" fill="#1D97D4"/>
<path d="M71.8724 57.2383H68.8251V60.3177H71.8724V57.2383Z" fill="#48B2E5"/>
<path d="M68.8251 57.2383H65.7778V60.3177H68.8251V57.2383Z" fill="#1C97D4"/>
<path d="M65.7803 57.2383H62.733V60.3177H65.7803V57.2383Z" fill="#1C97D4"/>
<path d="M62.7329 57.2383H59.6856V60.3177H62.7329V57.2383Z" fill="#EDAB52"/>
<path d="M59.6856 57.2383H56.6383V60.3177H59.6856V57.2383Z" fill="#C94627"/>
<path d="M56.6408 57.2383H53.5934V60.3177H56.6408V57.2383Z" fill="#C94627"/>
<path d="M53.5935 57.2383H50.5461V60.3177H53.5935V57.2383Z" fill="#C94627"/>
<path d="M50.5462 57.2383H47.4988V60.3177H50.5462V57.2383Z" fill="#C94627"/>
<path d="M47.5012 57.2383H44.4539V60.3177H47.5012V57.2383Z" fill="#C94627"/>
<path d="M44.4539 57.2383H41.4066V60.3177H44.4539V57.2383Z" fill="#C94627"/>
<path d="M41.4066 57.2383H38.3593V60.3177H41.4066V57.2383Z" fill="#C94627"/>
<path d="M38.3617 57.2383H35.3144V60.3177H38.3617V57.2383Z" fill="#C94627"/>
<path d="M35.3144 57.2383H32.2671V60.3177H35.3144V57.2383Z" fill="#EDAC52"/>
<path d="M32.2671 57.2383H29.2198V60.3177H32.2671V57.2383Z" fill="#1D97D4"/>
<path d="M29.2222 57.2383H26.1749V60.3177H29.2222V57.2383Z" fill="#1C97D4"/>
<path d="M26.1749 57.2383H23.1276V60.3177H26.1749V57.2383Z" fill="#48B2E5"/>
<path d="M23.1276 57.2383H20.0803V60.3177H23.1276V57.2383Z" fill="#1C97D4"/>
<path d="M20.0827 57.2383H17.0354V60.3177H20.0827V57.2383Z" fill="#2494C8"/>
<path d="M17.0354 57.2383H13.9881V60.3177H17.0354V57.2383Z" fill="#EDAC52"/>
<path d="M13.9881 57.2383H10.9408V60.3177H13.9881V57.2383Z" fill="#E3853C"/>
<path d="M10.9432 57.2383H7.89587V60.3177H10.9432V57.2383Z" fill="#CE572A"/>
<path d="M90.1515 54.1592H87.1042V57.2386H90.1515V54.1592Z" fill="#C94627"/>
<path d="M87.1042 54.1592H84.0569V57.2386H87.1042V54.1592Z" fill="#E17534"/>
<path d="M84.0593 54.1592H81.012V57.2386H84.0593V54.1592Z" fill="#EDAB52"/>
<path d="M81.012 54.1592H77.9647V57.2386H81.012V54.1592Z" fill="#EDAB52"/>
<path d="M77.9647 54.1592H74.9174V57.2386H77.9647V54.1592Z" fill="#2494CA"/>
<path d="M74.9197 54.1592H71.8724V57.2386H74.9197V54.1592Z" fill="#1D97D4"/>
<path d="M71.8724 54.1592H68.8251V57.2386H71.8724V54.1592Z" fill="#48B2E5"/>
<path d="M68.8251 54.1592H65.7778V57.2386H68.8251V54.1592Z" fill="#1C97D4"/>
<path d="M65.7803 54.1592H62.733V57.2386H65.7803V54.1592Z" fill="#1C97D4"/>
<path d="M62.7329 54.1592H59.6856V57.2386H62.7329V54.1592Z" fill="#EDAB52"/>
<path d="M59.6856 54.1592H56.6383V57.2386H59.6856V54.1592Z" fill="#C94627"/>
<path d="M56.6408 54.1592H53.5934V57.2386H56.6408V54.1592Z" fill="#C94627"/>
<path d="M53.5935 54.1592H50.5461V57.2386H53.5935V54.1592Z" fill="#F5D6BF"/>
<path d="M50.5462 54.1592H47.4988V57.2386H50.5462V54.1592Z" fill="#F6D6BF"/>
<path d="M47.5012 54.1592H44.4539V57.2386H47.5012V54.1592Z" fill="#F6D6BF"/>
<path d="M44.4539 54.1592H41.4066V57.2386H44.4539V54.1592Z" fill="#F6D6BF"/>
<path d="M41.4066 54.1592H38.3593V57.2386H41.4066V54.1592Z" fill="#C94627"/>
<path d="M38.3617 54.1592H35.3144V57.2386H38.3617V54.1592Z" fill="#C94627"/>
<path d="M35.3144 54.1592H32.2671V57.2386H35.3144V54.1592Z" fill="#EDAC52"/>
<path d="M32.2671 54.1592H29.2198V57.2386H32.2671V54.1592Z" fill="#1D97D4"/>
<path d="M29.2222 54.1592H26.1749V57.2386H29.2222V54.1592Z" fill="#1C97D4"/>
<path d="M26.1749 54.1592H23.1276V57.2386H26.1749V54.1592Z" fill="#48B2E5"/>
<path d="M23.1276 54.1592H20.0803V57.2386H23.1276V54.1592Z" fill="#1C97D4"/>
<path d="M20.0827 54.1592H17.0354V57.2386H20.0827V54.1592Z" fill="#2494C8"/>
<path d="M17.0354 54.1592H13.9881V57.2386H17.0354V54.1592Z" fill="#EDAC52"/>
<path d="M13.9881 54.1592H10.9408V57.2386H13.9881V54.1592Z" fill="#EDAC52"/>
<path d="M10.9432 54.1592H7.89587V57.2386H10.9432V54.1592Z" fill="#E17534"/>
<path d="M7.89588 54.1592H4.84857V57.2386H7.89588V54.1592Z" fill="#C94627"/>
<path d="M90.1515 51.0796H87.1042V54.159H90.1515V51.0796Z" fill="#C94627"/>
<path d="M87.1042 51.0796H84.0569V54.159H87.1042V51.0796Z" fill="#E17534"/>
<path d="M84.0593 51.0796H81.012V54.159H84.0593V51.0796Z" fill="#EDAC52"/>
<path d="M81.012 51.0796H77.9647V54.159H81.012V51.0796Z" fill="#EDAC52"/>
<path d="M77.9647 51.0796H74.9174V54.159H77.9647V51.0796Z" fill="#2494C8"/>
<path d="M74.9197 51.0796H71.8724V54.159H74.9197V51.0796Z" fill="#1C97D4"/>
<path d="M71.8724 51.0796H68.8251V54.159H71.8724V51.0796Z" fill="#48B2E5"/>
<path d="M68.8251 51.0796H65.7778V54.159H68.8251V51.0796Z" fill="#1C97D4"/>
<path d="M65.7803 51.0796H62.733V54.159H65.7803V51.0796Z" fill="#1C97D4"/>
<path d="M62.7329 51.0796H59.6856V54.159H62.7329V51.0796Z" fill="#EDAC52"/>
<path d="M59.6856 51.0796H56.6383V54.159H59.6856V51.0796Z" fill="#ECAB52"/>
<path d="M56.6408 51.0796H53.5934V54.159H56.6408V51.0796Z" fill="#E17534"/>
<path d="M53.5935 51.0796H50.5461V54.159H53.5935V51.0796Z" fill="#E17534"/>
<path d="M50.5462 51.0796H47.4988V54.159H50.5462V51.0796Z" fill="#E17534"/>
<path d="M47.5012 51.0796H44.4539V54.159H47.5012V51.0796Z" fill="#E17534"/>
<path d="M44.4539 51.0796H41.4066V54.159H44.4539V51.0796Z" fill="#E17534"/>
<path d="M41.4066 51.0796H38.3593V54.159H41.4066V51.0796Z" fill="#E17534"/>
<path d="M38.3617 51.0796H35.3144V54.159H38.3617V51.0796Z" fill="#ECAB52"/>
<path d="M35.3144 51.0796H32.2671V54.159H35.3144V51.0796Z" fill="#ECAB52"/>
<path d="M32.2671 51.0796H29.2198V54.159H32.2671V51.0796Z" fill="#1C97D4"/>
<path d="M29.2222 51.0796H26.1749V54.159H29.2222V51.0796Z" fill="#1C97D4"/>
<path d="M26.1749 51.0796H23.1276V54.159H26.1749V51.0796Z" fill="#48B2E5"/>
<path d="M23.1276 51.0796H20.0803V54.159H23.1276V51.0796Z" fill="#1C97D4"/>
<path d="M20.0827 51.0796H17.0354V54.159H20.0827V51.0796Z" fill="#2494CA"/>
<path d="M17.0354 51.0796H13.9881V54.159H17.0354V51.0796Z" fill="#ECAB52"/>
<path d="M13.9881 51.0796H10.9408V54.159H13.9881V51.0796Z" fill="#ECAB52"/>
<path d="M10.9432 51.0796H7.89587V54.159H10.9432V51.0796Z" fill="#E17534"/>
<path d="M7.89588 51.0796H4.84857V54.159H7.89588V51.0796Z" fill="#C94627"/>
<path d="M90.1515 48H87.1042V51.0794H90.1515V48Z" fill="#C94627"/>
<path d="M87.1042 48H84.0569V51.0794H87.1042V48Z" fill="#EDAC52"/>
<path d="M84.0593 48H81.012V51.0794H84.0593V48Z" fill="#ECAB52"/>
<path d="M81.012 48H77.9647V51.0794H81.012V48Z" fill="#ECAB52"/>
<path d="M77.9647 48H74.9174V51.0794H77.9647V48Z" fill="#2494CA"/>
<path d="M74.9197 48H71.8724V51.0794H74.9197V48Z" fill="#1C97D4"/>
<path d="M71.8724 48H68.8251V51.0794H71.8724V48Z" fill="#48B2E5"/>
<path d="M68.8251 48H65.7778V51.0794H68.8251V48Z" fill="#1C97D4"/>
<path d="M65.7803 48H62.733V51.0794H65.7803V48Z" fill="#1C97D4"/>
<path d="M62.7329 48H59.6856V51.0794H62.7329V48Z" fill="#ECAB52"/>
<path d="M59.6856 48H56.6383V51.0794H59.6856V48Z" fill="#EDAC52"/>
<path d="M56.6408 48H53.5934V51.0794H56.6408V48Z" fill="#EDAC52"/>
<path d="M53.5935 48H50.5461V51.0794H53.5935V48Z" fill="#EDAB52"/>
<path d="M50.5462 48H47.4988V51.0794H50.5462V48Z" fill="#EDAB52"/>
<path d="M47.5012 48H44.4539V51.0794H47.5012V48Z" fill="#EDAB52"/>
<path d="M44.4539 48H41.4066V51.0794H44.4539V48Z" fill="#EDAC52"/>
<path d="M41.4066 48H38.3593V51.0794H41.4066V48Z" fill="#ECAB52"/>
<path d="M38.3617 48H35.3144V51.0794H38.3617V48Z" fill="#EDAC52"/>
<path d="M35.3144 48H32.2671V51.0794H35.3144V48Z" fill="#EDAC52"/>
<path d="M32.2671 48H29.2198V51.0794H32.2671V48Z" fill="#1C97D4"/>
<path d="M29.2222 48H26.1749V51.0794H29.2222V48Z" fill="#1C97D4"/>
<path d="M26.1749 48H23.1276V51.0794H26.1749V48Z" fill="#48B2E5"/>
<path d="M23.1276 48H20.0803V51.0794H23.1276V48Z" fill="#1C97D4"/>
<path d="M20.0827 48H17.0354V51.0794H20.0827V48Z" fill="#2494C8"/>
<path d="M17.0354 48H13.9881V51.0794H17.0354V48Z" fill="#EDAC52"/>
<path d="M13.9881 48H10.9408V51.0794H13.9881V48Z" fill="#EDAC52"/>
<path d="M10.9432 48H7.89587V51.0794H10.9432V48Z" fill="#EDAB52"/>
<path d="M7.89588 48H4.84857V51.0794H7.89588V48Z" fill="#C94627"/>
<path d="M90.1515 44.9209H87.1042V48.0003H90.1515V44.9209Z" fill="#C94627"/>
<path d="M87.1042 44.9209H84.0569V48.0003H87.1042V44.9209Z" fill="#EDAC52"/>
<path d="M84.0593 44.9209H81.012V48.0003H84.0593V44.9209Z" fill="#ECAB52"/>
<path d="M81.012 44.9209H77.9647V48.0003H81.012V44.9209Z" fill="#ECAB52"/>
<path d="M77.9647 44.9209H74.9174V48.0003H77.9647V44.9209Z" fill="#2494CA"/>
<path d="M74.9197 44.9209H71.8724V48.0003H74.9197V44.9209Z" fill="#1C97D4"/>
<path d="M71.8724 44.9209H68.8251V48.0003H71.8724V44.9209Z" fill="#48B2E5"/>
<path d="M68.8251 44.9209H65.7778V48.0003H68.8251V44.9209Z" fill="#1C97D4"/>
<path d="M65.7803 44.9209H62.733V48.0003H65.7803V44.9209Z" fill="#1C97D4"/>
<path d="M62.7329 44.9209H59.6856V48.0003H62.7329V44.9209Z" fill="#ECAB52"/>
<path d="M59.6856 44.9209H56.6383V48.0003H59.6856V44.9209Z" fill="#EDAC52"/>
<path d="M56.6408 44.9209H53.5934V48.0003H56.6408V44.9209Z" fill="#EDAC52"/>
<path d="M53.5935 44.9209H50.5461V48.0003H53.5935V44.9209Z" fill="#EDAB52"/>
<path d="M50.5462 44.9209H47.4988V48.0003H50.5462V44.9209Z" fill="#EDAB52"/>
<path d="M47.5012 44.9209H44.4539V48.0003H47.5012V44.9209Z" fill="#EDAB52"/>
<path d="M44.4539 44.9209H41.4066V48.0003H44.4539V44.9209Z" fill="#EDAC52"/>
<path d="M41.4066 44.9209H38.3593V48.0003H41.4066V44.9209Z" fill="#ECAB52"/>
<path d="M38.3617 44.9209H35.3144V48.0003H38.3617V44.9209Z" fill="#EDAC52"/>
<path d="M35.3144 44.9209H32.2671V48.0003H35.3144V44.9209Z" fill="#EDAC52"/>
<path d="M32.2671 44.9209H29.2198V48.0003H32.2671V44.9209Z" fill="#1C97D4"/>
<path d="M29.2222 44.9209H26.1749V48.0003H29.2222V44.9209Z" fill="#1C97D4"/>
<path d="M26.1749 44.9209H23.1276V48.0003H26.1749V44.9209Z" fill="#48B2E5"/>
<path d="M23.1276 44.9209H20.0803V48.0003H23.1276V44.9209Z" fill="#1C97D4"/>
<path d="M20.0827 44.9209H17.0354V48.0003H20.0827V44.9209Z" fill="#2494C8"/>
<path d="M17.0354 44.9209H13.9881V48.0003H17.0354V44.9209Z" fill="#EDAC52"/>
<path d="M13.9881 44.9209H10.9408V48.0003H13.9881V44.9209Z" fill="#EDAC52"/>
<path d="M10.9432 44.9209H7.89587V48.0003H10.9432V44.9209Z" fill="#EDAB52"/>
<path d="M7.89588 44.9209H4.84857V48.0003H7.89588V44.9209Z" fill="#C94627"/>
<path d="M90.1515 41.8413H87.1042V44.9207H90.1515V41.8413Z" fill="#E17534"/>
<path d="M87.1042 41.8413H84.0569V44.9207H87.1042V41.8413Z" fill="#ECAB52"/>
<path d="M84.0593 41.8413H81.012V44.9207H84.0593V41.8413Z" fill="#EDAC52"/>
<path d="M81.012 41.8413H77.9647V44.9207H81.012V41.8413Z" fill="#EDAC52"/>
<path d="M77.9647 41.8413H74.9174V44.9207H77.9647V41.8413Z" fill="#C34527"/>
<path d="M74.9197 41.8413H71.8724V44.9207H74.9197V41.8413Z" fill="#C94627"/>
<path d="M71.8724 41.8413H68.8251V44.9207H71.8724V41.8413Z" fill="#C94627"/>
<path d="M68.8251 41.8413H65.7778V44.9207H68.8251V41.8413Z" fill="#48B2E5"/>
<path d="M65.7803 41.8413H62.733V44.9207H65.7803V41.8413Z" fill="#1D97D4"/>
<path d="M62.7329 41.8413H59.6856V44.9207H62.7329V41.8413Z" fill="#EDAC52"/>
<path d="M59.6856 41.8413H56.6383V44.9207H59.6856V41.8413Z" fill="#EDAB52"/>
<path d="M56.6408 41.8413H53.5934V44.9207H56.6408V41.8413Z" fill="#EDAB52"/>
<path d="M53.5935 41.8413H50.5461V44.9207H53.5935V41.8413Z" fill="#EDAB52"/>
<path d="M50.5462 41.8413H47.4988V44.9207H50.5462V41.8413Z" fill="#EDAC52"/>
<path d="M47.5012 41.8413H44.4539V44.9207H47.5012V41.8413Z" fill="#EDAC52"/>
<path d="M44.4539 41.8413H41.4066V44.9207H44.4539V41.8413Z" fill="#ECAB52"/>
<path d="M41.4066 41.8413H38.3593V44.9207H41.4066V41.8413Z" fill="#EDAC52"/>
<path d="M38.3617 41.8413H35.3144V44.9207H38.3617V41.8413Z" fill="#EDAB52"/>
<path d="M35.3144 41.8413H32.2671V44.9207H35.3144V41.8413Z" fill="#EDAB52"/>
<path d="M32.2671 41.8413H29.2198V44.9207H32.2671V41.8413Z" fill="#1C97D4"/>
<path d="M29.2222 41.8413H26.1749V44.9207H29.2222V41.8413Z" fill="#48B2E5"/>
<path d="M26.1749 41.8413H23.1276V44.9207H26.1749V41.8413Z" fill="#C84527"/>
<path d="M23.1276 41.8413H20.0803V44.9207H23.1276V41.8413Z" fill="#C84527"/>
<path d="M20.0827 41.8413H17.0354V44.9207H20.0827V41.8413Z" fill="#C44527"/>
<path d="M17.0354 41.8413H13.9881V44.9207H17.0354V41.8413Z" fill="#EDAB52"/>
<path d="M13.9881 41.8413H10.9408V44.9207H13.9881V41.8413Z" fill="#EDAB52"/>
<path d="M10.9432 41.8413H7.89587V44.9207H10.9432V41.8413Z" fill="#EDAB52"/>
<path d="M7.89588 41.8413H4.84857V44.9207H7.89588V41.8413Z" fill="#E17534"/>
<path d="M90.1515 38.7617H87.1042V41.8411H90.1515V38.7617Z" fill="#E17534"/>
<path d="M87.1042 38.7617H84.0569V41.8411H87.1042V38.7617Z" fill="#EDAC52"/>
<path d="M84.0593 38.7617H81.012V41.8411H84.0593V38.7617Z" fill="#EDAB52"/>
<path d="M81.012 38.7617H77.9647V41.8411H81.012V38.7617Z" fill="#EDAB52"/>
<path d="M77.9647 38.7617H74.9174V41.8411H77.9647V38.7617Z" fill="#C94627"/>
<path d="M74.9197 38.7617H71.8724V41.8411H74.9197V38.7617Z" fill="#C94627"/>
<path d="M71.8724 38.7617H68.8251V41.8411H71.8724V38.7617Z" fill="#C84527"/>
<path d="M68.8251 38.7617H65.7778V41.8411H68.8251V38.7617Z" fill="#C94627"/>
<path d="M65.7803 38.7617H62.733V41.8411H65.7803V38.7617Z" fill="#C94627"/>
<path d="M62.7329 38.7617H59.6856V41.8411H62.7329V38.7617Z" fill="#C94627"/>
<path d="M59.6856 38.7617H56.6383V41.8411H59.6856V38.7617Z" fill="#C94627"/>
<path d="M56.6408 38.7617H53.5934V41.8411H56.6408V38.7617Z" fill="#C94627"/>
<path d="M53.5935 38.7617H50.5461V41.8411H53.5935V38.7617Z" fill="#EDAC52"/>
<path d="M50.5462 38.7617H47.4988V41.8411H50.5462V38.7617Z" fill="#ECAB52"/>
<path d="M47.5012 38.7617H44.4539V41.8411H47.5012V38.7617Z" fill="#ECAB52"/>
<path d="M44.4539 38.7617H41.4066V41.8411H44.4539V38.7617Z" fill="#EDAC52"/>
<path d="M41.4066 38.7617H38.3593V41.8411H41.4066V38.7617Z" fill="#C94627"/>
<path d="M38.3617 38.7617H35.3144V41.8411H38.3617V38.7617Z" fill="#C94627"/>
<path d="M35.3144 38.7617H32.2671V41.8411H35.3144V38.7617Z" fill="#C94627"/>
<path d="M32.2671 38.7617H29.2198V41.8411H32.2671V38.7617Z" fill="#C94627"/>
<path d="M29.2222 38.7617H26.1749V41.8411H29.2222V38.7617Z" fill="#C94627"/>
<path d="M26.1749 38.7617H23.1276V41.8411H26.1749V38.7617Z" fill="#C94627"/>
<path d="M23.1276 38.7617H20.0803V41.8411H23.1276V38.7617Z" fill="#C94627"/>
<path d="M20.0827 38.7617H17.0354V41.8411H20.0827V38.7617Z" fill="#C94627"/>
<path d="M17.0354 38.7617H13.9881V41.8411H17.0354V38.7617Z" fill="#EDAB52"/>
<path d="M13.9881 38.7617H10.9408V41.8411H13.9881V38.7617Z" fill="#EDAB52"/>
<path d="M10.9432 38.7617H7.89587V41.8411H10.9432V38.7617Z" fill="#EDAC52"/>
<path d="M7.89588 38.7617H4.84857V41.8411H7.89588V38.7617Z" fill="#E17534"/>
<path d="M90.1515 35.6826H87.1042V38.762H90.1515V35.6826Z" fill="#E17534"/>
<path d="M87.1042 35.6826H84.0569V38.762H87.1042V35.6826Z" fill="#EDAB52"/>
<path d="M84.0593 35.6826H81.012V38.762H84.0593V35.6826Z" fill="#EDAB52"/>
<path d="M81.012 35.6826H77.9647V38.762H81.012V35.6826Z" fill="#EDAB52"/>
<path d="M77.9647 35.6826H74.9174V38.762H77.9647V35.6826Z" fill="#EDAC52"/>
<path d="M74.9197 35.6826H71.8724V38.762H74.9197V35.6826Z" fill="#EDAC52"/>
<path d="M71.8724 35.6826H68.8251V38.762H71.8724V35.6826Z" fill="#C94627"/>
<path d="M68.8251 35.6826H65.7778V38.762H68.8251V35.6826Z" fill="#C94627"/>
<path d="M65.7803 35.6826H62.733V38.762H65.7803V35.6826Z" fill="#C94627"/>
<path d="M62.7329 35.6826H59.6856V38.762H62.7329V35.6826Z" fill="#C94627"/>
<path d="M59.6856 35.6826H56.6383V38.762H59.6856V35.6826Z" fill="#C94627"/>
<path d="M56.6408 35.6826H53.5934V38.762H56.6408V35.6826Z" fill="#C94627"/>
<path d="M53.5935 35.6826H50.5461V38.762H53.5935V35.6826Z" fill="#ECAB52"/>
<path d="M50.5462 35.6826H47.4988V38.762H50.5462V35.6826Z" fill="#EDAC52"/>
<path d="M47.5012 35.6826H44.4539V38.762H47.5012V35.6826Z" fill="#EDAC52"/>
<path d="M44.4539 35.6826H41.4066V38.762H44.4539V35.6826Z" fill="#EDAB52"/>
<path d="M41.4066 35.6826H38.3593V38.762H41.4066V35.6826Z" fill="#C94627"/>
<path d="M38.3617 35.6826H35.3144V38.762H38.3617V35.6826Z" fill="#C94627"/>
<path d="M35.3144 35.6826H32.2671V38.762H35.3144V35.6826Z" fill="#C94627"/>
<path d="M32.2671 35.6826H29.2198V38.762H32.2671V35.6826Z" fill="#C84527"/>
<path d="M29.2222 35.6826H26.1749V38.762H29.2222V35.6826Z" fill="#C94627"/>
<path d="M26.1749 35.6826H23.1276V38.762H26.1749V35.6826Z" fill="#C94627"/>
<path d="M23.1276 35.6826H20.0803V38.762H23.1276V35.6826Z" fill="#EDAC52"/>
<path d="M20.0827 35.6826H17.0354V38.762H20.0827V35.6826Z" fill="#EDAC52"/>
<path d="M17.0354 35.6826H13.9881V38.762H17.0354V35.6826Z" fill="#EDAC52"/>
<path d="M13.9881 35.6826H10.9408V38.762H13.9881V35.6826Z" fill="#EDAC52"/>
<path d="M10.9432 35.6826H7.89587V38.762H10.9432V35.6826Z" fill="#ECAB52"/>
<path d="M7.89588 35.6826H4.84857V38.762H7.89588V35.6826Z" fill="#E17534"/>
<path d="M87.1042 32.603H84.0569V35.6825H87.1042V32.603Z" fill="#E17534"/>
<path d="M84.0593 32.603H81.012V35.6825H84.0593V32.603Z" fill="#EDAB52"/>
<path d="M81.012 32.603H77.9647V35.6825H81.012V32.603Z" fill="#C94627"/>
<path d="M77.9647 32.603H74.9174V35.6825H77.9647V32.603Z" fill="#E5A24E"/>
<path d="M74.9197 32.603H71.8724V35.6825H74.9197V32.603Z" fill="#ECAB52"/>
<path d="M71.8724 32.603H68.8251V35.6825H71.8724V32.603Z" fill="#EDAC52"/>
<path d="M68.8251 32.603H65.7778V35.6825H68.8251V32.603Z" fill="#C94627"/>
<path d="M65.7803 32.603H62.733V35.6825H65.7803V32.603Z" fill="#C94627"/>
<path d="M62.7329 32.603H59.6856V35.6825H62.7329V32.603Z" fill="#C94627"/>
<path d="M59.6856 32.603H56.6383V35.6825H59.6856V32.603Z" fill="#EDAC52"/>
<path d="M56.6408 32.603H53.5934V35.6825H56.6408V32.603Z" fill="#EDAC52"/>
<path d="M53.5935 32.603H50.5461V35.6825H53.5935V32.603Z" fill="#ECAB52"/>
<path d="M50.5462 32.603H47.4988V35.6825H50.5462V32.603Z" fill="#EDAC52"/>
<path d="M47.5012 32.603H44.4539V35.6825H47.5012V32.603Z" fill="#EDAC52"/>
<path d="M44.4539 32.603H41.4066V35.6825H44.4539V32.603Z" fill="#EDAB52"/>
<path d="M41.4066 32.603H38.3593V35.6825H41.4066V32.603Z" fill="#EDAC52"/>
<path d="M38.3617 32.603H35.3144V35.6825H38.3617V32.603Z" fill="#EDAC52"/>
<path d="M35.3144 32.603H32.2671V35.6825H35.3144V32.603Z" fill="#C94627"/>
<path d="M32.2671 32.603H29.2198V35.6825H32.2671V32.603Z" fill="#C84527"/>
<path d="M29.2222 32.603H26.1749V35.6825H29.2222V32.603Z" fill="#C94627"/>
<path d="M26.1749 32.603H23.1276V35.6825H26.1749V32.603Z" fill="#EDAC52"/>
<path d="M23.1276 32.603H20.0803V35.6825H23.1276V32.603Z" fill="#EDAB52"/>
<path d="M20.0827 32.603H17.0354V35.6825H20.0827V32.603Z" fill="#E5A24E"/>
<path d="M17.0354 32.603H13.9881V35.6825H17.0354V32.603Z" fill="#C94627"/>
<path d="M13.9881 32.603H10.9408V35.6825H13.9881V32.603Z" fill="#EDAC52"/>
<path d="M10.9432 32.603H7.89587V35.6825H10.9432V32.603Z" fill="#E17534"/>
<path d="M87.1042 29.5234H84.0569V32.6029H87.1042V29.5234Z" fill="#E17534"/>
<path d="M84.0593 29.5234H81.012V32.6029H84.0593V29.5234Z" fill="#E17534"/>
<path d="M81.012 29.5234H77.9647V32.6029H81.012V29.5234Z" fill="#C94627"/>
<path d="M77.9647 29.5234H74.9174V32.6029H77.9647V29.5234Z" fill="#E5A14D"/>
<path d="M74.9197 29.5234H71.8724V32.6029H74.9197V29.5234Z" fill="#EDAC52"/>
<path d="M71.8724 29.5234H68.8251V32.6029H71.8724V29.5234Z" fill="#EDAB52"/>
<path d="M68.8251 29.5234H65.7778V32.6029H68.8251V29.5234Z" fill="#EDAB52"/>
<path d="M65.7803 29.5234H62.733V32.6029H65.7803V29.5234Z" fill="#EDAB52"/>
<path d="M62.7329 29.5234H59.6856V32.6029H62.7329V29.5234Z" fill="#EDAC52"/>
<path d="M59.6856 29.5234H56.6383V32.6029H59.6856V29.5234Z" fill="#ECAB52"/>
<path d="M56.6408 29.5234H53.5934V32.6029H56.6408V29.5234Z" fill="#ECAB52"/>
<path d="M53.5935 29.5234H50.5461V32.6029H53.5935V29.5234Z" fill="#EDAC52"/>
<path d="M50.5462 29.5234H47.4988V32.6029H50.5462V29.5234Z" fill="#EDAB52"/>
<path d="M47.5012 29.5234H44.4539V32.6029H47.5012V29.5234Z" fill="#EDAB52"/>
<path d="M44.4539 29.5234H41.4066V32.6029H44.4539V29.5234Z" fill="#EDAB52"/>
<path d="M41.4066 29.5234H38.3593V32.6029H41.4066V29.5234Z" fill="#EDAC52"/>
<path d="M38.3617 29.5234H35.3144V32.6029H38.3617V29.5234Z" fill="#ECAB52"/>
<path d="M35.3144 29.5234H32.2671V32.6029H35.3144V29.5234Z" fill="#ECAB52"/>
<path d="M32.2671 29.5234H29.2198V32.6029H32.2671V29.5234Z" fill="#EDAC52"/>
<path d="M29.2222 29.5234H26.1749V32.6029H29.2222V29.5234Z" fill="#EDAB52"/>
<path d="M26.1749 29.5234H23.1276V32.6029H26.1749V29.5234Z" fill="#EDAB52"/>
<path d="M23.1276 29.5234H20.0803V32.6029H23.1276V29.5234Z" fill="#EDAB52"/>
<path d="M20.0827 29.5234H17.0354V32.6029H20.0827V29.5234Z" fill="#E5A24E"/>
<path d="M17.0354 29.5234H13.9881V32.6029H17.0354V29.5234Z" fill="#C84527"/>
<path d="M13.9881 29.5234H10.9408V32.6029H13.9881V29.5234Z" fill="#E17534"/>
<path d="M10.9432 29.5234H7.89587V32.6029H10.9432V29.5234Z" fill="#E17534"/>
<path d="M84.0593 26.4443H81.012V29.5238H84.0593V26.4443Z" fill="#E17534"/>
<path d="M81.012 26.4443H77.9647V29.5238H81.012V26.4443Z" fill="#EDAB52"/>
<path d="M77.9647 26.4443H74.9174V29.5238H77.9647V26.4443Z" fill="#C34427"/>
<path d="M74.9197 26.4443H71.8724V29.5238H74.9197V26.4443Z" fill="#C94627"/>
<path d="M71.8724 26.4443H68.8251V29.5238H71.8724V26.4443Z" fill="#EDAB52"/>
<path d="M68.8251 26.4443H65.7778V29.5238H68.8251V26.4443Z" fill="#EDAB52"/>
<path d="M65.7803 26.4443H62.733V29.5238H65.7803V26.4443Z" fill="#EDAC52"/>
<path d="M62.7329 26.4443H59.6856V29.5238H62.7329V26.4443Z" fill="#ECAB52"/>
<path d="M59.6856 26.4443H56.6383V29.5238H59.6856V26.4443Z" fill="#EDAC52"/>
<path d="M56.6408 26.4443H53.5934V29.5238H56.6408V26.4443Z" fill="#EDAC52"/>
<path d="M53.5935 26.4443H50.5461V29.5238H53.5935V26.4443Z" fill="#EDAB52"/>
<path d="M50.5462 26.4443H47.4988V29.5238H50.5462V26.4443Z" fill="#EDAB52"/>
<path d="M47.5012 26.4443H44.4539V29.5238H47.5012V26.4443Z" fill="#EDAB52"/>
<path d="M44.4539 26.4443H41.4066V29.5238H44.4539V26.4443Z" fill="#EDAC52"/>
<path d="M41.4066 26.4443H38.3593V29.5238H41.4066V26.4443Z" fill="#ECAB52"/>
<path d="M38.3617 26.4443H35.3144V29.5238H38.3617V26.4443Z" fill="#EDAC52"/>
<path d="M35.3144 26.4443H32.2671V29.5238H35.3144V26.4443Z" fill="#EDAC52"/>
<path d="M32.2671 26.4443H29.2198V29.5238H32.2671V26.4443Z" fill="#EDAB52"/>
<path d="M29.2222 26.4443H26.1749V29.5238H29.2222V26.4443Z" fill="#EDAB52"/>
<path d="M26.1749 26.4443H23.1276V29.5238H26.1749V26.4443Z" fill="#EDAC52"/>
<path d="M23.1276 26.4443H20.0803V29.5238H23.1276V26.4443Z" fill="#C94627"/>
<path d="M20.0827 26.4443H17.0354V29.5238H20.0827V26.4443Z" fill="#C34527"/>
<path d="M17.0354 26.4443H13.9881V29.5238H17.0354V26.4443Z" fill="#EDAB52"/>
<path d="M13.9881 26.4443H10.9408V29.5238H13.9881V26.4443Z" fill="#E17534"/>
<path d="M84.0593 23.3647H81.012V26.4442H84.0593V23.3647Z" fill="#E17534"/>
<path d="M81.012 23.3647H77.9647V26.4442H81.012V23.3647Z" fill="#EDAC52"/>
<path d="M77.9647 23.3647H74.9174V26.4442H77.9647V23.3647Z" fill="#EDAB52"/>
<path d="M74.9197 23.3647H71.8724V26.4442H74.9197V23.3647Z" fill="#EDAB52"/>
<path d="M71.8724 23.3647H68.8251V26.4442H71.8724V23.3647Z" fill="#C94627"/>
<path d="M68.8251 23.3647H65.7778V26.4442H68.8251V23.3647Z" fill="#C94627"/>
<path d="M65.7803 23.3647H62.733V26.4442H65.7803V23.3647Z" fill="#ECAB52"/>
<path d="M62.7329 23.3647H59.6856V26.4442H62.7329V23.3647Z" fill="#EDAC52"/>
<path d="M59.6856 23.3647H56.6383V26.4442H59.6856V23.3647Z" fill="#EDAB52"/>
<path d="M56.6408 23.3647H53.5934V26.4442H56.6408V23.3647Z" fill="#EDAB52"/>
<path d="M53.5935 23.3647H50.5461V26.4442H53.5935V23.3647Z" fill="#EDAB52"/>
<path d="M50.5462 23.3647H47.4988V26.4442H50.5462V23.3647Z" fill="#EDAC52"/>
<path d="M47.5012 23.3647H44.4539V26.4442H47.5012V23.3647Z" fill="#EDAC52"/>
<path d="M44.4539 23.3647H41.4066V26.4442H44.4539V23.3647Z" fill="#ECAB52"/>
<path d="M41.4066 23.3647H38.3593V26.4442H41.4066V23.3647Z" fill="#EDAC52"/>
<path d="M38.3617 23.3647H35.3144V26.4442H38.3617V23.3647Z" fill="#EDAB52"/>
<path d="M35.3144 23.3647H32.2671V26.4442H35.3144V23.3647Z" fill="#EDAB52"/>
<path d="M32.2671 23.3647H29.2198V26.4442H32.2671V23.3647Z" fill="#EDAB52"/>
<path d="M29.2222 23.3647H26.1749V26.4442H29.2222V23.3647Z" fill="#C94627"/>
<path d="M26.1749 23.3647H23.1276V26.4442H26.1749V23.3647Z" fill="#C84527"/>
<path d="M23.1276 23.3647H20.0803V26.4442H23.1276V23.3647Z" fill="#EDAB52"/>
<path d="M20.0827 23.3647H17.0354V26.4442H20.0827V23.3647Z" fill="#EDAB52"/>
<path d="M17.0354 23.3647H13.9881V26.4442H17.0354V23.3647Z" fill="#EDAB52"/>
<path d="M13.9881 23.3647H10.9408V26.4442H13.9881V23.3647Z" fill="#E17534"/>
<path d="M81.012 20.2852H77.9647V23.3646H81.012V20.2852Z" fill="#E17534"/>
<path d="M77.9647 20.2852H74.9174V23.3646H77.9647V20.2852Z" fill="#E6A54E"/>
<path d="M74.9197 20.2852H71.8724V23.3646H74.9197V20.2852Z" fill="#EDAB52"/>
<path d="M71.8724 20.2852H68.8251V23.3646H71.8724V20.2852Z" fill="#EDAC52"/>
<path d="M68.8251 20.2852H65.7778V23.3646H68.8251V20.2852Z" fill="#EDAC52"/>
<path d="M65.7803 20.2852H62.733V23.3646H65.7803V20.2852Z" fill="#ECAB52"/>
<path d="M62.7329 20.2852H59.6856V23.3646H62.7329V20.2852Z" fill="#EDAC52"/>
<path d="M59.6856 20.2852H56.6383V23.3646H59.6856V20.2852Z" fill="#EDAB52"/>
<path d="M56.6408 20.2852H53.5934V23.3646H56.6408V20.2852Z" fill="#EDAB52"/>
<path d="M53.5935 20.2852H50.5461V23.3646H53.5935V20.2852Z" fill="#EDAB52"/>
<path d="M50.5462 20.2852H47.4988V23.3646H50.5462V20.2852Z" fill="#EDAC52"/>
<path d="M47.5012 20.2852H44.4539V23.3646H47.5012V20.2852Z" fill="#EDAC52"/>
<path d="M44.4539 20.2852H41.4066V23.3646H44.4539V20.2852Z" fill="#ECAB52"/>
<path d="M41.4066 20.2852H38.3593V23.3646H41.4066V20.2852Z" fill="#EDAC52"/>
<path d="M38.3617 20.2852H35.3144V23.3646H38.3617V20.2852Z" fill="#EDAB52"/>
<path d="M35.3144 20.2852H32.2671V23.3646H35.3144V20.2852Z" fill="#EDAB52"/>
<path d="M32.2671 20.2852H29.2198V23.3646H32.2671V20.2852Z" fill="#EDAB52"/>
<path d="M29.2222 20.2852H26.1749V23.3646H29.2222V20.2852Z" fill="#EDAC52"/>
<path d="M26.1749 20.2852H23.1276V23.3646H26.1749V20.2852Z" fill="#ECAB52"/>
<path d="M23.1276 20.2852H20.0803V23.3646H23.1276V20.2852Z" fill="#ECAB52"/>
<path d="M20.0827 20.2852H17.0354V23.3646H20.0827V20.2852Z" fill="#E7A54E"/>
<path d="M17.0354 20.2852H13.9881V23.3646H17.0354V20.2852Z" fill="#E17534"/>
<path d="M81.012 17.2061H77.9647V20.2855H81.012V17.2061Z" fill="#D77035"/>
<path d="M77.9647 17.2061H74.9174V20.2855H77.9647V17.2061Z" fill="#E09D49"/>
<path d="M74.9197 17.2061H71.8724V20.2855H74.9197V17.2061Z" fill="#E7A54E"/>
<path d="M71.8724 17.2061H68.8251V20.2855H71.8724V17.2061Z" fill="#ECAB52"/>
<path d="M68.8251 17.2061H65.7778V20.2855H68.8251V17.2061Z" fill="#ECAB52"/>
<path d="M65.7803 17.2061H62.733V20.2855H65.7803V17.2061Z" fill="#EDAC52"/>
<path d="M62.7329 17.2061H59.6856V20.2855H62.7329V17.2061Z" fill="#EDAB52"/>
<path d="M59.6856 17.2061H56.6383V20.2855H59.6856V17.2061Z" fill="#EDAB52"/>
<path d="M56.6408 17.2061H53.5934V20.2855H56.6408V17.2061Z" fill="#EDAB52"/>
<path d="M53.5935 17.2061H50.5461V20.2855H53.5935V17.2061Z" fill="#EDAC52"/>
<path d="M50.5462 17.2061H47.4988V20.2855H50.5462V17.2061Z" fill="#ECAB52"/>
<path d="M47.5012 17.2061H44.4539V20.2855H47.5012V17.2061Z" fill="#ECAB52"/>
<path d="M44.4539 17.2061H41.4066V20.2855H44.4539V17.2061Z" fill="#EDAC52"/>
<path d="M41.4066 17.2061H38.3593V20.2855H41.4066V17.2061Z" fill="#EDAB52"/>
<path d="M38.3617 17.2061H35.3144V20.2855H38.3617V17.2061Z" fill="#EDAB52"/>
<path d="M35.3144 17.2061H32.2671V20.2855H35.3144V17.2061Z" fill="#EDAB52"/>
<path d="M32.2671 17.2061H29.2198V20.2855H32.2671V17.2061Z" fill="#EDAC52"/>
<path d="M29.2222 17.2061H26.1749V20.2855H29.2222V17.2061Z" fill="#ECAB52"/>
<path d="M26.1749 17.2061H23.1276V20.2855H26.1749V17.2061Z" fill="#EDAC52"/>
<path d="M23.1276 17.2061H20.0803V20.2855H23.1276V17.2061Z" fill="#E7A54E"/>
<path d="M20.0827 17.2061H17.0354V20.2855H20.0827V17.2061Z" fill="#DE9D49"/>
<path d="M17.0354 17.2061H13.9881V20.2855H17.0354V17.2061Z" fill="#D77035"/>
<path d="M77.9647 14.1265H74.9174V17.2059H77.9647V14.1265Z" fill="#D87033"/>
<path d="M74.9197 14.1265H71.8724V17.2059H74.9197V14.1265Z" fill="#E17534"/>
<path d="M71.8724 14.1265H68.8251V17.2059H71.8724V14.1265Z" fill="#EDAC52"/>
<path d="M68.8251 14.1265H65.7778V17.2059H68.8251V14.1265Z" fill="#EDAC52"/>
<path d="M65.7803 14.1265H62.733V17.2059H65.7803V14.1265Z" fill="#EDAB52"/>
<path d="M62.7329 14.1265H59.6856V17.2059H62.7329V14.1265Z" fill="#EDAB52"/>
<path d="M59.6856 14.1265H56.6383V17.2059H59.6856V14.1265Z" fill="#EDAC52"/>
<path d="M56.6408 14.1265H53.5934V17.2059H56.6408V14.1265Z" fill="#EDAC52"/>
<path d="M53.5935 14.1265H50.5461V17.2059H53.5935V14.1265Z" fill="#ECAB52"/>
<path d="M50.5462 14.1265H47.4988V17.2059H50.5462V14.1265Z" fill="#EDAC52"/>
<path d="M47.5012 14.1265H44.4539V17.2059H47.5012V14.1265Z" fill="#EDAC52"/>
<path d="M44.4539 14.1265H41.4066V17.2059H44.4539V14.1265Z" fill="#EDAB52"/>
<path d="M41.4066 14.1265H38.3593V17.2059H41.4066V14.1265Z" fill="#EDAB52"/>
<path d="M38.3617 14.1265H35.3144V17.2059H38.3617V14.1265Z" fill="#EDAC52"/>
<path d="M35.3144 14.1265H32.2671V17.2059H35.3144V14.1265Z" fill="#EDAC52"/>
<path d="M32.2671 14.1265H29.2198V17.2059H32.2671V14.1265Z" fill="#ECAB52"/>
<path d="M29.2222 14.1265H26.1749V17.2059H29.2222V14.1265Z" fill="#EDAC52"/>
<path d="M26.1749 14.1265H23.1276V17.2059H26.1749V14.1265Z" fill="#EDAB52"/>
<path d="M23.1276 14.1265H20.0803V17.2059H23.1276V14.1265Z" fill="#E17534"/>
<path d="M20.0827 14.1265H17.0354V17.2059H20.0827V14.1265Z" fill="#D77035"/>
<path d="M71.8724 11.0469H68.8251V14.1263H71.8724V11.0469Z" fill="#E17534"/>
<path d="M68.8251 11.0469H65.7778V14.1263H68.8251V11.0469Z" fill="#E17534"/>
<path d="M65.7803 11.0469H62.733V14.1263H65.7803V11.0469Z" fill="#EDAB52"/>
<path d="M62.7329 11.0469H59.6856V14.1263H62.7329V11.0469Z" fill="#EDAB52"/>
<path d="M59.6856 11.0469H56.6383V14.1263H59.6856V11.0469Z" fill="#EDAC52"/>
<path d="M56.6408 11.0469H53.5934V14.1263H56.6408V11.0469Z" fill="#EDAC52"/>
<path d="M53.5935 11.0469H50.5461V14.1263H53.5935V11.0469Z" fill="#ECAB52"/>
<path d="M50.5462 11.0469H47.4988V14.1263H50.5462V11.0469Z" fill="#EDAC52"/>
<path d="M47.5012 11.0469H44.4539V14.1263H47.5012V11.0469Z" fill="#EDAC52"/>
<path d="M44.4539 11.0469H41.4066V14.1263H44.4539V11.0469Z" fill="#EDAB52"/>
<path d="M41.4066 11.0469H38.3593V14.1263H41.4066V11.0469Z" fill="#EDAB52"/>
<path d="M38.3617 11.0469H35.3144V14.1263H38.3617V11.0469Z" fill="#EDAC52"/>
<path d="M35.3144 11.0469H32.2671V14.1263H35.3144V11.0469Z" fill="#EDAC52"/>
<path d="M32.2671 11.0469H29.2198V14.1263H32.2671V11.0469Z" fill="#ECAB52"/>
<path d="M29.2222 11.0469H26.1749V14.1263H29.2222V11.0469Z" fill="#E17534"/>
<path d="M26.1749 11.0469H23.1276V14.1263H26.1749V11.0469Z" fill="#E17534"/>
<path d="M65.7803 7.96777H62.733V11.0472H65.7803V7.96777Z" fill="#E17534"/>
<path d="M62.7329 7.96777H59.6856V11.0472H62.7329V7.96777Z" fill="#E17534"/>
<path d="M59.6856 7.96777H56.6383V11.0472H59.6856V7.96777Z" fill="#E2853C"/>
<path d="M56.6408 7.96777H53.5934V11.0472H56.6408V7.96777Z" fill="#ECAB52"/>
<path d="M53.5935 7.96777H50.5461V11.0472H53.5935V7.96777Z" fill="#EDAC52"/>
<path d="M50.5462 7.96777H47.4988V11.0472H50.5462V7.96777Z" fill="#EDAB52"/>
<path d="M47.5012 7.96777H44.4539V11.0472H47.5012V7.96777Z" fill="#EDAB52"/>
<path d="M44.4539 7.96777H41.4066V11.0472H44.4539V7.96777Z" fill="#EDAB52"/>
<path d="M41.4066 7.96777H38.3593V11.0472H41.4066V7.96777Z" fill="#EDAC52"/>
<path d="M38.3617 7.96777H35.3144V11.0472H38.3617V7.96777Z" fill="#ECAB52"/>
<path d="M35.3144 7.96777H32.2671V11.0472H35.3144V7.96777Z" fill="#E17534"/>
<path d="M32.2671 7.96777H29.2198V11.0472H32.2671V7.96777Z" fill="#E17534"/>
<path d="M59.6856 4.88818H56.6383V7.96761H59.6856V4.88818Z" fill="#E17534"/>
<path d="M56.6408 4.88818H53.5934V7.96761H56.6408V4.88818Z" fill="#E17534"/>
<path d="M53.5935 4.88818H50.5461V7.96761H53.5935V4.88818Z" fill="#E17534"/>
<path d="M50.5462 4.88818H47.4988V7.96761H50.5462V4.88818Z" fill="#E17534"/>
<path d="M47.5012 4.88818H44.4539V7.96761H47.5012V4.88818Z" fill="#E17534"/>
<path d="M44.4539 4.88818H41.4066V7.96761H44.4539V4.88818Z" fill="#E17534"/>
<path d="M41.4066 4.88818H38.3593V7.96761H41.4066V4.88818Z" fill="#E17534"/>
<path d="M38.3617 4.88818H35.3144V7.96761H38.3617V4.88818Z" fill="#E17534"/>
</g>
<defs>
<clipPath id="clip0_1013_5937">
<rect width="95" height="96" fill="white"/>
</clipPath>
</defs>
</svg>
