<?xml version="1.0" encoding="UTF-8"?>
<svg id="Layer_2" data-name="Layer 2" xmlns="http://www.w3.org/2000/svg" viewBox="0 0 1405.24 930.7">
  <defs>
    <style>
      .cls-1 {
        fill: #6d6d6d;
      }

      .cls-2 {
        fill: #0a0a0a;
      }

      .cls-3 {
        fill: #36b44a;
      }

      .cls-4 {
        fill: #07090a;
      }

      .cls-5 {
        fill: #e84e2e;
      }

      .cls-6 {
        fill: #ea5a3e;
      }

      .cls-7 {
        fill: #a3a3a3;
      }

      .cls-8 {
        fill: #e85a3e;
      }

      .cls-9 {
        fill: #080809;
      }

      .cls-10 {
        fill: #e0efdc;
      }

      .cls-11 {
        fill: #e74e2d;
      }

      .cls-12 {
        fill: #080909;
      }

      .cls-13 {
        fill: #070909;
      }

      .cls-14 {
        fill: #1fae4b;
      }

      .cls-15 {
        fill: #e64e2d;
      }

      .cls-16 {
        fill: #e74f2d;
      }

      .cls-17 {
        fill: #090909;
      }
    </style>
  </defs>
  <g id="Layer_2-2" data-name="Layer 2">
    <g>
      <rect class="cls-13" x="983.67" y="859.11" width="70.26" height="71.59"/>
      <rect class="cls-13" x="913.41" y="859.11" width="70.26" height="71.59"/>
      <rect class="cls-13" x="843.15" y="859.11" width="70.26" height="71.59"/>
      <rect class="cls-13" x="772.88" y="859.11" width="70.26" height="71.59"/>
      <rect class="cls-13" x="702.62" y="859.11" width="70.26" height="71.59"/>
      <rect class="cls-17" x="632.36" y="859.11" width="70.26" height="71.59"/>
      <rect class="cls-13" x="562.1" y="859.11" width="70.26" height="71.59"/>
      <rect class="cls-13" x="491.84" y="859.11" width="70.26" height="71.59"/>
      <rect class="cls-13" x="421.57" y="859.11" width="70.26" height="71.59"/>
      <rect class="cls-13" x="351.31" y="859.11" width="70.26" height="71.59"/>
      <rect class="cls-13" x="1053.93" y="787.51" width="70.26" height="71.59"/>
      <rect class="cls-1" x="983.67" y="787.51" width="70.26" height="71.59"/>
      <rect class="cls-1" x="913.41" y="787.51" width="70.26" height="71.59"/>
      <rect class="cls-1" x="843.15" y="787.51" width="70.26" height="71.59"/>
      <rect class="cls-1" x="772.88" y="787.51" width="70.26" height="71.59"/>
      <rect class="cls-1" x="702.62" y="787.51" width="70.26" height="71.59"/>
      <rect class="cls-1" x="632.36" y="787.51" width="70.26" height="71.59"/>
      <rect class="cls-1" x="562.1" y="787.51" width="70.26" height="71.59"/>
      <rect class="cls-1" x="491.84" y="787.51" width="70.26" height="71.59"/>
      <rect class="cls-1" x="421.57" y="787.51" width="70.26" height="71.59"/>
      <rect class="cls-1" x="351.31" y="787.51" width="70.26" height="71.59"/>
      <rect x="281.05" y="787.51" width="70.26" height="71.59"/>
      <rect class="cls-13" x="1124.19" y="715.92" width="70.26" height="71.59"/>
      <rect class="cls-7" x="1053.93" y="715.92" width="70.26" height="71.59"/>
      <rect class="cls-7" x="983.67" y="715.92" width="70.26" height="71.59"/>
      <rect class="cls-7" x="913.41" y="715.92" width="70.26" height="71.59"/>
      <rect class="cls-7" x="843.15" y="715.92" width="70.26" height="71.59"/>
      <rect class="cls-7" x="772.88" y="715.92" width="70.26" height="71.59"/>
      <rect class="cls-7" x="702.62" y="715.92" width="70.26" height="71.59"/>
      <rect class="cls-7" x="632.36" y="715.92" width="70.26" height="71.59"/>
      <rect class="cls-7" x="562.1" y="715.92" width="70.26" height="71.59"/>
      <rect class="cls-7" x="491.84" y="715.92" width="70.26" height="71.59"/>
      <rect class="cls-7" x="421.57" y="715.92" width="70.26" height="71.59"/>
      <rect class="cls-7" x="351.31" y="715.92" width="70.26" height="71.59"/>
      <rect class="cls-7" x="281.05" y="715.92" width="70.26" height="71.59"/>
      <rect class="cls-13" x="210.79" y="715.92" width="70.26" height="71.59"/>
      <rect x="1264.72" y="644.33" width="70.26" height="71.59"/>
      <rect x="1194.46" y="644.33" width="70.26" height="71.59"/>
      <rect class="cls-13" x="1124.19" y="644.33" width="70.26" height="71.59"/>
      <rect class="cls-7" x="1053.93" y="644.33" width="70.26" height="71.59"/>
      <rect class="cls-7" x="983.67" y="644.33" width="70.26" height="71.59"/>
      <rect class="cls-7" x="913.41" y="644.33" width="70.26" height="71.59"/>
      <rect class="cls-7" x="843.15" y="644.33" width="70.26" height="71.59"/>
      <rect class="cls-7" x="772.88" y="644.33" width="70.26" height="71.59"/>
      <rect class="cls-7" x="702.62" y="644.33" width="70.26" height="71.59"/>
      <rect class="cls-7" x="632.36" y="644.33" width="70.26" height="71.59"/>
      <rect class="cls-7" x="562.1" y="644.33" width="70.26" height="71.59"/>
      <rect class="cls-7" x="491.84" y="644.33" width="70.26" height="71.59"/>
      <rect class="cls-7" x="421.57" y="644.33" width="70.26" height="71.59"/>
      <rect class="cls-7" x="351.31" y="644.33" width="70.26" height="71.59"/>
      <rect class="cls-7" x="281.05" y="644.33" width="70.26" height="71.59"/>
      <rect class="cls-13" x="210.79" y="644.33" width="70.26" height="71.59"/>
      <rect x="140.52" y="644.33" width="70.26" height="71.59"/>
      <rect x="70.26" y="644.33" width="70.26" height="71.59"/>
      <rect class="cls-4" x="1334.98" y="572.74" width="70.26" height="71.59"/>
      <rect class="cls-11" x="1264.72" y="572.74" width="70.26" height="71.59"/>
      <rect class="cls-16" x="1194.46" y="572.74" width="70.26" height="71.59"/>
      <rect class="cls-13" x="1124.19" y="572.74" width="70.26" height="71.59"/>
      <rect class="cls-7" x="1053.93" y="572.74" width="70.26" height="71.59"/>
      <rect class="cls-7" x="983.67" y="572.74" width="70.26" height="71.59"/>
      <rect class="cls-13" x="913.41" y="572.74" width="70.26" height="71.59"/>
      <rect class="cls-13" x="843.15" y="572.74" width="70.26" height="71.59"/>
      <rect class="cls-7" x="772.88" y="572.74" width="70.26" height="71.59"/>
      <rect class="cls-7" x="702.62" y="572.74" width="70.26" height="71.59"/>
      <rect class="cls-7" x="632.36" y="572.74" width="70.26" height="71.59"/>
      <rect class="cls-7" x="562.1" y="572.74" width="70.26" height="71.59"/>
      <rect class="cls-13" x="491.84" y="572.74" width="70.26" height="71.59"/>
      <rect class="cls-13" x="421.57" y="572.74" width="70.26" height="71.59"/>
      <rect class="cls-7" x="351.31" y="572.74" width="70.26" height="71.59"/>
      <rect class="cls-7" x="281.05" y="572.74" width="70.26" height="71.59"/>
      <rect class="cls-4" x="210.79" y="572.74" width="70.26" height="71.59"/>
      <rect class="cls-16" x="140.52" y="572.74" width="70.26" height="71.59"/>
      <rect class="cls-11" x="70.26" y="572.74" width="70.26" height="71.59"/>
      <rect class="cls-4" y="572.74" width="70.26" height="71.59"/>
      <rect class="cls-13" x="1334.98" y="501.14" width="70.26" height="71.59"/>
      <rect class="cls-15" x="1264.72" y="501.14" width="70.26" height="71.59"/>
      <rect class="cls-8" x="1194.46" y="501.14" width="70.26" height="71.59"/>
      <rect class="cls-13" x="1124.19" y="501.14" width="70.26" height="71.59"/>
      <rect class="cls-7" x="1053.93" y="501.14" width="70.26" height="71.59"/>
      <rect class="cls-13" x="983.67" y="501.14" width="70.26" height="71.59"/>
      <rect class="cls-3" x="913.41" y="501.14" width="70.26" height="71.59"/>
      <rect class="cls-14" x="843.15" y="501.14" width="70.26" height="71.59"/>
      <rect class="cls-13" x="772.88" y="501.14" width="70.26" height="71.59"/>
      <rect class="cls-7" x="702.62" y="501.14" width="70.26" height="71.59"/>
      <rect class="cls-7" x="632.36" y="501.14" width="70.26" height="71.59"/>
      <rect class="cls-13" x="562.1" y="501.14" width="70.26" height="71.59"/>
      <rect class="cls-3" x="491.84" y="501.14" width="70.26" height="71.59"/>
      <rect class="cls-14" x="421.57" y="501.14" width="70.26" height="71.59"/>
      <rect class="cls-13" x="351.31" y="501.14" width="70.26" height="71.59"/>
      <rect class="cls-7" x="281.05" y="501.14" width="70.26" height="71.59"/>
      <rect class="cls-13" x="210.79" y="501.14" width="70.26" height="71.59"/>
      <rect class="cls-8" x="140.52" y="501.14" width="70.26" height="71.59"/>
      <rect class="cls-15" x="70.26" y="501.14" width="70.26" height="71.59"/>
      <rect class="cls-13" y="501.14" width="70.26" height="71.59"/>
      <rect class="cls-13" x="1334.98" y="429.55" width="70.26" height="71.59"/>
      <rect class="cls-15" x="1264.72" y="429.55" width="70.26" height="71.59"/>
      <rect class="cls-8" x="1194.46" y="429.55" width="70.26" height="71.59"/>
      <rect class="cls-13" x="1124.19" y="429.55" width="70.26" height="71.59"/>
      <rect class="cls-7" x="1053.93" y="429.55" width="70.26" height="71.59"/>
      <rect class="cls-13" x="983.67" y="429.55" width="70.26" height="71.59"/>
      <rect class="cls-10" x="913.41" y="429.55" width="70.26" height="71.59"/>
      <rect class="cls-3" x="843.15" y="429.55" width="70.26" height="71.59"/>
      <rect class="cls-13" x="772.88" y="429.55" width="70.26" height="71.59"/>
      <rect class="cls-7" x="702.62" y="429.55" width="70.26" height="71.59"/>
      <rect class="cls-7" x="632.36" y="429.55" width="70.26" height="71.59"/>
      <rect class="cls-13" x="562.1" y="429.55" width="70.26" height="71.59"/>
      <rect class="cls-10" x="491.84" y="429.55" width="70.26" height="71.59"/>
      <rect class="cls-3" x="421.57" y="429.55" width="70.26" height="71.59"/>
      <rect class="cls-13" x="351.31" y="429.55" width="70.26" height="71.59"/>
      <rect class="cls-7" x="281.05" y="429.55" width="70.26" height="71.59"/>
      <rect class="cls-13" x="210.79" y="429.55" width="70.26" height="71.59"/>
      <rect class="cls-8" x="140.52" y="429.55" width="70.26" height="71.59"/>
      <rect class="cls-15" x="70.26" y="429.55" width="70.26" height="71.59"/>
      <rect class="cls-13" y="429.55" width="70.26" height="71.59"/>
      <rect class="cls-13" x="1334.98" y="357.96" width="70.26" height="71.59"/>
      <rect class="cls-5" x="1264.72" y="357.96" width="70.26" height="71.59"/>
      <rect class="cls-6" x="1194.46" y="357.96" width="70.26" height="71.59"/>
      <rect class="cls-13" x="1124.19" y="357.96" width="70.26" height="71.59"/>
      <rect class="cls-7" x="1053.93" y="357.96" width="70.26" height="71.59"/>
      <rect class="cls-7" x="983.67" y="357.96" width="70.26" height="71.59"/>
      <rect class="cls-13" x="913.41" y="357.96" width="70.26" height="71.59"/>
      <rect class="cls-13" x="843.15" y="357.96" width="70.26" height="71.59"/>
      <rect class="cls-7" x="772.88" y="357.96" width="70.26" height="71.59"/>
      <rect class="cls-7" x="702.62" y="357.96" width="70.26" height="71.59"/>
      <rect class="cls-7" x="632.36" y="357.96" width="70.26" height="71.59"/>
      <rect class="cls-7" x="562.1" y="357.96" width="70.26" height="71.59"/>
      <rect class="cls-13" x="491.84" y="357.96" width="70.26" height="71.59"/>
      <rect class="cls-13" x="421.57" y="357.96" width="70.26" height="71.59"/>
      <rect class="cls-7" x="351.31" y="357.96" width="70.26" height="71.59"/>
      <rect class="cls-7" x="281.05" y="357.96" width="70.26" height="71.59"/>
      <rect class="cls-4" x="210.79" y="357.96" width="70.26" height="71.59"/>
      <rect class="cls-6" x="140.52" y="357.96" width="70.26" height="71.59"/>
      <rect class="cls-5" x="70.26" y="357.96" width="70.26" height="71.59"/>
      <rect class="cls-13" y="357.96" width="70.26" height="71.59"/>
      <rect class="cls-13" x="1264.72" y="286.37" width="70.26" height="71.59"/>
      <rect class="cls-9" x="1194.46" y="286.37" width="70.26" height="71.59"/>
      <rect class="cls-13" x="1124.19" y="286.37" width="70.26" height="71.59"/>
      <rect class="cls-7" x="1053.93" y="286.37" width="70.26" height="71.59"/>
      <rect class="cls-7" x="983.67" y="286.37" width="70.26" height="71.59"/>
      <rect class="cls-7" x="913.41" y="286.37" width="70.26" height="71.59"/>
      <rect class="cls-7" x="843.15" y="286.37" width="70.26" height="71.59"/>
      <rect class="cls-7" x="772.88" y="286.37" width="70.26" height="71.59"/>
      <rect class="cls-7" x="702.62" y="286.37" width="70.26" height="71.59"/>
      <rect class="cls-7" x="632.36" y="286.37" width="70.26" height="71.59"/>
      <rect class="cls-7" x="562.1" y="286.37" width="70.26" height="71.59"/>
      <rect class="cls-7" x="491.84" y="286.37" width="70.26" height="71.59"/>
      <rect class="cls-7" x="421.57" y="286.37" width="70.26" height="71.59"/>
      <rect class="cls-7" x="351.31" y="286.37" width="70.26" height="71.59"/>
      <rect class="cls-7" x="281.05" y="286.37" width="70.26" height="71.59"/>
      <rect class="cls-13" x="210.79" y="286.37" width="70.26" height="71.59"/>
      <rect class="cls-12" x="140.52" y="286.37" width="70.26" height="71.59"/>
      <rect class="cls-13" x="70.26" y="286.37" width="70.26" height="71.59"/>
      <rect class="cls-13" x="1264.72" y="214.78" width="70.26" height="71.59"/>
      <rect class="cls-13" x="1053.93" y="214.78" width="70.26" height="71.59"/>
      <rect class="cls-7" x="983.67" y="214.78" width="70.26" height="71.59"/>
      <rect class="cls-7" x="913.41" y="214.78" width="70.26" height="71.59"/>
      <rect class="cls-7" x="843.15" y="214.78" width="70.26" height="71.59"/>
      <rect class="cls-7" x="772.88" y="214.78" width="70.26" height="71.59"/>
      <rect class="cls-7" x="702.62" y="214.78" width="70.26" height="71.59"/>
      <rect class="cls-7" x="632.36" y="214.78" width="70.26" height="71.59"/>
      <rect class="cls-7" x="562.1" y="214.78" width="70.26" height="71.59"/>
      <rect class="cls-7" x="491.84" y="214.78" width="70.26" height="71.59"/>
      <rect class="cls-7" x="421.57" y="214.78" width="70.26" height="71.59"/>
      <rect class="cls-7" x="351.31" y="214.78" width="70.26" height="71.59"/>
      <rect class="cls-7" x="281.05" y="214.78" width="70.26" height="71.59"/>
      <rect x="210.79" y="214.78" width="70.26" height="71.59"/>
      <rect class="cls-13" x="70.26" y="214.78" width="70.26" height="71.59"/>
      <rect class="cls-13" x="1264.72" y="143.18" width="70.26" height="71.59"/>
      <rect class="cls-13" x="983.67" y="143.18" width="70.26" height="71.59"/>
      <rect class="cls-13" x="913.41" y="143.18" width="70.26" height="71.59"/>
      <rect class="cls-13" x="843.15" y="143.18" width="70.26" height="71.59"/>
      <rect class="cls-13" x="772.88" y="143.18" width="70.26" height="71.59"/>
      <rect class="cls-4" x="702.62" y="143.18" width="70.26" height="71.59"/>
      <rect class="cls-2" x="632.36" y="143.18" width="70.26" height="71.59"/>
      <rect class="cls-13" x="562.1" y="143.18" width="70.26" height="71.59"/>
      <rect class="cls-13" x="491.84" y="143.18" width="70.26" height="71.59"/>
      <rect class="cls-13" x="421.57" y="143.18" width="70.26" height="71.59"/>
      <rect class="cls-13" x="351.31" y="143.18" width="70.26" height="71.59"/>
      <rect class="cls-17" x="281.05" y="143.18" width="70.26" height="71.59"/>
      <rect class="cls-13" x="70.26" y="143.18" width="70.26" height="71.59"/>
      <rect class="cls-13" x="1264.72" y="71.59" width="70.26" height="71.59"/>
      <rect class="cls-13" x="70.26" y="71.59" width="70.26" height="71.59"/>
      <rect class="cls-13" x="1334.98" width="70.26" height="71.59"/>
      <rect class="cls-13" width="70.26" height="71.59"/>
    </g>
  </g>
</svg>