<svg width="42" height="42" viewBox="0 0 42 42" fill="none" xmlns="http://www.w3.org/2000/svg">
<path d="M10.4829 16.1384C10.4829 14.6383 11.0788 13.1997 12.1395 12.139C13.2002 11.0783 14.6388 10.4824 16.1389 10.4824H34.517C35.2598 10.4824 35.9953 10.6287 36.6815 10.913C37.3677 11.1972 37.9912 11.6138 38.5164 12.139C39.0416 12.6642 39.4582 13.2877 39.7425 13.9739C40.0267 14.6602 40.173 15.3956 40.173 16.1384V34.5165C40.173 35.2593 40.0267 35.9948 39.7425 36.681C39.4582 37.3672 39.0416 37.9907 38.5164 38.5159C37.9912 39.0411 37.3677 39.4577 36.6815 39.742C35.9953 40.0262 35.2598 40.1725 34.517 40.1725H16.1389C15.3961 40.1725 14.6606 40.0262 13.9744 39.742C13.2882 39.4577 12.6647 39.0411 12.1395 38.5159C11.6143 37.9907 11.1977 37.3672 10.9134 36.681C10.6292 35.9948 10.4829 35.2593 10.4829 34.5165V16.1384Z" stroke="#FEF3F7" stroke-width="3.21026" stroke-linecap="round" stroke-linejoin="round"/>
<path d="M4.14617 31.1323C3.49511 30.7624 2.95358 30.2267 2.57662 29.5797C2.19967 28.9327 2.00072 28.1975 2 27.4486V6.24144C2 3.90865 3.90865 2 6.24144 2H27.4486C29.0392 2 29.9044 2.81648 30.6297 4.12072" stroke="#FEF3F7" stroke-width="3.21026" stroke-linecap="round" stroke-linejoin="round"/>
</svg>
