<svg width="69" height="72" viewBox="0 0 69 72" fill="none" xmlns="http://www.w3.org/2000/svg">
<path d="M58.3147 35.7229H46.2362C45.5186 35.7221 44.8192 35.9592 44.2389 36.4C43.6587 36.8407 43.2276 37.4623 43.0077 38.1752C42.4311 40.0559 41.296 41.6962 39.7666 42.859C38.2372 44.0218 36.393 44.6466 34.5007 44.643C32.6085 44.6466 30.7642 44.0218 29.2348 42.859C27.7055 41.6962 26.5703 40.0559 25.9937 38.1752C25.7729 37.4627 25.3413 36.8415 24.761 36.4009C24.1807 35.9603 23.4815 35.7229 22.7638 35.7229H10.6854C9.78525 35.7231 8.92205 36.0963 8.28557 36.7604C7.64909 37.4246 7.29144 38.3253 7.29126 39.2646V59.4635C7.29181 60.4025 7.64962 61.3028 8.28606 61.9667C8.9225 62.6305 9.78549 63.0035 10.6854 63.0037H58.3147C59.2146 63.0035 60.0776 62.6305 60.714 61.9667C61.3504 61.3028 61.7082 60.4025 61.7088 59.4635V39.2646C61.7088 37.3069 60.1908 35.7229 58.3147 35.7229Z" fill="white"/>
<path d="M33.7879 37.6106C33.9583 37.8597 34.2371 38.0087 34.5303 38.0087H34.5324C34.8277 38.0087 35.1023 37.8597 35.2748 37.607L44.6616 23.8312C44.7581 23.6883 44.8153 23.5206 44.827 23.3462C44.8387 23.1718 44.8044 22.9974 44.7278 22.8419C44.6511 22.6863 44.5346 22.5558 44.3913 22.4649C44.248 22.3739 44.0834 22.326 43.9157 22.3264H39.5004V9.95106C39.5004 9.42186 39.0912 8.99634 38.5875 8.99634H30.4138C29.9087 8.99634 29.5009 9.42186 29.5009 9.95106V22.3264H25.0822C24.9147 22.3267 24.7505 22.375 24.6076 22.4661C24.4647 22.5572 24.3486 22.6876 24.2719 22.843C24.1952 22.9983 24.161 23.1727 24.173 23.347C24.1849 23.5213 24.2426 23.6888 24.3397 23.8312L33.7879 37.6106Z" fill="white"/>
</svg>
