<svg width="376" height="373" viewBox="0 0 376 373" fill="none" xmlns="http://www.w3.org/2000/svg">
<g clip-path="url(#clip0_596_7833)">
<g filter="url(#filter0_d_596_7833)">
<path d="M192 365.064H184V373H192V365.064Z" fill="#E62E5A"/>
<path d="M200 357.128H192V365.064H200V357.128Z" fill="#E62E5A"/>
<path d="M184 357.128H176V365.064H184V357.128Z" fill="#E62E5A"/>
<path d="M208 349.191H200V357.128H208V349.191Z" fill="#E62E5A"/>
<path d="M176 349.191H168V357.128H176V349.191Z" fill="#E62E5A"/>
<path d="M216 341.255H208V349.192H216V341.255Z" fill="#E62E5A"/>
<path d="M168 341.255H160V349.192H168V341.255Z" fill="#E62E5A"/>
<path d="M224 333.319H216V341.255H224V333.319Z" fill="#E62E5A"/>
<path d="M160 333.319H152V341.255H160V333.319Z" fill="#E62E5A"/>
<path d="M232 325.383H224V333.319H232V325.383Z" fill="#E62E5A"/>
<path d="M152 325.383H144V333.319H152V325.383Z" fill="#E62E5A"/>
<path d="M240 317.447H232V325.383H240V317.447Z" fill="#E62E5A"/>
<path d="M144 317.447H136V325.383H144V317.447Z" fill="#E62E5A"/>
<path d="M248 309.511H240V317.447H248V309.511Z" fill="#E62E5A"/>
<path d="M136 309.511H128V317.447H136V309.511Z" fill="#E62E5A"/>
<path d="M256 301.574H248V309.511H256V301.574Z" fill="#E62E5A"/>
<path d="M128 301.574H120V309.511H128V301.574Z" fill="#E62E5A"/>
<path d="M264 293.638H256V301.574H264V293.638Z" fill="#E62E5A"/>
<path d="M120 293.638H112V301.574H120V293.638Z" fill="#E62E5A"/>
<path d="M272 285.702H264V293.638H272V285.702Z" fill="#E62E5A"/>
<path d="M112 285.702H104V293.638H112V285.702Z" fill="#E62E5A"/>
<path d="M280 277.766H272V285.702H280V277.766Z" fill="#E62E5A"/>
<path d="M104 277.766H96V285.702H104V277.766Z" fill="#E62E5A"/>
<path d="M288 269.83H280V277.766H288V269.83Z" fill="#E62E5A"/>
<path d="M96 269.83H88V277.766H96V269.83Z" fill="#E62E5A"/>
<path d="M296 261.894H288V269.83H296V261.894Z" fill="#E62E5A"/>
<path d="M88 261.894H80V269.83H88V261.894Z" fill="#E62E5A"/>
<path d="M304 253.958H296V261.894H304V253.958Z" fill="#E62E5A"/>
<path d="M80 253.958H72V261.894H80V253.958Z" fill="#E62E5A"/>
<path d="M312 246.021H304V253.957H312V246.021Z" fill="#E62E5A"/>
<path d="M72 246.021H64V253.957H72V246.021Z" fill="#E62E5A"/>
<path d="M320 238.085H312V246.021H320V238.085Z" fill="#E62E5A"/>
<path d="M64 238.085H56V246.021H64V238.085Z" fill="#E62E5A"/>
<path d="M328 230.149H320V238.085H328V230.149Z" fill="#E62E5A"/>
<path d="M56 230.149H48V238.085H56V230.149Z" fill="#E62E5A"/>
<path d="M336 222.213H328V230.149H336V222.213Z" fill="#E62E5A"/>
<path d="M48 222.213H40V230.149H48V222.213Z" fill="#E62E5A"/>
<path d="M344 214.277H336V222.213H344V214.277Z" fill="#E62E5A"/>
<path d="M40 214.277H32V222.213H40V214.277Z" fill="#E62E5A"/>
<path d="M352 206.34H344V214.276H352V206.34Z" fill="#E62E5A"/>
<path d="M32 206.34H24V214.276H32V206.34Z" fill="#E62E5A"/>
<path d="M360 198.404H352V206.34H360V198.404Z" fill="#E62E5A"/>
<path d="M24 198.404H16V206.34H24V198.404Z" fill="#E62E5A"/>
<path d="M368 190.468H360V198.404H368V190.468Z" fill="#E62E5A"/>
<path d="M16 190.468H8V198.404H16V190.468Z" fill="#E62E5A"/>
<path d="M376 182.532H368V190.468H376V182.532Z" fill="#E62E5A"/>
<path d="M8 182.532H0V190.468H8V182.532Z" fill="#E62E5A"/>
<path d="M376 174.596H368V182.532H376V174.596Z" fill="#E62E5A"/>
<path d="M16 174.596H8V182.532H16V174.596Z" fill="#E62E5A"/>
<path d="M368 166.66H360V174.596H368V166.66Z" fill="#E62E5A"/>
<path d="M24 166.66H16V174.596H24V166.66Z" fill="#E62E5A"/>
<path d="M360 158.723H352V166.66H360V158.723Z" fill="#E62E5A"/>
<path d="M32 158.723H24V166.66H32V158.723Z" fill="#E62E5A"/>
<path d="M352 150.787H344V158.723H352V150.787Z" fill="#E62E5A"/>
<path d="M40 150.787H32V158.723H40V150.787Z" fill="#E62E5A"/>
<path d="M344 142.851H336V150.787H344V142.851Z" fill="#E62E5A"/>
<path d="M48 142.851H40V150.787H48V142.851Z" fill="#E62E5A"/>
<path d="M336 134.915H328V142.851H336V134.915Z" fill="#E62E5A"/>
<path d="M56 134.915H48V142.851H56V134.915Z" fill="#E62E5A"/>
<path d="M328 126.979H320V134.915H328V126.979Z" fill="#E62E5A"/>
<path d="M64 126.979H56V134.915H64V126.979Z" fill="#E62E5A"/>
<path d="M320 119.042H312V126.979H320V119.042Z" fill="#E62E5A"/>
<path d="M72 119.042H64V126.979H72V119.042Z" fill="#E62E5A"/>
<path d="M312 111.106H304V119.043H312V111.106Z" fill="#E62E5A"/>
<path d="M80 111.106H72V119.043H80V111.106Z" fill="#E62E5A"/>
<path d="M304 103.17H296V111.106H304V103.17Z" fill="#E62E5A"/>
<path d="M88 103.17H80V111.106H88V103.17Z" fill="#E62E5A"/>
<path d="M296 95.2341H288V103.17H296V95.2341Z" fill="#E62E5A"/>
<path d="M96 95.2341H88V103.17H96V95.2341Z" fill="#E62E5A"/>
<path d="M288 87.2979H280V95.234H288V87.2979Z" fill="#E62E5A"/>
<path d="M104 87.2979H96V95.234H104V87.2979Z" fill="#E62E5A"/>
<path d="M280 79.3618H272V87.298H280V79.3618Z" fill="#E62E5A"/>
<path d="M112 79.3618H104V87.298H112V79.3618Z" fill="#E62E5A"/>
<path d="M272 71.4255H264V79.3617H272V71.4255Z" fill="#E62E5A"/>
<path d="M120 71.4255H112V79.3617H120V71.4255Z" fill="#E62E5A"/>
<path d="M264 63.4893H256V71.4254H264V63.4893Z" fill="#E62E5A"/>
<path d="M128 63.4893H120V71.4254H128V63.4893Z" fill="#E62E5A"/>
<path d="M256 55.5532H248V63.4894H256V55.5532Z" fill="#E62E5A"/>
<path d="M136 55.5532H128V63.4894H136V55.5532Z" fill="#E62E5A"/>
<path d="M248 47.6169H240V55.5531H248V47.6169Z" fill="#E62E5A"/>
<path d="M144 47.6169H136V55.5531H144V47.6169Z" fill="#E62E5A"/>
<path d="M240 39.6809H232V47.6171H240V39.6809Z" fill="#E62E5A"/>
<path d="M152 39.6809H144V47.6171H152V39.6809Z" fill="#E62E5A"/>
<path d="M232 31.7446H224V39.6808H232V31.7446Z" fill="#E62E5A"/>
<path d="M160 31.7446H152V39.6808H160V31.7446Z" fill="#E62E5A"/>
<path d="M224 23.8086H216V31.7448H224V23.8086Z" fill="#E62E5A"/>
<path d="M168 23.8086H160V31.7448H168V23.8086Z" fill="#E62E5A"/>
<path d="M216 15.8723H208V23.8085H216V15.8723Z" fill="#E62E5A"/>
<path d="M176 15.8723H168V23.8085H176V15.8723Z" fill="#E62E5A"/>
<path d="M208 7.93604H200V15.8722H208V7.93604Z" fill="#E62E5A"/>
<path d="M184 7.93604H176V15.8722H184V7.93604Z" fill="#E62E5A"/>
<path d="M200 0H192V7.93617H200V0Z" fill="#E62E5A"/>
<path d="M192 0H184V7.93617H192V0Z" fill="#E62E5A"/>
</g>
<rect x="192" y="-0.644287" width="258.307" height="264.894" transform="rotate(45 192 -0.644287)" fill="#E62E5A"/>
<path d="M80.48 198C80.224 198 80 197.915 79.808 197.744C79.6373 197.552 79.552 197.328 79.552 197.072V177.584C79.552 177.349 79.6373 177.136 79.808 176.944C80 176.752 80.224 176.656 80.48 176.656H89.312C89.5467 176.656 89.7493 176.752 89.92 176.944C90.112 177.136 90.208 177.349 90.208 177.584V179.312C90.208 179.547 90.112 179.76 89.92 179.952C89.7493 180.123 89.5467 180.208 89.312 180.208H84.032C83.7973 180.208 83.584 180.304 83.392 180.496C83.2 180.688 83.104 180.901 83.104 181.136V182.864C83.104 183.099 83.2 183.312 83.392 183.504C83.584 183.696 83.7973 183.792 84.032 183.792H89.312C89.5467 183.792 89.7493 183.888 89.92 184.08C90.112 184.251 90.208 184.453 90.208 184.688V186.416C90.208 186.651 90.112 186.864 89.92 187.056C89.7493 187.248 89.5467 187.344 89.312 187.344H84.032C83.7973 187.344 83.584 187.44 83.392 187.632C83.2 187.803 83.104 188.016 83.104 188.272V193.52C83.104 193.776 83.2 194 83.392 194.192C83.584 194.363 83.7973 194.448 84.032 194.448H89.312C89.5467 194.448 89.7493 194.544 89.92 194.736C90.112 194.907 90.208 195.12 90.208 195.376V197.072C90.208 197.328 90.112 197.552 89.92 197.744C89.7493 197.915 89.5467 198 89.312 198H80.48ZM98.2613 198C98.0053 198 97.7813 197.915 97.5893 197.744C97.4186 197.552 97.3333 197.328 97.3333 197.072V181.136C97.3333 180.901 97.4186 180.688 97.5893 180.496C97.7813 180.304 98.0053 180.208 98.2613 180.208H103.509C103.765 180.208 103.979 180.304 104.149 180.496C104.341 180.688 104.437 180.901 104.437 181.136V182.864C104.437 183.099 104.533 183.312 104.725 183.504C104.917 183.696 105.131 183.792 105.365 183.792H107.093C107.328 183.792 107.531 183.696 107.701 183.504C107.893 183.312 107.989 183.099 107.989 182.864V181.136C107.989 180.901 108.085 180.688 108.277 180.496C108.469 180.304 108.683 180.208 108.917 180.208H110.645C110.88 180.208 111.093 180.304 111.285 180.496C111.477 180.688 111.573 180.901 111.573 181.136V182.864C111.573 183.099 111.659 183.312 111.829 183.504C112.021 183.696 112.235 183.792 112.469 183.792H114.197C114.432 183.792 114.645 183.888 114.837 184.08C115.029 184.251 115.125 184.453 115.125 184.688V197.072C115.125 197.328 115.029 197.552 114.837 197.744C114.645 197.915 114.432 198 114.197 198H112.469C112.235 198 112.021 197.915 111.829 197.744C111.659 197.552 111.573 197.328 111.573 197.072V184.688C111.573 184.453 111.477 184.251 111.285 184.08C111.093 183.888 110.88 183.792 110.645 183.792H108.917C108.683 183.792 108.469 183.888 108.277 184.08C108.085 184.251 107.989 184.453 107.989 184.688V197.072C107.989 197.328 107.893 197.552 107.701 197.744C107.531 197.915 107.328 198 107.093 198H105.365C105.131 198 104.917 197.915 104.725 197.744C104.533 197.552 104.437 197.328 104.437 197.072V184.688C104.437 184.453 104.341 184.251 104.149 184.08C103.979 183.888 103.765 183.792 103.509 183.792H101.813C101.579 183.792 101.365 183.888 101.173 184.08C100.981 184.251 100.885 184.453 100.885 184.688V197.072C100.885 197.328 100.789 197.552 100.597 197.744C100.427 197.915 100.213 198 99.9573 198H98.2613ZM126.72 198C126.485 198 126.272 197.915 126.08 197.744C125.888 197.552 125.792 197.328 125.792 197.072V195.376C125.792 195.12 125.696 194.907 125.504 194.736C125.333 194.544 125.12 194.448 124.864 194.448H123.168C122.912 194.448 122.688 194.363 122.496 194.192C122.325 194 122.24 193.776 122.24 193.52V184.688C122.24 184.453 122.325 184.251 122.496 184.08C122.688 183.888 122.912 183.792 123.168 183.792H124.864C125.12 183.792 125.333 183.696 125.504 183.504C125.696 183.312 125.792 183.099 125.792 182.864V181.136C125.792 180.901 125.888 180.688 126.08 180.496C126.272 180.304 126.485 180.208 126.72 180.208H132C132.234 180.208 132.437 180.304 132.608 180.496C132.8 180.688 132.896 180.901 132.896 181.136V182.864C132.896 183.099 132.992 183.312 133.184 183.504C133.376 183.696 133.589 183.792 133.824 183.792H135.552C135.786 183.792 136 183.888 136.192 184.08C136.384 184.251 136.48 184.453 136.48 184.688V193.52C136.48 193.776 136.384 194 136.192 194.192C136 194.363 135.786 194.448 135.552 194.448H133.824C133.589 194.448 133.376 194.544 133.184 194.736C132.992 194.907 132.896 195.12 132.896 195.376V197.072C132.896 197.328 132.8 197.552 132.608 197.744C132.437 197.915 132.234 198 132 198H126.72ZM132 194.448C132.234 194.448 132.437 194.363 132.608 194.192C132.8 194 132.896 193.776 132.896 193.52V184.688C132.896 184.453 132.8 184.251 132.608 184.08C132.437 183.888 132.234 183.792 132 183.792H126.72C126.485 183.792 126.272 183.888 126.08 184.08C125.888 184.251 125.792 184.453 125.792 184.688V193.52C125.792 193.776 125.888 194 126.08 194.192C126.272 194.363 126.485 194.448 126.72 194.448H132ZM148.063 198C147.829 198 147.615 197.915 147.423 197.744C147.231 197.552 147.135 197.328 147.135 197.072V195.376C147.135 195.12 147.039 194.907 146.847 194.736C146.677 194.544 146.463 194.448 146.207 194.448H144.511C144.255 194.448 144.031 194.363 143.839 194.192C143.669 194 143.583 193.776 143.583 193.52V184.688C143.583 184.453 143.487 184.251 143.295 184.08C143.125 183.888 142.911 183.792 142.655 183.792H140.959C140.703 183.792 140.479 183.696 140.287 183.504C140.117 183.312 140.031 183.099 140.031 182.864V181.136C140.031 180.901 140.117 180.688 140.287 180.496C140.479 180.304 140.703 180.208 140.959 180.208H142.655C142.911 180.208 143.125 180.123 143.295 179.952C143.487 179.76 143.583 179.547 143.583 179.312V177.584C143.583 177.349 143.669 177.136 143.839 176.944C144.031 176.752 144.255 176.656 144.511 176.656H146.207C146.463 176.656 146.677 176.752 146.847 176.944C147.039 177.136 147.135 177.349 147.135 177.584V179.312C147.135 179.547 147.231 179.76 147.423 179.952C147.615 180.123 147.829 180.208 148.063 180.208H149.759C150.015 180.208 150.229 180.304 150.399 180.496C150.591 180.688 150.687 180.901 150.687 181.136V182.864C150.687 183.099 150.591 183.312 150.399 183.504C150.229 183.696 150.015 183.792 149.759 183.792H148.063C147.829 183.792 147.615 183.888 147.423 184.08C147.231 184.251 147.135 184.453 147.135 184.688V193.52C147.135 193.776 147.231 194 147.423 194.192C147.615 194.363 147.829 194.448 148.063 194.448H149.759C150.015 194.448 150.229 194.544 150.399 194.736C150.591 194.907 150.687 195.12 150.687 195.376V197.072C150.687 197.328 150.591 197.552 150.399 197.744C150.229 197.915 150.015 198 149.759 198H148.063ZM158.73 176.656C158.474 176.656 158.25 176.571 158.058 176.4C157.887 176.208 157.802 175.984 157.802 175.728V174.032C157.802 173.797 157.887 173.584 158.058 173.392C158.25 173.2 158.474 173.104 158.73 173.104H160.426C160.682 173.104 160.895 173.2 161.066 173.392C161.258 173.584 161.354 173.797 161.354 174.032V175.728C161.354 175.984 161.258 176.208 161.066 176.4C160.895 176.571 160.682 176.656 160.426 176.656H158.73ZM158.73 198C158.474 198 158.25 197.915 158.058 197.744C157.887 197.552 157.802 197.328 157.802 197.072V181.136C157.802 180.901 157.887 180.688 158.058 180.496C158.25 180.304 158.474 180.208 158.73 180.208H160.426C160.682 180.208 160.895 180.304 161.066 180.496C161.258 180.688 161.354 180.901 161.354 181.136V197.072C161.354 197.328 161.258 197.552 161.066 197.744C160.895 197.915 160.682 198 160.426 198H158.73ZM172.938 198C172.704 198 172.49 197.915 172.298 197.744C172.106 197.552 172.01 197.328 172.01 197.072V195.376C172.01 195.12 171.914 194.907 171.722 194.736C171.552 194.544 171.338 194.448 171.082 194.448H169.386C169.13 194.448 168.906 194.363 168.714 194.192C168.544 194 168.458 193.776 168.458 193.52V184.688C168.458 184.453 168.544 184.251 168.714 184.08C168.906 183.888 169.13 183.792 169.386 183.792H171.082C171.338 183.792 171.552 183.696 171.722 183.504C171.914 183.312 172.01 183.099 172.01 182.864V181.136C172.01 180.901 172.106 180.688 172.298 180.496C172.49 180.304 172.704 180.208 172.938 180.208H178.218C178.453 180.208 178.656 180.304 178.826 180.496C179.018 180.688 179.114 180.901 179.114 181.136V182.864C179.114 183.099 179.21 183.312 179.402 183.504C179.594 183.696 179.808 183.792 180.042 183.792H181.77C182.005 183.792 182.218 183.888 182.41 184.08C182.602 184.251 182.698 184.453 182.698 184.688V189.968C182.698 190.203 182.602 190.416 182.41 190.608C182.218 190.8 182.005 190.896 181.77 190.896H172.938C172.704 190.896 172.49 190.992 172.298 191.184C172.106 191.355 172.01 191.568 172.01 191.824V193.52C172.01 193.776 172.106 194 172.298 194.192C172.49 194.363 172.704 194.448 172.938 194.448H178.218C178.453 194.448 178.656 194.544 178.826 194.736C179.018 194.907 179.114 195.12 179.114 195.376V197.072C179.114 197.328 179.018 197.552 178.826 197.744C178.656 197.915 178.453 198 178.218 198H172.938ZM178.218 187.344C178.453 187.344 178.656 187.248 178.826 187.056C179.018 186.864 179.114 186.651 179.114 186.416V184.688C179.114 184.453 179.018 184.251 178.826 184.08C178.656 183.888 178.453 183.792 178.218 183.792H172.938C172.704 183.792 172.49 183.888 172.298 184.08C172.106 184.251 172.01 184.453 172.01 184.688V186.416C172.01 186.651 172.106 186.864 172.298 187.056C172.49 187.248 172.704 187.344 172.938 187.344H178.218ZM201.386 198C201.13 198 200.906 197.915 200.714 197.744C200.544 197.552 200.458 197.328 200.458 197.072V181.136C200.458 180.901 200.544 180.688 200.714 180.496C200.906 180.304 201.13 180.208 201.386 180.208H206.634C206.89 180.208 207.104 180.304 207.274 180.496C207.466 180.688 207.562 180.901 207.562 181.136V182.864C207.562 183.099 207.658 183.312 207.85 183.504C208.042 183.696 208.256 183.792 208.49 183.792H210.218C210.453 183.792 210.656 183.696 210.826 183.504C211.018 183.312 211.114 183.099 211.114 182.864V181.136C211.114 180.901 211.21 180.688 211.402 180.496C211.594 180.304 211.808 180.208 212.042 180.208H213.77C214.005 180.208 214.218 180.304 214.41 180.496C214.602 180.688 214.698 180.901 214.698 181.136V182.864C214.698 183.099 214.784 183.312 214.954 183.504C215.146 183.696 215.36 183.792 215.594 183.792H217.322C217.557 183.792 217.77 183.888 217.962 184.08C218.154 184.251 218.25 184.453 218.25 184.688V197.072C218.25 197.328 218.154 197.552 217.962 197.744C217.77 197.915 217.557 198 217.322 198H215.594C215.36 198 215.146 197.915 214.954 197.744C214.784 197.552 214.698 197.328 214.698 197.072V184.688C214.698 184.453 214.602 184.251 214.41 184.08C214.218 183.888 214.005 183.792 213.77 183.792H212.042C211.808 183.792 211.594 183.888 211.402 184.08C211.21 184.251 211.114 184.453 211.114 184.688V197.072C211.114 197.328 211.018 197.552 210.826 197.744C210.656 197.915 210.453 198 210.218 198H208.49C208.256 198 208.042 197.915 207.85 197.744C207.658 197.552 207.562 197.328 207.562 197.072V184.688C207.562 184.453 207.466 184.251 207.274 184.08C207.104 183.888 206.89 183.792 206.634 183.792H204.938C204.704 183.792 204.49 183.888 204.298 184.08C204.106 184.251 204.01 184.453 204.01 184.688V197.072C204.01 197.328 203.914 197.552 203.722 197.744C203.552 197.915 203.338 198 203.082 198H201.386ZM235.125 194.448C235.359 194.448 235.562 194.363 235.733 194.192C235.925 194 236.021 193.776 236.021 193.52V184.688C236.021 184.453 235.925 184.251 235.733 184.08C235.562 183.888 235.359 183.792 235.125 183.792H229.845C229.61 183.792 229.397 183.888 229.205 184.08C229.013 184.251 228.917 184.453 228.917 184.688V193.52C228.917 193.776 229.013 194 229.205 194.192C229.397 194.363 229.61 194.448 229.845 194.448H235.125ZM229.845 198C229.61 198 229.397 197.915 229.205 197.744C229.013 197.552 228.917 197.328 228.917 197.072V195.376C228.917 195.12 228.821 194.907 228.629 194.736C228.458 194.544 228.245 194.448 227.989 194.448H226.293C226.037 194.448 225.813 194.363 225.621 194.192C225.45 194 225.365 193.776 225.365 193.52V184.688C225.365 184.453 225.45 184.251 225.621 184.08C225.813 183.888 226.037 183.792 226.293 183.792H227.989C228.245 183.792 228.458 183.696 228.629 183.504C228.821 183.312 228.917 183.099 228.917 182.864V181.136C228.917 180.901 229.013 180.688 229.205 180.496C229.397 180.304 229.61 180.208 229.845 180.208H238.677C238.911 180.208 239.125 180.304 239.317 180.496C239.509 180.688 239.605 180.901 239.605 181.136V197.072C239.605 197.328 239.509 197.552 239.317 197.744C239.125 197.915 238.911 198 238.677 198H229.845ZM247.636 198C247.38 198 247.156 197.915 246.964 197.744C246.794 197.552 246.708 197.328 246.708 197.072V174.032C246.708 173.797 246.794 173.584 246.964 173.392C247.156 173.2 247.38 173.104 247.636 173.104H249.332C249.588 173.104 249.802 173.2 249.972 173.392C250.164 173.584 250.26 173.797 250.26 174.032V186.416C250.26 186.651 250.356 186.864 250.548 187.056C250.74 187.248 250.954 187.344 251.188 187.344H252.884C253.14 187.344 253.354 187.248 253.524 187.056C253.716 186.864 253.812 186.651 253.812 186.416V184.688C253.812 184.453 253.908 184.251 254.1 184.08C254.292 183.888 254.506 183.792 254.74 183.792H256.468C256.703 183.792 256.906 183.696 257.076 183.504C257.268 183.312 257.364 183.099 257.364 182.864V181.136C257.364 180.901 257.46 180.688 257.652 180.496C257.844 180.304 258.058 180.208 258.292 180.208H260.02C260.255 180.208 260.468 180.304 260.66 180.496C260.852 180.688 260.948 180.901 260.948 181.136V182.864C260.948 183.099 260.852 183.312 260.66 183.504C260.468 183.696 260.255 183.792 260.02 183.792H258.292C258.058 183.792 257.844 183.888 257.652 184.08C257.46 184.251 257.364 184.453 257.364 184.688V186.416C257.364 186.651 257.268 186.864 257.076 187.056C256.906 187.248 256.703 187.344 256.468 187.344H254.74C254.506 187.344 254.292 187.44 254.1 187.632C253.908 187.803 253.812 188.016 253.812 188.272V189.968C253.812 190.203 253.908 190.416 254.1 190.608C254.292 190.8 254.506 190.896 254.74 190.896H256.468C256.703 190.896 256.906 190.992 257.076 191.184C257.268 191.355 257.364 191.568 257.364 191.824V193.52C257.364 193.776 257.46 194 257.652 194.192C257.844 194.363 258.058 194.448 258.292 194.448H260.02C260.255 194.448 260.468 194.544 260.66 194.736C260.852 194.907 260.948 195.12 260.948 195.376V197.072C260.948 197.328 260.852 197.552 260.66 197.744C260.468 197.915 260.255 198 260.02 198H258.292C258.058 198 257.844 197.915 257.652 197.744C257.46 197.552 257.364 197.328 257.364 197.072V195.376C257.364 195.12 257.268 194.907 257.076 194.736C256.906 194.544 256.703 194.448 256.468 194.448H254.74C254.506 194.448 254.292 194.363 254.1 194.192C253.908 194 253.812 193.776 253.812 193.52V191.824C253.812 191.568 253.716 191.355 253.524 191.184C253.354 190.992 253.14 190.896 252.884 190.896H251.188C250.954 190.896 250.74 190.992 250.548 191.184C250.356 191.355 250.26 191.568 250.26 191.824V197.072C250.26 197.328 250.164 197.552 249.972 197.744C249.802 197.915 249.588 198 249.332 198H247.636ZM272.532 198C272.297 198 272.084 197.915 271.892 197.744C271.7 197.552 271.604 197.328 271.604 197.072V195.376C271.604 195.12 271.508 194.907 271.316 194.736C271.145 194.544 270.932 194.448 270.676 194.448H268.98C268.724 194.448 268.5 194.363 268.308 194.192C268.137 194 268.052 193.776 268.052 193.52V184.688C268.052 184.453 268.137 184.251 268.308 184.08C268.5 183.888 268.724 183.792 268.98 183.792H270.676C270.932 183.792 271.145 183.696 271.316 183.504C271.508 183.312 271.604 183.099 271.604 182.864V181.136C271.604 180.901 271.7 180.688 271.892 180.496C272.084 180.304 272.297 180.208 272.532 180.208H277.812C278.047 180.208 278.249 180.304 278.42 180.496C278.612 180.688 278.708 180.901 278.708 181.136V182.864C278.708 183.099 278.804 183.312 278.996 183.504C279.188 183.696 279.401 183.792 279.636 183.792H281.364C281.599 183.792 281.812 183.888 282.004 184.08C282.196 184.251 282.292 184.453 282.292 184.688V189.968C282.292 190.203 282.196 190.416 282.004 190.608C281.812 190.8 281.599 190.896 281.364 190.896H272.532C272.297 190.896 272.084 190.992 271.892 191.184C271.7 191.355 271.604 191.568 271.604 191.824V193.52C271.604 193.776 271.7 194 271.892 194.192C272.084 194.363 272.297 194.448 272.532 194.448H277.812C278.047 194.448 278.249 194.544 278.42 194.736C278.612 194.907 278.708 195.12 278.708 195.376V197.072C278.708 197.328 278.612 197.552 278.42 197.744C278.249 197.915 278.047 198 277.812 198H272.532ZM277.812 187.344C278.047 187.344 278.249 187.248 278.42 187.056C278.612 186.864 278.708 186.651 278.708 186.416V184.688C278.708 184.453 278.612 184.251 278.42 184.08C278.249 183.888 278.047 183.792 277.812 183.792H272.532C272.297 183.792 272.084 183.888 271.892 184.08C271.7 184.251 271.604 184.453 271.604 184.688V186.416C271.604 186.651 271.7 186.864 271.892 187.056C272.084 187.248 272.297 187.344 272.532 187.344H277.812ZM290.324 198C290.068 198 289.844 197.915 289.652 197.744C289.481 197.552 289.396 197.328 289.396 197.072V181.136C289.396 180.901 289.481 180.688 289.652 180.496C289.844 180.304 290.068 180.208 290.324 180.208H299.156C299.39 180.208 299.593 180.304 299.764 180.496C299.956 180.688 300.052 180.901 300.052 181.136V182.864C300.052 183.099 299.956 183.312 299.764 183.504C299.593 183.696 299.39 183.792 299.156 183.792H293.876C293.641 183.792 293.428 183.888 293.236 184.08C293.044 184.251 292.948 184.453 292.948 184.688V197.072C292.948 197.328 292.852 197.552 292.66 197.744C292.489 197.915 292.276 198 292.02 198H290.324Z" fill="white"/>
</g>
<defs>
<filter id="filter0_d_596_7833" x="-5" y="-5" width="386" height="383" filterUnits="userSpaceOnUse" color-interpolation-filters="sRGB">
<feFlood flood-opacity="0" result="BackgroundImageFix"/>
<feColorMatrix in="SourceAlpha" type="matrix" values="0 0 0 0 0 0 0 0 0 0 0 0 0 0 0 0 0 0 127 0" result="hardAlpha"/>
<feOffset/>
<feGaussianBlur stdDeviation="2.5"/>
<feComposite in2="hardAlpha" operator="out"/>
<feColorMatrix type="matrix" values="0 0 0 0 0.901961 0 0 0 0 0.180392 0 0 0 0 0.352941 0 0 0 1 0"/>
<feBlend mode="normal" in2="BackgroundImageFix" result="effect1_dropShadow_596_7833"/>
<feBlend mode="normal" in="SourceGraphic" in2="effect1_dropShadow_596_7833" result="shape"/>
</filter>
<clipPath id="clip0_596_7833">
<rect width="376" height="373" fill="white"/>
</clipPath>
</defs>
</svg>
