<svg width="100" height="24" viewBox="0 0 100 24" fill="none" xmlns="http://www.w3.org/2000/svg">
<path d="M7.81548 19.5366H3.90417V23.4479H7.81548V19.5366Z" fill="#E62E5A"/>
<path d="M11.7268 19.5366H7.81549V23.4479H11.7268V19.5366Z" fill="#E62E5A"/>
<path d="M15.6366 19.5366H11.7253V23.4479H15.6366V19.5366Z" fill="#E62E5A"/>
<path d="M19.548 15.6439H15.6367V19.5552H19.548V15.6439Z" fill="#E62E5A"/>
<path d="M19.548 11.7325H15.6367V15.6438H19.548V11.7325Z" fill="#E62E5A"/>
<path d="M15.6366 7.82129H11.7253V11.7326H15.6366V7.82129Z" fill="#E62E5A"/>
<path d="M23.4593 0H19.548V3.9113H23.4593V0Z" fill="#E62E5A"/>
<path d="M23.4593 3.91138H19.548V7.82268H23.4593V3.91138Z" fill="#E62E5A"/>
<path d="M19.548 0H15.6367V3.9113H19.548V0Z" fill="#E62E5A"/>
<path d="M3.92271 11.7325H0.0114136V15.6438H3.92271V11.7325Z" fill="#E62E5A"/>
<path d="M3.92271 7.82129H0.0114136V11.7326H3.92271V7.82129Z" fill="#E62E5A"/>
<path d="M7.81548 3.91138H3.90417V7.82268H7.81548V3.91138Z" fill="#E62E5A"/>
<path d="M11.7268 3.91138H7.81549V7.82268H11.7268V3.91138Z" fill="#E62E5A"/>
<path d="M19.5494 19.5181H15.6381V23.4294H19.5494V19.5181Z" fill="#E62E5A"/>
<path d="M3.9113 3.92859H0V7.86415H3.9113V3.92859Z" fill="#E62E5A"/>
<path d="M3.92985 19.5052H0.0185547V23.4165H3.92985V19.5052Z" fill="#E62E5A"/>
<path d="M3.92985 15.5955H0.0185547V19.5068H3.92985V15.5955Z" fill="#E62E5A"/>
<path d="M31.4801 19.0786V20.5355H27.0723V19.0529H29.9847V17.6231H28.5278V16.1661H27.0723V13.2138H28.5278V11.7568H32.9356V13.2523H29.9975L30.0104 14.6693H31.4801V16.139H32.9356V19.0771H31.4801V19.0786Z" fill="#E62E5A"/>
<path d="M41.6858 19.0786V20.5355H37.2779V19.0786H35.8224V14.6707H37.2779V13.2152H41.6858V14.6707H43.1428V19.0786H41.6858ZM40.2032 14.7107H38.7606V19.0529H40.2032V14.7107Z" fill="#E62E5A"/>
<path d="M48.9804 16.1533V20.5355H46.028V13.2152H47.5106V14.6707H48.9533V13.2152H50.4359V16.1533H48.979H48.9804Z" fill="#E62E5A"/>
<path d="M56.2751 16.1533V20.5355H53.3227V13.2152H54.8053V14.6707H56.248V13.2152H57.7306V16.1533H56.2736H56.2751Z" fill="#E62E5A"/>
<path d="M66.4679 14.6978V17.616H65.0252V21.9924H63.5554V23.4494H60.6173V21.9668H63.5298V20.5341H62.0728V17.616H60.6173V14.6978H59.1604V13.2152H63.5554V17.5974H64.9853V13.2152H67.9234V14.6978H66.4664H66.4679Z" fill="#E62E5A"/>
<path d="M79.6002 19.0785V20.5355H73.7368V11.7596H79.6002V13.2166H81.0571V14.6992H79.6002V16.1418H81.0571V19.08H79.6002V19.0785ZM78.1176 13.2537H76.6749V14.6578H78.1176V13.2537ZM78.1176 16.1661H76.6749V19.0528H78.1176V16.1661Z" fill="#E62E5A"/>
<path d="M89.8058 19.0786V20.5355H85.3979V19.0786H83.9424V14.6707H85.3979V13.2152H89.8058V14.6707H91.2628V19.0786H89.8058ZM88.3232 14.7107H86.8806V19.0529H88.3232V14.7107Z" fill="#E62E5A"/>
<path d="M97.0604 20.5354V19.0785H95.6306V20.5354H94.148V17.5973H95.6035V16.1547H94.148V13.2166H97.0861V14.6721H98.5159V13.2166H99.9986V16.1547H98.5559V17.5973H99.9986V20.5354H97.0604Z" fill="#E62E5A"/>
</svg>
