<svg width="84" height="84" viewBox="0 0 84 84" fill="none" xmlns="http://www.w3.org/2000/svg">
<g clip-path="url(#clip0_515_4164)">
<path d="M27.985 69.9893H13.9807V83.9999H27.985V69.9893Z" fill="#E62E5A"/>
<path d="M41.987 69.9893H27.9827V83.9999H41.987V69.9893Z" fill="#E62E5A"/>
<path d="M55.9914 69.9893H41.9871V83.9999H55.9914V69.9893Z" fill="#E62E5A"/>
<path d="M69.9955 56.0425H55.9912V70.0531H69.9955V56.0425Z" fill="#E62E5A"/>
<path d="M69.9955 42.0317H55.9912V56.0424H69.9955V42.0317Z" fill="#E62E5A"/>
<path d="M55.9914 28.0215H41.9871V42.0321H55.9914V28.0215Z" fill="#E62E5A"/>
<path d="M83.9999 0H69.9956V14.0106H83.9999V0Z" fill="#E62E5A"/>
<path d="M83.9999 14.0107H69.9956V28.0214H83.9999V14.0107Z" fill="#E62E5A"/>
<path d="M69.9955 0H55.9912V14.0106H69.9955V0Z" fill="#E62E5A"/>
<path d="M14.0446 42.0317H0.0402832V56.0424H14.0446V42.0317Z" fill="#E62E5A"/>
<path d="M14.0446 28.0215H0.0402832V42.0321H14.0446V28.0215Z" fill="#E62E5A"/>
<path d="M27.985 14.0107H13.9807V28.0214H27.985V14.0107Z" fill="#E62E5A"/>
<path d="M41.987 14.0107H27.9827V28.0214H41.987V14.0107Z" fill="#E62E5A"/>
<path d="M70.0029 69.9209H55.9985V83.9315H70.0029V69.9209Z" fill="#E62E5A"/>
<path d="M14.0043 14.0742H0V28.17H14.0043V14.0742Z" fill="#E62E5A"/>
<path d="M14.0705 69.8784H0.0661621V83.8891H14.0705V69.8784Z" fill="#E62E5A"/>
<path d="M14.0705 55.8677H0.0661621V69.8783H14.0705V55.8677Z" fill="#E62E5A"/>
</g>
<defs>
<clipPath id="clip0_515_4164">
<rect width="84" height="84" fill="white"/>
</clipPath>
</defs>
</svg>
