<svg width="256" height="254" viewBox="0 0 256 254" fill="none" xmlns="http://www.w3.org/2000/svg">
<g clip-path="url(#clip0_678_19262)">
<path d="M130.723 5.4043H125.277V4.57764e-05H130.723V5.4043Z" fill="white"/>
<path d="M136.17 10.8086H130.723V5.40434H136.17V10.8086Z" fill="white"/>
<path d="M125.277 10.8086H119.83V5.40434H125.277V10.8086Z" fill="white"/>
<path d="M141.617 16.2126H136.17V10.8084H141.617V16.2126Z" fill="white"/>
<path d="M119.83 16.2126H114.383V10.8084H119.83V16.2126Z" fill="white"/>
<path d="M147.064 21.6169H141.617V16.2127H147.064V21.6169Z" fill="white"/>
<path d="M114.383 21.6169H108.936V16.2127H114.383V21.6169Z" fill="white"/>
<path d="M152.511 27.0212H147.064V21.617H152.511V27.0212Z" fill="white"/>
<path d="M108.936 27.0212H103.489V21.617H108.936V27.0212Z" fill="white"/>
<path d="M157.958 32.4255H152.511V27.0213H157.958V32.4255Z" fill="white"/>
<path d="M103.489 32.4255H98.0425V27.0213H103.489V32.4255Z" fill="white"/>
<path d="M163.404 37.8298H157.958V32.4256H163.404V37.8298Z" fill="white"/>
<path d="M98.0425 37.8298H92.5957V32.4256H98.0425V37.8298Z" fill="white"/>
<path d="M168.851 43.2341H163.404V37.8299H168.851V43.2341Z" fill="white"/>
<path d="M92.5957 43.2341H87.1489V37.8299H92.5957V43.2341Z" fill="white"/>
<path d="M174.298 48.6382H168.851V43.2339H174.298V48.6382Z" fill="white"/>
<path d="M87.149 48.6382H81.7021V43.2339H87.149V48.6382Z" fill="white"/>
<path d="M179.745 54.0425H174.298V48.6382H179.745V54.0425Z" fill="white"/>
<path d="M81.7022 54.0425H76.2554V48.6382H81.7022V54.0425Z" fill="white"/>
<path d="M185.191 59.4468H179.745V54.0425H185.191V59.4468Z" fill="white"/>
<path d="M76.2554 59.4468H70.8086V54.0425H76.2554V59.4468Z" fill="white"/>
<path d="M190.638 64.8511H185.191V59.4468H190.638V64.8511Z" fill="white"/>
<path d="M70.8086 64.8511H65.3618V59.4468H70.8086V64.8511Z" fill="white"/>
<path d="M196.085 70.2554H190.638V64.8511H196.085V70.2554Z" fill="white"/>
<path d="M65.3616 70.2554H59.9148V64.8511H65.3616V70.2554Z" fill="white"/>
<path d="M201.532 75.6597H196.085V70.2554H201.532V75.6597Z" fill="white"/>
<path d="M59.9148 75.6597H54.468V70.2554H59.9148V75.6597Z" fill="white"/>
<path d="M206.979 81.0637H201.532V75.6595H206.979V81.0637Z" fill="white"/>
<path d="M54.468 81.0637H49.0212V75.6595H54.468V81.0637Z" fill="white"/>
<path d="M212.426 86.468H206.979V81.0638H212.426V86.468Z" fill="white"/>
<path d="M49.0213 86.468H43.5745V81.0638H49.0213V86.468Z" fill="white"/>
<path d="M217.872 91.8723H212.426V86.4681H217.872V91.8723Z" fill="white"/>
<path d="M43.5745 91.8723H38.1277V86.4681H43.5745V91.8723Z" fill="white"/>
<path d="M223.319 97.2766H217.872V91.8723H223.319V97.2766Z" fill="white"/>
<path d="M38.1277 97.2766H32.6809V91.8723H38.1277V97.2766Z" fill="white"/>
<path d="M228.766 102.681H223.319V97.2767H228.766V102.681Z" fill="white"/>
<path d="M32.6809 102.681H27.2341V97.2767H32.6809V102.681Z" fill="white"/>
<path d="M234.213 108.085H228.766V102.681H234.213V108.085Z" fill="white"/>
<path d="M27.2342 108.085H21.7874V102.681H27.2342V108.085Z" fill="white"/>
<path d="M239.66 113.489H234.213V108.085H239.66V113.489Z" fill="white"/>
<path d="M21.7871 113.489H16.3403V108.085H21.7871V113.489Z" fill="white"/>
<path d="M245.106 118.894H239.66V113.489H245.106V118.894Z" fill="white"/>
<path d="M16.3404 118.894H10.8936V113.489H16.3404V118.894Z" fill="white"/>
<path d="M250.553 124.298H245.106V118.894H250.553V124.298Z" fill="white"/>
<path d="M10.8936 124.298H5.44678V118.894H10.8936V124.298Z" fill="white"/>
<path d="M256 129.702H250.553V124.298H256V129.702Z" fill="white"/>
<path d="M5.44681 129.702H0V124.298H5.44681V129.702Z" fill="white"/>
<path d="M256 135.106H250.553V129.702H256V135.106Z" fill="white"/>
<path d="M10.8936 135.106H5.44678V129.702H10.8936V135.106Z" fill="white"/>
<path d="M250.553 140.511H245.106V135.106H250.553V140.511Z" fill="white"/>
<path d="M16.3404 140.511H10.8936V135.106H16.3404V140.511Z" fill="white"/>
<path d="M245.106 145.915H239.66V140.511H245.106V145.915Z" fill="white"/>
<path d="M21.7871 145.915H16.3403V140.511H21.7871V145.915Z" fill="white"/>
<path d="M239.66 151.319H234.213V145.915H239.66V151.319Z" fill="white"/>
<path d="M27.2342 151.319H21.7874V145.915H27.2342V151.319Z" fill="white"/>
<path d="M234.213 156.723H228.766V151.319H234.213V156.723Z" fill="white"/>
<path d="M32.6809 156.723H27.2341V151.319H32.6809V156.723Z" fill="white"/>
<path d="M228.766 162.128H223.319V156.723H228.766V162.128Z" fill="white"/>
<path d="M38.1277 162.128H32.6809V156.723H38.1277V162.128Z" fill="white"/>
<path d="M223.319 167.532H217.872V162.128H223.319V167.532Z" fill="white"/>
<path d="M43.5745 167.532H38.1277V162.128H43.5745V167.532Z" fill="white"/>
<path d="M217.872 172.936H212.426V167.532H217.872V172.936Z" fill="white"/>
<path d="M49.0213 172.936H43.5745V167.532H49.0213V172.936Z" fill="white"/>
<path d="M212.426 178.34H206.979V172.936H212.426V178.34Z" fill="white"/>
<path d="M54.468 178.34H49.0212V172.936H54.468V178.34Z" fill="white"/>
<path d="M206.979 183.745H201.532V178.34H206.979V183.745Z" fill="white"/>
<path d="M59.9148 183.745H54.468V178.34H59.9148V183.745Z" fill="white"/>
<path d="M201.532 189.149H196.085V183.745H201.532V189.149Z" fill="white"/>
<path d="M65.3616 189.149H59.9148V183.745H65.3616V189.149Z" fill="white"/>
<path d="M196.085 194.553H190.638V189.149H196.085V194.553Z" fill="white"/>
<path d="M70.8086 194.553H65.3618V189.149H70.8086V194.553Z" fill="white"/>
<path d="M190.638 199.958H185.191V194.553H190.638V199.958Z" fill="white"/>
<path d="M76.2554 199.958H70.8086V194.553H76.2554V199.958Z" fill="white"/>
<path d="M185.191 205.362H179.745V199.958H185.191V205.362Z" fill="white"/>
<path d="M81.7022 205.362H76.2554V199.958H81.7022V205.362Z" fill="white"/>
<path d="M179.745 210.766H174.298V205.362H179.745V210.766Z" fill="white"/>
<path d="M87.149 210.766H81.7021V205.362H87.149V210.766Z" fill="white"/>
<path d="M174.298 216.17H168.851V210.766H174.298V216.17Z" fill="white"/>
<path d="M92.5957 216.17H87.1489V210.766H92.5957V216.17Z" fill="white"/>
<path d="M168.851 221.574H163.404V216.17H168.851V221.574Z" fill="white"/>
<path d="M98.0425 221.574H92.5957V216.17H98.0425V221.574Z" fill="white"/>
<path d="M163.404 226.979H157.958V221.575H163.404V226.979Z" fill="white"/>
<path d="M103.489 226.979H98.0425V221.575H103.489V226.979Z" fill="white"/>
<path d="M157.958 232.383H152.511V226.979H157.958V232.383Z" fill="white"/>
<path d="M108.936 232.383H103.489V226.979H108.936V232.383Z" fill="white"/>
<path d="M152.511 237.787H147.064V232.383H152.511V237.787Z" fill="white"/>
<path d="M114.383 237.787H108.936V232.383H114.383V237.787Z" fill="white"/>
<path d="M147.064 243.191H141.617V237.787H147.064V243.191Z" fill="white"/>
<path d="M119.83 243.191H114.383V237.787H119.83V243.191Z" fill="white"/>
<path d="M141.617 248.596H136.17V243.191H141.617V248.596Z" fill="white"/>
<path d="M125.277 248.596H119.83V243.191H125.277V248.596Z" fill="white"/>
<path d="M136.17 254H130.723V248.596H136.17V254Z" fill="white"/>
<path d="M130.723 254H125.277V248.596H130.723V254Z" fill="white"/>
</g>
<g clip-path="url(#clip1_678_19262)">
<path d="M150.332 169.442H145.48V174.327H150.332V169.442Z" fill="#090909"/>
<path d="M145.465 169.442H140.613V174.327H145.465V169.442Z" fill="#090909"/>
<path d="M140.613 169.442H135.762V174.327H140.613V169.442Z" fill="#090909"/>
<path d="M135.762 169.442H130.91V174.327H135.762V169.442Z" fill="#090909"/>
<path d="M130.895 169.442H126.043V174.327H130.895V169.442Z" fill="#090909"/>
<path d="M126.043 169.442H121.191V174.327H126.043V169.442Z" fill="#090909"/>
<path d="M121.191 169.442H116.34V174.327H121.191V169.442Z" fill="#090909"/>
<path d="M116.325 169.442H111.473V174.327H116.325V169.442Z" fill="#090909"/>
<path d="M111.473 169.442H106.621V174.327H111.473V169.442Z" fill="#090909"/>
<path d="M106.621 169.442H101.77V174.327H106.621V169.442Z" fill="#090909"/>
<path d="M101.754 169.442H96.9026V174.327H101.754V169.442Z" fill="#090909"/>
<path d="M96.9028 169.442H92.051V174.327H96.9028V169.442Z" fill="#090909"/>
<path d="M92.0509 169.442H87.1992V174.327H92.0509V169.442Z" fill="#090909"/>
<path d="M87.1843 169.442H82.3325V174.327H87.1843V169.442Z" fill="#090909"/>
<path d="M160.035 164.557H155.184V169.442H160.035V164.557Z" fill="#090909"/>
<path d="M155.184 164.557H150.332V169.442H155.184V164.557Z" fill="#090909"/>
<path d="M150.332 164.557H145.48V169.442H150.332V164.557Z" fill="#B5A497"/>
<path d="M145.465 164.557H140.613V169.442H145.465V164.557Z" fill="#B5A497"/>
<path d="M140.613 164.557H135.762V169.442H140.613V164.557Z" fill="#B5A497"/>
<path d="M135.762 164.557H130.91V169.442H135.762V164.557Z" fill="#B5A497"/>
<path d="M130.895 164.557H126.043V169.442H130.895V164.557Z" fill="#B5A497"/>
<path d="M126.043 164.557H121.191V169.442H126.043V164.557Z" fill="#B5A497"/>
<path d="M121.191 164.557H116.34V169.442H121.191V164.557Z" fill="#B5A497"/>
<path d="M116.325 164.557H111.473V169.442H116.325V164.557Z" fill="#B5A497"/>
<path d="M111.473 164.557H106.621V169.442H111.473V164.557Z" fill="#B5A497"/>
<path d="M106.621 164.557H101.77V169.442H106.621V164.557Z" fill="#B5A497"/>
<path d="M101.754 164.557H96.9026V169.442H101.754V164.557Z" fill="#B5A497"/>
<path d="M96.9028 164.557H92.051V169.442H96.9028V164.557Z" fill="#BFB0A5"/>
<path d="M92.0509 164.557H87.1992V169.442H92.0509V164.557Z" fill="#BEB3A7"/>
<path d="M87.1843 164.557H82.3325V169.442H87.1843V164.557Z" fill="#FFF7EE"/>
<path d="M82.3324 164.557H77.4807V169.442H82.3324V164.557Z" fill="#090909"/>
<path d="M169.754 159.671H164.902V164.557H169.754V159.671Z" fill="#090909"/>
<path d="M164.902 159.671H160.05V164.557H164.902V159.671Z" fill="#090909"/>
<path d="M160.035 159.671H155.184V164.557H160.035V159.671Z" fill="#B5A497"/>
<path d="M155.184 159.671H150.332V164.557H155.184V159.671Z" fill="#B5A497"/>
<path d="M150.332 159.671H145.48V164.557H150.332V159.671Z" fill="#B5A497"/>
<path d="M145.465 159.671H140.613V164.557H145.465V159.671Z" fill="#B5A497"/>
<path d="M140.613 159.671H135.762V164.557H140.613V159.671Z" fill="#B5A497"/>
<path d="M135.762 159.671H130.91V164.557H135.762V159.671Z" fill="#B5A497"/>
<path d="M130.895 159.671H126.043V164.557H130.895V159.671Z" fill="#B5A497"/>
<path d="M126.043 159.671H121.191V164.557H126.043V159.671Z" fill="#B5A497"/>
<path d="M121.191 159.671H116.34V164.557H121.191V159.671Z" fill="#B3A397"/>
<path d="M116.325 159.671H111.473V164.557H116.325V159.671Z" fill="#B3A397"/>
<path d="M111.473 159.671H106.621V164.557H111.473V159.671Z" fill="#FEF4E9"/>
<path d="M106.621 159.671H101.77V164.557H106.621V159.671Z" fill="#FDF5EA"/>
<path d="M101.754 159.671H96.9026V164.557H101.754V159.671Z" fill="#FFF7ED"/>
<path d="M96.9028 159.671H92.051V164.557H96.9028V159.671Z" fill="#FFF7ED"/>
<path d="M92.0509 159.671H87.1992V164.557H92.0509V159.671Z" fill="#FFF7ED"/>
<path d="M87.1843 159.671H82.3325V164.557H87.1843V159.671Z" fill="#FFF7ED"/>
<path d="M82.3324 159.671H77.4807V164.557H82.3324V159.671Z" fill="#FFF8EE"/>
<path d="M77.4806 159.671H72.6289V164.557H77.4806V159.671Z" fill="#090909"/>
<path d="M174.605 154.786H169.754V159.672H174.605V154.786Z" fill="#090909"/>
<path d="M169.754 154.786H164.902V159.672H169.754V154.786Z" fill="#B5A497"/>
<path d="M164.902 154.786H160.05V159.672H164.902V154.786Z" fill="#B5A497"/>
<path d="M160.035 154.786H155.184V159.672H160.035V154.786Z" fill="#B5A497"/>
<path d="M155.184 154.786H150.332V159.672H155.184V154.786Z" fill="#B5A497"/>
<path d="M150.332 154.786H145.48V159.672H150.332V154.786Z" fill="#B5A497"/>
<path d="M145.465 154.786H140.613V159.672H145.465V154.786Z" fill="#B5A497"/>
<path d="M140.613 154.786H135.762V159.672H140.613V154.786Z" fill="#B5A497"/>
<path d="M135.762 154.786H130.91V159.672H135.762V154.786Z" fill="#B5A59B"/>
<path d="M130.895 154.786H126.043V159.672H130.895V154.786Z" fill="#B6A69B"/>
<path d="M126.043 154.786H121.191V159.672H126.043V154.786Z" fill="#E9DED2"/>
<path d="M121.191 154.786H116.34V159.672H121.191V154.786Z" fill="#FEF6EB"/>
<path d="M116.325 154.786H111.473V159.672H116.325V154.786Z" fill="#FFF7ED"/>
<path d="M111.473 154.786H106.621V159.672H111.473V154.786Z" fill="#FFF7ED"/>
<path d="M106.621 154.786H101.77V159.672H106.621V154.786Z" fill="#FFF7ED"/>
<path d="M101.754 154.786H96.9026V159.672H101.754V154.786Z" fill="#FFF7ED"/>
<path d="M96.9028 154.786H92.051V159.672H96.9028V154.786Z" fill="#FFF7ED"/>
<path d="M92.0509 154.786H87.1992V159.672H92.0509V154.786Z" fill="#FFF7ED"/>
<path d="M87.1843 154.786H82.3325V159.672H87.1843V154.786Z" fill="#FFF7ED"/>
<path d="M82.3324 154.786H77.4807V159.672H82.3324V154.786Z" fill="#FFF7ED"/>
<path d="M77.4806 154.786H72.6289V159.672H77.4806V154.786Z" fill="#090909"/>
<path d="M72.6139 154.786H67.7622V159.672H72.6139V154.786Z" fill="#090909"/>
<path d="M174.605 149.901H169.754V154.786H174.605V149.901Z" fill="#090909"/>
<path d="M169.754 149.901H164.902V154.786H169.754V149.901Z" fill="#D1C0B6"/>
<path d="M164.902 149.901H160.05V154.786H164.902V149.901Z" fill="#C4B3A9"/>
<path d="M160.035 149.901H155.184V154.786H160.035V149.901Z" fill="#C4B2A9"/>
<path d="M155.184 149.901H150.332V154.786H155.184V149.901Z" fill="#B4A399"/>
<path d="M150.332 149.901H145.48V154.786H150.332V149.901Z" fill="#B4A399"/>
<path d="M145.465 149.901H140.613V154.786H145.465V149.901Z" fill="#B4A399"/>
<path d="M140.613 149.901H135.762V154.786H140.613V149.901Z" fill="#D9CEC4"/>
<path d="M135.762 149.901H130.91V154.786H135.762V149.901Z" fill="#FFF7ED"/>
<path d="M130.895 149.901H126.043V154.786H130.895V149.901Z" fill="#FFF7ED"/>
<path d="M126.043 149.901H121.191V154.786H126.043V149.901Z" fill="#FFF7ED"/>
<path d="M121.191 149.901H116.34V154.786H121.191V149.901Z" fill="#FFF7ED"/>
<path d="M116.325 149.901H111.473V154.786H116.325V149.901Z" fill="#FFF7ED"/>
<path d="M111.473 149.901H106.621V154.786H111.473V149.901Z" fill="#FFF7ED"/>
<path d="M106.621 149.901H101.77V154.786H106.621V149.901Z" fill="#FFF7ED"/>
<path d="M101.754 149.901H96.9026V154.786H101.754V149.901Z" fill="#FFF7ED"/>
<path d="M96.9028 149.901H92.051V154.786H96.9028V149.901Z" fill="#FFF7ED"/>
<path d="M92.0509 149.901H87.1992V154.786H92.0509V149.901Z" fill="#FFF7ED"/>
<path d="M87.1843 149.901H82.3325V154.786H87.1843V149.901Z" fill="#FFF7ED"/>
<path d="M82.3324 149.901H77.4807V154.786H82.3324V149.901Z" fill="#FFF7ED"/>
<path d="M77.4806 149.901H72.6289V154.786H77.4806V149.901Z" fill="#FFF7ED"/>
<path d="M72.6139 149.901H67.7622V154.786H72.6139V149.901Z" fill="#090909"/>
<path d="M179.472 145.016H174.621V149.901H179.472V145.016Z" fill="#090909"/>
<path d="M174.605 145.016H169.754V149.901H174.605V145.016Z" fill="#CFC1B3"/>
<path d="M169.754 145.016H164.902V149.901H169.754V145.016Z" fill="#CFC1B3"/>
<path d="M164.902 145.016H160.05V149.901H164.902V145.016Z" fill="#CFC1B3"/>
<path d="M160.035 145.016H155.184V149.901H160.035V145.016Z" fill="#CFC1B3"/>
<path d="M155.184 145.016H150.332V149.901H155.184V145.016Z" fill="#D0C2B4"/>
<path d="M150.332 145.016H145.48V149.901H150.332V145.016Z" fill="#EFE6DA"/>
<path d="M145.465 145.016H140.613V149.901H145.465V145.016Z" fill="#FFF8ED"/>
<path d="M140.613 145.016H135.762V149.901H140.613V145.016Z" fill="#FFF7ED"/>
<path d="M135.762 145.016H130.91V149.901H135.762V145.016Z" fill="#FFF7ED"/>
<path d="M130.895 145.016H126.043V149.901H130.895V145.016Z" fill="#FFF7ED"/>
<path d="M126.043 145.016H121.191V149.901H126.043V145.016Z" fill="#FFF7ED"/>
<path d="M121.191 145.016H116.34V149.901H121.191V145.016Z" fill="#FFF7ED"/>
<path d="M116.325 145.016H111.473V149.901H116.325V145.016Z" fill="#FFF7ED"/>
<path d="M111.473 145.016H106.621V149.901H111.473V145.016Z" fill="#FFF7ED"/>
<path d="M106.621 145.016H101.77V149.901H106.621V145.016Z" fill="#FFF7ED"/>
<path d="M101.754 145.016H96.9026V149.901H101.754V145.016Z" fill="#FFF7ED"/>
<path d="M96.9028 145.016H92.051V149.901H96.9028V145.016Z" fill="#FFF7ED"/>
<path d="M92.0509 145.016H87.1992V149.901H92.0509V145.016Z" fill="#FFF7ED"/>
<path d="M87.1843 145.016H82.3325V149.901H87.1843V145.016Z" fill="#FFF7ED"/>
<path d="M82.3324 145.016H77.4807V149.901H82.3324V145.016Z" fill="#FFF7ED"/>
<path d="M77.4806 145.016H72.6289V149.901H77.4806V145.016Z" fill="#FFF7ED"/>
<path d="M72.6139 145.016H67.7622V149.901H72.6139V145.016Z" fill="#FFF8ED"/>
<path d="M67.7624 145.016H62.9106V149.901H67.7624V145.016Z" fill="#090909"/>
<path d="M179.472 140.131H174.621V145.016H179.472V140.131Z" fill="#090909"/>
<path d="M174.605 140.131H169.754V145.016H174.605V140.131Z" fill="#CFC1B3"/>
<path d="M169.754 140.131H164.902V145.016H169.754V140.131Z" fill="#CFC1B3"/>
<path d="M164.902 140.131H160.05V145.016H164.902V140.131Z" fill="#CFC1B3"/>
<path d="M160.035 140.131H155.184V145.016H160.035V140.131Z" fill="#CFC1B3"/>
<path d="M155.184 140.131H150.332V145.016H155.184V140.131Z" fill="#CEC2B4"/>
<path d="M150.332 140.131H145.48V145.016H150.332V140.131Z" fill="#100E0E"/>
<path d="M145.465 140.131H140.613V145.016H145.465V140.131Z" fill="#100E0E"/>
<path d="M140.613 140.131H135.762V145.016H140.613V140.131Z" fill="#090909"/>
<path d="M135.762 140.131H130.91V145.016H135.762V140.131Z" fill="#100E0E"/>
<path d="M130.895 140.131H126.043V145.016H130.895V140.131Z" fill="#100E0E"/>
<path d="M126.043 140.131H121.191V145.016H126.043V140.131Z" fill="#FFF7ED"/>
<path d="M121.191 140.131H116.34V145.016H121.191V140.131Z" fill="#FFF7ED"/>
<path d="M116.325 140.131H111.473V145.016H116.325V140.131Z" fill="#FFF7ED"/>
<path d="M111.473 140.131H106.621V145.016H111.473V140.131Z" fill="#FFF7ED"/>
<path d="M106.621 140.131H101.77V145.016H106.621V140.131Z" fill="#FFF7ED"/>
<path d="M101.754 140.131H96.9026V145.016H101.754V140.131Z" fill="#FFF7ED"/>
<path d="M96.9028 140.131H92.051V145.016H96.9028V140.131Z" fill="#FFF7ED"/>
<path d="M92.0509 140.131H87.1992V145.016H92.0509V140.131Z" fill="#FFF7ED"/>
<path d="M87.1843 140.131H82.3325V145.016H87.1843V140.131Z" fill="#FFF7ED"/>
<path d="M82.3324 140.131H77.4807V145.016H82.3324V140.131Z" fill="#FFF7ED"/>
<path d="M77.4806 140.131H72.6289V145.016H77.4806V140.131Z" fill="#FFF7ED"/>
<path d="M72.6139 140.131H67.7622V145.016H72.6139V140.131Z" fill="#FFF7ED"/>
<path d="M67.7624 140.131H62.9106V145.016H67.7624V140.131Z" fill="#090909"/>
<path d="M184.324 135.246H179.472V140.131H184.324V135.246Z" fill="#090909"/>
<path d="M179.472 135.246H174.621V140.131H179.472V135.246Z" fill="#CFC1B3"/>
<path d="M174.605 135.246H169.754V140.131H174.605V135.246Z" fill="#CFC1B3"/>
<path d="M169.754 135.246H164.902V140.131H169.754V135.246Z" fill="#CFC1B3"/>
<path d="M164.902 135.246H160.05V140.131H164.902V135.246Z" fill="#CFC1B3"/>
<path d="M160.035 135.246H155.184V140.131H160.035V135.246Z" fill="#D0C3B3"/>
<path d="M155.184 135.246H150.332V140.131H155.184V135.246Z" fill="#0F0D0D"/>
<path d="M150.332 135.246H145.48V140.131H150.332V135.246Z" fill="#CFC1B3"/>
<path d="M145.465 135.246H140.613V140.131H145.465V135.246Z" fill="#CFC1B5"/>
<path d="M140.613 135.246H135.762V140.131H140.613V135.246Z" fill="#FFF7EE"/>
<path d="M135.762 135.246H130.91V140.131H135.762V135.246Z" fill="#FFF7EE"/>
<path d="M130.895 135.246H126.043V140.131H130.895V135.246Z" fill="#FFF7EE"/>
<path d="M126.043 135.246H121.191V140.131H126.043V135.246Z" fill="#090909"/>
<path d="M121.191 135.246H116.34V140.131H121.191V135.246Z" fill="#090909"/>
<path d="M116.325 135.246H111.473V140.131H116.325V135.246Z" fill="#090909"/>
<path d="M111.473 135.246H106.621V140.131H111.473V135.246Z" fill="#090909"/>
<path d="M106.621 135.246H101.77V140.131H106.621V135.246Z" fill="#090909"/>
<path d="M101.754 135.246H96.9026V140.131H101.754V135.246Z" fill="#FFF7ED"/>
<path d="M96.9028 135.246H92.051V140.131H96.9028V135.246Z" fill="#FFF7ED"/>
<path d="M92.0509 135.246H87.1992V140.131H92.0509V135.246Z" fill="#FFF7ED"/>
<path d="M87.1843 135.246H82.3325V140.131H87.1843V135.246Z" fill="#FFF7ED"/>
<path d="M82.3324 135.246H77.4807V140.131H82.3324V135.246Z" fill="#FFF7ED"/>
<path d="M77.4806 135.246H72.6289V140.131H77.4806V135.246Z" fill="#FFF7ED"/>
<path d="M72.6139 135.246H67.7622V140.131H72.6139V135.246Z" fill="#FFF7ED"/>
<path d="M67.7624 135.246H62.9106V140.131H67.7624V135.246Z" fill="#090909"/>
<path d="M184.324 130.36H179.472V135.246H184.324V130.36Z" fill="#090909"/>
<path d="M179.472 130.36H174.621V135.246H179.472V130.36Z" fill="#CFC1B3"/>
<path d="M174.605 130.36H169.754V135.246H174.605V130.36Z" fill="#CFC1B3"/>
<path d="M169.754 130.36H164.902V135.246H169.754V130.36Z" fill="#CFC1B3"/>
<path d="M164.902 130.36H160.05V135.246H164.902V130.36Z" fill="#CFC2B4"/>
<path d="M160.035 130.36H155.184V135.246H160.035V130.36Z" fill="#0A0B0A"/>
<path d="M155.184 130.36H150.332V135.246H155.184V130.36Z" fill="#CFC1B3"/>
<path d="M150.332 130.36H145.48V135.246H150.332V130.36Z" fill="#CFC1B3"/>
<path d="M145.465 130.36H140.613V135.246H145.465V130.36Z" fill="#CFC1B3"/>
<path d="M140.613 130.36H135.762V135.246H140.613V130.36Z" fill="#FFF7ED"/>
<path d="M135.762 130.36H130.91V135.246H135.762V130.36Z" fill="#FFF7ED"/>
<path d="M130.895 130.36H126.043V135.246H130.895V130.36Z" fill="#FFF7EE"/>
<path d="M126.043 130.36H121.191V135.246H126.043V130.36Z" fill="#FFF7ED"/>
<path d="M121.191 130.36H116.34V135.246H121.191V130.36Z" fill="#FFF9EE"/>
<path d="M116.325 130.36H111.473V135.246H116.325V130.36Z" fill="#0F0E0D"/>
<path d="M111.473 130.36H106.621V135.246H111.473V130.36Z" fill="#FEF9EE"/>
<path d="M106.621 130.36H101.77V135.246H106.621V130.36Z" fill="#FFF9EF"/>
<path d="M101.754 130.36H96.9026V135.246H101.754V130.36Z" fill="#090909"/>
<path d="M96.9028 130.36H92.051V135.246H96.9028V130.36Z" fill="#090909"/>
<path d="M92.0509 130.36H87.1992V135.246H92.0509V130.36Z" fill="#090909"/>
<path d="M87.1843 130.36H82.3325V135.246H87.1843V130.36Z" fill="#090909"/>
<path d="M82.3324 130.36H77.4807V135.246H82.3324V130.36Z" fill="#090909"/>
<path d="M77.4806 130.36H72.6289V135.246H77.4806V130.36Z" fill="#FFF7ED"/>
<path d="M72.6139 130.36H67.7622V135.246H72.6139V130.36Z" fill="#FFF7ED"/>
<path d="M67.7624 130.36H62.9106V135.246H67.7624V130.36Z" fill="#FFF7ED"/>
<path d="M62.9106 130.36H58.0588V135.246H62.9106V130.36Z" fill="#090909"/>
<path d="M184.324 125.475H179.472V130.36H184.324V125.475Z" fill="#090909"/>
<path d="M179.472 125.475H174.621V130.36H179.472V125.475Z" fill="#CFC1B3"/>
<path d="M174.605 125.475H169.754V130.36H174.605V125.475Z" fill="#CFC1B3"/>
<path d="M169.754 125.475H164.902V130.36H169.754V125.475Z" fill="#CFC1B3"/>
<path d="M164.902 125.475H160.05V130.36H164.902V125.475Z" fill="#100E0E"/>
<path d="M160.035 125.475H155.184V130.36H160.035V125.475Z" fill="#CFC3B3"/>
<path d="M155.184 125.475H150.332V130.36H155.184V125.475Z" fill="#CFC1B3"/>
<path d="M150.332 125.475H145.48V130.36H150.332V125.475Z" fill="#CFC1B3"/>
<path d="M145.465 125.475H140.613V130.36H145.465V125.475Z" fill="#CFC1B3"/>
<path d="M140.613 125.475H135.762V130.36H140.613V125.475Z" fill="#FFF7ED"/>
<path d="M135.762 125.475H130.91V130.36H135.762V125.475Z" fill="#FFF7ED"/>
<path d="M130.895 125.475H126.043V130.36H130.895V125.475Z" fill="#FFF7ED"/>
<path d="M126.043 125.475H121.191V130.36H126.043V125.475Z" fill="#FFF7ED"/>
<path d="M121.191 125.475H116.34V130.36H121.191V125.475Z" fill="#FFF7ED"/>
<path d="M116.325 125.475H111.473V130.36H116.325V125.475Z" fill="#FFF7ED"/>
<path d="M111.473 125.475H106.621V130.36H111.473V125.475Z" fill="#090909"/>
<path d="M106.621 125.475H101.77V130.36H106.621V125.475Z" fill="#FEF7ED"/>
<path d="M101.754 125.475H96.9026V130.36H101.754V125.475Z" fill="#FFF7ED"/>
<path d="M96.9028 125.475H92.051V130.36H96.9028V125.475Z" fill="#FFF7ED"/>
<path d="M92.0509 125.475H87.1992V130.36H92.0509V125.475Z" fill="#FFF7ED"/>
<path d="M87.1843 125.475H82.3325V130.36H87.1843V125.475Z" fill="#FFF7ED"/>
<path d="M82.3324 125.475H77.4807V130.36H82.3324V125.475Z" fill="#FFF7ED"/>
<path d="M77.4806 125.475H72.6289V130.36H77.4806V125.475Z" fill="#090909"/>
<path d="M72.6139 125.475H67.7622V130.36H72.6139V125.475Z" fill="#090909"/>
<path d="M67.7624 125.475H62.9106V130.36H67.7624V125.475Z" fill="#FFF7ED"/>
<path d="M62.9106 125.475H58.0588V130.36H62.9106V125.475Z" fill="#FFF7ED"/>
<path d="M58.0439 125.475H53.1921V130.36H58.0439V125.475Z" fill="#0D0D0C"/>
<path d="M184.324 120.59H179.472V125.475H184.324V120.59Z" fill="#090909"/>
<path d="M179.472 120.59H174.621V125.475H179.472V120.59Z" fill="#CFC1B3"/>
<path d="M174.605 120.59H169.754V125.475H174.605V120.59Z" fill="#D0C0B7"/>
<path d="M169.754 120.59H164.902V125.475H169.754V120.59Z" fill="#100E0E"/>
<path d="M164.902 120.59H160.05V125.475H164.902V120.59Z" fill="#B5A497"/>
<path d="M160.035 120.59H155.184V125.475H160.035V120.59Z" fill="#CFC1B3"/>
<path d="M155.184 120.59H150.332V125.475H155.184V120.59Z" fill="#CFC1B3"/>
<path d="M150.332 120.59H145.48V125.475H150.332V120.59Z" fill="#CFC1B3"/>
<path d="M145.465 120.59H140.613V125.475H145.465V120.59Z" fill="#CFC1B3"/>
<path d="M140.613 120.59H135.762V125.475H140.613V120.59Z" fill="#FFF7ED"/>
<path d="M135.762 120.59H130.91V125.475H135.762V120.59Z" fill="#FFF7ED"/>
<path d="M130.895 120.59H126.043V125.475H130.895V120.59Z" fill="#FFF7ED"/>
<path d="M126.043 120.59H121.191V125.475H126.043V120.59Z" fill="#FFF7ED"/>
<path d="M121.191 120.59H116.34V125.475H121.191V120.59Z" fill="#FFF7ED"/>
<path d="M116.325 120.59H111.473V125.475H116.325V120.59Z" fill="#FFF7ED"/>
<path d="M111.473 120.59H106.621V125.475H111.473V120.59Z" fill="#FFF7ED"/>
<path d="M106.621 120.59H101.77V125.475H106.621V120.59Z" fill="#090909"/>
<path d="M101.754 120.59H96.9026V125.475H101.754V120.59Z" fill="#090909"/>
<path d="M96.9028 120.59H92.051V125.475H96.9028V120.59Z" fill="#090909"/>
<path d="M92.0509 120.59H87.1992V125.475H92.0509V120.59Z" fill="#090909"/>
<path d="M87.1843 120.59H82.3325V125.475H87.1843V120.59Z" fill="#090909"/>
<path d="M82.3324 120.59H77.4807V125.475H82.3324V120.59Z" fill="#FFF7ED"/>
<path d="M77.4806 120.59H72.6289V125.475H77.4806V120.59Z" fill="#FFF7ED"/>
<path d="M72.6139 120.59H67.7622V125.475H72.6139V120.59Z" fill="#FFF7ED"/>
<path d="M67.7624 120.59H62.9106V125.475H67.7624V120.59Z" fill="#090909"/>
<path d="M62.9106 120.59H58.0588V125.475H62.9106V120.59Z" fill="#FFF8EE"/>
<path d="M58.0439 120.59H53.1921V125.475H58.0439V120.59Z" fill="#FFFAEE"/>
<path d="M53.1921 120.59H48.3403V125.475H53.1921V120.59Z" fill="#090909"/>
<path d="M189.176 115.705H184.324V120.59H189.176V115.705Z" fill="#090909"/>
<path d="M184.324 115.705H179.472V120.59H184.324V115.705Z" fill="#CFC1B3"/>
<path d="M179.472 115.705H174.621V120.59H179.472V115.705Z" fill="#D0C1B5"/>
<path d="M174.605 115.705H169.754V120.59H174.605V115.705Z" fill="#100E0E"/>
<path d="M169.754 115.705H164.902V120.59H169.754V115.705Z" fill="#B5A497"/>
<path d="M164.902 115.705H160.05V120.59H164.902V115.705Z" fill="#B5A497"/>
<path d="M160.035 115.705H155.184V120.59H160.035V115.705Z" fill="#CFC1B3"/>
<path d="M155.184 115.705H150.332V120.59H155.184V115.705Z" fill="#CFC1B3"/>
<path d="M150.332 115.705H145.48V120.59H150.332V115.705Z" fill="#CFC1B3"/>
<path d="M145.465 115.705H140.613V120.59H145.465V115.705Z" fill="#CFC1B3"/>
<path d="M140.613 115.705H135.762V120.59H140.613V115.705Z" fill="#FFF7ED"/>
<path d="M135.762 115.705H130.91V120.59H135.762V115.705Z" fill="#FFF7ED"/>
<path d="M130.895 115.705H126.043V120.59H130.895V115.705Z" fill="#FFF7ED"/>
<path d="M126.043 115.705H121.191V120.59H126.043V115.705Z" fill="#FFF7ED"/>
<path d="M121.191 115.705H116.34V120.59H121.191V115.705Z" fill="#FFF7ED"/>
<path d="M116.325 115.705H111.473V120.59H116.325V115.705Z" fill="#FFF7ED"/>
<path d="M111.473 115.705H106.621V120.59H111.473V115.705Z" fill="#090909"/>
<path d="M82.3324 115.705H77.4807V120.59H82.3324V115.705Z" fill="#090909"/>
<path d="M77.4806 115.705H72.6289V120.59H77.4806V115.705Z" fill="#090909"/>
<path d="M72.6139 115.705H67.7622V120.59H72.6139V115.705Z" fill="#090909"/>
<path d="M67.7624 115.705H62.9106V120.59H67.7624V115.705Z" fill="#090909"/>
<path d="M62.9106 115.705H58.0588V120.59H62.9106V115.705Z" fill="#090909"/>
<path d="M58.0439 115.705H53.1921V120.59H58.0439V115.705Z" fill="#090909"/>
<path d="M53.1921 115.705H48.3403V120.59H53.1921V115.705Z" fill="#090909"/>
<path d="M189.176 110.82H184.324V115.705H189.176V110.82Z" fill="#090909"/>
<path d="M184.324 110.82H179.472V115.705H184.324V110.82Z" fill="#CFC1B3"/>
<path d="M179.472 110.82H174.621V115.705H179.472V110.82Z" fill="#100E0E"/>
<path d="M174.605 110.82H169.754V115.705H174.605V110.82Z" fill="#B5A497"/>
<path d="M169.754 110.82H164.902V115.705H169.754V110.82Z" fill="#B5A497"/>
<path d="M164.902 110.82H160.05V115.705H164.902V110.82Z" fill="#B5A498"/>
<path d="M160.035 110.82H155.184V115.705H160.035V110.82Z" fill="#CCC3BA"/>
<path d="M155.184 110.82H150.332V115.705H155.184V110.82Z" fill="#CFC1B3"/>
<path d="M150.332 110.82H145.48V115.705H150.332V110.82Z" fill="#CFC1B3"/>
<path d="M145.465 110.82H140.613V115.705H145.465V110.82Z" fill="#CFC1B3"/>
<path d="M140.613 110.82H135.762V115.705H140.613V110.82Z" fill="#FFF7ED"/>
<path d="M135.762 110.82H130.91V115.705H135.762V110.82Z" fill="#FFF7ED"/>
<path d="M130.895 110.82H126.043V115.705H130.895V110.82Z" fill="#FFF7ED"/>
<path d="M126.043 110.82H121.191V115.705H126.043V110.82Z" fill="#FFF7ED"/>
<path d="M121.191 110.82H116.34V115.705H121.191V110.82Z" fill="#FFF7ED"/>
<path d="M116.325 110.82H111.473V115.705H116.325V110.82Z" fill="#FFF7ED"/>
<path d="M111.473 110.82H106.621V115.705H111.473V110.82Z" fill="#0A0909"/>
<path d="M189.176 105.934H184.324V110.82H189.176V105.934Z" fill="#090909"/>
<path d="M184.324 105.934H179.472V110.82H184.324V105.934Z" fill="#100E0E"/>
<path d="M179.472 105.934H174.621V110.82H179.472V105.934Z" fill="#B5A497"/>
<path d="M174.605 105.934H169.754V110.82H174.605V105.934Z" fill="#B5A497"/>
<path d="M169.754 105.934H164.902V110.82H169.754V105.934Z" fill="#B5A497"/>
<path d="M164.902 105.934H160.05V110.82H164.902V105.934Z" fill="#090909"/>
<path d="M160.035 105.934H155.184V110.82H160.035V105.934Z" fill="#070909"/>
<path d="M155.184 105.934H150.332V110.82H155.184V105.934Z" fill="#CFC1B3"/>
<path d="M150.332 105.934H145.48V110.82H150.332V105.934Z" fill="#CFC1B3"/>
<path d="M145.465 105.934H140.613V110.82H145.465V105.934Z" fill="#CFC1B3"/>
<path d="M140.613 105.934H135.762V110.82H140.613V105.934Z" fill="#FFF7ED"/>
<path d="M135.762 105.934H130.91V110.82H135.762V105.934Z" fill="#FFF7ED"/>
<path d="M130.895 105.934H126.043V110.82H130.895V105.934Z" fill="#FFF7ED"/>
<path d="M126.043 105.934H121.191V110.82H126.043V105.934Z" fill="#FFF7ED"/>
<path d="M121.191 105.934H116.34V110.82H121.191V105.934Z" fill="#FFF7ED"/>
<path d="M116.325 105.934H111.473V110.82H116.325V105.934Z" fill="#090909"/>
<path d="M194.042 101.049H189.191V105.934H194.042V101.049Z" fill="#080909"/>
<path d="M189.176 101.049H184.324V105.934H189.176V101.049Z" fill="#100E0E"/>
<path d="M184.324 101.049H179.472V105.934H184.324V101.049Z" fill="#B5A498"/>
<path d="M179.472 101.049H174.621V105.934H179.472V101.049Z" fill="#B4A294"/>
<path d="M174.605 101.049H169.754V105.934H174.605V101.049Z" fill="#090909"/>
<path d="M169.754 101.049H164.902V105.934H169.754V101.049Z" fill="#090909"/>
<path d="M155.184 101.049H150.332V105.934H155.184V101.049Z" fill="#090909"/>
<path d="M150.332 101.049H145.48V105.934H150.332V101.049Z" fill="#CFC1B3"/>
<path d="M145.465 101.049H140.613V105.934H145.465V101.049Z" fill="#CFC1B3"/>
<path d="M140.613 101.049H135.762V105.934H140.613V101.049Z" fill="#FFF7ED"/>
<path d="M135.762 101.049H130.91V105.934H135.762V101.049Z" fill="#FFF7ED"/>
<path d="M130.895 101.049H126.043V105.934H130.895V101.049Z" fill="#FFF7ED"/>
<path d="M126.043 101.049H121.191V105.934H126.043V101.049Z" fill="#FFF7ED"/>
<path d="M121.191 101.049H116.34V105.934H121.191V101.049Z" fill="#FFF8ED"/>
<path d="M116.325 101.049H111.473V105.934H116.325V101.049Z" fill="#080909"/>
<path d="M194.042 96.1641H189.191V101.049H194.042V96.1641Z" fill="#100E0E"/>
<path d="M189.176 96.1641H184.324V101.049H189.176V96.1641Z" fill="#B5A498"/>
<path d="M184.324 96.1641H179.472V101.049H184.324V96.1641Z" fill="#090909"/>
<path d="M179.472 96.1641H174.621V101.049H179.472V96.1641Z" fill="#090909"/>
<path d="M155.184 96.1641H150.332V101.049H155.184V96.1641Z" fill="#0C0D0C"/>
<path d="M150.332 96.1641H145.48V101.049H150.332V96.1641Z" fill="#CFC1B3"/>
<path d="M145.465 96.1641H140.613V101.049H145.465V96.1641Z" fill="#CFC1B3"/>
<path d="M140.613 96.1641H135.762V101.049H140.613V96.1641Z" fill="#CEC0B5"/>
<path d="M135.762 96.1641H130.91V101.049H135.762V96.1641Z" fill="#FFF7ED"/>
<path d="M130.895 96.1641H126.043V101.049H130.895V96.1641Z" fill="#FFF7ED"/>
<path d="M126.043 96.1641H121.191V101.049H126.043V96.1641Z" fill="#FFF7ED"/>
<path d="M121.191 96.1641H116.34V101.049H121.191V96.1641Z" fill="#090909"/>
<path d="M194.042 91.2788H189.191V96.164H194.042V91.2788Z" fill="#100E0E"/>
<path d="M189.176 91.2788H184.324V96.164H189.176V91.2788Z" fill="#090909"/>
<path d="M150.332 91.2788H145.48V96.164H150.332V91.2788Z" fill="#090909"/>
<path d="M145.465 91.2788H140.613V96.164H145.465V91.2788Z" fill="#CFC1B3"/>
<path d="M140.613 91.2788H135.762V96.164H140.613V91.2788Z" fill="#CEC0B5"/>
<path d="M135.762 91.2788H130.91V96.164H135.762V91.2788Z" fill="#FFF7ED"/>
<path d="M130.895 91.2788H126.043V96.164H130.895V91.2788Z" fill="#FFF7ED"/>
<path d="M126.043 91.2788H121.191V96.164H126.043V91.2788Z" fill="#FFF7ED"/>
<path d="M121.191 91.2788H116.34V96.164H121.191V91.2788Z" fill="#070909"/>
<path d="M150.332 86.3938H145.48V91.279H150.332V86.3938Z" fill="#0C0A0A"/>
<path d="M145.465 86.3938H140.613V91.279H145.465V86.3938Z" fill="#CFC1B3"/>
<path d="M140.613 86.3938H135.762V91.279H140.613V86.3938Z" fill="#CEC0B5"/>
<path d="M135.762 86.3938H130.91V91.279H135.762V86.3938Z" fill="#FFF7ED"/>
<path d="M130.895 86.3938H126.043V91.279H130.895V86.3938Z" fill="#FFF7ED"/>
<path d="M126.043 86.3938H121.191V91.279H126.043V86.3938Z" fill="#090909"/>
<path d="M150.332 81.5085H145.48V86.3937H150.332V81.5085Z" fill="#0B0A0A"/>
<path d="M145.465 81.5085H140.613V86.3937H145.465V81.5085Z" fill="#CFC1B3"/>
<path d="M140.613 81.5085H135.762V86.3937H140.613V81.5085Z" fill="#CEC0B5"/>
<path d="M135.762 81.5085H130.91V86.3937H135.762V81.5085Z" fill="#FFF7ED"/>
<path d="M130.895 81.5085H126.043V86.3937H130.895V81.5085Z" fill="#FFF8ED"/>
<path d="M126.043 81.5085H121.191V86.3937H126.043V81.5085Z" fill="#0D0D0C"/>
<path d="M145.465 76.6233H140.613V81.5085H145.465V76.6233Z" fill="#090909"/>
<path d="M140.613 76.6233H135.762V81.5085H140.613V76.6233Z" fill="#CEC0B5"/>
<path d="M135.762 76.6233H130.91V81.5085H135.762V76.6233Z" fill="#FFF7ED"/>
<path d="M130.895 76.6233H126.043V81.5085H130.895V76.6233Z" fill="#090909"/>
<path d="M145.465 71.738H140.613V76.6232H145.465V71.738Z" fill="#080909"/>
<path d="M140.613 71.738H135.762V76.6232H140.613V71.738Z" fill="#CEC0B5"/>
<path d="M135.762 71.738H130.91V76.6232H135.762V71.738Z" fill="#FFF7ED"/>
<path d="M130.895 71.738H126.043V76.6232H130.895V71.738Z" fill="#0C0C0C"/>
<path d="M140.613 66.853H135.762V71.7382H140.613V66.853Z" fill="#D0C0B6"/>
<path d="M135.762 66.853H130.91V71.7382H135.762V66.853Z" fill="#090909"/>
<path d="M140.613 61.9678H135.762V66.853H140.613V61.9678Z" fill="#090909"/>
<path d="M135.762 61.9678H130.91V66.853H135.762V61.9678Z" fill="#080809"/>
</g>
<defs>
<clipPath id="clip0_678_19262">
<rect width="256" height="254" fill="white" transform="matrix(1 0 0 -1 0 254)"/>
</clipPath>
<clipPath id="clip1_678_19262">
<rect width="145.702" height="112.359" fill="white" transform="translate(48.3403 61.9678)"/>
</clipPath>
</defs>
</svg>
