<svg width="214" height="165" viewBox="0 0 214 165" fill="none" xmlns="http://www.w3.org/2000/svg">
<g clip-path="url(#clip0_596_8412)">
<path d="M149.8 157.826H142.674V165H149.8V157.826Z" fill="#090909"/>
<path d="M142.652 157.826H135.526V165H142.652V157.826Z" fill="#090909"/>
<path d="M135.526 157.826H128.4V165H135.526V157.826Z" fill="#090909"/>
<path d="M128.4 157.826H121.274V165H128.4V157.826Z" fill="#090909"/>
<path d="M121.252 157.826H114.126V165H121.252V157.826Z" fill="#090909"/>
<path d="M114.126 157.826H107V165H114.126V157.826Z" fill="#090909"/>
<path d="M107 157.826H99.874V165H107V157.826Z" fill="#090909"/>
<path d="M99.8521 157.826H92.7261V165H99.8521V157.826Z" fill="#090909"/>
<path d="M92.7261 157.826H85.6001V165H92.7261V157.826Z" fill="#090909"/>
<path d="M85.6001 157.826H78.4741V165H85.6001V157.826Z" fill="#090909"/>
<path d="M78.4522 157.826H71.3262V165H78.4522V157.826Z" fill="#090909"/>
<path d="M71.3262 157.826H64.2002V165H71.3262V157.826Z" fill="#090909"/>
<path d="M64.2002 157.826H57.0742V165H64.2002V157.826Z" fill="#090909"/>
<path d="M57.0518 157.826H49.9258V165H57.0518V157.826Z" fill="#090909"/>
<path d="M164.052 150.652H156.926V157.826H164.052V150.652Z" fill="#090909"/>
<path d="M156.926 150.652H149.8V157.826H156.926V150.652Z" fill="#090909"/>
<path d="M149.8 150.652H142.674V157.826H149.8V150.652Z" fill="#B5A497"/>
<path d="M142.652 150.652H135.526V157.826H142.652V150.652Z" fill="#B5A497"/>
<path d="M135.526 150.652H128.4V157.826H135.526V150.652Z" fill="#B5A497"/>
<path d="M128.4 150.652H121.274V157.826H128.4V150.652Z" fill="#B5A497"/>
<path d="M121.252 150.652H114.126V157.826H121.252V150.652Z" fill="#B5A497"/>
<path d="M114.126 150.652H107V157.826H114.126V150.652Z" fill="#B5A497"/>
<path d="M107 150.652H99.874V157.826H107V150.652Z" fill="#B5A497"/>
<path d="M99.8521 150.652H92.7261V157.826H99.8521V150.652Z" fill="#B5A497"/>
<path d="M92.7261 150.652H85.6001V157.826H92.7261V150.652Z" fill="#B5A497"/>
<path d="M85.6001 150.652H78.4741V157.826H85.6001V150.652Z" fill="#B5A497"/>
<path d="M78.4522 150.652H71.3262V157.826H78.4522V150.652Z" fill="#B5A497"/>
<path d="M71.3262 150.652H64.2002V157.826H71.3262V150.652Z" fill="#BFB0A5"/>
<path d="M64.2002 150.652H57.0742V157.826H64.2002V150.652Z" fill="#BEB3A7"/>
<path d="M57.0518 150.652H49.9258V157.826H57.0518V150.652Z" fill="#FFF7EE"/>
<path d="M49.9258 150.652H42.7998V157.826H49.9258V150.652Z" fill="#090909"/>
<path d="M178.326 143.478H171.2V150.652H178.326V143.478Z" fill="#090909"/>
<path d="M171.2 143.478H164.074V150.652H171.2V143.478Z" fill="#090909"/>
<path d="M164.052 143.478H156.926V150.652H164.052V143.478Z" fill="#B5A497"/>
<path d="M156.926 143.478H149.8V150.652H156.926V143.478Z" fill="#B5A497"/>
<path d="M149.8 143.478H142.674V150.652H149.8V143.478Z" fill="#B5A497"/>
<path d="M142.652 143.478H135.526V150.652H142.652V143.478Z" fill="#B5A497"/>
<path d="M135.526 143.478H128.4V150.652H135.526V143.478Z" fill="#B5A497"/>
<path d="M128.4 143.478H121.274V150.652H128.4V143.478Z" fill="#B5A497"/>
<path d="M121.252 143.478H114.126V150.652H121.252V143.478Z" fill="#B5A497"/>
<path d="M114.126 143.478H107V150.652H114.126V143.478Z" fill="#B5A497"/>
<path d="M107 143.478H99.874V150.652H107V143.478Z" fill="#B3A397"/>
<path d="M99.8521 143.478H92.7261V150.652H99.8521V143.478Z" fill="#B3A397"/>
<path d="M92.7261 143.478H85.6001V150.652H92.7261V143.478Z" fill="#FEF4E9"/>
<path d="M85.6001 143.478H78.4741V150.652H85.6001V143.478Z" fill="#FDF5EA"/>
<path d="M78.4522 143.478H71.3262V150.652H78.4522V143.478Z" fill="#FFF7ED"/>
<path d="M71.3262 143.478H64.2002V150.652H71.3262V143.478Z" fill="#FFF7ED"/>
<path d="M64.2002 143.478H57.0742V150.652H64.2002V143.478Z" fill="#FFF7ED"/>
<path d="M57.0518 143.478H49.9258V150.652H57.0518V143.478Z" fill="#FFF7ED"/>
<path d="M49.9258 143.478H42.7998V150.652H49.9258V143.478Z" fill="#FFF8EE"/>
<path d="M42.7998 143.478H35.6738V150.652H42.7998V143.478Z" fill="#090909"/>
<path d="M185.452 136.304H178.326V143.478H185.452V136.304Z" fill="#090909"/>
<path d="M178.326 136.304H171.2V143.478H178.326V136.304Z" fill="#B5A497"/>
<path d="M171.2 136.304H164.074V143.478H171.2V136.304Z" fill="#B5A497"/>
<path d="M164.052 136.304H156.926V143.478H164.052V136.304Z" fill="#B5A497"/>
<path d="M156.926 136.304H149.8V143.478H156.926V136.304Z" fill="#B5A497"/>
<path d="M149.8 136.304H142.674V143.478H149.8V136.304Z" fill="#B5A497"/>
<path d="M142.652 136.304H135.526V143.478H142.652V136.304Z" fill="#B5A497"/>
<path d="M135.526 136.304H128.4V143.478H135.526V136.304Z" fill="#B5A497"/>
<path d="M128.4 136.304H121.274V143.478H128.4V136.304Z" fill="#B5A59B"/>
<path d="M121.252 136.304H114.126V143.478H121.252V136.304Z" fill="#B6A69B"/>
<path d="M114.126 136.304H107V143.478H114.126V136.304Z" fill="#E9DED2"/>
<path d="M107 136.304H99.874V143.478H107V136.304Z" fill="#FEF6EB"/>
<path d="M99.8521 136.304H92.7261V143.478H99.8521V136.304Z" fill="#FFF7ED"/>
<path d="M92.7261 136.304H85.6001V143.478H92.7261V136.304Z" fill="#FFF7ED"/>
<path d="M85.6001 136.304H78.4741V143.478H85.6001V136.304Z" fill="#FFF7ED"/>
<path d="M78.4522 136.304H71.3262V143.478H78.4522V136.304Z" fill="#FFF7ED"/>
<path d="M71.3262 136.304H64.2002V143.478H71.3262V136.304Z" fill="#FFF7ED"/>
<path d="M64.2002 136.304H57.0742V143.478H64.2002V136.304Z" fill="#FFF7ED"/>
<path d="M57.0518 136.304H49.9258V143.478H57.0518V136.304Z" fill="#FFF7ED"/>
<path d="M49.9258 136.304H42.7998V143.478H49.9258V136.304Z" fill="#FFF7ED"/>
<path d="M42.7998 136.304H35.6738V143.478H42.7998V136.304Z" fill="#090909"/>
<path d="M35.6519 136.304H28.5259V143.478H35.6519V136.304Z" fill="#090909"/>
<path d="M185.452 129.13H178.326V136.304H185.452V129.13Z" fill="#090909"/>
<path d="M178.326 129.13H171.2V136.304H178.326V129.13Z" fill="#D1C0B6"/>
<path d="M171.2 129.13H164.074V136.304H171.2V129.13Z" fill="#C4B3A9"/>
<path d="M164.052 129.13H156.926V136.304H164.052V129.13Z" fill="#C4B2A9"/>
<path d="M156.926 129.13H149.8V136.304H156.926V129.13Z" fill="#B4A399"/>
<path d="M149.8 129.13H142.674V136.304H149.8V129.13Z" fill="#B4A399"/>
<path d="M142.652 129.13H135.526V136.304H142.652V129.13Z" fill="#B4A399"/>
<path d="M135.526 129.13H128.4V136.304H135.526V129.13Z" fill="#D9CEC4"/>
<path d="M128.4 129.13H121.274V136.304H128.4V129.13Z" fill="#FFF7ED"/>
<path d="M121.252 129.13H114.126V136.304H121.252V129.13Z" fill="#FFF7ED"/>
<path d="M114.126 129.13H107V136.304H114.126V129.13Z" fill="#FFF7ED"/>
<path d="M107 129.13H99.874V136.304H107V129.13Z" fill="#FFF7ED"/>
<path d="M99.8521 129.13H92.7261V136.304H99.8521V129.13Z" fill="#FFF7ED"/>
<path d="M92.7261 129.13H85.6001V136.304H92.7261V129.13Z" fill="#FFF7ED"/>
<path d="M85.6001 129.13H78.4741V136.304H85.6001V129.13Z" fill="#FFF7ED"/>
<path d="M78.4522 129.13H71.3262V136.304H78.4522V129.13Z" fill="#FFF7ED"/>
<path d="M71.3262 129.13H64.2002V136.304H71.3262V129.13Z" fill="#FFF7ED"/>
<path d="M64.2002 129.13H57.0742V136.304H64.2002V129.13Z" fill="#FFF7ED"/>
<path d="M57.0518 129.13H49.9258V136.304H57.0518V129.13Z" fill="#FFF7ED"/>
<path d="M49.9258 129.13H42.7998V136.304H49.9258V129.13Z" fill="#FFF7ED"/>
<path d="M42.7998 129.13H35.6738V136.304H42.7998V129.13Z" fill="#FFF7ED"/>
<path d="M35.6519 129.13H28.5259V136.304H35.6519V129.13Z" fill="#090909"/>
<path d="M192.6 121.957H185.474V129.13H192.6V121.957Z" fill="#090909"/>
<path d="M185.452 121.957H178.326V129.13H185.452V121.957Z" fill="#CFC1B3"/>
<path d="M178.326 121.957H171.2V129.13H178.326V121.957Z" fill="#CFC1B3"/>
<path d="M171.2 121.957H164.074V129.13H171.2V121.957Z" fill="#CFC1B3"/>
<path d="M164.052 121.957H156.926V129.13H164.052V121.957Z" fill="#CFC1B3"/>
<path d="M156.926 121.957H149.8V129.13H156.926V121.957Z" fill="#D0C2B4"/>
<path d="M149.8 121.957H142.674V129.13H149.8V121.957Z" fill="#EFE6DA"/>
<path d="M142.652 121.957H135.526V129.13H142.652V121.957Z" fill="#FFF8ED"/>
<path d="M135.526 121.957H128.4V129.13H135.526V121.957Z" fill="#FFF7ED"/>
<path d="M128.4 121.957H121.274V129.13H128.4V121.957Z" fill="#FFF7ED"/>
<path d="M121.252 121.957H114.126V129.13H121.252V121.957Z" fill="#FFF7ED"/>
<path d="M114.126 121.957H107V129.13H114.126V121.957Z" fill="#FFF7ED"/>
<path d="M107 121.957H99.874V129.13H107V121.957Z" fill="#FFF7ED"/>
<path d="M99.8521 121.957H92.7261V129.13H99.8521V121.957Z" fill="#FFF7ED"/>
<path d="M92.7261 121.957H85.6001V129.13H92.7261V121.957Z" fill="#FFF7ED"/>
<path d="M85.6001 121.957H78.4741V129.13H85.6001V121.957Z" fill="#FFF7ED"/>
<path d="M78.4522 121.957H71.3262V129.13H78.4522V121.957Z" fill="#FFF7ED"/>
<path d="M71.3262 121.957H64.2002V129.13H71.3262V121.957Z" fill="#FFF7ED"/>
<path d="M64.2002 121.957H57.0742V129.13H64.2002V121.957Z" fill="#FFF7ED"/>
<path d="M57.0518 121.957H49.9258V129.13H57.0518V121.957Z" fill="#FFF7ED"/>
<path d="M49.9258 121.957H42.7998V129.13H49.9258V121.957Z" fill="#FFF7ED"/>
<path d="M42.7998 121.957H35.6738V129.13H42.7998V121.957Z" fill="#FFF7ED"/>
<path d="M35.6519 121.957H28.5259V129.13H35.6519V121.957Z" fill="#FFF8ED"/>
<path d="M28.5259 121.957H21.3999V129.13H28.5259V121.957Z" fill="#090909"/>
<path d="M192.6 114.783H185.474V121.957H192.6V114.783Z" fill="#090909"/>
<path d="M185.452 114.783H178.326V121.957H185.452V114.783Z" fill="#CFC1B3"/>
<path d="M178.326 114.783H171.2V121.957H178.326V114.783Z" fill="#CFC1B3"/>
<path d="M171.2 114.783H164.074V121.957H171.2V114.783Z" fill="#CFC1B3"/>
<path d="M164.052 114.783H156.926V121.957H164.052V114.783Z" fill="#CFC1B3"/>
<path d="M156.926 114.783H149.8V121.957H156.926V114.783Z" fill="#CEC2B4"/>
<path d="M149.8 114.783H142.674V121.957H149.8V114.783Z" fill="#100E0E"/>
<path d="M142.652 114.783H135.526V121.957H142.652V114.783Z" fill="#100E0E"/>
<path d="M135.526 114.783H128.4V121.957H135.526V114.783Z" fill="#090909"/>
<path d="M128.4 114.783H121.274V121.957H128.4V114.783Z" fill="#100E0E"/>
<path d="M121.252 114.783H114.126V121.957H121.252V114.783Z" fill="#100E0E"/>
<path d="M114.126 114.783H107V121.957H114.126V114.783Z" fill="#FFF7ED"/>
<path d="M107 114.783H99.874V121.957H107V114.783Z" fill="#FFF7ED"/>
<path d="M99.8521 114.783H92.7261V121.957H99.8521V114.783Z" fill="#FFF7ED"/>
<path d="M92.7261 114.783H85.6001V121.957H92.7261V114.783Z" fill="#FFF7ED"/>
<path d="M85.6001 114.783H78.4741V121.957H85.6001V114.783Z" fill="#FFF7ED"/>
<path d="M78.4522 114.783H71.3262V121.957H78.4522V114.783Z" fill="#FFF7ED"/>
<path d="M71.3262 114.783H64.2002V121.957H71.3262V114.783Z" fill="#FFF7ED"/>
<path d="M64.2002 114.783H57.0742V121.957H64.2002V114.783Z" fill="#FFF7ED"/>
<path d="M57.0518 114.783H49.9258V121.957H57.0518V114.783Z" fill="#FFF7ED"/>
<path d="M49.9258 114.783H42.7998V121.957H49.9258V114.783Z" fill="#FFF7ED"/>
<path d="M42.7998 114.783H35.6738V121.957H42.7998V114.783Z" fill="#FFF7ED"/>
<path d="M35.6519 114.783H28.5259V121.957H35.6519V114.783Z" fill="#FFF7ED"/>
<path d="M28.5259 114.783H21.3999V121.957H28.5259V114.783Z" fill="#090909"/>
<path d="M199.726 107.609H192.6V114.783H199.726V107.609Z" fill="#090909"/>
<path d="M192.6 107.609H185.474V114.783H192.6V107.609Z" fill="#CFC1B3"/>
<path d="M185.452 107.609H178.326V114.783H185.452V107.609Z" fill="#CFC1B3"/>
<path d="M178.326 107.609H171.2V114.783H178.326V107.609Z" fill="#CFC1B3"/>
<path d="M171.2 107.609H164.074V114.783H171.2V107.609Z" fill="#CFC1B3"/>
<path d="M164.052 107.609H156.926V114.783H164.052V107.609Z" fill="#D0C3B3"/>
<path d="M156.926 107.609H149.8V114.783H156.926V107.609Z" fill="#0F0D0D"/>
<path d="M149.8 107.609H142.674V114.783H149.8V107.609Z" fill="#CFC1B3"/>
<path d="M142.652 107.609H135.526V114.783H142.652V107.609Z" fill="#CFC1B5"/>
<path d="M135.526 107.609H128.4V114.783H135.526V107.609Z" fill="#FFF7EE"/>
<path d="M128.4 107.609H121.274V114.783H128.4V107.609Z" fill="#FFF7EE"/>
<path d="M121.252 107.609H114.126V114.783H121.252V107.609Z" fill="#FFF7EE"/>
<path d="M114.126 107.609H107V114.783H114.126V107.609Z" fill="#090909"/>
<path d="M107 107.609H99.874V114.783H107V107.609Z" fill="#090909"/>
<path d="M99.8521 107.609H92.7261V114.783H99.8521V107.609Z" fill="#090909"/>
<path d="M92.7261 107.609H85.6001V114.783H92.7261V107.609Z" fill="#090909"/>
<path d="M85.6001 107.609H78.4741V114.783H85.6001V107.609Z" fill="#090909"/>
<path d="M78.4522 107.609H71.3262V114.783H78.4522V107.609Z" fill="#FFF7ED"/>
<path d="M71.3262 107.609H64.2002V114.783H71.3262V107.609Z" fill="#FFF7ED"/>
<path d="M64.2002 107.609H57.0742V114.783H64.2002V107.609Z" fill="#FFF7ED"/>
<path d="M57.0518 107.609H49.9258V114.783H57.0518V107.609Z" fill="#FFF7ED"/>
<path d="M49.9258 107.609H42.7998V114.783H49.9258V107.609Z" fill="#FFF7ED"/>
<path d="M42.7998 107.609H35.6738V114.783H42.7998V107.609Z" fill="#FFF7ED"/>
<path d="M35.6519 107.609H28.5259V114.783H35.6519V107.609Z" fill="#FFF7ED"/>
<path d="M28.5259 107.609H21.3999V114.783H28.5259V107.609Z" fill="#090909"/>
<path d="M199.726 100.435H192.6V107.609H199.726V100.435Z" fill="#090909"/>
<path d="M192.6 100.435H185.474V107.609H192.6V100.435Z" fill="#CFC1B3"/>
<path d="M185.452 100.435H178.326V107.609H185.452V100.435Z" fill="#CFC1B3"/>
<path d="M178.326 100.435H171.2V107.609H178.326V100.435Z" fill="#CFC1B3"/>
<path d="M171.2 100.435H164.074V107.609H171.2V100.435Z" fill="#CFC2B4"/>
<path d="M164.052 100.435H156.926V107.609H164.052V100.435Z" fill="#0A0B0A"/>
<path d="M156.926 100.435H149.8V107.609H156.926V100.435Z" fill="#CFC1B3"/>
<path d="M149.8 100.435H142.674V107.609H149.8V100.435Z" fill="#CFC1B3"/>
<path d="M142.652 100.435H135.526V107.609H142.652V100.435Z" fill="#CFC1B3"/>
<path d="M135.526 100.435H128.4V107.609H135.526V100.435Z" fill="#FFF7ED"/>
<path d="M128.4 100.435H121.274V107.609H128.4V100.435Z" fill="#FFF7ED"/>
<path d="M121.252 100.435H114.126V107.609H121.252V100.435Z" fill="#FFF7EE"/>
<path d="M114.126 100.435H107V107.609H114.126V100.435Z" fill="#FFF7ED"/>
<path d="M107 100.435H99.874V107.609H107V100.435Z" fill="#FFF9EE"/>
<path d="M99.8521 100.435H92.7261V107.609H99.8521V100.435Z" fill="#0F0E0D"/>
<path d="M92.7261 100.435H85.6001V107.609H92.7261V100.435Z" fill="#FEF9EE"/>
<path d="M85.6001 100.435H78.4741V107.609H85.6001V100.435Z" fill="#FFF9EF"/>
<path d="M78.4522 100.435H71.3262V107.609H78.4522V100.435Z" fill="#090909"/>
<path d="M71.3262 100.435H64.2002V107.609H71.3262V100.435Z" fill="#090909"/>
<path d="M64.2002 100.435H57.0742V107.609H64.2002V100.435Z" fill="#090909"/>
<path d="M57.0518 100.435H49.9258V107.609H57.0518V100.435Z" fill="#090909"/>
<path d="M49.9258 100.435H42.7998V107.609H49.9258V100.435Z" fill="#090909"/>
<path d="M42.7998 100.435H35.6738V107.609H42.7998V100.435Z" fill="#FFF7ED"/>
<path d="M35.6519 100.435H28.5259V107.609H35.6519V100.435Z" fill="#FFF7ED"/>
<path d="M28.5259 100.435H21.3999V107.609H28.5259V100.435Z" fill="#FFF7ED"/>
<path d="M21.3999 100.435H14.2739V107.609H21.3999V100.435Z" fill="#090909"/>
<path d="M199.726 93.2609H192.6V100.435H199.726V93.2609Z" fill="#090909"/>
<path d="M192.6 93.2609H185.474V100.435H192.6V93.2609Z" fill="#CFC1B3"/>
<path d="M185.452 93.2609H178.326V100.435H185.452V93.2609Z" fill="#CFC1B3"/>
<path d="M178.326 93.2609H171.2V100.435H178.326V93.2609Z" fill="#CFC1B3"/>
<path d="M171.2 93.2609H164.074V100.435H171.2V93.2609Z" fill="#100E0E"/>
<path d="M164.052 93.2609H156.926V100.435H164.052V93.2609Z" fill="#CFC3B3"/>
<path d="M156.926 93.2609H149.8V100.435H156.926V93.2609Z" fill="#CFC1B3"/>
<path d="M149.8 93.2609H142.674V100.435H149.8V93.2609Z" fill="#CFC1B3"/>
<path d="M142.652 93.2609H135.526V100.435H142.652V93.2609Z" fill="#CFC1B3"/>
<path d="M135.526 93.2609H128.4V100.435H135.526V93.2609Z" fill="#FFF7ED"/>
<path d="M128.4 93.2609H121.274V100.435H128.4V93.2609Z" fill="#FFF7ED"/>
<path d="M121.252 93.2609H114.126V100.435H121.252V93.2609Z" fill="#FFF7ED"/>
<path d="M114.126 93.2609H107V100.435H114.126V93.2609Z" fill="#FFF7ED"/>
<path d="M107 93.2609H99.874V100.435H107V93.2609Z" fill="#FFF7ED"/>
<path d="M99.8521 93.2609H92.7261V100.435H99.8521V93.2609Z" fill="#FFF7ED"/>
<path d="M92.7261 93.2609H85.6001V100.435H92.7261V93.2609Z" fill="#090909"/>
<path d="M85.6001 93.2609H78.4741V100.435H85.6001V93.2609Z" fill="#FEF7ED"/>
<path d="M78.4522 93.2609H71.3262V100.435H78.4522V93.2609Z" fill="#FFF7ED"/>
<path d="M71.3262 93.2609H64.2002V100.435H71.3262V93.2609Z" fill="#FFF7ED"/>
<path d="M64.2002 93.2609H57.0742V100.435H64.2002V93.2609Z" fill="#FFF7ED"/>
<path d="M57.0518 93.2609H49.9258V100.435H57.0518V93.2609Z" fill="#FFF7ED"/>
<path d="M49.9258 93.2609H42.7998V100.435H49.9258V93.2609Z" fill="#FFF7ED"/>
<path d="M42.7998 93.2609H35.6738V100.435H42.7998V93.2609Z" fill="#090909"/>
<path d="M35.6519 93.2609H28.5259V100.435H35.6519V93.2609Z" fill="#090909"/>
<path d="M28.5259 93.2609H21.3999V100.435H28.5259V93.2609Z" fill="#FFF7ED"/>
<path d="M21.3999 93.2609H14.2739V100.435H21.3999V93.2609Z" fill="#FFF7ED"/>
<path d="M14.252 93.2609H7.12598V100.435H14.252V93.2609Z" fill="#0D0D0C"/>
<path d="M199.726 86.0869H192.6V93.2608H199.726V86.0869Z" fill="#090909"/>
<path d="M192.6 86.0869H185.474V93.2608H192.6V86.0869Z" fill="#CFC1B3"/>
<path d="M185.452 86.0869H178.326V93.2608H185.452V86.0869Z" fill="#D0C0B7"/>
<path d="M178.326 86.0869H171.2V93.2608H178.326V86.0869Z" fill="#100E0E"/>
<path d="M171.2 86.0869H164.074V93.2608H171.2V86.0869Z" fill="#B5A497"/>
<path d="M164.052 86.0869H156.926V93.2608H164.052V86.0869Z" fill="#CFC1B3"/>
<path d="M156.926 86.0869H149.8V93.2608H156.926V86.0869Z" fill="#CFC1B3"/>
<path d="M149.8 86.0869H142.674V93.2608H149.8V86.0869Z" fill="#CFC1B3"/>
<path d="M142.652 86.0869H135.526V93.2608H142.652V86.0869Z" fill="#CFC1B3"/>
<path d="M135.526 86.0869H128.4V93.2608H135.526V86.0869Z" fill="#FFF7ED"/>
<path d="M128.4 86.0869H121.274V93.2608H128.4V86.0869Z" fill="#FFF7ED"/>
<path d="M121.252 86.0869H114.126V93.2608H121.252V86.0869Z" fill="#FFF7ED"/>
<path d="M114.126 86.0869H107V93.2608H114.126V86.0869Z" fill="#FFF7ED"/>
<path d="M107 86.0869H99.874V93.2608H107V86.0869Z" fill="#FFF7ED"/>
<path d="M99.8521 86.0869H92.7261V93.2608H99.8521V86.0869Z" fill="#FFF7ED"/>
<path d="M92.7261 86.0869H85.6001V93.2608H92.7261V86.0869Z" fill="#FFF7ED"/>
<path d="M85.6001 86.0869H78.4741V93.2608H85.6001V86.0869Z" fill="#090909"/>
<path d="M78.4522 86.0869H71.3262V93.2608H78.4522V86.0869Z" fill="#090909"/>
<path d="M71.3262 86.0869H64.2002V93.2608H71.3262V86.0869Z" fill="#090909"/>
<path d="M64.2002 86.0869H57.0742V93.2608H64.2002V86.0869Z" fill="#090909"/>
<path d="M57.0518 86.0869H49.9258V93.2608H57.0518V86.0869Z" fill="#090909"/>
<path d="M49.9258 86.0869H42.7998V93.2608H49.9258V86.0869Z" fill="#FFF7ED"/>
<path d="M42.7998 86.0869H35.6738V93.2608H42.7998V86.0869Z" fill="#FFF7ED"/>
<path d="M35.6519 86.0869H28.5259V93.2608H35.6519V86.0869Z" fill="#FFF7ED"/>
<path d="M28.5259 86.0869H21.3999V93.2608H28.5259V86.0869Z" fill="#090909"/>
<path d="M21.3999 86.0869H14.2739V93.2608H21.3999V86.0869Z" fill="#FFF8EE"/>
<path d="M14.252 86.0869H7.12598V93.2608H14.252V86.0869Z" fill="#FFFAEE"/>
<path d="M7.12598 86.0869H0V93.2608H7.12598V86.0869Z" fill="#090909"/>
<path d="M206.852 78.9131H199.726V86.087H206.852V78.9131Z" fill="#090909"/>
<path d="M199.726 78.9131H192.6V86.087H199.726V78.9131Z" fill="#CFC1B3"/>
<path d="M192.6 78.9131H185.474V86.087H192.6V78.9131Z" fill="#D0C1B5"/>
<path d="M185.452 78.9131H178.326V86.087H185.452V78.9131Z" fill="#100E0E"/>
<path d="M178.326 78.9131H171.2V86.087H178.326V78.9131Z" fill="#B5A497"/>
<path d="M171.2 78.9131H164.074V86.087H171.2V78.9131Z" fill="#B5A497"/>
<path d="M164.052 78.9131H156.926V86.087H164.052V78.9131Z" fill="#CFC1B3"/>
<path d="M156.926 78.9131H149.8V86.087H156.926V78.9131Z" fill="#CFC1B3"/>
<path d="M149.8 78.9131H142.674V86.087H149.8V78.9131Z" fill="#CFC1B3"/>
<path d="M142.652 78.9131H135.526V86.087H142.652V78.9131Z" fill="#CFC1B3"/>
<path d="M135.526 78.9131H128.4V86.087H135.526V78.9131Z" fill="#FFF7ED"/>
<path d="M128.4 78.9131H121.274V86.087H128.4V78.9131Z" fill="#FFF7ED"/>
<path d="M121.252 78.9131H114.126V86.087H121.252V78.9131Z" fill="#FFF7ED"/>
<path d="M114.126 78.9131H107V86.087H114.126V78.9131Z" fill="#FFF7ED"/>
<path d="M107 78.9131H99.874V86.087H107V78.9131Z" fill="#FFF7ED"/>
<path d="M99.8521 78.9131H92.7261V86.087H99.8521V78.9131Z" fill="#FFF7ED"/>
<path d="M92.7261 78.9131H85.6001V86.087H92.7261V78.9131Z" fill="#090909"/>
<path d="M49.9258 78.9131H42.7998V86.087H49.9258V78.9131Z" fill="#090909"/>
<path d="M42.7998 78.9131H35.6738V86.087H42.7998V78.9131Z" fill="#090909"/>
<path d="M35.6519 78.9131H28.5259V86.087H35.6519V78.9131Z" fill="#090909"/>
<path d="M28.5259 78.9131H21.3999V86.087H28.5259V78.9131Z" fill="#090909"/>
<path d="M21.3999 78.9131H14.2739V86.087H21.3999V78.9131Z" fill="#090909"/>
<path d="M14.252 78.9131H7.12598V86.087H14.252V78.9131Z" fill="#090909"/>
<path d="M7.12598 78.9131H0V86.087H7.12598V78.9131Z" fill="#090909"/>
<path d="M206.852 71.7391H199.726V78.913H206.852V71.7391Z" fill="#090909"/>
<path d="M199.726 71.7391H192.6V78.913H199.726V71.7391Z" fill="#CFC1B3"/>
<path d="M192.6 71.7391H185.474V78.913H192.6V71.7391Z" fill="#100E0E"/>
<path d="M185.452 71.7391H178.326V78.913H185.452V71.7391Z" fill="#B5A497"/>
<path d="M178.326 71.7391H171.2V78.913H178.326V71.7391Z" fill="#B5A497"/>
<path d="M171.2 71.7391H164.074V78.913H171.2V71.7391Z" fill="#B5A498"/>
<path d="M164.052 71.7391H156.926V78.913H164.052V71.7391Z" fill="#CCC3BA"/>
<path d="M156.926 71.7391H149.8V78.913H156.926V71.7391Z" fill="#CFC1B3"/>
<path d="M149.8 71.7391H142.674V78.913H149.8V71.7391Z" fill="#CFC1B3"/>
<path d="M142.652 71.7391H135.526V78.913H142.652V71.7391Z" fill="#CFC1B3"/>
<path d="M135.526 71.7391H128.4V78.913H135.526V71.7391Z" fill="#FFF7ED"/>
<path d="M128.4 71.7391H121.274V78.913H128.4V71.7391Z" fill="#FFF7ED"/>
<path d="M121.252 71.7391H114.126V78.913H121.252V71.7391Z" fill="#FFF7ED"/>
<path d="M114.126 71.7391H107V78.913H114.126V71.7391Z" fill="#FFF7ED"/>
<path d="M107 71.7391H99.874V78.913H107V71.7391Z" fill="#FFF7ED"/>
<path d="M99.8521 71.7391H92.7261V78.913H99.8521V71.7391Z" fill="#FFF7ED"/>
<path d="M92.7261 71.7391H85.6001V78.913H92.7261V71.7391Z" fill="#0A0909"/>
<path d="M206.852 64.5652H199.726V71.7391H206.852V64.5652Z" fill="#090909"/>
<path d="M199.726 64.5652H192.6V71.7391H199.726V64.5652Z" fill="#100E0E"/>
<path d="M192.6 64.5652H185.474V71.7391H192.6V64.5652Z" fill="#B5A497"/>
<path d="M185.452 64.5652H178.326V71.7391H185.452V64.5652Z" fill="#B5A497"/>
<path d="M178.326 64.5652H171.2V71.7391H178.326V64.5652Z" fill="#B5A497"/>
<path d="M171.2 64.5652H164.074V71.7391H171.2V64.5652Z" fill="#090909"/>
<path d="M164.052 64.5652H156.926V71.7391H164.052V64.5652Z" fill="#070909"/>
<path d="M156.926 64.5652H149.8V71.7391H156.926V64.5652Z" fill="#CFC1B3"/>
<path d="M149.8 64.5652H142.674V71.7391H149.8V64.5652Z" fill="#CFC1B3"/>
<path d="M142.652 64.5652H135.526V71.7391H142.652V64.5652Z" fill="#CFC1B3"/>
<path d="M135.526 64.5652H128.4V71.7391H135.526V64.5652Z" fill="#FFF7ED"/>
<path d="M128.4 64.5652H121.274V71.7391H128.4V64.5652Z" fill="#FFF7ED"/>
<path d="M121.252 64.5652H114.126V71.7391H121.252V64.5652Z" fill="#FFF7ED"/>
<path d="M114.126 64.5652H107V71.7391H114.126V64.5652Z" fill="#FFF7ED"/>
<path d="M107 64.5652H99.874V71.7391H107V64.5652Z" fill="#FFF7ED"/>
<path d="M99.8521 64.5652H92.7261V71.7391H99.8521V64.5652Z" fill="#090909"/>
<path d="M214 57.3914H206.874V64.5653H214V57.3914Z" fill="#080909"/>
<path d="M206.852 57.3914H199.726V64.5653H206.852V57.3914Z" fill="#100E0E"/>
<path d="M199.726 57.3914H192.6V64.5653H199.726V57.3914Z" fill="#B5A498"/>
<path d="M192.6 57.3914H185.474V64.5653H192.6V57.3914Z" fill="#B4A294"/>
<path d="M185.452 57.3914H178.326V64.5653H185.452V57.3914Z" fill="#090909"/>
<path d="M178.326 57.3914H171.2V64.5653H178.326V57.3914Z" fill="#090909"/>
<path d="M156.926 57.3914H149.8V64.5653H156.926V57.3914Z" fill="#090909"/>
<path d="M149.8 57.3914H142.674V64.5653H149.8V57.3914Z" fill="#CFC1B3"/>
<path d="M142.652 57.3914H135.526V64.5653H142.652V57.3914Z" fill="#CFC1B3"/>
<path d="M135.526 57.3914H128.4V64.5653H135.526V57.3914Z" fill="#FFF7ED"/>
<path d="M128.4 57.3914H121.274V64.5653H128.4V57.3914Z" fill="#FFF7ED"/>
<path d="M121.252 57.3914H114.126V64.5653H121.252V57.3914Z" fill="#FFF7ED"/>
<path d="M114.126 57.3914H107V64.5653H114.126V57.3914Z" fill="#FFF7ED"/>
<path d="M107 57.3914H99.874V64.5653H107V57.3914Z" fill="#FFF8ED"/>
<path d="M99.8521 57.3914H92.7261V64.5653H99.8521V57.3914Z" fill="#080909"/>
<path d="M214 50.2174H206.874V57.3913H214V50.2174Z" fill="#100E0E"/>
<path d="M206.852 50.2174H199.726V57.3913H206.852V50.2174Z" fill="#B5A498"/>
<path d="M199.726 50.2174H192.6V57.3913H199.726V50.2174Z" fill="#090909"/>
<path d="M192.6 50.2174H185.474V57.3913H192.6V50.2174Z" fill="#090909"/>
<path d="M156.926 50.2174H149.8V57.3913H156.926V50.2174Z" fill="#0C0D0C"/>
<path d="M149.8 50.2174H142.674V57.3913H149.8V50.2174Z" fill="#CFC1B3"/>
<path d="M142.652 50.2174H135.526V57.3913H142.652V50.2174Z" fill="#CFC1B3"/>
<path d="M135.526 50.2174H128.4V57.3913H135.526V50.2174Z" fill="#CEC0B5"/>
<path d="M128.4 50.2174H121.274V57.3913H128.4V50.2174Z" fill="#FFF7ED"/>
<path d="M121.252 50.2174H114.126V57.3913H121.252V50.2174Z" fill="#FFF7ED"/>
<path d="M114.126 50.2174H107V57.3913H114.126V50.2174Z" fill="#FFF7ED"/>
<path d="M107 50.2174H99.874V57.3913H107V50.2174Z" fill="#090909"/>
<path d="M214 43.0435H206.874V50.2174H214V43.0435Z" fill="#100E0E"/>
<path d="M206.852 43.0435H199.726V50.2174H206.852V43.0435Z" fill="#090909"/>
<path d="M149.8 43.0435H142.674V50.2174H149.8V43.0435Z" fill="#090909"/>
<path d="M142.652 43.0435H135.526V50.2174H142.652V43.0435Z" fill="#CFC1B3"/>
<path d="M135.526 43.0435H128.4V50.2174H135.526V43.0435Z" fill="#CEC0B5"/>
<path d="M128.4 43.0435H121.274V50.2174H128.4V43.0435Z" fill="#FFF7ED"/>
<path d="M121.252 43.0435H114.126V50.2174H121.252V43.0435Z" fill="#FFF7ED"/>
<path d="M114.126 43.0435H107V50.2174H114.126V43.0435Z" fill="#FFF7ED"/>
<path d="M107 43.0435H99.874V50.2174H107V43.0435Z" fill="#070909"/>
<path d="M149.8 35.8695H142.674V43.0434H149.8V35.8695Z" fill="#0C0A0A"/>
<path d="M142.652 35.8695H135.526V43.0434H142.652V35.8695Z" fill="#CFC1B3"/>
<path d="M135.526 35.8695H128.4V43.0434H135.526V35.8695Z" fill="#CEC0B5"/>
<path d="M128.4 35.8695H121.274V43.0434H128.4V35.8695Z" fill="#FFF7ED"/>
<path d="M121.252 35.8695H114.126V43.0434H121.252V35.8695Z" fill="#FFF7ED"/>
<path d="M114.126 35.8695H107V43.0434H114.126V35.8695Z" fill="#090909"/>
<path d="M149.8 28.6957H142.674V35.8696H149.8V28.6957Z" fill="#0B0A0A"/>
<path d="M142.652 28.6957H135.526V35.8696H142.652V28.6957Z" fill="#CFC1B3"/>
<path d="M135.526 28.6957H128.4V35.8696H135.526V28.6957Z" fill="#CEC0B5"/>
<path d="M128.4 28.6957H121.274V35.8696H128.4V28.6957Z" fill="#FFF7ED"/>
<path d="M121.252 28.6957H114.126V35.8696H121.252V28.6957Z" fill="#FFF8ED"/>
<path d="M114.126 28.6957H107V35.8696H114.126V28.6957Z" fill="#0D0D0C"/>
<path d="M142.652 21.5217H135.526V28.6956H142.652V21.5217Z" fill="#090909"/>
<path d="M135.526 21.5217H128.4V28.6956H135.526V21.5217Z" fill="#CEC0B5"/>
<path d="M128.4 21.5217H121.274V28.6956H128.4V21.5217Z" fill="#FFF7ED"/>
<path d="M121.252 21.5217H114.126V28.6956H121.252V21.5217Z" fill="#090909"/>
<path d="M142.652 14.3478H135.526V21.5217H142.652V14.3478Z" fill="#080909"/>
<path d="M135.526 14.3478H128.4V21.5217H135.526V14.3478Z" fill="#CEC0B5"/>
<path d="M128.4 14.3478H121.274V21.5217H128.4V14.3478Z" fill="#FFF7ED"/>
<path d="M121.252 14.3478H114.126V21.5217H121.252V14.3478Z" fill="#0C0C0C"/>
<path d="M135.526 7.17395H128.4V14.3479H135.526V7.17395Z" fill="#D0C0B6"/>
<path d="M128.4 7.17395H121.274V14.3479H128.4V7.17395Z" fill="#090909"/>
<path d="M135.526 0H128.4V7.17391H135.526V0Z" fill="#090909"/>
<path d="M128.4 0H121.274V7.17391H128.4V0Z" fill="#080809"/>
</g>
<defs>
<clipPath id="clip0_596_8412">
<rect width="214" height="165" fill="white"/>
</clipPath>
</defs>
</svg>
