<svg width="137" height="164" viewBox="0 0 137 164" fill="none" xmlns="http://www.w3.org/2000/svg">
<path d="M91.0563 89.5368H75.9138V104.369H91.0563V89.5368ZM45.5282 74.7046H37.9318H30.3354V89.5368H45.4779V74.7046H45.5282ZM60.721 59.8232H53.1246H45.5282V74.6554H60.6707V59.8232H60.721ZM75.8635 44.991H68.2671H60.6707V59.8232H75.8132V44.991H75.8635ZM75.8635 30.1588H68.2671H60.6707V44.991H75.8132V30.1588H75.8635ZM91.0563 59.8232H83.4599H75.8635V74.6554H91.006V59.8232H91.0563ZM106.199 74.7046H91.0563V89.5368H106.199V74.7046ZM60.721 89.5368H53.1246H45.5282V104.369H60.6707V89.5368H60.721ZM75.8635 104.418H68.2671H60.6707V119.25H75.8132V104.418H75.8635ZM75.8635 119.25H68.2671H60.6707V134.083H75.8132V119.25H75.8635Z" fill="#FAED1D"/>
<path d="M75.8631 59.8232H68.2667H60.6703V74.6554H75.8128V59.8232H75.8631ZM60.7206 74.7047H53.1242H45.5278V89.5369H60.6703V74.7047H60.7206ZM75.8631 89.5369H68.2667H60.6703V104.369H75.8128V89.5369H75.8631ZM91.0559 74.7047H83.4595H75.8631V89.5369H91.0056V74.7047H91.0559ZM75.8631 74.7047H68.2667H60.6703V89.5369H75.8128V74.7047H75.8631Z" fill="white"/>
<path d="M75.8633 0.445312H68.2669H60.6705V15.2775H75.813V0.445312H75.8633ZM75.8633 148.964H68.2669H60.6705V163.846H75.813V149.014L75.8633 148.964ZM75.8633 134.132H68.2669H60.6705V149.014H75.813V134.181L75.8633 134.132ZM91.0561 119.251H83.4597H75.8633V134.083H91.0058V119.251H91.0561ZM60.7208 119.251H53.1244H45.528V134.083H60.6705V119.251H60.7208ZM60.7208 104.418H53.1244H45.528V119.251H60.6705V104.418H60.7208ZM91.0561 104.418H83.4597H75.8633V119.251H91.0058V104.418H91.0561ZM45.528 89.537H37.9316H30.3353V104.369H45.4777V89.537H45.528ZM106.199 89.537H91.0561V104.369H106.199V89.537ZM15.1928 74.7048H7.59639H0V89.537H15.1425V74.7048H15.1928ZM30.3856 74.7048H22.7892H15.1928V89.537H30.3353V74.7048H30.3856ZM121.391 74.7048H113.795H106.199V89.537H121.341V74.7048H121.391ZM136.534 74.7048H128.937H121.341V89.537H136.483V74.7048H136.534ZM45.528 59.8233H37.9316H30.3353V74.6555H45.4777V59.8233H45.528ZM106.199 59.8233H98.6022H91.0058V74.6555H106.148V59.8233H106.199ZM60.7208 44.9911H53.1244H45.528V59.8233H60.6705V44.9911H60.7208ZM60.7208 30.159H53.1244H45.528V44.9911H60.6705V30.159H60.7208ZM91.0561 44.9911H83.4597H75.8633V59.8726H91.0058V45.0404L91.0561 44.9911ZM91.0561 30.159H83.4597H75.8633V44.9911H91.0058V30.159H91.0561ZM75.8633 15.2775H68.2669H60.6705V30.1097H75.813V15.2775H75.8633Z" fill="#D66127"/>
</svg>
