<svg width="251" height="249" viewBox="0 0 251 249" fill="none" xmlns="http://www.w3.org/2000/svg">
<g clip-path="url(#clip0_678_18634)">
<path d="M122.83 243.702H128.17V249H122.83V243.702Z" fill="white"/>
<path d="M117.489 238.404H122.83V243.702H117.489V238.404Z" fill="white"/>
<path d="M128.17 238.404H133.511V243.702H128.17V238.404Z" fill="white"/>
<path d="M112.149 233.106H117.489V238.404H112.149V233.106Z" fill="white"/>
<path d="M133.511 233.106H138.851V238.404H133.511V233.106Z" fill="white"/>
<path d="M106.809 227.809H112.149V233.106H106.809V227.809Z" fill="white"/>
<path d="M138.851 227.809H144.191V233.106H138.851V227.809Z" fill="white"/>
<path d="M101.468 222.511H106.809V227.809H101.468V222.511Z" fill="white"/>
<path d="M144.192 222.511H149.532V227.809H144.192V222.511Z" fill="white"/>
<path d="M96.1276 217.213H101.468V222.511H96.1276V217.213Z" fill="white"/>
<path d="M149.532 217.213H154.872V222.511H149.532V217.213Z" fill="white"/>
<path d="M90.7873 211.915H96.1277V217.213H90.7873V211.915Z" fill="white"/>
<path d="M154.872 211.915H160.213V217.213H154.872V211.915Z" fill="white"/>
<path d="M85.4467 206.617H90.7871V211.915H85.4467V206.617Z" fill="white"/>
<path d="M160.213 206.617H165.553V211.915H160.213V206.617Z" fill="white"/>
<path d="M80.1064 201.319H85.4468V206.617H80.1064V201.319Z" fill="white"/>
<path d="M165.553 201.319H170.894V206.617H165.553V201.319Z" fill="white"/>
<path d="M74.766 196.021H80.1064V201.319H74.766V196.021Z" fill="white"/>
<path d="M170.894 196.021H176.234V201.319H170.894V196.021Z" fill="white"/>
<path d="M69.4254 190.723H74.7659V196.021H69.4254V190.723Z" fill="white"/>
<path d="M176.234 190.723H181.574V196.021H176.234V190.723Z" fill="white"/>
<path d="M64.0851 185.426H69.4255V190.723H64.0851V185.426Z" fill="white"/>
<path d="M181.574 185.426H186.915V190.723H181.574V185.426Z" fill="white"/>
<path d="M58.7448 180.128H64.0852V185.426H58.7448V180.128Z" fill="white"/>
<path d="M186.915 180.128H192.255V185.426H186.915V180.128Z" fill="white"/>
<path d="M53.4042 174.83H58.7446V180.128H53.4042V174.83Z" fill="white"/>
<path d="M192.255 174.83H197.596V180.128H192.255V174.83Z" fill="white"/>
<path d="M48.0639 169.532H53.4043V174.83H48.0639V169.532Z" fill="white"/>
<path d="M197.596 169.532H202.936V174.83H197.596V169.532Z" fill="white"/>
<path d="M42.7233 164.234H48.0637V169.532H42.7233V164.234Z" fill="white"/>
<path d="M202.936 164.234H208.277V169.532H202.936V164.234Z" fill="white"/>
<path d="M37.383 158.936H42.7234V164.234H37.383V158.936Z" fill="white"/>
<path d="M208.277 158.936H213.617V164.234H208.277V158.936Z" fill="white"/>
<path d="M32.0426 153.638H37.3831V158.936H32.0426V153.638Z" fill="white"/>
<path d="M213.617 153.638H218.958V158.936H213.617V153.638Z" fill="white"/>
<path d="M26.7021 148.34H32.0425V153.638H26.7021V148.34Z" fill="white"/>
<path d="M218.957 148.34H224.298V153.638H218.957V148.34Z" fill="white"/>
<path d="M21.3617 143.042H26.7021V148.34H21.3617V143.042Z" fill="white"/>
<path d="M224.298 143.042H229.638V148.34H224.298V143.042Z" fill="white"/>
<path d="M16.0214 137.745H21.3618V143.042H16.0214V137.745Z" fill="white"/>
<path d="M229.638 137.745H234.979V143.042H229.638V137.745Z" fill="white"/>
<path d="M10.6808 132.447H16.0212V137.745H10.6808V132.447Z" fill="white"/>
<path d="M234.979 132.447H240.319V137.745H234.979V132.447Z" fill="white"/>
<path d="M5.34048 127.149H10.6809V132.447H5.34048V127.149Z" fill="white"/>
<path d="M240.319 127.149H245.66V132.447H240.319V127.149Z" fill="white"/>
<path d="M-9.15527e-05 121.851H5.34033V127.149H-9.15527e-05V121.851Z" fill="white"/>
<path d="M245.66 121.851H251V127.149H245.66V121.851Z" fill="white"/>
<path d="M-9.15527e-05 116.553H5.34033V121.851H-9.15527e-05V116.553Z" fill="white"/>
<path d="M240.319 116.553H245.66V121.851H240.319V116.553Z" fill="white"/>
<path d="M5.34048 111.255H10.6809V116.553H5.34048V111.255Z" fill="white"/>
<path d="M234.979 111.255H240.319V116.553H234.979V111.255Z" fill="white"/>
<path d="M10.6808 105.958H16.0212V111.255H10.6808V105.958Z" fill="white"/>
<path d="M229.638 105.958H234.979V111.255H229.638V105.958Z" fill="white"/>
<path d="M16.0214 100.66H21.3618V105.958H16.0214V100.66Z" fill="white"/>
<path d="M224.298 100.66H229.638V105.958H224.298V100.66Z" fill="white"/>
<path d="M21.3617 95.3618H26.7021V100.66H21.3617V95.3618Z" fill="white"/>
<path d="M218.957 95.3618H224.298V100.66H218.957V95.3618Z" fill="white"/>
<path d="M26.7021 90.0637H32.0425V95.3616H26.7021V90.0637Z" fill="white"/>
<path d="M213.617 90.0637H218.958V95.3616H213.617V90.0637Z" fill="white"/>
<path d="M32.0426 84.7659H37.3831V90.0637H32.0426V84.7659Z" fill="white"/>
<path d="M208.277 84.7659H213.617V90.0637H208.277V84.7659Z" fill="white"/>
<path d="M37.383 79.468H42.7234V84.7659H37.383V79.468Z" fill="white"/>
<path d="M202.936 79.468H208.277V84.7659H202.936V79.468Z" fill="white"/>
<path d="M42.7233 74.1702H48.0637V79.468H42.7233V74.1702Z" fill="white"/>
<path d="M197.596 74.1702H202.936V79.468H197.596V74.1702Z" fill="white"/>
<path d="M48.0639 68.8723H53.4043V74.1702H48.0639V68.8723Z" fill="white"/>
<path d="M192.255 68.8723H197.596V74.1702H192.255V68.8723Z" fill="white"/>
<path d="M53.4042 63.5745H58.7446V68.8723H53.4042V63.5745Z" fill="white"/>
<path d="M186.915 63.5745H192.255V68.8723H186.915V63.5745Z" fill="white"/>
<path d="M58.7448 58.2766H64.0852V63.5745H58.7448V58.2766Z" fill="white"/>
<path d="M181.574 58.2766H186.915V63.5745H181.574V58.2766Z" fill="white"/>
<path d="M64.0851 52.9788H69.4255V58.2766H64.0851V52.9788Z" fill="white"/>
<path d="M176.234 52.9788H181.574V58.2766H176.234V52.9788Z" fill="white"/>
<path d="M69.4254 47.6809H74.7659V52.9788H69.4254V47.6809Z" fill="white"/>
<path d="M170.894 47.6809H176.234V52.9788H170.894V47.6809Z" fill="white"/>
<path d="M74.766 42.3831H80.1064V47.6809H74.766V42.3831Z" fill="white"/>
<path d="M165.553 42.3831H170.894V47.6809H165.553V42.3831Z" fill="white"/>
<path d="M80.1064 37.0852H85.4468V42.3831H80.1064V37.0852Z" fill="white"/>
<path d="M160.213 37.0852H165.553V42.3831H160.213V37.0852Z" fill="white"/>
<path d="M85.4467 31.7874H90.7871V37.0852H85.4467V31.7874Z" fill="white"/>
<path d="M154.872 31.7874H160.213V37.0852H154.872V31.7874Z" fill="white"/>
<path d="M90.7873 26.4893H96.1277V31.7871H90.7873V26.4893Z" fill="white"/>
<path d="M149.532 26.4893H154.872V31.7871H149.532V26.4893Z" fill="white"/>
<path d="M96.1276 21.1914H101.468V26.4893H96.1276V21.1914Z" fill="white"/>
<path d="M144.192 21.1914H149.532V26.4893H144.192V21.1914Z" fill="white"/>
<path d="M101.468 15.8936H106.809V21.1914H101.468V15.8936Z" fill="white"/>
<path d="M138.851 15.8936H144.191V21.1914H138.851V15.8936Z" fill="white"/>
<path d="M106.809 10.5957H112.149V15.8936H106.809V10.5957Z" fill="white"/>
<path d="M133.511 10.5957H138.851V15.8936H133.511V10.5957Z" fill="white"/>
<path d="M112.149 5.29785H117.489V10.5957H112.149V5.29785Z" fill="white"/>
<path d="M128.17 5.29785H133.511V10.5957H128.17V5.29785Z" fill="white"/>
<path d="M117.489 0H122.83V5.29787H117.489V0Z" fill="white"/>
<path d="M122.83 0H128.17V5.29787H122.83V0Z" fill="white"/>
</g>
<g clip-path="url(#clip1_678_18634)">
<path d="M127.327 192.127H122.496V196.93H127.327V192.127Z" fill="#0A0C0B"/>
<path d="M122.496 192.127H117.665V196.93H122.496V192.127Z" fill="#0A0C0B"/>
<path d="M127.327 187.315H122.496V192.118H127.327V187.315Z" fill="#0A0C0B"/>
<path d="M122.496 187.315H117.665V192.118H122.496V187.315Z" fill="#0A0C0B"/>
<path d="M127.327 182.511H122.496V187.315H127.327V182.511Z" fill="#0A0C0B"/>
<path d="M122.496 182.511H117.665V187.315H122.496V182.511Z" fill="#0A0C0B"/>
<path d="M132.159 177.707H127.327V182.511H132.159V177.707Z" fill="#070909"/>
<path d="M127.327 177.707H122.496V182.511H127.327V177.707Z" fill="#F9C115"/>
<path d="M122.496 177.707H117.665V182.511H122.496V177.707Z" fill="#FCC115"/>
<path d="M117.673 177.707H112.842V182.511H117.673V177.707Z" fill="#070909"/>
<path d="M180.44 172.895H175.608V177.699H180.44V172.895Z" fill="#070909"/>
<path d="M132.159 172.895H127.327V177.699H132.159V172.895Z" fill="#080A0A"/>
<path d="M127.327 172.895H122.496V177.699H127.327V172.895Z" fill="#F9C115"/>
<path d="M122.496 172.895H117.665V177.699H122.496V172.895Z" fill="#FCC115"/>
<path d="M117.673 172.895H112.842V177.699H117.673V172.895Z" fill="#070909"/>
<path d="M69.3837 172.895H64.5522V177.699H69.3837V172.895Z" fill="#070909"/>
<path d="M175.617 168.092H170.785V172.895H175.617V168.092Z" fill="#070909"/>
<path d="M170.785 168.092H165.954V172.895H170.785V168.092Z" fill="#070909"/>
<path d="M146.645 168.092H141.813V172.895H146.645V168.092Z" fill="#070909"/>
<path d="M136.982 168.092H132.15V172.895H136.982V168.092Z" fill="#070909"/>
<path d="M132.159 168.092H127.327V172.895H132.159V168.092Z" fill="#F9BF16"/>
<path d="M127.327 168.092H122.496V172.895H127.327V168.092Z" fill="#F9BF16"/>
<path d="M122.496 168.092H117.665V172.895H122.496V168.092Z" fill="#F9BF16"/>
<path d="M117.673 168.092H112.842V172.895H117.673V168.092Z" fill="#F9BF16"/>
<path d="M112.841 168.092H108.01V172.895H112.841V168.092Z" fill="#070909"/>
<path d="M103.187 168.092H98.3555V172.895H103.187V168.092Z" fill="#070909"/>
<path d="M79.0382 168.092H74.2068V172.895H79.0382V168.092Z" fill="#070909"/>
<path d="M74.2152 168.092H69.3838V172.895H74.2152V168.092Z" fill="#070909"/>
<path d="M175.617 163.288H170.785V168.092H175.617V163.288Z" fill="#070909"/>
<path d="M170.785 163.288H165.954V168.092H170.785V163.288Z" fill="#FBC014"/>
<path d="M165.954 163.288H161.122V168.092H165.954V163.288Z" fill="#070909"/>
<path d="M161.131 163.288H156.299V168.092H161.131V163.288Z" fill="#070909"/>
<path d="M156.299 163.288H151.468V168.092H156.299V163.288Z" fill="#070909"/>
<path d="M141.813 163.288H136.982V168.092H141.813V163.288Z" fill="#070809"/>
<path d="M136.982 163.288H132.15V168.092H136.982V163.288Z" fill="#FABF15"/>
<path d="M132.159 163.288H127.327V168.092H132.159V163.288Z" fill="#FBC014"/>
<path d="M127.327 163.288H122.496V168.092H127.327V163.288Z" fill="#FBC014"/>
<path d="M122.496 163.288H117.665V168.092H122.496V163.288Z" fill="#FBC014"/>
<path d="M117.673 163.288H112.842V168.092H117.673V163.288Z" fill="#FBC014"/>
<path d="M112.841 163.288H108.01V168.092H112.841V163.288Z" fill="#F9C214"/>
<path d="M108.01 163.288H103.179V168.092H108.01V163.288Z" fill="#070909"/>
<path d="M93.5241 163.288H88.6926V168.092H93.5241V163.288Z" fill="#353434"/>
<path d="M88.7011 163.288H83.8696V168.092H88.7011V163.288Z" fill="#070909"/>
<path d="M83.8698 163.288H79.0383V168.092H83.8698V163.288Z" fill="#070808"/>
<path d="M79.0382 163.288H74.2068V168.092H79.0382V163.288Z" fill="#F9C215"/>
<path d="M74.2152 163.288H69.3838V168.092H74.2152V163.288Z" fill="#070909"/>
<path d="M170.785 158.476H165.954V163.28H170.785V158.476Z" fill="#080909"/>
<path d="M165.954 158.476H161.122V163.28H165.954V158.476Z" fill="#FBC014"/>
<path d="M161.131 158.476H156.299V163.28H161.131V158.476Z" fill="#FBBF15"/>
<path d="M156.299 158.476H151.468V163.28H156.299V158.476Z" fill="#FEC215"/>
<path d="M151.468 158.476H146.636V163.28H151.468V158.476Z" fill="#070909"/>
<path d="M146.645 158.476H141.813V163.28H146.645V158.476Z" fill="#080A0A"/>
<path d="M141.813 158.476H136.982V163.28H141.813V158.476Z" fill="#FBBE14"/>
<path d="M136.982 158.476H132.15V163.28H136.982V158.476Z" fill="#FBC014"/>
<path d="M132.159 158.476H127.327V163.28H132.159V158.476Z" fill="#FBC014"/>
<path d="M127.327 158.476H122.496V163.28H127.327V158.476Z" fill="#FBC014"/>
<path d="M122.496 158.476H117.665V163.28H122.496V158.476Z" fill="#FBC014"/>
<path d="M117.673 158.476H112.842V163.28H117.673V158.476Z" fill="#FBC014"/>
<path d="M112.841 158.476H108.01V163.28H112.841V158.476Z" fill="#FBC014"/>
<path d="M108.01 158.476H103.179V163.28H108.01V158.476Z" fill="#FABF15"/>
<path d="M103.187 158.476H98.3555V163.28H103.187V158.476Z" fill="#070909"/>
<path d="M98.3556 158.476H93.5242V163.28H98.3556V158.476Z" fill="#070909"/>
<path d="M93.5241 158.476H88.6926V163.28H93.5241V158.476Z" fill="#070909"/>
<path d="M88.7011 158.476H83.8696V163.28H88.7011V158.476Z" fill="#FBBF15"/>
<path d="M83.8698 158.476H79.0383V163.28H83.8698V158.476Z" fill="#FAC015"/>
<path d="M79.0382 158.476H74.2068V163.28H79.0382V158.476Z" fill="#080909"/>
<path d="M170.785 153.672H165.954V158.476H170.785V153.672Z" fill="#070909"/>
<path d="M165.954 153.672H161.122V158.476H165.954V153.672Z" fill="#F9BF16"/>
<path d="M161.131 153.672H156.299V158.476H161.131V153.672Z" fill="#F9BF16"/>
<path d="M156.299 153.672H151.468V158.476H156.299V153.672Z" fill="#FDBE14"/>
<path d="M151.468 153.672H146.636V158.476H151.468V153.672Z" fill="#FBC014"/>
<path d="M146.645 153.672H141.813V158.476H146.645V153.672Z" fill="#FBC014"/>
<path d="M141.813 153.672H136.982V158.476H141.813V153.672Z" fill="#FBC014"/>
<path d="M136.982 153.672H132.15V158.476H136.982V153.672Z" fill="#FBC014"/>
<path d="M132.159 153.672H127.327V158.476H132.159V153.672Z" fill="#09090B"/>
<path d="M127.327 153.672H122.496V158.476H127.327V153.672Z" fill="#09090B"/>
<path d="M122.496 153.672H117.665V158.476H122.496V153.672Z" fill="#09090B"/>
<path d="M117.673 153.672H112.842V158.476H117.673V153.672Z" fill="#09090B"/>
<path d="M112.841 153.672H108.01V158.476H112.841V153.672Z" fill="#FBC014"/>
<path d="M108.01 153.672H103.179V158.476H108.01V153.672Z" fill="#FBC014"/>
<path d="M103.187 153.672H98.3555V158.476H103.187V153.672Z" fill="#FBC014"/>
<path d="M98.3556 153.672H93.5242V158.476H98.3556V153.672Z" fill="#FBC014"/>
<path d="M93.5241 153.672H88.6926V158.476H93.5241V153.672Z" fill="#FBC014"/>
<path d="M88.7011 153.672H83.8696V158.476H88.7011V153.672Z" fill="#F9BF16"/>
<path d="M83.8698 153.672H79.0383V158.476H83.8698V153.672Z" fill="#F8C116"/>
<path d="M79.0382 153.672H74.2068V158.476H79.0382V153.672Z" fill="#070909"/>
<path d="M170.785 148.869H165.954V153.672H170.785V148.869Z" fill="#070909"/>
<path d="M165.954 148.869H161.122V153.672H165.954V148.869Z" fill="#F9BF16"/>
<path d="M161.131 148.869H156.299V153.672H161.131V148.869Z" fill="#F9C115"/>
<path d="M156.299 148.869H151.468V153.672H156.299V148.869Z" fill="#F9BF16"/>
<path d="M151.468 148.869H146.636V153.672H151.468V148.869Z" fill="#F9C115"/>
<path d="M146.645 148.869H141.813V153.672H146.645V148.869Z" fill="#FBC014"/>
<path d="M141.813 148.869H136.982V153.672H141.813V148.869Z" fill="#080909"/>
<path d="M136.982 148.869H132.15V153.672H136.982V148.869Z" fill="#070909"/>
<path d="M132.159 148.869H127.327V153.672H132.159V148.869Z" fill="#F58420"/>
<path d="M127.327 148.869H122.496V153.672H127.327V148.869Z" fill="#F89620"/>
<path d="M122.496 148.869H117.665V153.672H122.496V148.869Z" fill="#F89820"/>
<path d="M117.673 148.869H112.842V153.672H117.673V148.869Z" fill="#F68520"/>
<path d="M112.841 148.869H108.01V153.672H112.841V148.869Z" fill="#070909"/>
<path d="M108.01 148.869H103.179V153.672H108.01V148.869Z" fill="#07090A"/>
<path d="M103.187 148.869H98.3555V153.672H103.187V148.869Z" fill="#FBC014"/>
<path d="M98.3556 148.869H93.5242V153.672H98.3556V148.869Z" fill="#FBC015"/>
<path d="M93.5241 148.869H88.6926V153.672H93.5241V148.869Z" fill="#FBC014"/>
<path d="M88.7011 148.869H83.8696V153.672H88.7011V148.869Z" fill="#FAC214"/>
<path d="M83.8698 148.869H79.0383V153.672H83.8698V148.869Z" fill="#F8C116"/>
<path d="M79.0382 148.869H74.2068V153.672H79.0382V148.869Z" fill="#070909"/>
<path d="M165.954 144.057H161.122V148.86H165.954V144.057Z" fill="#080909"/>
<path d="M161.131 144.057H156.299V148.86H161.131V144.057Z" fill="#F8C31D"/>
<path d="M156.299 144.057H151.468V148.86H156.299V144.057Z" fill="#FAC215"/>
<path d="M151.468 144.057H146.636V148.86H151.468V144.057Z" fill="#FBC014"/>
<path d="M146.645 144.057H141.813V148.86H146.645V144.057Z" fill="#070909"/>
<path d="M141.813 144.057H136.982V148.86H141.813V144.057Z" fill="#F68520"/>
<path d="M136.982 144.057H132.15V148.86H136.982V144.057Z" fill="#F89820"/>
<path d="M132.159 144.057H127.327V148.86H132.159V144.057Z" fill="#F9A21E"/>
<path d="M127.327 144.057H122.496V148.86H127.327V144.057Z" fill="#F9A21E"/>
<path d="M122.496 144.057H117.665V148.86H122.496V144.057Z" fill="#F9A21E"/>
<path d="M117.673 144.057H112.842V148.86H117.673V144.057Z" fill="#F9A21E"/>
<path d="M112.841 144.057H108.01V148.86H112.841V144.057Z" fill="#F89820"/>
<path d="M108.01 144.057H103.179V148.86H108.01V144.057Z" fill="#F58420"/>
<path d="M103.187 144.057H98.3555V148.86H103.187V144.057Z" fill="#070909"/>
<path d="M98.3556 144.057H93.5242V148.86H98.3556V144.057Z" fill="#FBC014"/>
<path d="M93.5241 144.057H88.6926V148.86H93.5241V144.057Z" fill="#FDBB16"/>
<path d="M88.7011 144.057H83.8696V148.86H88.7011V144.057Z" fill="#FDBE15"/>
<path d="M83.8698 144.057H79.0383V148.86H83.8698V144.057Z" fill="#070909"/>
<path d="M175.617 139.253H170.785V144.057H175.617V139.253Z" fill="#070909"/>
<path d="M165.954 139.253H161.122V144.057H165.954V139.253Z" fill="#070909"/>
<path d="M161.131 139.253H156.299V144.057H161.131V139.253Z" fill="#F8C31D"/>
<path d="M156.299 139.253H151.468V144.057H156.299V139.253Z" fill="#FBC415"/>
<path d="M151.468 139.253H146.636V144.057H151.468V139.253Z" fill="#07090A"/>
<path d="M146.645 139.253H141.813V144.057H146.645V139.253Z" fill="#F58420"/>
<path d="M141.813 139.253H136.982V144.057H141.813V139.253Z" fill="#F89820"/>
<path d="M136.982 139.253H132.15V144.057H136.982V139.253Z" fill="#FBAD1B"/>
<path d="M132.159 139.253H127.327V144.057H132.159V139.253Z" fill="#FAAD1B"/>
<path d="M127.327 139.253H122.496V144.057H127.327V139.253Z" fill="#FAAD1B"/>
<path d="M122.496 139.253H117.665V144.057H122.496V139.253Z" fill="#FAAD1B"/>
<path d="M117.673 139.253H112.842V144.057H117.673V139.253Z" fill="#FAAD1B"/>
<path d="M112.841 139.253H108.01V144.057H112.841V139.253Z" fill="#FBAD1B"/>
<path d="M108.01 139.253H103.179V144.057H108.01V139.253Z" fill="#F89820"/>
<path d="M103.187 139.253H98.3555V144.057H103.187V139.253Z" fill="#F68520"/>
<path d="M98.3556 139.253H93.5242V144.057H98.3556V139.253Z" fill="#0A090B"/>
<path d="M93.5241 139.253H88.6926V144.057H93.5241V139.253Z" fill="#FBC014"/>
<path d="M88.7011 139.253H83.8696V144.057H88.7011V139.253Z" fill="#FDBE15"/>
<path d="M83.8698 139.253H79.0383V144.057H83.8698V139.253Z" fill="#070909"/>
<path d="M74.2152 139.253H69.3838V144.057H74.2152V139.253Z" fill="#070909"/>
<path d="M170.785 134.449H165.954V139.253H170.785V134.449Z" fill="#070808"/>
<path d="M165.954 134.449H161.122V139.253H165.954V134.449Z" fill="#FDBE13"/>
<path d="M161.131 134.449H156.299V139.253H161.131V134.449Z" fill="#FBC014"/>
<path d="M156.299 134.449H151.468V139.253H156.299V134.449Z" fill="#FBC014"/>
<path d="M151.468 134.449H146.636V139.253H151.468V134.449Z" fill="#07090A"/>
<path d="M146.645 134.449H141.813V139.253H146.645V134.449Z" fill="#F89820"/>
<path d="M141.813 134.449H136.982V139.253H141.813V134.449Z" fill="#FAAD1B"/>
<path d="M136.982 134.449H132.15V139.253H136.982V134.449Z" fill="#F9C115"/>
<path d="M132.159 134.449H127.327V139.253H132.159V134.449Z" fill="#F9BF16"/>
<path d="M127.327 134.449H122.496V139.253H127.327V134.449Z" fill="#F9BF16"/>
<path d="M122.496 134.449H117.665V139.253H122.496V134.449Z" fill="#F9BF16"/>
<path d="M117.673 134.449H112.842V139.253H117.673V134.449Z" fill="#F9BF16"/>
<path d="M112.841 134.449H108.01V139.253H112.841V134.449Z" fill="#FABF15"/>
<path d="M108.01 134.449H103.179V139.253H108.01V134.449Z" fill="#FAAD1B"/>
<path d="M103.187 134.449H98.3555V139.253H103.187V134.449Z" fill="#F89820"/>
<path d="M98.3556 134.449H93.5242V139.253H98.3556V134.449Z" fill="#0C0A0A"/>
<path d="M93.5241 134.449H88.6926V139.253H93.5241V134.449Z" fill="#FBC014"/>
<path d="M88.7011 134.449H83.8696V139.253H88.7011V134.449Z" fill="#FBC014"/>
<path d="M83.8698 134.449H79.0383V139.253H83.8698V134.449Z" fill="#F9BF16"/>
<path d="M79.0382 134.449H74.2068V139.253H79.0382V134.449Z" fill="#070909"/>
<path d="M180.44 129.637H175.608V134.441H180.44V129.637Z" fill="#070909"/>
<path d="M175.617 129.637H170.785V134.441H175.617V129.637Z" fill="#070809"/>
<path d="M170.785 129.637H165.954V134.441H170.785V129.637Z" fill="#FABF15"/>
<path d="M165.954 129.637H161.122V134.441H165.954V129.637Z" fill="#FBC014"/>
<path d="M161.131 129.637H156.299V134.441H161.131V129.637Z" fill="#FBC014"/>
<path d="M156.299 129.637H151.468V134.441H156.299V129.637Z" fill="#070809"/>
<path d="M151.468 129.637H146.636V134.441H151.468V129.637Z" fill="#F58420"/>
<path d="M146.645 129.637H141.813V134.441H146.645V129.637Z" fill="#FAA31D"/>
<path d="M141.813 129.637H136.982V134.441H141.813V129.637Z" fill="#FBC214"/>
<path d="M136.982 129.637H132.15V134.441H136.982V129.637Z" fill="#F9C115"/>
<path d="M132.159 129.637H127.327V134.441H132.159V129.637Z" fill="#F9BF16"/>
<path d="M127.327 129.637H122.496V134.441H127.327V129.637Z" fill="#F9BF16"/>
<path d="M122.496 129.637H117.665V134.441H122.496V129.637Z" fill="#F9C115"/>
<path d="M117.673 129.637H112.842V134.441H117.673V129.637Z" fill="#F9BF16"/>
<path d="M112.841 129.637H108.01V134.441H112.841V129.637Z" fill="#FABF15"/>
<path d="M108.01 129.637H103.179V134.441H108.01V129.637Z" fill="#FFD34F"/>
<path d="M103.187 129.637H98.3555V134.441H103.187V129.637Z" fill="#FBAD1B"/>
<path d="M98.3556 129.637H93.5242V134.441H98.3556V129.637Z" fill="#F89820"/>
<path d="M93.5241 129.637H88.6926V134.441H93.5241V129.637Z" fill="#0D0A0B"/>
<path d="M88.7011 129.637H83.8696V134.441H88.7011V129.637Z" fill="#FBC014"/>
<path d="M83.8698 129.637H79.0383V134.441H83.8698V129.637Z" fill="#F9BF16"/>
<path d="M79.0382 129.637H74.2068V134.441H79.0382V129.637Z" fill="#FABF15"/>
<path d="M74.2152 129.637H69.3838V134.441H74.2152V129.637Z" fill="#070909"/>
<path d="M69.3837 129.637H64.5522V134.441H69.3837V129.637Z" fill="#070909"/>
<path d="M194.925 124.834H190.094V129.637H194.925V124.834Z" fill="#080A0A"/>
<path d="M190.102 124.834H185.271V129.637H190.102V124.834Z" fill="#080A0A"/>
<path d="M185.271 124.834H180.439V129.637H185.271V124.834Z" fill="#080A0A"/>
<path d="M180.44 124.834H175.608V129.637H180.44V124.834Z" fill="#FBC014"/>
<path d="M175.617 124.834H170.785V129.637H175.617V124.834Z" fill="#FBC014"/>
<path d="M170.785 124.834H165.954V129.637H170.785V124.834Z" fill="#F9BF16"/>
<path d="M165.954 124.834H161.122V129.637H165.954V124.834Z" fill="#FBC014"/>
<path d="M161.131 124.834H156.299V129.637H161.131V124.834Z" fill="#FBC014"/>
<path d="M156.299 124.834H151.468V129.637H156.299V124.834Z" fill="#09090B"/>
<path d="M151.468 124.834H146.636V129.637H151.468V124.834Z" fill="#F79320"/>
<path d="M146.645 124.834H141.813V129.637H146.645V124.834Z" fill="#F8A91E"/>
<path d="M141.813 124.834H136.982V129.637H141.813V124.834Z" fill="#F9BF16"/>
<path d="M136.982 124.834H132.15V129.637H136.982V124.834Z" fill="#F9BF16"/>
<path d="M132.159 124.834H127.327V129.637H132.159V124.834Z" fill="#F9BF16"/>
<path d="M127.327 124.834H122.496V129.637H127.327V124.834Z" fill="#F9BF16"/>
<path d="M122.496 124.834H117.665V129.637H122.496V124.834Z" fill="#F9BF16"/>
<path d="M117.673 124.834H112.842V129.637H117.673V124.834Z" fill="#F9C115"/>
<path d="M112.841 124.834H108.01V129.637H112.841V124.834Z" fill="#F8C01B"/>
<path d="M108.01 124.834H103.179V129.637H108.01V124.834Z" fill="#F7D569"/>
<path d="M103.187 124.834H98.3555V129.637H103.187V124.834Z" fill="#F7C040"/>
<path d="M98.3556 124.834H93.5242V129.637H98.3556V124.834Z" fill="#F9A71A"/>
<path d="M93.5241 124.834H88.6926V129.637H93.5241V124.834Z" fill="#0D0A0B"/>
<path d="M88.7011 124.834H83.8696V129.637H88.7011V124.834Z" fill="#FBC014"/>
<path d="M83.8698 124.834H79.0383V129.637H83.8698V124.834Z" fill="#F9BF16"/>
<path d="M79.0382 124.834H74.2068V129.637H79.0382V124.834Z" fill="#F9BF16"/>
<path d="M74.2152 124.834H69.3838V129.637H74.2152V124.834Z" fill="#FBC014"/>
<path d="M69.3837 124.834H64.5522V129.637H69.3837V124.834Z" fill="#FBC014"/>
<path d="M64.5524 124.834H59.7209V129.637H64.5524V124.834Z" fill="#080A0A"/>
<path d="M59.7294 124.834H54.8979V129.637H59.7294V124.834Z" fill="#080A0A"/>
<path d="M54.8978 124.834H50.0664V129.637H54.8978V124.834Z" fill="#080A0A"/>
<path d="M194.925 120.03H190.094V124.834H194.925V120.03Z" fill="#080A0A"/>
<path d="M190.102 120.03H185.271V124.834H190.102V120.03Z" fill="#080A0A"/>
<path d="M185.271 120.03H180.439V124.834H185.271V120.03Z" fill="#080A0A"/>
<path d="M180.44 120.03H175.608V124.834H180.44V120.03Z" fill="#FBBF14"/>
<path d="M175.617 120.03H170.785V124.834H175.617V120.03Z" fill="#FBBF14"/>
<path d="M170.785 120.03H165.954V124.834H170.785V120.03Z" fill="#F9BF16"/>
<path d="M165.954 120.03H161.122V124.834H165.954V120.03Z" fill="#FBC014"/>
<path d="M161.131 120.03H156.299V124.834H161.131V120.03Z" fill="#FBC014"/>
<path d="M156.299 120.03H151.468V124.834H156.299V120.03Z" fill="#0A0C0B"/>
<path d="M151.468 120.03H146.636V124.834H151.468V120.03Z" fill="#F89820"/>
<path d="M146.645 120.03H141.813V124.834H146.645V120.03Z" fill="#F8B019"/>
<path d="M141.813 120.03H136.982V124.834H141.813V120.03Z" fill="#F9BF16"/>
<path d="M136.982 120.03H132.15V124.834H136.982V120.03Z" fill="#F9C115"/>
<path d="M132.159 120.03H127.327V124.834H132.159V120.03Z" fill="#FABF15"/>
<path d="M127.327 120.03H122.496V124.834H127.327V120.03Z" fill="#F9BF16"/>
<path d="M122.496 120.03H117.665V124.834H122.496V120.03Z" fill="#F9BF16"/>
<path d="M117.673 120.03H112.842V124.834H117.673V120.03Z" fill="#F8C116"/>
<path d="M112.841 120.03H108.01V124.834H112.841V120.03Z" fill="#FABE15"/>
<path d="M108.01 120.03H103.179V124.834H108.01V120.03Z" fill="#FEDC76"/>
<path d="M103.187 120.03H98.3555V124.834H103.187V120.03Z" fill="#FCD54E"/>
<path d="M98.3556 120.03H93.5242V124.834H98.3556V120.03Z" fill="#FAAD1B"/>
<path d="M93.5241 120.03H88.6926V124.834H93.5241V120.03Z" fill="#0D0A0B"/>
<path d="M88.7011 120.03H83.8696V124.834H88.7011V120.03Z" fill="#FBC014"/>
<path d="M83.8698 120.03H79.0383V124.834H83.8698V120.03Z" fill="#F9BF16"/>
<path d="M79.0382 120.03H74.2068V124.834H79.0382V120.03Z" fill="#FAC015"/>
<path d="M74.2152 120.03H69.3838V124.834H74.2152V120.03Z" fill="#FEC013"/>
<path d="M69.3837 120.03H64.5522V124.834H69.3837V120.03Z" fill="#FBC014"/>
<path d="M64.5524 120.03H59.7209V124.834H64.5524V120.03Z" fill="#080A0A"/>
<path d="M59.7294 120.03H54.8979V124.834H59.7294V120.03Z" fill="#080A0A"/>
<path d="M54.8978 120.03H50.0664V124.834H54.8978V120.03Z" fill="#080A0A"/>
<path d="M180.44 115.218H175.608V120.022H180.44V115.218Z" fill="#070909"/>
<path d="M175.617 115.218H170.785V120.022H175.617V115.218Z" fill="#070909"/>
<path d="M170.785 115.218H165.954V120.022H170.785V115.218Z" fill="#F9C115"/>
<path d="M165.954 115.218H161.122V120.022H165.954V115.218Z" fill="#FBC014"/>
<path d="M161.131 115.218H156.299V120.022H161.131V115.218Z" fill="#FBC014"/>
<path d="M156.299 115.218H151.468V120.022H156.299V115.218Z" fill="#07090A"/>
<path d="M151.468 115.218H146.636V120.022H151.468V115.218Z" fill="#F89820"/>
<path d="M146.645 115.218H141.813V120.022H146.645V115.218Z" fill="#F9BF16"/>
<path d="M141.813 115.218H136.982V120.022H141.813V115.218Z" fill="#F9BF16"/>
<path d="M136.982 115.218H132.15V120.022H136.982V115.218Z" fill="#F9BF16"/>
<path d="M132.159 115.218H127.327V120.022H132.159V115.218Z" fill="#F9BF16"/>
<path d="M127.327 115.218H122.496V120.022H127.327V115.218Z" fill="#F9BF16"/>
<path d="M122.496 115.218H117.665V120.022H122.496V115.218Z" fill="#F9C115"/>
<path d="M117.673 115.218H112.842V120.022H117.673V115.218Z" fill="#FBC214"/>
<path d="M112.841 115.218H108.01V120.022H112.841V115.218Z" fill="#FFD450"/>
<path d="M108.01 115.218H103.179V120.022H108.01V115.218Z" fill="#F9ED82"/>
<path d="M103.187 115.218H98.3555V120.022H103.187V115.218Z" fill="#FAD54B"/>
<path d="M98.3556 115.218H93.5242V120.022H98.3556V115.218Z" fill="#F9AE1A"/>
<path d="M93.5241 115.218H88.6926V120.022H93.5241V115.218Z" fill="#0D0A0B"/>
<path d="M88.7011 115.218H83.8696V120.022H88.7011V115.218Z" fill="#FBC014"/>
<path d="M83.8698 115.218H79.0383V120.022H83.8698V115.218Z" fill="#FBC014"/>
<path d="M79.0382 115.218H74.2068V120.022H79.0382V115.218Z" fill="#FEC013"/>
<path d="M74.2152 115.218H69.3838V120.022H74.2152V115.218Z" fill="#070909"/>
<path d="M69.3837 115.218H64.5522V120.022H69.3837V115.218Z" fill="#070909"/>
<path d="M170.785 110.415H165.954V115.218H170.785V110.415Z" fill="#070909"/>
<path d="M165.954 110.415H161.122V115.218H165.954V110.415Z" fill="#F9C115"/>
<path d="M161.131 110.415H156.299V115.218H161.131V110.415Z" fill="#FBC014"/>
<path d="M156.299 110.415H151.468V115.218H156.299V110.415Z" fill="#FBC014"/>
<path d="M151.468 110.415H146.636V115.218H151.468V110.415Z" fill="#080909"/>
<path d="M146.645 110.415H141.813V115.218H146.645V110.415Z" fill="#F9BF16"/>
<path d="M141.813 110.415H136.982V115.218H141.813V110.415Z" fill="#F9BF16"/>
<path d="M136.982 110.415H132.15V115.218H136.982V110.415Z" fill="#F9BF16"/>
<path d="M132.159 110.415H127.327V115.218H132.159V110.415Z" fill="#F9BF16"/>
<path d="M127.327 110.415H122.496V115.218H127.327V110.415Z" fill="#F9BF16"/>
<path d="M122.496 110.415H117.665V115.218H122.496V110.415Z" fill="#FBBD14"/>
<path d="M117.673 110.415H112.842V115.218H117.673V110.415Z" fill="#FDD34F"/>
<path d="M112.841 110.415H108.01V115.218H112.841V110.415Z" fill="#F9EB84"/>
<path d="M108.01 110.415H103.179V115.218H108.01V110.415Z" fill="#FDF6AD"/>
<path d="M103.187 110.415H98.3555V115.218H103.187V110.415Z" fill="#FABF15"/>
<path d="M98.3556 110.415H93.5242V115.218H98.3556V110.415Z" fill="#080A0A"/>
<path d="M93.5241 110.415H88.6926V115.218H93.5241V110.415Z" fill="#FBC014"/>
<path d="M88.7011 110.415H83.8696V115.218H88.7011V110.415Z" fill="#F9BF16"/>
<path d="M83.8698 110.415H79.0383V115.218H83.8698V110.415Z" fill="#F9C115"/>
<path d="M79.0382 110.415H74.2068V115.218H79.0382V110.415Z" fill="#070909"/>
<path d="M175.617 105.611H170.785V110.414H175.617V105.611Z" fill="#070909"/>
<path d="M165.954 105.611H161.122V110.414H165.954V105.611Z" fill="#070909"/>
<path d="M161.131 105.611H156.299V110.414H161.131V105.611Z" fill="#F7C21D"/>
<path d="M156.299 105.611H151.468V110.414H156.299V105.611Z" fill="#FABF15"/>
<path d="M151.468 105.611H146.636V110.414H151.468V105.611Z" fill="#07090A"/>
<path d="M146.645 105.611H141.813V110.414H146.645V105.611Z" fill="#F89820"/>
<path d="M141.813 105.611H136.982V110.414H141.813V105.611Z" fill="#F9C115"/>
<path d="M136.982 105.611H132.15V110.414H136.982V105.611Z" fill="#FDD44E"/>
<path d="M132.159 105.611H127.327V110.414H132.159V105.611Z" fill="#FEDB72"/>
<path d="M127.327 105.611H122.496V110.414H127.327V105.611Z" fill="#F9EB80"/>
<path d="M122.496 105.611H117.665V110.414H122.496V105.611Z" fill="#F9EB84"/>
<path d="M117.673 105.611H112.842V110.414H117.673V105.611Z" fill="#F9EB84"/>
<path d="M112.841 105.611H108.01V110.414H112.841V105.611Z" fill="#FDF6AD"/>
<path d="M108.01 105.611H103.179V110.414H108.01V105.611Z" fill="#F9BF16"/>
<path d="M103.187 105.611H98.3555V110.414H103.187V105.611Z" fill="#FBAD1B"/>
<path d="M98.3556 105.611H93.5242V110.414H98.3556V105.611Z" fill="#0A0909"/>
<path d="M93.5241 105.611H88.6926V110.414H93.5241V105.611Z" fill="#FBC014"/>
<path d="M88.7011 105.611H83.8696V110.414H88.7011V105.611Z" fill="#FBC014"/>
<path d="M83.8698 105.611H79.0383V110.414H83.8698V105.611Z" fill="#070909"/>
<path d="M74.2152 105.611H69.3838V110.414H74.2152V105.611Z" fill="#070909"/>
<path d="M165.954 100.799H161.122V105.602H165.954V100.799Z" fill="#070909"/>
<path d="M161.131 100.799H156.299V105.602H161.131V100.799Z" fill="#F7C11C"/>
<path d="M156.299 100.799H151.468V105.602H156.299V100.799Z" fill="#F9BF16"/>
<path d="M151.468 100.799H146.636V105.602H151.468V100.799Z" fill="#FABF15"/>
<path d="M146.645 100.799H141.813V105.602H146.645V100.799Z" fill="#070909"/>
<path d="M141.813 100.799H136.982V105.602H141.813V100.799Z" fill="#FBAD1B"/>
<path d="M136.982 100.799H132.15V105.602H136.982V100.799Z" fill="#FBC014"/>
<path d="M132.159 100.799H127.327V105.602H132.159V100.799Z" fill="#FCD34E"/>
<path d="M127.327 100.799H122.496V105.602H127.327V100.799Z" fill="#FCD34E"/>
<path d="M122.496 100.799H117.665V105.602H122.496V100.799Z" fill="#FCD54E"/>
<path d="M117.673 100.799H112.842V105.602H117.673V100.799Z" fill="#FCDD73"/>
<path d="M112.841 100.799H108.01V105.602H112.841V100.799Z" fill="#F9BF16"/>
<path d="M108.01 100.799H103.179V105.602H108.01V100.799Z" fill="#FAAD1B"/>
<path d="M103.187 100.799H98.3555V105.602H103.187V100.799Z" fill="#080A0A"/>
<path d="M98.3556 100.799H93.5242V105.602H98.3556V100.799Z" fill="#F8C418"/>
<path d="M93.5241 100.799H88.6926V105.602H93.5241V100.799Z" fill="#F9BF16"/>
<path d="M88.7011 100.799H83.8696V105.602H88.7011V100.799Z" fill="#FBC014"/>
<path d="M83.8698 100.799H79.0383V105.602H83.8698V100.799Z" fill="#070909"/>
<path d="M170.785 95.9951H165.954V100.799H170.785V95.9951Z" fill="#07090A"/>
<path d="M165.954 95.9951H161.122V100.799H165.954V95.9951Z" fill="#FAC414"/>
<path d="M161.131 95.9951H156.299V100.799H161.131V95.9951Z" fill="#F9C214"/>
<path d="M156.299 95.9951H151.468V100.799H156.299V95.9951Z" fill="#F9BF16"/>
<path d="M151.468 95.9951H146.636V100.799H151.468V95.9951Z" fill="#F9C115"/>
<path d="M146.645 95.9951H141.813V100.799H146.645V95.9951Z" fill="#F9C115"/>
<path d="M141.813 95.9951H136.982V100.799H141.813V95.9951Z" fill="#07090A"/>
<path d="M136.982 95.9951H132.15V100.799H136.982V95.9951Z" fill="#070909"/>
<path d="M132.159 95.9951H127.327V100.799H132.159V95.9951Z" fill="#FAAC1A"/>
<path d="M127.327 95.9951H122.496V100.799H127.327V95.9951Z" fill="#FDBA17"/>
<path d="M122.496 95.9951H117.665V100.799H122.496V95.9951Z" fill="#FDBE13"/>
<path d="M117.673 95.9951H112.842V100.799H117.673V95.9951Z" fill="#FDBE13"/>
<path d="M112.841 95.9951H108.01V100.799H112.841V95.9951Z" fill="#070909"/>
<path d="M108.01 95.9951H103.179V100.799H108.01V95.9951Z" fill="#070909"/>
<path d="M103.187 95.9951H98.3555V100.799H103.187V95.9951Z" fill="#FDBE13"/>
<path d="M98.3556 95.9951H93.5242V100.799H98.3556V95.9951Z" fill="#FBC214"/>
<path d="M93.5241 95.9951H88.6926V100.799H93.5241V95.9951Z" fill="#F9BF16"/>
<path d="M88.7011 95.9951H83.8696V100.799H88.7011V95.9951Z" fill="#F9C115"/>
<path d="M83.8698 95.9951H79.0383V100.799H83.8698V95.9951Z" fill="#FCC113"/>
<path d="M79.0382 95.9951H74.2068V100.799H79.0382V95.9951Z" fill="#070909"/>
<path d="M170.785 91.1917H165.954V95.9953H170.785V91.1917Z" fill="#070808"/>
<path d="M165.954 91.1917H161.122V95.9953H165.954V91.1917Z" fill="#FBC415"/>
<path d="M161.131 91.1917H156.299V95.9953H161.131V91.1917Z" fill="#FDBE13"/>
<path d="M156.299 91.1917H151.468V95.9953H156.299V91.1917Z" fill="#FBC315"/>
<path d="M151.468 91.1917H146.636V95.9953H151.468V91.1917Z" fill="#FBC014"/>
<path d="M146.645 91.1917H141.813V95.9953H146.645V91.1917Z" fill="#FBC014"/>
<path d="M141.813 91.1917H136.982V95.9953H141.813V91.1917Z" fill="#FBC014"/>
<path d="M136.982 91.1917H132.15V95.9953H136.982V91.1917Z" fill="#FBC014"/>
<path d="M132.159 91.1917H127.327V95.9953H132.159V91.1917Z" fill="#080909"/>
<path d="M127.327 91.1917H122.496V95.9953H127.327V91.1917Z" fill="#080909"/>
<path d="M122.496 91.1917H117.665V95.9953H122.496V91.1917Z" fill="#080909"/>
<path d="M117.673 91.1917H112.842V95.9953H117.673V91.1917Z" fill="#080909"/>
<path d="M112.841 91.1917H108.01V95.9953H112.841V91.1917Z" fill="#FBC014"/>
<path d="M108.01 91.1917H103.179V95.9953H108.01V91.1917Z" fill="#FBC014"/>
<path d="M103.187 91.1917H98.3555V95.9953H103.187V91.1917Z" fill="#FBC014"/>
<path d="M98.3556 91.1917H93.5242V95.9953H98.3556V91.1917Z" fill="#FBC014"/>
<path d="M93.5241 91.1917H88.6926V95.9953H93.5241V91.1917Z" fill="#FBC014"/>
<path d="M88.7011 91.1917H83.8696V95.9953H88.7011V91.1917Z" fill="#FABF15"/>
<path d="M83.8698 91.1917H79.0383V95.9953H83.8698V91.1917Z" fill="#F9C314"/>
<path d="M79.0382 91.1917H74.2068V95.9953H79.0382V91.1917Z" fill="#070909"/>
<path d="M170.785 86.3796H165.954V91.1833H170.785V86.3796Z" fill="#080809"/>
<path d="M165.954 86.3796H161.122V91.1833H165.954V86.3796Z" fill="#F8C016"/>
<path d="M161.131 86.3796H156.299V91.1833H161.131V86.3796Z" fill="#FBBD14"/>
<path d="M156.299 86.3796H151.468V91.1833H156.299V86.3796Z" fill="#FDBD16"/>
<path d="M151.468 86.3796H146.636V91.1833H151.468V86.3796Z" fill="#070909"/>
<path d="M146.645 86.3796H141.813V91.1833H146.645V86.3796Z" fill="#070909"/>
<path d="M141.813 86.3796H136.982V91.1833H141.813V86.3796Z" fill="#FBBE14"/>
<path d="M136.982 86.3796H132.15V91.1833H136.982V86.3796Z" fill="#F9BF16"/>
<path d="M132.159 86.3796H127.327V91.1833H132.159V86.3796Z" fill="#F9BF16"/>
<path d="M127.327 86.3796H122.496V91.1833H127.327V86.3796Z" fill="#F9BF16"/>
<path d="M122.496 86.3796H117.665V91.1833H122.496V86.3796Z" fill="#F9BF16"/>
<path d="M117.673 86.3796H112.842V91.1833H117.673V86.3796Z" fill="#F9BF16"/>
<path d="M112.841 86.3796H108.01V91.1833H112.841V86.3796Z" fill="#FEC013"/>
<path d="M108.01 86.3796H103.179V91.1833H108.01V86.3796Z" fill="#FBBF14"/>
<path d="M103.187 86.3796H98.3555V91.1833H103.187V86.3796Z" fill="#070909"/>
<path d="M98.3556 86.3796H93.5242V91.1833H98.3556V86.3796Z" fill="#070909"/>
<path d="M93.5241 86.3796H88.6926V91.1833H93.5241V86.3796Z" fill="#FBC014"/>
<path d="M88.7011 86.3796H83.8696V91.1833H88.7011V86.3796Z" fill="#FBBE14"/>
<path d="M83.8698 86.3796H79.0383V91.1833H83.8698V86.3796Z" fill="#FBBD14"/>
<path d="M79.0382 86.3796H74.2068V91.1833H79.0382V86.3796Z" fill="#080909"/>
<path d="M175.617 81.5759H170.785V86.3796H175.617V81.5759Z" fill="#070909"/>
<path d="M170.785 81.5759H165.954V86.3796H170.785V81.5759Z" fill="#F9BF16"/>
<path d="M165.954 81.5759H161.122V86.3796H165.954V81.5759Z" fill="#070909"/>
<path d="M161.131 81.5759H156.299V86.3796H161.131V81.5759Z" fill="#070909"/>
<path d="M156.299 81.5759H151.468V86.3796H156.299V81.5759Z" fill="#070909"/>
<path d="M141.813 81.5759H136.982V86.3796H141.813V81.5759Z" fill="#070909"/>
<path d="M136.982 81.5759H132.15V86.3796H136.982V81.5759Z" fill="#F9BF16"/>
<path d="M132.159 81.5759H127.327V86.3796H132.159V81.5759Z" fill="#F9BF16"/>
<path d="M127.327 81.5759H122.496V86.3796H127.327V81.5759Z" fill="#F9BF16"/>
<path d="M122.496 81.5759H117.665V86.3796H122.496V81.5759Z" fill="#F9BF16"/>
<path d="M117.673 81.5759H112.842V86.3796H117.673V81.5759Z" fill="#FAC414"/>
<path d="M112.841 81.5759H108.01V86.3796H112.841V81.5759Z" fill="#F9C115"/>
<path d="M108.01 81.5759H103.179V86.3796H108.01V81.5759Z" fill="#070909"/>
<path d="M93.5241 81.5759H88.6926V86.3796H93.5241V81.5759Z" fill="#363535"/>
<path d="M88.7011 81.5759H83.8696V86.3796H88.7011V81.5759Z" fill="#070909"/>
<path d="M83.8698 81.5759H79.0383V86.3796H83.8698V81.5759Z" fill="#070909"/>
<path d="M79.0382 81.5759H74.2068V86.3796H79.0382V81.5759Z" fill="#FBC014"/>
<path d="M74.2152 81.5759H69.3838V86.3796H74.2152V81.5759Z" fill="#070909"/>
<path d="M175.617 76.7722H170.785V81.5759H175.617V76.7722Z" fill="#070909"/>
<path d="M170.785 76.7722H165.954V81.5759H170.785V76.7722Z" fill="#070909"/>
<path d="M146.645 76.7722H141.813V81.5759H146.645V76.7722Z" fill="#070909"/>
<path d="M136.982 76.7722H132.15V81.5759H136.982V76.7722Z" fill="#070909"/>
<path d="M132.159 76.7722H127.327V81.5759H132.159V76.7722Z" fill="#F9BF16"/>
<path d="M127.327 76.7722H122.496V81.5759H127.327V76.7722Z" fill="#F9BF16"/>
<path d="M122.496 76.7722H117.665V81.5759H122.496V76.7722Z" fill="#F8C116"/>
<path d="M117.673 76.7722H112.842V81.5759H117.673V76.7722Z" fill="#F9C115"/>
<path d="M112.841 76.7722H108.01V81.5759H112.841V76.7722Z" fill="#070909"/>
<path d="M103.187 76.7722H98.3555V81.5759H103.187V76.7722Z" fill="#070909"/>
<path d="M79.0382 76.7722H74.2068V81.5759H79.0382V76.7722Z" fill="#070909"/>
<path d="M74.2152 76.7722H69.3838V81.5759H74.2152V76.7722Z" fill="#070909"/>
<path d="M180.44 71.9602H175.608V76.7638H180.44V71.9602Z" fill="#070909"/>
<path d="M132.159 71.9602H127.327V76.7638H132.159V71.9602Z" fill="#070909"/>
<path d="M127.327 71.9602H122.496V76.7638H127.327V71.9602Z" fill="#FBC014"/>
<path d="M122.496 71.9602H117.665V76.7638H122.496V71.9602Z" fill="#FDBE14"/>
<path d="M117.673 71.9602H112.842V76.7638H117.673V71.9602Z" fill="#070909"/>
<path d="M69.3837 71.9602H64.5522V76.7638H69.3837V71.9602Z" fill="#070909"/>
<path d="M132.159 67.1565H127.327V71.9601H132.159V67.1565Z" fill="#070909"/>
<path d="M127.327 67.1565H122.496V71.9601H127.327V67.1565Z" fill="#FBC014"/>
<path d="M122.496 67.1565H117.665V71.9601H122.496V67.1565Z" fill="#FBC014"/>
<path d="M117.673 67.1565H112.842V71.9601H117.673V67.1565Z" fill="#070909"/>
<path d="M127.327 62.353H122.496V67.1567H127.327V62.353Z" fill="#0A0C0B"/>
<path d="M122.496 62.353H117.665V67.1567H122.496V62.353Z" fill="#0A0C0B"/>
<path d="M127.327 57.541H122.496V62.3447H127.327V57.541Z" fill="#0A0C0B"/>
<path d="M122.496 57.541H117.665V62.3447H122.496V57.541Z" fill="#0A0C0B"/>
<path d="M127.327 52.7373H122.496V57.5409H127.327V52.7373Z" fill="#0A0C0B"/>
<path d="M122.496 52.7373H117.665V57.5409H122.496V52.7373Z" fill="#0A0C0B"/>
</g>
<defs>
<clipPath id="clip0_678_18634">
<rect width="251" height="249" fill="white" transform="matrix(-1 0 0 1 251 0)"/>
</clipPath>
<clipPath id="clip1_678_18634">
<rect width="144.859" height="144.193" fill="white" transform="translate(50.0664 52.7373)"/>
</clipPath>
</defs>
</svg>
