<svg width="217" height="216" viewBox="0 0 217 216" fill="none" xmlns="http://www.w3.org/2000/svg">
<g clip-path="url(#clip0_775_8127)">
<path d="M115.738 208.804H108.5V216H115.738V208.804Z" fill="#0A0C0B"/>
<path d="M108.5 208.804H101.263V216H108.5V208.804Z" fill="#0A0C0B"/>
<path d="M115.738 201.596H108.5V208.792H115.738V201.596Z" fill="#0A0C0B"/>
<path d="M108.5 201.596H101.263V208.792H108.5V201.596Z" fill="#0A0C0B"/>
<path d="M115.738 194.4H108.5V201.596H115.738V194.4Z" fill="#0A0C0B"/>
<path d="M108.5 194.4H101.263V201.596H108.5V194.4Z" fill="#0A0C0B"/>
<path d="M122.975 187.204H115.737V194.4H122.975V187.204Z" fill="#070909"/>
<path d="M115.738 187.204H108.5V194.4H115.738V187.204Z" fill="#F9C115"/>
<path d="M108.5 187.204H101.263V194.4H108.5V187.204Z" fill="#FCC115"/>
<path d="M101.275 187.204H94.0376V194.4H101.275V187.204Z" fill="#070909"/>
<path d="M195.3 179.996H188.062V187.192H195.3V179.996Z" fill="#070909"/>
<path d="M122.975 179.996H115.737V187.192H122.975V179.996Z" fill="#080A0A"/>
<path d="M115.738 179.996H108.5V187.192H115.738V179.996Z" fill="#F9C115"/>
<path d="M108.5 179.996H101.263V187.192H108.5V179.996Z" fill="#FCC115"/>
<path d="M101.275 179.996H94.0376V187.192H101.275V179.996Z" fill="#070909"/>
<path d="M28.9377 179.996H21.7002V187.192H28.9377V179.996Z" fill="#070909"/>
<path d="M188.075 172.8H180.837V179.996H188.075V172.8Z" fill="#070909"/>
<path d="M180.838 172.8H173.6V179.996H180.838V172.8Z" fill="#070909"/>
<path d="M144.675 172.8H137.438V179.996H144.675V172.8Z" fill="#070909"/>
<path d="M130.2 172.8H122.962V179.996H130.2V172.8Z" fill="#070909"/>
<path d="M122.975 172.8H115.737V179.996H122.975V172.8Z" fill="#F9BF16"/>
<path d="M115.738 172.8H108.5V179.996H115.738V172.8Z" fill="#F9BF16"/>
<path d="M108.5 172.8H101.263V179.996H108.5V172.8Z" fill="#F9BF16"/>
<path d="M101.275 172.8H94.0376V179.996H101.275V172.8Z" fill="#F9BF16"/>
<path d="M94.0373 172.8H86.7998V179.996H94.0373V172.8Z" fill="#070909"/>
<path d="M79.5749 172.8H72.3374V179.996H79.5749V172.8Z" fill="#070909"/>
<path d="M43.4001 172.8H36.1626V179.996H43.4001V172.8Z" fill="#070909"/>
<path d="M36.175 172.8H28.9375V179.996H36.175V172.8Z" fill="#070909"/>
<path d="M188.075 165.604H180.837V172.8H188.075V165.604Z" fill="#070909"/>
<path d="M180.838 165.604H173.6V172.8H180.838V165.604Z" fill="#FBC014"/>
<path d="M173.6 165.604H166.362V172.8H173.6V165.604Z" fill="#070909"/>
<path d="M166.375 165.604H159.138V172.8H166.375V165.604Z" fill="#070909"/>
<path d="M159.137 165.604H151.9V172.8H159.137V165.604Z" fill="#070909"/>
<path d="M137.438 165.604H130.2V172.8H137.438V165.604Z" fill="#070809"/>
<path d="M130.2 165.604H122.962V172.8H130.2V165.604Z" fill="#FABF15"/>
<path d="M122.975 165.604H115.737V172.8H122.975V165.604Z" fill="#FBC014"/>
<path d="M115.738 165.604H108.5V172.8H115.738V165.604Z" fill="#FBC014"/>
<path d="M108.5 165.604H101.263V172.8H108.5V165.604Z" fill="#FBC014"/>
<path d="M101.275 165.604H94.0376V172.8H101.275V165.604Z" fill="#FBC014"/>
<path d="M94.0373 165.604H86.7998V172.8H94.0373V165.604Z" fill="#F9C214"/>
<path d="M86.8 165.604H79.5625V172.8H86.8V165.604Z" fill="#070909"/>
<path d="M65.0998 165.604H57.8623V172.8H65.0998V165.604Z" fill="#353434"/>
<path d="M57.8752 165.604H50.6377V172.8H57.8752V165.604Z" fill="#070909"/>
<path d="M50.6374 165.604H43.3999V172.8H50.6374V165.604Z" fill="#070808"/>
<path d="M43.4001 165.604H36.1626V172.8H43.4001V165.604Z" fill="#F9C215"/>
<path d="M36.175 165.604H28.9375V172.8H36.175V165.604Z" fill="#070909"/>
<path d="M180.838 158.396H173.6V165.592H180.838V158.396Z" fill="#080909"/>
<path d="M173.6 158.396H166.362V165.592H173.6V158.396Z" fill="#FBC014"/>
<path d="M166.375 158.396H159.138V165.592H166.375V158.396Z" fill="#FBBF15"/>
<path d="M159.137 158.396H151.9V165.592H159.137V158.396Z" fill="#FEC215"/>
<path d="M151.9 158.396H144.663V165.592H151.9V158.396Z" fill="#070909"/>
<path d="M144.675 158.396H137.438V165.592H144.675V158.396Z" fill="#080A0A"/>
<path d="M137.438 158.396H130.2V165.592H137.438V158.396Z" fill="#FBBE14"/>
<path d="M130.2 158.396H122.962V165.592H130.2V158.396Z" fill="#FBC014"/>
<path d="M122.975 158.396H115.737V165.592H122.975V158.396Z" fill="#FBC014"/>
<path d="M115.738 158.396H108.5V165.592H115.738V158.396Z" fill="#FBC014"/>
<path d="M108.5 158.396H101.263V165.592H108.5V158.396Z" fill="#FBC014"/>
<path d="M101.275 158.396H94.0376V165.592H101.275V158.396Z" fill="#FBC014"/>
<path d="M94.0373 158.396H86.7998V165.592H94.0373V158.396Z" fill="#FBC014"/>
<path d="M86.8 158.396H79.5625V165.592H86.8V158.396Z" fill="#FABF15"/>
<path d="M79.5749 158.396H72.3374V165.592H79.5749V158.396Z" fill="#070909"/>
<path d="M72.3376 158.396H65.1001V165.592H72.3376V158.396Z" fill="#070909"/>
<path d="M65.0998 158.396H57.8623V165.592H65.0998V158.396Z" fill="#070909"/>
<path d="M57.8752 158.396H50.6377V165.592H57.8752V158.396Z" fill="#FBBF15"/>
<path d="M50.6374 158.396H43.3999V165.592H50.6374V158.396Z" fill="#FAC015"/>
<path d="M43.4001 158.396H36.1626V165.592H43.4001V158.396Z" fill="#080909"/>
<path d="M180.838 151.2H173.6V158.396H180.838V151.2Z" fill="#070909"/>
<path d="M173.6 151.2H166.362V158.396H173.6V151.2Z" fill="#F9BF16"/>
<path d="M166.375 151.2H159.138V158.396H166.375V151.2Z" fill="#F9BF16"/>
<path d="M159.137 151.2H151.9V158.396H159.137V151.2Z" fill="#FDBE14"/>
<path d="M151.9 151.2H144.663V158.396H151.9V151.2Z" fill="#FBC014"/>
<path d="M144.675 151.2H137.438V158.396H144.675V151.2Z" fill="#FBC014"/>
<path d="M137.438 151.2H130.2V158.396H137.438V151.2Z" fill="#FBC014"/>
<path d="M130.2 151.2H122.962V158.396H130.2V151.2Z" fill="#FBC014"/>
<path d="M122.975 151.2H115.737V158.396H122.975V151.2Z" fill="#09090B"/>
<path d="M115.738 151.2H108.5V158.396H115.738V151.2Z" fill="#09090B"/>
<path d="M108.5 151.2H101.263V158.396H108.5V151.2Z" fill="#09090B"/>
<path d="M101.275 151.2H94.0376V158.396H101.275V151.2Z" fill="#09090B"/>
<path d="M94.0373 151.2H86.7998V158.396H94.0373V151.2Z" fill="#FBC014"/>
<path d="M86.8 151.2H79.5625V158.396H86.8V151.2Z" fill="#FBC014"/>
<path d="M79.5749 151.2H72.3374V158.396H79.5749V151.2Z" fill="#FBC014"/>
<path d="M72.3376 151.2H65.1001V158.396H72.3376V151.2Z" fill="#FBC014"/>
<path d="M65.0998 151.2H57.8623V158.396H65.0998V151.2Z" fill="#FBC014"/>
<path d="M57.8752 151.2H50.6377V158.396H57.8752V151.2Z" fill="#F9BF16"/>
<path d="M50.6374 151.2H43.3999V158.396H50.6374V151.2Z" fill="#F8C116"/>
<path d="M43.4001 151.2H36.1626V158.396H43.4001V151.2Z" fill="#070909"/>
<path d="M180.838 144.004H173.6V151.2H180.838V144.004Z" fill="#070909"/>
<path d="M173.6 144.004H166.362V151.2H173.6V144.004Z" fill="#F9BF16"/>
<path d="M166.375 144.004H159.138V151.2H166.375V144.004Z" fill="#F9C115"/>
<path d="M159.137 144.004H151.9V151.2H159.137V144.004Z" fill="#F9BF16"/>
<path d="M151.9 144.004H144.663V151.2H151.9V144.004Z" fill="#F9C115"/>
<path d="M144.675 144.004H137.438V151.2H144.675V144.004Z" fill="#FBC014"/>
<path d="M137.438 144.004H130.2V151.2H137.438V144.004Z" fill="#080909"/>
<path d="M130.2 144.004H122.962V151.2H130.2V144.004Z" fill="#070909"/>
<path d="M122.975 144.004H115.737V151.2H122.975V144.004Z" fill="#F58420"/>
<path d="M115.738 144.004H108.5V151.2H115.738V144.004Z" fill="#F89620"/>
<path d="M108.5 144.004H101.263V151.2H108.5V144.004Z" fill="#F89820"/>
<path d="M101.275 144.004H94.0376V151.2H101.275V144.004Z" fill="#F68520"/>
<path d="M94.0373 144.004H86.7998V151.2H94.0373V144.004Z" fill="#070909"/>
<path d="M86.8 144.004H79.5625V151.2H86.8V144.004Z" fill="#07090A"/>
<path d="M79.5749 144.004H72.3374V151.2H79.5749V144.004Z" fill="#FBC014"/>
<path d="M72.3376 144.004H65.1001V151.2H72.3376V144.004Z" fill="#FBC015"/>
<path d="M65.0998 144.004H57.8623V151.2H65.0998V144.004Z" fill="#FBC014"/>
<path d="M57.8752 144.004H50.6377V151.2H57.8752V144.004Z" fill="#FAC214"/>
<path d="M50.6374 144.004H43.3999V151.2H50.6374V144.004Z" fill="#F8C116"/>
<path d="M43.4001 144.004H36.1626V151.2H43.4001V144.004Z" fill="#070909"/>
<path d="M173.6 136.796H166.362V143.992H173.6V136.796Z" fill="#080909"/>
<path d="M166.375 136.796H159.138V143.992H166.375V136.796Z" fill="#F8C31D"/>
<path d="M159.137 136.796H151.9V143.992H159.137V136.796Z" fill="#FAC215"/>
<path d="M151.9 136.796H144.663V143.992H151.9V136.796Z" fill="#FBC014"/>
<path d="M144.675 136.796H137.438V143.992H144.675V136.796Z" fill="#070909"/>
<path d="M137.438 136.796H130.2V143.992H137.438V136.796Z" fill="#F68520"/>
<path d="M130.2 136.796H122.962V143.992H130.2V136.796Z" fill="#F89820"/>
<path d="M122.975 136.796H115.737V143.992H122.975V136.796Z" fill="#F9A21E"/>
<path d="M115.738 136.796H108.5V143.992H115.738V136.796Z" fill="#F9A21E"/>
<path d="M108.5 136.796H101.263V143.992H108.5V136.796Z" fill="#F9A21E"/>
<path d="M101.275 136.796H94.0376V143.992H101.275V136.796Z" fill="#F9A21E"/>
<path d="M94.0373 136.796H86.7998V143.992H94.0373V136.796Z" fill="#F89820"/>
<path d="M86.8 136.796H79.5625V143.992H86.8V136.796Z" fill="#F58420"/>
<path d="M79.5749 136.796H72.3374V143.992H79.5749V136.796Z" fill="#070909"/>
<path d="M72.3376 136.796H65.1001V143.992H72.3376V136.796Z" fill="#FBC014"/>
<path d="M65.0998 136.796H57.8623V143.992H65.0998V136.796Z" fill="#FDBB16"/>
<path d="M57.8752 136.796H50.6377V143.992H57.8752V136.796Z" fill="#FDBE15"/>
<path d="M50.6374 136.796H43.3999V143.992H50.6374V136.796Z" fill="#070909"/>
<path d="M188.075 129.6H180.837V136.796H188.075V129.6Z" fill="#070909"/>
<path d="M173.6 129.6H166.362V136.796H173.6V129.6Z" fill="#070909"/>
<path d="M166.375 129.6H159.138V136.796H166.375V129.6Z" fill="#F8C31D"/>
<path d="M159.137 129.6H151.9V136.796H159.137V129.6Z" fill="#FBC415"/>
<path d="M151.9 129.6H144.663V136.796H151.9V129.6Z" fill="#07090A"/>
<path d="M144.675 129.6H137.438V136.796H144.675V129.6Z" fill="#F58420"/>
<path d="M137.438 129.6H130.2V136.796H137.438V129.6Z" fill="#F89820"/>
<path d="M130.2 129.6H122.962V136.796H130.2V129.6Z" fill="#FBAD1B"/>
<path d="M122.975 129.6H115.737V136.796H122.975V129.6Z" fill="#FAAD1B"/>
<path d="M115.738 129.6H108.5V136.796H115.738V129.6Z" fill="#FAAD1B"/>
<path d="M108.5 129.6H101.263V136.796H108.5V129.6Z" fill="#FAAD1B"/>
<path d="M101.275 129.6H94.0376V136.796H101.275V129.6Z" fill="#FAAD1B"/>
<path d="M94.0373 129.6H86.7998V136.796H94.0373V129.6Z" fill="#FBAD1B"/>
<path d="M86.8 129.6H79.5625V136.796H86.8V129.6Z" fill="#F89820"/>
<path d="M79.5749 129.6H72.3374V136.796H79.5749V129.6Z" fill="#F68520"/>
<path d="M72.3376 129.6H65.1001V136.796H72.3376V129.6Z" fill="#0A090B"/>
<path d="M65.0998 129.6H57.8623V136.796H65.0998V129.6Z" fill="#FBC014"/>
<path d="M57.8752 129.6H50.6377V136.796H57.8752V129.6Z" fill="#FDBE15"/>
<path d="M50.6374 129.6H43.3999V136.796H50.6374V129.6Z" fill="#070909"/>
<path d="M36.175 129.6H28.9375V136.796H36.175V129.6Z" fill="#070909"/>
<path d="M180.838 122.404H173.6V129.6H180.838V122.404Z" fill="#070808"/>
<path d="M173.6 122.404H166.362V129.6H173.6V122.404Z" fill="#FDBE13"/>
<path d="M166.375 122.404H159.138V129.6H166.375V122.404Z" fill="#FBC014"/>
<path d="M159.137 122.404H151.9V129.6H159.137V122.404Z" fill="#FBC014"/>
<path d="M151.9 122.404H144.663V129.6H151.9V122.404Z" fill="#07090A"/>
<path d="M144.675 122.404H137.438V129.6H144.675V122.404Z" fill="#F89820"/>
<path d="M137.438 122.404H130.2V129.6H137.438V122.404Z" fill="#FAAD1B"/>
<path d="M130.2 122.404H122.962V129.6H130.2V122.404Z" fill="#F9C115"/>
<path d="M122.975 122.404H115.737V129.6H122.975V122.404Z" fill="#F9BF16"/>
<path d="M115.738 122.404H108.5V129.6H115.738V122.404Z" fill="#F9BF16"/>
<path d="M108.5 122.404H101.263V129.6H108.5V122.404Z" fill="#F9BF16"/>
<path d="M101.275 122.404H94.0376V129.6H101.275V122.404Z" fill="#F9BF16"/>
<path d="M94.0373 122.404H86.7998V129.6H94.0373V122.404Z" fill="#FABF15"/>
<path d="M86.8 122.404H79.5625V129.6H86.8V122.404Z" fill="#FAAD1B"/>
<path d="M79.5749 122.404H72.3374V129.6H79.5749V122.404Z" fill="#F89820"/>
<path d="M72.3376 122.404H65.1001V129.6H72.3376V122.404Z" fill="#0C0A0A"/>
<path d="M65.0998 122.404H57.8623V129.6H65.0998V122.404Z" fill="#FBC014"/>
<path d="M57.8752 122.404H50.6377V129.6H57.8752V122.404Z" fill="#FBC014"/>
<path d="M50.6374 122.404H43.3999V129.6H50.6374V122.404Z" fill="#F9BF16"/>
<path d="M43.4001 122.404H36.1626V129.6H43.4001V122.404Z" fill="#070909"/>
<path d="M195.3 115.196H188.062V122.392H195.3V115.196Z" fill="#070909"/>
<path d="M188.075 115.196H180.837V122.392H188.075V115.196Z" fill="#070809"/>
<path d="M180.838 115.196H173.6V122.392H180.838V115.196Z" fill="#FABF15"/>
<path d="M173.6 115.196H166.362V122.392H173.6V115.196Z" fill="#FBC014"/>
<path d="M166.375 115.196H159.138V122.392H166.375V115.196Z" fill="#FBC014"/>
<path d="M159.137 115.196H151.9V122.392H159.137V115.196Z" fill="#070809"/>
<path d="M151.9 115.196H144.663V122.392H151.9V115.196Z" fill="#F58420"/>
<path d="M144.675 115.196H137.438V122.392H144.675V115.196Z" fill="#FAA31D"/>
<path d="M137.438 115.196H130.2V122.392H137.438V115.196Z" fill="#FBC214"/>
<path d="M130.2 115.196H122.962V122.392H130.2V115.196Z" fill="#F9C115"/>
<path d="M122.975 115.196H115.737V122.392H122.975V115.196Z" fill="#F9BF16"/>
<path d="M115.738 115.196H108.5V122.392H115.738V115.196Z" fill="#F9BF16"/>
<path d="M108.5 115.196H101.263V122.392H108.5V115.196Z" fill="#F9C115"/>
<path d="M101.275 115.196H94.0376V122.392H101.275V115.196Z" fill="#F9BF16"/>
<path d="M94.0373 115.196H86.7998V122.392H94.0373V115.196Z" fill="#FABF15"/>
<path d="M86.8 115.196H79.5625V122.392H86.8V115.196Z" fill="#FFD34F"/>
<path d="M79.5749 115.196H72.3374V122.392H79.5749V115.196Z" fill="#FBAD1B"/>
<path d="M72.3376 115.196H65.1001V122.392H72.3376V115.196Z" fill="#F89820"/>
<path d="M65.0998 115.196H57.8623V122.392H65.0998V115.196Z" fill="#0D0A0B"/>
<path d="M57.8752 115.196H50.6377V122.392H57.8752V115.196Z" fill="#FBC014"/>
<path d="M50.6374 115.196H43.3999V122.392H50.6374V115.196Z" fill="#F9BF16"/>
<path d="M43.4001 115.196H36.1626V122.392H43.4001V115.196Z" fill="#FABF15"/>
<path d="M36.175 115.196H28.9375V122.392H36.175V115.196Z" fill="#070909"/>
<path d="M28.9377 115.196H21.7002V122.392H28.9377V115.196Z" fill="#070909"/>
<path d="M217 108H209.763V115.196H217V108Z" fill="#080A0A"/>
<path d="M209.775 108H202.538V115.196H209.775V108Z" fill="#080A0A"/>
<path d="M202.537 108H195.3V115.196H202.537V108Z" fill="#080A0A"/>
<path d="M195.3 108H188.062V115.196H195.3V108Z" fill="#FBC014"/>
<path d="M188.075 108H180.837V115.196H188.075V108Z" fill="#FBC014"/>
<path d="M180.838 108H173.6V115.196H180.838V108Z" fill="#F9BF16"/>
<path d="M173.6 108H166.362V115.196H173.6V108Z" fill="#FBC014"/>
<path d="M166.375 108H159.138V115.196H166.375V108Z" fill="#FBC014"/>
<path d="M159.137 108H151.9V115.196H159.137V108Z" fill="#09090B"/>
<path d="M151.9 108H144.663V115.196H151.9V108Z" fill="#F79320"/>
<path d="M144.675 108H137.438V115.196H144.675V108Z" fill="#F8A91E"/>
<path d="M137.438 108H130.2V115.196H137.438V108Z" fill="#F9BF16"/>
<path d="M130.2 108H122.962V115.196H130.2V108Z" fill="#F9BF16"/>
<path d="M122.975 108H115.737V115.196H122.975V108Z" fill="#F9BF16"/>
<path d="M115.738 108H108.5V115.196H115.738V108Z" fill="#F9BF16"/>
<path d="M108.5 108H101.263V115.196H108.5V108Z" fill="#F9BF16"/>
<path d="M101.275 108H94.0376V115.196H101.275V108Z" fill="#F9C115"/>
<path d="M94.0373 108H86.7998V115.196H94.0373V108Z" fill="#F8C01B"/>
<path d="M86.8 108H79.5625V115.196H86.8V108Z" fill="#F7D569"/>
<path d="M79.5749 108H72.3374V115.196H79.5749V108Z" fill="#F7C040"/>
<path d="M72.3376 108H65.1001V115.196H72.3376V108Z" fill="#F9A71A"/>
<path d="M65.0998 108H57.8623V115.196H65.0998V108Z" fill="#0D0A0B"/>
<path d="M57.8752 108H50.6377V115.196H57.8752V108Z" fill="#FBC014"/>
<path d="M50.6374 108H43.3999V115.196H50.6374V108Z" fill="#F9BF16"/>
<path d="M43.4001 108H36.1626V115.196H43.4001V108Z" fill="#F9BF16"/>
<path d="M36.175 108H28.9375V115.196H36.175V108Z" fill="#FBC014"/>
<path d="M28.9377 108H21.7002V115.196H28.9377V108Z" fill="#FBC014"/>
<path d="M21.6999 108H14.4624V115.196H21.6999V108Z" fill="#080A0A"/>
<path d="M14.4748 108H7.2373V115.196H14.4748V108Z" fill="#080A0A"/>
<path d="M7.23751 108H0V115.196H7.23751V108Z" fill="#080A0A"/>
<path d="M217 100.804H209.763V108H217V100.804Z" fill="#080A0A"/>
<path d="M209.775 100.804H202.538V108H209.775V100.804Z" fill="#080A0A"/>
<path d="M202.537 100.804H195.3V108H202.537V100.804Z" fill="#080A0A"/>
<path d="M195.3 100.804H188.062V108H195.3V100.804Z" fill="#FBBF14"/>
<path d="M188.075 100.804H180.837V108H188.075V100.804Z" fill="#FBBF14"/>
<path d="M180.838 100.804H173.6V108H180.838V100.804Z" fill="#F9BF16"/>
<path d="M173.6 100.804H166.362V108H173.6V100.804Z" fill="#FBC014"/>
<path d="M166.375 100.804H159.138V108H166.375V100.804Z" fill="#FBC014"/>
<path d="M159.137 100.804H151.9V108H159.137V100.804Z" fill="#0A0C0B"/>
<path d="M151.9 100.804H144.663V108H151.9V100.804Z" fill="#F89820"/>
<path d="M144.675 100.804H137.438V108H144.675V100.804Z" fill="#F8B019"/>
<path d="M137.438 100.804H130.2V108H137.438V100.804Z" fill="#F9BF16"/>
<path d="M130.2 100.804H122.962V108H130.2V100.804Z" fill="#F9C115"/>
<path d="M122.975 100.804H115.737V108H122.975V100.804Z" fill="#FABF15"/>
<path d="M115.738 100.804H108.5V108H115.738V100.804Z" fill="#F9BF16"/>
<path d="M108.5 100.804H101.263V108H108.5V100.804Z" fill="#F9BF16"/>
<path d="M101.275 100.804H94.0376V108H101.275V100.804Z" fill="#F8C116"/>
<path d="M94.0373 100.804H86.7998V108H94.0373V100.804Z" fill="#FABE15"/>
<path d="M86.8 100.804H79.5625V108H86.8V100.804Z" fill="#FEDC76"/>
<path d="M79.5749 100.804H72.3374V108H79.5749V100.804Z" fill="#FCD54E"/>
<path d="M72.3376 100.804H65.1001V108H72.3376V100.804Z" fill="#FAAD1B"/>
<path d="M65.0998 100.804H57.8623V108H65.0998V100.804Z" fill="#0D0A0B"/>
<path d="M57.8752 100.804H50.6377V108H57.8752V100.804Z" fill="#FBC014"/>
<path d="M50.6374 100.804H43.3999V108H50.6374V100.804Z" fill="#F9BF16"/>
<path d="M43.4001 100.804H36.1626V108H43.4001V100.804Z" fill="#FAC015"/>
<path d="M36.175 100.804H28.9375V108H36.175V100.804Z" fill="#FEC013"/>
<path d="M28.9377 100.804H21.7002V108H28.9377V100.804Z" fill="#FBC014"/>
<path d="M21.6999 100.804H14.4624V108H21.6999V100.804Z" fill="#080A0A"/>
<path d="M14.4748 100.804H7.2373V108H14.4748V100.804Z" fill="#080A0A"/>
<path d="M7.23751 100.804H0V108H7.23751V100.804Z" fill="#080A0A"/>
<path d="M195.3 93.5958H188.062V100.792H195.3V93.5958Z" fill="#070909"/>
<path d="M188.075 93.5958H180.837V100.792H188.075V93.5958Z" fill="#070909"/>
<path d="M180.838 93.5958H173.6V100.792H180.838V93.5958Z" fill="#F9C115"/>
<path d="M173.6 93.5958H166.362V100.792H173.6V93.5958Z" fill="#FBC014"/>
<path d="M166.375 93.5958H159.138V100.792H166.375V93.5958Z" fill="#FBC014"/>
<path d="M159.137 93.5958H151.9V100.792H159.137V93.5958Z" fill="#07090A"/>
<path d="M151.9 93.5958H144.663V100.792H151.9V93.5958Z" fill="#F89820"/>
<path d="M144.675 93.5958H137.438V100.792H144.675V93.5958Z" fill="#F9BF16"/>
<path d="M137.438 93.5958H130.2V100.792H137.438V93.5958Z" fill="#F9BF16"/>
<path d="M130.2 93.5958H122.962V100.792H130.2V93.5958Z" fill="#F9BF16"/>
<path d="M122.975 93.5958H115.737V100.792H122.975V93.5958Z" fill="#F9BF16"/>
<path d="M115.738 93.5958H108.5V100.792H115.738V93.5958Z" fill="#F9BF16"/>
<path d="M108.5 93.5958H101.263V100.792H108.5V93.5958Z" fill="#F9C115"/>
<path d="M101.275 93.5958H94.0376V100.792H101.275V93.5958Z" fill="#FBC214"/>
<path d="M94.0373 93.5958H86.7998V100.792H94.0373V93.5958Z" fill="#FFD450"/>
<path d="M86.8 93.5958H79.5625V100.792H86.8V93.5958Z" fill="#F9ED82"/>
<path d="M79.5749 93.5958H72.3374V100.792H79.5749V93.5958Z" fill="#FAD54B"/>
<path d="M72.3376 93.5958H65.1001V100.792H72.3376V93.5958Z" fill="#F9AE1A"/>
<path d="M65.0998 93.5958H57.8623V100.792H65.0998V93.5958Z" fill="#0D0A0B"/>
<path d="M57.8752 93.5958H50.6377V100.792H57.8752V93.5958Z" fill="#FBC014"/>
<path d="M50.6374 93.5958H43.3999V100.792H50.6374V93.5958Z" fill="#FBC014"/>
<path d="M43.4001 93.5958H36.1626V100.792H43.4001V93.5958Z" fill="#FEC013"/>
<path d="M36.175 93.5958H28.9375V100.792H36.175V93.5958Z" fill="#070909"/>
<path d="M28.9377 93.5958H21.7002V100.792H28.9377V93.5958Z" fill="#070909"/>
<path d="M180.838 86.4H173.6V93.5958H180.838V86.4Z" fill="#070909"/>
<path d="M173.6 86.4H166.362V93.5958H173.6V86.4Z" fill="#F9C115"/>
<path d="M166.375 86.4H159.138V93.5958H166.375V86.4Z" fill="#FBC014"/>
<path d="M159.137 86.4H151.9V93.5958H159.137V86.4Z" fill="#FBC014"/>
<path d="M151.9 86.4H144.663V93.5958H151.9V86.4Z" fill="#080909"/>
<path d="M144.675 86.4H137.438V93.5958H144.675V86.4Z" fill="#F9BF16"/>
<path d="M137.438 86.4H130.2V93.5958H137.438V86.4Z" fill="#F9BF16"/>
<path d="M130.2 86.4H122.962V93.5958H130.2V86.4Z" fill="#F9BF16"/>
<path d="M122.975 86.4H115.737V93.5958H122.975V86.4Z" fill="#F9BF16"/>
<path d="M115.738 86.4H108.5V93.5958H115.738V86.4Z" fill="#F9BF16"/>
<path d="M108.5 86.4H101.263V93.5958H108.5V86.4Z" fill="#FBBD14"/>
<path d="M101.275 86.4H94.0376V93.5958H101.275V86.4Z" fill="#FDD34F"/>
<path d="M94.0373 86.4H86.7998V93.5958H94.0373V86.4Z" fill="#F9EB84"/>
<path d="M86.8 86.4H79.5625V93.5958H86.8V86.4Z" fill="#FDF6AD"/>
<path d="M79.5749 86.4H72.3374V93.5958H79.5749V86.4Z" fill="#FABF15"/>
<path d="M72.3376 86.4H65.1001V93.5958H72.3376V86.4Z" fill="#080A0A"/>
<path d="M65.0998 86.4H57.8623V93.5958H65.0998V86.4Z" fill="#FBC014"/>
<path d="M57.8752 86.4H50.6377V93.5958H57.8752V86.4Z" fill="#F9BF16"/>
<path d="M50.6374 86.4H43.3999V93.5958H50.6374V86.4Z" fill="#F9C115"/>
<path d="M43.4001 86.4H36.1626V93.5958H43.4001V86.4Z" fill="#070909"/>
<path d="M188.075 79.2042H180.837V86.4H188.075V79.2042Z" fill="#070909"/>
<path d="M173.6 79.2042H166.362V86.4H173.6V79.2042Z" fill="#070909"/>
<path d="M166.375 79.2042H159.138V86.4H166.375V79.2042Z" fill="#F7C21D"/>
<path d="M159.137 79.2042H151.9V86.4H159.137V79.2042Z" fill="#FABF15"/>
<path d="M151.9 79.2042H144.663V86.4H151.9V79.2042Z" fill="#07090A"/>
<path d="M144.675 79.2042H137.438V86.4H144.675V79.2042Z" fill="#F89820"/>
<path d="M137.438 79.2042H130.2V86.4H137.438V79.2042Z" fill="#F9C115"/>
<path d="M130.2 79.2042H122.962V86.4H130.2V79.2042Z" fill="#FDD44E"/>
<path d="M122.975 79.2042H115.737V86.4H122.975V79.2042Z" fill="#FEDB72"/>
<path d="M115.738 79.2042H108.5V86.4H115.738V79.2042Z" fill="#F9EB80"/>
<path d="M108.5 79.2042H101.263V86.4H108.5V79.2042Z" fill="#F9EB84"/>
<path d="M101.275 79.2042H94.0376V86.4H101.275V79.2042Z" fill="#F9EB84"/>
<path d="M94.0373 79.2042H86.7998V86.4H94.0373V79.2042Z" fill="#FDF6AD"/>
<path d="M86.8 79.2042H79.5625V86.4H86.8V79.2042Z" fill="#F9BF16"/>
<path d="M79.5749 79.2042H72.3374V86.4H79.5749V79.2042Z" fill="#FBAD1B"/>
<path d="M72.3376 79.2042H65.1001V86.4H72.3376V79.2042Z" fill="#0A0909"/>
<path d="M65.0998 79.2042H57.8623V86.4H65.0998V79.2042Z" fill="#FBC014"/>
<path d="M57.8752 79.2042H50.6377V86.4H57.8752V79.2042Z" fill="#FBC014"/>
<path d="M50.6374 79.2042H43.3999V86.4H50.6374V79.2042Z" fill="#070909"/>
<path d="M36.175 79.2042H28.9375V86.4H36.175V79.2042Z" fill="#070909"/>
<path d="M173.6 71.9958H166.362V79.1917H173.6V71.9958Z" fill="#070909"/>
<path d="M166.375 71.9958H159.138V79.1917H166.375V71.9958Z" fill="#F7C11C"/>
<path d="M159.137 71.9958H151.9V79.1917H159.137V71.9958Z" fill="#F9BF16"/>
<path d="M151.9 71.9958H144.663V79.1917H151.9V71.9958Z" fill="#FABF15"/>
<path d="M144.675 71.9958H137.438V79.1917H144.675V71.9958Z" fill="#070909"/>
<path d="M137.438 71.9958H130.2V79.1917H137.438V71.9958Z" fill="#FBAD1B"/>
<path d="M130.2 71.9958H122.962V79.1917H130.2V71.9958Z" fill="#FBC014"/>
<path d="M122.975 71.9958H115.737V79.1917H122.975V71.9958Z" fill="#FCD34E"/>
<path d="M115.738 71.9958H108.5V79.1917H115.738V71.9958Z" fill="#FCD34E"/>
<path d="M108.5 71.9958H101.263V79.1917H108.5V71.9958Z" fill="#FCD54E"/>
<path d="M101.275 71.9958H94.0376V79.1917H101.275V71.9958Z" fill="#FCDD73"/>
<path d="M94.0373 71.9958H86.7998V79.1917H94.0373V71.9958Z" fill="#F9BF16"/>
<path d="M86.8 71.9958H79.5625V79.1917H86.8V71.9958Z" fill="#FAAD1B"/>
<path d="M79.5749 71.9958H72.3374V79.1917H79.5749V71.9958Z" fill="#080A0A"/>
<path d="M72.3376 71.9958H65.1001V79.1917H72.3376V71.9958Z" fill="#F8C418"/>
<path d="M65.0998 71.9958H57.8623V79.1917H65.0998V71.9958Z" fill="#F9BF16"/>
<path d="M57.8752 71.9958H50.6377V79.1917H57.8752V71.9958Z" fill="#FBC014"/>
<path d="M50.6374 71.9958H43.3999V79.1917H50.6374V71.9958Z" fill="#070909"/>
<path d="M180.838 64.8H173.6V71.9959H180.838V64.8Z" fill="#07090A"/>
<path d="M173.6 64.8H166.362V71.9959H173.6V64.8Z" fill="#FAC414"/>
<path d="M166.375 64.8H159.138V71.9959H166.375V64.8Z" fill="#F9C214"/>
<path d="M159.137 64.8H151.9V71.9959H159.137V64.8Z" fill="#F9BF16"/>
<path d="M151.9 64.8H144.663V71.9959H151.9V64.8Z" fill="#F9C115"/>
<path d="M144.675 64.8H137.438V71.9959H144.675V64.8Z" fill="#F9C115"/>
<path d="M137.438 64.8H130.2V71.9959H137.438V64.8Z" fill="#07090A"/>
<path d="M130.2 64.8H122.962V71.9959H130.2V64.8Z" fill="#070909"/>
<path d="M122.975 64.8H115.737V71.9959H122.975V64.8Z" fill="#FAAC1A"/>
<path d="M115.738 64.8H108.5V71.9959H115.738V64.8Z" fill="#FDBA17"/>
<path d="M108.5 64.8H101.263V71.9959H108.5V64.8Z" fill="#FDBE13"/>
<path d="M101.275 64.8H94.0376V71.9959H101.275V64.8Z" fill="#FDBE13"/>
<path d="M94.0373 64.8H86.7998V71.9959H94.0373V64.8Z" fill="#070909"/>
<path d="M86.8 64.8H79.5625V71.9959H86.8V64.8Z" fill="#070909"/>
<path d="M79.5749 64.8H72.3374V71.9959H79.5749V64.8Z" fill="#FDBE13"/>
<path d="M72.3376 64.8H65.1001V71.9959H72.3376V64.8Z" fill="#FBC214"/>
<path d="M65.0998 64.8H57.8623V71.9959H65.0998V64.8Z" fill="#F9BF16"/>
<path d="M57.8752 64.8H50.6377V71.9959H57.8752V64.8Z" fill="#F9C115"/>
<path d="M50.6374 64.8H43.3999V71.9959H50.6374V64.8Z" fill="#FCC113"/>
<path d="M43.4001 64.8H36.1626V71.9959H43.4001V64.8Z" fill="#070909"/>
<path d="M180.838 57.6041H173.6V64.7999H180.838V57.6041Z" fill="#070808"/>
<path d="M173.6 57.6041H166.362V64.7999H173.6V57.6041Z" fill="#FBC415"/>
<path d="M166.375 57.6041H159.138V64.7999H166.375V57.6041Z" fill="#FDBE13"/>
<path d="M159.137 57.6041H151.9V64.7999H159.137V57.6041Z" fill="#FBC315"/>
<path d="M151.9 57.6041H144.663V64.7999H151.9V57.6041Z" fill="#FBC014"/>
<path d="M144.675 57.6041H137.438V64.7999H144.675V57.6041Z" fill="#FBC014"/>
<path d="M137.438 57.6041H130.2V64.7999H137.438V57.6041Z" fill="#FBC014"/>
<path d="M130.2 57.6041H122.962V64.7999H130.2V57.6041Z" fill="#FBC014"/>
<path d="M122.975 57.6041H115.737V64.7999H122.975V57.6041Z" fill="#080909"/>
<path d="M115.738 57.6041H108.5V64.7999H115.738V57.6041Z" fill="#080909"/>
<path d="M108.5 57.6041H101.263V64.7999H108.5V57.6041Z" fill="#080909"/>
<path d="M101.275 57.6041H94.0376V64.7999H101.275V57.6041Z" fill="#080909"/>
<path d="M94.0373 57.6041H86.7998V64.7999H94.0373V57.6041Z" fill="#FBC014"/>
<path d="M86.8 57.6041H79.5625V64.7999H86.8V57.6041Z" fill="#FBC014"/>
<path d="M79.5749 57.6041H72.3374V64.7999H79.5749V57.6041Z" fill="#FBC014"/>
<path d="M72.3376 57.6041H65.1001V64.7999H72.3376V57.6041Z" fill="#FBC014"/>
<path d="M65.0998 57.6041H57.8623V64.7999H65.0998V57.6041Z" fill="#FBC014"/>
<path d="M57.8752 57.6041H50.6377V64.7999H57.8752V57.6041Z" fill="#FABF15"/>
<path d="M50.6374 57.6041H43.3999V64.7999H50.6374V57.6041Z" fill="#F9C314"/>
<path d="M43.4001 57.6041H36.1626V64.7999H43.4001V57.6041Z" fill="#070909"/>
<path d="M180.838 50.3959H173.6V57.5917H180.838V50.3959Z" fill="#080809"/>
<path d="M173.6 50.3959H166.362V57.5917H173.6V50.3959Z" fill="#F8C016"/>
<path d="M166.375 50.3959H159.138V57.5917H166.375V50.3959Z" fill="#FBBD14"/>
<path d="M159.137 50.3959H151.9V57.5917H159.137V50.3959Z" fill="#FDBD16"/>
<path d="M151.9 50.3959H144.663V57.5917H151.9V50.3959Z" fill="#070909"/>
<path d="M144.675 50.3959H137.438V57.5917H144.675V50.3959Z" fill="#070909"/>
<path d="M137.438 50.3959H130.2V57.5917H137.438V50.3959Z" fill="#FBBE14"/>
<path d="M130.2 50.3959H122.962V57.5917H130.2V50.3959Z" fill="#F9BF16"/>
<path d="M122.975 50.3959H115.737V57.5917H122.975V50.3959Z" fill="#F9BF16"/>
<path d="M115.738 50.3959H108.5V57.5917H115.738V50.3959Z" fill="#F9BF16"/>
<path d="M108.5 50.3959H101.263V57.5917H108.5V50.3959Z" fill="#F9BF16"/>
<path d="M101.275 50.3959H94.0376V57.5917H101.275V50.3959Z" fill="#F9BF16"/>
<path d="M94.0373 50.3959H86.7998V57.5917H94.0373V50.3959Z" fill="#FEC013"/>
<path d="M86.8 50.3959H79.5625V57.5917H86.8V50.3959Z" fill="#FBBF14"/>
<path d="M79.5749 50.3959H72.3374V57.5917H79.5749V50.3959Z" fill="#070909"/>
<path d="M72.3376 50.3959H65.1001V57.5917H72.3376V50.3959Z" fill="#070909"/>
<path d="M65.0998 50.3959H57.8623V57.5917H65.0998V50.3959Z" fill="#FBC014"/>
<path d="M57.8752 50.3959H50.6377V57.5917H57.8752V50.3959Z" fill="#FBBE14"/>
<path d="M50.6374 50.3959H43.3999V57.5917H50.6374V50.3959Z" fill="#FBBD14"/>
<path d="M43.4001 50.3959H36.1626V57.5917H43.4001V50.3959Z" fill="#080909"/>
<path d="M188.075 43.2H180.837V50.3958H188.075V43.2Z" fill="#070909"/>
<path d="M180.838 43.2H173.6V50.3958H180.838V43.2Z" fill="#F9BF16"/>
<path d="M173.6 43.2H166.362V50.3958H173.6V43.2Z" fill="#070909"/>
<path d="M166.375 43.2H159.138V50.3958H166.375V43.2Z" fill="#070909"/>
<path d="M159.137 43.2H151.9V50.3958H159.137V43.2Z" fill="#070909"/>
<path d="M137.438 43.2H130.2V50.3958H137.438V43.2Z" fill="#070909"/>
<path d="M130.2 43.2H122.962V50.3958H130.2V43.2Z" fill="#F9BF16"/>
<path d="M122.975 43.2H115.737V50.3958H122.975V43.2Z" fill="#F9BF16"/>
<path d="M115.738 43.2H108.5V50.3958H115.738V43.2Z" fill="#F9BF16"/>
<path d="M108.5 43.2H101.263V50.3958H108.5V43.2Z" fill="#F9BF16"/>
<path d="M101.275 43.2H94.0376V50.3958H101.275V43.2Z" fill="#FAC414"/>
<path d="M94.0373 43.2H86.7998V50.3958H94.0373V43.2Z" fill="#F9C115"/>
<path d="M86.8 43.2H79.5625V50.3958H86.8V43.2Z" fill="#070909"/>
<path d="M65.0998 43.2H57.8623V50.3958H65.0998V43.2Z" fill="#363535"/>
<path d="M57.8752 43.2H50.6377V50.3958H57.8752V43.2Z" fill="#070909"/>
<path d="M50.6374 43.2H43.3999V50.3958H50.6374V43.2Z" fill="#070909"/>
<path d="M43.4001 43.2H36.1626V50.3958H43.4001V43.2Z" fill="#FBC014"/>
<path d="M36.175 43.2H28.9375V50.3958H36.175V43.2Z" fill="#070909"/>
<path d="M188.075 36.0042H180.837V43.2H188.075V36.0042Z" fill="#070909"/>
<path d="M180.838 36.0042H173.6V43.2H180.838V36.0042Z" fill="#070909"/>
<path d="M144.675 36.0042H137.438V43.2H144.675V36.0042Z" fill="#070909"/>
<path d="M130.2 36.0042H122.962V43.2H130.2V36.0042Z" fill="#070909"/>
<path d="M122.975 36.0042H115.737V43.2H122.975V36.0042Z" fill="#F9BF16"/>
<path d="M115.738 36.0042H108.5V43.2H115.738V36.0042Z" fill="#F9BF16"/>
<path d="M108.5 36.0042H101.263V43.2H108.5V36.0042Z" fill="#F8C116"/>
<path d="M101.275 36.0042H94.0376V43.2H101.275V36.0042Z" fill="#F9C115"/>
<path d="M94.0373 36.0042H86.7998V43.2H94.0373V36.0042Z" fill="#070909"/>
<path d="M79.5749 36.0042H72.3374V43.2H79.5749V36.0042Z" fill="#070909"/>
<path d="M43.4001 36.0042H36.1626V43.2H43.4001V36.0042Z" fill="#070909"/>
<path d="M36.175 36.0042H28.9375V43.2H36.175V36.0042Z" fill="#070909"/>
<path d="M195.3 28.7958H188.062V35.9916H195.3V28.7958Z" fill="#070909"/>
<path d="M122.975 28.7958H115.737V35.9916H122.975V28.7958Z" fill="#070909"/>
<path d="M115.738 28.7958H108.5V35.9916H115.738V28.7958Z" fill="#FBC014"/>
<path d="M108.5 28.7958H101.263V35.9916H108.5V28.7958Z" fill="#FDBE14"/>
<path d="M101.275 28.7958H94.0376V35.9916H101.275V28.7958Z" fill="#070909"/>
<path d="M28.9377 28.7958H21.7002V35.9916H28.9377V28.7958Z" fill="#070909"/>
<path d="M122.975 21.6H115.737V28.7958H122.975V21.6Z" fill="#070909"/>
<path d="M115.738 21.6H108.5V28.7958H115.738V21.6Z" fill="#FBC014"/>
<path d="M108.5 21.6H101.263V28.7958H108.5V21.6Z" fill="#FBC014"/>
<path d="M101.275 21.6H94.0376V28.7958H101.275V21.6Z" fill="#070909"/>
<path d="M115.738 14.4042H108.5V21.6H115.738V14.4042Z" fill="#0A0C0B"/>
<path d="M108.5 14.4042H101.263V21.6H108.5V14.4042Z" fill="#0A0C0B"/>
<path d="M115.738 7.1958H108.5V14.3916H115.738V7.1958Z" fill="#0A0C0B"/>
<path d="M108.5 7.1958H101.263V14.3916H108.5V7.1958Z" fill="#0A0C0B"/>
<path d="M115.738 0H108.5V7.19581H115.738V0Z" fill="#0A0C0B"/>
<path d="M108.5 0H101.263V7.19581H108.5V0Z" fill="#0A0C0B"/>
</g>
<defs>
<clipPath id="clip0_775_8127">
<rect width="217" height="216" fill="white"/>
</clipPath>
</defs>
</svg>
